# STALKER Armor converted geometry (MC model units, pivot-relative)
v 2.30000 -2.30000 -2.30000
v -2.30000 10.30000 -2.30000
v 2.30000 10.30000 -2.30000
v -2.30000 -2.30000 -2.30000
v -2.30000 10.30000 2.30000
v -2.30000 10.30000 -2.30000
v -2.30000 -2.30000 2.30000
v 2.30000 10.30000 2.30000
v -2.30000 10.30000 2.30000
v 2.30000 -2.30000 2.30000
v 2.30000 10.30000 -2.30000
v 2.30000 10.30000 2.30000
v -2.30000 10.30000 2.30000
v 2.30000 10.30000 -2.30000
v -2.30000 10.30000 -2.30000
v -2.30000 -2.30000 -2.30000
v 2.30000 -2.30000 2.30000
v -2.30000 -2.30000 2.30000
v 2.30000 -2.30000 -2.30000
v -2.30000 -2.30000 -2.30000
v -2.30000 10.30000 -2.30000
v -2.30000 -2.30000 -2.30000
v -2.30000 -2.30000 2.30000
v -2.30000 10.30000 2.30000
v -2.30000 -2.30000 2.30000
v 2.30000 -2.30000 2.30000
v 2.30000 10.30000 2.30000
v 2.30000 -2.30000 2.30000
v 2.30000 -2.30000 -2.30000
v 2.30000 10.30000 -2.30000
v -2.30000 10.30000 2.30000
v 2.30000 10.30000 2.30000
v 2.30000 10.30000 -2.30000
v -2.30000 -2.30000 -2.30000
v 2.30000 -2.30000 -2.30000
v 2.30000 -2.30000 2.30000
vt 0.41945 0.99524
vt 0.75018 0.88971
vt 0.74805 0.99694
vt 0.42674 0.93016
vt 0.75389 0.83119
vt 0.75389 0.93016
vt 0.42411 0.88533
vt 0.74887 0.73674
vt 0.74853 0.88630
vt 0.37790 0.96145
vt 0.30757 0.77209
vt 0.37790 0.77209
vt 0.35914 0.83386
vt 0.27346 0.91954
vt 0.27346 0.83386
vt 0.42053 0.89695
vt 0.32886 0.98863
vt 0.32886 0.89695
vt 0.41945 0.99524
vt 0.42158 0.88802
vt 0.75018 0.88971
vt 0.42674 0.93016
vt 0.42674 0.83119
vt 0.75389 0.83119
vt 0.42411 0.88533
vt 0.42445 0.73577
vt 0.74887 0.73674
vt 0.37790 0.96145
vt 0.30757 0.96145
vt 0.30757 0.77209
vt 0.35914 0.83386
vt 0.35914 0.91954
vt 0.27346 0.91954
vt 0.42053 0.89695
vt 0.42053 0.98863
vt 0.32886 0.98863
vn 0.00000 -0.00000 -1.00000
vn 0.00000 -0.00000 -1.00000
vn 0.00000 -0.00000 -1.00000
vn -1.00000 -0.00000 -0.00000
vn -1.00000 -0.00000 -0.00000
vn -1.00000 -0.00000 -0.00000
vn -0.00000 -0.00000 1.00000
vn -0.00000 -0.00000 1.00000
vn -0.00000 -0.00000 1.00000
vn 1.00000 -0.00000 0.00000
vn 1.00000 -0.00000 0.00000
vn 1.00000 -0.00000 0.00000
vn 0.00000 1.00000 -0.00000
vn 0.00000 1.00000 -0.00000
vn 0.00000 1.00000 -0.00000
vn 0.00000 -1.00000 0.00000
vn 0.00000 -1.00000 0.00000
vn 0.00000 -1.00000 0.00000
vn 0.00000 -0.00000 -1.00000
vn 0.00000 -0.00000 -1.00000
vn 0.00000 -0.00000 -1.00000
vn -1.00000 -0.00000 -0.00000
vn -1.00000 -0.00000 -0.00000
vn -1.00000 -0.00000 -0.00000
vn -0.00000 -0.00000 1.00000
vn -0.00000 -0.00000 1.00000
vn -0.00000 -0.00000 1.00000
vn 1.00000 -0.00000 0.00000
vn 1.00000 -0.00000 0.00000
vn 1.00000 -0.00000 0.00000
vn 0.00000 1.00000 -0.00000
vn 0.00000 1.00000 -0.00000
vn 0.00000 1.00000 -0.00000
vn 0.00000 -1.00000 0.00000
vn 0.00000 -1.00000 0.00000
vn 0.00000 -1.00000 0.00000
f 1/1/1 2/2/2 3/3/3
f 4/4/4 5/5/5 6/6/6
f 7/7/7 8/8/8 9/9/9
f 10/10/10 11/11/11 12/12/12
f 13/13/13 14/14/14 15/15/15
f 16/16/16 17/17/17 18/18/18
f 19/19/19 20/20/20 21/21/21
f 22/22/22 23/23/23 24/24/24
f 25/25/25 26/26/26 27/27/27
f 28/28/28 29/29/29 30/30/30
f 31/31/31 32/32/32 33/33/33
f 34/34/34 35/35/35 36/36/36
