# STALKER Armor full-body set (mannequin space, see steve.obj)
o head
v -0.64118 6.24018 1.21058
v -0.64118 7.75982 1.21058
v -1.00000 6.00000 -1.00000
v -1.00000 8.00000 -1.00000
v -1.00000 6.00000 0.00000
v -1.00000 6.00000 0.77885
v -1.00000 8.00000 0.77885
v -1.08651 8.07962 0.02163
v -1.08651 8.07962 -0.88684
v -1.08651 6.05689 -0.88684
v -1.08651 6.05689 0.02163
v -1.08651 6.05689 0.69263
v -1.08651 8.07962 0.69263
v -1.00000 6.00000 1.00000
v -1.00000 8.00000 1.00000
v -0.85072 6.06657 1.13482
v -0.85072 7.93343 1.13482
v 0.64118 6.24018 1.21058
v 0.64118 7.75982 1.21058
v 1.00000 6.00000 -1.00000
v 1.00000 8.00000 -1.00000
v 1.00000 6.00000 0.00000
v 1.00000 6.00000 0.77885
v 1.00000 8.00000 0.77885
v 1.08651 8.07962 0.02163
v 1.08651 8.07962 -0.88684
v 1.08651 6.05689 -0.88684
v 1.08651 6.05689 0.02163
v 1.08651 6.05689 0.69263
v 1.08651 8.07962 0.69263
v 1.00000 6.00000 1.00000
v 1.00000 8.00000 1.00000
v 0.85072 6.06657 1.13482
v 0.85072 7.93343 1.13482
v 0.00000 6.00000 1.00000
v 0.00000 6.00000 -1.00000
v 0.00000 8.07962 0.69263
v 0.00000 7.93343 1.13482
v 0.00000 6.24018 1.21058
v 0.00000 8.00000 1.00000
v 0.00000 8.00000 -1.00000
v 0.00000 6.00000 0.77885
v 0.00000 7.75982 1.21058
v 0.00000 8.07962 -0.88684
v 0.00000 8.00000 0.77885
v 0.00000 6.06657 1.13482
vt 0.97220 0.81281
vt 0.98933 0.97725
vt 0.97220 0.97725
vt 0.99509 0.67158
vt 0.93958 0.48137
vt 0.99555 0.48137
vt 0.94181 0.66260
vt 0.89873 0.49180
vt 0.84562 0.53046
vt 0.79378 0.56071
vt 0.91429 0.70299
vt 0.91032 0.71195
vt 0.68061 0.46948
vt 0.71643 0.57328
vt 0.67074 0.47926
vt 0.89287 0.80597
vt 0.97220 0.81247
vt 0.97208 0.80571
vt 0.72568 0.71748
vt 0.60474 0.71796
vt 0.60488 0.62432
vt 0.67092 0.44385
vt 0.77633 0.67729
vt 0.65303 0.44141
vt 0.82665 0.57041
vt 0.89585 0.68320
vt 0.80867 0.56988
vt 0.73943 0.58167
vt 0.67654 0.48481
vt 0.67906 0.46577
vt 0.95971 0.81726
vt 0.97174 0.97741
vt 0.95971 0.97091
vt 0.95980 0.97093
vt 0.89312 0.97766
vt 0.97150 0.97766
vt 0.94317 0.83101
vt 0.94317 0.95609
vt 0.89347 0.81752
vt 0.90688 0.53470
vt 0.94883 0.59406
vt 0.90140 0.62757
vt 0.89298 0.81273
vt 0.96020 0.81687
vt 0.89347 0.97117
vt 0.89864 0.83121
vt 0.94856 0.95609
vt 0.89864 0.95629
vt 0.89312 0.98725
vt 0.66649 0.74952
vt 0.77678 0.67901
vt 0.79293 0.68342
vt 0.98933 0.97725
vt 0.97220 0.81281
vt 0.97220 0.97725
vt 0.99509 0.67158
vt 0.99555 0.48137
vt 0.84562 0.53046
vt 0.99492 0.62394
vt 0.94181 0.66260
vt 0.91429 0.70299
vt 0.79378 0.56071
vt 0.91032 0.71195
vt 0.68061 0.46948
vt 0.71643 0.57328
vt 0.73363 0.57861
vt 0.97220 0.81247
vt 0.97208 0.80571
vt 0.60488 0.62432
vt 0.72598 0.50362
vt 0.67092 0.44385
vt 0.77633 0.67729
vt 0.79284 0.67708
vt 0.82665 0.57041
vt 0.90689 0.67470
vt 0.67654 0.48481
vt 0.73943 0.58167
vt 0.67906 0.46577
vt 0.97174 0.97741
vt 0.95971 0.81726
vt 0.95971 0.97091
vt 0.95980 0.97093
vt 0.89312 0.97093
vt 0.94317 0.83101
vt 0.94317 0.95609
vt 0.89324 0.83121
vt 0.90140 0.62757
vt 0.94883 0.59406
vt 0.96020 0.81687
vt 0.89281 0.81709
vt 0.89324 0.95629
vt 0.94856 0.95609
vt 0.97150 0.97766
vt 0.77678 0.67901
vt 0.66040 0.73984
vt 0.98933 0.81281
vt 0.93912 0.67158
vt 0.80639 0.55902
vt 0.90259 0.69115
vt 0.99492 0.62394
vt 0.79642 0.55004
vt 0.73363 0.57861
vt 0.60505 0.50409
vt 0.79284 0.67708
vt 0.73139 0.59010
vt 0.97174 0.81280
vt 0.86637 0.65233
vt 0.82442 0.59296
vt 0.94856 0.83101
vt 0.97150 0.98725
vt 0.98933 0.81281
vt 0.90259 0.69115
vt 0.80639 0.55902
vt 0.89873 0.49180
vt 0.79642 0.55004
vt 0.67074 0.47926
vt 0.60505 0.50409
vt 0.60474 0.71796
vt 0.65303 0.44141
vt 0.80867 0.56988
vt 0.73139 0.59010
vt 0.97174 0.81280
vt 0.86637 0.65233
vt 0.94856 0.83101
vt 0.97150 0.98725
vt 0.79293 0.68342
f 15/1 6/2 14/3
f 4/4 36/5 3/6
f 8/7 10/8 11/9
f 7/10 12/11 6/12
f 5/13 12/14 11/15
f 42/16 14/17 6/18
f 42/19 6/20 5/21
f 4/22 10/23 9/24
f 7/25 37/26 13/27
f 5/28 10/29 3/30
f 17/31 14/32 16/33
f 17/34 40/35 15/36
f 2/37 16/33 1/38
f 2/37 38/39 17/31
f 44/40 9/41 8/42
f 35/43 16/44 14/17
f 46/45 1/38 16/33
f 43/46 1/47 39/48
f 45/49 15/36 40/35
f 44/50 4/51 9/52
f 23/53 32/54 31/55
f 36/5 21/56 20/57
f 28/58 26/59 25/60
f 29/61 24/62 23/63
f 22/64 29/65 23/66
f 31/67 42/16 23/68
f 22/69 42/19 36/70
f 21/71 27/72 20/73
f 24/74 37/26 45/75
f 27/76 22/77 20/78
f 31/79 34/80 33/81
f 34/82 40/35 38/83
f 33/81 19/84 18/85
f 19/84 38/39 43/86
f 25/87 26/88 44/40
f 35/43 33/89 46/90
f 46/45 18/85 39/91
f 18/92 43/46 39/48
f 32/93 45/49 40/35
f 44/50 21/94 41/95
f 15/1 7/96 6/2
f 4/4 41/97 36/5
f 11/9 12/98 13/99
f 8/7 9/100 10/8
f 11/9 13/99 8/7
f 7/10 13/101 12/11
f 5/13 6/102 12/14
f 42/16 35/43 14/17
f 5/21 3/103 36/70
f 36/70 42/19 5/21
f 4/22 3/104 10/23
f 7/25 45/75 37/26
f 5/28 11/105 10/29
f 17/31 15/106 14/32
f 17/34 38/83 40/35
f 2/37 17/31 16/33
f 2/37 43/86 38/39
f 13/107 37/108 8/42
f 37/108 44/40 8/42
f 35/43 46/90 16/44
f 46/45 39/91 1/38
f 43/46 2/109 1/47
f 45/49 7/110 15/36
f 44/50 41/95 4/51
f 23/53 24/111 32/54
f 36/5 41/97 21/56
f 30/112 29/113 28/58
f 28/58 27/114 26/59
f 25/60 30/112 28/58
f 29/61 30/115 24/62
f 22/64 28/116 29/65
f 31/67 35/43 42/16
f 36/70 20/117 22/69
f 22/69 23/118 42/19
f 21/71 26/119 27/72
f 24/74 30/120 37/26
f 27/76 28/121 22/77
f 31/79 32/122 34/80
f 34/82 32/93 40/35
f 33/81 34/80 19/84
f 19/84 34/80 38/39
f 44/40 37/108 25/87
f 37/108 30/123 25/87
f 35/43 31/67 33/89
f 46/45 33/81 18/85
f 18/92 19/124 43/46
f 32/93 24/125 45/49
f 44/50 26/126 21/94
o chest
v -0.99415 2.88861 0.63723
v -0.94117 5.91183 0.63723
v -0.99415 2.88861 -0.77799
v -0.94117 5.91183 -0.77799
v 0.00585 2.88861 0.63723
v -0.07748 5.40133 0.63723
v 0.00585 2.88861 -0.77799
v -0.07748 5.91183 -0.77799
v -0.55682 5.91183 -0.77799
v -0.38341 5.91183 0.63723
v -0.93116 6.04181 0.52203
v -0.86887 6.04181 -0.65907
v -0.49415 6.04181 0.52203
v -0.61906 6.04181 -0.65907
v -0.64733 5.17213 0.63723
v -0.85503 4.86742 -0.77799
v -0.99223 3.01779 0.53887
v -0.99223 5.96160 0.53887
v -0.99223 3.01779 -0.66112
v -0.99223 5.96160 -0.66112
v 0.00777 3.01779 0.53887
v 0.00777 5.96160 0.53887
v 0.00777 3.01779 -0.66112
v 0.00777 5.96160 -0.66112
v -0.96717 3.27233 0.63723
v 0.00585 3.27234 0.63723
v -0.07748 3.88873 0.63723
v -0.87305 4.06528 0.63723
v -0.60103 5.23150 0.70766
v -0.88343 5.83234 0.70766
v -0.39982 5.83234 0.70766
v -0.07941 5.33223 0.79634
v -0.82436 4.15872 0.70766
v -0.07941 3.96399 0.79634
v -0.07748 4.74783 -0.77799
v 0.00777 4.74783 -0.66112
v 0.00777 4.74783 0.53887
v 0.00585 4.74783 -0.77799
v 0.00585 2.88861 -0.77799
v 0.00585 2.88861 0.63723
v 0.00585 3.27234 0.63723
v 0.00585 4.74783 0.63723
v 0.00642 5.91183 -0.77685
v 0.00642 5.40133 0.63836
v 0.00642 3.88873 0.63836
v 0.00450 5.33223 0.79628
v 0.00450 3.96399 0.79628
v 0.00642 4.74783 -0.77685
v 0.00585 4.04539 -0.77799
v -0.04600 3.56228 -0.77799
v -0.67686 5.79178 -0.77799
v -0.56493 4.12720 -0.77799
v -0.48311 3.56228 -0.77799
v -0.69259 6.04925 -1.86066
v 0.01474 6.04925 -1.86066
v 0.01474 4.73244 -1.86066
v 0.05445 3.40091 -1.86066
v -0.81075 5.95166 -1.86066
v -0.64242 4.05101 -1.86066
v -0.58175 3.40091 -1.86066
v -0.71186 6.18409 -1.59833
v 0.00899 6.18409 -1.59833
v 0.05634 3.26607 -1.59833
v -0.89239 6.03500 -1.59833
v -0.72406 3.96767 -1.59833
v -0.60102 3.26607 -1.59833
v 0.00852 5.91375 -0.77723
v 0.00852 4.74975 -0.77723
v 0.04001 3.56420 -0.77723
v 0.18568 3.26846 -1.59647
v 0.13834 4.74086 -1.59647
v 0.13834 6.18648 -1.59647
v 0.14409 6.05164 -1.85879
v 0.14409 4.73482 -1.85879
v 0.18379 3.40330 -1.85879
v -0.72406 3.96767 -1.01936
v 0.13834 6.18648 -1.01936
v -0.89239 6.03500 -1.01936
v 0.00899 6.18409 -1.01936
v 0.13834 4.74086 -1.01936
v -0.71186 6.18409 -1.01936
v 0.18568 3.26846 -1.01936
v 0.05634 3.26607 -1.01936
v -0.60102 3.26607 -1.01936
v -0.44967 4.56988 0.95621
v -0.44967 5.29608 0.95621
v -0.44967 4.56988 0.70568
v -0.44967 5.29608 0.70568
v 0.01094 4.56988 0.95621
v 0.01094 5.29608 0.95621
v 0.01094 4.56988 0.70568
v 0.01094 5.29608 0.70568
v -0.52865 4.14926 0.77296
v -0.57411 4.20343 0.74367
v -0.40708 4.36983 0.74367
v -0.23804 4.73236 0.74367
v -0.34300 4.33995 0.77296
v -0.17395 4.70247 0.77296
v -0.31645 4.32757 0.84367
v -0.14741 4.69010 0.84367
v -0.34300 4.33995 0.91438
v -0.17395 4.70247 0.91438
v -0.40708 4.36983 0.94367
v -0.23804 4.73236 0.94367
v -0.47117 4.39972 0.91438
v -0.30212 4.76224 0.91438
v -0.49771 4.41210 0.84367
v -0.32867 4.77462 0.84367
v -0.47117 4.39972 0.77296
v -0.30212 4.76224 0.77296
v -0.50983 4.12682 0.84367
v -0.52865 4.14926 0.91438
v -0.57411 4.20343 0.94367
v -0.61956 4.25759 0.91438
v -0.63839 4.28003 0.84367
v -0.61956 4.25759 0.77296
v -0.92554 4.10262 0.77296
v -0.90136 4.03618 0.74367
v -0.93556 4.13015 0.84367
v -0.92554 4.10262 0.91438
v -0.90136 4.03618 0.94367
v -0.87718 3.96973 0.91438
v -0.86716 3.94221 0.84367
v -0.87718 3.96973 0.77296
v -0.98439 4.06699 0.70213
v -0.94658 4.00054 0.69852
v -1.04148 4.09451 0.74505
v -1.08439 4.06699 0.80213
v -1.08800 4.00054 0.83994
v -1.05019 3.93410 0.83633
v -0.99311 3.90657 0.79341
v -0.95019 3.93410 0.73633
v -1.09170 4.03747 0.54800
v -1.06241 3.96676 0.54800
v -1.16241 4.06676 0.54800
v -1.23312 4.03747 0.54800
v -1.26241 3.96676 0.54800
v -1.23312 3.89604 0.54800
v -1.16241 3.86676 0.54800
v -1.09170 3.89604 0.54800
v -1.09170 4.03747 -0.54014
v -1.06241 3.96675 -0.54014
v -1.16241 4.06675 -0.54014
v -1.23312 4.03747 -0.54014
v -1.26241 3.96675 -0.54014
v -1.23312 3.89604 -0.54014
v -1.16241 3.86675 -0.54014
v -1.09170 3.89604 -0.54014
v -1.04021 4.03747 -0.60605
v -1.01950 3.96675 -0.58534
v -1.09021 4.06675 -0.65605
v -1.14021 4.03747 -0.70605
v -1.16092 3.96675 -0.72676
v -1.14021 3.89604 -0.70605
v -1.09021 3.86675 -0.65605
v -1.04021 3.89604 -0.60605
v -0.83749 4.03746 -0.83805
v -0.83749 3.96675 -0.80876
v -0.83749 4.06675 -0.90877
v -0.83749 4.03746 -0.97948
v -0.83749 3.96675 -1.00876
v -0.83749 3.89604 -0.97948
v -0.83749 3.86675 -0.90877
v -0.83749 3.89604 -0.83805
v -0.49265 4.03746 -0.83805
v -0.49265 3.96675 -0.80876
v -0.49265 4.06675 -0.90877
v -0.49265 4.03746 -0.97948
v -0.49265 3.96675 -1.00876
v -0.49265 3.89604 -0.97948
v -0.49265 3.86675 -0.90877
v -0.49265 3.89604 -0.83805
v -1.16241 3.86675 0.00393
v -1.09170 3.89604 0.00393
v -1.26241 3.96675 0.00393
v -1.23312 3.89604 0.00393
v -1.16241 4.06675 0.00393
v -1.23312 4.03747 0.00393
v -1.06241 3.96675 0.00393
v -1.09170 4.03747 0.00393
v 0.99415 2.88861 0.63723
v 0.94117 5.91183 0.63723
v 0.99415 2.88861 -0.77799
v 0.94117 5.91183 -0.77799
v -0.00585 2.88861 0.63723
v 0.07748 5.40133 0.63723
v -0.00585 2.88861 -0.77799
v 0.07748 5.91183 -0.77799
v 0.55682 5.91183 -0.77799
v 0.38341 5.91183 0.63723
v 0.93116 6.04181 0.52203
v 0.86887 6.04181 -0.65907
v 0.49415 6.04181 0.52203
v 0.61906 6.04181 -0.65907
v 0.64733 5.17213 0.63723
v 0.85503 4.86742 -0.77799
v 0.99223 3.01779 0.53887
v 0.99223 5.96160 0.53887
v 0.99223 3.01779 -0.66112
v 0.99223 5.96160 -0.66112
v -0.00777 3.01779 0.53887
v -0.00777 5.96160 0.53887
v -0.00777 3.01779 -0.66112
v -0.00777 5.96160 -0.66112
v 0.96717 3.27233 0.63723
v -0.00585 3.27234 0.63723
v 0.07748 3.88873 0.63723
v 0.87305 4.06528 0.63723
v 0.60103 5.23150 0.70766
v 0.88343 5.83234 0.70766
v 0.39982 5.83234 0.70766
v 0.07941 5.33223 0.79634
v 0.82436 4.15872 0.70766
v 0.07941 3.96399 0.79634
v 0.07748 4.74783 -0.77799
v -0.00777 4.74783 -0.66112
v -0.00777 4.74783 0.53887
v -0.00585 4.74783 -0.77799
v -0.00585 2.88861 -0.77799
v -0.00585 2.88861 0.63723
v -0.00585 3.27234 0.63723
v -0.00585 4.74783 0.63723
v -0.00642 5.91183 -0.77685
v -0.00642 5.40133 0.63836
v -0.00642 3.88873 0.63836
v -0.00450 5.33223 0.79628
v -0.00450 3.96399 0.79628
v -0.00642 4.74783 -0.77685
v -0.00585 4.04539 -0.77799
v 0.04600 3.56228 -0.77799
v 0.67686 5.79178 -0.77799
v 0.56493 4.12720 -0.77799
v 0.48311 3.56228 -0.77799
v 0.69259 6.04925 -1.86066
v -0.01474 6.04925 -1.86066
v -0.01474 4.73244 -1.86066
v -0.05445 3.40091 -1.86066
v 0.81075 5.95166 -1.86066
v 0.64242 4.05101 -1.86066
v 0.58175 3.40091 -1.86066
v 0.71186 6.18409 -1.59833
v -0.00899 6.18409 -1.59833
v -0.05634 3.26607 -1.59833
v 0.89239 6.03500 -1.59833
v 0.72406 3.96767 -1.59833
v 0.60102 3.26607 -1.59833
v -0.00852 5.91375 -0.77723
v -0.00852 4.74975 -0.77723
v -0.04001 3.56420 -0.77723
v -0.18568 3.26846 -1.59647
v -0.13834 4.74086 -1.59647
v -0.13834 6.18648 -1.59647
v -0.14409 6.05164 -1.85879
v -0.14409 4.73482 -1.85879
v -0.18379 3.40330 -1.85879
v 0.72406 3.96767 -1.01936
v -0.13834 6.18648 -1.01936
v 0.89239 6.03500 -1.01936
v -0.00899 6.18409 -1.01936
v -0.13834 4.74086 -1.01936
v 0.71186 6.18409 -1.01936
v -0.18568 3.26846 -1.01936
v -0.05634 3.26607 -1.01936
v 0.60102 3.26607 -1.01936
v 0.44967 4.56988 0.95621
v 0.44967 5.29608 0.95621
v 0.44967 4.56988 0.70568
v 0.44967 5.29608 0.70568
v -0.01094 4.56988 0.95621
v -0.01094 5.29608 0.95621
v -0.01094 4.56988 0.70568
v -0.01094 5.29608 0.70568
v 0.52865 4.14926 0.77296
v 0.57411 4.20343 0.74367
v 0.40708 4.36983 0.74367
v 0.23804 4.73236 0.74367
v 0.34300 4.33995 0.77296
v 0.17395 4.70247 0.77296
v 0.31645 4.32757 0.84367
v 0.14741 4.69010 0.84367
v 0.34300 4.33995 0.91438
v 0.17395 4.70247 0.91438
v 0.40708 4.36983 0.94367
v 0.23804 4.73236 0.94367
v 0.47117 4.39972 0.91438
v 0.30212 4.76224 0.91438
v 0.49771 4.41210 0.84367
v 0.32867 4.77462 0.84367
v 0.47117 4.39972 0.77296
v 0.30212 4.76224 0.77296
v 0.50983 4.12682 0.84367
v 0.52865 4.14926 0.91438
v 0.57411 4.20343 0.94367
v 0.61956 4.25759 0.91438
v 0.63839 4.28003 0.84367
v 0.61956 4.25759 0.77296
v 0.92554 4.10262 0.77296
v 0.90136 4.03618 0.74367
v 0.93556 4.13015 0.84367
v 0.92554 4.10262 0.91438
v 0.90136 4.03618 0.94367
v 0.87718 3.96973 0.91438
v 0.86716 3.94221 0.84367
v 0.87718 3.96973 0.77296
v 0.98439 4.06699 0.70213
v 0.94658 4.00054 0.69852
v 1.04148 4.09451 0.74505
v 1.08439 4.06699 0.80213
v 1.08800 4.00054 0.83994
v 1.05019 3.93410 0.83633
v 0.99311 3.90657 0.79341
v 0.95019 3.93410 0.73633
v 1.09170 4.03747 0.54800
v 1.06241 3.96676 0.54800
v 1.16241 4.06676 0.54800
v 1.23312 4.03747 0.54800
v 1.26241 3.96676 0.54800
v 1.23312 3.89604 0.54800
v 1.16241 3.86676 0.54800
v 1.09170 3.89604 0.54800
v 1.09170 4.03747 -0.54014
v 1.06241 3.96675 -0.54014
v 1.16241 4.06675 -0.54014
v 1.23312 4.03747 -0.54014
v 1.26241 3.96675 -0.54014
v 1.23312 3.89604 -0.54014
v 1.16241 3.86675 -0.54014
v 1.09170 3.89604 -0.54014
v 1.04021 4.03747 -0.60605
v 1.01950 3.96675 -0.58534
v 1.09021 4.06675 -0.65605
v 1.14021 4.03747 -0.70605
v 1.16092 3.96675 -0.72676
v 1.14021 3.89604 -0.70605
v 1.09021 3.86675 -0.65605
v 1.04021 3.89604 -0.60605
v 0.83749 4.03746 -0.83805
v 0.83749 3.96675 -0.80876
v 0.83749 4.06675 -0.90877
v 0.83749 4.03746 -0.97948
v 0.83749 3.96675 -1.00876
v 0.83749 3.89604 -0.97948
v 0.83749 3.86675 -0.90877
v 0.83749 3.89604 -0.83805
v 0.49265 4.03746 -0.83805
v 0.49265 3.96675 -0.80876
v 0.49265 4.06675 -0.90877
v 0.49265 4.03746 -0.97948
v 0.49265 3.96675 -1.00876
v 0.49265 3.89604 -0.97948
v 0.49265 3.86675 -0.90877
v 0.49265 3.89604 -0.83805
v 1.16241 3.86675 0.00393
v 1.09170 3.89604 0.00393
v 1.26241 3.96675 0.00393
v 1.23312 3.89604 0.00393
v 1.16241 4.06675 0.00393
v 1.23312 4.03747 0.00393
v 1.06241 3.96675 0.00393
v 1.09170 4.03747 0.00393
vt 0.57066 0.59426
vt 0.64285 0.47223
vt 0.69180 0.55093
vt 0.54272 0.26728
vt 0.59282 0.33631
vt 0.49036 0.33631
vt 0.59282 0.21778
vt 0.59282 0.33631
vt 0.04236 0.55820
vt 0.14204 0.51889
vt 0.14478 0.55820
vt 0.66272 0.53585
vt 0.65194 0.71291
vt 0.57561 0.58970
vt 0.53871 0.52344
vt 0.62773 0.46797
vt 0.00454 0.35125
vt 0.12000 0.14548
vt 0.02962 0.14485
vt 0.56085 0.38953
vt 0.45360 0.29189
vt 0.49718 0.26372
vt 0.44167 0.26974
vt 0.48687 0.26367
vt 0.45337 0.28574
vt 0.76995 0.96843
vt 0.75659 0.83613
vt 0.76995 0.82523
vt 0.43684 0.26437
vt 0.48916 0.26388
vt 0.46128 0.28409
vt 0.62275 0.67785
vt 0.78475 0.70022
vt 0.19196 0.01322
vt 0.31492 0.31483
vt 0.19196 0.31484
vt 0.11568 0.66447
vt 0.01321 0.66447
vt 0.01321 0.54010
vt 0.46393 0.19052
vt 0.34134 0.01321
vt 0.46393 0.01326
vt 0.60765 0.60485
vt 0.63558 0.47032
vt 0.75526 0.69790
vt 0.73016 0.82533
vt 0.62775 0.94813
vt 0.62775 0.82523
vt 0.62607 0.71073
vt 0.66303 0.46493
vt 0.76213 0.62814
vt 0.47431 0.34284
vt 0.55244 0.34224
vt 0.50601 0.24550
vt 0.05095 0.45574
vt 0.13245 0.43766
vt 0.03085 0.17338
vt 0.11610 0.12023
vt 0.04481 0.21010
vt 0.48442 0.24158
vt 0.43940 0.25673
vt 0.47647 0.23231
vt 0.53452 0.54792
vt 0.53613 0.53865
vt 0.61302 0.67408
vt 0.56253 0.59306
vt 0.09412 0.83861
vt 0.01861 0.84614
vt 0.01321 0.83931
vt 0.03141 0.49422
vt 0.01240 0.13562
vt 0.03438 0.13578
vt 0.34134 0.31484
vt 0.34134 0.19048
vt 0.03105 0.21144
vt 0.13952 0.30577
vt 0.13357 0.31198
vt 0.77232 0.72683
vt 0.62775 0.79875
vt 0.62775 0.64757
vt 0.04238 0.51889
vt 0.04247 0.36773
vt 0.14210 0.64586
vt 0.14210 0.64586
vt 0.14210 0.64586
vt 0.14210 0.64586
vt 0.14210 0.64586
vt 0.87261 0.01321
vt 0.87250 0.15824
vt 0.87253 0.01324
vt 0.77347 0.51650
vt 0.64050 0.58183
vt 0.62775 0.56927
vt 0.66133 0.40334
vt 0.10303 0.85452
vt 0.09443 0.85466
vt 0.03397 0.17124
vt 0.04233 0.15513
vt 0.04256 0.17112
vt 0.10303 0.69089
vt 0.10272 0.83859
vt 0.97230 0.36273
vt 0.98090 0.48200
vt 0.97230 0.48200
vt 0.37986 0.37308
vt 0.43390 0.34131
vt 0.42463 0.37233
vt 0.58428 0.14580
vt 0.59282 0.14580
vt 0.08138 0.99630
vt 0.21629 0.99292
vt 0.09011 0.85505
vt 0.78208 0.65382
vt 0.65205 0.51370
vt 0.69482 0.50741
vt 0.19207 0.37170
vt 0.21772 0.49220
vt 0.19196 0.49319
vt 0.26615 0.82702
vt 0.32383 0.85343
vt 0.25001 0.85467
vt 0.08054 0.90838
vt 0.09400 0.88127
vt 0.09379 0.90856
vt 0.66524 0.45775
vt 0.61533 0.45203
vt 0.23128 0.83971
vt 0.25366 0.81493
vt 0.72581 0.62826
vt 0.64262 0.55005
vt 0.67859 0.53161
vt 0.35277 0.98276
vt 0.21625 0.99399
vt 0.35273 0.99602
vt 0.19210 0.61246
vt 0.21789 0.64032
vt 0.70337 0.67305
vt 0.69074 0.64853
vt 0.63668 0.75942
vt 0.56986 0.56269
vt 0.67821 0.74451
vt 0.50301 0.53509
vt 0.53707 0.59226
vt 0.01559 0.88109
vt 0.01321 0.90838
vt 0.08138 0.98276
vt 0.21629 0.98074
vt 0.43218 0.49386
vt 0.42337 0.49382
vt 0.56355 0.58869
vt 0.63372 0.53250
vt 0.66970 0.51407
vt 0.42531 0.61304
vt 0.43412 0.61309
vt 0.43344 0.37238
vt 0.61166 0.68718
vt 0.76040 0.69552
vt 0.30368 0.35506
vt 0.30352 0.49151
vt 0.27668 0.49215
vt 0.30368 0.62643
vt 0.27685 0.64027
vt 0.32406 0.82624
vt 0.33708 0.85346
vt 0.62430 0.71169
vt 0.08059 0.96768
vt 0.09385 0.96767
vt 0.01327 0.96768
vt 0.53315 0.50102
vt 0.58957 0.87128
vt 0.61524 0.94569
vt 0.58957 0.94569
vt 0.38854 0.95925
vt 0.34134 0.88484
vt 0.38854 0.88484
vt 0.56805 0.96895
vt 0.54245 0.89454
vt 0.56805 0.89455
vt 0.59099 0.97466
vt 0.65971 0.86634
vt 0.59099 0.86630
vt 0.61721 0.91854
vt 0.59155 0.87139
vt 0.61721 0.87136
vt 0.58907 0.87214
vt 0.61473 0.91934
vt 0.58907 0.91934
vt 0.80565 0.73868
vt 0.91445 0.78720
vt 0.80499 0.78604
vt 0.80499 0.78604
vt 0.91511 0.73984
vt 0.91445 0.78720
vt 0.80565 0.73868
vt 0.91445 0.78720
vt 0.80499 0.78604
vt 0.91511 0.73984
vt 0.91445 0.78720
vt 0.80565 0.73868
vt 0.91445 0.78720
vt 0.80499 0.78604
vt 0.80565 0.73868
vt 0.91445 0.78720
vt 0.80499 0.78604
vt 0.80499 0.78604
vt 0.91511 0.73984
vt 0.91445 0.78720
vt 0.80565 0.73868
vt 0.91445 0.78720
vt 0.80499 0.78604
vt 0.80499 0.78604
vt 0.91511 0.73984
vt 0.91445 0.78720
vt 0.80565 0.73868
vt 0.91445 0.78720
vt 0.80499 0.78604
vt 0.80499 0.78604
vt 0.91511 0.73984
vt 0.91445 0.78720
vt 0.80565 0.73868
vt 0.91445 0.78720
vt 0.80499 0.78604
vt 0.91511 0.73984
vt 0.91445 0.78720
vt 0.80565 0.73868
vt 0.91445 0.78720
vt 0.80565 0.73868
vt 0.91445 0.78720
vt 0.80565 0.73868
vt 0.91445 0.78720
vt 0.80499 0.78604
vt 0.80499 0.78604
vt 0.91511 0.73984
vt 0.91445 0.78720
vt 0.80499 0.78604
vt 0.91511 0.73984
vt 0.91445 0.78720
vt 0.81068 0.31729
vt 0.81068 0.32505
vt 0.79340 0.31837
vt 0.80565 0.73868
vt 0.91445 0.78720
vt 0.80499 0.78604
vt 0.80565 0.73868
vt 0.91445 0.78720
vt 0.80499 0.78604
vt 0.91511 0.73984
vt 0.91445 0.78720
vt 0.91511 0.73984
vt 0.91445 0.78720
vt 0.80565 0.73868
vt 0.91445 0.78720
vt 0.80565 0.73868
vt 0.91445 0.78720
vt 0.80565 0.73868
vt 0.91445 0.78720
vt 0.80499 0.78604
vt 0.80499 0.78604
vt 0.91511 0.73984
vt 0.91445 0.78720
vt 0.80565 0.73868
vt 0.91445 0.78720
vt 0.80499 0.78604
vt 0.80565 0.73868
vt 0.91445 0.78720
vt 0.80499 0.78604
vt 0.80565 0.73868
vt 0.91445 0.78720
vt 0.80499 0.78604
vt 0.80499 0.78604
vt 0.91511 0.73984
vt 0.91445 0.78720
vt 0.80565 0.73868
vt 0.91445 0.78720
vt 0.80499 0.78604
vt 0.80565 0.73868
vt 0.91445 0.78720
vt 0.80499 0.78604
vt 0.80565 0.73868
vt 0.91445 0.78720
vt 0.80499 0.78604
vt 0.79501 0.78725
vt 0.91813 0.74104
vt 0.91813 0.78725
vt 0.80499 0.78604
vt 0.91511 0.73984
vt 0.91445 0.78720
vt 0.80565 0.73868
vt 0.91445 0.78720
vt 0.80499 0.78604
vt 0.80565 0.73868
vt 0.91445 0.78720
vt 0.80499 0.78604
vt 0.80565 0.73868
vt 0.91445 0.78720
vt 0.80499 0.78604
vt 0.80499 0.78604
vt 0.91511 0.73984
vt 0.91445 0.78720
vt 0.80565 0.73868
vt 0.91445 0.78720
vt 0.80499 0.78604
vt 0.80565 0.73868
vt 0.91445 0.78720
vt 0.80499 0.78604
vt 0.80565 0.73868
vt 0.91445 0.78720
vt 0.80499 0.78604
vt 0.79501 0.74104
vt 0.91813 0.78725
vt 0.79501 0.78725
vt 0.79501 0.74104
vt 0.91813 0.78725
vt 0.79501 0.78725
vt 0.79501 0.74104
vt 0.91813 0.78725
vt 0.79501 0.78725
vt 0.79501 0.74104
vt 0.91813 0.78725
vt 0.79501 0.78725
vt 0.79501 0.74104
vt 0.91813 0.78725
vt 0.79501 0.78725
vt 0.79501 0.74104
vt 0.91813 0.78725
vt 0.79501 0.78725
vt 0.79501 0.74104
vt 0.91813 0.78725
vt 0.79501 0.78725
vt 0.80565 0.73868
vt 0.91445 0.78720
vt 0.80499 0.78604
vt 0.80565 0.73868
vt 0.91445 0.78720
vt 0.80499 0.78604
vt 0.80499 0.78604
vt 0.91511 0.73984
vt 0.91445 0.78720
vt 0.80499 0.78604
vt 0.91511 0.73984
vt 0.91445 0.78720
vt 0.80565 0.73868
vt 0.91445 0.78720
vt 0.80499 0.78604
vt 0.80565 0.73868
vt 0.91445 0.78720
vt 0.80499 0.78604
vt 0.80499 0.78604
vt 0.91511 0.73984
vt 0.91445 0.78720
vt 0.80499 0.78604
vt 0.91511 0.73984
vt 0.91445 0.78720
vt 0.80499 0.78604
vt 0.91511 0.73984
vt 0.91445 0.78720
vt 0.80565 0.73868
vt 0.91445 0.78720
vt 0.80499 0.78604
vt 0.80499 0.78604
vt 0.91511 0.73984
vt 0.91445 0.78720
vt 0.80499 0.78604
vt 0.91511 0.73984
vt 0.91445 0.78720
vt 0.80565 0.73868
vt 0.91445 0.78720
vt 0.80499 0.78604
vt 0.80565 0.73868
vt 0.91445 0.78720
vt 0.80499 0.78604
vt 0.80499 0.78604
vt 0.91511 0.73984
vt 0.91445 0.78720
vt 0.80499 0.78604
vt 0.91511 0.73984
vt 0.91445 0.78720
vt 0.76145 0.33104
vt 0.74809 0.32552
vt 0.75362 0.31213
vt 0.80499 0.78604
vt 0.91511 0.73984
vt 0.91445 0.78720
vt 0.80499 0.78604
vt 0.91511 0.73984
vt 0.91445 0.78720
vt 0.80565 0.73868
vt 0.91445 0.78720
vt 0.80499 0.78604
vt 0.80565 0.73868
vt 0.91445 0.78720
vt 0.80499 0.78604
vt 0.80565 0.73868
vt 0.91445 0.78720
vt 0.80499 0.78604
vt 0.80565 0.73868
vt 0.91445 0.78720
vt 0.80499 0.78604
vt 0.80499 0.78604
vt 0.91511 0.73984
vt 0.91445 0.78720
vt 0.79501 0.74104
vt 0.91813 0.78725
vt 0.79501 0.78725
vt 0.79501 0.74104
vt 0.91813 0.78725
vt 0.79501 0.78725
vt 0.79501 0.74104
vt 0.91813 0.78725
vt 0.79501 0.78725
vt 0.79501 0.74104
vt 0.91813 0.78725
vt 0.79501 0.78725
vt 0.79501 0.78725
vt 0.91813 0.74104
vt 0.91813 0.78725
vt 0.79501 0.74104
vt 0.91813 0.78725
vt 0.79501 0.78725
vt 0.79501 0.78725
vt 0.91813 0.74104
vt 0.91813 0.78725
vt 0.79501 0.78725
vt 0.91813 0.74104
vt 0.91813 0.78725
vt 0.57066 0.59426
vt 0.64285 0.47223
vt 0.53613 0.53865
vt 0.52287 0.03884
vt 0.49578 0.02654
vt 0.50461 0.13355
vt 0.59282 0.33631
vt 0.59282 0.21778
vt 0.58751 0.26728
vt 0.04236 0.55820
vt 0.14204 0.51889
vt 0.04238 0.51889
vt 0.65194 0.71291
vt 0.66272 0.53585
vt 0.57561 0.58970
vt 0.53871 0.52344
vt 0.00454 0.35125
vt 0.12000 0.14548
vt 0.14705 0.35535
vt 0.56085 0.38953
vt 0.45360 0.29189
vt 0.53594 0.40564
vt 0.44167 0.26974
vt 0.48687 0.26367
vt 0.48442 0.24158
vt 0.75659 0.83613
vt 0.76995 0.96843
vt 0.76995 0.82523
vt 0.43684 0.26437
vt 0.48916 0.26388
vt 0.47974 0.23327
vt 0.62275 0.67785
vt 0.66002 0.73769
vt 0.78475 0.70022
vt 0.31492 0.31483
vt 0.19196 0.01322
vt 0.19196 0.31484
vt 0.01321 0.54010
vt 0.01321 0.66447
vt 0.11568 0.66447
vt 0.34134 0.01321
vt 0.46393 0.19052
vt 0.46393 0.01326
vt 0.63558 0.47032
vt 0.55831 0.51101
vt 0.60765 0.60485
vt 0.62775 0.94813
vt 0.73016 0.82533
vt 0.62775 0.82523
vt 0.66303 0.46493
vt 0.62607 0.71073
vt 0.76213 0.62814
vt 0.42146 0.26272
vt 0.41963 0.04163
vt 0.50601 0.24550
vt 0.05095 0.45574
vt 0.03085 0.17338
vt 0.11610 0.12023
vt 0.11765 0.09603
vt 0.43940 0.25673
vt 0.53452 0.54792
vt 0.61302 0.67408
vt 0.01861 0.84614
vt 0.09412 0.83861
vt 0.01321 0.83931
vt 0.01240 0.13562
vt 0.03141 0.49422
vt 0.03438 0.13578
vt 0.34134 0.31484
vt 0.34134 0.19048
vt 0.13952 0.30577
vt 0.03105 0.21144
vt 0.13357 0.31198
vt 0.62775 0.79875
vt 0.77232 0.79880
vt 0.77232 0.72683
vt 0.04238 0.51889
vt 0.14210 0.64586
vt 0.14210 0.64586
vt 0.14210 0.64586
vt 0.14210 0.64586
vt 0.14210 0.64586
vt 0.87261 0.01321
vt 0.87250 0.15824
vt 0.96060 0.15824
vt 0.64050 0.58183
vt 0.77347 0.51650
vt 0.62775 0.56927
vt 0.66133 0.40334
vt 0.10303 0.85452
vt 0.09443 0.85466
vt 0.03397 0.17124
vt 0.04233 0.15513
vt 0.03373 0.15513
vt 0.10303 0.69089
vt 0.09443 0.69091
vt 0.98090 0.48200
vt 0.97230 0.36273
vt 0.97230 0.48200
vt 0.43390 0.34131
vt 0.37986 0.37308
vt 0.42463 0.37233
vt 0.58428 0.14580
vt 0.09011 0.85505
vt 0.28510 0.87893
vt 0.21629 0.99292
vt 0.65205 0.51370
vt 0.78208 0.65382
vt 0.69482 0.50741
vt 0.21772 0.49220
vt 0.19207 0.37170
vt 0.19196 0.49319
vt 0.26615 0.82702
vt 0.32383 0.85343
vt 0.31524 0.82619
vt 0.08054 0.90838
vt 0.09400 0.88127
vt 0.08075 0.88109
vt 0.66524 0.45775
vt 0.23128 0.83971
vt 0.25366 0.81493
vt 0.64262 0.55005
vt 0.72581 0.62826
vt 0.67859 0.53161
vt 0.35277 0.98276
vt 0.21625 0.99399
vt 0.21629 0.98074
vt 0.19210 0.61246
vt 0.70337 0.67305
vt 0.73408 0.64430
vt 0.63668 0.75942
vt 0.56986 0.56269
vt 0.53707 0.59226
vt 0.50301 0.53509
vt 0.01559 0.88109
vt 0.08138 0.98276
vt 0.43218 0.49386
vt 0.42337 0.49382
vt 0.63372 0.53250
vt 0.56355 0.58869
vt 0.66970 0.51407
vt 0.42531 0.61304
vt 0.43344 0.37238
vt 0.69074 0.64853
vt 0.61166 0.68718
vt 0.76040 0.69552
vt 0.27688 0.34126
vt 0.21792 0.34131
vt 0.27668 0.49215
vt 0.27685 0.64027
vt 0.32406 0.82624
vt 0.33708 0.85346
vt 0.62430 0.71169
vt 0.09379 0.90856
vt 0.08059 0.96768
vt 0.09385 0.96767
vt 0.01327 0.96768
vt 0.53315 0.50102
vt 0.61533 0.45203
vt 0.61524 0.94569
vt 0.58957 0.87128
vt 0.58957 0.94569
vt 0.34134 0.88484
vt 0.38854 0.95925
vt 0.38854 0.88484
vt 0.54245 0.89454
vt 0.56805 0.96895
vt 0.56805 0.89455
vt 0.65971 0.86634
vt 0.59099 0.97466
vt 0.59099 0.86630
vt 0.59155 0.87139
vt 0.61721 0.91854
vt 0.61721 0.87136
vt 0.61473 0.91934
vt 0.58907 0.87214
vt 0.58907 0.91934
vt 0.91445 0.78720
vt 0.80565 0.73868
vt 0.80499 0.78604
vt 0.80499 0.78604
vt 0.91511 0.73984
vt 0.80565 0.73868
vt 0.91511 0.73984
vt 0.80565 0.73868
vt 0.80499 0.78604
vt 0.91511 0.73984
vt 0.80565 0.73868
vt 0.91445 0.78720
vt 0.80565 0.73868
vt 0.80499 0.78604
vt 0.91445 0.78720
vt 0.80565 0.73868
vt 0.80499 0.78604
vt 0.80499 0.78604
vt 0.91511 0.73984
vt 0.80565 0.73868
vt 0.91445 0.78720
vt 0.80565 0.73868
vt 0.80499 0.78604
vt 0.91445 0.78720
vt 0.80565 0.73868
vt 0.80499 0.78604
vt 0.91445 0.78720
vt 0.80565 0.73868
vt 0.80499 0.78604
vt 0.80499 0.78604
vt 0.91511 0.73984
vt 0.80565 0.73868
vt 0.91445 0.78720
vt 0.80565 0.73868
vt 0.80499 0.78604
vt 0.91511 0.73984
vt 0.80565 0.73868
vt 0.91445 0.78720
vt 0.80565 0.73868
vt 0.91511 0.73984
vt 0.80565 0.73868
vt 0.91445 0.78720
vt 0.80565 0.73868
vt 0.80499 0.78604
vt 0.80499 0.78604
vt 0.91511 0.73984
vt 0.80565 0.73868
vt 0.80499 0.78604
vt 0.91511 0.73984
vt 0.80565 0.73868
vt 0.80562 0.31211
vt 0.79340 0.31837
vt 0.79846 0.33131
vt 0.91445 0.78720
vt 0.80565 0.73868
vt 0.80499 0.78604
vt 0.91445 0.78720
vt 0.80565 0.73868
vt 0.80499 0.78604
vt 0.91511 0.73984
vt 0.80565 0.73868
vt 0.91511 0.73984
vt 0.80565 0.73868
vt 0.91445 0.78720
vt 0.80565 0.73868
vt 0.91445 0.78720
vt 0.80565 0.73868
vt 0.91445 0.78720
vt 0.80565 0.73868
vt 0.80499 0.78604
vt 0.80499 0.78604
vt 0.91511 0.73984
vt 0.80565 0.73868
vt 0.91445 0.78720
vt 0.80565 0.73868
vt 0.80499 0.78604
vt 0.91445 0.78720
vt 0.80565 0.73868
vt 0.80499 0.78604
vt 0.91445 0.78720
vt 0.80565 0.73868
vt 0.80499 0.78604
vt 0.80499 0.78604
vt 0.91511 0.73984
vt 0.80565 0.73868
vt 0.91445 0.78720
vt 0.80565 0.73868
vt 0.80499 0.78604
vt 0.91445 0.78720
vt 0.80565 0.73868
vt 0.80499 0.78604
vt 0.91445 0.78720
vt 0.80565 0.73868
vt 0.80499 0.78604
vt 0.79501 0.78725
vt 0.91813 0.74104
vt 0.79501 0.74104
vt 0.80499 0.78604
vt 0.91511 0.73984
vt 0.80565 0.73868
vt 0.91445 0.78720
vt 0.80565 0.73868
vt 0.80499 0.78604
vt 0.91445 0.78720
vt 0.80565 0.73868
vt 0.80499 0.78604
vt 0.91445 0.78720
vt 0.80565 0.73868
vt 0.80499 0.78604
vt 0.80499 0.78604
vt 0.91511 0.73984
vt 0.80565 0.73868
vt 0.91445 0.78720
vt 0.80565 0.73868
vt 0.80499 0.78604
vt 0.91445 0.78720
vt 0.80565 0.73868
vt 0.80499 0.78604
vt 0.91445 0.78720
vt 0.80565 0.73868
vt 0.80499 0.78604
vt 0.91813 0.78725
vt 0.79501 0.74104
vt 0.79501 0.78725
vt 0.79501 0.78725
vt 0.91813 0.74104
vt 0.79501 0.74104
vt 0.91813 0.78725
vt 0.79501 0.74104
vt 0.79501 0.78725
vt 0.91813 0.78725
vt 0.79501 0.74104
vt 0.79501 0.78725
vt 0.91813 0.78725
vt 0.79501 0.74104
vt 0.79501 0.78725
vt 0.91813 0.78725
vt 0.79501 0.74104
vt 0.79501 0.78725
vt 0.91813 0.78725
vt 0.79501 0.74104
vt 0.79501 0.78725
vt 0.91445 0.78720
vt 0.80565 0.73868
vt 0.80499 0.78604
vt 0.91445 0.78720
vt 0.80565 0.73868
vt 0.80499 0.78604
vt 0.80499 0.78604
vt 0.91511 0.73984
vt 0.80565 0.73868
vt 0.80499 0.78604
vt 0.91511 0.73984
vt 0.80565 0.73868
vt 0.91445 0.78720
vt 0.80565 0.73868
vt 0.80499 0.78604
vt 0.91445 0.78720
vt 0.80565 0.73868
vt 0.80499 0.78604
vt 0.80499 0.78604
vt 0.91511 0.73984
vt 0.80565 0.73868
vt 0.80499 0.78604
vt 0.91511 0.73984
vt 0.80565 0.73868
vt 0.80499 0.78604
vt 0.91511 0.73984
vt 0.80565 0.73868
vt 0.91445 0.78720
vt 0.80565 0.73868
vt 0.80499 0.78604
vt 0.80499 0.78604
vt 0.91511 0.73984
vt 0.80565 0.73868
vt 0.80499 0.78604
vt 0.91511 0.73984
vt 0.80565 0.73868
vt 0.91445 0.78720
vt 0.80565 0.73868
vt 0.80499 0.78604
vt 0.91445 0.78720
vt 0.80565 0.73868
vt 0.80499 0.78604
vt 0.80499 0.78604
vt 0.91511 0.73984
vt 0.80565 0.73868
vt 0.80499 0.78604
vt 0.91511 0.73984
vt 0.80565 0.73868
vt 0.75362 0.31213
vt 0.74809 0.32552
vt 0.76145 0.33104
vt 0.80499 0.78604
vt 0.91511 0.73984
vt 0.80565 0.73868
vt 0.80499 0.78604
vt 0.91511 0.73984
vt 0.80565 0.73868
vt 0.91445 0.78720
vt 0.80565 0.73868
vt 0.80499 0.78604
vt 0.91445 0.78720
vt 0.80565 0.73868
vt 0.80499 0.78604
vt 0.91445 0.78720
vt 0.80565 0.73868
vt 0.80499 0.78604
vt 0.91445 0.78720
vt 0.80565 0.73868
vt 0.80499 0.78604
vt 0.80499 0.78604
vt 0.91511 0.73984
vt 0.80565 0.73868
vt 0.91813 0.78725
vt 0.79501 0.74104
vt 0.79501 0.78725
vt 0.91813 0.78725
vt 0.79501 0.74104
vt 0.79501 0.78725
vt 0.91813 0.78725
vt 0.79501 0.74104
vt 0.79501 0.78725
vt 0.91813 0.78725
vt 0.79501 0.74104
vt 0.79501 0.78725
vt 0.79501 0.78725
vt 0.91813 0.74104
vt 0.79501 0.74104
vt 0.91813 0.78725
vt 0.79501 0.74104
vt 0.79501 0.78725
vt 0.91813 0.78725
vt 0.79501 0.74104
vt 0.79501 0.78725
vt 0.79501 0.78725
vt 0.91813 0.74104
vt 0.79501 0.74104
vt 0.49578 0.02654
vt 0.53517 0.02654
vt 0.52287 0.03884
vt 0.50461 0.13355
vt 0.53434 0.20940
vt 0.58751 0.26728
vt 0.04238 0.51889
vt 0.73905 0.65905
vt 0.14705 0.35535
vt 0.53594 0.40564
vt 0.75660 0.95580
vt 0.47974 0.23327
vt 0.67804 0.76664
vt 0.66002 0.73769
vt 0.31492 0.01321
vt 0.01321 0.36283
vt 0.11568 0.36283
vt 0.67799 0.73860
vt 0.55831 0.51101
vt 0.73016 0.94823
vt 0.52697 0.54752
vt 0.54065 0.07187
vt 0.41963 0.04163
vt 0.42146 0.26272
vt 0.11765 0.09603
vt 0.00944 0.49405
vt 0.46393 0.31489
vt 0.03700 0.20523
vt 0.62775 0.60825
vt 0.77232 0.60830
vt 0.77232 0.79880
vt 0.14210 0.64586
vt 0.96060 0.15824
vt 0.77231 0.53409
vt 0.77347 0.36273
vt 0.03373 0.15513
vt 0.09443 0.69091
vt 0.98090 0.36273
vt 0.36658 0.34244
vt 0.35277 0.99630
vt 0.28510 0.87893
vt 0.35180 0.88763
vt 0.08030 0.87548
vt 0.21792 0.34131
vt 0.31524 0.82619
vt 0.08075 0.88109
vt 0.73408 0.64430
vt 0.08134 0.99602
vt 0.55491 0.57102
vt 0.44715 0.34133
vt 0.27688 0.34126
vt 0.61524 0.87128
vt 0.34134 0.95925
vt 0.54245 0.96894
vt 0.65971 0.97470
vt 0.59155 0.91856
vt 0.61473 0.87214
vt 0.91511 0.73984
vt 0.80565 0.73868
vt 0.91511 0.73984
vt 0.80565 0.73868
vt 0.91511 0.73984
vt 0.91511 0.73984
vt 0.80565 0.73868
vt 0.91511 0.73984
vt 0.80565 0.73868
vt 0.91511 0.73984
vt 0.80565 0.73868
vt 0.91511 0.73984
vt 0.80565 0.73868
vt 0.91511 0.73984
vt 0.91511 0.73984
vt 0.91511 0.73984
vt 0.80565 0.73868
vt 0.80565 0.73868
vt 0.80562 0.33086
vt 0.79846 0.33131
vt 0.79340 0.32613
vt 0.79846 0.31256
vt 0.80562 0.31211
vt 0.91511 0.73984
vt 0.91511 0.73984
vt 0.80565 0.73868
vt 0.80565 0.73868
vt 0.91511 0.73984
vt 0.91511 0.73984
vt 0.91511 0.73984
vt 0.80565 0.73868
vt 0.91511 0.73984
vt 0.91511 0.73984
vt 0.91511 0.73984
vt 0.80565 0.73868
vt 0.91511 0.73984
vt 0.91511 0.73984
vt 0.91511 0.73984
vt 0.79501 0.74104
vt 0.80565 0.73868
vt 0.91511 0.73984
vt 0.91511 0.73984
vt 0.91511 0.73984
vt 0.80565 0.73868
vt 0.91511 0.73984
vt 0.91511 0.73984
vt 0.91511 0.73984
vt 0.91813 0.74104
vt 0.91813 0.74104
vt 0.91813 0.74104
vt 0.91813 0.74104
vt 0.91813 0.74104
vt 0.91813 0.74104
vt 0.91813 0.74104
vt 0.91511 0.73984
vt 0.91511 0.73984
vt 0.80565 0.73868
vt 0.80565 0.73868
vt 0.91511 0.73984
vt 0.91511 0.73984
vt 0.80565 0.73868
vt 0.80565 0.73868
vt 0.80565 0.73868
vt 0.91511 0.73984
vt 0.80565 0.73868
vt 0.80565 0.73868
vt 0.91511 0.73984
vt 0.91511 0.73984
vt 0.80565 0.73868
vt 0.80565 0.73868
vt 0.76698 0.31765
vt 0.76698 0.32549
vt 0.75362 0.33105
vt 0.74809 0.31768
vt 0.76145 0.31211
vt 0.80565 0.73868
vt 0.80565 0.73868
vt 0.91511 0.73984
vt 0.91511 0.73984
vt 0.91511 0.73984
vt 0.91511 0.73984
vt 0.80565 0.73868
vt 0.91813 0.74104
vt 0.91813 0.74104
vt 0.91813 0.74104
vt 0.91813 0.74104
vt 0.79501 0.74104
vt 0.91813 0.74104
vt 0.79501 0.74104
vt 0.79501 0.74104
vt 0.69180 0.55093
vt 0.49036 0.33631
vt 0.54272 0.26728
vt 0.53434 0.20940
vt 0.53517 0.02654
vt 0.59282 0.33631
vt 0.14478 0.55820
vt 0.73905 0.65905
vt 0.62773 0.46797
vt 0.02962 0.14485
vt 0.49718 0.26372
vt 0.45337 0.28574
vt 0.75660 0.95580
vt 0.46128 0.28409
vt 0.67804 0.76664
vt 0.31492 0.01321
vt 0.11568 0.36283
vt 0.01321 0.36283
vt 0.67799 0.73860
vt 0.75526 0.69790
vt 0.73016 0.94823
vt 0.52697 0.54752
vt 0.54065 0.07187
vt 0.55244 0.34224
vt 0.47431 0.34284
vt 0.13245 0.43766
vt 0.04481 0.21010
vt 0.47647 0.23231
vt 0.56253 0.59306
vt 0.00944 0.49405
vt 0.46393 0.31489
vt 0.03700 0.20523
vt 0.77232 0.60830
vt 0.62775 0.64757
vt 0.62775 0.60825
vt 0.04247 0.36773
vt 0.14210 0.64586
vt 0.87253 0.01324
vt 0.77231 0.53409
vt 0.77347 0.36273
vt 0.10272 0.83859
vt 0.04256 0.17112
vt 0.98090 0.36273
vt 0.36658 0.34244
vt 0.59282 0.14580
vt 0.35180 0.88763
vt 0.35277 0.99630
vt 0.08138 0.99630
vt 0.08030 0.87548
vt 0.25001 0.85467
vt 0.35273 0.99602
vt 0.21789 0.64032
vt 0.67821 0.74451
vt 0.01321 0.90838
vt 0.08134 0.99602
vt 0.55491 0.57102
vt 0.43412 0.61309
vt 0.44715 0.34133
vt 0.30352 0.49151
vt 0.30368 0.35506
vt 0.30368 0.62643
vt 0.61524 0.87128
vt 0.34134 0.95925
vt 0.54245 0.96894
vt 0.65971 0.97470
vt 0.59155 0.91856
vt 0.61473 0.87214
vt 0.91511 0.73984
vt 0.91445 0.78720
vt 0.91445 0.78720
vt 0.91445 0.78720
vt 0.91511 0.73984
vt 0.91511 0.73984
vt 0.91445 0.78720
vt 0.91511 0.73984
vt 0.91511 0.73984
vt 0.91511 0.73984
vt 0.91445 0.78720
vt 0.91511 0.73984
vt 0.91445 0.78720
vt 0.91511 0.73984
vt 0.91445 0.78720
vt 0.91511 0.73984
vt 0.91445 0.78720
vt 0.91445 0.78720
vt 0.80562 0.33086
vt 0.81068 0.32505
vt 0.81068 0.31729
vt 0.79846 0.31256
vt 0.79340 0.32613
vt 0.91511 0.73984
vt 0.91511 0.73984
vt 0.91445 0.78720
vt 0.91445 0.78720
vt 0.91511 0.73984
vt 0.91511 0.73984
vt 0.91511 0.73984
vt 0.91445 0.78720
vt 0.91511 0.73984
vt 0.91511 0.73984
vt 0.91511 0.73984
vt 0.91445 0.78720
vt 0.91511 0.73984
vt 0.91511 0.73984
vt 0.91511 0.73984
vt 0.91813 0.78725
vt 0.91445 0.78720
vt 0.91511 0.73984
vt 0.91511 0.73984
vt 0.91511 0.73984
vt 0.91445 0.78720
vt 0.91511 0.73984
vt 0.91511 0.73984
vt 0.91511 0.73984
vt 0.91813 0.74104
vt 0.91813 0.78725
vt 0.91813 0.74104
vt 0.91813 0.74104
vt 0.91813 0.74104
vt 0.91813 0.74104
vt 0.91813 0.74104
vt 0.91511 0.73984
vt 0.91511 0.73984
vt 0.91445 0.78720
vt 0.91445 0.78720
vt 0.91511 0.73984
vt 0.91511 0.73984
vt 0.91445 0.78720
vt 0.91445 0.78720
vt 0.91445 0.78720
vt 0.91511 0.73984
vt 0.91445 0.78720
vt 0.91445 0.78720
vt 0.91511 0.73984
vt 0.91511 0.73984
vt 0.91445 0.78720
vt 0.91445 0.78720
vt 0.76698 0.32549
vt 0.76698 0.31765
vt 0.76145 0.31211
vt 0.74809 0.31768
vt 0.75362 0.33105
vt 0.91445 0.78720
vt 0.91445 0.78720
vt 0.91511 0.73984
vt 0.91511 0.73984
vt 0.91511 0.73984
vt 0.91511 0.73984
vt 0.91445 0.78720
vt 0.91813 0.74104
vt 0.91813 0.74104
vt 0.91813 0.74104
vt 0.91813 0.74104
vt 0.91813 0.78725
vt 0.91813 0.74104
vt 0.91813 0.74104
vt 0.91813 0.78725
f 61/127 50/128 62/129
f 99/130 53/131 49/132
f 53/131 95/133 85/134
f 51/135 71/136 47/137
f 53/138 47/139 49/140
f 50/128 57/141 58/142
f 54/143 56/144 52/145
f 60/146 57/147 59/148
f 48/149 59/150 57/151
f 55/152 59/153 56/154
f 55/155 58/156 60/157
f 74/158 62/129 49/159
f 64/160 65/161 63/162
f 66/163 70/164 82/165
f 82/166 67/167 69/168
f 83/169 64/170 63/171
f 69/172 63/173 65/174
f 66/175 68/176 70/177
f 77/178 76/179 75/180
f 71/136 73/181 74/182
f 52/183 77/184 78/185
f 56/186 76/187 77/188
f 61/127 76/189 48/190
f 61/127 79/191 75/192
f 73/193 79/194 74/195
f 80/196 92/197 78/198
f 82/166 68/199 83/200
f 52/201 89/202 54/203
f 95/204 88/205 87/206
f 73/181 87/207 88/208
f 72/209 86/210 87/211
f 51/212 85/213 86/210
f 81/214 88/215 84/216
f 90/217 93/218 91/219
f 94/220 90/217 91/219
f 73/193 93/221 80/222
f 52/223 92/224 90/225
f 73/193 94/226 91/227
f 54/228 94/229 81/230
f 99/231 129/232 96/233
f 95/133 81/234 84/235
f 101/236 102/237 104/238
f 97/239 122/240 98/241
f 115/242 126/243 114/244
f 55/245 125/246 127/247
f 109/248 121/249 116/250
f 99/251 122/240 130/252
f 55/245 124/253 97/254
f 100/255 108/256 101/257
f 103/258 120/259 121/260
f 113/261 126/243 123/262
f 100/255 110/263 107/264
f 104/265 111/266 110/267
f 106/268 111/266 105/269
f 106/270 109/248 112/271
f 101/272 120/259 102/273
f 96/233 114/274 81/275
f 125/276 118/277 108/256
f 108/256 119/278 101/257
f 54/279 114/274 113/280
f 129/232 115/281 96/233
f 125/276 107/264 127/282
f 124/283 111/266 122/240
f 121/284 120/285 117/286
f 117/286 119/287 118/288
f 125/246 113/289 123/290
f 124/291 107/264 110/263
f 129/292 116/250 128/293
f 130/294 109/248 129/292
f 122/240 112/295 130/252
f 132/296 133/297 131/298
f 134/299 137/300 133/301
f 138/302 135/303 137/304
f 136/305 131/306 135/307
f 137/308 131/309 133/310
f 134/311 136/312 138/313
f 160/314 167/315 159/316
f 141/317 139/318 140/319
f 142/320 143/321 141/317
f 140/322 170/323 164/324
f 151/325 159/326 149/327
f 144/328 145/329 143/330
f 139/331 169/332 170/333
f 149/334 158/335 147/336
f 145/337 148/338 147/339
f 161/340 166/341 160/342
f 153/343 162/344 161/345
f 148/346 149/347 147/336
f 162/348 164/349 163/350
f 147/351 157/352 145/337
f 150/353 151/354 149/327
f 170/355 172/356 164/357
f 155/358 140/359 162/360
f 151/361 154/362 153/363
f 148/364 146/365 154/366
f 158/367 169/368 157/369
f 154/370 155/371 153/343
f 161/372 163/373 165/374
f 143/330 157/375 139/376
f 156/377 141/378 155/358
f 153/379 160/380 151/361
f 159/381 168/382 158/383
f 174/384 181/385 182/386
f 168/387 177/388 169/389
f 166/390 175/391 167/392
f 163/393 173/394 165/395
f 170/396 177/397 178/398
f 167/399 176/400 168/401
f 165/402 174/403 166/404
f 164/405 171/406 163/407
f 220/408 193/409 194/410
f 171/411 180/412 179/413
f 178/414 180/415 172/416
f 176/417 185/418 177/419
f 174/420 183/421 175/422
f 173/423 179/424 181/425
f 177/426 186/427 178/428
f 175/429 184/430 176/431
f 190/432 199/433 191/434
f 221/435 192/436 222/437
f 223/438 190/439 224/440
f 225/441 187/442 226/443
f 220/444 188/445 225/446
f 222/447 193/448 219/449
f 224/450 191/451 221/452
f 226/453 189/454 223/455
f 202/456 204/457 196/458
f 187/459 197/460 189/461
f 194/462 201/463 202/464
f 192/465 199/466 200/467
f 189/468 198/469 190/470
f 188/471 195/472 187/473
f 188/474 202/475 196/476
f 193/477 200/478 201/479
f 208/480 215/481 216/482
f 200/483 209/484 201/485
f 199/486 206/487 207/488
f 197/489 203/490 205/491
f 201/492 210/493 202/494
f 199/495 208/496 200/497
f 198/498 205/499 206/500
f 195/501 204/502 203/503
f 218/504 216/505 214/506
f 206/507 213/508 214/509
f 203/510 212/511 211/512
f 210/513 212/514 204/515
f 208/516 217/517 209/518
f 206/519 215/520 207/521
f 203/522 213/523 205/524
f 210/525 217/526 218/527
f 179/528 223/529 181/530
f 182/531 221/532 183/533
f 184/534 219/535 185/536
f 186/537 225/538 180/539
f 179/540 225/541 226/542
f 181/543 224/544 182/545
f 184/546 221/547 222/548
f 186/549 219/550 220/551
f 241/552 230/553 228/554
f 277/555 230/556 242/557
f 233/558 275/559 276/560
f 231/561 251/562 252/563
f 227/564 233/565 229/566
f 230/553 237/567 228/554
f 234/568 236/569 235/570
f 240/571 237/572 238/573
f 228/574 239/575 236/576
f 239/577 235/578 236/579
f 235/580 238/581 230/582
f 254/583 251/584 229/585
f 245/586 244/587 243/588
f 262/589 250/590 246/591
f 247/592 262/593 249/594
f 244/595 248/596 263/597
f 243/598 249/599 245/600
f 248/601 246/602 250/603
f 258/604 260/605 255/606
f 251/562 253/607 252/563
f 232/608 257/609 236/610
f 236/576 256/611 228/574
f 256/612 241/552 228/554
f 241/552 259/613 254/583
f 259/614 253/615 254/616
f 272/617 260/618 258/619
f 248/620 262/593 263/621
f 269/622 232/623 234/624
f 268/625 264/626 275/627
f 253/607 267/628 252/563
f 252/629 266/630 231/631
f 231/631 265/632 233/633
f 261/634 268/635 253/636
f 273/637 270/638 271/639
f 270/638 274/640 271/639
f 273/641 253/615 260/642
f 232/643 272/644 258/645
f 253/615 274/646 261/647
f 274/648 234/649 261/650
f 309/651 279/652 276/653
f 275/559 261/654 276/560
f 284/655 285/656 282/657
f 302/658 277/659 278/660
f 306/661 295/662 294/663
f 235/664 305/665 234/666
f 289/667 301/668 283/669
f 279/670 302/658 278/660
f 304/671 235/664 277/672
f 288/673 280/674 281/675
f 283/676 300/677 282/678
f 293/679 306/661 294/663
f 280/674 290/680 284/681
f 284/682 291/683 285/684
f 291/683 286/685 285/684
f 286/686 289/667 283/669
f 300/677 281/687 282/678
f 294/688 276/653 261/689
f 298/690 305/691 288/673
f 299/692 288/673 281/675
f 234/693 294/688 261/689
f 295/694 309/651 276/653
f 287/695 305/691 307/696
f 291/683 304/697 302/658
f 296/698 308/699 297/700
f 297/700 306/661 298/701
f 293/702 305/665 303/703
f 304/704 287/695 307/696
f 296/705 309/706 308/707
f 289/667 310/708 309/706
f 292/709 302/658 310/710
f 313/711 312/712 311/713
f 317/714 314/715 313/716
f 315/717 318/718 317/719
f 311/720 316/721 315/722
f 311/723 317/724 313/725
f 316/726 314/727 318/728
f 347/729 340/730 339/731
f 321/732 319/733 323/734
f 321/732 324/735 322/736
f 320/737 350/738 319/739
f 339/740 331/741 329/742
f 325/743 324/744 323/745
f 319/746 349/747 337/748
f 338/749 329/750 327/751
f 327/752 326/753 325/754
f 346/755 341/756 340/757
f 333/758 342/759 335/760
f 329/761 328/762 327/751
f 342/763 344/764 320/765
f 337/766 327/767 325/754
f 329/742 332/768 330/769
f 352/770 350/771 344/772
f 335/773 320/774 321/775
f 331/776 334/777 332/778
f 330/779 334/780 322/781
f 349/782 338/783 337/784
f 335/785 334/786 333/758
f 341/787 343/788 342/789
f 323/745 337/790 325/791
f 321/792 336/793 335/773
f 340/794 333/795 331/776
f 348/796 339/797 338/798
f 354/799 361/800 353/801
f 357/802 348/803 349/804
f 355/805 346/806 347/807
f 353/808 343/809 345/810
f 350/811 357/812 349/813
f 356/814 347/815 348/816
f 354/817 345/818 346/819
f 351/820 344/821 343/822
f 400/823 373/824 399/825
f 351/826 360/827 352/828
f 360/829 358/830 352/831
f 365/832 356/833 357/834
f 363/835 354/836 355/837
f 353/838 359/839 351/840
f 366/841 357/842 358/843
f 364/844 355/845 356/846
f 379/847 370/848 371/849
f 372/850 401/851 402/852
f 404/853 369/854 403/855
f 367/856 405/857 406/858
f 368/859 400/860 405/861
f 373/862 402/863 399/864
f 371/865 404/866 401/867
f 369/868 406/869 403/870
f 384/871 382/872 376/873
f 377/874 367/875 369/876
f 374/877 381/878 373/879
f 372/880 379/881 371/882
f 378/883 369/884 370/885
f 375/886 368/887 367/888
f 368/889 382/890 374/891
f 373/892 380/893 372/894
f 388/895 395/896 387/897
f 389/898 380/899 381/900
f 379/901 386/902 378/903
f 377/904 383/905 375/906
f 390/907 381/908 382/909
f 388/910 379/911 380/912
f 378/913 385/914 377/915
f 375/916 384/917 376/918
f 394/919 396/920 398/921
f 386/922 393/923 385/924
f 383/925 392/926 384/927
f 392/928 390/929 384/930
f 397/931 388/932 389/933
f 395/934 386/935 387/936
f 393/937 383/938 385/939
f 390/940 397/941 389/942
f 403/943 359/944 361/945
f 401/946 362/947 363/948
f 399/949 364/950 365/951
f 405/952 366/953 360/954
f 359/955 405/956 360/957
f 404/958 361/959 362/960
f 402/961 363/962 364/963
f 366/964 399/965 365/966
f 61/127 48/190 50/128
f 50/967 55/968 97/969
f 50/967 97/969 62/970
f 97/969 98/971 62/970
f 99/130 96/972 53/131
f 62/970 98/971 49/132
f 98/971 99/130 49/132
f 53/131 96/972 95/133
f 51/135 72/973 71/136
f 53/138 51/974 47/139
f 50/128 48/190 57/141
f 54/143 55/975 56/144
f 60/146 58/976 57/147
f 48/149 56/186 59/150
f 55/152 60/977 59/153
f 55/155 50/978 58/156
f 49/159 47/979 71/980
f 74/158 61/127 62/129
f 49/159 71/980 74/158
f 64/160 66/981 65/161
f 69/982 65/983 82/165
f 65/983 66/163 82/165
f 82/166 83/200 67/167
f 63/171 67/984 83/169
f 83/169 68/985 64/170
f 69/172 67/986 63/173
f 66/175 64/987 68/176
f 75/180 79/988 80/989
f 80/989 78/990 75/180
f 78/990 77/178 75/180
f 71/136 72/973 73/181
f 52/183 56/991 77/184
f 56/186 48/149 76/187
f 61/127 75/192 76/189
f 61/127 74/158 79/191
f 73/193 80/222 79/194
f 80/196 93/992 92/197
f 82/166 70/993 68/199
f 52/201 90/994 89/202
f 86/995 85/996 87/206
f 85/996 95/204 87/206
f 95/204 84/997 88/205
f 73/181 72/973 87/207
f 72/209 51/212 86/210
f 51/212 53/998 85/213
f 81/214 73/999 88/215
f 90/217 92/1000 93/218
f 94/220 89/1001 90/217
f 73/193 91/227 93/221
f 52/223 78/1002 92/224
f 73/193 81/1003 94/226
f 54/228 89/1004 94/229
f 99/231 130/1005 129/232
f 95/133 96/972 81/234
f 102/237 103/1006 105/1007
f 103/1006 106/1008 105/1007
f 105/1007 104/238 102/237
f 104/238 100/1009 101/236
f 97/239 124/283 122/240
f 115/242 128/1010 126/243
f 55/245 54/1011 125/246
f 109/248 103/1012 121/249
f 99/251 98/241 122/240
f 55/245 127/247 124/253
f 100/255 107/264 108/256
f 103/258 102/273 120/259
f 113/261 114/244 126/243
f 100/255 104/1013 110/263
f 104/265 105/269 111/266
f 106/268 112/295 111/266
f 106/270 103/1012 109/248
f 101/272 119/1014 120/259
f 96/233 115/281 114/274
f 125/276 123/1015 118/277
f 108/256 118/277 119/278
f 54/279 81/275 114/274
f 129/232 128/1016 115/281
f 125/276 108/256 107/264
f 124/283 110/267 111/266
f 117/286 126/243 128/1010
f 128/1010 116/1017 117/286
f 116/1017 121/284 117/286
f 118/288 123/262 126/243
f 117/286 120/285 119/287
f 118/288 126/243 117/286
f 125/246 54/1011 113/289
f 124/291 127/282 107/264
f 129/292 109/248 116/250
f 130/294 112/271 109/248
f 122/240 111/266 112/295
f 132/296 134/1018 133/297
f 134/299 138/1019 137/300
f 138/302 136/1020 135/303
f 136/305 132/1021 131/306
f 137/308 135/1022 131/309
f 134/311 132/1023 136/312
f 160/314 166/1024 167/315
f 141/317 143/1025 139/318
f 142/320 144/1026 143/321
f 140/322 139/1027 170/323
f 151/325 160/1028 159/326
f 144/328 146/1029 145/329
f 139/331 157/1030 169/332
f 149/334 159/1031 158/335
f 145/337 146/1032 148/338
f 161/340 165/1033 166/341
f 153/343 155/1034 162/344
f 148/346 150/1035 149/347
f 162/348 140/1036 164/349
f 147/351 158/1037 157/352
f 150/353 152/1038 151/354
f 170/355 178/1039 172/356
f 155/358 141/1040 140/359
f 151/361 152/1041 154/362
f 146/365 144/1042 142/1043
f 142/1043 156/1044 146/365
f 156/1044 154/366 146/365
f 154/366 152/1045 150/1046
f 150/1046 148/364 154/366
f 158/367 168/1047 169/368
f 154/370 156/1048 155/371
f 161/372 162/1049 163/373
f 143/330 145/1050 157/375
f 156/377 142/1051 141/378
f 153/379 161/1052 160/380
f 159/381 167/1053 168/382
f 174/384 173/1054 181/385
f 168/387 176/1055 177/388
f 166/390 174/1056 175/391
f 163/393 171/1057 173/394
f 170/396 169/1058 177/397
f 167/399 175/1059 176/400
f 165/402 173/1060 174/403
f 164/405 172/1061 171/406
f 220/408 219/1062 193/409
f 171/411 172/1063 180/412
f 178/414 186/1064 180/415
f 176/417 184/1065 185/418
f 174/420 182/1066 183/421
f 173/423 171/1067 179/424
f 177/426 185/1068 186/427
f 175/429 183/1069 184/430
f 190/432 198/1070 199/433
f 221/435 191/1071 192/436
f 223/438 189/1072 190/439
f 225/441 188/1073 187/442
f 220/444 194/1074 188/445
f 222/447 192/1075 193/448
f 224/450 190/1076 191/451
f 226/453 187/1077 189/454
f 202/456 210/1078 204/457
f 187/459 195/1079 197/460
f 194/462 193/1080 201/463
f 192/465 191/1081 199/466
f 189/468 197/1082 198/469
f 188/471 196/1083 195/472
f 188/474 194/1084 202/475
f 193/477 192/1085 200/478
f 208/480 207/1086 215/481
f 200/483 208/1087 209/484
f 199/486 198/1088 206/487
f 197/489 195/1089 203/490
f 201/492 209/1090 210/493
f 199/495 207/1091 208/496
f 198/498 197/1092 205/499
f 195/501 196/1093 204/502
f 211/1094 212/1095 218/504
f 218/504 217/1096 216/505
f 216/505 215/1097 214/506
f 214/506 213/1098 211/1094
f 211/1094 218/504 214/506
f 206/507 205/1099 213/508
f 203/510 204/1100 212/511
f 210/513 218/1101 212/514
f 208/516 216/1102 217/517
f 206/519 214/1103 215/520
f 203/522 211/1104 213/523
f 210/525 209/1105 217/526
f 179/528 226/1106 223/529
f 182/531 224/1107 221/532
f 184/534 222/1108 219/535
f 186/537 220/1109 225/538
f 179/540 180/1110 225/541
f 181/543 223/1111 224/544
f 184/546 183/1112 221/547
f 186/549 185/1113 219/550
f 241/552 242/1114 230/553
f 229/1115 233/558 279/1116
f 233/558 276/560 279/1116
f 242/557 229/1115 278/1117
f 229/1115 279/1116 278/1117
f 277/555 235/1118 230/556
f 242/557 278/1117 277/555
f 233/558 265/1119 275/559
f 231/561 227/1120 251/562
f 227/564 231/1121 233/565
f 230/553 238/1122 237/567
f 234/568 232/1123 236/569
f 240/571 239/1124 237/572
f 228/574 237/1125 239/575
f 239/577 240/1126 235/578
f 235/580 240/1127 238/581
f 251/584 227/1128 229/585
f 229/585 242/1114 254/583
f 242/1114 241/552 254/583
f 245/586 246/1129 244/587
f 246/591 245/1130 262/589
f 245/1130 249/1131 262/589
f 247/592 263/621 262/593
f 263/597 247/1132 243/1133
f 243/1133 244/595 263/597
f 243/598 247/1134 249/599
f 248/601 244/1135 246/602
f 260/605 259/1136 255/606
f 255/606 256/1137 257/1138
f 257/1138 258/604 255/606
f 251/562 254/1139 253/607
f 232/608 258/1140 257/609
f 236/576 257/1141 256/611
f 256/612 255/1142 241/552
f 241/552 255/1142 259/613
f 259/614 260/642 253/615
f 272/617 273/1143 260/618
f 248/620 250/1144 262/593
f 269/622 270/1145 232/623
f 275/627 265/1146 267/1147
f 265/1146 266/1148 267/1147
f 267/1147 268/625 275/627
f 253/607 268/1149 267/628
f 252/629 267/1150 266/630
f 231/631 266/630 265/632
f 261/634 264/1151 268/635
f 273/637 272/1152 270/638
f 270/638 269/1153 274/640
f 273/641 271/1154 253/615
f 232/643 270/1155 272/644
f 253/615 271/1154 274/646
f 274/648 269/1156 234/649
f 309/651 310/1157 279/652
f 275/559 264/1158 261/654
f 286/1159 283/1160 285/656
f 283/1160 282/657 285/656
f 282/657 281/1161 284/655
f 281/1161 280/1162 284/655
f 302/658 304/697 277/659
f 306/661 308/699 295/662
f 235/664 307/1163 305/665
f 289/667 296/705 301/668
f 279/670 310/710 302/658
f 304/671 307/1163 235/664
f 288/673 287/695 280/674
f 283/676 301/1164 300/677
f 293/679 303/1165 306/661
f 280/674 287/695 290/680
f 284/682 290/1166 291/683
f 291/683 292/709 286/685
f 286/686 292/1167 289/667
f 300/677 299/1168 281/687
f 294/688 295/694 276/653
f 298/690 303/1169 305/691
f 299/692 298/690 288/673
f 234/693 293/1170 294/688
f 295/694 308/1171 309/651
f 287/695 288/673 305/691
f 291/683 290/1166 304/697
f 308/699 306/661 297/700
f 297/700 300/1172 301/1173
f 301/1173 296/698 297/700
f 306/661 303/1165 298/701
f 298/701 299/1174 297/700
f 299/1174 300/1172 297/700
f 293/702 234/666 305/665
f 304/704 290/680 287/695
f 296/705 289/667 309/706
f 289/667 292/1167 310/708
f 292/709 291/683 302/658
f 313/711 314/1175 312/712
f 317/714 318/1176 314/715
f 315/717 316/1177 318/718
f 311/720 312/1178 316/721
f 311/723 315/1179 317/724
f 316/726 312/1180 314/727
f 347/729 346/1181 340/730
f 321/732 320/1182 319/733
f 321/732 323/1183 324/735
f 320/737 344/1184 350/738
f 339/740 340/1185 331/741
f 325/743 326/1186 324/744
f 319/746 350/1187 349/747
f 338/749 339/1188 329/750
f 327/752 328/1189 326/753
f 346/755 345/1190 341/756
f 333/758 341/1191 342/759
f 329/761 330/1192 328/762
f 342/763 343/1193 344/764
f 337/766 338/1194 327/767
f 329/742 331/1195 332/768
f 352/770 358/1196 350/771
f 335/773 342/1197 320/774
f 331/776 333/1198 334/777
f 322/781 324/1199 326/1200
f 326/1200 328/1201 322/781
f 328/1201 330/779 322/781
f 330/779 332/1202 334/780
f 334/780 336/1203 322/781
f 349/782 348/1204 338/783
f 335/785 336/1205 334/786
f 341/787 345/1206 343/788
f 323/745 319/1207 337/790
f 321/792 322/1208 336/793
f 340/794 341/1209 333/795
f 348/796 347/1210 339/797
f 354/799 362/1211 361/800
f 357/802 356/1212 348/803
f 355/805 354/1213 346/806
f 353/808 351/1214 343/809
f 350/811 358/1215 357/812
f 356/814 355/1216 347/815
f 354/817 353/1217 345/818
f 351/820 352/1218 344/821
f 400/823 374/1219 373/824
f 351/826 359/1220 360/827
f 360/829 366/1221 358/830
f 365/832 364/1222 356/833
f 363/835 362/1223 354/836
f 353/838 361/1224 359/839
f 366/841 365/1225 357/842
f 364/844 363/1226 355/845
f 379/847 378/1227 370/848
f 372/850 371/1228 401/851
f 404/853 370/1229 369/854
f 367/856 368/1230 405/857
f 368/859 374/1231 400/860
f 373/862 372/1232 402/863
f 371/865 370/1233 404/866
f 369/868 367/1234 406/869
f 384/871 390/1235 382/872
f 377/874 375/1236 367/875
f 374/877 382/1237 381/878
f 372/880 380/1238 379/881
f 378/883 377/1239 369/884
f 375/886 376/1240 368/887
f 368/889 376/1241 382/890
f 373/892 381/1242 380/893
f 388/895 396/1243 395/896
f 389/898 388/1244 380/899
f 379/901 387/1245 386/902
f 377/904 385/1246 383/905
f 390/907 389/1247 381/908
f 388/910 387/1248 379/911
f 378/913 386/1249 385/914
f 375/916 383/1250 384/917
f 398/921 392/1251 391/1252
f 391/1252 393/1253 398/921
f 393/1253 394/919 398/921
f 394/919 395/1254 396/920
f 396/920 397/1255 398/921
f 386/922 394/1256 393/923
f 383/925 391/1257 392/926
f 392/928 398/1258 390/929
f 397/931 396/1259 388/932
f 395/934 394/1260 386/935
f 393/937 391/1261 383/938
f 390/940 398/1262 397/941
f 403/943 406/1263 359/944
f 401/946 404/1264 362/947
f 399/949 402/1265 364/950
f 405/952 400/1266 366/953
f 359/955 406/1267 405/956
f 404/958 403/1268 361/959
f 402/961 401/1269 363/962
f 366/964 400/1270 399/965
o armL
v 1.75000 3.00000 0.50000
v 1.75000 6.00000 0.50000
v 0.75000 3.00000 0.50000
v 0.75000 6.00000 0.50000
v 1.75000 3.00000 -0.50000
v 1.75000 6.00000 -0.50000
v 0.75000 3.00000 -0.50000
v 0.75000 6.00000 -0.50000
vt 0.67906 0.40110
vt 0.74796 0.75368
vt 0.83880 0.70379
vt 0.60295 0.47336
vt 0.67009 0.79786
vt 0.76576 0.73928
vt 0.63835 0.46047
vt 0.70923 0.77898
vt 0.79413 0.72971
vt 0.55457 0.50396
vt 0.81192 0.71574
vt 0.71159 0.77406
vt 0.33735 0.82127
vt 0.24727 0.91135
vt 0.24727 0.82127
vt 0.33527 0.91808
vt 0.24847 0.80387
vt 0.33527 0.80387
vt 0.58822 0.45099
vt 0.50728 0.53194
vt 0.55345 0.50973
vt 0.65489 0.44563
vt 0.33735 0.91135
vt 0.24847 0.91808
f 408/1271 409/1272 407/1273
f 410/1274 413/1275 409/1276
f 414/1277 411/1278 413/1279
f 412/1280 407/1281 411/1282
f 413/1283 407/1284 409/1285
f 410/1286 412/1287 414/1288
f 408/1271 410/1289 409/1272
f 410/1274 414/1290 413/1275
f 414/1277 412/1291 411/1278
f 412/1280 408/1292 407/1281
f 413/1283 411/1293 407/1284
f 410/1286 408/1294 412/1287
o armR
v -1.75000 3.00000 0.50000
v -1.75000 6.00000 0.50000
v -0.75000 3.00000 0.50000
v -0.75000 6.00000 0.50000
v -1.75000 3.00000 -0.50000
v -1.75000 6.00000 -0.50000
v -0.75000 3.00000 -0.50000
v -0.75000 6.00000 -0.50000
vt 0.67906 0.40110
vt 0.74796 0.75368
vt 0.83880 0.70379
vt 0.60295 0.47336
vt 0.67009 0.79786
vt 0.76576 0.73928
vt 0.63835 0.46047
vt 0.70923 0.77898
vt 0.79413 0.72971
vt 0.55457 0.50396
vt 0.81192 0.71574
vt 0.71159 0.77406
vt 0.33735 0.82127
vt 0.24727 0.91135
vt 0.24727 0.82127
vt 0.33527 0.91808
vt 0.24847 0.80387
vt 0.33527 0.80387
vt 0.58822 0.45099
vt 0.50728 0.53194
vt 0.55345 0.50973
vt 0.65489 0.44563
vt 0.33735 0.91135
vt 0.24847 0.91808
f 416/1295 417/1296 415/1297
f 418/1298 421/1299 417/1300
f 422/1301 419/1302 421/1303
f 420/1304 415/1305 419/1306
f 421/1307 415/1308 417/1309
f 418/1310 420/1311 422/1312
f 416/1295 418/1313 417/1296
f 418/1298 422/1314 421/1299
f 422/1301 420/1315 419/1302
f 420/1304 416/1316 415/1305
f 421/1307 419/1317 415/1308
f 418/1310 416/1318 420/1311
o legL
v 0.97500 0.00000 -0.50000
v 0.97500 3.00000 -0.50000
v 0.97500 0.00000 0.50000
v 0.97500 3.00000 0.50000
v -0.02500 0.00000 -0.50000
v -0.02500 3.00000 -0.50000
v -0.02500 0.00000 0.50000
v -0.02500 3.00000 0.50000
vt 0.30826 0.49167
vt 0.16593 0.02544
vt 0.30639 0.02485
vt 0.04972 0.48174
vt 0.19202 0.21167
vt 0.09387 0.19648
vt 0.16175 0.50211
vt 0.31418 0.02377
vt 0.15635 0.02543
vt 0.15944 0.49297
vt 0.08548 0.20523
vt 0.18836 0.21597
vt 0.30985 0.38409
vt 0.20054 0.51625
vt 0.18911 0.39552
vt 0.29442 0.39647
vt 0.19810 0.51294
vt 0.18802 0.40654
vt 0.16780 0.49226
vt 0.14787 0.49693
vt 0.31959 0.50045
vt 0.05656 0.48223
vt 0.32128 0.50482
vt 0.30449 0.50286
f 424/1319 425/1320 423/1321
f 426/1322 429/1323 425/1324
f 430/1325 427/1326 429/1327
f 428/1328 423/1329 427/1330
f 429/1331 423/1332 425/1333
f 426/1334 428/1335 430/1336
f 424/1319 426/1337 425/1320
f 426/1322 430/1338 429/1323
f 430/1325 428/1339 427/1326
f 428/1328 424/1340 423/1329
f 429/1331 427/1341 423/1332
f 426/1334 424/1342 428/1335
o legL
v 0.47101 0.09196 1.37500
v 0.47101 1.35804 1.37500
v 0.47101 0.09196 -0.62500
v 0.47101 1.01091 -0.32045
v 1.11696 0.09196 1.37500
v 0.99194 1.35804 1.37500
v 1.11696 0.09196 -0.62500
v 0.99194 1.01091 -0.32045
v 0.47899 0.09196 1.37500
v 0.47899 1.35804 1.37500
v 0.47899 0.09196 -0.62500
v 0.47899 1.01091 -0.32045
v -0.16696 0.09196 1.37500
v -0.04195 1.35804 1.37500
v -0.16696 0.09196 -0.62500
v -0.04195 1.01091 -0.32045
vt 0.66269 0.52219
vt 0.42276 0.07952
vt 0.66269 0.00000
vt 0.57162 0.26737
vt 0.63354 0.24207
vt 0.60659 0.28424
vt 0.63417 0.26073
vt 0.58739 0.00130
vt 0.56661 0.25035
vt 0.66168 0.10715
vt 0.58575 0.02615
vt 0.57695 0.10051
vt 0.88441 0.01390
vt 0.69556 0.06035
vt 0.88605 0.06280
vt 0.71608 0.20704
vt 0.61434 0.24345
vt 0.66494 0.16471
vt 0.66269 0.52219
vt 0.42276 0.07952
vt 0.33213 0.52219
vt 0.57162 0.26737
vt 0.63354 0.24207
vt 0.61172 0.22149
vt 0.58739 0.00130
vt 0.63417 0.26073
vt 0.56661 0.25035
vt 0.58575 0.02615
vt 0.66168 0.10715
vt 0.57695 0.10051
vt 0.69556 0.06035
vt 0.88441 0.01390
vt 0.88605 0.06280
vt 0.61434 0.24345
vt 0.71608 0.20704
vt 0.66494 0.16471
vt 0.33213 0.52219
vt 0.61172 0.22149
vt 0.70080 0.05099
vt 0.66226 0.04767
vt 0.69807 0.01985
vt 0.66411 0.26416
vt 0.66269 0.00000
vt 0.60659 0.28424
vt 0.70080 0.05099
vt 0.66226 0.04767
vt 0.69807 0.01985
vt 0.66411 0.26416
f 431/1343 434/1344 433/1345
f 433/1346 438/1347 437/1348
f 438/1349 435/1350 437/1351
f 436/1352 431/1353 435/1354
f 437/1355 431/1356 433/1357
f 434/1358 436/1359 438/1360
f 439/1361 442/1362 440/1363
f 441/1364 446/1365 442/1366
f 443/1367 446/1368 445/1369
f 439/1370 444/1371 443/1372
f 439/1373 445/1374 441/1375
f 444/1376 442/1377 446/1378
f 431/1343 432/1379 434/1344
f 433/1346 434/1380 438/1347
f 438/1349 436/1381 435/1350
f 436/1352 432/1382 431/1353
f 437/1355 435/1383 431/1356
f 434/1358 432/1384 436/1359
f 439/1361 441/1385 442/1362
f 441/1364 445/1386 446/1365
f 443/1367 444/1387 446/1368
f 439/1370 440/1388 444/1371
f 439/1373 443/1389 445/1374
f 444/1376 440/1390 442/1377
o legR
v -0.97500 0.00000 -0.50000
v -0.97500 3.00000 -0.50000
v -0.97500 0.00000 0.50000
v -0.97500 3.00000 0.50000
v 0.02500 0.00000 -0.50000
v 0.02500 3.00000 -0.50000
v 0.02500 0.00000 0.50000
v 0.02500 3.00000 0.50000
vt 0.30826 0.49167
vt 0.16593 0.02544
vt 0.30639 0.02485
vt 0.04972 0.48174
vt 0.19202 0.21167
vt 0.09387 0.19648
vt 0.16175 0.50211
vt 0.31418 0.02377
vt 0.15635 0.02543
vt 0.15944 0.49297
vt 0.08548 0.20523
vt 0.18836 0.21597
vt 0.30985 0.38409
vt 0.20054 0.51625
vt 0.18911 0.39552
vt 0.29442 0.39647
vt 0.19810 0.51294
vt 0.18802 0.40654
vt 0.16780 0.49226
vt 0.14787 0.49693
vt 0.31959 0.50045
vt 0.05656 0.48223
vt 0.32128 0.50482
vt 0.30449 0.50286
f 448/1391 449/1392 447/1393
f 450/1394 453/1395 449/1396
f 454/1397 451/1398 453/1399
f 452/1400 447/1401 451/1402
f 453/1403 447/1404 449/1405
f 450/1406 452/1407 454/1408
f 448/1391 450/1409 449/1392
f 450/1394 454/1410 453/1395
f 454/1397 452/1411 451/1398
f 452/1400 448/1412 447/1401
f 453/1403 451/1413 447/1404
f 450/1406 448/1414 452/1407
o legR
v -0.47101 0.09196 1.37500
v -0.47101 1.35804 1.37500
v -0.47101 0.09196 -0.62500
v -0.47101 1.01091 -0.32045
v -1.11696 0.09196 1.37500
v -0.99194 1.35804 1.37500
v -1.11696 0.09196 -0.62500
v -0.99194 1.01091 -0.32045
v -0.47899 0.09196 1.37500
v -0.47899 1.35804 1.37500
v -0.47899 0.09196 -0.62500
v -0.47899 1.01091 -0.32045
v 0.16696 0.09196 1.37500
v 0.04195 1.35804 1.37500
v 0.16696 0.09196 -0.62500
v 0.04195 1.01091 -0.32045
vt 0.66269 0.52219
vt 0.42276 0.07952
vt 0.66269 0.00000
vt 0.57162 0.26737
vt 0.63354 0.24207
vt 0.60659 0.28424
vt 0.63417 0.26073
vt 0.58739 0.00130
vt 0.56661 0.25035
vt 0.66168 0.10715
vt 0.58575 0.02615
vt 0.57695 0.10051
vt 0.88441 0.01390
vt 0.69556 0.06035
vt 0.88605 0.06280
vt 0.71608 0.20704
vt 0.61434 0.24345
vt 0.66494 0.16471
vt 0.66269 0.52219
vt 0.42276 0.07952
vt 0.33213 0.52219
vt 0.57162 0.26737
vt 0.63354 0.24207
vt 0.61172 0.22149
vt 0.58739 0.00130
vt 0.63417 0.26073
vt 0.56661 0.25035
vt 0.58575 0.02615
vt 0.66168 0.10715
vt 0.57695 0.10051
vt 0.69556 0.06035
vt 0.88441 0.01390
vt 0.88605 0.06280
vt 0.61434 0.24345
vt 0.71608 0.20704
vt 0.66494 0.16471
vt 0.33213 0.52219
vt 0.61172 0.22149
vt 0.70080 0.05099
vt 0.66226 0.04767
vt 0.69807 0.01985
vt 0.66411 0.26416
vt 0.66269 0.00000
vt 0.60659 0.28424
vt 0.70080 0.05099
vt 0.66226 0.04767
vt 0.69807 0.01985
vt 0.66411 0.26416
f 455/1415 458/1416 457/1417
f 457/1418 462/1419 461/1420
f 462/1421 459/1422 461/1423
f 460/1424 455/1425 459/1426
f 461/1427 455/1428 457/1429
f 458/1430 460/1431 462/1432
f 463/1433 466/1434 464/1435
f 465/1436 470/1437 466/1438
f 467/1439 470/1440 469/1441
f 463/1442 468/1443 467/1444
f 463/1445 469/1446 465/1447
f 468/1448 466/1449 470/1450
f 455/1415 456/1451 458/1416
f 457/1418 458/1452 462/1419
f 462/1421 460/1453 459/1422
f 460/1424 456/1454 455/1425
f 461/1427 459/1455 455/1428
f 458/1430 456/1456 460/1431
f 463/1433 465/1457 466/1434
f 465/1436 469/1458 470/1437
f 467/1439 468/1459 470/1440
f 463/1442 464/1460 468/1443
f 463/1445 467/1461 469/1446
f 468/1448 464/1462 466/1449
