# STALKER Armor full-body set (mannequin space, see steve.obj)
o head
v -0.95667 5.92657 0.92316
v -0.85014 8.01065 0.93324
v -0.81005 8.01065 -0.93324
v 0.00450 5.92655 0.92316
v 0.00344 8.01065 0.93345
v 0.00449 5.92636 -0.96427
v 0.00508 7.95407 -1.04096
v -0.99509 6.69234 1.00000
v -1.06361 5.99958 -1.04096
v 0.00511 5.99958 -1.04096
v -0.99509 7.42124 1.00000
v -1.06361 7.43768 -1.04096
v 0.00475 7.42116 0.99580
v -0.29920 6.50751 1.36058
v 0.00489 6.22370 1.27438
v -0.29650 6.54606 1.37230
v -0.28860 6.58303 1.38352
v -0.26860 6.63380 1.39896
v -0.23733 6.68109 1.41331
v -0.21223 6.70837 1.42160
v -0.18372 6.73239 1.42889
v -0.15082 6.75472 1.43571
v -0.06254 6.78639 1.44529
v 0.00490 6.79144 1.44683
v -0.06246 6.22864 1.27587
v -0.13661 6.25345 1.28341
v -0.21069 6.30435 1.29885
v -0.25756 6.36121 1.31610
v -0.27587 6.39697 1.32701
v -0.28860 6.43203 1.33766
v -0.29650 6.46899 1.34888
v 0.00527 7.19097 1.00421
v -0.37794 6.55014 1.00002
v 0.00512 6.15214 1.00001
v -0.36338 6.63368 1.00002
v -0.32687 6.71419 1.00001
v -0.30000 6.75396 1.00001
v -0.25876 6.85530 1.01043
v -0.22925 6.92066 1.01008
v -0.20549 6.97193 1.01008
v -0.18108 7.03040 1.01008
v -0.15546 7.09611 1.01069
v -0.05472 6.15494 1.00001
v -0.10338 6.16489 1.00001
v -0.14952 6.18092 1.00001
v -0.19270 6.20259 1.00001
v -0.26728 6.25805 1.00001
v -0.31613 6.31816 1.00002
v -0.34854 6.37994 1.00001
v -0.37152 6.45199 1.00002
v -0.53655 6.37702 1.08676
v -0.28973 6.44104 0.99844
v -0.51890 6.32837 1.09862
v -0.27180 6.39301 1.01156
v -0.49759 6.28978 1.12834
v -0.25043 6.35543 1.04221
v -0.47591 6.26726 1.17137
v -0.22890 6.33411 1.08570
v -0.45722 6.26427 1.22101
v -0.21053 6.33232 1.13532
v -0.44440 6.28117 1.26953
v -0.44006 6.30606 1.30066
v -0.19564 6.35736 1.19579
v -0.44013 6.33736 1.32497
v -0.44774 6.38759 1.34149
v -0.19508 6.41667 1.24261
v -0.46270 6.43838 1.33867
v -0.20781 6.47803 1.25412
v -0.48270 6.48251 1.31681
v -0.22529 6.52667 1.24270
v -0.50464 6.51308 1.27921
v -0.24649 6.56545 1.21345
v -0.52512 6.52535 1.23172
v -0.26814 6.58839 1.17086
v -0.54097 6.51749 1.18172
v -0.28690 6.59198 1.12149
v -0.54980 6.49086 1.13687
v -0.29994 6.57575 1.07292
v -0.55019 6.45086 1.10477
v -0.30544 6.54058 1.03081
v -0.54527 6.41399 1.09094
v -0.30150 6.49215 1.00477
v -0.64173 6.33555 0.96907
v -0.60439 6.23477 0.99584
v -0.55978 6.15563 1.05930
v -0.52690 6.11995 1.12357
v -0.50547 6.10668 1.17294
v -0.48601 6.10380 1.22477
v -0.46928 6.11144 1.27706
v -0.45591 6.12929 1.32781
v -0.44641 6.15667 1.37507
v -0.44116 6.19253 1.41701
v -0.44036 6.23549 1.45204
v -0.44403 6.28390 1.47879
v -0.45204 6.33591 1.49625
v -0.46408 6.38950 1.50375
v -0.47968 6.44262 1.50098
v -0.49824 6.49323 1.48807
v -0.51906 6.53939 1.46551
v -0.55155 6.59588 1.41821
v -0.59676 6.64311 1.32872
v -0.63586 6.64988 1.22530
v -0.66290 6.61525 1.12374
v -0.67252 6.56207 1.05676
v -0.67332 6.51911 1.02174
v -0.66965 6.47070 0.99498
v -0.66164 6.41870 0.97752
v -0.89418 6.29786 1.05812
v -0.87858 6.24474 1.06089
v -0.86001 6.19413 1.07380
v -0.83919 6.14797 1.09636
v -0.81692 6.10804 1.12771
v -0.79406 6.07588 1.16664
v -0.77148 6.05271 1.21166
v -0.75004 6.03944 1.26103
v -0.73059 6.03656 1.31286
v -0.71385 6.04420 1.36515
v -0.70048 6.06205 1.41590
v -0.69098 6.08943 1.46316
v -0.68573 6.12529 1.50510
v -0.68493 6.16825 1.54013
v -0.68861 6.21666 1.56688
v -0.69661 6.26867 1.58434
v -0.70865 6.32226 1.59184
v -0.72425 6.37538 1.58907
v -0.74281 6.42599 1.57616
v -0.76363 6.47215 1.55360
v -0.78590 6.51208 1.52225
v -0.80877 6.54424 1.48331
v -0.83135 6.56741 1.43830
v -0.85278 6.58069 1.38893
v -0.87224 6.58356 1.33710
v -0.88898 6.57593 1.28481
v -0.90235 6.55808 1.23406
v -0.91184 6.53069 1.18680
v -0.91709 6.49483 1.14485
v -0.91789 6.45187 1.10983
v -0.91422 6.40346 1.08308
v -0.90621 6.35146 1.06561
v -0.89189 6.22746 1.10656
v -0.85580 6.14550 1.14420
v -0.81572 6.08743 1.21115
v -0.77784 6.06228 1.29712
v -0.74797 6.07386 1.38889
v -0.73067 6.12036 1.47242
v -0.72813 6.17812 1.52353
v -0.73465 6.24693 1.55798
v -0.75638 6.34094 1.56941
v -0.78939 6.42907 1.54502
v -0.82865 6.49780 1.48849
v -0.86811 6.53654 1.40850
v -0.90169 6.53941 1.31747
v -0.92426 6.50631 1.22956
v -0.93125 6.46385 1.17770
v -0.93115 6.40633 1.13413
v -0.91846 6.32050 1.10384
v 0.00511 7.66762 1.04096
v -0.94725 7.60240 1.00000
v -0.85014 8.01065 0.00000
v -1.02519 5.92615 -0.09843
v -1.06361 7.23172 -0.04135
v -1.02519 5.92618 -0.96412
v 0.00490 6.69234 -1.00000
v 0.00351 8.01065 -0.93345
v 0.00490 7.60240 1.00000
v 0.00490 7.42124 -1.00000
v -1.06361 7.66762 1.04096
v -0.95667 5.92657 -0.05708
v -0.94725 7.16650 0.00000
v -0.87639 7.30112 0.99020
v -0.84603 7.35701 0.99021
v -0.79436 7.40339 0.99021
v -0.69544 7.44653 0.99021
v -0.55731 7.46168 0.99021
v -0.45238 7.44695 0.99021
v -0.35843 7.41718 0.99021
v -0.28128 7.36902 0.99021
v -0.24848 7.31714 0.98998
v -0.25003 7.28346 0.99021
v -0.27489 7.22134 0.99021
v -0.33459 7.11822 0.99021
v -0.38392 7.05305 0.99021
v -0.44461 6.99612 0.99021
v -0.51942 6.95713 0.99021
v -0.59407 6.95107 0.99021
v -0.67201 6.96882 0.99021
v -0.74250 6.99899 0.99021
v -0.80938 7.04662 0.99021
v -0.85988 7.11109 0.99020
v -0.88066 7.16849 0.99021
v -0.88756 7.23372 0.99018
v -0.89847 7.31963 1.00004
v -0.86287 7.39085 1.00001
v -0.80727 7.44383 1.00000
v -0.73600 7.47965 1.00000
v -0.64955 7.50118 1.00000
v -0.52967 7.50734 1.00000
v -0.39319 7.47765 1.00000
v -0.30241 7.43537 1.00000
v -0.25848 7.39628 1.00000
v -0.23481 7.35920 1.00000
v -0.22376 7.31541 1.00000
v -0.22804 7.26443 1.00000
v -0.25065 7.20501 1.00000
v -0.30828 7.09864 1.00001
v -0.38328 7.00065 1.00013
v -0.44283 6.94787 1.00000
v -0.51620 6.91168 1.00000
v -0.60778 6.90489 1.00000
v -0.71809 6.93908 1.00000
v -0.79106 6.98110 1.00000
v -0.85510 7.04436 1.00001
v -0.89686 7.12730 1.00004
v -0.91133 7.22624 1.00005
v -0.89763 7.25381 1.02831
v -0.88745 7.31045 1.02838
v -0.85460 7.37376 1.02839
v -0.80112 7.42339 1.02837
v -0.73106 7.45772 1.02834
v -0.64871 7.47775 1.02811
v -0.56739 7.48456 1.02844
v -0.49365 7.47800 1.02813
v -0.39849 7.45577 1.02835
v -0.30878 7.41504 1.02844
v -0.26460 7.37619 1.02831
v -0.24406 7.34402 1.02831
v -0.23592 7.31172 1.02831
v -0.23908 7.27398 1.02831
v -0.26633 7.20528 1.02800
v -0.32986 7.09632 1.02833
v -0.38101 7.02965 1.02833
v -0.44399 6.97180 1.02834
v -0.51781 6.93455 1.02882
v -0.59456 6.92769 1.02805
v -0.67725 6.94704 1.02832
v -0.74910 6.97856 1.02835
v -0.81746 7.02854 1.02839
v -0.85586 7.07568 1.02831
v -0.87703 7.11493 1.02831
v -0.89135 7.15888 1.02831
v -0.89818 7.20867 1.02831
v -0.94390 7.95407 0.00000
v -0.94390 7.95407 -1.04096
v 0.00509 7.95407 1.04096
v -0.94390 7.95407 1.04096
v -0.99509 6.00000 0.00000
v -0.99509 6.00000 1.00000
v 0.00490 6.00000 1.00000
v 0.00490 6.00000 -1.00000
v -1.06361 5.99958 -0.04135
v 0.95667 5.92657 0.92316
v 0.85014 8.01065 0.93324
v 0.81005 8.01065 -0.93324
v -0.00450 5.92655 0.92316
v -0.00344 8.01065 0.93345
v -0.00449 5.92636 -0.96427
v -0.00508 7.95407 -1.04096
v 0.99509 6.69234 1.00000
v 1.06361 5.99958 -1.04096
v -0.00511 5.99958 -1.04096
v 0.99509 7.42124 1.00000
v 1.06361 7.43768 -1.04096
v -0.00475 7.42116 0.99580
v 0.29920 6.50751 1.36058
v -0.00489 6.22370 1.27438
v 0.29650 6.54606 1.37230
v 0.28860 6.58303 1.38352
v 0.26860 6.63380 1.39896
v 0.23733 6.68109 1.41331
v 0.21223 6.70837 1.42160
v 0.18372 6.73239 1.42889
v 0.15082 6.75472 1.43571
v 0.06254 6.78639 1.44529
v -0.00490 6.79144 1.44683
v 0.06246 6.22864 1.27587
v 0.13661 6.25345 1.28341
v 0.21069 6.30435 1.29885
v 0.25756 6.36121 1.31610
v 0.27587 6.39697 1.32701
v 0.28860 6.43203 1.33766
v 0.29650 6.46899 1.34888
v -0.00527 7.19097 1.00421
v 0.37794 6.55014 1.00002
v -0.00512 6.15214 1.00001
v 0.36338 6.63368 1.00002
v 0.32687 6.71419 1.00001
v 0.30000 6.75396 1.00001
v 0.25876 6.85530 1.01043
v 0.22925 6.92066 1.01008
v 0.20549 6.97193 1.01008
v 0.18108 7.03040 1.01008
v 0.15546 7.09611 1.01069
v 0.05472 6.15494 1.00001
v 0.10338 6.16489 1.00001
v 0.14952 6.18092 1.00001
v 0.19270 6.20259 1.00001
v 0.26728 6.25805 1.00001
v 0.31613 6.31816 1.00002
v 0.34854 6.37994 1.00001
v 0.37152 6.45199 1.00002
v 0.53655 6.37702 1.08676
v 0.28973 6.44104 0.99844
v 0.51890 6.32837 1.09862
v 0.27180 6.39301 1.01156
v 0.49759 6.28978 1.12834
v 0.25043 6.35543 1.04221
v 0.47591 6.26726 1.17137
v 0.22890 6.33411 1.08570
v 0.45722 6.26427 1.22101
v 0.21053 6.33232 1.13532
v 0.44440 6.28117 1.26953
v 0.44006 6.30606 1.30066
v 0.19564 6.35736 1.19579
v 0.44013 6.33736 1.32497
v 0.44774 6.38759 1.34149
v 0.19508 6.41667 1.24261
v 0.46270 6.43838 1.33867
v 0.20781 6.47803 1.25412
v 0.48270 6.48251 1.31681
v 0.22529 6.52667 1.24270
v 0.50464 6.51308 1.27921
v 0.24649 6.56545 1.21345
v 0.52512 6.52535 1.23172
v 0.26814 6.58839 1.17086
v 0.54097 6.51749 1.18172
v 0.28690 6.59198 1.12149
v 0.54980 6.49086 1.13687
v 0.29994 6.57575 1.07292
v 0.55019 6.45086 1.10477
v 0.30544 6.54058 1.03081
v 0.54527 6.41399 1.09094
v 0.30150 6.49215 1.00477
v 0.64173 6.33555 0.96907
v 0.60439 6.23477 0.99584
v 0.55978 6.15563 1.05930
v 0.52690 6.11995 1.12357
v 0.50547 6.10668 1.17294
v 0.48601 6.10380 1.22477
v 0.46928 6.11144 1.27706
v 0.45591 6.12929 1.32781
v 0.44641 6.15667 1.37507
v 0.44116 6.19253 1.41701
v 0.44036 6.23549 1.45204
v 0.44403 6.28390 1.47879
v 0.45204 6.33591 1.49625
v 0.46408 6.38950 1.50375
v 0.47968 6.44262 1.50098
v 0.49824 6.49323 1.48807
v 0.51906 6.53939 1.46551
v 0.55155 6.59588 1.41821
v 0.59676 6.64311 1.32872
v 0.63586 6.64988 1.22530
v 0.66290 6.61525 1.12374
v 0.67252 6.56207 1.05676
v 0.67332 6.51911 1.02174
v 0.66965 6.47070 0.99498
v 0.66164 6.41870 0.97752
v 0.89418 6.29786 1.05812
v 0.87858 6.24474 1.06089
v 0.86001 6.19413 1.07380
v 0.83919 6.14797 1.09636
v 0.81692 6.10804 1.12771
v 0.79406 6.07588 1.16664
v 0.77148 6.05271 1.21166
v 0.75004 6.03944 1.26103
v 0.73059 6.03656 1.31286
v 0.71385 6.04420 1.36515
v 0.70048 6.06205 1.41590
v 0.69098 6.08943 1.46316
v 0.68573 6.12529 1.50510
v 0.68493 6.16825 1.54013
v 0.68861 6.21666 1.56688
v 0.69661 6.26867 1.58434
v 0.70865 6.32226 1.59184
v 0.72425 6.37538 1.58907
v 0.74281 6.42599 1.57616
v 0.76363 6.47215 1.55360
v 0.78590 6.51208 1.52225
v 0.80877 6.54424 1.48331
v 0.83135 6.56741 1.43830
v 0.85278 6.58069 1.38893
v 0.87224 6.58356 1.33710
v 0.88898 6.57593 1.28481
v 0.90235 6.55808 1.23406
v 0.91184 6.53069 1.18680
v 0.91709 6.49483 1.14485
v 0.91789 6.45187 1.10983
v 0.91422 6.40346 1.08308
v 0.90621 6.35146 1.06561
v 0.89189 6.22746 1.10656
v 0.85580 6.14550 1.14420
v 0.81572 6.08743 1.21115
v 0.77784 6.06228 1.29712
v 0.74797 6.07386 1.38889
v 0.73067 6.12036 1.47242
v 0.72813 6.17812 1.52353
v 0.73465 6.24693 1.55798
v 0.75638 6.34095 1.56941
v 0.78939 6.42907 1.54502
v 0.82865 6.49780 1.48849
v 0.86811 6.53654 1.40850
v 0.90169 6.53941 1.31747
v 0.92426 6.50631 1.22956
v 0.93125 6.46385 1.17770
v 0.93115 6.40633 1.13413
v 0.91846 6.32050 1.10384
v -0.00511 7.66762 1.04096
v 0.94725 7.60240 1.00000
v 0.85014 8.01065 0.00000
v 1.02519 5.92615 -0.09843
v 1.06361 7.23172 -0.04135
v 1.02519 5.92618 -0.96412
v -0.00490 6.69234 -1.00000
v -0.00351 8.01065 -0.93345
v -0.00490 7.60240 1.00000
v -0.00490 7.42124 -1.00000
v 1.06361 7.66762 1.04096
v 0.95667 5.92657 -0.05708
v 0.94725 7.16650 0.00000
v 0.87639 7.30112 0.99020
v 0.84603 7.35701 0.99021
v 0.79436 7.40339 0.99021
v 0.69544 7.44653 0.99021
v 0.55731 7.46168 0.99021
v 0.45238 7.44695 0.99021
v 0.35843 7.41718 0.99021
v 0.28128 7.36902 0.99021
v 0.24848 7.31714 0.98998
v 0.25003 7.28346 0.99021
v 0.27489 7.22134 0.99021
v 0.33459 7.11822 0.99021
v 0.38392 7.05305 0.99021
v 0.44461 6.99612 0.99021
v 0.51942 6.95713 0.99021
v 0.59407 6.95107 0.99021
v 0.67201 6.96882 0.99021
v 0.74250 6.99899 0.99021
v 0.80938 7.04662 0.99021
v 0.85988 7.11109 0.99020
v 0.88066 7.16849 0.99021
v 0.88756 7.23372 0.99018
v 0.89847 7.31963 1.00004
v 0.86287 7.39085 1.00001
v 0.80727 7.44383 1.00000
v 0.73600 7.47965 1.00000
v 0.64955 7.50118 1.00000
v 0.52967 7.50734 1.00000
v 0.39319 7.47765 1.00000
v 0.30241 7.43537 1.00000
v 0.25848 7.39628 1.00000
v 0.23481 7.35920 1.00000
v 0.22376 7.31541 1.00000
v 0.22804 7.26443 1.00000
v 0.25065 7.20501 1.00000
v 0.30828 7.09864 1.00001
v 0.38328 7.00065 1.00013
v 0.44283 6.94787 1.00000
v 0.51620 6.91168 1.00000
v 0.60778 6.90489 1.00000
v 0.71809 6.93908 1.00000
v 0.79106 6.98110 1.00000
v 0.85510 7.04436 1.00001
v 0.89686 7.12730 1.00004
v 0.91133 7.22624 1.00005
v 0.89763 7.25381 1.02831
v 0.88745 7.31045 1.02838
v 0.85460 7.37376 1.02839
v 0.80112 7.42339 1.02837
v 0.73106 7.45772 1.02834
v 0.64871 7.47775 1.02811
v 0.56739 7.48456 1.02844
v 0.49365 7.47800 1.02813
v 0.39849 7.45577 1.02835
v 0.30878 7.41504 1.02844
v 0.26460 7.37619 1.02831
v 0.24406 7.34402 1.02831
v 0.23592 7.31172 1.02831
v 0.23908 7.27398 1.02831
v 0.26633 7.20528 1.02800
v 0.32986 7.09632 1.02833
v 0.38101 7.02965 1.02833
v 0.44399 6.97180 1.02834
v 0.51781 6.93455 1.02882
v 0.59456 6.92769 1.02805
v 0.67725 6.94704 1.02832
v 0.74910 6.97856 1.02835
v 0.81746 7.02854 1.02839
v 0.85586 7.07568 1.02831
v 0.87703 7.11493 1.02831
v 0.89135 7.15888 1.02831
v 0.89818 7.20867 1.02831
v 0.94390 7.95407 0.00000
v 0.94390 7.95407 -1.04096
v -0.00509 7.95407 1.04096
v 0.94390 7.95407 1.04096
v 0.99509 6.00000 0.00000
v 0.99509 6.00000 1.00000
v -0.00490 6.00000 1.00000
v -0.00490 6.00000 -1.00000
v 1.06361 5.99958 -0.04135
vt 0.48868 0.07436
vt 0.55135 0.00498
vt 0.65151 0.07508
vt 0.96835 0.21389
vt 0.95449 0.22856
vt 0.90141 0.23320
vt 0.93215 0.99632
vt 0.90377 0.99610
vt 0.90377 0.93769
vt 0.89303 0.68602
vt 0.73963 0.68602
vt 0.74940 0.76425
vt 0.97882 0.04968
vt 0.99589 0.02463
vt 0.99693 0.05191
vt 0.97776 0.02267
vt 0.99486 0.00635
vt 0.99486 0.01490
vt 0.97949 0.04412
vt 0.97811 0.01307
vt 0.99620 0.04602
vt 0.98023 0.07542
vt 0.99690 0.07710
vt 0.98023 0.10207
vt 0.99633 0.01280
vt 0.97924 0.01747
vt 0.97899 0.00981
vt 0.97936 0.03224
vt 0.99655 0.03778
vt 0.97906 0.05578
vt 0.99601 0.06678
vt 0.97828 0.08042
vt 0.99504 0.09072
vt 0.97711 0.10254
vt 0.97774 0.00709
vt 0.99679 0.01216
vt 0.97758 0.02479
vt 0.99661 0.03673
vt 0.97747 0.05177
vt 0.99656 0.06449
vt 0.97748 0.07951
vt 0.99662 0.09114
vt 0.97762 0.10372
vt 0.99740 0.10811
vt 0.97942 0.10253
vt 0.99754 0.09149
vt 0.41437 0.79226
vt 0.40720 0.78924
vt 0.41434 0.75076
vt 0.97940 0.07737
vt 0.99740 0.07203
vt 0.97307 0.03556
vt 0.90345 0.02248
vt 0.97086 0.02363
vt 0.86579 0.07817
vt 0.87716 0.08234
vt 0.87458 0.08680
vt 0.81876 0.06721
vt 0.78908 0.06300
vt 0.81710 0.05825
vt 0.85990 0.08331
vt 0.86923 0.09275
vt 0.86244 0.09762
vt 0.82078 0.04530
vt 0.79426 0.03506
vt 0.79924 0.02705
vt 0.85495 0.08501
vt 0.84716 0.10137
vt 0.85229 0.08482
vt 0.83468 0.03536
vt 0.82133 0.01116
vt 0.83013 0.00926
vt 0.95076 0.08861
vt 0.92988 0.09655
vt 0.95016 0.07935
vt 0.79083 0.04395
vt 0.83669 0.08150
vt 0.82529 0.10585
vt 0.83062 0.07979
vt 0.85334 0.10122
vt 0.85007 0.10160
vt 0.81304 0.01487
vt 0.82350 0.07476
vt 0.79426 0.08130
vt 0.86318 0.08101
vt 0.81794 0.05148
vt 0.78908 0.05339
vt 0.85686 0.10025
vt 0.82678 0.03886
vt 0.80558 0.02023
vt 0.84374 0.09979
vt 0.85076 0.08394
vt 0.92916 0.07687
vt 0.95003 0.07010
vt 0.85742 0.08446
vt 0.80558 0.09605
vt 0.88527 0.05071
vt 0.87414 0.04519
vt 0.88364 0.04201
vt 0.95496 0.06503
vt 0.90421 0.07180
vt 0.90679 0.05723
vt 0.92493 0.00396
vt 0.97363 0.01517
vt 0.92192 0.02218
vt 0.97438 0.04856
vt 0.90566 0.03441
vt 0.90243 0.08591
vt 0.96786 0.01627
vt 0.92287 0.00543
vt 0.97244 0.00534
vt 0.97474 0.06212
vt 0.90697 0.04740
vt 0.95151 0.09295
vt 0.90153 0.09903
vt 0.91397 0.02897
vt 0.91829 0.01636
vt 0.97413 0.07573
vt 0.90733 0.06097
vt 0.90154 0.11065
vt 0.96354 0.02888
vt 0.91009 0.04277
vt 0.97258 0.08887
vt 0.90672 0.07458
vt 0.91643 0.09477
vt 0.96427 0.09121
vt 0.96921 0.10502
vt 0.95966 0.04268
vt 0.97015 0.10102
vt 0.90517 0.08771
vt 0.96010 0.07654
vt 0.96693 0.11173
vt 0.90274 0.09986
vt 0.91003 0.07387
vt 0.95688 0.06158
vt 0.90681 0.05891
vt 0.95472 0.04689
vt 0.91039 0.07878
vt 0.95626 0.09814
vt 0.90416 0.10443
vt 0.90465 0.04422
vt 0.95371 0.03305
vt 0.90363 0.03038
vt 0.95388 0.02058
vt 0.91663 0.04987
vt 0.96261 0.07111
vt 0.90381 0.01791
vt 0.95524 0.00997
vt 0.96410 0.00475
vt 0.90042 0.01207
vt 0.89669 0.00360
vt 0.96870 0.04198
vt 0.96783 0.01323
vt 0.85192 0.01325
vt 0.86763 0.01889
vt 0.82635 0.01573
vt 0.80038 0.04093
vt 0.81284 0.03797
vt 0.80744 0.05147
vt 0.88527 0.05964
vt 0.87599 0.05955
vt 0.88362 0.06846
vt 0.80926 0.02564
vt 0.82266 0.02764
vt 0.88036 0.07687
vt 0.87244 0.07372
vt 0.87558 0.08453
vt 0.82285 0.01489
vt 0.83527 0.02204
vt 0.86943 0.09116
vt 0.86412 0.08546
vt 0.86211 0.09649
vt 0.83900 0.01023
vt 0.84605 0.02134
vt 0.85386 0.10027
vt 0.85255 0.09300
vt 0.85533 0.01211
vt 0.84725 0.01038
vt 0.81134 0.09053
vt 0.81254 0.07940
vt 0.82202 0.08944
vt 0.84492 0.10231
vt 0.86298 0.01545
vt 0.85632 0.02451
vt 0.83555 0.10240
vt 0.84352 0.09538
vt 0.86989 0.02031
vt 0.80133 0.07590
vt 0.80735 0.06605
vt 0.87579 0.02652
vt 0.86719 0.03287
vt 0.82649 0.10013
vt 0.83362 0.09460
vt 0.88043 0.03384
vt 0.79756 0.05852
vt 0.91098 0.98069
vt 0.78348 0.99354
vt 0.78348 0.98069
vt 0.99650 0.93897
vt 0.99685 0.79493
vt 0.88041 0.85313
vt 0.67543 0.39518
vt 0.45259 0.38868
vt 0.56684 0.38872
vt 0.79165 0.97773
vt 0.91096 0.97773
vt 0.94091 0.82200
vt 0.99661 0.86902
vt 0.99428 0.87547
vt 0.93983 0.81989
vt 0.98958 0.86068
vt 0.98443 0.86886
vt 0.88302 0.54692
vt 0.90539 0.54787
vt 0.83434 0.56899
vt 0.95653 0.47914
vt 0.96123 0.49194
vt 0.95533 0.50934
vt 0.84115 0.48581
vt 0.84121 0.49924
vt 0.83892 0.47998
vt 0.84324 0.49736
vt 0.84769 0.51412
vt 0.84923 0.51056
vt 0.85794 0.52529
vt 0.85909 0.52102
vt 0.87113 0.53286
vt 0.87205 0.52829
vt 0.88716 0.53738
vt 0.90238 0.53402
vt 0.88731 0.53254
vt 0.93368 0.52787
vt 0.90936 0.53816
vt 0.91605 0.53261
vt 0.95028 0.51916
vt 0.93467 0.53244
vt 0.95852 0.51144
vt 0.95146 0.52343
vt 0.96233 0.50470
vt 0.95966 0.51561
vt 0.96384 0.49794
vt 0.96405 0.50785
vt 0.96530 0.48800
vt 0.96610 0.49867
vt 0.96326 0.49003
vt 0.96110 0.47557
vt 0.94638 0.45295
vt 0.94659 0.44444
vt 0.95810 0.47590
vt 0.93688 0.43907
vt 0.95025 0.45375
vt 0.92521 0.42707
vt 0.93648 0.43291
vt 0.91155 0.41936
vt 0.92543 0.42201
vt 0.89492 0.41343
vt 0.91185 0.41448
vt 0.88202 0.42171
vt 0.89735 0.41782
vt 0.86872 0.42840
vt 0.87446 0.42003
vt 0.85609 0.43898
vt 0.86095 0.42893
vt 0.84890 0.44850
vt 0.84915 0.44230
vt 0.84497 0.45672
vt 0.84232 0.46592
vt 0.84153 0.45963
vt 0.84325 0.48151
vt 0.84526 0.49538
vt 0.85081 0.50701
vt 0.86034 0.51677
vt 0.87869 0.52522
vt 0.90425 0.52894
vt 0.92370 0.52600
vt 0.94110 0.51964
vt 0.96125 0.49869
vt 0.94551 0.45745
vt 0.93635 0.44389
vt 0.92510 0.43206
vt 0.91124 0.42409
vt 0.88299 0.42619
vt 0.89744 0.42259
vt 0.86994 0.43259
vt 0.85758 0.44268
vt 0.84832 0.45625
vt 0.84430 0.46786
vt 0.84105 0.47635
vt 0.94331 0.98625
vt 0.89064 0.98854
vt 0.89072 0.98610
vt 0.94930 0.94774
vt 0.94930 0.98870
vt 0.76845 0.99239
vt 0.96694 0.98102
vt 0.96866 0.99239
vt 0.83812 0.98596
vt 0.83198 0.98837
vt 0.36020 0.37818
vt 0.36907 0.06856
vt 0.36908 0.39507
vt 0.22626 0.34941
vt 0.31000 0.34941
vt 0.27101 0.42382
vt 0.75100 0.66256
vt 0.90137 0.66256
vt 0.68686 0.08715
vt 0.67536 0.38876
vt 0.67536 0.07509
vt 0.85563 0.38344
vt 0.91328 0.24861
vt 0.85888 0.39095
vt 0.82179 0.98275
vt 0.95747 0.98198
vt 0.81949 0.98544
vt 0.94980 0.97954
vt 0.95747 0.95133
vt 0.78768 0.91165
vt 0.79592 0.91942
vt 0.79595 0.91959
vt 0.94098 0.81715
vt 0.94534 0.81766
vt 0.56684 0.38872
vt 0.65151 0.07508
vt 0.48868 0.07436
vt 0.90377 0.93769
vt 0.90377 0.99610
vt 0.93215 0.99632
vt 0.89303 0.68602
vt 0.91566 0.86709
vt 0.74940 0.76425
vt 0.99864 0.35834
vt 0.99864 0.22147
vt 0.98244 0.22292
vt 0.99589 0.02463
vt 0.97882 0.04968
vt 0.99693 0.05191
vt 0.99486 0.00635
vt 0.97776 0.02267
vt 0.97949 0.04412
vt 0.99486 0.01490
vt 0.97811 0.01307
vt 0.98023 0.07542
vt 0.99620 0.04602
vt 0.98023 0.10207
vt 0.99690 0.07710
vt 0.97924 0.01747
vt 0.99633 0.01280
vt 0.97899 0.00981
vt 0.97936 0.03224
vt 0.97906 0.05578
vt 0.99601 0.06678
vt 0.99655 0.03778
vt 0.97828 0.08042
vt 0.99504 0.09072
vt 0.97711 0.10254
vt 0.99404 0.10719
vt 0.97758 0.02479
vt 0.99661 0.03673
vt 0.99679 0.01216
vt 0.97747 0.05177
vt 0.99656 0.06449
vt 0.97748 0.07951
vt 0.99662 0.09114
vt 0.97762 0.10372
vt 0.99676 0.10902
vt 0.39864 0.77599
vt 0.40168 0.78352
vt 0.40168 0.75957
vt 0.99740 0.07203
vt 0.97940 0.07737
vt 0.99754 0.09149
vt 0.90345 0.02248
vt 0.97307 0.03556
vt 0.97086 0.02363
vt 0.86579 0.07817
vt 0.87716 0.08234
vt 0.86710 0.07591
vt 0.78908 0.06300
vt 0.81876 0.06721
vt 0.81710 0.05825
vt 0.85990 0.08331
vt 0.86923 0.09275
vt 0.86318 0.08101
vt 0.84716 0.10137
vt 0.85495 0.08501
vt 0.85229 0.08482
vt 0.92988 0.09655
vt 0.95076 0.08861
vt 0.95016 0.07935
vt 0.82078 0.04530
vt 0.79083 0.04395
vt 0.81794 0.05148
vt 0.82529 0.10585
vt 0.83669 0.08150
vt 0.83062 0.07979
vt 0.83468 0.03536
vt 0.81304 0.01487
vt 0.82678 0.03886
vt 0.79426 0.08130
vt 0.82350 0.07476
vt 0.87458 0.08680
vt 0.78908 0.05339
vt 0.85686 0.10025
vt 0.85742 0.08446
vt 0.84374 0.09979
vt 0.85076 0.08394
vt 0.92916 0.07687
vt 0.95003 0.07010
vt 0.86244 0.09762
vt 0.79924 0.02705
vt 0.80558 0.09605
vt 0.87414 0.04519
vt 0.88527 0.05071
vt 0.88364 0.04201
vt 0.97363 0.01517
vt 0.92493 0.00396
vt 0.92192 0.02218
vt 0.90566 0.03441
vt 0.97438 0.04856
vt 0.95496 0.06503
vt 0.90243 0.08591
vt 0.95151 0.09295
vt 0.92287 0.00543
vt 0.96786 0.01627
vt 0.97244 0.00534
vt 0.90697 0.04740
vt 0.97474 0.06212
vt 0.91397 0.02897
vt 0.96354 0.02888
vt 0.90733 0.06097
vt 0.97413 0.07573
vt 0.90154 0.11065
vt 0.95111 0.11056
vt 0.91009 0.04277
vt 0.95966 0.04268
vt 0.90672 0.07458
vt 0.97258 0.08887
vt 0.90679 0.05723
vt 0.90517 0.08771
vt 0.97015 0.10102
vt 0.91643 0.09477
vt 0.96010 0.07654
vt 0.91003 0.07387
vt 0.90274 0.09986
vt 0.96693 0.11173
vt 0.95688 0.06158
vt 0.90681 0.05891
vt 0.95472 0.04689
vt 0.90465 0.04422
vt 0.95626 0.09814
vt 0.91039 0.07878
vt 0.90416 0.10443
vt 0.95371 0.03305
vt 0.90363 0.03038
vt 0.95388 0.02058
vt 0.90381 0.01791
vt 0.96261 0.07111
vt 0.91663 0.04987
vt 0.95524 0.00997
vt 0.90516 0.00730
vt 0.96410 0.00475
vt 0.90042 0.01207
vt 0.96783 0.01323
vt 0.96870 0.04198
vt 0.88750 0.04569
vt 0.88046 0.03031
vt 0.80038 0.03895
vt 0.80038 0.04093
vt 0.81284 0.03797
vt 0.80413 0.03285
vt 0.87599 0.05955
vt 0.88527 0.05964
vt 0.80926 0.02564
vt 0.88362 0.06846
vt 0.82266 0.02764
vt 0.81559 0.01958
vt 0.87244 0.07372
vt 0.88036 0.07687
vt 0.82285 0.01489
vt 0.87558 0.08453
vt 0.83527 0.02204
vt 0.83076 0.01174
vt 0.86412 0.08546
vt 0.86943 0.09116
vt 0.83900 0.01023
vt 0.86211 0.09649
vt 0.84605 0.02134
vt 0.84725 0.01038
vt 0.85255 0.09300
vt 0.85386 0.10027
vt 0.85533 0.01211
vt 0.81134 0.09053
vt 0.81254 0.07940
vt 0.80561 0.08371
vt 0.84492 0.10231
vt 0.85632 0.02451
vt 0.86298 0.01545
vt 0.80133 0.07590
vt 0.84352 0.09538
vt 0.83555 0.10240
vt 0.86989 0.02031
vt 0.80735 0.06605
vt 0.79862 0.06740
vt 0.83362 0.09460
vt 0.82649 0.10013
vt 0.86719 0.03287
vt 0.87579 0.02652
vt 0.79756 0.05852
vt 0.82202 0.08944
vt 0.81837 0.09609
vt 0.88043 0.03384
vt 0.80744 0.05147
vt 0.79816 0.04959
vt 0.78348 0.99354
vt 0.91098 0.98069
vt 0.78348 0.98069
vt 0.88041 0.85313
vt 0.99650 0.93897
vt 0.87573 0.99548
vt 0.67543 0.39518
vt 0.45259 0.38868
vt 0.36908 0.39507
vt 0.79165 0.97773
vt 0.99661 0.86902
vt 0.94091 0.82200
vt 0.99428 0.87547
vt 0.98958 0.86068
vt 0.93983 0.81989
vt 0.98443 0.86886
vt 0.83434 0.56899
vt 0.90539 0.54787
vt 0.88302 0.54692
vt 0.84115 0.48581
vt 0.84121 0.49924
vt 0.84324 0.49736
vt 0.84769 0.51412
vt 0.84923 0.51056
vt 0.85794 0.52529
vt 0.85909 0.52102
vt 0.87113 0.53286
vt 0.87205 0.52829
vt 0.88716 0.53738
vt 0.88731 0.53254
vt 0.90238 0.53402
vt 0.90936 0.53816
vt 0.91605 0.53261
vt 0.93368 0.52787
vt 0.93467 0.53244
vt 0.95028 0.51916
vt 0.95146 0.52343
vt 0.95852 0.51144
vt 0.95966 0.51561
vt 0.96233 0.50470
vt 0.96405 0.50785
vt 0.96384 0.49794
vt 0.96530 0.48800
vt 0.96326 0.49003
vt 0.96110 0.47557
vt 0.95810 0.47590
vt 0.94659 0.44444
vt 0.94638 0.45295
vt 0.95025 0.45375
vt 0.93688 0.43907
vt 0.93648 0.43291
vt 0.92521 0.42707
vt 0.92543 0.42201
vt 0.91155 0.41936
vt 0.89492 0.41343
vt 0.89735 0.41782
vt 0.88202 0.42171
vt 0.87446 0.42003
vt 0.86872 0.42840
vt 0.86095 0.42893
vt 0.85609 0.43898
vt 0.84915 0.44230
vt 0.84890 0.44850
vt 0.84497 0.45672
vt 0.84153 0.45963
vt 0.84232 0.46592
vt 0.83892 0.47998
vt 0.84105 0.47635
vt 0.84325 0.48151
vt 0.84526 0.49538
vt 0.85081 0.50701
vt 0.86034 0.51677
vt 0.87869 0.52522
vt 0.90425 0.52894
vt 0.92370 0.52600
vt 0.94110 0.51964
vt 0.95533 0.50934
vt 0.96125 0.49869
vt 0.96123 0.49194
vt 0.95653 0.47914
vt 0.94551 0.45745
vt 0.93635 0.44389
vt 0.92510 0.43206
vt 0.91124 0.42409
vt 0.89744 0.42259
vt 0.88299 0.42619
vt 0.86994 0.43259
vt 0.85758 0.44268
vt 0.84832 0.45625
vt 0.84430 0.46786
vt 0.89064 0.98854
vt 0.94331 0.98625
vt 0.89072 0.98610
vt 0.94930 0.94774
vt 0.94331 0.94737
vt 0.96694 0.98102
vt 0.76845 0.99239
vt 0.96866 0.99239
vt 0.83812 0.98596
vt 0.36020 0.37818
vt 0.36907 0.06856
vt 0.36020 0.08545
vt 0.22626 0.34941
vt 0.27101 0.42382
vt 0.31000 0.34941
vt 0.75100 0.66256
vt 0.90137 0.66256
vt 0.68686 0.08715
vt 0.67536 0.38876
vt 0.68686 0.38318
vt 0.85563 0.38344
vt 0.91328 0.24861
vt 0.90791 0.24663
vt 0.82179 0.98275
vt 0.95747 0.98198
vt 0.94980 0.97954
vt 0.95747 0.95133
vt 0.94980 0.95300
vt 0.94098 0.81715
vt 0.94534 0.81766
vt 0.94542 0.81281
vt 0.42419 0.07500
vt 0.45260 0.07567
vt 0.64026 0.03204
vt 0.99679 0.46684
vt 0.99669 0.52587
vt 0.97527 0.44339
vt 0.96255 0.49949
vt 0.96175 0.48640
vt 0.95752 0.47118
vt 0.96597 0.41139
vt 0.97052 0.42640
vt 0.96153 0.39823
vt 0.94831 0.35540
vt 0.95604 0.38139
vt 0.93271 0.41890
vt 0.94329 0.34519
vt 0.93671 0.32408
vt 0.92158 0.40554
vt 0.93406 0.30297
vt 0.90790 0.39632
vt 0.93522 0.27819
vt 0.89084 0.39503
vt 0.93924 0.25940
vt 0.94542 0.24400
vt 0.87023 0.40312
vt 0.84923 0.36155
vt 0.85662 0.41402
vt 0.84473 0.43041
vt 0.83706 0.45165
vt 0.83443 0.47658
vt 0.81676 0.50077
vt 0.99867 0.17972
vt 0.99872 0.20118
vt 0.99413 0.20166
vt 0.98504 0.20421
vt 0.97642 0.20833
vt 0.99683 0.78098
vt 0.99685 0.93922
vt 0.93538 0.78098
vt 0.99685 0.99604
vt 0.93539 0.99604
vt 0.96053 0.93813
vt 0.96053 0.99654
vt 0.75970 0.84662
vt 0.91566 0.86709
vt 0.76225 0.86709
vt 0.98242 0.35689
vt 0.96119 0.34926
vt 0.99864 0.35834
vt 0.95323 0.34416
vt 0.94678 0.24108
vt 0.96461 0.22890
vt 0.94636 0.33837
vt 0.94032 0.33178
vt 0.93290 0.32015
vt 0.93553 0.25482
vt 0.92797 0.30812
vt 0.93103 0.26323
vt 0.92607 0.29920
vt 0.92797 0.27169
vt 0.92541 0.28990
vt 0.92607 0.28060
vt 0.98244 0.22292
vt 0.99864 0.22147
vt 0.99872 0.45192
vt 0.95996 0.42934
vt 0.95385 0.41346
vt 0.94797 0.39944
vt 0.94225 0.38715
vt 0.93518 0.37141
vt 0.92521 0.34713
vt 0.91874 0.33760
vt 0.91025 0.31788
vt 0.90684 0.29816
vt 0.90833 0.27501
vt 0.91352 0.25746
vt 0.92148 0.24307
vt 0.93318 0.22865
vt 0.95105 0.21495
vt 0.96145 0.20975
vt 0.97256 0.20591
vt 0.98428 0.20352
vt 0.97681 0.00607
vt 0.99686 0.10334
vt 0.99404 0.10719
vt 0.99676 0.10902
vt 0.40168 0.78352
vt 0.40718 0.75383
vt 0.40168 0.75957
vt 0.39864 0.77599
vt 0.39858 0.76745
vt 0.42205 0.75088
vt 0.42208 0.79208
vt 0.42912 0.75416
vt 0.43445 0.76009
vt 0.42914 0.78874
vt 0.43536 0.78076
vt 0.43730 0.76948
vt 0.86710 0.07591
vt 0.79083 0.07243
vt 0.81304 0.10136
vt 0.79924 0.08927
vt 0.93105 0.11112
vt 0.92924 0.06339
vt 0.97541 0.00394
vt 0.95111 0.11056
vt 0.89952 0.11057
vt 0.95331 0.10954
vt 0.95940 0.08516
vt 0.96574 0.05653
vt 0.90516 0.00730
vt 0.97136 0.02801
vt 0.88046 0.03031
vt 0.81103 0.02495
vt 0.88750 0.04569
vt 0.80038 0.03895
vt 0.88760 0.06265
vt 0.79615 0.05557
vt 0.88071 0.07855
vt 0.79902 0.07223
vt 0.86794 0.09091
vt 0.80854 0.08633
vt 0.85130 0.09789
vt 0.82319 0.09572
vt 0.83696 0.09908
vt 0.83851 0.01265
vt 0.80413 0.03285
vt 0.81559 0.01958
vt 0.83076 0.01174
vt 0.80561 0.08371
vt 0.79862 0.06740
vt 0.81837 0.09609
vt 0.79816 0.04959
vt 0.91098 0.99354
vt 0.75456 0.89679
vt 0.87573 0.99548
vt 0.75479 0.99548
vt 0.99667 0.99548
vt 0.88072 0.79493
vt 0.41397 0.06857
vt 0.94837 0.81544
vt 0.84327 0.51841
vt 0.83673 0.50018
vt 0.99764 0.55795
vt 0.96049 0.51073
vt 0.95607 0.52024
vt 0.94781 0.52982
vt 0.93089 0.54086
vt 0.85359 0.53210
vt 0.86688 0.54138
vt 0.94331 0.94737
vt 0.75600 0.98102
vt 0.36020 0.08545
vt 0.31449 0.42382
vt 0.26950 0.42912
vt 0.23109 0.42912
vt 0.68686 0.38318
vt 0.90791 0.24663
vt 0.94980 0.95300
vt 0.94542 0.81281
vt 0.42419 0.07500
vt 0.67536 0.07509
vt 0.64026 0.03204
vt 0.55135 0.00498
vt 0.45260 0.07567
vt 0.96255 0.49949
vt 0.99669 0.52587
vt 0.97527 0.44339
vt 0.99679 0.46684
vt 0.96175 0.48640
vt 0.97052 0.42640
vt 0.95752 0.47118
vt 0.96597 0.41139
vt 0.96153 0.39823
vt 0.95604 0.38139
vt 0.94831 0.35540
vt 0.93271 0.41890
vt 0.94329 0.34519
vt 0.93671 0.32408
vt 0.92158 0.40554
vt 0.93406 0.30297
vt 0.90790 0.39632
vt 0.93522 0.27819
vt 0.89085 0.39503
vt 0.93924 0.25940
vt 0.90141 0.23320
vt 0.94542 0.24400
vt 0.87023 0.40312
vt 0.85662 0.41402
vt 0.84923 0.36155
vt 0.84473 0.43041
vt 0.99867 0.17972
vt 0.96835 0.21389
vt 0.95449 0.22856
vt 0.81676 0.50077
vt 0.83706 0.45165
vt 0.83443 0.47658
vt 0.99413 0.20166
vt 0.99872 0.20118
vt 0.98504 0.20421
vt 0.97642 0.20833
vt 0.99685 0.99604
vt 0.99685 0.93922
vt 0.93539 0.99604
vt 0.99683 0.78098
vt 0.93538 0.78098
vt 0.96053 0.99654
vt 0.96053 0.93813
vt 0.76225 0.86709
vt 0.75970 0.84662
vt 0.73963 0.68602
vt 0.96119 0.34926
vt 0.98242 0.35689
vt 0.95323 0.34416
vt 0.96461 0.22890
vt 0.94032 0.33178
vt 0.94636 0.33837
vt 0.94678 0.24108
vt 0.93290 0.32015
vt 0.93553 0.25482
vt 0.93103 0.26323
vt 0.92607 0.29920
vt 0.92797 0.30812
vt 0.92797 0.27169
vt 0.92607 0.28060
vt 0.92541 0.28990
vt 0.98428 0.20352
vt 0.97256 0.20591
vt 0.96145 0.20975
vt 0.95105 0.21495
vt 0.93318 0.22865
vt 0.92148 0.24307
vt 0.91352 0.25746
vt 0.90833 0.27501
vt 0.90684 0.29816
vt 0.91025 0.31788
vt 0.91874 0.33760
vt 0.92521 0.34713
vt 0.93518 0.37141
vt 0.94225 0.38715
vt 0.94797 0.39944
vt 0.95385 0.41346
vt 0.95996 0.42934
vt 0.99872 0.45192
vt 0.97681 0.00607
vt 0.99686 0.10334
vt 0.97774 0.00709
vt 0.99740 0.10811
vt 0.97942 0.10253
vt 0.40720 0.78924
vt 0.40718 0.75383
vt 0.41437 0.79226
vt 0.41434 0.75076
vt 0.42208 0.79208
vt 0.42205 0.75088
vt 0.42914 0.78874
vt 0.42912 0.75416
vt 0.43536 0.78076
vt 0.43445 0.76009
vt 0.43730 0.76948
vt 0.39858 0.76745
vt 0.79083 0.07243
vt 0.79426 0.03506
vt 0.81304 0.10136
vt 0.85007 0.10160
vt 0.83013 0.00926
vt 0.82133 0.01116
vt 0.85334 0.10122
vt 0.79924 0.08927
vt 0.93105 0.11112
vt 0.92924 0.06339
vt 0.80558 0.02023
vt 0.90421 0.07180
vt 0.97541 0.00394
vt 0.91829 0.01636
vt 0.90153 0.09903
vt 0.96921 0.10502
vt 0.96427 0.09121
vt 0.89952 0.11057
vt 0.95331 0.10954
vt 0.95940 0.08516
vt 0.96574 0.05653
vt 0.89669 0.00360
vt 0.97136 0.02801
vt 0.86763 0.01889
vt 0.81103 0.02495
vt 0.82635 0.01573
vt 0.85192 0.01325
vt 0.83851 0.01265
vt 0.79615 0.05557
vt 0.79902 0.07223
vt 0.88760 0.06265
vt 0.80854 0.08633
vt 0.88071 0.07855
vt 0.82319 0.09572
vt 0.86794 0.09091
vt 0.83696 0.09908
vt 0.85130 0.09789
vt 0.91098 0.99354
vt 0.88072 0.79493
vt 0.99685 0.79493
vt 0.75479 0.99548
vt 0.75456 0.89679
vt 0.99667 0.99548
vt 0.41397 0.06857
vt 0.91096 0.97773
vt 0.94837 0.81544
vt 0.84327 0.51841
vt 0.83673 0.50018
vt 0.99764 0.55795
vt 0.96049 0.51073
vt 0.93089 0.54086
vt 0.95607 0.52024
vt 0.94781 0.52982
vt 0.85359 0.53210
vt 0.86688 0.54138
vt 0.96610 0.49867
vt 0.91185 0.41448
vt 0.94930 0.98870
vt 0.75600 0.98102
vt 0.83198 0.98837
vt 0.23109 0.42912
vt 0.26950 0.42912
vt 0.31449 0.42382
vt 0.85888 0.39095
vt 0.81949 0.98544
vt 0.78768 0.91165
vt 0.79595 0.91959
vt 0.79592 0.91942
f 32/1 24/2 34/3
f 46/4 47/5 247/6
f 159/7 2/8 5/9
f 246/10 247/11 8/12
f 52/13 53/14 51/15
f 54/16 55/17 53/14
f 56/18 57/19 55/20
f 58/21 59/22 57/19
f 60/23 61/24 59/22
f 63/25 62/26 61/27
f 63/25 64/28 62/26
f 64/28 66/29 65/30
f 65/30 68/31 67/32
f 67/32 70/33 69/34
f 69/35 72/36 71/37
f 71/37 74/38 73/39
f 73/39 76/40 75/41
f 75/41 78/42 77/43
f 77/44 80/45 79/46
f 56/47 54/48 74/49
f 82/50 81/51 79/46
f 82/50 51/15 81/51
f 94/52 121/53 93/54
f 55/55 86/56 85/57
f 65/58 94/59 64/60
f 51/61 84/62 83/63
f 61/64 91/65 90/66
f 79/67 104/68 77/69
f 57/70 87/71 86/72
f 75/73 102/74 73/75
f 61/64 92/76 91/65
f 71/77 100/78 69/79
f 79/67 106/80 105/81
f 57/70 88/82 87/71
f 67/83 96/84 65/58
f 53/85 85/57 84/62
f 62/86 93/87 92/76
f 79/67 107/88 106/80
f 59/89 89/90 88/82
f 77/69 103/91 75/92
f 73/75 101/93 71/94
f 81/95 83/63 107/88
f 59/89 90/66 89/90
f 69/79 98/96 67/83
f 128/97 149/98 127/99
f 83/100 109/101 108/102
f 104/103 135/104 103/105
f 95/106 122/107 94/52
f 83/100 110/108 109/101
f 105/109 136/110 104/111
f 96/112 123/113 95/106
f 84/114 111/115 110/108
f 105/109 138/116 137/117
f 97/118 124/119 96/112
f 84/114 112/120 111/115
f 106/121 139/122 138/116
f 98/123 125/124 97/118
f 85/125 113/126 112/127
f 107/128 108/102 139/122
f 99/129 126/130 98/123
f 85/125 114/131 113/126
f 100/132 127/133 99/129
f 86/134 115/135 114/131
f 87/136 116/137 115/135
f 101/138 129/139 100/140
f 88/141 117/142 116/137
f 89/143 118/144 117/142
f 102/145 131/146 101/138
f 90/147 119/148 118/144
f 91/149 120/150 119/151
f 103/105 133/152 102/145
f 92/153 121/53 120/150
f 155/154 156/155 153/156
f 114/157 143/158 142/159
f 129/160 150/161 128/97
f 130/162 150/161 129/160
f 116/163 144/164 143/158
f 131/165 151/166 130/162
f 132/167 151/166 131/165
f 118/168 145/169 144/164
f 133/170 152/171 132/167
f 134/172 152/171 133/170
f 120/173 146/174 145/169
f 135/175 153/176 134/172
f 122/177 146/174 121/178
f 108/179 140/180 156/181
f 136/182 153/176 135/175
f 123/183 147/184 122/177
f 137/185 154/186 136/182
f 124/187 147/184 123/183
f 110/188 141/189 140/180
f 125/190 148/191 124/187
f 138/192 156/181 155/193
f 126/194 148/191 125/190
f 112/195 142/159 141/189
f 127/99 149/98 126/194
f 157/196 245/197 167/198
f 12/199 9/200 161/201
f 10/202 166/203 163/204
f 157/196 158/205 165/206
f 250/207 169/208 161/209
f 161/210 158/211 167/212
f 196/213 197/214 158/215
f 180/216 179/217 177/218
f 215/219 192/220 214/221
f 216/222 193/223 192/220
f 217/224 194/225 193/223
f 218/226 195/227 194/225
f 219/228 196/229 195/227
f 221/230 196/229 220/231
f 223/232 197/233 222/234
f 224/235 198/236 223/232
f 225/237 199/238 224/235
f 226/239 200/240 225/237
f 227/241 201/242 226/239
f 227/241 203/243 202/244
f 228/245 204/246 203/243
f 230/247 205/248 229/249
f 231/250 205/251 230/247
f 232/252 206/253 231/250
f 233/254 207/255 232/252
f 233/254 209/256 208/257
f 235/258 209/256 234/259
f 236/260 210/261 235/258
f 237/262 211/263 236/260
f 238/264 212/265 237/262
f 239/266 212/265 238/264
f 240/267 213/268 239/266
f 240/267 214/221 213/268
f 191/269 216/222 215/219
f 170/270 217/224 216/222
f 171/271 218/226 217/224
f 172/272 219/228 218/226
f 173/273 220/231 219/228
f 174/274 220/231 173/273
f 174/274 222/234 221/230
f 175/275 222/234 174/274
f 176/276 223/232 175/275
f 177/218 224/235 176/276
f 178/277 225/237 177/218
f 178/277 228/245 227/241
f 179/217 229/249 228/245
f 181/278 229/249 180/216
f 182/279 230/247 181/278
f 183/280 231/250 182/279
f 184/281 232/252 183/280
f 184/281 234/259 233/254
f 186/282 234/259 185/283
f 187/284 235/258 186/282
f 188/285 236/260 187/284
f 189/286 237/262 188/285
f 190/287 239/266 189/286
f 190/287 241/288 240/267
f 191/269 215/219 241/288
f 3/289 242/290 159/291
f 3/289 7/292 243/293
f 2/294 244/295 5/296
f 2/297 242/290 245/298
f 164/299 244/300 7/301
f 6/302 4/303 168/304
f 1/305 246/10 168/306
f 4/307 249/308 248/309
f 1/310 248/311 247/312
f 6/313 9/314 10/315
f 162/316 250/317 9/314
f 6/318 10/319 249/320
f 160/321 246/322 250/207
f 413/323 284/324 282/325
f 255/326 252/327 409/328
f 496/329 419/330 258/331
f 274/332 265/333 275/334
f 303/335 302/336 301/337
f 305/338 304/339 303/335
f 307/340 306/341 305/342
f 309/343 308/344 307/340
f 311/345 310/346 309/343
f 312/347 313/348 311/349
f 314/350 313/348 312/347
f 315/351 318/352 316/353
f 317/354 320/355 318/352
f 319/356 322/357 320/355
f 321/358 324/359 322/360
f 323/361 326/362 324/359
f 325/363 328/364 326/362
f 327/365 330/366 328/364
f 332/367 302/368 328/369
f 331/370 332/371 329/372
f 301/337 332/371 331/370
f 371/373 344/374 343/375
f 305/376 336/377 307/378
f 344/379 315/380 314/381
f 301/382 334/383 303/384
f 354/385 329/386 327/387
f 352/388 325/389 323/390
f 311/391 342/392 312/393
f 350/394 321/395 319/396
f 307/397 338/398 309/399
f 346/400 317/401 315/380
f 303/384 335/402 305/376
f 312/393 343/403 314/381
f 329/386 357/404 331/405
f 353/406 327/387 325/407
f 351/408 323/390 321/409
f 331/405 333/410 301/382
f 309/399 340/411 311/391
f 348/412 319/396 317/401
f 399/413 378/414 377/415
f 385/416 354/417 353/418
f 372/419 345/420 344/374
f 333/421 360/422 334/423
f 386/424 355/425 354/426
f 373/427 346/428 345/420
f 355/425 388/429 356/430
f 374/431 347/432 346/428
f 334/423 362/433 335/434
f 356/430 389/435 357/436
f 375/437 348/438 347/432
f 357/436 358/439 333/421
f 376/440 349/441 348/438
f 335/442 364/443 336/444
f 377/445 350/446 349/441
f 336/444 365/447 337/448
f 337/448 366/449 338/450
f 379/451 351/452 350/453
f 338/450 367/454 339/455
f 339/455 368/456 340/457
f 381/458 352/459 351/452
f 340/457 369/460 341/461
f 341/462 370/463 342/464
f 383/465 353/418 352/459
f 342/464 371/373 343/375
f 391/466 390/467 401/468
f 364/469 393/470 365/471
f 400/472 379/473 378/414
f 365/471 393/470 366/474
f 400/472 380/475 379/473
f 366/474 394/476 367/477
f 401/478 381/479 380/475
f 367/477 394/476 368/480
f 401/478 382/481 381/479
f 368/480 395/482 369/483
f 402/484 383/485 382/481
f 369/483 395/482 370/486
f 402/484 384/487 383/485
f 370/486 396/488 371/489
f 403/490 385/491 384/487
f 396/488 372/492 371/489
f 358/493 390/494 359/495
f 403/490 386/496 385/491
f 397/497 373/498 372/492
f 359/495 390/494 360/499
f 404/500 387/501 386/496
f 397/497 374/502 373/498
f 360/499 391/503 361/504
f 387/501 405/505 388/506
f 398/507 375/508 374/502
f 361/504 391/503 362/509
f 388/506 406/510 389/511
f 398/507 376/512 375/508
f 362/509 392/513 363/514
f 389/511 406/510 358/493
f 399/413 377/415 376/512
f 363/514 392/513 364/469
f 495/515 407/516 417/517
f 411/518 262/519 492/520
f 260/521 416/522 257/523
f 407/516 408/524 417/517
f 419/525 500/526 411/527
f 408/528 411/529 417/530
f 408/531 447/532 446/533
f 465/534 442/535 466/536
f 466/536 443/537 467/538
f 467/538 444/539 468/540
f 468/540 445/541 469/542
f 469/542 446/543 470/544
f 446/543 471/545 470/544
f 471/545 447/546 472/547
f 447/546 473/548 472/547
f 448/549 474/550 473/548
f 449/551 475/552 474/550
f 450/553 476/554 475/552
f 451/555 477/556 476/554
f 477/556 453/557 478/558
f 478/558 454/559 479/560
f 455/561 480/562 479/560
f 455/563 481/564 480/562
f 456/565 482/566 481/564
f 457/567 483/568 482/566
f 483/568 459/569 484/570
f 459/569 485/571 484/570
f 460/572 486/573 485/571
f 461/574 487/575 486/573
f 462/576 488/577 487/575
f 462/576 489/578 488/577
f 463/579 490/580 489/578
f 490/580 464/581 491/582
f 491/582 464/581 465/534
f 441/583 466/536 420/584
f 420/584 467/538 421/585
f 421/585 468/540 422/586
f 422/586 469/542 423/587
f 470/544 424/588 423/587
f 472/547 425/589 424/588
f 473/548 426/590 425/589
f 474/550 427/591 426/590
f 475/552 428/592 427/591
f 428/592 478/558 429/593
f 429/593 479/560 430/594
f 479/560 431/595 430/594
f 480/562 432/596 431/595
f 481/564 433/597 432/596
f 482/566 434/598 433/597
f 434/598 484/570 435/599
f 484/570 436/600 435/599
f 485/571 437/601 436/600
f 486/573 438/602 437/601
f 487/575 439/603 438/602
f 489/578 440/604 439/603
f 440/604 491/582 441/583
f 492/605 253/606 409/607
f 253/606 257/608 414/609
f 494/610 252/611 255/612
f 252/613 492/605 409/607
f 414/614 494/615 255/616
f 256/617 418/618 254/619
f 496/329 251/620 418/621
f 254/622 499/623 256/624
f 251/625 498/626 254/627
f 256/628 259/629 412/630
f 412/630 500/631 410/632
f 410/633 496/634 418/635
f 163/204 166/203 32/1
f 166/203 7/301 165/636
f 13/637 166/203 165/636
f 7/301 244/300 165/636
f 248/309 249/308 34/3
f 249/308 163/204 34/3
f 166/203 13/637 32/1
f 24/2 15/638 34/3
f 163/204 32/1 34/3
f 32/639 13/640 42/641
f 13/640 202/642 42/641
f 202/642 203/643 42/641
f 203/643 204/644 42/641
f 40/645 41/646 205/248
f 41/646 42/641 204/644
f 39/647 40/645 205/248
f 37/648 38/649 206/650
f 206/650 38/649 205/248
f 38/649 39/647 205/248
f 204/246 205/248 41/646
f 36/651 37/648 206/650
f 35/652 36/651 207/653
f 36/651 206/650 207/653
f 33/654 35/652 208/655
f 35/652 207/653 208/655
f 50/656 33/654 209/657
f 33/654 208/655 209/657
f 49/658 50/656 247/6
f 50/656 209/657 247/6
f 48/659 49/658 247/6
f 209/657 210/660 247/6
f 247/6 210/660 8/661
f 210/660 211/662 8/661
f 211/662 212/663 8/661
f 213/664 214/665 11/666
f 247/6 248/667 46/4
f 213/664 11/666 8/661
f 248/667 34/668 43/669
f 212/663 213/664 8/661
f 248/667 43/669 44/670
f 248/667 44/670 45/671
f 47/5 48/659 247/6
f 248/667 45/671 46/4
f 9/672 12/673 10/674
f 12/673 243/675 7/676
f 10/674 12/673 7/676
f 5/9 164/677 159/7
f 164/677 3/678 159/7
f 8/12 11/679 169/680
f 11/679 158/681 169/680
f 169/680 246/10 8/12
f 23/682 22/683 24/684
f 22/683 21/685 27/686
f 24/684 22/683 26/687
f 21/685 20/688 27/686
f 20/688 19/689 27/686
f 19/689 18/690 28/691
f 18/690 17/692 29/693
f 17/692 16/694 30/695
f 29/693 17/692 30/695
f 16/694 14/696 31/697
f 31/697 30/695 16/694
f 29/693 28/691 18/690
f 28/691 27/686 19/689
f 27/686 26/687 22/683
f 26/687 25/698 24/684
f 25/698 15/699 24/684
f 32/700 42/701 22/683
f 42/701 41/702 22/683
f 23/682 24/684 32/700
f 41/702 40/703 21/685
f 21/685 40/703 20/688
f 39/704 38/705 19/689
f 40/703 39/704 20/688
f 20/688 39/704 19/689
f 22/683 23/682 32/700
f 38/705 18/690 19/689
f 37/706 36/707 17/692
f 36/707 35/708 16/694
f 37/706 17/692 18/690
f 38/705 37/706 18/690
f 21/685 22/683 41/702
f 35/708 33/709 14/696
f 16/694 35/708 14/696
f 33/709 50/710 14/696
f 50/710 49/711 14/696
f 49/711 48/712 31/697
f 48/712 47/713 31/697
f 47/713 46/714 30/695
f 46/714 45/715 29/693
f 29/693 45/715 28/691
f 45/715 44/716 28/691
f 44/716 43/717 27/686
f 43/717 34/668 15/699
f 44/716 27/686 28/691
f 47/713 30/695 31/697
f 17/692 36/707 16/694
f 31/697 14/696 49/711
f 29/693 30/695 46/714
f 26/687 27/686 43/717
f 25/698 26/687 43/717
f 15/699 25/698 43/717
f 52/13 54/16 53/14
f 54/16 56/718 55/17
f 56/18 58/21 57/19
f 58/21 60/23 59/22
f 60/23 63/719 61/24
f 63/25 66/29 64/28
f 65/30 66/29 68/31
f 67/32 68/31 70/33
f 69/34 70/33 72/720
f 71/37 72/36 74/38
f 73/39 74/38 76/40
f 75/41 76/40 78/42
f 77/43 78/42 80/721
f 80/45 82/50 79/46
f 54/48 52/722 76/723
f 76/723 52/722 78/724
f 52/722 82/725 78/724
f 80/726 78/724 82/725
f 76/723 74/49 54/48
f 74/49 72/727 56/47
f 56/47 72/727 58/728
f 72/727 70/729 58/728
f 70/729 68/730 60/731
f 60/731 68/730 63/732
f 68/730 66/733 63/732
f 60/731 58/728 70/729
f 82/50 52/13 51/15
f 77/69 104/68 103/91
f 94/52 122/107 121/53
f 55/55 57/734 86/56
f 65/58 95/735 94/59
f 73/75 102/74 101/93
f 51/61 53/85 84/62
f 69/79 100/78 99/736
f 79/67 105/81 104/68
f 65/58 96/84 95/735
f 61/64 62/86 92/76
f 57/70 59/89 88/82
f 67/83 97/737 96/84
f 75/73 103/738 102/74
f 53/85 55/55 85/57
f 62/86 64/60 93/87
f 71/94 101/93 100/739
f 79/67 81/95 107/88
f 67/83 98/96 97/737
f 64/60 94/59 93/87
f 81/95 51/61 83/63
f 59/89 61/64 90/66
f 69/79 99/736 98/96
f 128/97 150/161 149/98
f 104/103 136/740 135/104
f 95/106 123/113 122/107
f 83/100 84/114 110/108
f 105/109 137/117 136/110
f 96/112 124/119 123/113
f 105/109 106/121 138/116
f 97/118 125/124 124/119
f 84/114 85/741 112/120
f 106/121 107/128 139/122
f 98/123 126/130 125/124
f 107/128 83/100 108/102
f 99/129 127/133 126/130
f 85/125 86/134 114/131
f 100/132 128/742 127/133
f 86/134 87/136 115/135
f 100/140 129/139 128/743
f 87/136 88/141 116/137
f 101/138 130/744 129/139
f 88/141 89/143 117/142
f 101/138 131/146 130/744
f 89/143 90/147 118/144
f 102/145 132/745 131/146
f 90/147 91/746 119/148
f 102/145 133/152 132/745
f 91/149 92/153 120/150
f 103/105 134/747 133/152
f 92/153 93/54 121/53
f 103/105 135/104 134/747
f 156/155 140/748 152/749
f 140/748 141/750 151/751
f 141/750 142/752 150/753
f 142/752 143/754 149/755
f 143/754 144/756 148/757
f 144/756 145/758 147/759
f 145/758 146/760 147/759
f 147/759 148/757 144/756
f 148/757 149/755 143/754
f 149/755 150/753 142/752
f 150/753 151/751 141/750
f 151/751 152/749 140/748
f 152/749 153/156 156/155
f 153/156 154/761 155/154
f 114/157 115/762 143/158
f 115/762 116/163 143/158
f 130/162 151/166 150/161
f 116/163 117/763 144/164
f 117/763 118/168 144/164
f 132/167 152/171 151/166
f 118/168 119/764 145/169
f 119/764 120/173 145/169
f 134/172 153/176 152/171
f 120/173 121/178 146/174
f 122/177 147/184 146/174
f 108/179 109/765 140/180
f 136/182 154/186 153/176
f 109/765 110/188 140/180
f 137/185 155/193 154/186
f 124/187 148/191 147/184
f 110/188 111/766 141/189
f 137/185 138/192 155/193
f 111/766 112/195 141/189
f 138/192 139/767 156/181
f 126/194 149/98 148/191
f 112/195 113/768 142/159
f 139/767 108/179 156/181
f 113/768 114/157 142/159
f 157/196 244/769 245/197
f 161/201 167/770 242/771
f 167/770 245/772 242/771
f 242/771 243/773 12/199
f 250/774 161/201 9/200
f 242/771 12/199 161/201
f 10/202 163/204 249/308
f 10/202 7/301 166/203
f 157/775 165/636 244/300
f 157/196 167/198 158/205
f 250/207 246/322 169/208
f 161/210 169/776 158/211
f 158/215 11/666 193/777
f 11/666 214/665 192/778
f 13/640 165/779 201/780
f 165/779 158/215 197/214
f 201/780 202/642 13/640
f 200/781 201/780 165/779
f 11/666 192/778 193/777
f 199/782 200/781 165/779
f 198/783 199/782 165/779
f 158/215 193/777 194/784
f 197/214 198/783 165/779
f 158/215 194/784 195/785
f 158/215 195/785 196/213
f 178/277 177/218 179/217
f 177/218 176/276 180/216
f 176/276 175/275 182/279
f 175/275 174/274 183/280
f 174/274 173/273 185/283
f 185/283 173/273 186/282
f 173/273 172/272 187/284
f 187/284 172/272 188/285
f 172/272 171/271 188/285
f 171/271 170/270 189/286
f 189/286 170/270 190/287
f 191/269 190/287 170/270
f 189/286 188/285 171/271
f 187/284 186/282 173/273
f 185/283 184/281 174/274
f 184/281 183/280 174/274
f 183/280 182/279 175/275
f 182/279 181/278 176/276
f 181/278 180/216 176/276
f 215/219 216/222 192/220
f 216/222 217/224 193/223
f 217/224 218/226 194/225
f 218/226 219/228 195/227
f 219/228 220/231 196/229
f 221/230 197/233 196/229
f 221/230 222/234 197/233
f 223/232 198/236 197/233
f 224/235 199/238 198/236
f 225/237 200/240 199/238
f 226/239 201/242 200/240
f 227/241 202/244 201/242
f 227/241 228/245 203/243
f 228/245 229/249 204/246
f 229/249 205/248 204/246
f 231/250 206/253 205/251
f 232/252 207/255 206/253
f 233/254 208/257 207/255
f 233/254 234/259 209/256
f 235/258 210/261 209/256
f 236/260 211/263 210/261
f 237/262 212/265 211/263
f 239/266 213/268 212/265
f 240/267 241/288 214/221
f 241/288 215/219 214/221
f 191/269 170/270 216/222
f 170/270 171/271 217/224
f 171/271 172/272 218/226
f 172/272 173/273 219/228
f 174/274 221/230 220/231
f 175/275 223/232 222/234
f 176/276 224/235 223/232
f 177/218 225/237 224/235
f 178/277 226/239 225/237
f 178/277 227/241 226/239
f 178/277 179/217 228/245
f 179/217 180/216 229/249
f 181/278 230/247 229/249
f 182/279 231/250 230/247
f 183/280 232/252 231/250
f 184/281 233/254 232/252
f 184/281 185/283 234/259
f 186/282 235/258 234/259
f 187/284 236/260 235/258
f 188/285 237/262 236/260
f 189/286 238/264 237/262
f 189/286 239/266 238/264
f 190/287 240/267 239/266
f 190/287 191/269 241/288
f 3/289 243/293 242/290
f 3/289 164/786 7/292
f 2/294 245/787 244/295
f 2/297 159/291 242/290
f 164/299 5/788 244/300
f 4/303 1/789 168/304
f 168/304 160/790 162/791
f 162/791 6/302 168/304
f 1/305 247/11 246/10
f 4/307 6/792 249/308
f 1/310 4/793 248/311
f 6/313 162/316 9/314
f 162/316 160/794 250/317
f 160/321 168/795 246/322
f 257/523 416/522 415/796
f 416/522 413/323 282/325
f 257/523 415/796 494/615
f 413/323 499/623 284/324
f 499/623 498/797 284/324
f 284/324 265/798 274/799
f 263/800 416/522 282/325
f 263/800 415/796 416/522
f 284/324 274/799 282/325
f 452/801 263/802 292/803
f 263/802 282/804 292/803
f 453/805 452/801 292/803
f 292/803 291/806 454/807
f 291/806 290/808 455/561
f 454/807 453/805 292/803
f 291/806 455/561 454/807
f 290/808 289/809 455/561
f 288/810 287/811 456/812
f 288/810 455/561 289/809
f 455/561 288/810 456/812
f 287/811 286/813 456/812
f 286/813 285/814 457/815
f 456/812 286/813 457/815
f 285/814 283/816 458/817
f 457/815 285/814 458/817
f 283/816 300/818 459/819
f 458/817 283/816 459/819
f 300/818 299/820 497/821
f 300/818 497/821 459/819
f 299/820 298/822 497/821
f 460/823 459/819 497/821
f 461/824 460/823 258/825
f 460/823 497/821 258/825
f 462/826 461/824 258/825
f 498/827 497/821 296/828
f 296/828 497/821 297/829
f 258/825 261/830 463/831
f 261/830 464/832 463/831
f 293/833 284/834 498/827
f 294/835 293/833 498/827
f 258/825 463/831 462/826
f 295/836 294/835 498/827
f 296/828 295/836 498/827
f 298/822 297/829 497/821
f 493/837 262/838 257/839
f 262/838 259/840 257/839
f 260/841 257/839 259/840
f 253/842 414/843 409/328
f 414/843 255/326 409/328
f 408/844 261/845 419/330
f 261/845 258/331 419/330
f 258/331 497/846 496/329
f 272/847 273/848 274/332
f 271/849 272/847 276/850
f 269/851 270/852 277/853
f 270/852 271/849 277/853
f 268/854 269/851 278/855
f 279/856 268/854 278/855
f 266/857 267/858 280/859
f 267/858 268/854 279/856
f 281/860 264/861 266/857
f 279/856 280/859 267/858
f 280/859 281/860 266/857
f 277/853 278/855 269/851
f 276/850 277/853 271/849
f 274/332 276/850 272/847
f 275/334 276/850 274/332
f 293/862 294/863 277/853
f 294/863 295/864 278/855
f 277/853 294/863 278/855
f 295/864 296/865 279/856
f 296/865 297/866 280/859
f 295/864 279/856 278/855
f 297/866 298/867 281/860
f 280/859 297/866 281/860
f 298/867 299/868 281/860
f 299/868 300/869 264/861
f 300/869 283/870 264/861
f 283/870 285/871 264/861
f 264/861 285/871 266/857
f 285/871 286/872 266/857
f 286/872 287/873 267/858
f 288/874 289/875 269/851
f 289/875 290/876 270/852
f 267/858 287/873 268/854
f 287/873 288/874 268/854
f 265/333 284/834 293/862
f 266/857 286/872 267/858
f 290/876 291/877 271/849
f 291/877 292/878 272/847
f 292/878 282/879 272/847
f 282/879 274/332 273/848
f 282/879 273/848 272/847
f 272/847 271/849 291/877
f 271/849 270/852 290/876
f 270/852 269/851 289/875
f 269/851 268/854 288/874
f 299/868 264/861 281/860
f 280/859 279/856 296/865
f 277/853 276/850 293/862
f 293/862 276/850 275/334
f 293/862 275/334 265/333
f 303/335 304/339 302/336
f 305/338 306/880 304/339
f 307/340 308/344 306/341
f 309/343 310/346 308/344
f 311/345 313/881 310/346
f 314/350 316/353 313/348
f 314/350 315/351 316/353
f 315/351 317/354 318/352
f 317/354 319/356 320/355
f 319/882 321/358 322/360
f 321/358 323/361 324/359
f 323/361 325/363 326/362
f 325/363 327/365 328/364
f 327/883 329/372 330/884
f 329/372 332/371 330/884
f 302/368 304/885 326/886
f 304/885 306/887 324/888
f 304/885 324/888 326/886
f 306/887 308/889 322/890
f 308/889 310/891 320/892
f 308/889 320/892 322/890
f 310/891 313/893 318/894
f 316/895 318/894 313/893
f 318/894 320/892 310/891
f 322/890 324/888 306/887
f 326/886 328/369 302/368
f 328/369 330/896 332/367
f 301/337 302/336 332/371
f 353/406 354/385 327/387
f 371/373 372/419 344/374
f 305/376 335/402 336/377
f 344/379 345/897 315/380
f 351/408 352/388 323/390
f 301/382 333/410 334/383
f 311/391 340/411 341/898
f 349/899 350/394 319/396
f 354/385 355/900 329/386
f 307/397 336/901 337/902
f 345/897 346/400 315/380
f 311/391 341/898 342/392
f 329/386 355/900 356/903
f 307/397 337/902 338/398
f 346/400 347/904 317/401
f 352/388 353/905 325/389
f 303/384 334/383 335/402
f 312/393 342/392 343/403
f 350/906 351/408 321/409
f 329/386 356/903 357/404
f 309/399 338/398 339/907
f 347/904 348/412 317/401
f 343/403 344/379 314/381
f 331/405 357/404 333/410
f 309/399 339/907 340/411
f 348/412 349/899 319/396
f 399/413 400/472 378/414
f 333/421 358/439 359/908
f 385/416 386/909 354/417
f 372/419 373/427 345/420
f 333/421 359/908 360/422
f 386/424 387/910 355/425
f 373/427 374/431 346/428
f 334/423 360/422 361/911
f 355/425 387/910 388/429
f 374/431 375/437 347/432
f 334/423 361/911 362/433
f 356/430 388/429 389/435
f 375/437 376/440 348/438
f 335/442 362/912 363/913
f 357/436 389/435 358/439
f 376/440 377/445 349/441
f 335/442 363/913 364/443
f 377/445 378/914 350/446
f 336/444 364/443 365/447
f 378/915 379/451 350/453
f 337/448 365/447 366/449
f 379/451 380/916 351/452
f 338/450 366/449 367/454
f 380/916 381/458 351/452
f 339/455 367/454 368/456
f 381/458 382/917 352/459
f 340/457 368/456 369/460
f 382/917 383/465 352/459
f 341/462 369/918 370/463
f 383/465 384/919 353/418
f 342/464 370/463 371/373
f 384/919 385/416 353/418
f 390/467 406/920 402/921
f 402/921 406/920 403/922
f 406/920 405/923 403/922
f 403/922 405/923 404/924
f 402/921 401/468 390/467
f 401/468 400/925 391/466
f 400/925 399/926 392/927
f 399/926 398/928 393/929
f 398/928 397/930 394/931
f 397/930 396/932 395/933
f 395/933 394/931 397/930
f 394/931 393/929 398/928
f 393/929 392/927 399/926
f 392/927 391/466 400/925
f 364/469 392/513 393/470
f 400/472 401/478 380/475
f 366/474 393/470 394/476
f 401/478 402/484 382/481
f 368/480 394/476 395/482
f 402/484 403/490 384/487
f 370/486 395/482 396/488
f 396/488 397/497 372/492
f 358/493 406/510 390/494
f 403/490 404/500 386/496
f 404/500 405/505 387/501
f 397/497 398/507 374/502
f 360/499 390/494 391/503
f 388/506 405/505 406/510
f 398/507 399/413 376/512
f 362/509 391/503 392/513
f 495/515 494/934 407/516
f 411/518 500/935 259/936
f 259/936 262/519 411/518
f 495/937 417/938 492/520
f 417/938 411/518 492/520
f 262/519 493/939 492/520
f 499/623 413/323 260/521
f 260/521 413/323 416/522
f 494/615 415/796 407/940
f 407/516 415/941 408/524
f 419/525 496/634 500/526
f 408/528 419/942 411/529
f 261/830 408/531 443/943
f 464/832 261/830 442/944
f 408/531 415/945 447/532
f 415/945 263/802 451/946
f 447/532 415/945 448/947
f 263/802 452/801 451/946
f 451/946 450/948 415/945
f 442/944 261/830 443/943
f 450/948 449/949 415/945
f 449/949 448/947 415/945
f 444/950 443/943 408/531
f 445/951 444/950 408/531
f 446/533 445/951 408/531
f 427/591 428/592 429/593
f 429/593 430/594 427/591
f 430/594 431/595 426/590
f 430/594 426/590 427/591
f 431/595 432/596 426/590
f 426/590 432/596 425/589
f 432/596 433/597 425/589
f 433/597 434/598 424/588
f 434/598 435/599 424/588
f 435/599 436/600 423/587
f 436/600 437/601 423/587
f 437/601 438/602 422/586
f 437/601 422/586 423/587
f 438/602 439/603 421/585
f 439/603 440/604 420/584
f 440/604 441/583 420/584
f 420/584 421/585 439/603
f 421/585 422/586 438/602
f 423/587 424/588 435/599
f 424/588 425/589 433/597
f 465/534 464/581 442/535
f 466/536 442/535 443/537
f 467/538 443/537 444/539
f 468/540 444/539 445/541
f 469/542 445/541 446/543
f 446/543 447/546 471/545
f 447/546 448/549 473/548
f 448/549 449/551 474/550
f 449/551 450/553 475/552
f 450/553 451/555 476/554
f 451/555 452/952 477/556
f 477/556 452/952 453/557
f 478/558 453/557 454/559
f 454/559 455/561 479/560
f 455/563 456/565 481/564
f 456/565 457/567 482/566
f 457/567 458/953 483/568
f 483/568 458/953 459/569
f 459/569 460/572 485/571
f 460/572 461/574 486/573
f 461/574 462/576 487/575
f 462/576 463/579 489/578
f 490/580 463/579 464/581
f 441/583 465/534 466/536
f 420/584 466/536 467/538
f 421/585 467/538 468/540
f 422/586 468/540 469/542
f 423/587 469/542 470/544
f 470/544 471/545 424/588
f 424/588 471/545 472/547
f 472/547 473/548 425/589
f 473/548 474/550 426/590
f 474/550 475/552 427/591
f 475/552 476/554 428/592
f 476/554 477/556 428/592
f 428/592 477/556 478/558
f 429/593 478/558 479/560
f 479/560 480/562 431/595
f 480/562 481/564 432/596
f 481/564 482/566 433/597
f 482/566 483/568 434/598
f 434/598 483/568 484/570
f 484/570 485/571 436/600
f 485/571 486/573 437/601
f 486/573 487/575 438/602
f 487/575 488/577 439/603
f 488/577 489/578 439/603
f 489/578 490/580 440/604
f 440/604 490/580 491/582
f 441/583 491/582 465/534
f 492/605 493/954 253/606
f 253/606 493/954 257/608
f 494/610 495/955 252/611
f 252/613 495/956 492/605
f 414/614 257/523 494/615
f 256/617 412/957 418/618
f 412/957 410/958 418/618
f 418/618 251/959 254/619
f 496/329 497/846 251/620
f 254/622 498/797 499/623
f 251/625 497/960 498/626
f 256/628 260/961 259/629
f 412/630 259/629 500/631
f 256/962 499/963 260/964
f 410/633 500/526 496/634
o chest
v -0.98827 2.84264 0.72088
v -1.01204 6.01164 0.75271
v -0.98827 2.84264 -0.88230
v -1.00974 6.03323 -0.91413
v 0.00587 2.84264 0.72088
v 0.00484 5.94299 0.67079
v 0.00587 2.84264 -0.88230
v 0.00484 5.94299 -0.83221
v 0.00441 4.12854 0.89281
v -0.95721 3.74654 0.67079
v -1.05693 3.84791 -0.98537
v -0.00064 4.12854 -0.98537
v -0.51754 6.01568 -0.91413
v 0.00141 5.52873 -0.91413
v -0.47619 5.94299 0.67079
v -0.38237 5.57955 0.79941
v -0.34345 5.52839 -0.91413
v 0.00484 5.65520 0.67079
v 0.00484 3.98858 0.67079
v 0.00484 5.54732 -0.83221
v 0.00484 3.98858 -0.83221
v -0.95721 3.74654 -0.83221
v -1.05693 3.84791 0.82395
v -0.55416 5.98055 0.75271
v -0.33482 5.65520 0.67079
v -0.47619 5.94299 -0.83221
v -0.33482 5.54732 -0.83221
v -1.19093 4.93574 0.75271
v -1.19093 4.93574 -0.91413
v 0.00587 3.11257 0.72088
v -0.95721 3.15219 -0.83221
v -0.98827 3.11257 0.72088
v 0.00587 3.11257 -0.88230
v -0.95721 2.80302 -0.83221
v -0.95721 2.80302 0.67079
v 0.00484 2.80302 -0.83221
v 0.00484 3.15219 -0.83221
v 0.00484 3.15219 0.67079
v 0.00484 2.80302 0.67079
v -0.95721 3.15219 0.67079
v -0.98827 3.11257 -0.88230
v -0.53400 5.52847 -0.91413
v -0.53416 4.25414 -0.96962
v -0.52153 5.53408 -1.02752
v -0.53539 4.25312 -1.08313
v -0.53432 6.07255 -0.88950
v -0.53513 6.07816 -0.94856
v 0.00305 3.69690 -1.00289
v -0.53122 3.69763 -0.99292
v 0.00264 3.69594 -1.06708
v -0.53245 3.69661 -1.05711
v -0.53416 5.80051 -0.90181
v -0.53497 5.80612 -0.98804
v -0.53424 5.93653 -0.89565
v -0.53505 5.94214 -0.96830
v -0.92775 5.80959 -1.02542
v -0.93275 5.80692 -0.91203
v -0.67217 5.90279 -0.98594
v -0.67717 5.90011 -0.89971
v -0.54438 5.94939 -0.96620
v -0.54938 5.94671 -0.89356
v -0.66978 5.14062 -1.03799
v -0.68224 5.13501 -0.92460
v -0.83932 5.13445 -1.03938
v -0.84431 5.13177 -0.92599
v -0.51802 4.87206 -1.03461
v -0.53048 4.86645 -0.92123
v -0.68756 4.94150 -1.04905
v -0.69256 4.93882 -0.93566
v -0.56548 4.65317 -0.95369
v -0.80284 4.65317 -0.95796
v -0.80284 4.11949 -0.97530
v -0.56544 4.11949 -0.97747
v 0.98827 2.84264 0.72088
v 1.01204 6.01164 0.75271
v 0.98827 2.84264 -0.88230
v 1.00974 6.03323 -0.91413
v -0.00587 2.84264 0.72088
v -0.00484 5.94299 0.67079
v -0.00587 2.84264 -0.88230
v -0.00484 5.94299 -0.83221
v -0.00441 4.12854 0.89281
v 0.95721 3.74654 0.67079
v 1.05693 3.84791 -0.98537
v 0.00064 4.12854 -0.98537
v 0.00000 5.57991 0.82157
v 0.51754 6.01568 -0.91413
v -0.00141 5.52873 -0.91413
v 0.47619 5.94299 0.67079
v 0.38237 5.57955 0.79941
v 0.34345 5.52839 -0.91413
v -0.00484 5.65520 0.67079
v -0.00484 3.98858 0.67079
v -0.00484 5.54732 -0.83221
v -0.00484 3.98858 -0.83221
v 0.95721 3.74654 -0.83221
v 1.05693 3.84791 0.82395
v 0.55416 5.98055 0.75271
v 0.33482 5.65520 0.67079
v 0.47619 5.94299 -0.83221
v 0.33482 5.54732 -0.83221
v 1.19093 4.93574 0.75271
v 1.19093 4.93574 -0.91413
v -0.00587 3.11257 0.72088
v 0.95721 3.15219 -0.83221
v 0.98827 3.11257 0.72088
v -0.00587 3.11257 -0.88230
v 0.95721 2.80302 -0.83221
v 0.95721 2.80302 0.67079
v -0.00484 2.80302 -0.83221
v -0.00484 3.15219 -0.83221
v -0.00484 3.15219 0.67079
v -0.00484 2.80302 0.67079
v 0.95721 3.15219 0.67079
v 0.98827 3.11257 -0.88230
v 0.53400 5.52847 -0.91413
v 0.00000 4.25341 -0.97958
v 0.53416 4.25414 -0.96962
v 0.52153 5.53408 -1.02752
v 0.00000 5.53434 -1.02752
v 0.00000 4.25245 -1.09311
v 0.53539 4.25312 -1.08313
v 0.53432 6.07255 -0.88950
v 0.00000 6.08284 -0.88949
v 0.53513 6.07816 -0.94856
v 0.00000 6.08845 -0.94856
v -0.00305 3.69690 -1.00289
v 0.53122 3.69763 -0.99292
v -0.00264 3.69594 -1.06708
v 0.53245 3.69661 -1.05711
v 0.53416 5.80051 -0.90181
v 0.53497 5.80612 -0.98804
v 0.53424 5.93653 -0.89565
v 0.53505 5.94214 -0.96830
v 0.92775 5.80959 -1.02542
v 0.93275 5.80692 -0.91203
v 0.67217 5.90279 -0.98594
v 0.67717 5.90011 -0.89971
v 0.54438 5.94939 -0.96620
v 0.54938 5.94671 -0.89356
v 0.66978 5.14062 -1.03799
v 0.68224 5.13501 -0.92460
v 0.83932 5.13445 -1.03938
v 0.84431 5.13177 -0.92599
v 0.51802 4.87206 -1.03461
v 0.53048 4.86645 -0.92123
v 0.68756 4.94150 -1.04905
v 0.69256 4.93882 -0.93566
v 0.56548 4.65317 -0.95369
v 0.80284 4.65317 -0.95796
v 0.80284 4.11949 -0.97530
v 0.56544 4.11949 -0.97747
vt 0.54407 0.44553
vt 0.78294 0.36150
vt 0.54407 0.36150
vt 0.78409 0.44854
vt 0.65409 0.35622
vt 0.78404 0.35622
vt 0.04163 0.06793
vt 0.01847 0.40907
vt 0.00387 0.06955
vt 0.40697 0.44647
vt 0.57908 0.35974
vt 0.40693 0.35974
vt 0.24077 0.44280
vt 0.29614 0.32958
vt 0.29614 0.44275
vt 0.59502 0.51733
vt 0.61001 0.45607
vt 0.61001 0.51736
vt 0.20177 0.56078
vt 0.19690 0.58124
vt 0.10819 0.56481
vt 0.14666 0.40356
vt 0.30061 0.05679
vt 0.32687 0.39581
vt 0.27653 0.73392
vt 0.00537 0.63108
vt 0.09263 0.81606
vt 0.20586 0.63855
vt 0.36046 0.75443
vt 0.20577 0.75676
vt 0.34340 0.05495
vt 0.35799 0.39447
vt 0.59149 0.50000
vt 0.61372 0.45802
vt 0.61372 0.51750
vt 0.24749 0.98564
vt 0.13772 0.76153
vt 0.16453 0.99528
vt 0.51327 0.86417
vt 0.47067 0.80545
vt 0.51327 0.80535
vt 0.16395 0.45305
vt 0.32020 0.43021
vt 0.15927 0.02951
vt 0.13206 0.06404
vt 0.34651 0.57773
vt 0.22568 0.60393
vt 0.21232 0.57810
vt 0.00266 0.64521
vt 0.16660 0.60944
vt 0.00218 0.60518
vt 0.18035 0.62307
vt 0.34977 0.58379
vt 0.36783 0.60228
vt 0.09597 0.83000
vt 0.05572 0.84654
vt 0.05264 0.82793
vt 0.12102 0.91167
vt 0.11920 0.97927
vt 0.09923 0.97583
vt 0.10904 0.98134
vt 0.11701 0.84453
vt 0.10452 0.83808
vt 0.00387 0.88393
vt 0.02241 0.83915
vt 0.02241 0.88195
vt 0.53946 0.89827
vt 0.53946 0.86535
vt 0.52101 0.80535
vt 0.36711 0.52043
vt 0.19919 0.52043
vt 0.05622 0.40745
vt 0.00265 0.49743
vt 0.19717 0.59330
vt 0.19717 0.49769
vt 0.21044 0.58541
vt 0.33566 0.52110
vt 0.33566 0.58541
vt 0.00586 0.50066
vt 0.20333 0.59155
vt 0.00586 0.62779
vt 0.83616 0.71232
vt 0.92793 0.71797
vt 0.83911 0.71797
vt 0.60992 0.79885
vt 0.77607 0.78734
vt 0.78172 0.79871
vt 0.03685 0.05680
vt 0.00767 0.05805
vt 0.05242 0.41894
vt 0.81600 0.68502
vt 0.98215 0.69616
vt 0.81589 0.69629
vt 0.98484 0.68485
vt 0.81814 0.69595
vt 0.81307 0.68449
vt 0.83668 0.72045
vt 0.93254 0.71538
vt 0.93559 0.72045
vt 0.98511 0.70842
vt 0.81841 0.69688
vt 0.98463 0.69722
vt 0.00380 0.32222
vt 0.12132 0.09962
vt 0.00342 0.09985
vt 0.14027 0.05028
vt 0.15504 0.06293
vt 0.14013 0.06671
vt 0.06831 0.31028
vt 0.08243 0.27838
vt 0.08235 0.31160
vt 0.06836 0.38674
vt 0.29731 0.01273
vt 0.29780 0.03837
vt 0.16597 0.14010
vt 0.17934 0.04791
vt 0.17934 0.14025
vt 0.35799 0.02798
vt 0.35796 0.04136
vt 0.29700 0.82275
vt 0.28255 0.82578
vt 0.29357 0.72885
vt 0.12401 0.02740
vt 0.12391 0.00333
vt 0.00293 0.00185
vt 0.16351 0.13756
vt 0.17802 0.04535
vt 0.17802 0.13786
vt 0.12388 0.41596
vt 0.12475 0.32145
vt 0.42613 0.80591
vt 0.36573 0.89781
vt 0.36573 0.80535
vt 0.15806 0.00387
vt 0.09887 0.02684
vt 0.09814 0.01234
vt 0.25364 0.83184
vt 0.29818 0.84780
vt 0.29728 0.89326
vt 0.18501 0.10717
vt 0.16856 0.12887
vt 0.16549 0.10694
vt 0.12412 0.05147
vt 0.21320 0.05206
vt 0.15514 0.03474
vt 0.77586 0.87510
vt 0.76000 0.87237
vt 0.77645 0.87244
vt 0.29864 0.82507
vt 0.18734 0.06210
vt 0.16171 0.13464
vt 0.16170 0.06124
vt 0.12611 0.02608
vt 0.15490 0.16744
vt 0.15898 0.20200
vt 0.19325 0.16846
vt 0.67589 0.80663
vt 0.64867 0.84925
vt 0.65026 0.80659
vt 0.22256 0.89326
vt 0.21716 0.86571
vt 0.01460 0.01031
vt 0.03766 0.04041
vt 0.01200 0.04019
vt 0.67589 0.87830
vt 0.65026 0.87826
vt 0.19667 0.87187
vt 0.18338 0.84589
vt 0.01464 0.06776
vt 0.04029 0.06797
vt 0.12255 0.10231
vt 0.15459 0.16594
vt 0.12255 0.20981
vt 0.26094 0.09445
vt 0.21587 0.00442
vt 0.26333 0.00486
vt 0.19798 0.84578
vt 0.16815 0.77389
vt 0.19971 0.77294
vt 0.78294 0.36150
vt 0.54407 0.44553
vt 0.54407 0.36150
vt 0.65409 0.35622
vt 0.78409 0.44854
vt 0.78404 0.35622
vt 0.01847 0.40907
vt 0.04163 0.06793
vt 0.00387 0.06955
vt 0.57908 0.35974
vt 0.40697 0.44647
vt 0.40693 0.35974
vt 0.29614 0.32958
vt 0.24077 0.44280
vt 0.29614 0.44275
vt 0.61001 0.45607
vt 0.59502 0.51733
vt 0.61001 0.51736
vt 0.20177 0.56078
vt 0.24111 0.55962
vt 0.28260 0.51752
vt 0.14666 0.40356
vt 0.30061 0.05679
vt 0.13206 0.06404
vt 0.27653 0.73392
vt 0.09263 0.81606
vt 0.00537 0.63108
vt 0.20586 0.63855
vt 0.36046 0.75443
vt 0.36055 0.63855
vt 0.32687 0.39581
vt 0.34340 0.05495
vt 0.61372 0.45802
vt 0.59149 0.50000
vt 0.61372 0.51750
vt 0.24749 0.98564
vt 0.13772 0.76153
vt 0.22677 0.75115
vt 0.47067 0.80545
vt 0.51327 0.86417
vt 0.51327 0.80535
vt 0.16395 0.45305
vt 0.29780 0.03837
vt 0.22568 0.60393
vt 0.34651 0.57773
vt 0.21232 0.57810
vt 0.00266 0.64521
vt 0.16660 0.60944
vt 0.18354 0.63746
vt 0.34977 0.58379
vt 0.18035 0.62307
vt 0.36783 0.60228
vt 0.05572 0.84654
vt 0.09597 0.83000
vt 0.05264 0.82793
vt 0.11920 0.97927
vt 0.09923 0.97583
vt 0.11701 0.84453
vt 0.10904 0.98134
vt 0.10452 0.83808
vt 0.00387 0.88393
vt 0.02241 0.83915
vt 0.00387 0.83122
vt 0.52101 0.80535
vt 0.53946 0.86535
vt 0.53946 0.89827
vt 0.36711 0.52043
vt 0.19919 0.52043
vt 0.05622 0.40745
vt 0.19717 0.59330
vt 0.00265 0.49743
vt 0.19717 0.49769
vt 0.33566 0.52110
vt 0.21044 0.58541
vt 0.33566 0.58541
vt 0.00586 0.50066
vt 0.20333 0.59155
vt 0.20333 0.50121
vt 0.83911 0.71797
vt 0.93090 0.71232
vt 0.83616 0.71232
vt 0.77607 0.78734
vt 0.60992 0.79885
vt 0.78172 0.79871
vt 0.03685 0.05680
vt 0.00767 0.05805
vt 0.05242 0.41894
vt 0.02324 0.42020
vt 0.81600 0.68502
vt 0.98215 0.69616
vt 0.98781 0.68488
vt 0.81814 0.69595
vt 0.98484 0.68485
vt 0.81307 0.68449
vt 0.93254 0.71538
vt 0.83668 0.72045
vt 0.93559 0.72045
vt 0.98511 0.70842
vt 0.81841 0.69688
vt 0.81334 0.70806
vt 0.12132 0.09962
vt 0.12475 0.32145
vt 0.15504 0.06293
vt 0.14027 0.05028
vt 0.14013 0.06671
vt 0.08243 0.27838
vt 0.06831 0.31028
vt 0.08235 0.31160
vt 0.06836 0.38674
vt 0.08243 0.38769
vt 0.16597 0.14010
vt 0.16597 0.04778
vt 0.28255 0.82578
vt 0.29700 0.82275
vt 0.12401 0.02740
vt 0.12412 0.05147
vt 0.16351 0.13756
vt 0.17802 0.04535
vt 0.16351 0.04519
vt 0.12388 0.41596
vt 0.36573 0.89781
vt 0.42613 0.89837
vt 0.09887 0.02684
vt 0.25364 0.83184
vt 0.29818 0.84780
vt 0.18501 0.10717
vt 0.18501 0.06365
vt 0.16549 0.10694
vt 0.21320 0.05206
vt 0.77586 0.87510
vt 0.76000 0.87237
vt 0.75946 0.87401
vt 0.29864 0.82507
vt 0.16171 0.13464
vt 0.18734 0.06210
vt 0.16170 0.06124
vt 0.15514 0.03474
vt 0.15898 0.20200
vt 0.15490 0.16744
vt 0.19325 0.16846
vt 0.64867 0.84925
vt 0.67589 0.80663
vt 0.65026 0.80659
vt 0.22256 0.89326
vt 0.29728 0.89326
vt 0.01460 0.01031
vt 0.03766 0.04041
vt 0.04029 0.01180
vt 0.67589 0.87830
vt 0.67430 0.84928
vt 0.21716 0.86571
vt 0.19667 0.87187
vt 0.01464 0.06776
vt 0.04029 0.06797
vt 0.12255 0.10231
vt 0.12255 0.20981
vt 0.15459 0.16594
vt 0.26094 0.09445
vt 0.21587 0.00442
vt 0.21351 0.09419
vt 0.24227 0.63976
vt 0.20297 0.64107
vt 0.19971 0.77294
vt 0.78294 0.44553
vt 0.65414 0.44854
vt 0.57911 0.44647
vt 0.24077 0.32962
vt 0.59502 0.45604
vt 0.10835 0.58360
vt 0.28260 0.51752
vt 0.30732 0.68107
vt 0.24111 0.55962
vt 0.24227 0.63976
vt 0.20297 0.64107
vt 0.24593 0.59495
vt 0.00537 0.81665
vt 0.13153 0.86768
vt 0.23555 0.87198
vt 0.36055 0.63855
vt 0.59149 0.45799
vt 0.22677 0.75115
vt 0.47067 0.88875
vt 0.14571 0.02878
vt 0.34797 0.60360
vt 0.18354 0.63746
vt 0.19403 0.60106
vt 0.08681 0.84801
vt 0.15033 0.92952
vt 0.12945 0.97321
vt 0.00387 0.83122
vt 0.53946 0.80576
vt 0.52101 0.86404
vt 0.00265 0.63197
vt 0.21044 0.52110
vt 0.20333 0.50121
vt 0.93090 0.71232
vt 0.60981 0.78748
vt 0.02324 0.42020
vt 0.98781 0.68488
vt 0.98436 0.69629
vt 0.83981 0.71538
vt 0.81334 0.70806
vt 0.15504 0.04956
vt 0.07449 0.27761
vt 0.08243 0.38769
vt 0.23467 0.74109
vt 0.31146 0.81971
vt 0.16351 0.04519
vt 0.00293 0.41673
vt 0.42613 0.89837
vt 0.15936 0.06308
vt 0.18501 0.06365
vt 0.18501 0.12893
vt 0.75946 0.87401
vt 0.18734 0.13550
vt 0.12054 0.21347
vt 0.67430 0.84928
vt 0.04029 0.01180
vt 0.21351 0.09419
vt 0.27954 0.84590
vt 0.78294 0.44553
vt 0.65414 0.44854
vt 0.57911 0.44647
vt 0.24077 0.32962
vt 0.59502 0.45604
vt 0.10819 0.56481
vt 0.19690 0.58124
vt 0.30732 0.68107
vt 0.24593 0.59495
vt 0.23555 0.87198
vt 0.13153 0.86768
vt 0.20577 0.75676
vt 0.35799 0.39447
vt 0.59149 0.45799
vt 0.16453 0.99528
vt 0.47067 0.88875
vt 0.14571 0.02878
vt 0.34797 0.60360
vt 0.00218 0.60518
vt 0.19403 0.60106
vt 0.08681 0.84801
vt 0.15033 0.92952
vt 0.12945 0.97321
vt 0.02241 0.88195
vt 0.53946 0.80576
vt 0.52101 0.86404
vt 0.00265 0.63197
vt 0.21044 0.52110
vt 0.00586 0.62779
vt 0.92793 0.71797
vt 0.60981 0.78748
vt 0.81589 0.69629
vt 0.98436 0.69629
vt 0.83981 0.71538
vt 0.98463 0.69722
vt 0.15504 0.04956
vt 0.07449 0.27761
vt 0.17934 0.14025
vt 0.23467 0.74109
vt 0.31146 0.81971
vt 0.12391 0.00333
vt 0.17802 0.13786
vt 0.00293 0.41673
vt 0.36573 0.80535
vt 0.09814 0.01234
vt 0.15936 0.06308
vt 0.16856 0.12887
vt 0.18501 0.12893
vt 0.77645 0.87244
vt 0.18734 0.13550
vt 0.12611 0.02608
vt 0.12054 0.21347
vt 0.01200 0.04019
vt 0.65026 0.87826
vt 0.18338 0.84589
vt 0.26333 0.00486
vt 0.16815 0.77389
vt 0.19798 0.84578
vt 0.27954 0.84590
f 532/965 503/966 501/967
f 541/968 507/969 503/970
f 537/971 539/972 536/973
f 530/974 501/975 505/976
f 536/977 535/978 534/979
f 526/980 506/981 508/982
f 573/983 543/984 512/985
f 519/986 520/987 518/988
f 528/989 509/990 516/991
f 529/992 502/993 504/994
f 518/988 508/995 506/996
f 525/997 506/998 515/999
f 524/1000 504/1001 502/1002
f 527/1003 508/1004 520/1005
f 509/1006 518/988 586/1007
f 617/1008 520/987 521/1009
f 512/1010 522/1011 511/1012
f 509/1013 510/1014 519/1015
f 511/1016 510/1017 523/1018
f 516/1019 515/1020 524/1021
f 586/1022 525/1023 516/1024
f 524/1025 526/1026 513/1027
f 517/1028 526/1029 527/1030
f 542/1031 517/1032 520/1033
f 523/1034 529/992 511/1035
f 537/971 519/986 538/1036
f 538/1037 510/1038 540/1039
f 540/1040 522/1041 531/1042
f 537/1043 522/1044 521/1045
f 501/1046 534/1047 535/1048
f 507/1049 534/1050 503/1051
f 533/1052 536/973 507/1053
f 530/1054 539/972 538/1036
f 505/1055 535/1056 539/1057
f 530/1058 540/1059 532/1060
f 532/1061 531/1062 541/1063
f 533/1064 531/1065 537/1066
f 621/1067 544/1068 620/1069
f 554/1070 547/1071 555/1072
f 545/1073 549/1074 543/1075
f 543/1075 544/1076 545/1073
f 617/1008 620/1077 514/1078
f 546/1079 626/1080 547/1081
f 514/1078 626/1082 624/1083
f 554/1084 552/1085 624/1086
f 555/1087 547/1088 626/1089
f 548/1090 551/1091 550/1092
f 621/1067 551/1093 545/1094
f 617/1095 549/1096 548/1097
f 621/1098 548/1099 550/1100
f 542/1101 559/1102 557/1103
f 559/1104 560/1105 558/1106
f 553/1107 556/1108 558/1109
f 554/1110 560/1111 561/1112
f 552/1085 561/1113 559/1102
f 556/1114 565/1115 557/1116
f 555/1087 558/1109 560/1117
f 562/1118 568/1119 564/1120
f 544/1068 564/1120 556/1108
f 542/1121 562/1122 544/1123
f 542/1101 565/1124 563/1125
f 566/1126 569/1127 568/1128
f 562/1122 567/1129 566/1130
f 563/1125 569/1131 567/1132
f 564/1133 569/1127 565/1134
f 544/1135 562/1136 566/1137
f 571/1138 573/1139 572/1140
f 513/1141 517/1142 542/1143
f 576/1144 606/1145 574/1146
f 580/1147 615/1148 576/1149
f 613/1150 611/1151 610/1152
f 574/1153 604/1154 578/1155
f 609/1156 610/1157 608/1158
f 579/1159 600/1160 581/1161
f 652/1162 651/1163 584/1164
f 593/1165 594/1166 595/1167
f 602/1168 590/1169 582/1170
f 603/1171 575/1172 602/1173
f 592/1174 581/1175 594/1166
f 579/1176 599/1177 589/1178
f 598/1179 577/1180 587/1181
f 581/1182 601/1183 594/1184
f 592/1174 582/1185 586/1007
f 594/1166 588/1186 617/1008
f 596/1187 585/1188 584/1189
f 582/1190 583/1191 597/1192
f 583/1193 584/1194 597/1195
f 589/1196 590/1197 598/1198
f 599/1199 586/1022 590/1200
f 600/1201 598/1202 587/1203
f 591/1204 600/1205 587/1206
f 594/1207 591/1208 616/1209
f 603/1171 597/1210 584/1211
f 593/1165 611/1151 612/1212
f 583/1213 612/1214 614/1215
f 596/1216 614/1217 605/1218
f 611/1219 596/1220 605/1221
f 609/1222 576/1223 574/1224
f 608/1225 580/1226 576/1227
f 610/1152 607/1228 580/1229
f 604/1230 613/1150 578/1231
f 578/1232 609/1233 574/1234
f 614/1235 604/1236 606/1237
f 605/1238 606/1239 615/1240
f 607/1241 605/1242 615/1243
f 621/1067 619/1244 622/1245
f 625/1246 633/1247 634/1248
f 628/1249 622/1250 618/1251
f 618/1251 619/1252 616/1253
f 620/1077 617/1008 588/1186
f 623/1254 626/1080 624/1255
f 588/1186 626/1082 620/1077
f 631/1256 633/1257 624/1086
f 634/1258 632/1259 626/1089
f 627/1260 630/1261 628/1262
f 630/1263 621/1067 622/1245
f 617/1095 628/1264 618/1265
f 621/1098 627/1266 617/1008
f 616/1267 638/1268 631/1256
f 638/1269 636/1270 637/1271
f 632/1259 635/1272 619/1244
f 633/1273 639/1274 634/1275
f 631/1256 640/1276 633/1257
f 644/1277 635/1278 636/1279
f 634/1258 637/1280 632/1259
f 647/1281 641/1282 643/1283
f 643/1283 619/1244 635/1272
f 641/1284 616/1285 619/1286
f 616/1267 644/1287 636/1288
f 645/1289 648/1290 646/1291
f 641/1284 646/1292 642/1293
f 642/1294 648/1295 644/1287
f 648/1290 643/1296 644/1297
f 619/1298 645/1299 641/1300
f 650/1301 652/1302 649/1303
f 650/1304 649/1305 616/1306
f 532/965 541/1307 503/966
f 541/968 533/1308 507/969
f 537/971 538/1036 539/972
f 530/974 532/1309 501/975
f 536/977 539/1310 535/978
f 526/980 515/1311 506/981
f 617/1312 512/985 543/984
f 512/985 511/1313 573/983
f 511/1313 529/1314 572/1315
f 529/1314 571/1316 572/1315
f 573/983 570/1317 543/984
f 511/1313 572/1315 573/983
f 519/986 521/1009 520/987
f 528/989 523/1318 509/990
f 509/990 586/1319 516/991
f 516/991 524/1320 502/1321
f 502/1321 528/989 516/991
f 529/992 528/1322 502/993
f 518/988 520/987 508/995
f 525/997 518/1323 506/998
f 524/1000 513/1324 504/1001
f 527/1003 526/1325 508/1004
f 509/1006 519/986 518/988
f 521/1009 512/1326 617/1008
f 617/1008 514/1078 520/987
f 512/1010 521/1327 522/1011
f 509/1013 523/1328 510/1014
f 511/1016 522/1329 510/1017
f 516/1019 525/1330 515/1020
f 586/1022 518/1331 525/1023
f 524/1025 515/1332 526/1026
f 517/1028 513/1333 526/1029
f 520/1033 514/1334 542/1031
f 517/1032 527/1335 520/1033
f 523/1034 528/1322 529/992
f 537/971 521/1009 519/986
f 538/1037 519/1336 510/1038
f 540/1040 510/1337 522/1041
f 537/1043 531/1338 522/1044
f 501/1046 503/1339 534/1047
f 507/1049 536/1340 534/1050
f 533/1052 537/971 536/973
f 530/1054 505/1341 539/972
f 505/1055 501/1342 535/1056
f 530/1058 538/1343 540/1059
f 532/1061 540/1344 531/1062
f 533/1064 541/1345 531/1065
f 621/1067 545/1094 544/1068
f 554/1070 546/1346 547/1071
f 545/1073 551/1347 549/1074
f 543/1075 542/1348 544/1076
f 617/1008 621/1098 620/1077
f 546/1079 624/1255 626/1080
f 514/1078 620/1077 626/1082
f 552/1085 542/1101 514/1349
f 514/1349 624/1086 552/1085
f 624/1086 546/1350 554/1084
f 626/1089 620/1069 553/1107
f 620/1069 544/1068 553/1107
f 553/1107 555/1087 626/1089
f 548/1090 549/1351 551/1091
f 621/1067 550/1352 551/1093
f 617/1095 543/1353 549/1096
f 621/1098 617/1008 548/1099
f 542/1101 552/1085 559/1102
f 558/1106 556/1354 557/1355
f 559/1104 561/1356 560/1105
f 558/1106 557/1355 559/1104
f 553/1107 544/1068 556/1108
f 554/1110 555/1357 560/1111
f 552/1085 554/1084 561/1113
f 556/1114 564/1358 565/1115
f 555/1087 553/1107 558/1109
f 562/1118 566/1359 568/1119
f 544/1068 562/1118 564/1120
f 542/1121 563/1360 562/1122
f 542/1101 557/1103 565/1124
f 566/1126 567/1361 569/1127
f 562/1122 563/1360 567/1129
f 563/1125 565/1124 569/1131
f 564/1133 568/1128 569/1127
f 571/1138 570/1362 573/1139
f 542/1143 543/984 570/1317
f 570/1317 571/1316 542/1143
f 571/1316 529/1314 542/1143
f 529/1314 504/1363 542/1143
f 504/1363 513/1141 542/1143
f 576/1144 615/1364 606/1145
f 580/1147 607/1365 615/1148
f 613/1150 612/1212 611/1151
f 574/1153 606/1366 604/1154
f 609/1156 613/1367 610/1157
f 579/1159 589/1368 600/1160
f 584/1164 585/1369 652/1162
f 585/1369 617/1312 618/1370
f 652/1162 585/1369 618/1370
f 618/1370 649/1305 652/1162
f 650/1304 603/1371 651/1163
f 603/1371 584/1164 651/1163
f 593/1165 592/1174 594/1166
f 582/1170 597/1372 602/1168
f 602/1168 575/1373 590/1169
f 575/1373 598/1374 590/1169
f 590/1169 586/1319 582/1170
f 603/1171 577/1375 575/1172
f 592/1174 579/1376 581/1175
f 579/1176 592/1377 599/1177
f 598/1179 575/1378 577/1180
f 581/1182 600/1379 601/1183
f 592/1174 593/1165 582/1185
f 617/1008 585/1380 595/1167
f 595/1167 594/1166 617/1008
f 596/1187 595/1381 585/1188
f 582/1190 593/1382 583/1191
f 583/1193 596/1383 584/1194
f 589/1196 599/1384 590/1197
f 599/1199 592/1385 586/1022
f 600/1201 589/1386 598/1202
f 591/1204 601/1387 600/1205
f 616/1209 588/1388 594/1207
f 594/1207 601/1389 591/1208
f 603/1171 602/1173 597/1210
f 593/1165 595/1167 611/1151
f 583/1213 593/1390 612/1214
f 596/1216 583/1391 614/1217
f 611/1219 595/1392 596/1220
f 609/1222 608/1393 576/1223
f 608/1225 610/1394 580/1226
f 610/1152 611/1151 607/1228
f 604/1230 612/1212 613/1150
f 578/1232 613/1395 609/1233
f 614/1235 612/1396 604/1236
f 605/1238 614/1397 606/1239
f 607/1241 611/1398 605/1242
f 621/1067 620/1069 619/1244
f 625/1246 623/1399 633/1247
f 628/1249 630/1400 622/1250
f 618/1251 622/1250 619/1252
f 620/1077 621/1098 617/1008
f 623/1254 625/1401 626/1080
f 588/1186 624/1083 626/1082
f 588/1402 616/1267 631/1256
f 633/1257 623/1403 624/1086
f 588/1402 631/1256 624/1086
f 619/1244 620/1069 632/1259
f 620/1069 626/1089 632/1259
f 626/1089 625/1404 634/1258
f 627/1260 629/1405 630/1261
f 630/1263 629/1406 621/1067
f 617/1095 627/1407 628/1264
f 621/1098 629/1408 627/1266
f 616/1267 636/1288 638/1268
f 636/1270 635/1409 637/1271
f 637/1271 639/1410 638/1269
f 639/1410 640/1411 638/1269
f 632/1259 637/1280 635/1272
f 633/1273 640/1412 639/1274
f 631/1256 638/1268 640/1276
f 644/1277 643/1413 635/1278
f 634/1258 639/1414 637/1280
f 647/1281 645/1415 641/1282
f 643/1283 641/1282 619/1244
f 641/1284 642/1293 616/1285
f 616/1267 642/1294 644/1287
f 645/1289 647/1416 648/1290
f 641/1284 645/1417 646/1292
f 642/1294 646/1418 648/1295
f 648/1290 647/1416 643/1296
f 650/1301 651/1419 652/1302
f 649/1305 618/1370 616/1306
f 616/1306 591/1420 587/1421
f 587/1421 577/1422 616/1306
f 577/1422 603/1371 616/1306
f 603/1371 650/1304 616/1306
o armL
v 1.75000 3.00000 0.50000
v 1.75000 6.00000 0.50000
v 0.75000 3.00000 0.50000
v 0.75000 6.00000 0.50000
v 1.75000 3.00000 -0.50000
v 1.75000 6.00000 -0.50000
v 0.75000 3.00000 -0.50000
v 0.75000 6.00000 -0.50000
v 0.68054 4.90300 0.52992
v 0.68054 6.04193 0.52992
v 0.68054 4.90300 -0.60901
v 0.68054 6.04193 -0.60901
v 1.81947 4.90300 0.52992
v 1.81947 6.04193 0.52992
v 1.81947 4.90300 -0.60901
v 1.81947 6.04193 -0.60901
vt 0.39611 0.98196
vt 0.74656 0.86515
vt 0.74656 0.98196
vt 0.39641 0.86539
vt 0.74577 0.74894
vt 0.74577 0.86539
vt 0.38318 0.99689
vt 0.73797 0.93312
vt 0.73797 0.99689
vt 0.38349 0.93290
vt 0.73828 0.86913
vt 0.73828 0.93290
vt 0.20069 0.97110
vt 0.38403 0.78775
vt 0.38403 0.97110
vt 0.18913 0.97110
vt 0.00578 0.78775
vt 0.18913 0.78775
vt 0.37065 0.84121
vt 0.50498 0.70688
vt 0.50498 0.84121
vt 0.36376 0.93648
vt 0.46839 0.83185
vt 0.46839 0.93648
vt 0.39120 0.82670
vt 0.49416 0.76801
vt 0.47203 0.84883
vt 0.36876 0.96127
vt 0.51249 0.81754
vt 0.51249 0.96127
vt 0.21460 0.56738
vt 0.00578 0.77620
vt 0.00578 0.56738
vt 0.43498 0.56738
vt 0.22616 0.77620
vt 0.22616 0.56738
vt 0.39611 0.86515
vt 0.39641 0.74894
vt 0.38318 0.93312
vt 0.38349 0.86913
vt 0.20069 0.78775
vt 0.00578 0.97110
vt 0.37065 0.70688
vt 0.36376 0.83185
vt 0.41334 0.74587
vt 0.36876 0.81754
vt 0.21460 0.77620
vt 0.43498 0.77620
f 654/1423 655/1424 653/1425
f 656/1426 659/1427 655/1428
f 660/1429 657/1430 659/1431
f 658/1432 653/1433 657/1434
f 659/1435 653/1436 655/1437
f 656/1438 658/1439 660/1440
f 662/1441 663/1442 661/1443
f 664/1444 667/1445 663/1446
f 668/1447 665/1448 667/1449
f 666/1450 661/1451 665/1452
f 667/1453 661/1454 663/1455
f 664/1456 666/1457 668/1458
f 654/1423 656/1459 655/1424
f 656/1426 660/1460 659/1427
f 660/1429 658/1461 657/1430
f 658/1432 654/1462 653/1433
f 659/1435 657/1463 653/1436
f 656/1438 654/1464 658/1439
f 662/1441 664/1465 663/1442
f 664/1444 668/1466 667/1445
f 668/1447 666/1467 665/1448
f 666/1450 662/1468 661/1451
f 667/1453 665/1469 661/1454
f 664/1456 662/1470 666/1457
o armR
v -1.75000 3.00000 0.50000
v -1.75000 6.00000 0.50000
v -0.75000 3.00000 0.50000
v -0.75000 6.00000 0.50000
v -1.75000 3.00000 -0.50000
v -1.75000 6.00000 -0.50000
v -0.75000 3.00000 -0.50000
v -0.75000 6.00000 -0.50000
v -0.68054 4.90300 0.52992
v -0.68054 6.04193 0.52992
v -0.68054 4.90300 -0.60901
v -0.68054 6.04193 -0.60901
v -1.81947 4.90300 0.52992
v -1.81947 6.04193 0.52992
v -1.81947 4.90300 -0.60901
v -1.81947 6.04193 -0.60901
vt 0.39611 0.98196
vt 0.74656 0.86515
vt 0.74656 0.98196
vt 0.39641 0.86539
vt 0.74577 0.74894
vt 0.74577 0.86539
vt 0.38318 0.99689
vt 0.73797 0.93312
vt 0.73797 0.99689
vt 0.38349 0.93290
vt 0.73828 0.86913
vt 0.73828 0.93290
vt 0.20069 0.97110
vt 0.38403 0.78775
vt 0.38403 0.97110
vt 0.18913 0.97110
vt 0.00578 0.78775
vt 0.18913 0.78775
vt 0.37065 0.84121
vt 0.50498 0.70688
vt 0.50498 0.84121
vt 0.36376 0.93648
vt 0.46839 0.83185
vt 0.46839 0.93648
vt 0.39120 0.82670
vt 0.49416 0.76801
vt 0.47203 0.84883
vt 0.36876 0.96127
vt 0.51249 0.81754
vt 0.51249 0.96127
vt 0.21460 0.56738
vt 0.00578 0.77620
vt 0.00578 0.56738
vt 0.43498 0.56738
vt 0.22616 0.77620
vt 0.22616 0.56738
vt 0.39611 0.86515
vt 0.39641 0.74894
vt 0.38318 0.93312
vt 0.38349 0.86913
vt 0.20069 0.78775
vt 0.00578 0.97110
vt 0.37065 0.70688
vt 0.36376 0.83185
vt 0.41334 0.74587
vt 0.36876 0.81754
vt 0.21460 0.77620
vt 0.43498 0.77620
f 670/1471 671/1472 669/1473
f 672/1474 675/1475 671/1476
f 676/1477 673/1478 675/1479
f 674/1480 669/1481 673/1482
f 675/1483 669/1484 671/1485
f 672/1486 674/1487 676/1488
f 678/1489 679/1490 677/1491
f 680/1492 683/1493 679/1494
f 684/1495 681/1496 683/1497
f 682/1498 677/1499 681/1500
f 683/1501 677/1502 679/1503
f 680/1504 682/1505 684/1506
f 670/1471 672/1507 671/1472
f 672/1474 676/1508 675/1475
f 676/1477 674/1509 673/1478
f 674/1480 670/1510 669/1481
f 675/1483 673/1511 669/1484
f 672/1486 670/1512 674/1487
f 678/1489 680/1513 679/1490
f 680/1492 684/1514 683/1493
f 684/1495 682/1515 681/1496
f 682/1498 678/1516 677/1499
f 683/1501 681/1517 677/1502
f 680/1504 678/1518 682/1505
o legL
v 0.97500 0.00000 -0.50000
v 0.97500 3.00000 -0.50000
v 0.97500 0.00000 0.50000
v 0.97500 3.00000 0.50000
v -0.02500 0.00000 -0.50000
v -0.02500 3.00000 -0.50000
v -0.02500 0.00000 0.50000
v -0.02500 3.00000 0.50000
vt 0.56180 0.37487
vt 0.39375 0.00316
vt 0.56164 0.00310
vt 0.75660 0.29944
vt 0.54913 0.00271
vt 0.76222 0.00363
vt 0.39105 0.37330
vt 0.56421 0.00467
vt 0.39274 0.00402
vt 0.56321 0.37357
vt 0.39288 0.00411
vt 0.56321 0.00411
vt 0.51521 0.24458
vt 0.45431 0.30548
vt 0.45431 0.24458
vt 0.50667 0.24402
vt 0.44646 0.30422
vt 0.44646 0.24402
vt 0.39391 0.37493
vt 0.54351 0.29851
vt 0.56252 0.37395
vt 0.39288 0.37357
vt 0.51521 0.30548
vt 0.50667 0.30422
f 686/1519 687/1520 685/1521
f 688/1522 691/1523 687/1524
f 692/1525 689/1526 691/1527
f 690/1528 685/1529 689/1530
f 691/1531 685/1532 687/1533
f 688/1534 690/1535 692/1536
f 686/1519 688/1537 687/1520
f 688/1522 692/1538 691/1523
f 692/1525 690/1539 689/1526
f 690/1528 686/1540 685/1529
f 691/1531 689/1541 685/1532
f 688/1534 686/1542 690/1535
o legL
v 0.47101 0.09196 1.37500
v 0.47101 1.35804 1.37500
v 0.47101 0.09196 -0.62500
v 0.47101 1.01091 -0.32045
v 1.11696 0.09196 1.37500
v 0.99194 1.35804 1.37500
v 1.11696 0.09196 -0.62500
v 0.99194 1.01091 -0.32045
v 0.47899 0.09196 1.37500
v 0.47899 1.35804 1.37500
v 0.47899 0.09196 -0.62500
v 0.47899 1.01091 -0.32045
v -0.16696 0.09196 1.37500
v -0.04195 1.35804 1.37500
v -0.16696 0.09196 -0.62500
v -0.04195 1.01091 -0.32045
vt 0.66269 0.52219
vt 0.42276 0.07952
vt 0.66269 0.00000
vt 0.57628 0.51660
vt 0.49598 0.47946
vt 0.56109 0.46755
vt 0.57029 0.51429
vt 0.35328 0.46665
vt 0.56544 0.46396
vt 0.48955 0.51770
vt 0.43659 0.45685
vt 0.49099 0.45596
vt 0.58706 0.52407
vt 0.49262 0.55846
vt 0.58769 0.55888
vt 0.38437 0.55588
vt 0.46312 0.58726
vt 0.37758 0.58763
vt 0.66269 0.52219
vt 0.42276 0.07952
vt 0.33213 0.52219
vt 0.57628 0.51660
vt 0.49598 0.47946
vt 0.49572 0.51913
vt 0.35328 0.46665
vt 0.57029 0.51429
vt 0.56544 0.46396
vt 0.43659 0.45685
vt 0.48955 0.51770
vt 0.49099 0.45596
vt 0.49262 0.55846
vt 0.58706 0.52407
vt 0.58769 0.55888
vt 0.46312 0.58726
vt 0.38437 0.55588
vt 0.37758 0.58763
vt 0.33213 0.52219
vt 0.49572 0.51913
vt 0.38877 0.55278
vt 0.44652 0.51375
vt 0.49403 0.52960
vt 0.45406 0.56176
vt 0.66269 0.00000
vt 0.56109 0.46755
vt 0.38877 0.55278
vt 0.44652 0.51375
vt 0.49403 0.52960
vt 0.45406 0.56176
f 693/1543 696/1544 695/1545
f 695/1546 700/1547 699/1548
f 700/1549 697/1550 699/1551
f 698/1552 693/1553 697/1554
f 699/1555 693/1556 695/1557
f 696/1558 698/1559 700/1560
f 701/1561 704/1562 702/1563
f 703/1564 708/1565 704/1566
f 705/1567 708/1568 707/1569
f 701/1570 706/1571 705/1572
f 701/1573 707/1574 703/1575
f 706/1576 704/1577 708/1578
f 693/1543 694/1579 696/1544
f 695/1546 696/1580 700/1547
f 700/1549 698/1581 697/1550
f 698/1552 694/1582 693/1553
f 699/1555 697/1583 693/1556
f 696/1558 694/1584 698/1559
f 701/1561 703/1585 704/1562
f 703/1564 707/1586 708/1565
f 705/1567 706/1587 708/1568
f 701/1570 702/1588 706/1571
f 701/1573 705/1589 707/1574
f 706/1576 702/1590 704/1577
o legR
v -0.97500 0.00000 -0.50000
v -0.97500 3.00000 -0.50000
v -0.97500 0.00000 0.50000
v -0.97500 3.00000 0.50000
v 0.02500 0.00000 -0.50000
v 0.02500 3.00000 -0.50000
v 0.02500 0.00000 0.50000
v 0.02500 3.00000 0.50000
vt 0.56180 0.37487
vt 0.39375 0.00316
vt 0.56164 0.00310
vt 0.75660 0.29944
vt 0.54913 0.00271
vt 0.76222 0.00363
vt 0.39105 0.37330
vt 0.56421 0.00467
vt 0.39274 0.00402
vt 0.56321 0.37357
vt 0.39288 0.00411
vt 0.56321 0.00411
vt 0.51521 0.24458
vt 0.45431 0.30548
vt 0.45431 0.24458
vt 0.50667 0.24402
vt 0.44646 0.30422
vt 0.44646 0.24402
vt 0.39391 0.37493
vt 0.54351 0.29851
vt 0.56252 0.37395
vt 0.39288 0.37357
vt 0.51521 0.30548
vt 0.50667 0.30422
f 710/1591 711/1592 709/1593
f 712/1594 715/1595 711/1596
f 716/1597 713/1598 715/1599
f 714/1600 709/1601 713/1602
f 715/1603 709/1604 711/1605
f 712/1606 714/1607 716/1608
f 710/1591 712/1609 711/1592
f 712/1594 716/1610 715/1595
f 716/1597 714/1611 713/1598
f 714/1600 710/1612 709/1601
f 715/1603 713/1613 709/1604
f 712/1606 710/1614 714/1607
o legR
v -0.47101 0.09196 1.37500
v -0.47101 1.35804 1.37500
v -0.47101 0.09196 -0.62500
v -0.47101 1.01091 -0.32045
v -1.11696 0.09196 1.37500
v -0.99194 1.35804 1.37500
v -1.11696 0.09196 -0.62500
v -0.99194 1.01091 -0.32045
v -0.47899 0.09196 1.37500
v -0.47899 1.35804 1.37500
v -0.47899 0.09196 -0.62500
v -0.47899 1.01091 -0.32045
v 0.16696 0.09196 1.37500
v 0.04195 1.35804 1.37500
v 0.16696 0.09196 -0.62500
v 0.04195 1.01091 -0.32045
vt 0.66269 0.52219
vt 0.42276 0.07952
vt 0.66269 0.00000
vt 0.57628 0.51660
vt 0.49598 0.47946
vt 0.56109 0.46755
vt 0.57029 0.51429
vt 0.35328 0.46665
vt 0.56544 0.46396
vt 0.48955 0.51770
vt 0.43659 0.45685
vt 0.49099 0.45596
vt 0.58706 0.52407
vt 0.49262 0.55846
vt 0.58769 0.55888
vt 0.38437 0.55588
vt 0.46312 0.58726
vt 0.37758 0.58763
vt 0.66269 0.52219
vt 0.42276 0.07952
vt 0.33213 0.52219
vt 0.57628 0.51660
vt 0.49598 0.47946
vt 0.49572 0.51913
vt 0.35328 0.46665
vt 0.57029 0.51429
vt 0.56544 0.46396
vt 0.43659 0.45685
vt 0.48955 0.51770
vt 0.49099 0.45596
vt 0.49262 0.55846
vt 0.58706 0.52407
vt 0.58769 0.55888
vt 0.46312 0.58726
vt 0.38437 0.55588
vt 0.37758 0.58763
vt 0.33213 0.52219
vt 0.49572 0.51913
vt 0.38877 0.55278
vt 0.44652 0.51375
vt 0.49403 0.52960
vt 0.45406 0.56176
vt 0.66269 0.00000
vt 0.56109 0.46755
vt 0.38877 0.55278
vt 0.44652 0.51375
vt 0.49403 0.52960
vt 0.45406 0.56176
f 717/1615 720/1616 719/1617
f 719/1618 724/1619 723/1620
f 724/1621 721/1622 723/1623
f 722/1624 717/1625 721/1626
f 723/1627 717/1628 719/1629
f 720/1630 722/1631 724/1632
f 725/1633 728/1634 726/1635
f 727/1636 732/1637 728/1638
f 729/1639 732/1640 731/1641
f 725/1642 730/1643 729/1644
f 725/1645 731/1646 727/1647
f 730/1648 728/1649 732/1650
f 717/1615 718/1651 720/1616
f 719/1618 720/1652 724/1619
f 724/1621 722/1653 721/1622
f 722/1624 718/1654 717/1625
f 723/1627 721/1655 717/1628
f 720/1630 718/1656 722/1631
f 725/1633 727/1657 728/1634
f 727/1636 731/1658 732/1637
f 729/1639 730/1659 732/1640
f 725/1642 726/1660 730/1643
f 725/1645 729/1661 731/1646
f 730/1648 726/1662 728/1649
