# STALKER Armor full-body set (mannequin space, see steve.obj)
o head
v -0.64118 6.24018 1.21058
v -0.64118 7.75982 1.21058
v -1.00000 6.00000 -1.00000
v -1.00000 8.00000 -1.00000
v -1.00000 6.00000 0.00000
v -1.00000 6.00000 0.77885
v -1.00000 8.00000 0.77885
v -1.08651 8.07962 0.02163
v -1.08651 8.07962 -0.88684
v -1.08651 6.05689 -0.88684
v -1.08651 6.05689 0.02163
v -1.08651 6.05689 0.69263
v -1.08651 8.07962 0.69263
v -1.00000 6.00000 1.00000
v -1.00000 8.00000 1.00000
v -0.85072 6.06657 1.13482
v -0.85072 7.93343 1.13482
v -0.98365 6.74849 -0.89282
v -1.10636 6.57460 -0.85839
v -0.93793 6.78075 -0.94503
v -1.06064 6.60686 -0.91060
v -0.93122 6.85076 -0.97523
v -1.05393 6.67687 -0.94080
v -0.96745 6.91750 -0.96572
v -1.09016 6.74361 -0.93129
v -1.02540 6.94188 -0.92207
v -1.14811 6.76799 -0.88764
v -1.07112 6.90962 -0.86985
v -1.19383 6.73573 -0.83543
v -1.07783 6.83961 -0.83966
v -1.20054 6.66573 -0.80523
v -1.04160 6.77287 -0.84917
v -1.16431 6.59898 -0.81474
v -1.08906 6.59805 -0.92105
v -1.13938 6.57756 -0.86714
v -1.08722 6.65141 -0.97588
v -1.13493 6.70639 -0.99953
v -1.20425 6.73077 -0.97813
v -1.25457 6.71028 -0.92423
v -1.25642 6.65692 -0.86939
v -1.20870 6.60195 -0.84574
v -1.10002 6.59572 -0.92665
v -1.15227 6.57910 -0.87325
v -1.10186 6.62832 -0.99588
v -1.15672 6.65779 -1.04038
v -1.23246 6.66687 -1.03408
v -1.28470 6.65024 -0.98069
v -1.28286 6.61765 -0.91146
v -1.22801 6.58818 -0.86696
v -1.11533 6.51337 -0.96833
v -1.16738 6.50833 -0.91244
v -1.11821 6.52087 -1.04444
v -1.17432 6.52646 -1.09619
v -1.25080 6.52684 -1.09326
v -1.30285 6.52181 -1.03737
v -1.29997 6.51430 -0.96126
v -1.24386 6.50872 -0.90951
v -0.85749 5.98750 -1.02002
v -0.90954 5.98246 -0.96413
v -0.86037 5.99500 -1.09614
v -0.91648 6.00059 -1.14789
v -0.99296 6.00097 -1.14495
v -1.04501 5.99594 -1.08906
v -1.04213 5.98843 -1.01295
v -0.98601 5.98285 -0.96120
v -0.86537 5.88526 -1.02981
v -0.91351 5.85966 -0.97609
v -0.86825 5.89276 -1.10592
v -0.92046 5.87779 -1.15985
v -0.99141 5.84910 -1.15999
v -1.03955 5.82351 -1.10628
v -1.03668 5.81600 -1.03016
v -0.98447 5.83098 -0.97624
v -0.39533 5.63369 -0.93320
v -0.44347 5.60810 -0.87949
v -0.39821 5.64120 -1.00931
v -0.45042 5.62622 -1.06324
v -0.52137 5.59754 -1.06339
v -0.56951 5.57194 -1.00967
v -0.56663 5.56443 -0.93356
v -0.51443 5.57941 -0.87963
v -0.39502 5.53504 -0.92221
v -0.45452 5.49507 -0.89539
v -0.35428 5.53454 -0.98701
v -0.35618 5.49386 -1.05181
v -0.39959 5.43684 -1.07867
v -0.45910 5.39687 -1.05184
v -0.49983 5.39738 -0.98705
v -0.49794 5.43805 -0.92224
v 0.64118 6.24018 1.21058
v 0.64118 7.75982 1.21058
v 1.00000 6.00000 -1.00000
v 1.00000 8.00000 -1.00000
v 1.00000 6.00000 0.00000
v 1.00000 6.00000 0.77885
v 1.00000 8.00000 0.77885
v 1.08651 8.07962 0.02163
v 1.08651 8.07962 -0.88684
v 1.08651 6.05689 -0.88684
v 1.08651 6.05689 0.02163
v 1.08651 6.05689 0.69263
v 1.08651 8.07962 0.69263
v 1.00000 6.00000 1.00000
v 1.00000 8.00000 1.00000
v 0.85072 6.06657 1.13482
v 0.85072 7.93343 1.13482
v 0.00000 6.00000 1.00000
v 0.00000 6.00000 -1.00000
v 0.00000 8.07962 0.69263
v 0.00000 7.93343 1.13482
v 0.00000 6.24018 1.21058
v 0.00000 8.00000 1.00000
v 0.00000 8.00000 -1.00000
v 0.00000 6.00000 0.77885
v 0.00000 7.75982 1.21058
v 0.00000 8.07962 -0.88684
v 0.00000 8.00000 0.77885
v 0.00000 6.06657 1.13482
v 0.98365 6.74849 -0.89282
v 1.10636 6.57460 -0.85839
v 0.93793 6.78075 -0.94503
v 1.06064 6.60686 -0.91060
v 0.93122 6.85076 -0.97523
v 1.05393 6.67687 -0.94080
v 0.96745 6.91750 -0.96572
v 1.09016 6.74361 -0.93129
v 1.02540 6.94188 -0.92207
v 1.14811 6.76799 -0.88764
v 1.07112 6.90962 -0.86985
v 1.19383 6.73573 -0.83543
v 1.07783 6.83961 -0.83966
v 1.20054 6.66573 -0.80523
v 1.04160 6.77287 -0.84917
v 1.16431 6.59898 -0.81474
v 1.08906 6.59805 -0.92105
v 1.13938 6.57756 -0.86714
v 1.08722 6.65141 -0.97588
v 1.13493 6.70639 -0.99953
v 1.20425 6.73077 -0.97813
v 1.25457 6.71028 -0.92423
v 1.25642 6.65692 -0.86939
v 1.20870 6.60195 -0.84574
v 1.10002 6.59572 -0.92665
v 1.15227 6.57910 -0.87325
v 1.10186 6.62832 -0.99588
v 1.15672 6.65779 -1.04038
v 1.23246 6.66687 -1.03408
v 1.28470 6.65024 -0.98069
v 1.28286 6.61765 -0.91146
v 1.22801 6.58818 -0.86696
v 1.11533 6.51337 -0.96833
v 1.16738 6.50833 -0.91244
v 1.11821 6.52087 -1.04444
v 1.17432 6.52646 -1.09619
v 1.25080 6.52684 -1.09326
v 1.30285 6.52181 -1.03737
v 1.29997 6.51430 -0.96126
v 1.24386 6.50872 -0.90951
v 0.85749 5.98750 -1.02002
v 0.90954 5.98246 -0.96413
v 0.86037 5.99500 -1.09614
v 0.91648 6.00059 -1.14789
v 0.99296 6.00097 -1.14495
v 1.04501 5.99594 -1.08906
v 1.04213 5.98843 -1.01295
v 0.98601 5.98285 -0.96120
v 0.86537 5.88526 -1.02981
v 0.91351 5.85966 -0.97609
v 0.86825 5.89276 -1.10592
v 0.92046 5.87779 -1.15985
v 0.99141 5.84910 -1.15999
v 1.03955 5.82351 -1.10628
v 1.03668 5.81600 -1.03016
v 0.98447 5.83098 -0.97624
v 0.39533 5.63369 -0.93320
v 0.44347 5.60810 -0.87949
v 0.39821 5.64120 -1.00931
v 0.45042 5.62622 -1.06324
v 0.52137 5.59754 -1.06339
v 0.56951 5.57194 -1.00967
v 0.56663 5.56443 -0.93356
v 0.51443 5.57941 -0.87963
v 0.39502 5.53504 -0.92221
v 0.45452 5.49507 -0.89539
v 0.35428 5.53454 -0.98701
v 0.35618 5.49386 -1.05181
v 0.39959 5.43684 -1.07867
v 0.45910 5.39687 -1.05184
v 0.49983 5.39738 -0.98705
v 0.49794 5.43805 -0.92224
vt 0.69865 0.49550
vt 0.71624 0.66433
vt 0.69865 0.66433
vt 0.99806 0.99558
vt 0.90668 0.68250
vt 0.99881 0.68250
vt 0.86189 0.99507
vt 0.99791 0.65664
vt 0.86189 0.65663
vt 0.98274 0.96388
vt 0.96865 0.65924
vt 0.98274 0.65160
vt 0.98348 0.83537
vt 0.97018 0.94437
vt 0.97033 0.83984
vt 0.61720 0.48847
vt 0.69864 0.49515
vt 0.69853 0.48821
vt 0.99521 0.91768
vt 0.87428 0.91815
vt 0.87441 0.82451
vt 0.98721 0.65195
vt 0.96966 0.95677
vt 0.96966 0.63949
vt 0.76353 0.90599
vt 0.78013 0.74913
vt 0.78013 0.91956
vt 0.97053 0.69832
vt 0.98370 0.67959
vt 0.68583 0.50006
vt 0.69818 0.66449
vt 0.68583 0.65782
vt 0.68591 0.65783
vt 0.61745 0.66475
vt 0.69793 0.66475
vt 0.66884 0.51419
vt 0.66884 0.64260
vt 0.61782 0.50033
vt 0.99607 0.87455
vt 0.99607 0.99362
vt 0.90095 0.99362
vt 0.61731 0.49541
vt 0.68633 0.49967
vt 0.61782 0.65809
vt 0.62312 0.51439
vt 0.67437 0.64260
vt 0.62312 0.64280
vt 0.61745 0.67460
vt 0.81373 0.97242
vt 0.96918 0.95883
vt 0.98381 0.97242
vt 0.30662 0.35606
vt 0.64985 0.39205
vt 0.30662 0.39205
vt 0.30662 0.35606
vt 0.64985 0.39205
vt 0.30662 0.39205
vt 0.30662 0.35606
vt 0.64985 0.39205
vt 0.30662 0.39205
vt 0.64985 0.35606
vt 0.30662 0.39205
vt 0.30662 0.35606
vt 0.64985 0.35606
vt 0.30662 0.39205
vt 0.30662 0.35606
vt 0.64985 0.35606
vt 0.30662 0.39205
vt 0.30662 0.35606
vt 0.30705 0.35553
vt 0.64942 0.39258
vt 0.30705 0.39258
vt 0.64985 0.35606
vt 0.30662 0.39205
vt 0.30662 0.35606
vt 0.30662 0.35606
vt 0.64985 0.39205
vt 0.30662 0.39205
vt 0.96835 0.35375
vt 0.98345 0.35010
vt 0.99293 0.36964
vt 0.30705 0.35553
vt 0.64942 0.39258
vt 0.30705 0.39258
vt 0.30705 0.35553
vt 0.64942 0.39258
vt 0.30705 0.39258
vt 0.30705 0.39258
vt 0.64942 0.35553
vt 0.64942 0.39258
vt 0.30705 0.35553
vt 0.64942 0.39258
vt 0.30705 0.39258
vt 0.30705 0.35553
vt 0.64942 0.39258
vt 0.30705 0.39258
vt 0.30705 0.35553
vt 0.64942 0.39258
vt 0.30705 0.39258
vt 0.30705 0.35553
vt 0.64942 0.39258
vt 0.30705 0.39258
vt 0.30705 0.35553
vt 0.64942 0.39258
vt 0.30705 0.39258
vt 0.30705 0.35553
vt 0.64942 0.39258
vt 0.30705 0.39258
vt 0.30705 0.35553
vt 0.64942 0.39258
vt 0.30705 0.39258
vt 0.30705 0.39258
vt 0.64942 0.35553
vt 0.64942 0.39258
vt 0.30705 0.35553
vt 0.64942 0.39258
vt 0.30705 0.39258
vt 0.30705 0.35553
vt 0.64942 0.39258
vt 0.30705 0.39258
vt 0.30705 0.35553
vt 0.64942 0.39258
vt 0.30705 0.39258
vt 0.30705 0.39258
vt 0.64942 0.35553
vt 0.64942 0.39258
vt 0.30705 0.39258
vt 0.64942 0.35553
vt 0.64942 0.39258
vt 0.30705 0.39258
vt 0.64942 0.35553
vt 0.64942 0.39258
vt 0.30705 0.39258
vt 0.64942 0.35553
vt 0.64942 0.39258
vt 0.30705 0.39258
vt 0.64942 0.35553
vt 0.64942 0.39258
vt 0.30705 0.35553
vt 0.64942 0.39258
vt 0.30705 0.39258
vt 0.30705 0.35553
vt 0.64942 0.39258
vt 0.30705 0.39258
vt 0.30705 0.39258
vt 0.64942 0.35553
vt 0.64942 0.39258
vt 0.30705 0.39258
vt 0.64942 0.35553
vt 0.64942 0.39258
vt 0.30705 0.35553
vt 0.64942 0.39258
vt 0.30705 0.39258
vt 0.30705 0.35553
vt 0.64942 0.39258
vt 0.30705 0.39258
vt 0.30705 0.39258
vt 0.64942 0.35553
vt 0.64942 0.39258
vt 0.30705 0.39258
vt 0.64942 0.35553
vt 0.64942 0.39258
vt 0.30705 0.35553
vt 0.64942 0.39258
vt 0.30705 0.39258
vt 0.30705 0.35553
vt 0.64942 0.39258
vt 0.30705 0.39258
vt 0.30705 0.39258
vt 0.64942 0.35553
vt 0.64942 0.39258
vt 0.30705 0.35553
vt 0.64942 0.39258
vt 0.30705 0.39258
vt 0.30705 0.35553
vt 0.64942 0.39258
vt 0.30705 0.39258
vt 0.30705 0.35553
vt 0.64942 0.39258
vt 0.30705 0.39258
vt 0.30705 0.39258
vt 0.64942 0.35553
vt 0.64942 0.39258
vt 0.30705 0.39258
vt 0.64942 0.35553
vt 0.64942 0.39258
vt 0.30705 0.35553
vt 0.64942 0.39258
vt 0.30705 0.39258
vt 0.30705 0.35553
vt 0.64942 0.39258
vt 0.30705 0.39258
vt 0.30705 0.35553
vt 0.64942 0.39258
vt 0.30705 0.39258
vt 0.30705 0.39258
vt 0.64942 0.35553
vt 0.64942 0.39258
vt 0.30705 0.35553
vt 0.64942 0.39258
vt 0.30705 0.39258
vt 0.30705 0.35553
vt 0.64942 0.39258
vt 0.30705 0.39258
vt 0.30705 0.39258
vt 0.64942 0.35553
vt 0.64942 0.39258
vt 0.30705 0.35553
vt 0.64942 0.39258
vt 0.30705 0.39258
vt 0.30705 0.35553
vt 0.64942 0.39258
vt 0.30705 0.39258
vt 0.30705 0.39258
vt 0.64942 0.35553
vt 0.64942 0.39258
vt 0.30705 0.39258
vt 0.64942 0.35553
vt 0.64942 0.39258
vt 0.30705 0.39258
vt 0.64942 0.35553
vt 0.64942 0.39258
vt 0.30705 0.35553
vt 0.64942 0.39258
vt 0.30705 0.39258
vt 0.88122 0.44527
vt 0.88122 0.48847
vt 0.92443 0.48847
vt 0.30705 0.35553
vt 0.64942 0.39258
vt 0.30705 0.39258
vt 0.30705 0.39258
vt 0.64942 0.35553
vt 0.64942 0.39258
vt 0.30705 0.35553
vt 0.64942 0.39258
vt 0.30705 0.39258
vt 0.30705 0.35553
vt 0.64942 0.39258
vt 0.30705 0.39258
vt 0.30705 0.35553
vt 0.64942 0.39258
vt 0.30705 0.39258
vt 0.30705 0.39258
vt 0.64942 0.35553
vt 0.64942 0.39258
vt 0.30705 0.35553
vt 0.64942 0.39258
vt 0.30705 0.39258
vt 0.71624 0.66433
vt 0.69865 0.49550
vt 0.69865 0.66433
vt 0.99806 0.99558
vt 0.99881 0.68250
vt 0.86189 0.65663
vt 0.99791 0.99507
vt 0.86189 0.99507
vt 0.96865 0.65924
vt 0.98274 0.96388
vt 0.98274 0.65160
vt 0.98348 0.83537
vt 0.97018 0.94437
vt 0.98330 0.95670
vt 0.69864 0.49515
vt 0.69853 0.48821
vt 0.87441 0.82451
vt 0.99551 0.70381
vt 0.98721 0.65195
vt 0.96966 0.95677
vt 0.98721 0.96566
vt 0.76353 0.90599
vt 0.76353 0.74913
vt 0.97053 0.69832
vt 0.98370 0.67959
vt 0.69818 0.66449
vt 0.68583 0.50006
vt 0.68583 0.65782
vt 0.68591 0.65783
vt 0.61745 0.65783
vt 0.66884 0.51419
vt 0.66884 0.64260
vt 0.61758 0.51439
vt 0.90095 0.99362
vt 0.99607 0.99362
vt 0.68633 0.49967
vt 0.61714 0.49989
vt 0.61758 0.64280
vt 0.67437 0.64260
vt 0.69793 0.66475
vt 0.96918 0.95883
vt 0.81265 0.95883
vt 0.30662 0.35606
vt 0.64985 0.39205
vt 0.64985 0.35606
vt 0.30662 0.35606
vt 0.64985 0.39205
vt 0.64985 0.35606
vt 0.30662 0.35606
vt 0.64985 0.39205
vt 0.64985 0.35606
vt 0.30662 0.39205
vt 0.64985 0.35606
vt 0.30662 0.35606
vt 0.30662 0.39205
vt 0.64985 0.35606
vt 0.30662 0.35606
vt 0.30662 0.39205
vt 0.64985 0.35606
vt 0.30662 0.35606
vt 0.64942 0.39258
vt 0.30705 0.35553
vt 0.30705 0.39258
vt 0.30662 0.39205
vt 0.64985 0.35606
vt 0.30662 0.35606
vt 0.30662 0.35606
vt 0.64985 0.39205
vt 0.64985 0.35606
vt 0.98345 0.35010
vt 0.96835 0.35375
vt 0.97784 0.37329
vt 0.64942 0.39258
vt 0.30705 0.35553
vt 0.30705 0.39258
vt 0.64942 0.39258
vt 0.30705 0.35553
vt 0.30705 0.39258
vt 0.30705 0.39258
vt 0.64942 0.35553
vt 0.30705 0.35553
vt 0.64942 0.39258
vt 0.30705 0.35553
vt 0.30705 0.39258
vt 0.64942 0.39258
vt 0.30705 0.35553
vt 0.30705 0.39258
vt 0.64942 0.39258
vt 0.30705 0.35553
vt 0.30705 0.39258
vt 0.64942 0.39258
vt 0.30705 0.35553
vt 0.30705 0.39258
vt 0.64942 0.39258
vt 0.30705 0.35553
vt 0.30705 0.39258
vt 0.64942 0.39258
vt 0.30705 0.35553
vt 0.30705 0.39258
vt 0.64942 0.39258
vt 0.30705 0.35553
vt 0.30705 0.39258
vt 0.30705 0.39258
vt 0.64942 0.35553
vt 0.30705 0.35553
vt 0.64942 0.39258
vt 0.30705 0.35553
vt 0.30705 0.39258
vt 0.64942 0.39258
vt 0.30705 0.35553
vt 0.30705 0.39258
vt 0.64942 0.39258
vt 0.30705 0.35553
vt 0.30705 0.39258
vt 0.30705 0.39258
vt 0.64942 0.35553
vt 0.30705 0.35553
vt 0.30705 0.39258
vt 0.64942 0.35553
vt 0.30705 0.35553
vt 0.30705 0.39258
vt 0.64942 0.35553
vt 0.30705 0.35553
vt 0.30705 0.39258
vt 0.64942 0.35553
vt 0.30705 0.35553
vt 0.30705 0.39258
vt 0.64942 0.35553
vt 0.30705 0.35553
vt 0.64942 0.39258
vt 0.30705 0.35553
vt 0.30705 0.39258
vt 0.64942 0.39258
vt 0.30705 0.35553
vt 0.30705 0.39258
vt 0.30705 0.39258
vt 0.64942 0.35553
vt 0.30705 0.35553
vt 0.30705 0.39258
vt 0.64942 0.35553
vt 0.30705 0.35553
vt 0.64942 0.39258
vt 0.30705 0.35553
vt 0.30705 0.39258
vt 0.64942 0.39258
vt 0.30705 0.35553
vt 0.30705 0.39258
vt 0.30705 0.39258
vt 0.64942 0.35553
vt 0.30705 0.35553
vt 0.30705 0.39258
vt 0.64942 0.35553
vt 0.30705 0.35553
vt 0.64942 0.39258
vt 0.30705 0.35553
vt 0.30705 0.39258
vt 0.64942 0.39258
vt 0.30705 0.35553
vt 0.30705 0.39258
vt 0.30705 0.39258
vt 0.64942 0.35553
vt 0.30705 0.35553
vt 0.64942 0.39258
vt 0.30705 0.35553
vt 0.30705 0.39258
vt 0.64942 0.39258
vt 0.30705 0.35553
vt 0.30705 0.39258
vt 0.64942 0.39258
vt 0.30705 0.35553
vt 0.30705 0.39258
vt 0.30705 0.39258
vt 0.64942 0.35553
vt 0.30705 0.35553
vt 0.30705 0.39258
vt 0.64942 0.35553
vt 0.30705 0.35553
vt 0.64942 0.39258
vt 0.30705 0.35553
vt 0.30705 0.39258
vt 0.64942 0.39258
vt 0.30705 0.35553
vt 0.30705 0.39258
vt 0.64942 0.39258
vt 0.30705 0.35553
vt 0.30705 0.39258
vt 0.30705 0.39258
vt 0.64942 0.35553
vt 0.30705 0.35553
vt 0.30705 0.39258
vt 0.64942 0.35553
vt 0.30705 0.35553
vt 0.64942 0.39258
vt 0.30705 0.35553
vt 0.30705 0.39258
vt 0.30705 0.39258
vt 0.64942 0.35553
vt 0.30705 0.35553
vt 0.64942 0.39258
vt 0.30705 0.35553
vt 0.30705 0.39258
vt 0.64942 0.39258
vt 0.30705 0.35553
vt 0.30705 0.39258
vt 0.30705 0.39258
vt 0.64942 0.35553
vt 0.30705 0.35553
vt 0.30705 0.39258
vt 0.64942 0.35553
vt 0.30705 0.35553
vt 0.30705 0.39258
vt 0.64942 0.35553
vt 0.30705 0.35553
vt 0.64942 0.39258
vt 0.30705 0.35553
vt 0.30705 0.39258
vt 0.92443 0.48847
vt 0.88122 0.48847
vt 0.88122 0.44527
vt 0.64942 0.39258
vt 0.30705 0.35553
vt 0.30705 0.39258
vt 0.30705 0.39258
vt 0.64942 0.35553
vt 0.30705 0.35553
vt 0.64942 0.39258
vt 0.30705 0.35553
vt 0.30705 0.39258
vt 0.64942 0.39258
vt 0.30705 0.35553
vt 0.30705 0.39258
vt 0.64942 0.39258
vt 0.30705 0.35553
vt 0.30705 0.39258
vt 0.30705 0.39258
vt 0.64942 0.35553
vt 0.30705 0.35553
vt 0.64942 0.39258
vt 0.30705 0.35553
vt 0.30705 0.39258
vt 0.71624 0.49550
vt 0.90593 0.99558
vt 0.76142 0.65663
vt 0.76142 0.99506
vt 0.99791 0.99507
vt 0.96865 0.97507
vt 0.98330 0.95670
vt 0.87458 0.70429
vt 0.98721 0.96566
vt 0.69818 0.49549
vt 0.83069 0.99362
vt 0.83069 0.87455
vt 0.67437 0.51419
vt 0.69793 0.67460
vt 0.64985 0.35606
vt 0.64985 0.35606
vt 0.64985 0.35606
vt 0.64985 0.39205
vt 0.64985 0.39205
vt 0.64985 0.39205
vt 0.64942 0.35553
vt 0.64985 0.39205
vt 0.64985 0.35606
vt 0.98735 0.37551
vt 0.97784 0.37329
vt 0.96997 0.36428
vt 0.97394 0.34788
vt 0.99132 0.35912
vt 0.64942 0.35553
vt 0.64942 0.35553
vt 0.30705 0.35553
vt 0.64942 0.35553
vt 0.64942 0.35553
vt 0.64942 0.35553
vt 0.64942 0.35553
vt 0.64942 0.35553
vt 0.64942 0.35553
vt 0.64942 0.35553
vt 0.30705 0.35553
vt 0.64942 0.35553
vt 0.64942 0.35553
vt 0.64942 0.35553
vt 0.30705 0.35553
vt 0.30705 0.35553
vt 0.30705 0.35553
vt 0.30705 0.35553
vt 0.30705 0.35553
vt 0.64942 0.35553
vt 0.64942 0.35553
vt 0.30705 0.35553
vt 0.30705 0.35553
vt 0.64942 0.35553
vt 0.64942 0.35553
vt 0.30705 0.35553
vt 0.30705 0.35553
vt 0.64942 0.35553
vt 0.64942 0.35553
vt 0.30705 0.35553
vt 0.64942 0.35553
vt 0.64942 0.35553
vt 0.64942 0.35553
vt 0.30705 0.35553
vt 0.30705 0.35553
vt 0.64942 0.35553
vt 0.64942 0.35553
vt 0.64942 0.35553
vt 0.30705 0.35553
vt 0.64942 0.35553
vt 0.64942 0.35553
vt 0.30705 0.35553
vt 0.64942 0.35553
vt 0.64942 0.35553
vt 0.30705 0.35553
vt 0.30705 0.35553
vt 0.30705 0.35553
vt 0.64942 0.35553
vt 0.92443 0.44527
vt 0.90283 0.43632
vt 0.87228 0.46687
vt 0.90283 0.49742
vt 0.93338 0.46687
vt 0.64942 0.35553
vt 0.30705 0.35553
vt 0.64942 0.35553
vt 0.64942 0.35553
vt 0.64942 0.35553
vt 0.30705 0.35553
vt 0.64942 0.35553
vt 0.71624 0.49550
vt 0.76142 0.99506
vt 0.76142 0.65663
vt 0.99791 0.65664
vt 0.96865 0.97507
vt 0.97033 0.83984
vt 0.87458 0.70429
vt 0.87428 0.91815
vt 0.96966 0.63949
vt 0.78013 0.91956
vt 0.69818 0.49549
vt 0.83069 0.99362
vt 0.67437 0.51419
vt 0.69793 0.67460
vt 0.98381 0.97242
vt 0.30662 0.39205
vt 0.30662 0.39205
vt 0.30662 0.39205
vt 0.64985 0.39205
vt 0.64985 0.39205
vt 0.64985 0.39205
vt 0.64942 0.35553
vt 0.64985 0.39205
vt 0.30662 0.39205
vt 0.98735 0.37551
vt 0.99293 0.36964
vt 0.99132 0.35912
vt 0.97394 0.34788
vt 0.96997 0.36428
vt 0.64942 0.35553
vt 0.64942 0.35553
vt 0.64942 0.39258
vt 0.64942 0.35553
vt 0.64942 0.35553
vt 0.64942 0.35553
vt 0.64942 0.35553
vt 0.64942 0.35553
vt 0.64942 0.35553
vt 0.64942 0.35553
vt 0.64942 0.39258
vt 0.64942 0.35553
vt 0.64942 0.35553
vt 0.64942 0.35553
vt 0.64942 0.39258
vt 0.64942 0.39258
vt 0.64942 0.39258
vt 0.64942 0.39258
vt 0.64942 0.39258
vt 0.64942 0.35553
vt 0.64942 0.35553
vt 0.64942 0.39258
vt 0.64942 0.39258
vt 0.64942 0.35553
vt 0.64942 0.35553
vt 0.64942 0.39258
vt 0.64942 0.39258
vt 0.64942 0.35553
vt 0.64942 0.35553
vt 0.64942 0.39258
vt 0.64942 0.35553
vt 0.64942 0.35553
vt 0.64942 0.35553
vt 0.64942 0.39258
vt 0.64942 0.39258
vt 0.64942 0.35553
vt 0.64942 0.35553
vt 0.64942 0.35553
vt 0.64942 0.39258
vt 0.64942 0.39258
vt 0.64942 0.35553
vt 0.64942 0.39258
vt 0.64942 0.35553
vt 0.64942 0.35553
vt 0.64942 0.39258
vt 0.64942 0.39258
vt 0.64942 0.39258
vt 0.64942 0.35553
vt 0.90283 0.43632
vt 0.92443 0.44527
vt 0.93338 0.46687
vt 0.90283 0.49742
vt 0.87228 0.46687
vt 0.64942 0.35553
vt 0.64942 0.39258
vt 0.64942 0.35553
vt 0.64942 0.35553
vt 0.64942 0.35553
vt 0.64942 0.39258
vt 0.64942 0.35553
f 15/1 6/2 14/3
f 4/4 108/5 3/6
f 8/7 10/8 11/9
f 7/10 12/11 6/12
f 5/13 12/14 11/15
f 114/16 14/17 6/18
f 114/19 6/20 5/21
f 4/22 10/23 9/24
f 7/25 109/26 13/27
f 5/13 10/28 3/29
f 17/30 14/31 16/32
f 17/33 112/34 15/35
f 2/36 16/32 1/37
f 2/36 110/38 17/30
f 116/39 9/40 8/41
f 107/42 16/43 14/17
f 118/44 1/37 16/32
f 115/45 1/46 111/47
f 117/48 15/35 112/34
f 116/49 4/50 9/51
f 18/52 21/53 20/54
f 20/55 23/56 22/57
f 22/58 25/59 24/60
f 25/61 26/62 24/63
f 27/64 28/65 26/66
f 29/67 30/68 28/69
f 33/70 35/71 19/72
f 31/73 32/74 30/75
f 32/76 19/77 18/78
f 24/79 28/80 32/81
f 40/82 49/83 41/84
f 19/85 34/86 21/87
f 25/88 36/89 37/90
f 29/91 40/92 31/93
f 25/94 38/95 27/96
f 31/97 41/98 33/99
f 21/100 36/101 23/102
f 27/103 39/104 29/105
f 47/106 56/107 48/108
f 38/109 47/110 39/111
f 37/112 44/113 45/114
f 35/115 42/116 34/117
f 41/118 43/119 35/120
f 39/121 48/122 40/123
f 38/124 45/125 46/126
f 36/127 42/128 44/129
f 50/130 59/131 58/132
f 46/133 53/134 54/135
f 44/136 50/137 52/138
f 48/139 57/140 49/141
f 46/142 55/143 47/144
f 45/145 52/146 53/147
f 42/148 51/149 50/150
f 49/151 51/152 43/153
f 64/154 73/155 65/156
f 51/157 65/158 59/159
f 56/160 63/161 64/162
f 53/163 62/164 54/165
f 50/166 60/167 52/168
f 57/169 64/170 65/171
f 54/172 63/173 55/174
f 52/175 61/176 53/177
f 66/178 76/179 68/180
f 63/181 70/182 71/183
f 61/184 68/185 69/186
f 59/187 66/188 58/189
f 65/190 67/191 59/192
f 63/193 72/194 64/195
f 62/196 69/197 70/198
f 58/199 68/200 60/201
f 81/202 83/203 75/204
f 73/205 80/206 81/207
f 70/208 79/209 71/210
f 68/211 77/212 69/213
f 66/214 75/215 74/216
f 67/217 81/218 75/219
f 72/220 79/221 80/222
f 69/223 78/224 70/225
f 83/226 88/227 86/228
f 79/229 88/230 80/231
f 78/232 85/233 86/234
f 74/235 84/236 76/237
f 80/238 89/239 81/240
f 78/241 87/242 79/243
f 77/244 84/245 85/246
f 75/247 82/248 74/249
f 95/250 104/251 103/252
f 108/5 93/253 92/254
f 100/255 98/256 97/257
f 101/258 96/259 95/260
f 94/261 101/262 95/263
f 103/264 114/16 95/265
f 94/266 114/19 108/267
f 93/268 99/269 92/270
f 96/271 109/26 117/272
f 99/273 94/261 92/274
f 103/275 106/276 105/277
f 106/278 112/34 110/279
f 105/277 91/280 90/281
f 91/280 110/38 115/282
f 97/283 98/284 116/39
f 107/42 105/285 118/286
f 118/44 90/281 111/287
f 90/288 115/45 111/47
f 104/289 117/48 112/34
f 116/49 93/290 113/291
f 119/292 122/293 120/294
f 121/295 124/296 122/297
f 123/298 126/299 124/300
f 127/301 126/302 125/303
f 129/304 128/305 127/306
f 131/307 130/308 129/309
f 136/310 134/311 120/312
f 133/313 132/314 131/315
f 133/316 120/317 134/318
f 129/319 125/320 121/321
f 150/322 141/323 142/324
f 135/325 120/326 122/327
f 126/328 137/329 124/330
f 141/331 130/332 132/333
f 139/334 126/335 128/336
f 142/337 132/338 134/339
f 137/340 122/341 124/342
f 140/343 128/344 130/345
f 157/346 148/347 149/348
f 148/349 139/350 140/351
f 138/352 145/353 137/354
f 143/355 136/356 135/357
f 144/358 142/359 136/360
f 149/361 140/362 141/363
f 139/364 146/365 138/366
f 137/367 143/368 135/369
f 151/370 160/371 152/372
f 147/373 154/374 146/375
f 145/376 151/377 143/378
f 158/379 149/380 150/381
f 156/382 147/383 148/384
f 146/385 153/386 145/387
f 143/388 152/389 144/390
f 152/391 150/392 144/393
f 174/394 165/395 166/396
f 152/397 166/398 158/399
f 157/400 164/401 156/402
f 163/403 154/404 155/405
f 161/406 151/407 153/408
f 158/409 165/410 157/411
f 164/412 155/413 156/414
f 162/415 153/416 154/417
f 177/418 167/419 169/420
f 164/421 171/422 163/423
f 162/424 169/425 161/426
f 167/427 160/428 159/429
f 168/430 166/431 160/432
f 173/433 164/434 165/435
f 163/436 170/437 162/438
f 161/439 167/440 159/441
f 184/442 182/443 176/444
f 174/445 181/446 173/447
f 180/448 171/449 172/450
f 178/451 169/452 170/453
f 167/454 176/455 168/456
f 168/457 182/458 174/459
f 173/460 180/461 172/462
f 179/463 170/464 171/465
f 187/466 189/467 184/468
f 189/469 180/470 181/471
f 179/472 186/473 178/474
f 185/475 175/476 177/477
f 190/478 181/479 182/480
f 188/481 179/482 180/483
f 178/484 185/485 177/486
f 183/487 176/488 175/489
f 15/1 7/490 6/2
f 4/4 113/491 108/5
f 11/9 12/492 13/493
f 8/7 9/494 10/8
f 11/9 13/493 8/7
f 7/10 13/495 12/11
f 5/13 6/496 12/14
f 114/16 107/42 14/17
f 5/21 3/497 108/267
f 108/267 114/19 5/21
f 4/22 3/498 10/23
f 7/25 117/272 109/26
f 5/13 11/15 10/28
f 17/30 15/499 14/31
f 17/33 110/279 112/34
f 2/36 17/30 16/32
f 2/36 115/282 110/38
f 13/500 109/501 8/41
f 109/501 116/39 8/41
f 107/42 118/286 16/43
f 118/44 111/287 1/37
f 115/45 2/502 1/46
f 117/48 7/503 15/35
f 116/49 113/291 4/50
f 18/52 19/504 21/53
f 20/55 21/505 23/56
f 22/58 23/506 25/59
f 25/61 27/507 26/62
f 27/64 29/508 28/65
f 29/67 31/509 30/68
f 33/70 41/510 35/71
f 31/73 33/511 32/74
f 32/76 33/512 19/77
f 32/81 18/513 20/514
f 20/514 22/515 24/79
f 24/79 26/516 28/80
f 28/80 30/517 32/81
f 32/81 20/514 24/79
f 40/82 48/518 49/83
f 19/85 35/519 34/86
f 25/88 23/520 36/89
f 29/91 39/521 40/92
f 25/94 37/522 38/95
f 31/97 40/523 41/98
f 21/100 34/524 36/101
f 27/103 38/525 39/104
f 47/106 55/526 56/107
f 38/109 46/527 47/110
f 37/112 36/528 44/113
f 35/115 43/529 42/116
f 41/118 49/530 43/119
f 39/121 47/531 48/122
f 38/124 37/532 45/125
f 36/127 34/533 42/128
f 50/130 51/534 59/131
f 46/133 45/535 53/134
f 44/136 42/536 50/137
f 48/139 56/537 57/140
f 46/142 54/538 55/143
f 45/145 44/539 52/146
f 42/148 43/540 51/149
f 49/151 57/541 51/152
f 64/154 72/542 73/155
f 51/157 57/543 65/158
f 56/160 55/544 63/161
f 53/163 61/545 62/164
f 50/166 58/546 60/167
f 57/169 56/547 64/170
f 54/172 62/548 63/173
f 52/175 60/549 61/176
f 66/178 74/550 76/179
f 63/181 62/551 70/182
f 61/184 60/552 68/185
f 59/187 67/553 66/188
f 65/190 73/554 67/191
f 63/193 71/555 72/194
f 62/196 61/556 69/197
f 58/199 66/557 68/200
f 81/202 89/558 83/203
f 73/205 72/559 80/206
f 70/208 78/560 79/209
f 68/211 76/561 77/212
f 66/214 67/562 75/215
f 67/217 73/563 81/218
f 72/220 71/564 79/221
f 69/223 77/565 78/224
f 84/566 82/567 83/226
f 83/226 89/568 88/227
f 88/227 87/569 86/228
f 86/228 85/570 84/566
f 84/566 83/226 86/228
f 79/229 87/571 88/230
f 78/232 77/572 85/233
f 74/235 82/573 84/236
f 80/238 88/574 89/239
f 78/241 86/575 87/242
f 77/244 76/576 84/245
f 75/247 83/577 82/248
f 95/250 96/578 104/251
f 108/5 113/491 93/253
f 102/579 101/580 100/255
f 100/255 99/581 98/256
f 97/257 102/579 100/255
f 101/258 102/582 96/259
f 94/261 100/583 101/262
f 103/264 107/42 114/16
f 108/267 92/584 94/266
f 94/266 95/585 114/19
f 93/268 98/586 99/269
f 96/271 102/587 109/26
f 99/273 100/583 94/261
f 103/275 104/588 106/276
f 106/278 104/289 112/34
f 105/277 106/276 91/280
f 91/280 106/276 110/38
f 116/39 109/501 97/283
f 109/501 102/589 97/283
f 107/42 103/264 105/285
f 118/44 105/277 90/281
f 90/288 91/590 115/45
f 104/289 96/591 117/48
f 116/49 98/592 93/290
f 119/292 121/593 122/293
f 121/295 123/594 124/296
f 123/298 125/595 126/299
f 127/301 128/596 126/302
f 129/304 130/597 128/305
f 131/307 132/598 130/308
f 136/310 142/599 134/311
f 133/313 134/600 132/314
f 133/316 119/601 120/317
f 121/321 119/602 129/319
f 119/602 133/603 129/319
f 133/603 131/604 129/319
f 129/319 127/605 125/320
f 125/320 123/606 121/321
f 150/322 149/607 141/323
f 135/325 136/608 120/326
f 126/328 138/609 137/329
f 141/331 140/610 130/332
f 139/334 138/611 126/335
f 142/337 141/612 132/338
f 137/340 135/613 122/341
f 140/343 139/614 128/344
f 157/346 156/615 148/347
f 148/349 147/616 139/350
f 138/352 146/617 145/353
f 143/355 144/618 136/356
f 144/358 150/619 142/359
f 149/361 148/620 140/362
f 139/364 147/621 146/365
f 137/367 145/622 143/368
f 151/370 159/623 160/371
f 147/373 155/624 154/374
f 145/376 153/625 151/377
f 158/379 157/626 149/380
f 156/382 155/627 147/383
f 146/385 154/628 153/386
f 143/388 151/629 152/389
f 152/391 158/630 150/392
f 174/394 173/631 165/395
f 152/397 160/632 166/398
f 157/400 165/633 164/401
f 163/403 162/634 154/404
f 161/406 159/635 151/407
f 158/409 166/636 165/410
f 164/412 163/637 155/413
f 162/415 161/638 153/416
f 177/418 175/639 167/419
f 164/421 172/640 171/422
f 162/424 170/641 169/425
f 167/427 168/642 160/428
f 168/430 174/643 166/431
f 173/433 172/644 164/434
f 163/436 171/645 170/437
f 161/439 169/646 167/440
f 184/442 190/647 182/443
f 174/445 182/648 181/446
f 180/448 179/649 171/449
f 178/451 177/650 169/452
f 167/454 175/651 176/455
f 168/457 176/652 182/458
f 173/460 181/653 180/461
f 179/463 178/654 170/464
f 184/468 183/655 185/656
f 185/656 186/657 187/466
f 187/466 188/658 189/467
f 189/467 190/659 184/468
f 184/468 185/656 187/466
f 189/469 188/660 180/470
f 179/472 187/661 186/473
f 185/475 183/662 175/476
f 190/478 189/663 181/479
f 188/481 187/664 179/482
f 178/484 186/665 185/485
f 183/487 184/666 176/488
o chest
v -0.99415 2.88861 0.63723
v -0.94117 5.91183 0.63723
v -0.99415 2.88861 -0.77799
v -0.94117 5.91183 -0.77799
v 0.00585 2.88861 0.63723
v -0.07748 5.67484 0.63723
v 0.00585 2.88861 -0.77799
v -0.07748 5.91183 -0.77799
v -0.55682 5.91183 -0.77799
v -0.38341 5.91183 0.63723
v -0.93116 6.04181 0.52203
v -0.86887 6.04181 -0.65907
v -0.49415 6.04181 0.52203
v -0.61906 6.04181 -0.65907
v -0.85503 4.86742 0.63723
v -0.85503 4.86742 -0.77799
v -0.99223 3.01779 0.53887
v -0.99223 5.96160 0.53887
v -0.99223 3.01779 -0.66112
v -0.99223 5.96160 -0.66112
v 0.00777 3.01779 0.53887
v 0.00777 5.96160 0.53887
v 0.00777 3.01779 -0.66112
v 0.00777 5.96160 -0.66112
v -0.96717 3.27233 0.63723
v 0.00585 3.27234 0.63723
v -0.07748 4.52052 0.63723
v -0.87305 4.38384 0.63723
v -0.80874 4.92678 0.70766
v -0.88343 5.83234 0.70766
v -0.39982 5.83234 0.70766
v -0.07941 5.60574 0.79634
v -0.82436 4.47728 0.70766
v -0.07941 4.59578 0.79634
v -0.07748 4.74783 -0.77799
v 0.00777 4.74783 -0.66112
v 0.00777 4.74783 0.53887
v 0.00585 4.74783 -0.77799
v 0.00585 2.88861 -0.77799
v 0.00585 2.88861 0.63723
v 0.00585 3.27234 0.63723
v 0.00585 4.74783 0.63723
v 0.00642 5.91183 -0.77685
v 0.00642 5.67484 0.63836
v 0.00642 4.52052 0.63836
v 0.00450 5.60574 0.79748
v 0.00450 4.59578 0.79748
v 0.00642 4.74783 -0.77685
v 0.00585 4.04539 -0.77799
v -0.04600 3.56228 -0.77799
v -0.67686 5.79178 -0.77799
v -0.56493 4.12720 -0.77799
v -0.48311 3.56228 -0.77799
v -0.69259 6.04925 -1.86066
v 0.01474 6.04925 -1.86066
v 0.01474 4.73244 -1.86066
v 0.05445 3.40091 -1.86066
v -0.81075 5.95166 -1.86066
v -0.64242 4.05101 -1.86066
v -0.58175 3.40091 -1.86066
v -0.71186 6.18409 -1.59833
v 0.00899 6.18409 -1.59833
v 0.05634 3.26607 -1.59833
v -0.89239 6.03500 -1.59833
v -0.72406 3.96767 -1.59833
v -0.60102 3.26607 -1.59833
v 0.00852 5.91375 -0.77723
v 0.00852 4.74975 -0.77723
v 0.04001 3.56420 -0.77723
v 0.18568 3.26846 -1.59647
v 0.13834 4.74086 -1.59647
v 0.13834 6.18648 -1.59647
v 0.14409 6.05164 -1.85879
v 0.14409 4.73482 -1.85879
v 0.18379 3.40330 -1.85879
v -0.72406 3.96767 -1.01936
v 0.13834 6.18648 -1.01936
v -0.89239 6.03500 -1.01936
v 0.00899 6.18409 -1.01936
v 0.13834 4.74086 -1.01936
v -0.71186 6.18409 -1.01936
v 0.18568 3.26846 -1.01936
v 0.05634 3.26607 -1.01936
v -0.60102 3.26607 -1.01936
v 0.99415 2.88861 0.63723
v 0.94117 5.91183 0.63723
v 0.99415 2.88861 -0.77799
v 0.94117 5.91183 -0.77799
v -0.00585 2.88861 0.63723
v 0.07748 5.67484 0.63723
v -0.00585 2.88861 -0.77799
v 0.07748 5.91183 -0.77799
v 0.55682 5.91183 -0.77799
v 0.38341 5.91183 0.63723
v 0.93116 6.04181 0.52203
v 0.86887 6.04181 -0.65907
v 0.49415 6.04181 0.52203
v 0.61906 6.04181 -0.65907
v 0.85503 4.86742 0.63723
v 0.85503 4.86742 -0.77799
v 0.99223 3.01779 0.53887
v 0.99223 5.96160 0.53887
v 0.99223 3.01779 -0.66112
v 0.99223 5.96160 -0.66112
v -0.00777 3.01779 0.53887
v -0.00777 5.96160 0.53887
v -0.00777 3.01779 -0.66112
v -0.00777 5.96160 -0.66112
v 0.96717 3.27233 0.63723
v -0.00585 3.27234 0.63723
v 0.07748 4.52052 0.63723
v 0.87305 4.38384 0.63723
v 0.80874 4.92678 0.70766
v 0.88343 5.83234 0.70766
v 0.39982 5.83234 0.70766
v 0.07941 5.60574 0.79634
v 0.82436 4.47728 0.70766
v 0.07941 4.59578 0.79634
v 0.07748 4.74783 -0.77799
v -0.00777 4.74783 -0.66112
v -0.00777 4.74783 0.53887
v -0.00585 4.74783 -0.77799
v -0.00585 2.88861 -0.77799
v -0.00585 2.88861 0.63723
v -0.00585 3.27234 0.63723
v -0.00585 4.74783 0.63723
v -0.00642 5.91183 -0.77685
v -0.00642 5.67484 0.63836
v -0.00642 4.52052 0.63836
v -0.00450 5.60574 0.79748
v -0.00450 4.59578 0.79748
v -0.00642 4.74783 -0.77685
v -0.00585 4.04539 -0.77799
v 0.04600 3.56228 -0.77799
v 0.67686 5.79178 -0.77799
v 0.56493 4.12720 -0.77799
v 0.48311 3.56228 -0.77799
v 0.69259 6.04925 -1.86066
v -0.01474 6.04925 -1.86066
v -0.01474 4.73244 -1.86066
v -0.05445 3.40091 -1.86066
v 0.81075 5.95166 -1.86066
v 0.64242 4.05101 -1.86066
v 0.58175 3.40091 -1.86066
v 0.71186 6.18409 -1.59833
v -0.00899 6.18409 -1.59833
v -0.05634 3.26607 -1.59833
v 0.89239 6.03500 -1.59833
v 0.72406 3.96767 -1.59833
v 0.60102 3.26607 -1.59833
v -0.00852 5.91375 -0.77723
v -0.00852 4.74975 -0.77723
v -0.04001 3.56420 -0.77723
v -0.18568 3.26846 -1.59647
v -0.13834 4.74086 -1.59647
v -0.13834 6.18648 -1.59647
v -0.14409 6.05164 -1.85879
v -0.14409 4.73482 -1.85879
v -0.18379 3.40330 -1.85879
v 0.72406 3.96767 -1.01936
v -0.13834 6.18648 -1.01936
v 0.89239 6.03500 -1.01936
v -0.00899 6.18409 -1.01936
v -0.13834 4.74086 -1.01936
v 0.71186 6.18409 -1.01936
v -0.18568 3.26846 -1.01936
v -0.05634 3.26607 -1.01936
v 0.60102 3.26607 -1.01936
vt 0.70414 0.76520
vt 0.64905 0.83971
vt 0.64915 0.76528
vt 0.35429 0.19295
vt 0.40813 0.24441
vt 0.29891 0.24651
vt 0.72899 0.33121
vt 0.72804 0.21860
vt 0.72899 0.33121
vt 0.02135 0.48141
vt 0.32182 0.55052
vt 0.33317 0.48523
vt 0.75189 0.18837
vt 0.66518 0.27877
vt 0.66249 0.19008
vt 0.03841 0.60907
vt 0.21568 0.62704
vt 0.05425 0.62677
vt 0.32177 0.19936
vt 0.40905 0.05266
vt 0.31899 0.05176
vt 0.30191 0.91839
vt 0.25926 0.75722
vt 0.31886 0.75729
vt 0.23598 0.92172
vt 0.15175 0.96845
vt 0.23703 0.96448
vt 0.30884 0.93474
vt 0.29104 0.75733
vt 0.30884 0.74169
vt 0.31119 0.93395
vt 0.26784 0.91835
vt 0.54496 0.83928
vt 0.62371 0.76521
vt 0.44696 0.93721
vt 0.74357 0.81637
vt 0.74360 0.93721
vt 0.01357 0.24115
vt 0.12346 0.24065
vt 0.12286 0.33578
vt 0.39316 0.24509
vt 0.22934 0.00891
vt 0.39316 0.00891
vt 0.10412 0.68530
vt 0.03867 0.74146
vt 0.03867 0.59816
vt 0.36585 0.71518
vt 0.23114 0.83064
vt 0.22934 0.71580
vt 0.34475 0.84082
vt 0.25019 0.95417
vt 0.25019 0.84066
vt 0.12629 0.99546
vt 0.27709 0.99731
vt 0.26073 0.84272
vt 0.01841 0.54679
vt 0.28396 0.73956
vt 0.03643 0.98245
vt 0.13392 0.95504
vt 0.03610 0.95153
vt 0.12713 0.92679
vt 0.22287 0.89616
vt 0.12849 0.90056
vt 0.28592 0.80207
vt 0.29659 0.98236
vt 0.31121 0.99544
vt 0.26344 0.73157
vt 0.27467 0.81469
vt 0.03484 0.75981
vt 0.26904 0.76618
vt 0.03584 0.78352
vt 0.00196 0.95548
vt 0.02811 0.95562
vt 0.22934 0.41078
vt 0.22934 0.24508
vt 0.29789 0.19925
vt 0.20210 0.61528
vt 0.00891 0.71117
vt 0.00891 0.50974
vt 0.01841 0.54679
vt 0.00712 0.79822
vt 0.38547 0.42860
vt 0.38547 0.42860
vt 0.38547 0.42860
vt 0.38547 0.42860
vt 0.38547 0.42860
vt 0.03927 0.72939
vt 0.00891 0.91964
vt 0.03941 0.72899
vt 0.74784 0.51990
vt 0.89176 0.48704
vt 0.90343 0.49490
vt 0.90343 0.69058
vt 0.00869 0.75966
vt 0.00969 0.78338
vt 0.01159 0.98201
vt 0.97964 0.39933
vt 0.98985 0.24186
vt 0.99109 0.39944
vt 0.97964 0.12844
vt 0.97839 0.24175
vt 0.98962 0.34204
vt 0.98281 0.28256
vt 0.98848 0.28239
vt 0.71610 0.15043
vt 0.72747 0.15021
vt 0.96775 0.62574
vt 0.96587 0.35436
vt 0.82280 0.60536
vt 0.84956 0.32226
vt 0.83602 0.47498
vt 0.84147 0.47526
vt 0.92126 0.48704
vt 0.92944 0.64890
vt 0.92125 0.64890
vt 0.91738 0.56978
vt 0.98276 0.57794
vt 0.91738 0.57787
vt 0.96026 0.28324
vt 0.93914 0.27208
vt 0.95992 0.27150
vt 0.83857 0.52720
vt 0.83313 0.52692
vt 0.84972 0.31128
vt 0.84412 0.32198
vt 0.91981 0.62401
vt 0.98277 0.61009
vt 0.98396 0.62409
vt 0.97094 0.07996
vt 0.98857 0.35471
vt 0.99364 0.08031
vt 0.92126 0.80780
vt 0.92945 0.80780
vt 0.81229 0.31939
vt 0.82248 0.32089
vt 0.82264 0.30991
vt 0.81219 0.32658
vt 0.81439 0.47388
vt 0.80215 0.51536
vt 0.80471 0.46724
vt 0.94059 0.34155
vt 0.96141 0.34290
vt 0.05935 0.72899
vt 0.06895 0.84954
vt 0.05723 0.84896
vt 0.99449 0.61001
vt 0.99568 0.62401
vt 0.05935 0.96687
vt 0.07108 0.96744
vt 0.98814 0.27065
vt 0.91740 0.61001
vt 0.97610 0.50186
vt 0.97608 0.64824
vt 0.96151 0.64890
vt 0.97610 0.79298
vt 0.96152 0.80780
vt 0.99447 0.56978
vt 0.99447 0.57797
vt 0.98240 0.27082
vt 0.98395 0.34222
vt 0.81149 0.52582
vt 0.64905 0.83971
vt 0.70414 0.76520
vt 0.64915 0.76528
vt 0.33167 0.01968
vt 0.30272 0.01088
vt 0.31281 0.09206
vt 0.72899 0.33121
vt 0.72804 0.21860
vt 0.72136 0.26576
vt 0.02135 0.48141
vt 0.32182 0.55052
vt 0.01841 0.54679
vt 0.66518 0.27877
vt 0.75189 0.18837
vt 0.66249 0.19008
vt 0.03841 0.60907
vt 0.21568 0.62704
vt 0.23148 0.60933
vt 0.32177 0.19936
vt 0.40905 0.05266
vt 0.45819 0.19931
vt 0.30191 0.91839
vt 0.25926 0.75722
vt 0.26784 0.91835
vt 0.23598 0.92172
vt 0.15175 0.96845
vt 0.12713 0.92679
vt 0.29104 0.75733
vt 0.30884 0.93474
vt 0.30884 0.74169
vt 0.31119 0.93395
vt 0.25878 0.93389
vt 0.62371 0.76521
vt 0.56525 0.76494
vt 0.54496 0.83928
vt 0.74357 0.81637
vt 0.44696 0.93721
vt 0.74360 0.93721
vt 0.12286 0.33578
vt 0.12346 0.24065
vt 0.01357 0.24115
vt 0.22934 0.00891
vt 0.39316 0.24509
vt 0.39316 0.00891
vt 0.03867 0.74146
vt 0.10412 0.74438
vt 0.10412 0.68530
vt 0.23114 0.83064
vt 0.36585 0.71518
vt 0.22934 0.71580
vt 0.25019 0.95417
vt 0.34475 0.84082
vt 0.25019 0.84066
vt 0.02811 0.95562
vt 0.03584 0.78352
vt 0.26073 0.84272
vt 0.28396 0.73956
vt 0.03643 0.98245
vt 0.13392 0.95504
vt 0.13009 0.98613
vt 0.22287 0.89616
vt 0.29659 0.98236
vt 0.28592 0.80207
vt 0.31121 0.99544
vt 0.26344 0.73157
vt 0.27383 0.71265
vt 0.26904 0.76618
vt 0.03484 0.75981
vt 0.00196 0.95548
vt 0.22934 0.41078
vt 0.22934 0.24508
vt 0.29789 0.19925
vt 0.31899 0.05176
vt 0.00891 0.71117
vt 0.20210 0.71118
vt 0.20210 0.61528
vt 0.01841 0.54679
vt 0.38547 0.42860
vt 0.38547 0.42860
vt 0.38547 0.42860
vt 0.38547 0.42860
vt 0.38547 0.42860
vt 0.03927 0.72939
vt 0.00891 0.91964
vt 0.03941 0.92495
vt 0.89176 0.48704
vt 0.74784 0.51990
vt 0.90343 0.49490
vt 0.90343 0.69058
vt 0.00869 0.75966
vt 0.01159 0.98201
vt 0.03610 0.95153
vt 0.97964 0.39933
vt 0.98985 0.24186
vt 0.97839 0.24175
vt 0.97964 0.12844
vt 0.98281 0.28256
vt 0.98962 0.34204
vt 0.98848 0.28239
vt 0.71610 0.15043
vt 0.82280 0.60536
vt 0.84962 0.21371
vt 0.96587 0.35436
vt 0.83602 0.47498
vt 0.84956 0.32226
vt 0.84147 0.47526
vt 0.92944 0.64890
vt 0.92126 0.48704
vt 0.92125 0.64890
vt 0.91738 0.56978
vt 0.98276 0.57794
vt 0.98275 0.56986
vt 0.96026 0.28324
vt 0.93914 0.27208
vt 0.93948 0.28381
vt 0.83857 0.52720
vt 0.84412 0.32198
vt 0.84972 0.31128
vt 0.98277 0.61009
vt 0.91981 0.62401
vt 0.98396 0.62409
vt 0.97094 0.07996
vt 0.98857 0.35471
vt 0.92126 0.80780
vt 0.81229 0.31939
vt 0.82248 0.32089
vt 0.81219 0.32658
vt 0.81439 0.47388
vt 0.80471 0.46724
vt 0.80215 0.51536
vt 0.94059 0.34155
vt 0.96775 0.62574
vt 0.06895 0.84954
vt 0.05935 0.72899
vt 0.05723 0.84896
vt 0.99449 0.61001
vt 0.99568 0.62401
vt 0.05935 0.96687
vt 0.98814 0.27065
vt 0.91740 0.61001
vt 0.91738 0.57787
vt 0.96152 0.48704
vt 0.92945 0.48704
vt 0.96151 0.64890
vt 0.96152 0.80780
vt 0.99447 0.56978
vt 0.99447 0.57797
vt 0.82264 0.30991
vt 0.84428 0.31100
vt 0.95992 0.27150
vt 0.98240 0.27082
vt 0.98395 0.34222
vt 0.81149 0.52582
vt 0.83313 0.52692
vt 0.70404 0.83963
vt 0.30272 0.01088
vt 0.34470 0.01007
vt 0.33167 0.01968
vt 0.31281 0.09206
vt 0.34498 0.14912
vt 0.40203 0.19204
vt 0.72136 0.26576
vt 0.75458 0.27705
vt 0.23148 0.60933
vt 0.45819 0.19931
vt 0.29105 0.91846
vt 0.25878 0.93389
vt 0.54506 0.76485
vt 0.56525 0.76494
vt 0.44693 0.81637
vt 0.12201 0.47137
vt 0.01212 0.47186
vt 0.10412 0.60109
vt 0.10412 0.74438
vt 0.36765 0.83003
vt 0.34475 0.95433
vt 0.13009 0.98613
vt 0.27383 0.71265
vt 0.39316 0.41079
vt 0.29511 0.05165
vt 0.00891 0.45736
vt 0.20210 0.45736
vt 0.20210 0.71118
vt 0.38547 0.42860
vt 0.03941 0.92495
vt 0.75563 0.50891
vt 0.74654 0.71578
vt 0.01127 0.95109
vt 0.99109 0.12855
vt 0.84962 0.21371
vt 0.85934 0.07975
vt 0.84367 0.62551
vt 0.92945 0.48704
vt 0.98275 0.56986
vt 0.93948 0.28381
vt 0.84428 0.31100
vt 0.99045 0.62609
vt 0.07108 0.72957
vt 0.96152 0.48704
vt 0.70404 0.83963
vt 0.29891 0.24651
vt 0.40813 0.24441
vt 0.35429 0.19295
vt 0.40203 0.19204
vt 0.34498 0.14912
vt 0.34470 0.01007
vt 0.72899 0.33121
vt 0.33317 0.48523
vt 0.75458 0.27705
vt 0.05425 0.62677
vt 0.31886 0.75729
vt 0.23703 0.96448
vt 0.29105 0.91846
vt 0.54506 0.76485
vt 0.44693 0.81637
vt 0.01212 0.47186
vt 0.12201 0.47137
vt 0.10412 0.60109
vt 0.03867 0.59816
vt 0.36765 0.83003
vt 0.34475 0.95433
vt 0.27709 0.99731
vt 0.12629 0.99546
vt 0.12849 0.90056
vt 0.27467 0.81469
vt 0.00969 0.78338
vt 0.39316 0.41079
vt 0.29511 0.05165
vt 0.20210 0.45736
vt 0.00891 0.50974
vt 0.00891 0.45736
vt 0.00712 0.79822
vt 0.38547 0.42860
vt 0.03941 0.72899
vt 0.75563 0.50891
vt 0.74654 0.71578
vt 0.01127 0.95109
vt 0.99109 0.39944
vt 0.99109 0.12855
vt 0.72747 0.15021
vt 0.85934 0.07975
vt 0.84367 0.62551
vt 0.99364 0.08031
vt 0.92945 0.80780
vt 0.96141 0.34290
vt 0.99045 0.62609
vt 0.07108 0.72957
vt 0.07108 0.96744
vt 0.97608 0.64824
vt 0.97610 0.50186
vt 0.97610 0.79298
f 192/667 206/668 205/669
f 243/670 197/671 193/672
f 197/673 239/674 229/675
f 195/676 215/677 191/678
f 197/679 191/680 193/681
f 194/682 201/683 202/684
f 198/685 200/686 196/687
f 204/688 201/689 203/690
f 192/691 203/692 201/693
f 199/694 203/695 200/696
f 199/697 202/698 204/688
f 193/699 218/700 206/668
f 208/701 209/702 207/703
f 210/704 214/705 226/706
f 226/707 211/708 213/709
f 227/710 208/711 207/712
f 213/713 207/714 209/715
f 210/716 212/717 214/718
f 221/719 220/720 219/721
f 216/722 218/723 215/677
f 196/724 221/725 222/726
f 200/727 220/728 221/729
f 205/730 220/731 192/732
f 205/730 223/733 219/734
f 217/735 223/736 218/723
f 224/737 236/738 222/739
f 226/707 212/740 227/741
f 196/687 233/742 198/685
f 239/743 232/744 231/745
f 217/735 231/746 232/747
f 216/748 230/749 231/750
f 195/751 229/752 230/749
f 225/753 232/754 228/755
f 234/756 237/757 235/758
f 238/759 234/756 235/758
f 224/737 235/760 237/761
f 222/726 234/762 196/724
f 217/763 238/764 235/765
f 198/766 238/764 225/767
f 243/768 273/769 240/770
f 239/674 225/771 228/772
f 245/773 246/774 248/775
f 241/776 266/777 242/778
f 259/779 270/780 258/781
f 199/782 269/783 271/784
f 253/785 265/786 260/787
f 243/788 266/777 274/789
f 199/790 268/791 241/776
f 244/792 252/793 245/794
f 247/795 264/796 265/797
f 257/798 270/780 267/799
f 244/800 254/801 251/802
f 248/803 255/804 254/801
f 250/805 255/804 249/806
f 250/807 253/785 256/808
f 245/773 264/796 246/774
f 240/809 258/810 225/811
f 269/783 262/812 252/793
f 252/793 263/813 245/794
f 198/814 258/810 257/815
f 273/769 259/816 240/770
f 269/783 251/817 271/784
f 268/791 255/804 266/777
f 265/818 264/819 261/820
f 261/820 263/821 262/822
f 269/783 257/823 267/824
f 268/791 251/802 254/801
f 273/769 260/787 272/825
f 274/826 253/785 273/769
f 266/777 256/827 274/789
f 290/828 276/829 289/830
f 325/831 278/832 290/833
f 281/834 323/835 324/836
f 279/837 299/838 300/839
f 275/840 281/841 277/842
f 278/843 285/844 276/845
f 282/846 284/847 283/848
f 288/849 285/850 286/851
f 276/852 287/853 284/854
f 287/855 283/856 284/857
f 283/858 286/851 278/859
f 302/860 299/861 277/862
f 293/863 292/864 291/865
f 310/866 298/867 294/868
f 295/869 310/870 297/871
f 292/872 296/873 311/874
f 291/875 297/876 293/877
f 296/878 294/879 298/880
f 306/881 308/882 303/883
f 302/884 300/839 299/838
f 280/885 305/886 284/887
f 284/854 304/888 276/852
f 304/889 289/890 276/891
f 289/890 307/892 302/893
f 307/894 301/895 302/884
f 320/896 308/882 306/881
f 296/897 310/870 311/898
f 317/899 280/900 282/846
f 316/901 312/902 323/903
f 301/895 315/904 300/839
f 300/905 314/906 279/907
f 279/907 313/908 281/909
f 309/910 316/911 301/912
f 321/913 318/914 319/915
f 318/914 322/916 319/915
f 308/882 319/917 301/895
f 318/918 306/919 280/885
f 301/920 322/921 309/922
f 322/921 282/923 309/922
f 357/924 327/925 324/926
f 323/835 309/927 324/836
f 332/928 333/929 330/930
f 350/931 325/932 326/933
f 354/934 343/935 342/936
f 283/937 353/938 282/939
f 337/940 349/941 331/942
f 327/943 350/931 326/933
f 352/944 283/945 325/932
f 336/946 328/947 329/948
f 331/949 348/950 330/930
f 341/951 354/934 342/936
f 328/952 338/953 332/954
f 332/954 339/955 333/956
f 339/955 334/957 333/956
f 334/958 337/940 331/942
f 348/950 329/959 330/930
f 342/960 324/961 309/962
f 346/963 353/938 336/946
f 347/964 336/946 329/948
f 282/965 342/960 309/962
f 343/966 357/924 324/926
f 335/967 353/938 355/968
f 339/955 352/944 350/931
f 344/969 356/970 345/971
f 345/971 354/934 346/972
f 341/973 353/938 351/974
f 352/944 335/975 355/976
f 344/977 357/924 356/978
f 337/940 358/979 357/924
f 340/980 350/931 358/981
f 192/667 194/982 206/668
f 194/983 199/984 241/985
f 194/983 241/985 206/986
f 241/985 242/987 206/986
f 243/670 240/988 197/671
f 206/986 242/987 193/672
f 242/987 243/670 193/672
f 197/673 240/989 239/674
f 195/676 216/722 215/677
f 197/679 195/990 191/680
f 194/682 192/991 201/683
f 198/685 199/992 200/686
f 204/688 202/698 201/689
f 192/691 200/727 203/692
f 199/694 204/993 203/695
f 199/697 194/994 202/698
f 193/699 191/995 215/996
f 215/996 218/700 193/699
f 218/700 205/669 206/668
f 208/701 210/997 209/702
f 213/998 209/999 226/706
f 209/999 210/704 226/706
f 226/707 227/741 211/708
f 207/712 211/1000 227/710
f 227/710 212/1001 208/711
f 213/713 211/1002 207/714
f 210/716 208/1003 212/717
f 219/721 223/736 224/737
f 224/737 222/739 219/721
f 222/739 221/719 219/721
f 216/722 217/735 218/723
f 196/724 200/1004 221/725
f 200/727 192/691 220/728
f 205/730 219/734 220/731
f 205/730 218/1005 223/733
f 217/735 224/737 223/736
f 224/737 237/761 236/738
f 226/707 214/1006 212/740
f 196/687 234/1007 233/742
f 230/1008 229/1009 231/745
f 229/1009 239/743 231/745
f 239/743 228/1010 232/744
f 217/735 216/722 231/746
f 216/748 195/751 230/749
f 195/751 197/1011 229/752
f 225/753 217/1012 232/754
f 234/756 236/1013 237/757
f 238/759 233/1014 234/756
f 224/737 217/735 235/760
f 222/726 236/1015 234/762
f 217/763 225/767 238/764
f 198/766 233/1016 238/764
f 243/768 274/826 273/769
f 239/674 240/989 225/771
f 246/774 247/795 249/1017
f 247/795 250/1018 249/1017
f 249/1017 248/775 246/774
f 248/775 244/1019 245/773
f 241/776 268/791 266/777
f 259/779 272/1020 270/780
f 199/782 198/1021 269/783
f 253/785 247/1022 265/786
f 243/788 242/778 266/777
f 199/790 271/1023 268/791
f 244/792 251/817 252/793
f 247/795 246/774 264/796
f 257/798 258/781 270/780
f 244/800 248/803 254/801
f 248/803 249/806 255/804
f 250/805 256/827 255/804
f 250/807 247/1022 253/785
f 245/773 263/1024 264/796
f 240/809 259/1025 258/810
f 269/783 267/824 262/812
f 252/793 262/812 263/813
f 198/814 225/811 258/810
f 273/769 272/825 259/816
f 269/783 252/793 251/817
f 268/791 254/801 255/804
f 261/820 270/780 272/1020
f 272/1020 260/1026 261/820
f 260/1026 265/818 261/820
f 262/822 267/799 270/780
f 261/820 264/819 263/821
f 262/822 270/780 261/820
f 269/783 198/1021 257/823
f 268/791 271/1023 251/802
f 273/769 253/785 260/787
f 274/826 256/808 253/785
f 266/777 255/804 256/827
f 290/828 278/1027 276/829
f 277/1028 281/1029 327/1030
f 281/1029 324/1031 327/1030
f 290/833 277/1028 326/1032
f 277/1028 327/1030 326/1032
f 325/831 283/1033 278/832
f 290/833 326/1032 325/831
f 281/834 313/1034 323/835
f 279/837 275/1035 299/838
f 275/840 279/1036 281/841
f 278/843 286/1037 285/844
f 282/846 280/900 284/847
f 288/849 287/1038 285/850
f 276/852 285/1039 287/853
f 287/855 288/1040 283/856
f 283/858 288/849 286/851
f 299/861 275/1041 277/862
f 277/862 290/828 302/860
f 290/828 289/830 302/860
f 293/863 294/1042 292/864
f 294/868 293/1043 310/866
f 293/1043 297/1044 310/866
f 295/869 311/898 310/870
f 311/874 295/1045 291/1046
f 291/1046 292/872 311/874
f 291/875 295/1047 297/876
f 296/878 292/1048 294/879
f 308/882 307/894 303/883
f 303/883 304/1049 305/1050
f 305/1050 306/881 303/883
f 302/884 301/895 300/839
f 280/885 306/919 305/886
f 284/854 305/1051 304/888
f 304/889 303/1052 289/890
f 289/890 303/1052 307/892
f 307/894 308/882 301/895
f 320/896 321/1053 308/882
f 296/897 298/1054 310/870
f 317/899 318/1055 280/900
f 323/903 313/1056 315/1057
f 313/1056 314/1058 315/1057
f 315/1057 316/901 323/903
f 301/895 316/1059 315/904
f 300/905 315/1060 314/906
f 279/907 314/906 313/908
f 309/910 312/1061 316/911
f 321/913 320/1062 318/914
f 318/914 317/1063 322/916
f 308/882 321/1053 319/917
f 318/918 320/1064 306/919
f 301/920 319/1065 322/921
f 322/921 317/1066 282/923
f 357/924 358/979 327/925
f 323/835 312/1067 309/927
f 334/1068 331/949 333/929
f 331/949 330/930 333/929
f 330/930 329/959 332/928
f 329/959 328/1069 332/928
f 350/931 352/944 325/932
f 354/934 356/970 343/935
f 283/937 355/968 353/938
f 337/940 344/977 349/941
f 327/943 358/981 350/931
f 352/944 355/976 283/945
f 336/946 335/967 328/947
f 331/949 349/1070 348/950
f 341/951 351/1071 354/934
f 328/952 335/975 338/953
f 332/954 338/953 339/955
f 339/955 340/980 334/957
f 334/958 340/1072 337/940
f 348/950 347/1073 329/959
f 342/960 343/1074 324/961
f 346/963 351/974 353/938
f 347/964 346/963 336/946
f 282/965 341/1075 342/960
f 343/966 356/978 357/924
f 335/967 336/946 353/938
f 339/955 338/953 352/944
f 356/970 354/934 345/971
f 345/971 348/1076 349/1077
f 349/1077 344/969 345/971
f 354/934 351/1071 346/972
f 346/972 347/1078 345/971
f 347/1078 348/1076 345/971
f 341/973 282/939 353/938
f 352/944 338/953 335/975
f 344/977 337/940 357/924
f 337/940 340/1072 358/979
f 340/980 339/955 350/931
o armL
v 1.75000 3.00000 0.50000
v 1.75000 6.00000 0.50000
v 0.75000 3.00000 0.50000
v 0.75000 6.00000 0.50000
v 1.75000 3.00000 -0.50000
v 1.75000 6.00000 -0.50000
v 0.75000 3.00000 -0.50000
v 0.75000 6.00000 -0.50000
vt 0.44214 0.73330
vt 0.75804 0.82683
vt 0.75601 0.73180
vt 0.44494 0.82806
vt 0.75674 0.94024
vt 0.75674 0.82806
vt 0.44673 0.93948
vt 0.75812 0.99882
vt 0.75780 0.93910
vt 0.72199 0.28733
vt 0.63711 0.05879
vt 0.72199 0.05879
vt 0.33735 0.82127
vt 0.24727 0.91135
vt 0.24727 0.82127
vt 0.44456 0.94056
vt 0.35776 0.82634
vt 0.44456 0.82634
vt 0.44418 0.82833
vt 0.44494 0.94024
vt 0.44705 0.99921
vt 0.63711 0.28733
vt 0.33735 0.91135
vt 0.35776 0.94056
f 360/1079 361/1080 359/1081
f 362/1082 365/1083 361/1084
f 366/1085 363/1086 365/1087
f 364/1088 359/1089 363/1090
f 365/1091 359/1092 361/1093
f 362/1094 364/1095 366/1096
f 360/1079 362/1097 361/1080
f 362/1082 366/1098 365/1083
f 366/1085 364/1099 363/1086
f 364/1088 360/1100 359/1089
f 365/1091 363/1101 359/1092
f 362/1094 360/1102 364/1095
o armR
v -1.75000 3.00000 0.50000
v -1.75000 6.00000 0.50000
v -0.75000 3.00000 0.50000
v -0.75000 6.00000 0.50000
v -1.75000 3.00000 -0.50000
v -1.75000 6.00000 -0.50000
v -0.75000 3.00000 -0.50000
v -0.75000 6.00000 -0.50000
vt 0.44214 0.73330
vt 0.75804 0.82683
vt 0.75601 0.73180
vt 0.44494 0.82806
vt 0.75674 0.94024
vt 0.75674 0.82806
vt 0.44673 0.93948
vt 0.75812 0.99882
vt 0.75780 0.93910
vt 0.72199 0.28733
vt 0.63711 0.05879
vt 0.72199 0.05879
vt 0.33735 0.82127
vt 0.24727 0.91135
vt 0.24727 0.82127
vt 0.44456 0.94056
vt 0.35776 0.82634
vt 0.44456 0.82634
vt 0.44418 0.82833
vt 0.44494 0.94024
vt 0.44705 0.99921
vt 0.63711 0.28733
vt 0.33735 0.91135
vt 0.35776 0.94056
f 368/1103 369/1104 367/1105
f 370/1106 373/1107 369/1108
f 374/1109 371/1110 373/1111
f 372/1112 367/1113 371/1114
f 373/1115 367/1116 369/1117
f 370/1118 372/1119 374/1120
f 368/1103 370/1121 369/1104
f 370/1106 374/1122 373/1107
f 374/1109 372/1123 371/1110
f 372/1112 368/1124 367/1113
f 373/1115 371/1125 367/1116
f 370/1118 368/1126 372/1119
o legL
v 0.97500 0.00000 -0.50000
v 0.97500 3.00000 -0.50000
v 0.97500 0.00000 0.50000
v 0.97500 3.00000 0.50000
v -0.02500 0.00000 -0.50000
v -0.02500 3.00000 -0.50000
v -0.02500 0.00000 0.50000
v -0.02500 3.00000 0.50000
v -0.48800 1.83163 0.23689
v -0.39517 2.89268 0.23689
v -0.48800 1.83163 -0.23689
v -0.39517 2.89268 -0.23689
v -0.08052 1.73590 0.29673
v 0.02274 2.91619 0.29673
v -0.08052 1.73590 -0.29673
v 0.02274 2.91619 -0.29673
v -0.43455 1.76688 -0.29673
v -0.43455 1.76688 0.29673
v -0.33129 2.94716 0.29673
v -0.33129 2.94716 -0.29673
vt 0.40084 0.34953
vt 0.29601 0.00156
vt 0.40073 0.00150
vt 0.73372 0.34412
vt 0.61935 0.00163
vt 0.73682 0.00270
vt 0.49416 0.34281
vt 0.61850 0.00338
vt 0.49725 0.00198
vt 0.51532 0.34137
vt 0.38976 0.00331
vt 0.51532 0.00331
vt 0.74319 0.00810
vt 0.68702 0.06427
vt 0.68702 0.00810
vt 0.73554 0.01313
vt 0.68604 0.06263
vt 0.68604 0.01313
vt 0.40071 0.40260
vt 0.51511 0.48101
vt 0.51511 0.40260
vt 0.35101 0.47933
vt 0.32747 0.40087
vt 0.35101 0.40087
vt 0.30392 0.60090
vt 0.00587 0.00587
vt 0.30392 0.00587
vt 0.35090 0.47972
vt 0.32736 0.40126
vt 0.35090 0.40126
vt 0.37025 0.40016
vt 0.31976 0.48447
vt 0.31976 0.40016
vt 0.32022 0.48499
vt 0.37226 0.39810
vt 0.37226 0.48499
vt 0.52154 0.39269
vt 0.39429 0.39269
vt 0.39429 0.49091
vt 0.40071 0.48101
vt 0.52154 0.49091
vt 0.29611 0.34959
vt 0.61625 0.34305
vt 0.61540 0.34420
vt 0.38976 0.34137
vt 0.74319 0.06427
vt 0.73554 0.06263
vt 0.32747 0.47933
vt 0.00587 0.60090
vt 0.32736 0.47972
vt 0.37025 0.48447
vt 0.32022 0.39810
f 376/1127 377/1128 375/1129
f 378/1130 381/1131 377/1132
f 382/1133 379/1134 381/1135
f 380/1136 375/1137 379/1138
f 381/1139 375/1140 377/1141
f 378/1142 380/1143 382/1144
f 384/1145 385/1146 383/1147
f 394/1148 389/1149 391/1150
f 390/1151 387/1152 389/1153
f 388/1154 392/1155 387/1156
f 389/1157 392/1158 391/1159
f 394/1160 388/1161 390/1162
f 385/1146 392/1163 383/1147
f 383/1147 393/1164 384/1145
f 384/1145 394/1165 386/1166
f 385/1146 394/1165 391/1167
f 376/1127 378/1168 377/1128
f 378/1130 382/1169 381/1131
f 382/1133 380/1170 379/1134
f 380/1136 376/1171 375/1137
f 381/1139 379/1172 375/1140
f 378/1142 376/1173 380/1143
f 384/1145 386/1166 385/1146
f 394/1148 390/1174 389/1149
f 390/1151 388/1175 387/1152
f 388/1154 393/1176 392/1155
f 389/1157 387/1177 392/1158
f 394/1160 393/1178 388/1161
f 385/1146 391/1167 392/1163
f 383/1147 392/1163 393/1164
f 384/1145 393/1164 394/1165
f 385/1146 386/1166 394/1165
o legL
v 0.47101 0.09196 1.37500
v 0.47101 1.35804 1.37500
v 0.47101 0.09196 -0.62500
v 0.47101 1.01091 -0.32045
v 1.11696 0.09196 1.37500
v 0.99194 1.35804 1.37500
v 1.11696 0.09196 -0.62500
v 0.99194 1.01091 -0.32045
v 0.47899 0.09196 1.37500
v 0.47899 1.35804 1.37500
v 0.47899 0.09196 -0.62500
v 0.47899 1.01091 -0.32045
v -0.16696 0.09196 1.37500
v -0.04195 1.35804 1.37500
v -0.16696 0.09196 -0.62500
v -0.04195 1.01091 -0.32045
vt 0.66269 0.52219
vt 0.42276 0.07952
vt 0.66269 0.00000
vt 0.17010 0.05935
vt 0.10757 0.03558
vt 0.15605 0.02316
vt 0.25831 0.07738
vt 0.00366 0.00919
vt 0.25359 0.00919
vt 0.09479 0.12732
vt 0.01796 0.02361
vt 0.10484 0.02903
vt 0.33059 0.58186
vt 0.38871 0.71121
vt 0.28964 0.62974
vt 0.20564 0.07994
vt 0.10503 0.04054
vt 0.19492 0.01443
vt 0.66269 0.52219
vt 0.42276 0.07952
vt 0.33213 0.52219
vt 0.17010 0.05935
vt 0.10757 0.03558
vt 0.10947 0.06552
vt 0.00366 0.00919
vt 0.25831 0.07738
vt 0.25359 0.00919
vt 0.01796 0.02361
vt 0.09479 0.12732
vt 0.10484 0.02903
vt 0.38871 0.71121
vt 0.33059 0.58186
vt 0.28964 0.62974
vt 0.10503 0.04054
vt 0.20564 0.07994
vt 0.19492 0.01443
vt 0.33213 0.52219
vt 0.10947 0.06552
vt 0.04376 0.12634
vt 0.02665 0.11561
vt 0.42066 0.66985
vt 0.12894 0.08885
vt 0.66269 0.00000
vt 0.15605 0.02316
vt 0.04376 0.12634
vt 0.02665 0.11561
vt 0.42066 0.66985
vt 0.12894 0.08885
f 395/1179 398/1180 397/1181
f 397/1182 402/1183 401/1184
f 402/1185 399/1186 401/1187
f 400/1188 395/1189 399/1190
f 401/1191 395/1192 397/1193
f 398/1194 400/1195 402/1196
f 403/1197 406/1198 404/1199
f 405/1200 410/1201 406/1202
f 407/1203 410/1204 409/1205
f 403/1206 408/1207 407/1208
f 403/1209 409/1210 405/1211
f 408/1212 406/1213 410/1214
f 395/1179 396/1215 398/1180
f 397/1182 398/1216 402/1183
f 402/1185 400/1217 399/1186
f 400/1188 396/1218 395/1189
f 401/1191 399/1219 395/1192
f 398/1194 396/1220 400/1195
f 403/1197 405/1221 406/1198
f 405/1200 409/1222 410/1201
f 407/1203 408/1223 410/1204
f 403/1206 404/1224 408/1207
f 403/1209 407/1225 409/1210
f 408/1212 404/1226 406/1213
o legR
v -0.97500 0.00000 -0.50000
v -0.97500 3.00000 -0.50000
v -0.97500 0.00000 0.50000
v -0.97500 3.00000 0.50000
v 0.02500 0.00000 -0.50000
v 0.02500 3.00000 -0.50000
v 0.02500 0.00000 0.50000
v 0.02500 3.00000 0.50000
v 0.48800 1.83163 0.23689
v 0.39517 2.89268 0.23689
v 0.48800 1.83163 -0.23689
v 0.39517 2.89268 -0.23689
v 0.08052 1.73590 0.29673
v -0.02274 2.91619 0.29673
v 0.08052 1.73590 -0.29673
v -0.02274 2.91619 -0.29673
v 0.43455 1.76688 -0.29673
v 0.43455 1.76688 0.29673
v 0.33129 2.94716 0.29673
v 0.33129 2.94716 -0.29673
vt 0.40084 0.34953
vt 0.29601 0.00156
vt 0.40073 0.00150
vt 0.73372 0.34412
vt 0.61935 0.00163
vt 0.73682 0.00270
vt 0.49416 0.34281
vt 0.61850 0.00338
vt 0.49725 0.00198
vt 0.51532 0.34137
vt 0.38976 0.00331
vt 0.51532 0.00331
vt 0.74319 0.00810
vt 0.68702 0.06427
vt 0.68702 0.00810
vt 0.73554 0.01313
vt 0.68604 0.06263
vt 0.68604 0.01313
vt 0.40071 0.40260
vt 0.51511 0.48101
vt 0.51511 0.40260
vt 0.35101 0.47933
vt 0.32747 0.40087
vt 0.35101 0.40087
vt 0.30392 0.60090
vt 0.00587 0.00587
vt 0.30392 0.00587
vt 0.35090 0.47972
vt 0.32736 0.40126
vt 0.35090 0.40126
vt 0.37025 0.40016
vt 0.31976 0.48447
vt 0.31976 0.40016
vt 0.32022 0.48499
vt 0.37226 0.39810
vt 0.37226 0.48499
vt 0.52154 0.39269
vt 0.39429 0.39269
vt 0.39429 0.49091
vt 0.40071 0.48101
vt 0.52154 0.49091
vt 0.29611 0.34959
vt 0.61625 0.34305
vt 0.61540 0.34420
vt 0.38976 0.34137
vt 0.74319 0.06427
vt 0.73554 0.06263
vt 0.32747 0.47933
vt 0.00587 0.60090
vt 0.32736 0.47972
vt 0.37025 0.48447
vt 0.32022 0.39810
f 412/1227 413/1228 411/1229
f 414/1230 417/1231 413/1232
f 418/1233 415/1234 417/1235
f 416/1236 411/1237 415/1238
f 417/1239 411/1240 413/1241
f 414/1242 416/1243 418/1244
f 420/1245 421/1246 419/1247
f 430/1248 425/1249 427/1250
f 426/1251 423/1252 425/1253
f 424/1254 428/1255 423/1256
f 425/1257 428/1258 427/1259
f 430/1260 424/1261 426/1262
f 421/1246 428/1263 419/1247
f 419/1247 429/1264 420/1245
f 420/1245 430/1265 422/1266
f 421/1246 430/1265 427/1267
f 412/1227 414/1268 413/1228
f 414/1230 418/1269 417/1231
f 418/1233 416/1270 415/1234
f 416/1236 412/1271 411/1237
f 417/1239 415/1272 411/1240
f 414/1242 412/1273 416/1243
f 420/1245 422/1266 421/1246
f 430/1248 426/1274 425/1249
f 426/1251 424/1275 423/1252
f 424/1254 429/1276 428/1255
f 425/1257 423/1277 428/1258
f 430/1260 429/1278 424/1261
f 421/1246 427/1267 428/1263
f 419/1247 428/1263 429/1264
f 420/1245 429/1264 430/1265
f 421/1246 422/1266 430/1265
o legR
v -0.47101 0.09196 1.37500
v -0.47101 1.35804 1.37500
v -0.47101 0.09196 -0.62500
v -0.47101 1.01091 -0.32045
v -1.11696 0.09196 1.37500
v -0.99194 1.35804 1.37500
v -1.11696 0.09196 -0.62500
v -0.99194 1.01091 -0.32045
v -0.47899 0.09196 1.37500
v -0.47899 1.35804 1.37500
v -0.47899 0.09196 -0.62500
v -0.47899 1.01091 -0.32045
v 0.16696 0.09196 1.37500
v 0.04195 1.35804 1.37500
v 0.16696 0.09196 -0.62500
v 0.04195 1.01091 -0.32045
vt 0.66269 0.52219
vt 0.42276 0.07952
vt 0.66269 0.00000
vt 0.17010 0.05935
vt 0.10757 0.03558
vt 0.15605 0.02316
vt 0.25831 0.07738
vt 0.00366 0.00919
vt 0.25359 0.00919
vt 0.09479 0.12732
vt 0.01796 0.02361
vt 0.10484 0.02903
vt 0.33059 0.58186
vt 0.38871 0.71121
vt 0.28964 0.62974
vt 0.20564 0.07994
vt 0.10503 0.04054
vt 0.19492 0.01443
vt 0.66269 0.52219
vt 0.42276 0.07952
vt 0.33213 0.52219
vt 0.17010 0.05935
vt 0.10757 0.03558
vt 0.10947 0.06552
vt 0.00366 0.00919
vt 0.25831 0.07738
vt 0.25359 0.00919
vt 0.01796 0.02361
vt 0.09479 0.12732
vt 0.10484 0.02903
vt 0.38871 0.71121
vt 0.33059 0.58186
vt 0.28964 0.62974
vt 0.10503 0.04054
vt 0.20564 0.07994
vt 0.19492 0.01443
vt 0.33213 0.52219
vt 0.10947 0.06552
vt 0.04376 0.12634
vt 0.02665 0.11561
vt 0.42066 0.66985
vt 0.12894 0.08885
vt 0.66269 0.00000
vt 0.15605 0.02316
vt 0.04376 0.12634
vt 0.02665 0.11561
vt 0.42066 0.66985
vt 0.12894 0.08885
f 431/1279 434/1280 433/1281
f 433/1282 438/1283 437/1284
f 438/1285 435/1286 437/1287
f 436/1288 431/1289 435/1290
f 437/1291 431/1292 433/1293
f 434/1294 436/1295 438/1296
f 439/1297 442/1298 440/1299
f 441/1300 446/1301 442/1302
f 443/1303 446/1304 445/1305
f 439/1306 444/1307 443/1308
f 439/1309 445/1310 441/1311
f 444/1312 442/1313 446/1314
f 431/1279 432/1315 434/1280
f 433/1282 434/1316 438/1283
f 438/1285 436/1317 435/1286
f 436/1288 432/1318 431/1289
f 437/1291 435/1319 431/1292
f 434/1294 432/1320 436/1295
f 439/1297 441/1321 442/1298
f 441/1300 445/1322 446/1301
f 443/1303 444/1323 446/1304
f 439/1306 440/1324 444/1307
f 439/1309 443/1325 445/1310
f 444/1312 440/1326 442/1313
