# STALKER Armor converted geometry (MC model units, pivot-relative)
v 2.26341 -2.29173 -2.28424
v -2.26341 10.30000 -2.28424
v 2.26341 10.30000 -2.28424
v -2.26341 -2.29173 -2.28424
v -2.26341 10.30000 2.24257
v -2.26341 10.30000 -2.28424
v -2.26341 -2.29173 2.24257
v 2.26341 10.30000 2.24257
v -2.26341 10.30000 2.24257
v 2.26341 -2.29173 2.24257
v 2.26341 10.30000 -2.28424
v 2.26341 10.30000 2.24257
v -2.26341 10.30000 2.24257
v 2.26341 10.30000 -2.28424
v -2.26341 10.30000 -2.28424
v -2.26341 -2.29173 -2.28424
v 2.26341 -2.29173 2.24257
v -2.26341 -2.29173 2.24257
v -2.57786 -2.46770 -2.41968
v -2.57786 2.31266 2.73604
v -2.57786 2.31266 -2.41968
v -2.57786 -2.46770 2.73604
v 2.57786 2.31266 2.73604
v -2.57786 2.31266 2.73604
v 2.57786 -2.46770 2.73604
v 2.57786 2.31266 -2.41968
v 2.57786 2.31266 2.73604
v 2.57786 -2.46770 -2.41968
v -2.57786 2.31266 -2.41968
v 2.57786 2.31266 -2.41968
v 2.57786 2.31266 2.73604
v -2.57786 2.31266 -2.41968
v -2.57786 2.31266 2.73604
v -2.57786 -2.46770 2.73604
v 2.57786 -2.46770 -2.41968
v 2.57786 -2.46770 2.73604
v 2.26341 -2.29173 -2.28424
v -2.26341 -2.29173 -2.28424
v -2.26341 10.30000 -2.28424
v -2.26341 -2.29173 -2.28424
v -2.26341 -2.29173 2.24257
v -2.26341 10.30000 2.24257
v -2.26341 -2.29173 2.24257
v 2.26341 -2.29173 2.24257
v 2.26341 10.30000 2.24257
v 2.26341 -2.29173 2.24257
v 2.26341 -2.29173 -2.28424
v 2.26341 10.30000 -2.28424
v -2.26341 10.30000 2.24257
v 2.26341 10.30000 2.24257
v 2.26341 10.30000 -2.28424
v -2.26341 -2.29173 -2.28424
v 2.26341 -2.29173 -2.28424
v 2.26341 -2.29173 2.24257
v -2.57786 -2.46770 -2.41968
v -2.57786 -2.46770 2.73604
v -2.57786 2.31266 2.73604
v -2.57786 -2.46770 2.73604
v 2.57786 -2.46770 2.73604
v 2.57786 2.31266 2.73604
v 2.57786 -2.46770 2.73604
v 2.57786 -2.46770 -2.41968
v 2.57786 2.31266 -2.41968
v 2.57786 -2.46770 -2.41968
v -2.57786 -2.46770 -2.41968
v -2.57786 2.31266 -2.41968
v 2.57786 2.31266 2.73604
v 2.57786 2.31266 -2.41968
v -2.57786 2.31266 -2.41968
v -2.57786 -2.46770 2.73604
v -2.57786 -2.46770 -2.41968
v 2.57786 -2.46770 -2.41968
vt 0.39611 0.98196
vt 0.74656 0.86515
vt 0.74656 0.98196
vt 0.39641 0.86539
vt 0.74577 0.74894
vt 0.74577 0.86539
vt 0.38318 0.99689
vt 0.73797 0.93312
vt 0.73797 0.99689
vt 0.38349 0.93290
vt 0.73828 0.86913
vt 0.73828 0.93290
vt 0.20069 0.97110
vt 0.38403 0.78775
vt 0.38403 0.97110
vt 0.18913 0.97110
vt 0.00578 0.78775
vt 0.18913 0.78775
vt 0.37065 0.84121
vt 0.50498 0.70688
vt 0.50498 0.84121
vt 0.36376 0.93648
vt 0.46839 0.83185
vt 0.46839 0.93648
vt 0.39120 0.82670
vt 0.49416 0.76801
vt 0.47203 0.84883
vt 0.36876 0.96127
vt 0.51249 0.81754
vt 0.51249 0.96127
vt 0.21460 0.56738
vt 0.00578 0.77620
vt 0.00578 0.56738
vt 0.43498 0.56738
vt 0.22616 0.77620
vt 0.22616 0.56738
vt 0.39611 0.98196
vt 0.39611 0.86515
vt 0.74656 0.86515
vt 0.39641 0.86539
vt 0.39641 0.74894
vt 0.74577 0.74894
vt 0.38318 0.99689
vt 0.38318 0.93312
vt 0.73797 0.93312
vt 0.38349 0.93290
vt 0.38349 0.86913
vt 0.73828 0.86913
vt 0.20069 0.97110
vt 0.20069 0.78775
vt 0.38403 0.78775
vt 0.18913 0.97110
vt 0.00578 0.97110
vt 0.00578 0.78775
vt 0.37065 0.84121
vt 0.37065 0.70688
vt 0.50498 0.70688
vt 0.36376 0.93648
vt 0.36376 0.83185
vt 0.46839 0.83185
vt 0.39120 0.82670
vt 0.41334 0.74587
vt 0.49416 0.76801
vt 0.36876 0.96127
vt 0.36876 0.81754
vt 0.51249 0.81754
vt 0.21460 0.56738
vt 0.21460 0.77620
vt 0.00578 0.77620
vt 0.43498 0.56738
vt 0.43498 0.77620
vt 0.22616 0.77620
vn 0.00000 -0.00000 -1.00000
vn 0.00000 -0.00000 -1.00000
vn 0.00000 -0.00000 -1.00000
vn -1.00000 -0.00000 -0.00000
vn -1.00000 -0.00000 -0.00000
vn -1.00000 -0.00000 -0.00000
vn -0.00000 -0.00000 1.00000
vn -0.00000 -0.00000 1.00000
vn -0.00000 -0.00000 1.00000
vn 1.00000 -0.00000 0.00000
vn 1.00000 -0.00000 0.00000
vn 1.00000 -0.00000 0.00000
vn 0.00000 1.00000 -0.00000
vn 0.00000 1.00000 -0.00000
vn 0.00000 1.00000 -0.00000
vn 0.00000 -1.00000 0.00000
vn 0.00000 -1.00000 0.00000
vn 0.00000 -1.00000 0.00000
vn -1.00000 -0.00000 -0.00000
vn -1.00000 -0.00000 -0.00000
vn -1.00000 -0.00000 -0.00000
vn -0.00000 -0.00000 1.00000
vn -0.00000 -0.00000 1.00000
vn -0.00000 -0.00000 1.00000
vn 1.00000 -0.00000 0.00000
vn 1.00000 -0.00000 0.00000
vn 1.00000 -0.00000 0.00000
vn 0.00000 -0.00000 -1.00000
vn 0.00000 -0.00000 -1.00000
vn 0.00000 -0.00000 -1.00000
vn 0.00000 1.00000 -0.00000
vn 0.00000 1.00000 -0.00000
vn 0.00000 1.00000 -0.00000
vn 0.00000 -1.00000 0.00000
vn 0.00000 -1.00000 0.00000
vn 0.00000 -1.00000 0.00000
vn 0.00000 -0.00000 -1.00000
vn 0.00000 -0.00000 -1.00000
vn 0.00000 -0.00000 -1.00000
vn -1.00000 -0.00000 -0.00000
vn -1.00000 -0.00000 -0.00000
vn -1.00000 -0.00000 -0.00000
vn -0.00000 -0.00000 1.00000
vn -0.00000 -0.00000 1.00000
vn -0.00000 -0.00000 1.00000
vn 1.00000 -0.00000 0.00000
vn 1.00000 -0.00000 0.00000
vn 1.00000 -0.00000 0.00000
vn 0.00000 1.00000 -0.00000
vn 0.00000 1.00000 -0.00000
vn 0.00000 1.00000 -0.00000
vn 0.00000 -1.00000 0.00000
vn 0.00000 -1.00000 0.00000
vn 0.00000 -1.00000 0.00000
vn -1.00000 -0.00000 -0.00000
vn -1.00000 -0.00000 -0.00000
vn -1.00000 -0.00000 -0.00000
vn -0.00000 -0.00000 1.00000
vn -0.00000 -0.00000 1.00000
vn -0.00000 -0.00000 1.00000
vn 1.00000 -0.00000 0.00000
vn 1.00000 -0.00000 0.00000
vn 1.00000 -0.00000 0.00000
vn 0.00000 -0.00000 -1.00000
vn 0.00000 -0.00000 -1.00000
vn 0.00000 -0.00000 -1.00000
vn 0.00000 1.00000 -0.00000
vn 0.00000 1.00000 -0.00000
vn 0.00000 1.00000 -0.00000
vn 0.00000 -1.00000 0.00000
vn 0.00000 -1.00000 0.00000
vn 0.00000 -1.00000 0.00000
f 1/1/1 2/2/2 3/3/3
f 4/4/4 5/5/5 6/6/6
f 7/7/7 8/8/8 9/9/9
f 10/10/10 11/11/11 12/12/12
f 13/13/13 14/14/14 15/15/15
f 16/16/16 17/17/17 18/18/18
f 19/19/19 20/20/20 21/21/21
f 22/22/22 23/23/23 24/24/24
f 25/25/25 26/26/26 27/27/27
f 28/28/28 29/29/29 30/30/30
f 31/31/31 32/32/32 33/33/33
f 34/34/34 35/35/35 36/36/36
f 37/37/37 38/38/38 39/39/39
f 40/40/40 41/41/41 42/42/42
f 43/43/43 44/44/44 45/45/45
f 46/46/46 47/47/47 48/48/48
f 49/49/49 50/50/50 51/51/51
f 52/52/52 53/53/53 54/54/54
f 55/55/55 56/56/56 57/57/57
f 58/58/58 59/59/59 60/60/60
f 61/61/61 62/62/62 63/63/63
f 64/64/64 65/65/65 66/66/66
f 67/67/67 68/68/68 69/69/69
f 70/70/70 71/71/71 72/72/72
