# STALKER Armor converted geometry (MC model units, pivot-relative)
v -0.01812 11.98215 -5.85000
v -0.01812 7.79826 1.52521
v -0.01812 11.98215 2.85000
v -0.01812 11.98215 2.85000
v 2.34962 7.79826 1.52521
v 2.91782 11.98215 2.85000
v 2.34962 7.79826 1.52521
v 2.91782 11.98215 -5.85000
v 2.91782 11.98215 2.85000
v 2.34962 6.21785 -5.85000
v -0.01812 11.98215 -5.85000
v 2.91782 11.98215 -5.85000
v 2.91782 11.98215 2.85000
v -0.01812 11.98215 -5.85000
v -0.01812 11.98215 2.85000
v -0.01812 7.79826 1.52521
v 2.34962 6.21785 -5.85000
v 2.34962 7.79826 1.52521
v 0.01812 11.98215 -5.85000
v 0.01812 7.79826 1.52521
v 0.01812 6.21785 -5.85000
v 0.01812 11.98215 2.85000
v -2.34962 7.79826 1.52521
v 0.01812 7.79826 1.52521
v -2.91782 11.98215 -5.85000
v -2.34962 7.79826 1.52521
v -2.91782 11.98215 2.85000
v 0.01812 11.98215 -5.85000
v -2.34962 6.21785 -5.85000
v -2.91782 11.98215 -5.85000
v 0.01812 11.98215 -5.85000
v -2.91782 11.98215 2.85000
v 0.01812 11.98215 2.85000
v -2.34962 6.21785 -5.85000
v 0.01812 7.79826 1.52521
v -2.34962 7.79826 1.52521
v -0.01812 11.98215 -5.85000
v -0.01812 6.21785 -5.85000
v -0.01812 7.79826 1.52521
v -0.01812 11.98215 2.85000
v -0.01812 7.79826 1.52521
v 2.34962 7.79826 1.52521
v 2.34962 7.79826 1.52521
v 2.34962 6.21785 -5.85000
v 2.91782 11.98215 -5.85000
v 2.34962 6.21785 -5.85000
v -0.01812 6.21785 -5.85000
v -0.01812 11.98215 -5.85000
v 2.91782 11.98215 2.85000
v 2.91782 11.98215 -5.85000
v -0.01812 11.98215 -5.85000
v -0.01812 7.79826 1.52521
v -0.01812 6.21785 -5.85000
v 2.34962 6.21785 -5.85000
v 0.01812 11.98215 -5.85000
v 0.01812 11.98215 2.85000
v 0.01812 7.79826 1.52521
v 0.01812 11.98215 2.85000
v -2.91782 11.98215 2.85000
v -2.34962 7.79826 1.52521
v -2.91782 11.98215 -5.85000
v -2.34962 6.21785 -5.85000
v -2.34962 7.79826 1.52521
v 0.01812 11.98215 -5.85000
v 0.01812 6.21785 -5.85000
v -2.34962 6.21785 -5.85000
v 0.01812 11.98215 -5.85000
v -2.91782 11.98215 -5.85000
v -2.91782 11.98215 2.85000
v -2.34962 6.21785 -5.85000
v 0.01812 6.21785 -5.85000
v 0.01812 7.79826 1.52521
vt 0.66269 0.52219
vt 0.42276 0.07952
vt 0.66269 0.00000
vt 0.57628 0.51660
vt 0.49598 0.47946
vt 0.56109 0.46755
vt 0.57029 0.51429
vt 0.35328 0.46665
vt 0.56544 0.46396
vt 0.48955 0.51770
vt 0.43659 0.45685
vt 0.49099 0.45596
vt 0.58706 0.52407
vt 0.49262 0.55846
vt 0.58769 0.55888
vt 0.38437 0.55588
vt 0.46312 0.58726
vt 0.37758 0.58763
vt 0.66269 0.52219
vt 0.42276 0.07952
vt 0.33213 0.52219
vt 0.57628 0.51660
vt 0.49598 0.47946
vt 0.49572 0.51913
vt 0.35328 0.46665
vt 0.57029 0.51429
vt 0.56544 0.46396
vt 0.43659 0.45685
vt 0.48955 0.51770
vt 0.49099 0.45596
vt 0.49262 0.55846
vt 0.58706 0.52407
vt 0.58769 0.55888
vt 0.46312 0.58726
vt 0.38437 0.55588
vt 0.37758 0.58763
vt 0.66269 0.52219
vt 0.33213 0.52219
vt 0.42276 0.07952
vt 0.57628 0.51660
vt 0.49572 0.51913
vt 0.49598 0.47946
vt 0.57029 0.51429
vt 0.38877 0.55278
vt 0.35328 0.46665
vt 0.48955 0.51770
vt 0.44652 0.51375
vt 0.43659 0.45685
vt 0.58706 0.52407
vt 0.49403 0.52960
vt 0.49262 0.55846
vt 0.38437 0.55588
vt 0.45406 0.56176
vt 0.46312 0.58726
vt 0.66269 0.52219
vt 0.66269 0.00000
vt 0.42276 0.07952
vt 0.57628 0.51660
vt 0.56109 0.46755
vt 0.49598 0.47946
vt 0.35328 0.46665
vt 0.38877 0.55278
vt 0.57029 0.51429
vt 0.43659 0.45685
vt 0.44652 0.51375
vt 0.48955 0.51770
vt 0.49262 0.55846
vt 0.49403 0.52960
vt 0.58706 0.52407
vt 0.46312 0.58726
vt 0.45406 0.56176
vt 0.38437 0.55588
vn -1.00000 -0.00000 -0.00000
vn -1.00000 -0.00000 -0.00000
vn -1.00000 -0.00000 -0.00000
vn 0.00000 -0.31461 0.94922
vn 0.00000 -0.31461 0.94922
vn 0.00000 -0.31461 0.94922
vn 0.99087 -0.13480 -0.00000
vn 0.99087 -0.13480 -0.00000
vn 0.99087 -0.13480 -0.00000
vn 0.00000 -0.00000 -1.00000
vn 0.00000 -0.00000 -1.00000
vn 0.00000 -0.00000 -1.00000
vn 0.00000 1.00000 -0.00000
vn 0.00000 1.00000 -0.00000
vn 0.00000 1.00000 -0.00000
vn 0.00000 -0.97967 0.20059
vn 0.00000 -0.97967 0.20059
vn 0.00000 -0.97967 0.20059
vn 1.00000 -0.00000 0.00000
vn 1.00000 -0.00000 0.00000
vn 1.00000 -0.00000 0.00000
vn 0.00000 -0.31461 0.94922
vn 0.00000 -0.31461 0.94922
vn 0.00000 -0.31461 0.94922
vn -0.99087 -0.13480 -0.00000
vn -0.99087 -0.13480 -0.00000
vn -0.99087 -0.13480 -0.00000
vn 0.00000 -0.00000 -1.00000
vn 0.00000 -0.00000 -1.00000
vn 0.00000 -0.00000 -1.00000
vn 0.00000 1.00000 -0.00000
vn 0.00000 1.00000 -0.00000
vn 0.00000 1.00000 -0.00000
vn 0.00000 -0.97967 0.20059
vn 0.00000 -0.97967 0.20059
vn 0.00000 -0.97967 0.20059
vn -1.00000 -0.00000 -0.00000
vn -1.00000 -0.00000 -0.00000
vn -1.00000 -0.00000 -0.00000
vn 0.00000 -0.31461 0.94922
vn 0.00000 -0.31461 0.94922
vn 0.00000 -0.31461 0.94922
vn 0.99496 -0.09820 0.02010
vn 0.99496 -0.09820 0.02010
vn 0.99496 -0.09820 0.02010
vn 0.00000 -0.00000 -1.00000
vn 0.00000 -0.00000 -1.00000
vn 0.00000 -0.00000 -1.00000
vn 0.00000 1.00000 -0.00000
vn 0.00000 1.00000 -0.00000
vn 0.00000 1.00000 -0.00000
vn 0.00000 -0.97967 0.20059
vn 0.00000 -0.97967 0.20059
vn 0.00000 -0.97967 0.20059
vn 1.00000 -0.00000 0.00000
vn 1.00000 -0.00000 0.00000
vn 1.00000 -0.00000 0.00000
vn 0.00000 -0.31461 0.94922
vn 0.00000 -0.31461 0.94922
vn 0.00000 -0.31461 0.94922
vn -0.99496 -0.09820 0.02010
vn -0.99496 -0.09820 0.02010
vn -0.99496 -0.09820 0.02010
vn 0.00000 -0.00000 -1.00000
vn 0.00000 -0.00000 -1.00000
vn 0.00000 -0.00000 -1.00000
vn 0.00000 1.00000 -0.00000
vn 0.00000 1.00000 -0.00000
vn 0.00000 1.00000 -0.00000
vn 0.00000 -0.97967 0.20059
vn 0.00000 -0.97967 0.20059
vn 0.00000 -0.97967 0.20059
f 1/1/1 2/2/2 3/3/3
f 4/4/4 5/5/5 6/6/6
f 7/7/7 8/8/8 9/9/9
f 10/10/10 11/11/11 12/12/12
f 13/13/13 14/14/14 15/15/15
f 16/16/16 17/17/17 18/18/18
f 19/19/19 20/20/20 21/21/21
f 22/22/22 23/23/23 24/24/24
f 25/25/25 26/26/26 27/27/27
f 28/28/28 29/29/29 30/30/30
f 31/31/31 32/32/32 33/33/33
f 34/34/34 35/35/35 36/36/36
f 37/37/37 38/38/38 39/39/39
f 40/40/40 41/41/41 42/42/42
f 43/43/43 44/44/44 45/45/45
f 46/46/46 47/47/47 48/48/48
f 49/49/49 50/50/50 51/51/51
f 52/52/52 53/53/53 54/54/54
f 55/55/55 56/56/56 57/57/57
f 58/58/58 59/59/59 60/60/60
f 61/61/61 62/62/62 63/63/63
f 64/64/64 65/65/65 66/66/66
f 67/67/67 68/68/68 69/69/69
f 70/70/70 71/71/71 72/72/72
