# STALKER Armor converted geometry (MC model units, pivot-relative)
v -4.24351 11.83377 -3.17291
v -4.24351 12.97100 3.80487
v -4.24351 12.97100 -3.17291
v -4.24351 11.83376 3.80487
v 0.02521 12.97100 3.80487
v -4.24351 12.97100 3.80487
v 0.02077 11.66684 3.58687
v 0.02077 13.13792 -2.95491
v 0.02077 13.13792 3.58687
v 0.02521 11.83377 -3.17291
v -4.24351 12.97100 -3.17291
v 0.02521 12.97100 -3.17291
v 0.02077 13.13792 3.58687
v -4.11014 13.13792 -2.95491
v -4.11014 13.13792 3.58687
v -2.04469 -0.09099 3.58687
v 0.02077 -0.09099 -2.95491
v 0.02077 -0.09099 3.58687
v -2.42792 7.59157 4.21914
v -2.29362 7.02427 4.18494
v -0.00274 7.55343 4.25349
v 0.02077 8.14308 -2.95491
v 0.02077 1.57599 3.58687
v 0.02077 1.12150 -2.95491
v -5.11371 4.15265 -3.31146
v 0.01892 7.55343 -3.92123
v -1.64185 1.44024 -3.51471
v -5.11371 4.15265 3.94343
v -4.34559 -0.38020 -3.31146
v -4.33571 -0.47116 3.94343
v 0.02077 1.12150 -2.95491
v 0.02077 -0.09099 3.58687
v 0.02077 -0.09099 -2.95491
v -1.43770 1.12150 -2.95491
v 0.02077 -0.09099 -2.95491
v -2.04469 -0.09099 -2.95491
v -2.37951 -0.24923 -3.31146
v -4.33571 -0.47116 3.94343
v -4.34559 -0.38020 -3.31146
v -1.43770 1.57600 3.58687
v 0.02077 -0.09099 3.58687
v 0.02077 1.57599 3.58687
v 0.01892 7.55343 -3.92123
v 0.02077 1.12150 -2.95491
v 0.00000 1.43869 -3.61117
v 0.00000 7.02734 4.22832
v 0.02077 1.57599 3.58687
v 0.02077 8.14308 3.58687
v -0.00274 7.55343 4.25349
v -4.11014 9.16281 3.58687
v -4.53836 8.73573 4.25349
v 0.01892 7.55343 -3.92123
v -4.11014 9.16281 -2.95491
v 0.02077 8.14308 -2.95491
v -4.53836 8.73573 4.25349
v -4.11014 9.16281 -2.95491
v -4.53836 8.73573 -3.62152
v -1.64185 1.44024 -3.51471
v -2.04469 -0.09099 -2.95491
v -2.37951 -0.24923 -3.31146
v 0.00000 1.43869 -3.61117
v -1.43770 1.12150 -2.95491
v -1.64185 1.44024 -3.51471
v -2.37951 -0.24923 -3.31146
v -2.04469 -0.09099 3.58687
v -2.22228 -0.39723 3.94343
v -1.47474 1.65577 3.94343
v -2.04469 -0.09099 3.58687
v -1.43770 1.57600 3.58687
v -2.29292 1.65542 3.94343
v -1.47474 1.65577 3.94343
v 0.02077 1.57599 3.58687
v -4.53836 8.73573 -3.62152
v -5.11371 4.15265 3.94343
v -4.53836 8.73573 4.25349
v 0.02077 11.66684 3.58687
v 0.02077 8.14308 -2.95491
v 0.02077 11.66684 -2.95491
v 0.02077 11.66684 -2.95491
v -4.11014 9.16281 -2.95491
v -4.11014 11.66684 -2.95491
v -4.11014 11.66684 -2.95491
v -4.11014 9.16281 3.58687
v -4.11014 11.66684 3.58687
v 0.02077 11.66684 3.58687
v -4.11014 9.16281 3.58687
v 0.02077 8.14308 3.58687
v -4.24351 12.97100 -3.17291
v -4.11014 13.13792 3.58687
v -4.11014 13.13792 -2.95491
v 0.02521 12.97100 3.80487
v -4.11014 13.13792 3.58687
v -4.24351 12.97100 3.80487
v 0.02521 11.83376 3.80487
v 0.02077 13.13792 3.58687
v 0.02521 12.97100 3.80487
v 0.02521 11.83377 -3.17291
v 0.02077 13.13792 -2.95491
v 0.02077 11.66684 -2.95491
v 0.02521 12.97100 -3.17291
v -4.11014 13.13792 -2.95491
v 0.02077 13.13792 -2.95491
v 0.02521 11.83377 -3.17291
v -4.11014 11.66684 -2.95491
v -4.24351 11.83377 -3.17291
v -4.24351 11.83377 -3.17291
v -4.11014 11.66684 3.58687
v -4.24351 11.83376 3.80487
v 0.02521 11.83376 3.80487
v -4.11014 11.66684 3.58687
v 0.02077 11.66684 3.58687
v 0.00000 7.03137 4.72243
v -2.23940 1.63179 4.43695
v 0.00000 1.63071 4.43695
v -2.29397 -0.06377 3.86302
v -2.29778 -0.66046 4.09329
v -2.29743 -0.08739 4.17920
v -2.29890 7.02857 4.67903
v -2.28101 9.36888 4.28637
v -2.29362 7.02427 4.18494
v -2.29362 7.02427 4.18494
v -2.23940 1.63179 4.43695
v -2.29890 7.02857 4.67903
v 0.00000 7.02734 4.22832
v 0.00000 1.63071 4.43695
v 0.00605 1.65434 3.94343
v -2.29432 -0.63683 3.83621
v 0.00000 -0.70378 4.09331
v -2.29778 -0.66046 4.09329
v 0.00605 1.65434 3.94343
v 0.00000 -0.70378 4.09331
v 0.00000 -0.68015 3.83619
v -2.29397 -0.06377 3.86302
v -2.29362 0.50930 3.88982
v 0.00000 -0.68015 3.83619
v -2.29743 -0.08739 4.17920
v -2.29778 -0.66046 4.09329
v 0.00000 -0.70378 4.09331
v 0.01309 9.37195 4.32975
v -2.28628 9.37318 4.56573
v 0.01134 9.37598 4.60913
v 0.00000 7.03137 4.72243
v -2.28628 9.37318 4.56573
v -2.29890 7.02857 4.67903
v 0.00000 7.02734 4.22832
v -2.28101 9.36888 4.28637
v 0.01309 9.37195 4.32975
v 0.00000 7.03137 4.72243
v 0.01309 9.37195 4.32975
v 0.01134 9.37598 4.60913
v -2.29292 1.65542 3.94343
v -2.90768 0.08967 3.88069
v -4.00511 0.48231 3.93430
v -2.90768 0.08967 3.88069
v -2.33752 -0.11792 4.17007
v -2.88624 0.07840 4.25599
v -2.29708 0.48567 4.26512
v -3.98366 0.47104 4.42782
v -2.88624 0.07840 4.25599
v -2.29397 -0.06377 3.86302
v -2.33752 -0.11792 4.17007
v -2.35897 -0.10665 3.85389
v -2.29362 0.50930 3.88982
v -2.35897 -0.10665 3.85389
v -2.90768 0.08967 3.88069
v -3.98366 0.47104 4.42782
v -3.62539 3.32674 3.99507
v -4.00511 0.48231 3.93430
v -2.29743 -0.08739 4.17920
v -2.88624 0.07840 4.25599
v -2.33752 -0.11792 4.17007
v -2.87594 3.28946 4.48254
v -2.95232 4.12838 4.53065
v -3.60394 3.31546 4.48859
v -2.23940 1.63179 4.43695
v -3.60394 3.31546 4.48859
v -3.98366 0.47104 4.42782
v -2.29292 1.65542 3.94343
v -2.87594 3.28946 4.48254
v -2.23940 1.63179 4.43695
v -2.29292 1.65542 3.94343
v -3.62539 3.32674 3.99507
v -2.92946 3.31309 3.98902
v -2.22432 4.42094 4.46784
v -2.97377 4.13965 4.03713
v -2.95232 4.12838 4.53065
v -2.87594 3.28946 4.48254
v -2.27784 4.44457 3.97432
v -2.22432 4.42094 4.46784
v -2.92946 3.31309 3.98902
v -2.97377 4.13965 4.03713
v -2.27784 4.44457 3.97432
v -3.60394 3.31546 4.48859
v -2.97377 4.13965 4.03713
v -3.62539 3.32674 3.99507
v -2.23940 1.63179 4.43695
v -2.87594 3.28946 4.48254
v -2.22432 4.42094 4.46784
v -3.44730 5.34311 4.13421
v -2.42792 7.59157 4.21914
v -3.44730 7.59157 4.20969
v -2.22228 -0.39723 3.94343
v -1.47474 1.65577 3.94343
v -2.29292 1.65542 3.94343
v 4.24351 12.97100 3.80487
v 4.24351 11.83377 -3.17291
v 4.24351 12.97100 -3.17291
v -0.02521 12.97100 3.80487
v 4.24351 11.83376 3.80487
v 4.24351 12.97100 3.80487
v -0.02077 13.13792 -2.95491
v -0.02077 11.66684 3.58687
v -0.02077 13.13792 3.58687
v 4.24351 12.97100 -3.17291
v -0.02521 11.83377 -3.17291
v -0.02521 12.97100 -3.17291
v 4.11014 13.13792 -2.95491
v -0.02077 13.13792 3.58687
v 4.11014 13.13792 3.58687
v -0.02077 -0.09099 -2.95491
v 2.04469 -0.09099 3.58687
v -0.02077 -0.09099 3.58687
v 2.42792 7.59157 4.21914
v 3.44730 7.59157 4.20969
v 4.53836 8.73573 4.25349
v -0.02077 8.14308 -2.95491
v -0.02077 1.57599 3.58687
v -0.02077 8.14308 3.58687
v 5.11371 4.15265 -3.31146
v 1.64185 1.44024 -3.51471
v -0.01892 7.55343 -3.92123
v 5.11371 4.15265 3.94343
v 4.34559 -0.38020 -3.31146
v 5.11371 4.15265 -3.31146
v -0.02077 1.12150 -2.95491
v -0.02077 -0.09099 3.58687
v -0.02077 1.57599 3.58687
v -0.02077 -0.09099 -2.95491
v 1.43770 1.12150 -2.95491
v 2.04469 -0.09099 -2.95491
v 2.37951 -0.24923 -3.31146
v 4.33571 -0.47116 3.94343
v 2.22228 -0.39723 3.94343
v -0.02077 -0.09099 3.58687
v 1.43770 1.57600 3.58687
v -0.02077 1.57599 3.58687
v -0.02077 1.12150 -2.95491
v -0.01892 7.55343 -3.92123
v 0.00000 1.43869 -3.61117
v -0.02077 1.57599 3.58687
v -0.00605 1.65434 3.94343
v 0.00000 7.02734 4.22832
v 4.11014 9.16281 3.58687
v 0.00274 7.55343 4.25349
v 4.53836 8.73573 4.25349
v -0.01892 7.55343 -3.92123
v 4.11014 9.16281 -2.95491
v 4.53836 8.73573 -3.62152
v 4.11014 9.16281 -2.95491
v 4.53836 8.73573 4.25349
v 4.53836 8.73573 -3.62152
v 2.04469 -0.09099 -2.95491
v 1.64185 1.44024 -3.51471
v 2.37951 -0.24923 -3.31146
v 1.43770 1.12150 -2.95491
v 0.00000 1.43869 -3.61117
v 1.64185 1.44024 -3.51471
v 2.04469 -0.09099 3.58687
v 2.37951 -0.24923 -3.31146
v 2.22228 -0.39723 3.94343
v 1.47474 1.65577 3.94343
v 2.04469 -0.09099 3.58687
v 2.22228 -0.39723 3.94343
v -0.02077 1.57599 3.58687
v 1.47474 1.65577 3.94343
v 2.29292 1.65542 3.94343
v 5.11371 4.15265 3.94343
v 4.53836 8.73573 -3.62152
v 4.53836 8.73573 4.25349
v -0.02077 8.14308 -2.95491
v -0.02077 11.66684 3.58687
v -0.02077 11.66684 -2.95491
v 4.11014 9.16281 -2.95491
v -0.02077 11.66684 -2.95491
v 4.11014 11.66684 -2.95491
v 4.11014 9.16281 3.58687
v 4.11014 11.66684 -2.95491
v 4.11014 11.66684 3.58687
v -0.02077 11.66684 3.58687
v 4.11014 9.16281 3.58687
v 4.11014 11.66684 3.58687
v 4.11014 13.13792 -2.95491
v 4.24351 12.97100 3.80487
v 4.24351 12.97100 -3.17291
v 4.11014 13.13792 3.58687
v -0.02521 12.97100 3.80487
v 4.24351 12.97100 3.80487
v -0.02077 13.13792 3.58687
v -0.02521 11.83376 3.80487
v -0.02521 12.97100 3.80487
v -0.02521 11.83377 -3.17291
v -0.02077 13.13792 -2.95491
v -0.02521 12.97100 -3.17291
v -0.02521 12.97100 -3.17291
v 4.11014 13.13792 -2.95491
v 4.24351 12.97100 -3.17291
v 4.11014 11.66684 -2.95491
v -0.02521 11.83377 -3.17291
v 4.24351 11.83377 -3.17291
v 4.11014 11.66684 3.58687
v 4.24351 11.83377 -3.17291
v 4.24351 11.83376 3.80487
v -0.02521 11.83376 3.80487
v 4.11014 11.66684 3.58687
v 4.24351 11.83376 3.80487
v 0.00000 7.03137 4.72243
v 2.23940 1.63179 4.43695
v 2.29890 7.02857 4.67903
v 2.29778 -0.66046 4.09329
v 2.29397 -0.06377 3.86302
v 2.29743 -0.08739 4.17920
v 2.28101 9.36888 4.28637
v 2.29890 7.02857 4.67903
v 2.29362 7.02427 4.18494
v 2.29362 7.02427 4.18494
v 2.23940 1.63179 4.43695
v 2.29292 1.65542 3.94343
v 0.00000 1.63071 4.43695
v 0.00000 7.02734 4.22832
v -0.00605 1.65434 3.94343
v 2.29432 -0.63683 3.83621
v 0.00000 -0.70378 4.09331
v 0.00000 -0.68015 3.83619
v -0.00605 1.65434 3.94343
v 0.00000 -0.70378 4.09331
v 0.00000 1.63071 4.43695
v 2.29362 0.50930 3.88982
v 2.29397 -0.06377 3.86302
v 0.00000 -0.68015 3.83619
v 2.29743 -0.08739 4.17920
v 2.29708 0.48567 4.26512
v 0.00000 -0.70378 4.09331
v -0.01309 9.37195 4.32975
v 2.28628 9.37318 4.56573
v 2.28101 9.36888 4.28637
v 2.28628 9.37318 4.56573
v 0.00000 7.03137 4.72243
v 2.29890 7.02857 4.67903
v 0.00000 7.02734 4.22832
v 2.28101 9.36888 4.28637
v 2.29362 7.02427 4.18494
v 0.00000 7.03137 4.72243
v -0.01309 9.37195 4.32975
v 0.00000 7.02734 4.22832
v 2.29292 1.65542 3.94343
v 2.90768 0.08967 3.88069
v 2.29362 0.50930 3.88982
v 2.90768 0.08967 3.88069
v 4.00511 0.48231 3.93430
v 2.88624 0.07840 4.25599
v 2.29708 0.48567 4.26512
v 3.98366 0.47104 4.42782
v 2.23940 1.63179 4.43695
v 2.29397 -0.06377 3.86302
v 2.33752 -0.11792 4.17007
v 2.29743 -0.08739 4.17920
v 2.29362 0.50930 3.88982
v 2.35897 -0.10665 3.85389
v 2.29397 -0.06377 3.86302
v 3.62539 3.32674 3.99507
v 3.98366 0.47104 4.42782
v 4.00511 0.48231 3.93430
v 2.29743 -0.08739 4.17920
v 2.88624 0.07840 4.25599
v 2.29708 0.48567 4.26512
v 2.95232 4.12838 4.53065
v 2.87594 3.28946 4.48254
v 3.60394 3.31546 4.48859
v 3.60394 3.31546 4.48859
v 2.23940 1.63179 4.43695
v 3.98366 0.47104 4.42782
v 2.87594 3.28946 4.48254
v 2.29292 1.65542 3.94343
v 2.23940 1.63179 4.43695
v 2.29292 1.65542 3.94343
v 3.62539 3.32674 3.99507
v 4.00511 0.48231 3.93430
v 2.22432 4.42094 4.46784
v 2.97377 4.13965 4.03713
v 2.27784 4.44457 3.97432
v 2.87594 3.28946 4.48254
v 2.27784 4.44457 3.97432
v 2.92946 3.31309 3.98902
v 2.92946 3.31309 3.98902
v 2.97377 4.13965 4.03713
v 3.62539 3.32674 3.99507
v 2.97377 4.13965 4.03713
v 3.60394 3.31546 4.48859
v 3.62539 3.32674 3.99507
v 2.23940 1.63179 4.43695
v 2.22432 4.42094 4.46784
v 2.87594 3.28946 4.48254
v 3.44730 5.34311 4.13421
v 2.42792 7.59157 4.21914
v 2.42812 5.34311 4.11562
v 3.44730 5.34311 4.13421
v 2.42812 5.34311 4.11562
v 2.29292 1.65542 3.94343
v -4.24351 11.83377 -3.17291
v -4.24351 11.83376 3.80487
v -4.24351 12.97100 3.80487
v -4.24351 11.83376 3.80487
v 0.02521 11.83376 3.80487
v 0.02521 12.97100 3.80487
v 0.02077 11.66684 3.58687
v 0.02077 11.66684 -2.95491
v 0.02077 13.13792 -2.95491
v 0.02521 11.83377 -3.17291
v -4.24351 11.83377 -3.17291
v -4.24351 12.97100 -3.17291
v 0.02077 13.13792 3.58687
v 0.02077 13.13792 -2.95491
v -4.11014 13.13792 -2.95491
v -2.04469 -0.09099 3.58687
v -2.04469 -0.09099 -2.95491
v 0.02077 -0.09099 -2.95491
v 0.00000 7.02734 4.22832
v -0.00274 7.55343 4.25349
v -2.29362 7.02427 4.18494
v -0.00274 7.55343 4.25349
v -4.53836 8.73573 4.25349
v -2.42792 7.59157 4.21914
v -4.53836 8.73573 4.25349
v -5.11371 4.15265 3.94343
v -3.44730 7.59157 4.20969
v -5.11371 4.15265 3.94343
v -3.44730 5.34311 4.13421
v -3.44730 7.59157 4.20969
v -2.42792 7.59157 4.21914
v -2.42812 5.34311 4.11562
v -2.29362 7.02427 4.18494
v -4.53836 8.73573 4.25349
v -3.44730 7.59157 4.20969
v -2.42792 7.59157 4.21914
v 0.02077 8.14308 -2.95491
v 0.02077 8.14308 3.58687
v 0.02077 1.57599 3.58687
v -5.11371 4.15265 -3.31146
v -4.53836 8.73573 -3.62152
v 0.01892 7.55343 -3.92123
v 0.01892 7.55343 -3.92123
v 0.00000 1.43869 -3.61117
v -1.64185 1.44024 -3.51471
v -1.64185 1.44024 -3.51471
v -2.37951 -0.24923 -3.31146
v -4.34559 -0.38020 -3.31146
v -4.34559 -0.38020 -3.31146
v -5.11371 4.15265 -3.31146
v -1.64185 1.44024 -3.51471
v -5.11371 4.15265 3.94343
v -5.11371 4.15265 -3.31146
v -4.34559 -0.38020 -3.31146
v 0.02077 1.12150 -2.95491
v 0.02077 1.57599 3.58687
v 0.02077 -0.09099 3.58687
v -1.43770 1.12150 -2.95491
v 0.02077 1.12150 -2.95491
v 0.02077 -0.09099 -2.95491
v -2.37951 -0.24923 -3.31146
v -2.22228 -0.39723 3.94343
v -4.33571 -0.47116 3.94343
v -1.43770 1.57600 3.58687
v -2.04469 -0.09099 3.58687
v 0.02077 -0.09099 3.58687
v 0.01892 7.55343 -3.92123
v 0.02077 8.14308 -2.95491
v 0.02077 1.12150 -2.95491
v 0.02077 8.14308 3.58687
v -0.00274 7.55343 4.25349
v 0.00000 7.02734 4.22832
v 0.00000 7.02734 4.22832
v 0.00605 1.65434 3.94343
v 0.02077 1.57599 3.58687
v -0.00274 7.55343 4.25349
v 0.02077 8.14308 3.58687
v -4.11014 9.16281 3.58687
v 0.01892 7.55343 -3.92123
v -4.53836 8.73573 -3.62152
v -4.11014 9.16281 -2.95491
v -4.53836 8.73573 4.25349
v -4.11014 9.16281 3.58687
v -4.11014 9.16281 -2.95491
v -1.64185 1.44024 -3.51471
v -1.43770 1.12150 -2.95491
v -2.04469 -0.09099 -2.95491
v 0.00000 1.43869 -3.61117
v 0.02077 1.12150 -2.95491
v -1.43770 1.12150 -2.95491
v -2.37951 -0.24923 -3.31146
v -2.04469 -0.09099 -2.95491
v -2.04469 -0.09099 3.58687
v -1.47474 1.65577 3.94343
v -2.22228 -0.39723 3.94343
v -2.04469 -0.09099 3.58687
v 0.02077 1.57599 3.58687
v 0.00605 1.65434 3.94343
v -2.29292 1.65542 3.94343
v -1.47474 1.65577 3.94343
v -1.43770 1.57600 3.58687
v 0.02077 1.57599 3.58687
v -4.53836 8.73573 -3.62152
v -5.11371 4.15265 -3.31146
v -5.11371 4.15265 3.94343
v 0.02077 11.66684 3.58687
v 0.02077 8.14308 3.58687
v 0.02077 8.14308 -2.95491
v 0.02077 11.66684 -2.95491
v 0.02077 8.14308 -2.95491
v -4.11014 9.16281 -2.95491
v -4.11014 11.66684 -2.95491
v -4.11014 9.16281 -2.95491
v -4.11014 9.16281 3.58687
v 0.02077 11.66684 3.58687
v -4.11014 11.66684 3.58687
v -4.11014 9.16281 3.58687
v -4.24351 12.97100 -3.17291
v -4.24351 12.97100 3.80487
v -4.11014 13.13792 3.58687
v 0.02521 12.97100 3.80487
v 0.02077 13.13792 3.58687
v -4.11014 13.13792 3.58687
v 0.02521 11.83376 3.80487
v 0.02077 11.66684 3.58687
v 0.02077 13.13792 3.58687
v 0.02521 11.83377 -3.17291
v 0.02521 12.97100 -3.17291
v 0.02077 13.13792 -2.95491
v 0.02521 12.97100 -3.17291
v -4.24351 12.97100 -3.17291
v -4.11014 13.13792 -2.95491
v 0.02521 11.83377 -3.17291
v 0.02077 11.66684 -2.95491
v -4.11014 11.66684 -2.95491
v -4.24351 11.83377 -3.17291
v -4.11014 11.66684 -2.95491
v -4.11014 11.66684 3.58687
v 0.02521 11.83376 3.80487
v -4.24351 11.83376 3.80487
v -4.11014 11.66684 3.58687
v 0.00000 7.03137 4.72243
v -2.29890 7.02857 4.67903
v -2.23940 1.63179 4.43695
v -2.29397 -0.06377 3.86302
v -2.29432 -0.63683 3.83621
v -2.29778 -0.66046 4.09329
v -2.29890 7.02857 4.67903
v -2.28628 9.37318 4.56573
v -2.28101 9.36888 4.28637
v -2.29362 7.02427 4.18494
v -2.29292 1.65542 3.94343
v -2.23940 1.63179 4.43695
v 0.00000 7.02734 4.22832
v 0.00000 7.03137 4.72243
v 0.00000 1.63071 4.43695
v -2.29432 -0.63683 3.83621
v 0.00000 -0.68015 3.83619
v 0.00000 -0.70378 4.09331
v 0.00605 1.65434 3.94343
v 0.00000 1.63071 4.43695
v 0.00000 -0.70378 4.09331
v -2.29362 0.50930 3.88982
v -2.29292 1.65542 3.94343
v 0.00605 1.65434 3.94343
v 0.00605 1.65434 3.94343
v 0.00000 -0.68015 3.83619
v -2.29362 0.50930 3.88982
v 0.00000 -0.68015 3.83619
v -2.29432 -0.63683 3.83621
v -2.29397 -0.06377 3.86302
v 0.00000 -0.70378 4.09331
v 0.00000 1.63071 4.43695
v -2.29708 0.48567 4.26512
v 0.00000 1.63071 4.43695
v -2.23940 1.63179 4.43695
v -2.29708 0.48567 4.26512
v -2.29708 0.48567 4.26512
v -2.29743 -0.08739 4.17920
v 0.00000 -0.70378 4.09331
v 0.01309 9.37195 4.32975
v -2.28101 9.36888 4.28637
v -2.28628 9.37318 4.56573
v 0.00000 7.03137 4.72243
v 0.01134 9.37598 4.60913
v -2.28628 9.37318 4.56573
v 0.00000 7.02734 4.22832
v -2.29362 7.02427 4.18494
v -2.28101 9.36888 4.28637
v 0.00000 7.03137 4.72243
v 0.00000 7.02734 4.22832
v 0.01309 9.37195 4.32975
v -2.29292 1.65542 3.94343
v -2.29362 0.50930 3.88982
v -2.90768 0.08967 3.88069
v -2.88624 0.07840 4.25599
v -3.98366 0.47104 4.42782
v -4.00511 0.48231 3.93430
v -2.90768 0.08967 3.88069
v -2.35897 -0.10665 3.85389
v -2.33752 -0.11792 4.17007
v -2.88624 0.07840 4.25599
v -4.00511 0.48231 3.93430
v -2.90768 0.08967 3.88069
v -2.29708 0.48567 4.26512
v -2.23940 1.63179 4.43695
v -3.98366 0.47104 4.42782
v -2.29397 -0.06377 3.86302
v -2.29743 -0.08739 4.17920
v -2.33752 -0.11792 4.17007
v -2.29362 0.50930 3.88982
v -2.29397 -0.06377 3.86302
v -2.35897 -0.10665 3.85389
v -3.98366 0.47104 4.42782
v -3.60394 3.31546 4.48859
v -3.62539 3.32674 3.99507
v -2.29743 -0.08739 4.17920
v -2.29708 0.48567 4.26512
v -2.88624 0.07840 4.25599
v -2.87594 3.28946 4.48254
v -2.22432 4.42094 4.46784
v -2.95232 4.12838 4.53065
v -2.23940 1.63179 4.43695
v -2.87594 3.28946 4.48254
v -3.60394 3.31546 4.48859
v -2.29292 1.65542 3.94343
v -2.92946 3.31309 3.98902
v -2.87594 3.28946 4.48254
v -2.29292 1.65542 3.94343
v -4.00511 0.48231 3.93430
v -3.62539 3.32674 3.99507
v -2.22432 4.42094 4.46784
v -2.27784 4.44457 3.97432
v -2.97377 4.13965 4.03713
v -2.87594 3.28946 4.48254
v -2.92946 3.31309 3.98902
v -2.27784 4.44457 3.97432
v -2.92946 3.31309 3.98902
v -3.62539 3.32674 3.99507
v -2.97377 4.13965 4.03713
v -3.60394 3.31546 4.48859
v -2.95232 4.12838 4.53065
v -2.97377 4.13965 4.03713
v -3.44730 5.34311 4.13421
v -2.42812 5.34311 4.11562
v -2.42792 7.59157 4.21914
v -2.29292 1.65542 3.94343
v -2.29362 7.02427 4.18494
v -2.42812 5.34311 4.11562
v -2.42812 5.34311 4.11562
v -3.44730 5.34311 4.13421
v -2.29292 1.65542 3.94343
v -3.44730 5.34311 4.13421
v -5.11371 4.15265 3.94343
v -2.29292 1.65542 3.94343
v -5.11371 4.15265 3.94343
v -4.33571 -0.47116 3.94343
v -2.29292 1.65542 3.94343
v -4.33571 -0.47116 3.94343
v -2.22228 -0.39723 3.94343
v -2.29292 1.65542 3.94343
v 4.24351 12.97100 3.80487
v 4.24351 11.83376 3.80487
v 4.24351 11.83377 -3.17291
v -0.02521 12.97100 3.80487
v -0.02521 11.83376 3.80487
v 4.24351 11.83376 3.80487
v -0.02077 13.13792 -2.95491
v -0.02077 11.66684 -2.95491
v -0.02077 11.66684 3.58687
v 4.24351 12.97100 -3.17291
v 4.24351 11.83377 -3.17291
v -0.02521 11.83377 -3.17291
v 4.11014 13.13792 -2.95491
v -0.02077 13.13792 -2.95491
v -0.02077 13.13792 3.58687
v -0.02077 -0.09099 -2.95491
v 2.04469 -0.09099 -2.95491
v 2.04469 -0.09099 3.58687
v 4.53836 8.73573 4.25349
v 0.00274 7.55343 4.25349
v 2.42792 7.59157 4.21914
v 0.00274 7.55343 4.25349
v 0.00000 7.02734 4.22832
v 2.29362 7.02427 4.18494
v 2.42792 7.59157 4.21914
v 0.00274 7.55343 4.25349
v 2.29362 7.02427 4.18494
v 2.29362 7.02427 4.18494
v 2.42812 5.34311 4.11562
v 2.42792 7.59157 4.21914
v 3.44730 5.34311 4.13421
v 5.11371 4.15265 3.94343
v 3.44730 7.59157 4.20969
v 5.11371 4.15265 3.94343
v 4.53836 8.73573 4.25349
v 3.44730 7.59157 4.20969
v -0.02077 8.14308 -2.95491
v -0.02077 1.12150 -2.95491
v -0.02077 1.57599 3.58687
v -0.01892 7.55343 -3.92123
v 4.53836 8.73573 -3.62152
v 5.11371 4.15265 -3.31146
v 5.11371 4.15265 -3.31146
v 4.34559 -0.38020 -3.31146
v 1.64185 1.44024 -3.51471
v 4.34559 -0.38020 -3.31146
v 2.37951 -0.24923 -3.31146
v 1.64185 1.44024 -3.51471
v 1.64185 1.44024 -3.51471
v 0.00000 1.43869 -3.61117
v -0.01892 7.55343 -3.92123
v 5.11371 4.15265 3.94343
v 4.33571 -0.47116 3.94343
v 4.34559 -0.38020 -3.31146
v -0.02077 1.12150 -2.95491
v -0.02077 -0.09099 -2.95491
v -0.02077 -0.09099 3.58687
v -0.02077 -0.09099 -2.95491
v -0.02077 1.12150 -2.95491
v 1.43770 1.12150 -2.95491
v 2.37951 -0.24923 -3.31146
v 4.34559 -0.38020 -3.31146
v 4.33571 -0.47116 3.94343
v -0.02077 -0.09099 3.58687
v 2.04469 -0.09099 3.58687
v 1.43770 1.57600 3.58687
v -0.02077 1.12150 -2.95491
v -0.02077 8.14308 -2.95491
v -0.01892 7.55343 -3.92123
v 0.00000 7.02734 4.22832
v 0.00274 7.55343 4.25349
v -0.02077 8.14308 3.58687
v -0.02077 8.14308 3.58687
v -0.02077 1.57599 3.58687
v 0.00000 7.02734 4.22832
v 4.11014 9.16281 3.58687
v -0.02077 8.14308 3.58687
v 0.00274 7.55343 4.25349
v -0.01892 7.55343 -3.92123
v -0.02077 8.14308 -2.95491
v 4.11014 9.16281 -2.95491
v 4.11014 9.16281 -2.95491
v 4.11014 9.16281 3.58687
v 4.53836 8.73573 4.25349
v 2.04469 -0.09099 -2.95491
v 1.43770 1.12150 -2.95491
v 1.64185 1.44024 -3.51471
v 1.43770 1.12150 -2.95491
v -0.02077 1.12150 -2.95491
v 0.00000 1.43869 -3.61117
v 2.04469 -0.09099 3.58687
v 2.04469 -0.09099 -2.95491
v 2.37951 -0.24923 -3.31146
v 1.47474 1.65577 3.94343
v 1.43770 1.57600 3.58687
v 2.04469 -0.09099 3.58687
v 2.29292 1.65542 3.94343
v -0.00605 1.65434 3.94343
v -0.02077 1.57599 3.58687
v -0.02077 1.57599 3.58687
v 1.43770 1.57600 3.58687
v 1.47474 1.65577 3.94343
v 5.11371 4.15265 3.94343
v 5.11371 4.15265 -3.31146
v 4.53836 8.73573 -3.62152
v -0.02077 8.14308 -2.95491
v -0.02077 8.14308 3.58687
v -0.02077 11.66684 3.58687
v 4.11014 9.16281 -2.95491
v -0.02077 8.14308 -2.95491
v -0.02077 11.66684 -2.95491
v 4.11014 9.16281 3.58687
v 4.11014 9.16281 -2.95491
v 4.11014 11.66684 -2.95491
v -0.02077 11.66684 3.58687
v -0.02077 8.14308 3.58687
v 4.11014 9.16281 3.58687
v 4.11014 13.13792 -2.95491
v 4.11014 13.13792 3.58687
v 4.24351 12.97100 3.80487
v 4.11014 13.13792 3.58687
v -0.02077 13.13792 3.58687
v -0.02521 12.97100 3.80487
v -0.02077 13.13792 3.58687
v -0.02077 11.66684 3.58687
v -0.02521 11.83376 3.80487
v -0.02521 11.83377 -3.17291
v -0.02077 11.66684 -2.95491
v -0.02077 13.13792 -2.95491
v -0.02521 12.97100 -3.17291
v -0.02077 13.13792 -2.95491
v 4.11014 13.13792 -2.95491
v 4.11014 11.66684 -2.95491
v -0.02077 11.66684 -2.95491
v -0.02521 11.83377 -3.17291
v 4.11014 11.66684 3.58687
v 4.11014 11.66684 -2.95491
v 4.24351 11.83377 -3.17291
v -0.02521 11.83376 3.80487
v -0.02077 11.66684 3.58687
v 4.11014 11.66684 3.58687
v 0.00000 7.03137 4.72243
v 0.00000 1.63071 4.43695
v 2.23940 1.63179 4.43695
v 2.29778 -0.66046 4.09329
v 2.29432 -0.63683 3.83621
v 2.29397 -0.06377 3.86302
v 2.28101 9.36888 4.28637
v 2.28628 9.37318 4.56573
v 2.29890 7.02857 4.67903
v 2.29362 7.02427 4.18494
v 2.29890 7.02857 4.67903
v 2.23940 1.63179 4.43695
v 0.00000 1.63071 4.43695
v 0.00000 7.03137 4.72243
v 0.00000 7.02734 4.22832
v 2.29432 -0.63683 3.83621
v 2.29778 -0.66046 4.09329
v 0.00000 -0.70378 4.09331
v -0.00605 1.65434 3.94343
v 0.00000 -0.68015 3.83619
v 0.00000 -0.70378 4.09331
v -0.00605 1.65434 3.94343
v 2.29292 1.65542 3.94343
v 2.29362 0.50930 3.88982
v 2.29397 -0.06377 3.86302
v 2.29432 -0.63683 3.83621
v 0.00000 -0.68015 3.83619
v -0.00605 1.65434 3.94343
v 2.29362 0.50930 3.88982
v 0.00000 -0.68015 3.83619
v 2.23940 1.63179 4.43695
v 0.00000 1.63071 4.43695
v 2.29708 0.48567 4.26512
v 0.00000 1.63071 4.43695
v 0.00000 -0.70378 4.09331
v 2.29708 0.48567 4.26512
v 0.00000 -0.70378 4.09331
v 2.29778 -0.66046 4.09329
v 2.29743 -0.08739 4.17920
v -0.01309 9.37195 4.32975
v -0.01134 9.37598 4.60913
v 2.28628 9.37318 4.56573
v 2.28628 9.37318 4.56573
v -0.01134 9.37598 4.60913
v 0.00000 7.03137 4.72243
v 0.00000 7.02734 4.22832
v -0.01309 9.37195 4.32975
v 2.28101 9.36888 4.28637
v 0.00000 7.03137 4.72243
v -0.01134 9.37598 4.60913
v -0.01309 9.37195 4.32975
v 2.29292 1.65542 3.94343
v 4.00511 0.48231 3.93430
v 2.90768 0.08967 3.88069
v 4.00511 0.48231 3.93430
v 3.98366 0.47104 4.42782
v 2.88624 0.07840 4.25599
v 2.88624 0.07840 4.25599
v 2.33752 -0.11792 4.17007
v 2.90768 0.08967 3.88069
v 2.33752 -0.11792 4.17007
v 2.35897 -0.10665 3.85389
v 2.90768 0.08967 3.88069
v 2.29708 0.48567 4.26512
v 2.88624 0.07840 4.25599
v 3.98366 0.47104 4.42782
v 2.29397 -0.06377 3.86302
v 2.35897 -0.10665 3.85389
v 2.33752 -0.11792 4.17007
v 2.29362 0.50930 3.88982
v 2.90768 0.08967 3.88069
v 2.35897 -0.10665 3.85389
v 3.62539 3.32674 3.99507
v 3.60394 3.31546 4.48859
v 3.98366 0.47104 4.42782
v 2.29743 -0.08739 4.17920
v 2.33752 -0.11792 4.17007
v 2.88624 0.07840 4.25599
v 2.95232 4.12838 4.53065
v 2.22432 4.42094 4.46784
v 2.87594 3.28946 4.48254
v 3.60394 3.31546 4.48859
v 2.87594 3.28946 4.48254
v 2.23940 1.63179 4.43695
v 2.87594 3.28946 4.48254
v 2.92946 3.31309 3.98902
v 2.29292 1.65542 3.94343
v 2.29292 1.65542 3.94343
v 2.92946 3.31309 3.98902
v 3.62539 3.32674 3.99507
v 2.22432 4.42094 4.46784
v 2.95232 4.12838 4.53065
v 2.97377 4.13965 4.03713
v 2.87594 3.28946 4.48254
v 2.22432 4.42094 4.46784
v 2.27784 4.44457 3.97432
v 2.92946 3.31309 3.98902
v 2.27784 4.44457 3.97432
v 2.97377 4.13965 4.03713
v 2.97377 4.13965 4.03713
v 2.95232 4.12838 4.53065
v 3.60394 3.31546 4.48859
v 3.44730 5.34311 4.13421
v 3.44730 7.59157 4.20969
v 2.42792 7.59157 4.21914
v 2.42812 5.34311 4.11562
v 2.29362 7.02427 4.18494
v 2.29292 1.65542 3.94343
v 2.29292 1.65542 3.94343
v 1.47474 1.65577 3.94343
v 2.22228 -0.39723 3.94343
v 2.22228 -0.39723 3.94343
v 4.33571 -0.47116 3.94343
v 2.29292 1.65542 3.94343
v 4.33571 -0.47116 3.94343
v 5.11371 4.15265 3.94343
v 2.29292 1.65542 3.94343
v 5.11371 4.15265 3.94343
v 3.44730 5.34311 4.13421
v 2.29292 1.65542 3.94343
vt 0.54407 0.44553
vt 0.78294 0.36150
vt 0.54407 0.36150
vt 0.78409 0.44854
vt 0.65409 0.35622
vt 0.78404 0.35622
vt 0.04163 0.06793
vt 0.01847 0.40907
vt 0.00387 0.06955
vt 0.40697 0.44647
vt 0.57908 0.35974
vt 0.40693 0.35974
vt 0.24077 0.44280
vt 0.29614 0.32958
vt 0.29614 0.44275
vt 0.59502 0.51733
vt 0.61001 0.45607
vt 0.61001 0.51736
vt 0.20177 0.56078
vt 0.19690 0.58124
vt 0.10819 0.56481
vt 0.14666 0.40356
vt 0.30061 0.05679
vt 0.32687 0.39581
vt 0.27653 0.73392
vt 0.00537 0.63108
vt 0.09263 0.81606
vt 0.20586 0.63855
vt 0.36046 0.75443
vt 0.20577 0.75676
vt 0.32687 0.39581
vt 0.34340 0.05495
vt 0.35799 0.39447
vt 0.59149 0.50000
vt 0.61372 0.45802
vt 0.61372 0.51750
vt 0.24749 0.98564
vt 0.13772 0.76153
vt 0.16453 0.99528
vt 0.51327 0.86417
vt 0.47067 0.80545
vt 0.51327 0.80535
vt 0.16395 0.45305
vt 0.32687 0.39581
vt 0.32020 0.43021
vt 0.15927 0.02951
vt 0.30061 0.05679
vt 0.13206 0.06404
vt 0.34651 0.57773
vt 0.22568 0.60393
vt 0.21232 0.57810
vt 0.00266 0.64521
vt 0.16660 0.60944
vt 0.00218 0.60518
vt 0.18035 0.62307
vt 0.34977 0.58379
vt 0.36783 0.60228
vt 0.09597 0.83000
vt 0.05572 0.84654
vt 0.05264 0.82793
vt 0.12102 0.91167
vt 0.11920 0.97927
vt 0.09923 0.97583
vt 0.10904 0.98134
vt 0.11701 0.84453
vt 0.10452 0.83808
vt 0.00387 0.88393
vt 0.02241 0.83915
vt 0.02241 0.88195
vt 0.53946 0.89827
vt 0.53946 0.86535
vt 0.52101 0.80535
vt 0.36711 0.52043
vt 0.20586 0.63855
vt 0.19919 0.52043
vt 0.04163 0.06793
vt 0.14666 0.40356
vt 0.05622 0.40745
vt 0.00265 0.49743
vt 0.19717 0.59330
vt 0.19717 0.49769
vt 0.21044 0.58541
vt 0.33566 0.52110
vt 0.33566 0.58541
vt 0.00586 0.50066
vt 0.20333 0.59155
vt 0.00586 0.62779
vt 0.83616 0.71232
vt 0.92793 0.71797
vt 0.83911 0.71797
vt 0.60992 0.79885
vt 0.77607 0.78734
vt 0.78172 0.79871
vt 0.03685 0.05680
vt 0.00387 0.06955
vt 0.00767 0.05805
vt 0.05242 0.41894
vt 0.01847 0.40907
vt 0.05622 0.40745
vt 0.81600 0.68502
vt 0.98215 0.69616
vt 0.81589 0.69629
vt 0.98484 0.68485
vt 0.81814 0.69595
vt 0.81307 0.68449
vt 0.83668 0.72045
vt 0.93254 0.71538
vt 0.93559 0.72045
vt 0.98511 0.70842
vt 0.81841 0.69688
vt 0.98463 0.69722
vt 0.00380 0.32222
vt 0.12132 0.09962
vt 0.00342 0.09985
vt 0.14027 0.05028
vt 0.15504 0.06293
vt 0.14013 0.06671
vt 0.06831 0.31028
vt 0.08243 0.27838
vt 0.08235 0.31160
vt 0.08235 0.31160
vt 0.06836 0.38674
vt 0.06831 0.31028
vt 0.15927 0.02951
vt 0.29731 0.01273
vt 0.29780 0.03837
vt 0.16597 0.14010
vt 0.17934 0.04791
vt 0.17934 0.14025
vt 0.29780 0.03837
vt 0.35799 0.02798
vt 0.35796 0.04136
vt 0.29700 0.82275
vt 0.28255 0.82578
vt 0.29357 0.72885
vt 0.12401 0.02740
vt 0.12391 0.00333
vt 0.00293 0.00185
vt 0.16351 0.13756
vt 0.17802 0.04535
vt 0.17802 0.13786
vt 0.00380 0.32222
vt 0.12388 0.41596
vt 0.12475 0.32145
vt 0.42613 0.80591
vt 0.36573 0.89781
vt 0.36573 0.80535
vt 0.15806 0.00387
vt 0.09887 0.02684
vt 0.09814 0.01234
vt 0.25364 0.83184
vt 0.29818 0.84780
vt 0.29728 0.89326
vt 0.18501 0.10717
vt 0.16856 0.12887
vt 0.16549 0.10694
vt 0.12412 0.05147
vt 0.21320 0.05206
vt 0.15514 0.03474
vt 0.77586 0.87510
vt 0.76000 0.87237
vt 0.77645 0.87244
vt 0.28255 0.82578
vt 0.29864 0.82507
vt 0.29818 0.84780
vt 0.18734 0.06210
vt 0.16171 0.13464
vt 0.16170 0.06124
vt 0.12401 0.02740
vt 0.15514 0.03474
vt 0.12611 0.02608
vt 0.15490 0.16744
vt 0.15898 0.20200
vt 0.19325 0.16846
vt 0.12132 0.09962
vt 0.19325 0.16846
vt 0.21320 0.05206
vt 0.67589 0.80663
vt 0.64867 0.84925
vt 0.65026 0.80659
vt 0.25364 0.83184
vt 0.22256 0.89326
vt 0.21716 0.86571
vt 0.01460 0.01031
vt 0.03766 0.04041
vt 0.01200 0.04019
vt 0.64867 0.84925
vt 0.67589 0.87830
vt 0.65026 0.87826
vt 0.21716 0.86571
vt 0.19667 0.87187
vt 0.18338 0.84589
vt 0.01464 0.06776
vt 0.03766 0.04041
vt 0.04029 0.06797
vt 0.12255 0.10231
vt 0.15459 0.16594
vt 0.12255 0.20981
vt 0.26094 0.09445
vt 0.21587 0.00442
vt 0.26333 0.00486
vt 0.19798 0.84578
vt 0.16815 0.77389
vt 0.19971 0.77294
vt 0.78294 0.36150
vt 0.54407 0.44553
vt 0.54407 0.36150
vt 0.65409 0.35622
vt 0.78409 0.44854
vt 0.78404 0.35622
vt 0.01847 0.40907
vt 0.04163 0.06793
vt 0.00387 0.06955
vt 0.57908 0.35974
vt 0.40697 0.44647
vt 0.40693 0.35974
vt 0.29614 0.32958
vt 0.24077 0.44280
vt 0.29614 0.44275
vt 0.61001 0.45607
vt 0.59502 0.51733
vt 0.61001 0.51736
vt 0.20177 0.56078
vt 0.24111 0.55962
vt 0.28260 0.51752
vt 0.14666 0.40356
vt 0.30061 0.05679
vt 0.13206 0.06404
vt 0.27653 0.73392
vt 0.09263 0.81606
vt 0.00537 0.63108
vt 0.20586 0.63855
vt 0.36046 0.75443
vt 0.36055 0.63855
vt 0.32687 0.39581
vt 0.34340 0.05495
vt 0.30061 0.05679
vt 0.61372 0.45802
vt 0.59149 0.50000
vt 0.61372 0.51750
vt 0.24749 0.98564
vt 0.13772 0.76153
vt 0.22677 0.75115
vt 0.47067 0.80545
vt 0.51327 0.86417
vt 0.51327 0.80535
vt 0.32687 0.39581
vt 0.16395 0.45305
vt 0.32020 0.43021
vt 0.30061 0.05679
vt 0.29780 0.03837
vt 0.15927 0.02951
vt 0.22568 0.60393
vt 0.34651 0.57773
vt 0.21232 0.57810
vt 0.00266 0.64521
vt 0.16660 0.60944
vt 0.18354 0.63746
vt 0.34977 0.58379
vt 0.18035 0.62307
vt 0.36783 0.60228
vt 0.05572 0.84654
vt 0.09597 0.83000
vt 0.05264 0.82793
vt 0.11920 0.97927
vt 0.12102 0.91167
vt 0.09923 0.97583
vt 0.11701 0.84453
vt 0.10904 0.98134
vt 0.10452 0.83808
vt 0.00387 0.88393
vt 0.02241 0.83915
vt 0.00387 0.83122
vt 0.52101 0.80535
vt 0.53946 0.86535
vt 0.53946 0.89827
vt 0.20586 0.63855
vt 0.36711 0.52043
vt 0.19919 0.52043
vt 0.14666 0.40356
vt 0.04163 0.06793
vt 0.05622 0.40745
vt 0.19717 0.59330
vt 0.00265 0.49743
vt 0.19717 0.49769
vt 0.33566 0.52110
vt 0.21044 0.58541
vt 0.33566 0.58541
vt 0.00586 0.50066
vt 0.20333 0.59155
vt 0.20333 0.50121
vt 0.83911 0.71797
vt 0.93090 0.71232
vt 0.83616 0.71232
vt 0.77607 0.78734
vt 0.60992 0.79885
vt 0.78172 0.79871
vt 0.00387 0.06955
vt 0.03685 0.05680
vt 0.00767 0.05805
vt 0.05242 0.41894
vt 0.01847 0.40907
vt 0.02324 0.42020
vt 0.81600 0.68502
vt 0.98215 0.69616
vt 0.98781 0.68488
vt 0.81814 0.69595
vt 0.98484 0.68485
vt 0.81307 0.68449
vt 0.93254 0.71538
vt 0.83668 0.72045
vt 0.93559 0.72045
vt 0.98511 0.70842
vt 0.81841 0.69688
vt 0.81334 0.70806
vt 0.00380 0.32222
vt 0.12132 0.09962
vt 0.12475 0.32145
vt 0.15504 0.06293
vt 0.14027 0.05028
vt 0.14013 0.06671
vt 0.08243 0.27838
vt 0.06831 0.31028
vt 0.08235 0.31160
vt 0.08235 0.31160
vt 0.06836 0.38674
vt 0.08243 0.38769
vt 0.29731 0.01273
vt 0.15927 0.02951
vt 0.29780 0.03837
vt 0.16597 0.14010
vt 0.17934 0.04791
vt 0.16597 0.04778
vt 0.29780 0.03837
vt 0.35799 0.02798
vt 0.29731 0.01273
vt 0.28255 0.82578
vt 0.29700 0.82275
vt 0.29357 0.72885
vt 0.12401 0.02740
vt 0.12412 0.05147
vt 0.00293 0.00185
vt 0.16351 0.13756
vt 0.17802 0.04535
vt 0.16351 0.04519
vt 0.12388 0.41596
vt 0.00380 0.32222
vt 0.12475 0.32145
vt 0.42613 0.80591
vt 0.36573 0.89781
vt 0.42613 0.89837
vt 0.15806 0.00387
vt 0.09887 0.02684
vt 0.15927 0.02951
vt 0.25364 0.83184
vt 0.29818 0.84780
vt 0.28255 0.82578
vt 0.18501 0.10717
vt 0.18501 0.06365
vt 0.16549 0.10694
vt 0.12412 0.05147
vt 0.21320 0.05206
vt 0.12132 0.09962
vt 0.77586 0.87510
vt 0.76000 0.87237
vt 0.75946 0.87401
vt 0.28255 0.82578
vt 0.29864 0.82507
vt 0.29700 0.82275
vt 0.16171 0.13464
vt 0.18734 0.06210
vt 0.16170 0.06124
vt 0.12401 0.02740
vt 0.15514 0.03474
vt 0.12412 0.05147
vt 0.15898 0.20200
vt 0.15490 0.16744
vt 0.19325 0.16846
vt 0.19325 0.16846
vt 0.12132 0.09962
vt 0.21320 0.05206
vt 0.64867 0.84925
vt 0.67589 0.80663
vt 0.65026 0.80659
vt 0.25364 0.83184
vt 0.22256 0.89326
vt 0.29728 0.89326
vt 0.01460 0.01031
vt 0.03766 0.04041
vt 0.04029 0.01180
vt 0.64867 0.84925
vt 0.67589 0.87830
vt 0.67430 0.84928
vt 0.21716 0.86571
vt 0.19667 0.87187
vt 0.22256 0.89326
vt 0.03766 0.04041
vt 0.01464 0.06776
vt 0.04029 0.06797
vt 0.12255 0.10231
vt 0.12255 0.20981
vt 0.15459 0.16594
vt 0.26094 0.09445
vt 0.21587 0.00442
vt 0.21351 0.09419
vt 0.24227 0.63976
vt 0.20297 0.64107
vt 0.19971 0.77294
vt 0.54407 0.44553
vt 0.78294 0.44553
vt 0.78294 0.36150
vt 0.78409 0.44854
vt 0.65414 0.44854
vt 0.65409 0.35622
vt 0.04163 0.06793
vt 0.05622 0.40745
vt 0.01847 0.40907
vt 0.40697 0.44647
vt 0.57911 0.44647
vt 0.57908 0.35974
vt 0.24077 0.44280
vt 0.24077 0.32962
vt 0.29614 0.32958
vt 0.59502 0.51733
vt 0.59502 0.45604
vt 0.61001 0.45607
vt 0.10835 0.58360
vt 0.10819 0.56481
vt 0.19690 0.58124
vt 0.10819 0.56481
vt 0.28260 0.51752
vt 0.20177 0.56078
vt 0.28260 0.51752
vt 0.30732 0.68107
vt 0.24111 0.55962
vt 0.30732 0.68107
vt 0.24227 0.63976
vt 0.24111 0.55962
vt 0.20177 0.56078
vt 0.20297 0.64107
vt 0.19690 0.58124
vt 0.28260 0.51752
vt 0.24111 0.55962
vt 0.20177 0.56078
vt 0.14666 0.40356
vt 0.13206 0.06404
vt 0.30061 0.05679
vt 0.27653 0.73392
vt 0.24593 0.59495
vt 0.00537 0.63108
vt 0.00537 0.63108
vt 0.00537 0.81665
vt 0.09263 0.81606
vt 0.09263 0.81606
vt 0.13153 0.86768
vt 0.23555 0.87198
vt 0.23555 0.87198
vt 0.27653 0.73392
vt 0.09263 0.81606
vt 0.20586 0.63855
vt 0.36055 0.63855
vt 0.36046 0.75443
vt 0.32687 0.39581
vt 0.30061 0.05679
vt 0.34340 0.05495
vt 0.59149 0.50000
vt 0.59149 0.45799
vt 0.61372 0.45802
vt 0.24749 0.98564
vt 0.22677 0.75115
vt 0.13772 0.76153
vt 0.51327 0.86417
vt 0.47067 0.88875
vt 0.47067 0.80545
vt 0.16395 0.45305
vt 0.14666 0.40356
vt 0.32687 0.39581
vt 0.13206 0.06404
vt 0.14571 0.02878
vt 0.15927 0.02951
vt 0.15927 0.02951
vt 0.29780 0.03837
vt 0.30061 0.05679
vt 0.34651 0.57773
vt 0.34797 0.60360
vt 0.22568 0.60393
vt 0.00266 0.64521
vt 0.18354 0.63746
vt 0.16660 0.60944
vt 0.18035 0.62307
vt 0.19403 0.60106
vt 0.34977 0.58379
vt 0.09597 0.83000
vt 0.08681 0.84801
vt 0.05572 0.84654
vt 0.12102 0.91167
vt 0.15033 0.92952
vt 0.11920 0.97927
vt 0.10904 0.98134
vt 0.12945 0.97321
vt 0.11701 0.84453
vt 0.00387 0.88393
vt 0.00387 0.83122
vt 0.02241 0.83915
vt 0.52101 0.80535
vt 0.53946 0.80576
vt 0.53946 0.89827
vt 0.53946 0.86535
vt 0.52101 0.86404
vt 0.52101 0.80535
vt 0.36711 0.52043
vt 0.36055 0.63855
vt 0.20586 0.63855
vt 0.04163 0.06793
vt 0.13206 0.06404
vt 0.14666 0.40356
vt 0.00265 0.49743
vt 0.00265 0.63197
vt 0.19717 0.59330
vt 0.21044 0.58541
vt 0.21044 0.52110
vt 0.33566 0.52110
vt 0.00586 0.50066
vt 0.20333 0.50121
vt 0.20333 0.59155
vt 0.83616 0.71232
vt 0.93090 0.71232
vt 0.92793 0.71797
vt 0.60992 0.79885
vt 0.60981 0.78748
vt 0.77607 0.78734
vt 0.03685 0.05680
vt 0.04163 0.06793
vt 0.00387 0.06955
vt 0.05242 0.41894
vt 0.02324 0.42020
vt 0.01847 0.40907
vt 0.81600 0.68502
vt 0.98781 0.68488
vt 0.98215 0.69616
vt 0.98484 0.68485
vt 0.98436 0.69629
vt 0.81814 0.69595
vt 0.83668 0.72045
vt 0.83981 0.71538
vt 0.93254 0.71538
vt 0.98511 0.70842
vt 0.81334 0.70806
vt 0.81841 0.69688
vt 0.00380 0.32222
vt 0.12475 0.32145
vt 0.12132 0.09962
vt 0.14027 0.05028
vt 0.15504 0.04956
vt 0.15504 0.06293
vt 0.06831 0.31028
vt 0.07449 0.27761
vt 0.08243 0.27838
vt 0.08235 0.31160
vt 0.08243 0.38769
vt 0.06836 0.38674
vt 0.15927 0.02951
vt 0.15806 0.00387
vt 0.29731 0.01273
vt 0.16597 0.14010
vt 0.16597 0.04778
vt 0.17934 0.04791
vt 0.29780 0.03837
vt 0.29731 0.01273
vt 0.35799 0.02798
vt 0.28255 0.82578
vt 0.25364 0.83184
vt 0.23467 0.74109
vt 0.23467 0.74109
vt 0.29357 0.72885
vt 0.28255 0.82578
vt 0.29357 0.72885
vt 0.31146 0.81971
vt 0.29700 0.82275
vt 0.00293 0.00185
vt 0.00342 0.09985
vt 0.12412 0.05147
vt 0.00342 0.09985
vt 0.12132 0.09962
vt 0.12412 0.05147
vt 0.12412 0.05147
vt 0.12401 0.02740
vt 0.00293 0.00185
vt 0.16351 0.13756
vt 0.16351 0.04519
vt 0.17802 0.04535
vt 0.00380 0.32222
vt 0.00293 0.41673
vt 0.12388 0.41596
vt 0.42613 0.80591
vt 0.42613 0.89837
vt 0.36573 0.89781
vt 0.15806 0.00387
vt 0.15927 0.02951
vt 0.09887 0.02684
vt 0.25364 0.83184
vt 0.28255 0.82578
vt 0.29818 0.84780
vt 0.16549 0.10694
vt 0.15936 0.06308
vt 0.18501 0.06365
vt 0.18501 0.10717
vt 0.18501 0.12893
vt 0.16856 0.12887
vt 0.16549 0.10694
vt 0.18501 0.06365
vt 0.18501 0.10717
vt 0.12412 0.05147
vt 0.12132 0.09962
vt 0.21320 0.05206
vt 0.77586 0.87510
vt 0.75946 0.87401
vt 0.76000 0.87237
vt 0.28255 0.82578
vt 0.29700 0.82275
vt 0.29864 0.82507
vt 0.18734 0.06210
vt 0.18734 0.13550
vt 0.16171 0.13464
vt 0.12401 0.02740
vt 0.12412 0.05147
vt 0.15514 0.03474
vt 0.15490 0.16744
vt 0.12054 0.21347
vt 0.15898 0.20200
vt 0.12132 0.09962
vt 0.15490 0.16744
vt 0.19325 0.16846
vt 0.67589 0.80663
vt 0.67430 0.84928
vt 0.64867 0.84925
vt 0.25364 0.83184
vt 0.29728 0.89326
vt 0.22256 0.89326
vt 0.01460 0.01031
vt 0.04029 0.01180
vt 0.03766 0.04041
vt 0.64867 0.84925
vt 0.67430 0.84928
vt 0.67589 0.87830
vt 0.21716 0.86571
vt 0.22256 0.89326
vt 0.19667 0.87187
vt 0.01464 0.06776
vt 0.01200 0.04019
vt 0.03766 0.04041
vt 0.26094 0.09445
vt 0.21351 0.09419
vt 0.21587 0.00442
vt 0.19971 0.77294
vt 0.19690 0.58124
vt 0.20297 0.64107
vt 0.20297 0.64107
vt 0.24227 0.63976
vt 0.19971 0.77294
vt 0.24227 0.63976
vt 0.30732 0.68107
vt 0.19971 0.77294
vt 0.30732 0.68107
vt 0.27954 0.84590
vt 0.19971 0.77294
vt 0.27954 0.84590
vt 0.19798 0.84578
vt 0.19971 0.77294
vt 0.78294 0.36150
vt 0.78294 0.44553
vt 0.54407 0.44553
vt 0.65409 0.35622
vt 0.65414 0.44854
vt 0.78409 0.44854
vt 0.01847 0.40907
vt 0.05622 0.40745
vt 0.04163 0.06793
vt 0.57908 0.35974
vt 0.57911 0.44647
vt 0.40697 0.44647
vt 0.29614 0.32958
vt 0.24077 0.32962
vt 0.24077 0.44280
vt 0.61001 0.45607
vt 0.59502 0.45604
vt 0.59502 0.51733
vt 0.28260 0.51752
vt 0.10819 0.56481
vt 0.20177 0.56078
vt 0.10819 0.56481
vt 0.10835 0.58360
vt 0.19690 0.58124
vt 0.20177 0.56078
vt 0.10819 0.56481
vt 0.19690 0.58124
vt 0.19690 0.58124
vt 0.20297 0.64107
vt 0.20177 0.56078
vt 0.24227 0.63976
vt 0.30732 0.68107
vt 0.24111 0.55962
vt 0.30732 0.68107
vt 0.28260 0.51752
vt 0.24111 0.55962
vt 0.14666 0.40356
vt 0.32687 0.39581
vt 0.30061 0.05679
vt 0.00537 0.63108
vt 0.24593 0.59495
vt 0.27653 0.73392
vt 0.27653 0.73392
vt 0.23555 0.87198
vt 0.09263 0.81606
vt 0.23555 0.87198
vt 0.13153 0.86768
vt 0.09263 0.81606
vt 0.09263 0.81606
vt 0.00537 0.81665
vt 0.00537 0.63108
vt 0.20586 0.63855
vt 0.20577 0.75676
vt 0.36046 0.75443
vt 0.32687 0.39581
vt 0.35799 0.39447
vt 0.34340 0.05495
vt 0.61372 0.45802
vt 0.59149 0.45799
vt 0.59149 0.50000
vt 0.24749 0.98564
vt 0.16453 0.99528
vt 0.13772 0.76153
vt 0.47067 0.80545
vt 0.47067 0.88875
vt 0.51327 0.86417
vt 0.32687 0.39581
vt 0.14666 0.40356
vt 0.16395 0.45305
vt 0.15927 0.02951
vt 0.14571 0.02878
vt 0.13206 0.06404
vt 0.13206 0.06404
vt 0.30061 0.05679
vt 0.15927 0.02951
vt 0.22568 0.60393
vt 0.34797 0.60360
vt 0.34651 0.57773
vt 0.00266 0.64521
vt 0.00218 0.60518
vt 0.16660 0.60944
vt 0.34977 0.58379
vt 0.19403 0.60106
vt 0.18035 0.62307
vt 0.05572 0.84654
vt 0.08681 0.84801
vt 0.09597 0.83000
vt 0.11920 0.97927
vt 0.15033 0.92952
vt 0.12102 0.91167
vt 0.11701 0.84453
vt 0.12945 0.97321
vt 0.10904 0.98134
vt 0.00387 0.88393
vt 0.02241 0.88195
vt 0.02241 0.83915
vt 0.53946 0.89827
vt 0.53946 0.80576
vt 0.52101 0.80535
vt 0.52101 0.80535
vt 0.52101 0.86404
vt 0.53946 0.86535
vt 0.20586 0.63855
vt 0.36055 0.63855
vt 0.36711 0.52043
vt 0.14666 0.40356
vt 0.13206 0.06404
vt 0.04163 0.06793
vt 0.19717 0.59330
vt 0.00265 0.63197
vt 0.00265 0.49743
vt 0.33566 0.52110
vt 0.21044 0.52110
vt 0.21044 0.58541
vt 0.00586 0.50066
vt 0.00586 0.62779
vt 0.20333 0.59155
vt 0.83911 0.71797
vt 0.92793 0.71797
vt 0.93090 0.71232
vt 0.77607 0.78734
vt 0.60981 0.78748
vt 0.60992 0.79885
vt 0.00387 0.06955
vt 0.04163 0.06793
vt 0.03685 0.05680
vt 0.05242 0.41894
vt 0.05622 0.40745
vt 0.01847 0.40907
vt 0.81600 0.68502
vt 0.81589 0.69629
vt 0.98215 0.69616
vt 0.81814 0.69595
vt 0.98436 0.69629
vt 0.98484 0.68485
vt 0.93254 0.71538
vt 0.83981 0.71538
vt 0.83668 0.72045
vt 0.98511 0.70842
vt 0.98463 0.69722
vt 0.81841 0.69688
vt 0.00380 0.32222
vt 0.00342 0.09985
vt 0.12132 0.09962
vt 0.15504 0.06293
vt 0.15504 0.04956
vt 0.14027 0.05028
vt 0.08243 0.27838
vt 0.07449 0.27761
vt 0.06831 0.31028
vt 0.08235 0.31160
vt 0.06831 0.31028
vt 0.06836 0.38674
vt 0.29731 0.01273
vt 0.15806 0.00387
vt 0.15927 0.02951
vt 0.16597 0.14010
vt 0.17934 0.14025
vt 0.17934 0.04791
vt 0.29780 0.03837
vt 0.35796 0.04136
vt 0.35799 0.02798
vt 0.23467 0.74109
vt 0.25364 0.83184
vt 0.28255 0.82578
vt 0.29700 0.82275
vt 0.31146 0.81971
vt 0.29357 0.72885
vt 0.23467 0.74109
vt 0.28255 0.82578
vt 0.29357 0.72885
vt 0.12132 0.09962
vt 0.00342 0.09985
vt 0.12412 0.05147
vt 0.00342 0.09985
vt 0.00293 0.00185
vt 0.12412 0.05147
vt 0.00293 0.00185
vt 0.12391 0.00333
vt 0.12401 0.02740
vt 0.16351 0.13756
vt 0.17802 0.13786
vt 0.17802 0.04535
vt 0.12388 0.41596
vt 0.00293 0.41673
vt 0.00380 0.32222
vt 0.42613 0.80591
vt 0.36573 0.80535
vt 0.36573 0.89781
vt 0.15806 0.00387
vt 0.09814 0.01234
vt 0.09887 0.02684
vt 0.25364 0.83184
vt 0.29728 0.89326
vt 0.29818 0.84780
vt 0.18501 0.06365
vt 0.15936 0.06308
vt 0.16549 0.10694
vt 0.16549 0.10694
vt 0.16856 0.12887
vt 0.18501 0.10717
vt 0.16856 0.12887
vt 0.18501 0.12893
vt 0.18501 0.10717
vt 0.12412 0.05147
vt 0.15514 0.03474
vt 0.21320 0.05206
vt 0.77586 0.87510
vt 0.77645 0.87244
vt 0.76000 0.87237
vt 0.28255 0.82578
vt 0.29818 0.84780
vt 0.29864 0.82507
vt 0.16171 0.13464
vt 0.18734 0.13550
vt 0.18734 0.06210
vt 0.12401 0.02740
vt 0.12611 0.02608
vt 0.15514 0.03474
vt 0.15898 0.20200
vt 0.12054 0.21347
vt 0.15490 0.16744
vt 0.19325 0.16846
vt 0.15490 0.16744
vt 0.12132 0.09962
vt 0.64867 0.84925
vt 0.67430 0.84928
vt 0.67589 0.80663
vt 0.25364 0.83184
vt 0.21716 0.86571
vt 0.22256 0.89326
vt 0.01460 0.01031
vt 0.01200 0.04019
vt 0.03766 0.04041
vt 0.64867 0.84925
vt 0.65026 0.87826
vt 0.67589 0.87830
vt 0.21716 0.86571
vt 0.18338 0.84589
vt 0.19667 0.87187
vt 0.03766 0.04041
vt 0.01200 0.04019
vt 0.01464 0.06776
vt 0.26094 0.09445
vt 0.26333 0.00486
vt 0.21587 0.00442
vt 0.20297 0.64107
vt 0.19690 0.58124
vt 0.19971 0.77294
vt 0.19971 0.77294
vt 0.16815 0.77389
vt 0.19798 0.84578
vt 0.19798 0.84578
vt 0.27954 0.84590
vt 0.19971 0.77294
vt 0.27954 0.84590
vt 0.30732 0.68107
vt 0.19971 0.77294
vt 0.30732 0.68107
vt 0.24227 0.63976
vt 0.19971 0.77294
vn -1.00000 -0.00000 -0.00000
vn -1.00000 -0.00000 -0.00000
vn -1.00000 -0.00000 -0.00000
vn 0.00000 -0.00000 1.00000
vn 0.00000 -0.00000 1.00000
vn 0.00000 -0.00000 1.00000
vn 1.00000 -0.00000 -0.00000
vn 1.00000 -0.00000 -0.00000
vn 1.00000 -0.00000 -0.00000
vn 0.00000 -0.00000 -1.00000
vn 0.00000 -0.00000 -1.00000
vn 0.00000 -0.00000 -1.00000
vn 0.00000 1.00000 -0.00000
vn 0.00000 1.00000 -0.00000
vn 0.00000 1.00000 -0.00000
vn 0.00000 -1.00000 0.00000
vn 0.00000 -1.00000 0.00000
vn 0.00000 -1.00000 0.00000
vn -0.01490 -0.06170 0.99798
vn -0.01490 -0.06170 0.99798
vn -0.01490 -0.06170 0.99798
vn 1.00000 -0.00000 -0.00000
vn 1.00000 -0.00000 -0.00000
vn 1.00000 -0.00000 -0.00000
vn -0.08950 -0.04020 -0.99518
vn -0.08950 -0.04020 -0.99518
vn -0.08950 -0.04020 -0.99518
vn -0.98664 -0.16291 -0.00070
vn -0.98664 -0.16291 -0.00070
vn -0.98664 -0.16291 -0.00070
vn 1.00000 -0.00000 -0.00000
vn 1.00000 -0.00000 -0.00000
vn 1.00000 -0.00000 -0.00000
vn 0.00000 -0.00000 -1.00000
vn 0.00000 -0.00000 -1.00000
vn 0.00000 -0.00000 -1.00000
vn 0.06770 -0.99762 -0.01300
vn 0.06770 -0.99762 -0.01300
vn 0.06770 -0.99762 -0.01300
vn 0.00000 -0.00000 1.00000
vn 0.00000 -0.00000 1.00000
vn 0.00000 -0.00000 1.00000
vn 0.99940 -0.00470 -0.03440
vn 0.99940 -0.00470 -0.03440
vn 0.99940 -0.00470 -0.03440
vn 0.99946 -0.00000 0.03280
vn 0.99946 -0.00000 0.03280
vn 0.99946 -0.00000 0.03280
vn 0.19979 0.75216 0.62797
vn 0.19979 0.75216 0.62797
vn 0.19979 0.75216 0.62797
vn 0.20811 0.82722 -0.52191
vn 0.20811 0.82722 -0.52191
vn 0.20811 0.82722 -0.52191
vn -0.71288 0.70128 0.00000
vn -0.71288 0.70128 0.00000
vn -0.71288 0.70128 0.00000
vn 0.75029 -0.38409 -0.53809
vn 0.75029 -0.38409 -0.53809
vn 0.75029 -0.38409 -0.53809
vn -0.02970 -0.86632 -0.49861
vn -0.02970 -0.86632 -0.49861
vn -0.02970 -0.86632 -0.49861
vn 0.85401 -0.51941 -0.02970
vn 0.85401 -0.51941 -0.02970
vn 0.85401 -0.51941 -0.02970
vn 0.92730 -0.33130 0.17420
vn 0.92730 -0.33130 0.17420
vn 0.92730 -0.33130 0.17420
vn -0.00040 0.97392 -0.22690
vn -0.00040 0.97392 -0.22690
vn -0.00040 0.97392 -0.22690
vn -0.99249 0.12230 0.00000
vn -0.99249 0.12230 0.00000
vn -0.99249 0.12230 0.00000
vn 1.00000 -0.00000 -0.00000
vn 1.00000 -0.00000 -0.00000
vn 1.00000 -0.00000 -0.00000
vn 0.00000 -0.00000 -1.00000
vn 0.00000 -0.00000 -1.00000
vn 0.00000 -0.00000 -1.00000
vn -1.00000 -0.00000 -0.00000
vn -1.00000 -0.00000 -0.00000
vn -1.00000 -0.00000 -0.00000
vn 0.00000 -0.00000 1.00000
vn 0.00000 -0.00000 1.00000
vn 0.00000 -0.00000 1.00000
vn -0.78698 0.61698 -0.00000
vn -0.78698 0.61698 -0.00000
vn -0.78698 0.61698 -0.00000
vn 0.00000 0.78429 0.62039
vn 0.00000 0.78429 0.62039
vn 0.00000 0.78429 0.62039
vn 0.99979 -0.00000 -0.02060
vn 0.99979 -0.00000 -0.02060
vn 0.99979 -0.00000 -0.02060
vn 0.99979 -0.00000 0.02060
vn 0.99979 -0.00000 0.02060
vn 0.99979 -0.00000 0.02060
vn 0.00000 0.78429 -0.62039
vn 0.00000 0.78429 -0.62039
vn 0.00000 0.78429 -0.62039
vn 0.00000 -0.78429 -0.62039
vn 0.00000 -0.78429 -0.62039
vn 0.00000 -0.78429 -0.62039
vn -0.78698 -0.61698 -0.00000
vn -0.78698 -0.61698 -0.00000
vn -0.78698 -0.61698 -0.00000
vn 0.00000 -0.78429 0.62039
vn 0.00000 -0.78429 0.62039
vn 0.00000 -0.78429 0.62039
vn -0.00000 -0.05110 0.99869
vn -0.00000 -0.05110 0.99869
vn -0.00000 -0.05110 0.99869
vn -0.99994 0.00220 -0.01090
vn -0.99994 0.00220 -0.01090
vn -0.99994 0.00220 -0.01090
vn -0.99992 0.00570 -0.01090
vn -0.99992 0.00570 -0.01090
vn -0.99992 0.00570 -0.01090
vn -0.99989 -0.01030 -0.01070
vn -0.99989 -0.01030 -0.01070
vn -0.99989 -0.01030 -0.01070
vn 0.99992 0.00050 0.01250
vn 0.99992 0.00050 0.01250
vn 0.99992 0.00050 0.01250
vn -0.01910 -0.99531 -0.09480
vn -0.01910 -0.99531 -0.09480
vn -0.01910 -0.99531 -0.09480
vn 1.00000 -0.00250 -0.00020
vn 1.00000 -0.00250 -0.00020
vn 1.00000 -0.00250 -0.00020
vn 0.00090 0.04520 -0.99898
vn 0.00090 0.04520 -0.99898
vn 0.00090 0.04520 -0.99898
vn -0.00280 -0.14360 0.98963
vn -0.00280 -0.14360 0.98963
vn -0.00280 -0.14360 0.98963
vn -0.00100 0.99989 -0.01490
vn -0.00100 0.99989 -0.01490
vn -0.00100 0.99989 -0.01490
vn -0.01870 0.04680 0.99873
vn -0.01870 0.04680 0.99873
vn -0.01870 0.04680 0.99873
vn 0.01860 0.04170 -0.99896
vn 0.01860 0.04170 -0.99896
vn 0.01860 0.04170 -0.99896
vn 0.99997 -0.00440 0.00640
vn 0.99997 -0.00440 0.00640
vn 0.99997 -0.00440 0.00640
vn -0.02980 0.05020 -0.99829
vn -0.02980 0.05020 -0.99829
vn -0.02980 0.05020 -0.99829
vn -0.34380 -0.93900 -0.00920
vn -0.34380 -0.93900 -0.00920
vn -0.34380 -0.93900 -0.00920
vn 0.09490 -0.15610 0.98317
vn 0.09490 -0.15610 0.98317
vn 0.09490 -0.15610 0.98317
vn 0.56328 -0.82337 -0.06910
vn 0.56328 -0.82337 -0.06910
vn 0.56328 -0.82337 -0.06910
vn -0.02650 0.05910 -0.99790
vn -0.02650 0.05910 -0.99790
vn -0.02650 0.05910 -0.99790
vn -0.99057 0.12880 0.04670
vn -0.99057 0.12880 0.04670
vn -0.99057 0.12880 0.04670
vn 0.03150 -0.31529 0.94847
vn 0.03150 -0.31529 0.94847
vn 0.03150 -0.31529 0.94847
vn 0.00620 -0.05490 0.99847
vn 0.00620 -0.05490 0.99847
vn 0.00620 -0.05490 0.99847
vn 0.00970 -0.02190 0.99971
vn 0.00970 -0.02190 0.99971
vn 0.00970 -0.02190 0.99971
vn 0.93166 0.35328 -0.08490
vn 0.93166 0.35328 -0.08490
vn 0.93166 0.35328 -0.08490
vn -0.00810 0.02360 -0.99969
vn -0.00810 0.02360 -0.99969
vn -0.00810 0.02360 -0.99969
vn -0.37592 0.92586 0.03840
vn -0.37592 0.92586 0.03840
vn -0.37592 0.92586 0.03840
vn 0.86377 -0.48958 -0.11920
vn 0.86377 -0.48958 -0.11920
vn 0.86377 -0.48958 -0.11920
vn -0.11070 0.05010 -0.99259
vn -0.11070 0.05010 -0.99259
vn -0.11070 0.05010 -0.99259
vn -0.78629 0.61589 0.04920
vn -0.78629 0.61589 0.04920
vn -0.78629 0.61589 0.04920
vn -0.04160 0.01090 -0.99907
vn -0.04160 0.01090 -0.99907
vn -0.04160 0.01090 -0.99907
vn -0.00910 -0.03250 0.99943
vn -0.00910 -0.03250 0.99943
vn -0.00910 -0.03250 0.99943
vn 0.00000 -0.00000 1.00000
vn 0.00000 -0.00000 1.00000
vn 0.00000 -0.00000 1.00000
vn 1.00000 -0.00000 -0.00000
vn 1.00000 -0.00000 -0.00000
vn 1.00000 -0.00000 -0.00000
vn 0.00000 -0.00000 1.00000
vn 0.00000 -0.00000 1.00000
vn 0.00000 -0.00000 1.00000
vn -1.00000 -0.00000 -0.00000
vn -1.00000 -0.00000 -0.00000
vn -1.00000 -0.00000 -0.00000
vn 0.00000 -0.00000 -1.00000
vn 0.00000 -0.00000 -1.00000
vn 0.00000 -0.00000 -1.00000
vn 0.00000 1.00000 -0.00000
vn 0.00000 1.00000 -0.00000
vn 0.00000 1.00000 -0.00000
vn 0.00000 -1.00000 0.00000
vn 0.00000 -1.00000 0.00000
vn 0.00000 -1.00000 0.00000
vn 0.00910 -0.04560 0.99892
vn 0.00910 -0.04560 0.99892
vn 0.00910 -0.04560 0.99892
vn -1.00000 -0.00000 -0.00000
vn -1.00000 -0.00000 -0.00000
vn -1.00000 -0.00000 -0.00000
vn 0.08950 -0.04020 -0.99518
vn 0.08950 -0.04020 -0.99518
vn 0.08950 -0.04020 -0.99518
vn 0.98646 -0.16399 -0.00000
vn 0.98646 -0.16399 -0.00000
vn 0.98646 -0.16399 -0.00000
vn -1.00000 -0.00000 -0.00000
vn -1.00000 -0.00000 -0.00000
vn -1.00000 -0.00000 -0.00000
vn 0.00000 -0.00000 -1.00000
vn 0.00000 -0.00000 -1.00000
vn 0.00000 -0.00000 -1.00000
vn -0.03560 -0.99913 -0.02180
vn -0.03560 -0.99913 -0.02180
vn -0.03560 -0.99913 -0.02180
vn 0.00000 -0.00000 1.00000
vn 0.00000 -0.00000 1.00000
vn 0.00000 -0.00000 1.00000
vn -0.99940 -0.00470 -0.03440
vn -0.99940 -0.00470 -0.03440
vn -0.99940 -0.00470 -0.03440
vn -0.99912 -0.00110 0.04200
vn -0.99912 -0.00110 0.04200
vn -0.99912 -0.00110 0.04200
vn -0.19979 0.75216 0.62797
vn -0.19979 0.75216 0.62797
vn -0.19979 0.75216 0.62797
vn -0.16369 0.77026 -0.61637
vn -0.16369 0.77026 -0.61637
vn -0.16369 0.77026 -0.61637
vn 0.71288 0.70128 0.00000
vn 0.71288 0.70128 0.00000
vn 0.71288 0.70128 0.00000
vn -0.75029 -0.38409 -0.53809
vn -0.75029 -0.38409 -0.53809
vn -0.75029 -0.38409 -0.53809
vn 0.02970 -0.86632 -0.49861
vn 0.02970 -0.86632 -0.49861
vn 0.02970 -0.86632 -0.49861
vn -0.85401 -0.51941 -0.02970
vn -0.85401 -0.51941 -0.02970
vn -0.85401 -0.51941 -0.02970
vn -0.92730 -0.33130 0.17420
vn -0.92730 -0.33130 0.17420
vn -0.92730 -0.33130 0.17420
vn 0.00040 0.97392 -0.22690
vn 0.00040 0.97392 -0.22690
vn 0.00040 0.97392 -0.22690
vn 0.99249 0.12230 0.00000
vn 0.99249 0.12230 0.00000
vn 0.99249 0.12230 0.00000
vn -1.00000 -0.00000 -0.00000
vn -1.00000 -0.00000 -0.00000
vn -1.00000 -0.00000 -0.00000
vn 0.00000 -0.00000 -1.00000
vn 0.00000 -0.00000 -1.00000
vn 0.00000 -0.00000 -1.00000
vn 1.00000 -0.00000 -0.00000
vn 1.00000 -0.00000 -0.00000
vn 1.00000 -0.00000 -0.00000
vn 0.00000 -0.00000 1.00000
vn 0.00000 -0.00000 1.00000
vn 0.00000 -0.00000 1.00000
vn 0.78698 0.61698 -0.00000
vn 0.78698 0.61698 -0.00000
vn 0.78698 0.61698 -0.00000
vn 0.00000 0.78429 0.62039
vn 0.00000 0.78429 0.62039
vn 0.00000 0.78429 0.62039
vn -0.99979 -0.00000 -0.02060
vn -0.99979 -0.00000 -0.02060
vn -0.99979 -0.00000 -0.02060
vn -0.99979 -0.00000 0.02060
vn -0.99979 -0.00000 0.02060
vn -0.99979 -0.00000 0.02060
vn 0.00000 0.78429 -0.62039
vn 0.00000 0.78429 -0.62039
vn 0.00000 0.78429 -0.62039
vn 0.00000 -0.78429 -0.62039
vn 0.00000 -0.78429 -0.62039
vn 0.00000 -0.78429 -0.62039
vn 0.78698 -0.61698 -0.00000
vn 0.78698 -0.61698 -0.00000
vn 0.78698 -0.61698 -0.00000
vn 0.00000 -0.78429 0.62039
vn 0.00000 -0.78429 0.62039
vn 0.00000 -0.78429 0.62039
vn 0.01850 -0.04360 0.99888
vn 0.01850 -0.04360 0.99888
vn 0.01850 -0.04360 0.99888
vn 0.99994 0.00220 -0.01090
vn 0.99994 0.00220 -0.01090
vn 0.99994 0.00220 -0.01090
vn 0.99992 0.00570 -0.01090
vn 0.99992 0.00570 -0.01090
vn 0.99992 0.00570 -0.01090
vn 0.99403 -0.00490 0.10900
vn 0.99403 -0.00490 0.10900
vn 0.99403 -0.00490 0.10900
vn -0.99992 0.00050 0.01250
vn -0.99992 0.00050 0.01250
vn -0.99992 0.00050 0.01250
vn 0.01920 -0.99534 -0.09450
vn 0.01920 -0.99534 -0.09450
vn 0.01920 -0.99534 -0.09450
vn -0.99992 -0.00180 0.01230
vn -0.99992 -0.00180 0.01230
vn -0.99992 -0.00180 0.01230
vn -0.00090 0.04520 -0.99898
vn -0.00090 0.04520 -0.99898
vn -0.00090 0.04520 -0.99898
vn 0.00280 -0.14360 0.98963
vn 0.00280 -0.14360 0.98963
vn 0.00280 -0.14360 0.98963
vn 0.00110 0.99987 -0.01590
vn 0.00110 0.99987 -0.01590
vn 0.00110 0.99987 -0.01590
vn 0.01870 0.04680 0.99873
vn 0.01870 0.04680 0.99873
vn 0.01870 0.04680 0.99873
vn -0.01860 0.04170 -0.99896
vn -0.01860 0.04170 -0.99896
vn -0.01860 0.04170 -0.99896
vn -0.99998 -0.00550 0.00000
vn -0.99998 -0.00550 0.00000
vn -0.99998 -0.00550 0.00000
vn 0.01680 0.04520 -0.99884
vn 0.01680 0.04520 -0.99884
vn 0.01680 0.04520 -0.99884
vn 0.34300 -0.93929 -0.00930
vn 0.34300 -0.93929 -0.00930
vn 0.34300 -0.93929 -0.00930
vn -0.09500 -0.14760 0.98447
vn -0.09500 -0.14760 0.98447
vn -0.09500 -0.14760 0.98447
vn -0.61976 -0.78296 -0.05360
vn -0.61976 -0.78296 -0.05360
vn -0.61976 -0.78296 -0.05360
vn -0.10750 0.04490 -0.99319
vn -0.10750 0.04490 -0.99319
vn -0.10750 0.04490 -0.99319
vn 0.99057 0.12880 0.04670
vn 0.99057 0.12880 0.04670
vn 0.99057 0.12880 0.04670
vn -0.08580 -0.14310 0.98598
vn -0.08580 -0.14310 0.98598
vn -0.08580 -0.14310 0.98598
vn -0.00620 -0.05490 0.99847
vn -0.00620 -0.05490 0.99847
vn -0.00620 -0.05490 0.99847
vn -0.00970 -0.02190 0.99971
vn -0.00970 -0.02190 0.99971
vn -0.00970 -0.02190 0.99971
vn -0.93166 0.35328 -0.08490
vn -0.93166 0.35328 -0.08490
vn -0.93166 0.35328 -0.08490
vn 0.01010 0.02200 -0.99971
vn 0.01010 0.02200 -0.99971
vn 0.01010 0.02200 -0.99971
vn 0.39950 0.91240 0.08900
vn 0.39950 0.91240 0.08900
vn 0.39950 0.91240 0.08900
vn -0.86377 -0.48958 -0.11920
vn -0.86377 -0.48958 -0.11920
vn -0.86377 -0.48958 -0.11920
vn 0.00740 0.05590 -0.99841
vn 0.00740 0.05590 -0.99841
vn 0.00740 0.05590 -0.99841
vn 0.78629 0.61589 0.04920
vn 0.78629 0.61589 0.04920
vn 0.78629 0.61589 0.04920
vn 0.04160 0.01090 -0.99907
vn 0.04160 0.01090 -0.99907
vn 0.04160 0.01090 -0.99907
vn -0.01800 -0.04450 0.99885
vn -0.01800 -0.04450 0.99885
vn -0.01800 -0.04450 0.99885
vn -0.01800 -0.04450 0.99885
vn -0.01800 -0.04450 0.99885
vn -0.01800 -0.04450 0.99885
vn -1.00000 -0.00000 -0.00000
vn -1.00000 -0.00000 -0.00000
vn -1.00000 -0.00000 -0.00000
vn 0.00000 -0.00000 1.00000
vn 0.00000 -0.00000 1.00000
vn 0.00000 -0.00000 1.00000
vn 1.00000 -0.00000 -0.00000
vn 1.00000 -0.00000 -0.00000
vn 1.00000 -0.00000 -0.00000
vn 0.00000 -0.00000 -1.00000
vn 0.00000 -0.00000 -1.00000
vn 0.00000 -0.00000 -1.00000
vn 0.00000 1.00000 -0.00000
vn 0.00000 1.00000 -0.00000
vn 0.00000 1.00000 -0.00000
vn 0.00000 -1.00000 0.00000
vn 0.00000 -1.00000 0.00000
vn 0.00000 -1.00000 0.00000
vn -0.01860 -0.04630 0.99875
vn -0.01860 -0.04630 0.99875
vn -0.01860 -0.04630 0.99875
vn -0.01480 -0.05590 0.99833
vn -0.01480 -0.05590 0.99833
vn -0.01480 -0.05590 0.99833
vn -0.02680 -0.06200 0.99772
vn -0.02680 -0.06200 0.99772
vn -0.02680 -0.06200 0.99772
vn -0.08890 -0.03230 0.99552
vn -0.08890 -0.03230 0.99552
vn -0.08890 -0.03230 0.99552
vn 0.05920 -0.04440 0.99726
vn 0.05920 -0.04440 0.99726
vn 0.05920 -0.04440 0.99726
vn -0.00910 -0.04560 0.99892
vn -0.00910 -0.04560 0.99892
vn -0.00910 -0.04560 0.99892
vn 1.00000 -0.00000 -0.00000
vn 1.00000 -0.00000 -0.00000
vn 1.00000 -0.00000 -0.00000
vn -0.07920 -0.05540 -0.99532
vn -0.07920 -0.05540 -0.99532
vn -0.07920 -0.05540 -0.99532
vn -0.05780 -0.04880 -0.99713
vn -0.05780 -0.04880 -0.99713
vn -0.05780 -0.04880 -0.99713
vn 0.00810 -0.11909 -0.99285
vn 0.00810 -0.11909 -0.99285
vn 0.00810 -0.11909 -0.99285
vn -0.06640 -0.01100 -0.99773
vn -0.06640 -0.01100 -0.99773
vn -0.06640 -0.01100 -0.99773
vn -0.98646 -0.16399 -0.00000
vn -0.98646 -0.16399 -0.00000
vn -0.98646 -0.16399 -0.00000
vn 1.00000 -0.00000 -0.00000
vn 1.00000 -0.00000 -0.00000
vn 1.00000 -0.00000 -0.00000
vn 0.00000 -0.00000 -1.00000
vn 0.00000 -0.00000 -1.00000
vn 0.00000 -0.00000 -1.00000
vn 0.03560 -0.99913 -0.02180
vn 0.03560 -0.99913 -0.02180
vn 0.03560 -0.99913 -0.02180
vn 0.00000 -0.00000 1.00000
vn 0.00000 -0.00000 1.00000
vn 0.00000 -0.00000 1.00000
vn 1.00000 -0.00000 -0.00190
vn 1.00000 -0.00000 -0.00190
vn 1.00000 -0.00000 -0.00190
vn 0.99924 0.00330 0.03880
vn 0.99924 0.00330 0.03880
vn 0.99924 0.00330 0.03880
vn 0.99912 -0.00110 0.04200
vn 0.99912 -0.00110 0.04200
vn 0.99912 -0.00110 0.04200
vn 0.18179 0.72266 0.66687
vn 0.18179 0.72266 0.66687
vn 0.18179 0.72266 0.66687
vn 0.16369 0.77026 -0.61637
vn 0.16369 0.77026 -0.61637
vn 0.16369 0.77026 -0.61637
vn -0.71288 0.70128 0.00000
vn -0.71288 0.70128 0.00000
vn -0.71288 0.70128 0.00000
vn 0.77267 -0.37949 -0.50888
vn 0.77267 -0.37949 -0.50888
vn 0.77267 -0.37949 -0.50888
vn -0.00000 -0.89469 -0.44669
vn -0.00000 -0.89469 -0.44669
vn -0.00000 -0.89469 -0.44669
vn 0.43392 -0.90095 -0.00000
vn 0.43392 -0.90095 -0.00000
vn 0.43392 -0.90095 -0.00000
vn 0.92730 -0.33130 0.17420
vn 0.92730 -0.33130 0.17420
vn 0.92730 -0.33130 0.17420
vn -0.00050 -0.97518 0.22140
vn -0.00050 -0.97518 0.22140
vn -0.00050 -0.97518 0.22140
vn -0.00000 -0.97431 0.22520
vn -0.00000 -0.97431 0.22520
vn -0.00000 -0.97431 0.22520
vn -0.99249 0.12230 0.00000
vn -0.99249 0.12230 0.00000
vn -0.99249 0.12230 0.00000
vn 1.00000 -0.00000 -0.00000
vn 1.00000 -0.00000 -0.00000
vn 1.00000 -0.00000 -0.00000
vn 0.00000 -0.00000 -1.00000
vn 0.00000 -0.00000 -1.00000
vn 0.00000 -0.00000 -1.00000
vn -1.00000 -0.00000 -0.00000
vn -1.00000 -0.00000 -0.00000
vn -1.00000 -0.00000 -0.00000
vn 0.00000 -0.00000 1.00000
vn 0.00000 -0.00000 1.00000
vn 0.00000 -0.00000 1.00000
vn -0.78698 0.61698 -0.00000
vn -0.78698 0.61698 -0.00000
vn -0.78698 0.61698 -0.00000
vn 0.00000 0.78429 0.62039
vn 0.00000 0.78429 0.62039
vn 0.00000 0.78429 0.62039
vn 0.99979 -0.00000 -0.02060
vn 0.99979 -0.00000 -0.02060
vn 0.99979 -0.00000 -0.02060
vn 0.99979 -0.00000 0.02060
vn 0.99979 -0.00000 0.02060
vn 0.99979 -0.00000 0.02060
vn 0.00000 0.78429 -0.62039
vn 0.00000 0.78429 -0.62039
vn 0.00000 0.78429 -0.62039
vn 0.00000 -0.78429 -0.62039
vn 0.00000 -0.78429 -0.62039
vn 0.00000 -0.78429 -0.62039
vn -0.78698 -0.61698 -0.00000
vn -0.78698 -0.61698 -0.00000
vn -0.78698 -0.61698 -0.00000
vn 0.00000 -0.78429 0.62039
vn 0.00000 -0.78429 0.62039
vn 0.00000 -0.78429 0.62039
vn -0.01850 -0.04360 0.99888
vn -0.01850 -0.04360 0.99888
vn -0.01850 -0.04360 0.99888
vn -0.99991 0.00120 -0.01350
vn -0.99991 0.00120 -0.01350
vn -0.99991 0.00120 -0.01350
vn -0.99981 0.00440 -0.01920
vn -0.99981 0.00440 -0.01920
vn -0.99981 0.00440 -0.01920
vn -0.99403 -0.00490 0.10900
vn -0.99403 -0.00490 0.10900
vn -0.99403 -0.00490 0.10900
vn 1.00000 -0.00000 -0.00000
vn 1.00000 -0.00000 -0.00000
vn 1.00000 -0.00000 -0.00000
vn -0.01920 -0.99534 -0.09450
vn -0.01920 -0.99534 -0.09450
vn -0.01920 -0.99534 -0.09450
vn 0.99992 -0.00180 0.01230
vn 0.99992 -0.00180 0.01230
vn 0.99992 -0.00180 0.01230
vn 0.00000 0.04520 -0.99898
vn 0.00000 0.04520 -0.99898
vn 0.00000 0.04520 -0.99898
vn 0.00040 0.04440 -0.99901
vn 0.00040 0.04440 -0.99901
vn 0.00040 0.04440 -0.99901
vn 0.00090 0.04520 -0.99898
vn 0.00090 0.04520 -0.99898
vn 0.00090 0.04520 -0.99898
vn -0.00140 -0.14110 0.98999
vn -0.00140 -0.14110 0.98999
vn -0.00140 -0.14110 0.98999
vn -0.00010 -0.14361 0.98964
vn -0.00010 -0.14361 0.98964
vn -0.00010 -0.14361 0.98964
vn -0.00280 -0.14360 0.98963
vn -0.00280 -0.14360 0.98963
vn -0.00280 -0.14360 0.98963
vn -0.00110 0.99987 -0.01590
vn -0.00110 0.99987 -0.01590
vn -0.00110 0.99987 -0.01590
vn -0.01870 0.04680 0.99873
vn -0.01870 0.04680 0.99873
vn -0.01870 0.04680 0.99873
vn 0.01860 0.04170 -0.99896
vn 0.01860 0.04170 -0.99896
vn 0.01860 0.04170 -0.99896
vn 0.99998 -0.00550 0.00000
vn 0.99998 -0.00550 0.00000
vn 0.99998 -0.00550 0.00000
vn -0.01680 0.04520 -0.99884
vn -0.01680 0.04520 -0.99884
vn -0.01680 0.04520 -0.99884
vn -0.34351 -0.93912 -0.00700
vn -0.34351 -0.93912 -0.00700
vn -0.34351 -0.93912 -0.00700
vn -0.34299 -0.93927 -0.01100
vn -0.34299 -0.93927 -0.01100
vn -0.34299 -0.93927 -0.01100
vn -0.34300 -0.93929 -0.00930
vn -0.34300 -0.93929 -0.00930
vn -0.34300 -0.93929 -0.00930
vn 0.09500 -0.14760 0.98447
vn 0.09500 -0.14760 0.98447
vn 0.09500 -0.14760 0.98447
vn 0.61976 -0.78296 -0.05360
vn 0.61976 -0.78296 -0.05360
vn 0.61976 -0.78296 -0.05360
vn 0.10750 0.04490 -0.99319
vn 0.10750 0.04490 -0.99319
vn 0.10750 0.04490 -0.99319
vn -0.99057 0.12880 0.04670
vn -0.99057 0.12880 0.04670
vn -0.99057 0.12880 0.04670
vn 0.08580 -0.14310 0.98598
vn 0.08580 -0.14310 0.98598
vn 0.08580 -0.14310 0.98598
vn 0.10340 -0.04590 0.99358
vn 0.10340 -0.04590 0.99358
vn 0.10340 -0.04590 0.99358
vn 0.00730 -0.02390 0.99969
vn 0.00730 -0.02390 0.99969
vn 0.00730 -0.02390 0.99969
vn 0.93166 0.35328 -0.08490
vn 0.93166 0.35328 -0.08490
vn 0.93166 0.35328 -0.08490
vn -0.01010 0.02200 -0.99971
vn -0.01010 0.02200 -0.99971
vn -0.01010 0.02200 -0.99971
vn -0.39950 0.91240 0.08900
vn -0.39950 0.91240 0.08900
vn -0.39950 0.91240 0.08900
vn 0.86377 -0.48958 -0.11920
vn 0.86377 -0.48958 -0.11920
vn 0.86377 -0.48958 -0.11920
vn -0.00740 0.05590 -0.99841
vn -0.00740 0.05590 -0.99841
vn -0.00740 0.05590 -0.99841
vn -0.78629 0.61589 0.04920
vn -0.78629 0.61589 0.04920
vn -0.78629 0.61589 0.04920
vn 0.01800 -0.04450 0.99885
vn 0.01800 -0.04450 0.99885
vn 0.01800 -0.04450 0.99885
vn 0.04610 -0.04340 0.99799
vn 0.04610 -0.04340 0.99799
vn 0.04610 -0.04340 0.99799
vn 0.01800 -0.04450 0.99885
vn 0.01800 -0.04450 0.99885
vn 0.01800 -0.04450 0.99885
vn -0.06220 -0.06900 0.99568
vn -0.06220 -0.06900 0.99568
vn -0.06220 -0.06900 0.99568
vn 0.00000 -0.00000 1.00000
vn 0.00000 -0.00000 1.00000
vn 0.00000 -0.00000 1.00000
vn 0.00000 -0.00000 1.00000
vn 0.00000 -0.00000 1.00000
vn 0.00000 -0.00000 1.00000
vn 1.00000 -0.00000 -0.00000
vn 1.00000 -0.00000 -0.00000
vn 1.00000 -0.00000 -0.00000
vn 0.00000 -0.00000 1.00000
vn 0.00000 -0.00000 1.00000
vn 0.00000 -0.00000 1.00000
vn -1.00000 -0.00000 -0.00000
vn -1.00000 -0.00000 -0.00000
vn -1.00000 -0.00000 -0.00000
vn 0.00000 -0.00000 -1.00000
vn 0.00000 -0.00000 -1.00000
vn 0.00000 -0.00000 -1.00000
vn 0.00000 1.00000 -0.00000
vn 0.00000 1.00000 -0.00000
vn 0.00000 1.00000 -0.00000
vn 0.00000 -1.00000 0.00000
vn 0.00000 -1.00000 0.00000
vn 0.00000 -1.00000 0.00000
vn 0.01480 -0.05590 0.99833
vn 0.01480 -0.05590 0.99833
vn 0.01480 -0.05590 0.99833
vn 0.01860 -0.04630 0.99875
vn 0.01860 -0.04630 0.99875
vn 0.01860 -0.04630 0.99875
vn 0.01490 -0.06170 0.99798
vn 0.01490 -0.06170 0.99798
vn 0.01490 -0.06170 0.99798
vn -0.05920 -0.04440 0.99726
vn -0.05920 -0.04440 0.99726
vn -0.05920 -0.04440 0.99726
vn 0.08890 -0.03230 0.99552
vn 0.08890 -0.03230 0.99552
vn 0.08890 -0.03230 0.99552
vn 0.02680 -0.06200 0.99772
vn 0.02680 -0.06200 0.99772
vn 0.02680 -0.06200 0.99772
vn -1.00000 -0.00000 -0.00000
vn -1.00000 -0.00000 -0.00000
vn -1.00000 -0.00000 -0.00000
vn 0.07920 -0.05540 -0.99532
vn 0.07920 -0.05540 -0.99532
vn 0.07920 -0.05540 -0.99532
vn 0.06640 -0.01100 -0.99773
vn 0.06640 -0.01100 -0.99773
vn 0.06640 -0.01100 -0.99773
vn -0.00810 -0.11909 -0.99285
vn -0.00810 -0.11909 -0.99285
vn -0.00810 -0.11909 -0.99285
vn 0.05780 -0.04880 -0.99713
vn 0.05780 -0.04880 -0.99713
vn 0.05780 -0.04880 -0.99713
vn 0.98664 -0.16291 -0.00070
vn 0.98664 -0.16291 -0.00070
vn 0.98664 -0.16291 -0.00070
vn -1.00000 -0.00000 -0.00000
vn -1.00000 -0.00000 -0.00000
vn -1.00000 -0.00000 -0.00000
vn 0.00000 -0.00000 -1.00000
vn 0.00000 -0.00000 -1.00000
vn 0.00000 -0.00000 -1.00000
vn -0.06770 -0.99762 -0.01300
vn -0.06770 -0.99762 -0.01300
vn -0.06770 -0.99762 -0.01300
vn 0.00000 -0.00000 1.00000
vn 0.00000 -0.00000 1.00000
vn 0.00000 -0.00000 1.00000
vn -1.00000 -0.00000 -0.00190
vn -1.00000 -0.00000 -0.00190
vn -1.00000 -0.00000 -0.00190
vn -0.99924 0.00330 0.03880
vn -0.99924 0.00330 0.03880
vn -0.99924 0.00330 0.03880
vn -0.99946 -0.00000 0.03280
vn -0.99946 -0.00000 0.03280
vn -0.99946 -0.00000 0.03280
vn -0.18179 0.72266 0.66687
vn -0.18179 0.72266 0.66687
vn -0.18179 0.72266 0.66687
vn -0.20811 0.82722 -0.52191
vn -0.20811 0.82722 -0.52191
vn -0.20811 0.82722 -0.52191
vn 0.71288 0.70128 0.00000
vn 0.71288 0.70128 0.00000
vn 0.71288 0.70128 0.00000
vn -0.77267 -0.37949 -0.50888
vn -0.77267 -0.37949 -0.50888
vn -0.77267 -0.37949 -0.50888
vn -0.00000 -0.89469 -0.44669
vn -0.00000 -0.89469 -0.44669
vn -0.00000 -0.89469 -0.44669
vn -0.43392 -0.90095 -0.00000
vn -0.43392 -0.90095 -0.00000
vn -0.43392 -0.90095 -0.00000
vn -0.92730 -0.33130 0.17420
vn -0.92730 -0.33130 0.17420
vn -0.92730 -0.33130 0.17420
vn 0.00050 -0.97518 0.22140
vn 0.00050 -0.97518 0.22140
vn 0.00050 -0.97518 0.22140
vn -0.00000 -0.97431 0.22520
vn -0.00000 -0.97431 0.22520
vn -0.00000 -0.97431 0.22520
vn 0.99249 0.12230 0.00000
vn 0.99249 0.12230 0.00000
vn 0.99249 0.12230 0.00000
vn -1.00000 -0.00000 -0.00000
vn -1.00000 -0.00000 -0.00000
vn -1.00000 -0.00000 -0.00000
vn 0.00000 -0.00000 -1.00000
vn 0.00000 -0.00000 -1.00000
vn 0.00000 -0.00000 -1.00000
vn 1.00000 -0.00000 -0.00000
vn 1.00000 -0.00000 -0.00000
vn 1.00000 -0.00000 -0.00000
vn 0.00000 -0.00000 1.00000
vn 0.00000 -0.00000 1.00000
vn 0.00000 -0.00000 1.00000
vn 0.78698 0.61698 -0.00000
vn 0.78698 0.61698 -0.00000
vn 0.78698 0.61698 -0.00000
vn 0.00000 0.78429 0.62039
vn 0.00000 0.78429 0.62039
vn 0.00000 0.78429 0.62039
vn -0.99979 -0.00000 -0.02060
vn -0.99979 -0.00000 -0.02060
vn -0.99979 -0.00000 -0.02060
vn -0.99979 -0.00000 0.02060
vn -0.99979 -0.00000 0.02060
vn -0.99979 -0.00000 0.02060
vn 0.00000 0.78429 -0.62039
vn 0.00000 0.78429 -0.62039
vn 0.00000 0.78429 -0.62039
vn 0.00000 -0.78429 -0.62039
vn 0.00000 -0.78429 -0.62039
vn 0.00000 -0.78429 -0.62039
vn 0.78698 -0.61698 -0.00000
vn 0.78698 -0.61698 -0.00000
vn 0.78698 -0.61698 -0.00000
vn 0.00000 -0.78429 0.62039
vn 0.00000 -0.78429 0.62039
vn 0.00000 -0.78429 0.62039
vn -0.00000 -0.05110 0.99869
vn -0.00000 -0.05110 0.99869
vn -0.00000 -0.05110 0.99869
vn 0.99991 0.00120 -0.01350
vn 0.99991 0.00120 -0.01350
vn 0.99991 0.00120 -0.01350
vn 0.99981 0.00440 -0.01920
vn 0.99981 0.00440 -0.01920
vn 0.99981 0.00440 -0.01920
vn 0.99989 -0.01030 -0.01070
vn 0.99989 -0.01030 -0.01070
vn 0.99989 -0.01030 -0.01070
vn -1.00000 -0.00000 -0.00000
vn -1.00000 -0.00000 -0.00000
vn -1.00000 -0.00000 -0.00000
vn 0.01910 -0.99531 -0.09480
vn 0.01910 -0.99531 -0.09480
vn 0.01910 -0.99531 -0.09480
vn -1.00000 -0.00250 -0.00020
vn -1.00000 -0.00250 -0.00020
vn -1.00000 -0.00250 -0.00020
vn 0.00000 0.04520 -0.99898
vn 0.00000 0.04520 -0.99898
vn 0.00000 0.04520 -0.99898
vn -0.00090 0.04520 -0.99898
vn -0.00090 0.04520 -0.99898
vn -0.00090 0.04520 -0.99898
vn -0.00040 0.04440 -0.99901
vn -0.00040 0.04440 -0.99901
vn -0.00040 0.04440 -0.99901
vn 0.00010 -0.14361 0.98964
vn 0.00010 -0.14361 0.98964
vn 0.00010 -0.14361 0.98964
vn 0.00140 -0.14110 0.98999
vn 0.00140 -0.14110 0.98999
vn 0.00140 -0.14110 0.98999
vn 0.00280 -0.14360 0.98963
vn 0.00280 -0.14360 0.98963
vn 0.00280 -0.14360 0.98963
vn 0.00100 0.99989 -0.01490
vn 0.00100 0.99989 -0.01490
vn 0.00100 0.99989 -0.01490
vn 0.01870 0.04680 0.99873
vn 0.01870 0.04680 0.99873
vn 0.01870 0.04680 0.99873
vn -0.01860 0.04170 -0.99896
vn -0.01860 0.04170 -0.99896
vn -0.01860 0.04170 -0.99896
vn -0.99997 -0.00440 0.00640
vn -0.99997 -0.00440 0.00640
vn -0.99997 -0.00440 0.00640
vn 0.02980 0.05020 -0.99829
vn 0.02980 0.05020 -0.99829
vn 0.02980 0.05020 -0.99829
vn 0.34351 -0.93912 -0.00700
vn 0.34351 -0.93912 -0.00700
vn 0.34351 -0.93912 -0.00700
vn 0.34380 -0.93900 -0.00920
vn 0.34380 -0.93900 -0.00920
vn 0.34380 -0.93900 -0.00920
vn 0.34299 -0.93927 -0.01100
vn 0.34299 -0.93927 -0.01100
vn 0.34299 -0.93927 -0.01100
vn -0.09490 -0.15610 0.98317
vn -0.09490 -0.15610 0.98317
vn -0.09490 -0.15610 0.98317
vn -0.56328 -0.82337 -0.06910
vn -0.56328 -0.82337 -0.06910
vn -0.56328 -0.82337 -0.06910
vn 0.02650 0.05910 -0.99790
vn 0.02650 0.05910 -0.99790
vn 0.02650 0.05910 -0.99790
vn 0.99057 0.12880 0.04670
vn 0.99057 0.12880 0.04670
vn 0.99057 0.12880 0.04670
vn -0.03150 -0.31529 0.94847
vn -0.03150 -0.31529 0.94847
vn -0.03150 -0.31529 0.94847
vn -0.10340 -0.04590 0.99358
vn -0.10340 -0.04590 0.99358
vn -0.10340 -0.04590 0.99358
vn -0.00730 -0.02390 0.99969
vn -0.00730 -0.02390 0.99969
vn -0.00730 -0.02390 0.99969
vn -0.93166 0.35328 -0.08490
vn -0.93166 0.35328 -0.08490
vn -0.93166 0.35328 -0.08490
vn 0.00810 0.02360 -0.99969
vn 0.00810 0.02360 -0.99969
vn 0.00810 0.02360 -0.99969
vn 0.37592 0.92586 0.03840
vn 0.37592 0.92586 0.03840
vn 0.37592 0.92586 0.03840
vn -0.86377 -0.48958 -0.11920
vn -0.86377 -0.48958 -0.11920
vn -0.86377 -0.48958 -0.11920
vn 0.11070 0.05010 -0.99259
vn 0.11070 0.05010 -0.99259
vn 0.11070 0.05010 -0.99259
vn 0.78629 0.61589 0.04920
vn 0.78629 0.61589 0.04920
vn 0.78629 0.61589 0.04920
vn 0.00910 -0.03250 0.99943
vn 0.00910 -0.03250 0.99943
vn 0.00910 -0.03250 0.99943
vn -0.04610 -0.04340 0.99799
vn -0.04610 -0.04340 0.99799
vn -0.04610 -0.04340 0.99799
vn 0.00000 -0.00000 1.00000
vn 0.00000 -0.00000 1.00000
vn 0.00000 -0.00000 1.00000
vn 0.00000 -0.00000 1.00000
vn 0.00000 -0.00000 1.00000
vn 0.00000 -0.00000 1.00000
vn 0.00000 -0.00000 1.00000
vn 0.00000 -0.00000 1.00000
vn 0.00000 -0.00000 1.00000
vn 0.06220 -0.06900 0.99568
vn 0.06220 -0.06900 0.99568
vn 0.06220 -0.06900 0.99568
f 1/1/1 2/2/2 3/3/3
f 4/4/4 5/5/5 6/6/6
f 7/7/7 8/8/8 9/9/9
f 10/10/10 11/11/11 12/12/12
f 13/13/13 14/14/14 15/15/15
f 16/16/16 17/17/17 18/18/18
f 19/19/19 20/20/20 21/21/21
f 22/22/22 23/23/23 24/24/24
f 25/25/25 26/26/26 27/27/27
f 28/28/28 29/29/29 30/30/30
f 31/31/31 32/32/32 33/33/33
f 34/34/34 35/35/35 36/36/36
f 37/37/37 38/38/38 39/39/39
f 40/40/40 41/41/41 42/42/42
f 43/43/43 44/44/44 45/45/45
f 46/46/46 47/47/47 48/48/48
f 49/49/49 50/50/50 51/51/51
f 52/52/52 53/53/53 54/54/54
f 55/55/55 56/56/56 57/57/57
f 58/58/58 59/59/59 60/60/60
f 61/61/61 62/62/62 63/63/63
f 64/64/64 65/65/65 66/66/66
f 67/67/67 68/68/68 69/69/69
f 70/70/70 71/71/71 72/72/72
f 73/73/73 74/74/74 75/75/75
f 76/76/76 77/77/77 78/78/78
f 79/79/79 80/80/80 81/81/81
f 82/82/82 83/83/83 84/84/84
f 85/85/85 86/86/86 87/87/87
f 88/88/88 89/89/89 90/90/90
f 91/91/91 92/92/92 93/93/93
f 94/94/94 95/95/95 96/96/96
f 97/97/97 98/98/98 99/99/99
f 100/100/100 101/101/101 102/102/102
f 103/103/103 104/104/104 105/105/105
f 106/106/106 107/107/107 108/108/108
f 109/109/109 110/110/110 111/111/111
f 112/112/112 113/113/113 114/114/114
f 115/115/115 116/116/116 117/117/117
f 118/118/118 119/119/119 120/120/120
f 121/121/121 122/122/122 123/123/123
f 124/124/124 125/125/125 126/126/126
f 127/127/127 128/128/128 129/129/129
f 130/130/130 131/131/131 132/132/132
f 133/133/133 134/134/134 135/135/135
f 136/136/136 137/137/137 138/138/138
f 139/139/139 140/140/140 141/141/141
f 142/142/142 143/143/143 144/144/144
f 145/145/145 146/146/146 147/147/147
f 148/148/148 149/149/149 150/150/150
f 151/151/151 152/152/152 153/153/153
f 154/154/154 155/155/155 156/156/156
f 157/157/157 158/158/158 159/159/159
f 160/160/160 161/161/161 162/162/162
f 163/163/163 164/164/164 165/165/165
f 166/166/166 167/167/167 168/168/168
f 169/169/169 170/170/170 171/171/171
f 172/172/172 173/173/173 174/174/174
f 175/175/175 176/176/176 177/177/177
f 178/178/178 179/179/179 180/180/180
f 181/181/181 182/182/182 183/183/183
f 184/184/184 185/185/185 186/186/186
f 187/187/187 188/188/188 189/189/189
f 190/190/190 191/191/191 192/192/192
f 193/193/193 194/194/194 195/195/195
f 196/196/196 197/197/197 198/198/198
f 199/199/199 200/200/200 201/201/201
f 202/202/202 203/203/203 204/204/204
f 205/205/205 206/206/206 207/207/207
f 208/208/208 209/209/209 210/210/210
f 211/211/211 212/212/212 213/213/213
f 214/214/214 215/215/215 216/216/216
f 217/217/217 218/218/218 219/219/219
f 220/220/220 221/221/221 222/222/222
f 223/223/223 224/224/224 225/225/225
f 226/226/226 227/227/227 228/228/228
f 229/229/229 230/230/230 231/231/231
f 232/232/232 233/233/233 234/234/234
f 235/235/235 236/236/236 237/237/237
f 238/238/238 239/239/239 240/240/240
f 241/241/241 242/242/242 243/243/243
f 244/244/244 245/245/245 246/246/246
f 247/247/247 248/248/248 249/249/249
f 250/250/250 251/251/251 252/252/252
f 253/253/253 254/254/254 255/255/255
f 256/256/256 257/257/257 258/258/258
f 259/259/259 260/260/260 261/261/261
f 262/262/262 263/263/263 264/264/264
f 265/265/265 266/266/266 267/267/267
f 268/268/268 269/269/269 270/270/270
f 271/271/271 272/272/272 273/273/273
f 274/274/274 275/275/275 276/276/276
f 277/277/277 278/278/278 279/279/279
f 280/280/280 281/281/281 282/282/282
f 283/283/283 284/284/284 285/285/285
f 286/286/286 287/287/287 288/288/288
f 289/289/289 290/290/290 291/291/291
f 292/292/292 293/293/293 294/294/294
f 295/295/295 296/296/296 297/297/297
f 298/298/298 299/299/299 300/300/300
f 301/301/301 302/302/302 303/303/303
f 304/304/304 305/305/305 306/306/306
f 307/307/307 308/308/308 309/309/309
f 310/310/310 311/311/311 312/312/312
f 313/313/313 314/314/314 315/315/315
f 316/316/316 317/317/317 318/318/318
f 319/319/319 320/320/320 321/321/321
f 322/322/322 323/323/323 324/324/324
f 325/325/325 326/326/326 327/327/327
f 328/328/328 329/329/329 330/330/330
f 331/331/331 332/332/332 333/333/333
f 334/334/334 335/335/335 336/336/336
f 337/337/337 338/338/338 339/339/339
f 340/340/340 341/341/341 342/342/342
f 343/343/343 344/344/344 345/345/345
f 346/346/346 347/347/347 348/348/348
f 349/349/349 350/350/350 351/351/351
f 352/352/352 353/353/353 354/354/354
f 355/355/355 356/356/356 357/357/357
f 358/358/358 359/359/359 360/360/360
f 361/361/361 362/362/362 363/363/363
f 364/364/364 365/365/365 366/366/366
f 367/367/367 368/368/368 369/369/369
f 370/370/370 371/371/371 372/372/372
f 373/373/373 374/374/374 375/375/375
f 376/376/376 377/377/377 378/378/378
f 379/379/379 380/380/380 381/381/381
f 382/382/382 383/383/383 384/384/384
f 385/385/385 386/386/386 387/387/387
f 388/388/388 389/389/389 390/390/390
f 391/391/391 392/392/392 393/393/393
f 394/394/394 395/395/395 396/396/396
f 397/397/397 398/398/398 399/399/399
f 400/400/400 401/401/401 402/402/402
f 403/403/403 404/404/404 405/405/405
f 406/406/406 407/407/407 408/408/408
f 409/409/409 410/410/410 411/411/411
f 412/412/412 413/413/413 414/414/414
f 415/415/415 416/416/416 417/417/417
f 418/418/418 419/419/419 420/420/420
f 421/421/421 422/422/422 423/423/423
f 424/424/424 425/425/425 426/426/426
f 427/427/427 428/428/428 429/429/429
f 430/430/430 431/431/431 432/432/432
f 433/433/433 434/434/434 435/435/435
f 436/436/436 437/437/437 438/438/438
f 439/439/439 440/440/440 441/441/441
f 442/442/442 443/443/443 444/444/444
f 445/445/445 446/446/446 447/447/447
f 448/448/448 449/449/449 450/450/450
f 451/451/451 452/452/452 453/453/453
f 454/454/454 455/455/455 456/456/456
f 457/457/457 458/458/458 459/459/459
f 460/460/460 461/461/461 462/462/462
f 463/463/463 464/464/464 465/465/465
f 466/466/466 467/467/467 468/468/468
f 469/469/469 470/470/470 471/471/471
f 472/472/472 473/473/473 474/474/474
f 475/475/475 476/476/476 477/477/477
f 478/478/478 479/479/479 480/480/480
f 481/481/481 482/482/482 483/483/483
f 484/484/484 485/485/485 486/486/486
f 487/487/487 488/488/488 489/489/489
f 490/490/490 491/491/491 492/492/492
f 493/493/493 494/494/494 495/495/495
f 496/496/496 497/497/497 498/498/498
f 499/499/499 500/500/500 501/501/501
f 502/502/502 503/503/503 504/504/504
f 505/505/505 506/506/506 507/507/507
f 508/508/508 509/509/509 510/510/510
f 511/511/511 512/512/512 513/513/513
f 514/514/514 515/515/515 516/516/516
f 517/517/517 518/518/518 519/519/519
f 520/520/520 521/521/521 522/522/522
f 523/523/523 524/524/524 525/525/525
f 526/526/526 527/527/527 528/528/528
f 529/529/529 530/530/530 531/531/531
f 532/532/532 533/533/533 534/534/534
f 535/535/535 536/536/536 537/537/537
f 538/538/538 539/539/539 540/540/540
f 541/541/541 542/542/542 543/543/543
f 544/544/544 545/545/545 546/546/546
f 547/547/547 548/548/548 549/549/549
f 550/550/550 551/551/551 552/552/552
f 553/553/553 554/554/554 555/555/555
f 556/556/556 557/557/557 558/558/558
f 559/559/559 560/560/560 561/561/561
f 562/562/562 563/563/563 564/564/564
f 565/565/565 566/566/566 567/567/567
f 568/568/568 569/569/569 570/570/570
f 571/571/571 572/572/572 573/573/573
f 574/574/574 575/575/575 576/576/576
f 577/577/577 578/578/578 579/579/579
f 580/580/580 581/581/581 582/582/582
f 583/583/583 584/584/584 585/585/585
f 586/586/586 587/587/587 588/588/588
f 589/589/589 590/590/590 591/591/591
f 592/592/592 593/593/593 594/594/594
f 595/595/595 596/596/596 597/597/597
f 598/598/598 599/599/599 600/600/600
f 601/601/601 602/602/602 603/603/603
f 604/604/604 605/605/605 606/606/606
f 607/607/607 608/608/608 609/609/609
f 610/610/610 611/611/611 612/612/612
f 613/613/613 614/614/614 615/615/615
f 616/616/616 617/617/617 618/618/618
f 619/619/619 620/620/620 621/621/621
f 622/622/622 623/623/623 624/624/624
f 625/625/625 626/626/626 627/627/627
f 628/628/628 629/629/629 630/630/630
f 631/631/631 632/632/632 633/633/633
f 634/634/634 635/635/635 636/636/636
f 637/637/637 638/638/638 639/639/639
f 640/640/640 641/641/641 642/642/642
f 643/643/643 644/644/644 645/645/645
f 646/646/646 647/647/647 648/648/648
f 649/649/649 650/650/650 651/651/651
f 652/652/652 653/653/653 654/654/654
f 655/655/655 656/656/656 657/657/657
f 658/658/658 659/659/659 660/660/660
f 661/661/661 662/662/662 663/663/663
f 664/664/664 665/665/665 666/666/666
f 667/667/667 668/668/668 669/669/669
f 670/670/670 671/671/671 672/672/672
f 673/673/673 674/674/674 675/675/675
f 676/676/676 677/677/677 678/678/678
f 679/679/679 680/680/680 681/681/681
f 682/682/682 683/683/683 684/684/684
f 685/685/685 686/686/686 687/687/687
f 688/688/688 689/689/689 690/690/690
f 691/691/691 692/692/692 693/693/693
f 694/694/694 695/695/695 696/696/696
f 697/697/697 698/698/698 699/699/699
f 700/700/700 701/701/701 702/702/702
f 703/703/703 704/704/704 705/705/705
f 706/706/706 707/707/707 708/708/708
f 709/709/709 710/710/710 711/711/711
f 712/712/712 713/713/713 714/714/714
f 715/715/715 716/716/716 717/717/717
f 718/718/718 719/719/719 720/720/720
f 721/721/721 722/722/722 723/723/723
f 724/724/724 725/725/725 726/726/726
f 727/727/727 728/728/728 729/729/729
f 730/730/730 731/731/731 732/732/732
f 733/733/733 734/734/734 735/735/735
f 736/736/736 737/737/737 738/738/738
f 739/739/739 740/740/740 741/741/741
f 742/742/742 743/743/743 744/744/744
f 745/745/745 746/746/746 747/747/747
f 748/748/748 749/749/749 750/750/750
f 751/751/751 752/752/752 753/753/753
f 754/754/754 755/755/755 756/756/756
f 757/757/757 758/758/758 759/759/759
f 760/760/760 761/761/761 762/762/762
f 763/763/763 764/764/764 765/765/765
f 766/766/766 767/767/767 768/768/768
f 769/769/769 770/770/770 771/771/771
f 772/772/772 773/773/773 774/774/774
f 775/775/775 776/776/776 777/777/777
f 778/778/778 779/779/779 780/780/780
f 781/781/781 782/782/782 783/783/783
f 784/784/784 785/785/785 786/786/786
f 787/787/787 788/788/788 789/789/789
f 790/790/790 791/791/791 792/792/792
f 793/793/793 794/794/794 795/795/795
f 796/796/796 797/797/797 798/798/798
f 799/799/799 800/800/800 801/801/801
f 802/802/802 803/803/803 804/804/804
f 805/805/805 806/806/806 807/807/807
f 808/808/808 809/809/809 810/810/810
f 811/811/811 812/812/812 813/813/813
f 814/814/814 815/815/815 816/816/816
f 817/817/817 818/818/818 819/819/819
f 820/820/820 821/821/821 822/822/822
f 823/823/823 824/824/824 825/825/825
f 826/826/826 827/827/827 828/828/828
f 829/829/829 830/830/830 831/831/831
f 832/832/832 833/833/833 834/834/834
f 835/835/835 836/836/836 837/837/837
f 838/838/838 839/839/839 840/840/840
f 841/841/841 842/842/842 843/843/843
f 844/844/844 845/845/845 846/846/846
f 847/847/847 848/848/848 849/849/849
f 850/850/850 851/851/851 852/852/852
f 853/853/853 854/854/854 855/855/855
f 856/856/856 857/857/857 858/858/858
f 859/859/859 860/860/860 861/861/861
f 862/862/862 863/863/863 864/864/864
f 865/865/865 866/866/866 867/867/867
f 868/868/868 869/869/869 870/870/870
f 871/871/871 872/872/872 873/873/873
f 874/874/874 875/875/875 876/876/876
f 877/877/877 878/878/878 879/879/879
f 880/880/880 881/881/881 882/882/882
f 883/883/883 884/884/884 885/885/885
f 886/886/886 887/887/887 888/888/888
f 889/889/889 890/890/890 891/891/891
f 892/892/892 893/893/893 894/894/894
f 895/895/895 896/896/896 897/897/897
f 898/898/898 899/899/899 900/900/900
f 901/901/901 902/902/902 903/903/903
f 904/904/904 905/905/905 906/906/906
f 907/907/907 908/908/908 909/909/909
f 910/910/910 911/911/911 912/912/912
f 913/913/913 914/914/914 915/915/915
f 916/916/916 917/917/917 918/918/918
f 919/919/919 920/920/920 921/921/921
f 922/922/922 923/923/923 924/924/924
f 925/925/925 926/926/926 927/927/927
f 928/928/928 929/929/929 930/930/930
