# STALKER Armor converted geometry (MC model units, pivot-relative)
v 2.30000 -0.30000 2.30000
v 2.30000 12.30000 -2.30000
v 2.30000 12.30000 2.30000
v 2.30000 -0.30000 -2.30000
v -2.30000 12.30000 -2.30000
v 2.30000 12.30000 -2.30000
v -2.30000 -0.30000 -2.30000
v -2.30000 12.30000 2.30000
v -2.30000 12.30000 -2.30000
v -2.30000 -0.30000 2.30000
v 2.30000 12.30000 2.30000
v -2.30000 12.30000 2.30000
v -2.30000 12.30000 -2.30000
v 2.30000 12.30000 2.30000
v 2.30000 12.30000 -2.30000
v 2.30000 -0.30000 -2.30000
v -2.30000 -0.30000 2.30000
v -2.30000 -0.30000 -2.30000
v 2.30000 -0.30000 2.30000
v 2.30000 -0.30000 -2.30000
v 2.30000 12.30000 -2.30000
v 2.30000 -0.30000 -2.30000
v -2.30000 -0.30000 -2.30000
v -2.30000 12.30000 -2.30000
v -2.30000 -0.30000 -2.30000
v -2.30000 -0.30000 2.30000
v -2.30000 12.30000 2.30000
v -2.30000 -0.30000 2.30000
v 2.30000 -0.30000 2.30000
v 2.30000 12.30000 2.30000
v -2.30000 12.30000 -2.30000
v -2.30000 12.30000 2.30000
v 2.30000 12.30000 2.30000
v 2.30000 -0.30000 -2.30000
v 2.30000 -0.30000 2.30000
v -2.30000 -0.30000 2.30000
vt 0.56180 0.37487
vt 0.39375 0.00316
vt 0.56164 0.00310
vt 0.75660 0.29944
vt 0.54913 0.00271
vt 0.76222 0.00363
vt 0.39105 0.37330
vt 0.56421 0.00467
vt 0.39274 0.00402
vt 0.56321 0.37357
vt 0.39288 0.00411
vt 0.56321 0.00411
vt 0.51521 0.24458
vt 0.45431 0.30548
vt 0.45431 0.24458
vt 0.50667 0.24402
vt 0.44646 0.30422
vt 0.44646 0.24402
vt 0.56180 0.37487
vt 0.39391 0.37493
vt 0.39375 0.00316
vt 0.75660 0.29944
vt 0.54351 0.29851
vt 0.54913 0.00271
vt 0.39105 0.37330
vt 0.56252 0.37395
vt 0.56421 0.00467
vt 0.56321 0.37357
vt 0.39288 0.37357
vt 0.39288 0.00411
vt 0.51521 0.24458
vt 0.51521 0.30548
vt 0.45431 0.30548
vt 0.50667 0.24402
vt 0.50667 0.30422
vt 0.44646 0.30422
vn 1.00000 -0.00000 0.00000
vn 1.00000 -0.00000 0.00000
vn 1.00000 -0.00000 0.00000
vn 0.00000 -0.00000 -1.00000
vn 0.00000 -0.00000 -1.00000
vn 0.00000 -0.00000 -1.00000
vn -1.00000 -0.00000 -0.00000
vn -1.00000 -0.00000 -0.00000
vn -1.00000 -0.00000 -0.00000
vn 0.00000 -0.00000 1.00000
vn 0.00000 -0.00000 1.00000
vn 0.00000 -0.00000 1.00000
vn 0.00000 1.00000 -0.00000
vn 0.00000 1.00000 -0.00000
vn 0.00000 1.00000 -0.00000
vn 0.00000 -1.00000 0.00000
vn 0.00000 -1.00000 0.00000
vn 0.00000 -1.00000 0.00000
vn 1.00000 -0.00000 0.00000
vn 1.00000 -0.00000 0.00000
vn 1.00000 -0.00000 0.00000
vn 0.00000 -0.00000 -1.00000
vn 0.00000 -0.00000 -1.00000
vn 0.00000 -0.00000 -1.00000
vn -1.00000 -0.00000 -0.00000
vn -1.00000 -0.00000 -0.00000
vn -1.00000 -0.00000 -0.00000
vn 0.00000 -0.00000 1.00000
vn 0.00000 -0.00000 1.00000
vn 0.00000 -0.00000 1.00000
vn 0.00000 1.00000 -0.00000
vn 0.00000 1.00000 -0.00000
vn 0.00000 1.00000 -0.00000
vn 0.00000 -1.00000 0.00000
vn 0.00000 -1.00000 0.00000
vn 0.00000 -1.00000 0.00000
f 1/1/1 2/2/2 3/3/3
f 4/4/4 5/5/5 6/6/6
f 7/7/7 8/8/8 9/9/9
f 10/10/10 11/11/11 12/12/12
f 13/13/13 14/14/14 15/15/15
f 16/16/16 17/17/17 18/18/18
f 19/19/19 20/20/20 21/21/21
f 22/22/22 23/23/23 24/24/24
f 25/25/25 26/26/26 27/27/27
f 28/28/28 29/29/29 30/30/30
f 31/31/31 32/32/32 33/33/33
f 34/34/34 35/35/35 36/36/36
