# STALKER Armor converted geometry (MC model units, pivot-relative)
v 2.30000 -2.30000 -2.30000
v -2.30000 10.30000 -2.30000
v 2.30000 10.30000 -2.30000
v -2.30000 -2.30000 -2.30000
v -2.30000 10.30000 2.30000
v -2.30000 10.30000 -2.30000
v -2.30000 -2.30000 2.30000
v 2.30000 10.30000 2.30000
v -2.30000 10.30000 2.30000
v 2.30000 -2.30000 2.30000
v 2.30000 10.30000 -2.30000
v 2.30000 10.30000 2.30000
v -2.30000 10.30000 2.30000
v 2.30000 10.30000 -2.30000
v -2.30000 10.30000 -2.30000
v -2.30000 -2.30000 -2.30000
v 2.30000 -2.30000 2.30000
v -2.30000 -2.30000 2.30000
v 2.30000 -2.30000 -2.30000
v -2.30000 -2.30000 -2.30000
v -2.30000 10.30000 -2.30000
v -2.30000 -2.30000 -2.30000
v -2.30000 -2.30000 2.30000
v -2.30000 10.30000 2.30000
v -2.30000 -2.30000 2.30000
v 2.30000 -2.30000 2.30000
v 2.30000 10.30000 2.30000
v 2.30000 -2.30000 2.30000
v 2.30000 -2.30000 -2.30000
v 2.30000 10.30000 -2.30000
v -2.30000 10.30000 2.30000
v 2.30000 10.30000 2.30000
v 2.30000 10.30000 -2.30000
v -2.30000 -2.30000 -2.30000
v 2.30000 -2.30000 -2.30000
v 2.30000 -2.30000 2.30000
vt 0.76695 0.33539
vt 0.73074 0.07545
vt 0.82537 0.09882
vt 0.89159 0.39857
vt 0.75826 0.01105
vt 0.89159 0.01105
vt 0.98789 0.34010
vt 0.81501 0.07576
vt 0.93001 0.05261
vt 0.89510 0.40234
vt 0.75122 0.01497
vt 0.89510 0.01497
vt 0.61743 0.37792
vt 0.45698 0.53837
vt 0.45698 0.37792
vt 0.60332 0.39048
vt 0.46481 0.52899
vt 0.46481 0.39048
vt 0.76695 0.33539
vt 0.67232 0.31202
vt 0.73074 0.07545
vt 0.89159 0.39857
vt 0.75826 0.39857
vt 0.75826 0.01105
vt 0.98789 0.34010
vt 0.87289 0.36325
vt 0.81501 0.07576
vt 0.89510 0.40234
vt 0.75122 0.40234
vt 0.75122 0.01497
vt 0.61743 0.37792
vt 0.61743 0.53837
vt 0.45698 0.53837
vt 0.60332 0.39048
vt 0.60332 0.52899
vt 0.46481 0.52899
vn 0.00000 -0.00000 -1.00000
vn 0.00000 -0.00000 -1.00000
vn 0.00000 -0.00000 -1.00000
vn -1.00000 -0.00000 -0.00000
vn -1.00000 -0.00000 -0.00000
vn -1.00000 -0.00000 -0.00000
vn -0.00000 -0.00000 1.00000
vn -0.00000 -0.00000 1.00000
vn -0.00000 -0.00000 1.00000
vn 1.00000 -0.00000 0.00000
vn 1.00000 -0.00000 0.00000
vn 1.00000 -0.00000 0.00000
vn 0.00000 1.00000 -0.00000
vn 0.00000 1.00000 -0.00000
vn 0.00000 1.00000 -0.00000
vn 0.00000 -1.00000 0.00000
vn 0.00000 -1.00000 0.00000
vn 0.00000 -1.00000 0.00000
vn 0.00000 -0.00000 -1.00000
vn 0.00000 -0.00000 -1.00000
vn 0.00000 -0.00000 -1.00000
vn -1.00000 -0.00000 -0.00000
vn -1.00000 -0.00000 -0.00000
vn -1.00000 -0.00000 -0.00000
vn -0.00000 -0.00000 1.00000
vn -0.00000 -0.00000 1.00000
vn -0.00000 -0.00000 1.00000
vn 1.00000 -0.00000 0.00000
vn 1.00000 -0.00000 0.00000
vn 1.00000 -0.00000 0.00000
vn 0.00000 1.00000 -0.00000
vn 0.00000 1.00000 -0.00000
vn 0.00000 1.00000 -0.00000
vn 0.00000 -1.00000 0.00000
vn 0.00000 -1.00000 0.00000
vn 0.00000 -1.00000 0.00000
f 1/1/1 2/2/2 3/3/3
f 4/4/4 5/5/5 6/6/6
f 7/7/7 8/8/8 9/9/9
f 10/10/10 11/11/11 12/12/12
f 13/13/13 14/14/14 15/15/15
f 16/16/16 17/17/17 18/18/18
f 19/19/19 20/20/20 21/21/21
f 22/22/22 23/23/23 24/24/24
f 25/25/25 26/26/26 27/27/27
f 28/28/28 29/29/29 30/30/30
f 31/31/31 32/32/32 33/33/33
f 34/34/34 35/35/35 36/36/36
