# STALKER Armor converted geometry (MC model units, pivot-relative)
v -0.01812 11.98215 -5.85000
v -0.01812 7.79826 1.52521
v -0.01812 11.98215 2.85000
v -0.01812 11.98215 2.85000
v 2.34962 7.79826 1.52521
v 2.91782 11.98215 2.85000
v 2.34962 7.79826 1.52521
v 2.91782 11.98215 -5.85000
v 2.91782 11.98215 2.85000
v 2.34962 6.21785 -5.85000
v -0.01812 11.98215 -5.85000
v 2.91782 11.98215 -5.85000
v 2.91782 11.98215 2.85000
v -0.01812 11.98215 -5.85000
v -0.01812 11.98215 2.85000
v -0.01812 7.79826 1.52521
v 2.34962 6.21785 -5.85000
v 2.34962 7.79826 1.52521
v 0.01812 11.98215 -5.85000
v 0.01812 7.79826 1.52521
v 0.01812 6.21785 -5.85000
v 0.01812 11.98215 2.85000
v -2.34962 7.79826 1.52521
v 0.01812 7.79826 1.52521
v -2.91782 11.98215 -5.85000
v -2.34962 7.79826 1.52521
v -2.91782 11.98215 2.85000
v 0.01812 11.98215 -5.85000
v -2.34962 6.21785 -5.85000
v -2.91782 11.98215 -5.85000
v 0.01812 11.98215 -5.85000
v -2.91782 11.98215 2.85000
v 0.01812 11.98215 2.85000
v -2.34962 6.21785 -5.85000
v 0.01812 7.79826 1.52521
v -2.34962 7.79826 1.52521
v -0.01812 11.98215 -5.85000
v -0.01812 6.21785 -5.85000
v -0.01812 7.79826 1.52521
v -0.01812 11.98215 2.85000
v -0.01812 7.79826 1.52521
v 2.34962 7.79826 1.52521
v 2.34962 7.79826 1.52521
v 2.34962 6.21785 -5.85000
v 2.91782 11.98215 -5.85000
v 2.34962 6.21785 -5.85000
v -0.01812 6.21785 -5.85000
v -0.01812 11.98215 -5.85000
v 2.91782 11.98215 2.85000
v 2.91782 11.98215 -5.85000
v -0.01812 11.98215 -5.85000
v -0.01812 7.79826 1.52521
v -0.01812 6.21785 -5.85000
v 2.34962 6.21785 -5.85000
v 0.01812 11.98215 -5.85000
v 0.01812 11.98215 2.85000
v 0.01812 7.79826 1.52521
v 0.01812 11.98215 2.85000
v -2.91782 11.98215 2.85000
v -2.34962 7.79826 1.52521
v -2.91782 11.98215 -5.85000
v -2.34962 6.21785 -5.85000
v -2.34962 7.79826 1.52521
v 0.01812 11.98215 -5.85000
v 0.01812 6.21785 -5.85000
v -2.34962 6.21785 -5.85000
v 0.01812 11.98215 -5.85000
v -2.91782 11.98215 -5.85000
v -2.91782 11.98215 2.85000
v -2.34962 6.21785 -5.85000
v 0.01812 6.21785 -5.85000
v 0.01812 7.79826 1.52521
vt 0.66269 0.52219
vt 0.42276 0.07952
vt 0.66269 0.00000
vt 0.23634 0.76412
vt 0.18645 0.86063
vt 0.17534 0.78012
vt 0.99653 0.49974
vt 0.84649 0.43156
vt 0.99375 0.43156
vt 0.23084 0.89036
vt 0.15401 0.78664
vt 0.24089 0.79206
vt 0.70991 0.07027
vt 0.58256 0.00788
vt 0.71083 0.00727
vt 0.99700 0.50948
vt 0.89078 0.52929
vt 0.95323 0.45957
vt 0.66269 0.52219
vt 0.42276 0.07952
vt 0.33213 0.52219
vt 0.23634 0.76412
vt 0.18645 0.86063
vt 0.23511 0.86309
vt 0.84649 0.43156
vt 0.99653 0.49974
vt 0.99375 0.43156
vt 0.15401 0.78664
vt 0.23084 0.89036
vt 0.24089 0.79206
vt 0.58256 0.00788
vt 0.70991 0.07027
vt 0.71083 0.00727
vt 0.89078 0.52929
vt 0.99700 0.50948
vt 0.95323 0.45957
vt 0.66269 0.52219
vt 0.33213 0.52219
vt 0.42276 0.07952
vt 0.23634 0.76412
vt 0.23511 0.86309
vt 0.18645 0.86063
vt 0.99653 0.49974
vt 0.87011 0.54870
vt 0.84649 0.43156
vt 0.23084 0.89036
vt 0.16269 0.87864
vt 0.15401 0.78664
vt 0.70991 0.07027
vt 0.58441 0.06012
vt 0.58256 0.00788
vt 0.99700 0.50948
vt 0.93663 0.55764
vt 0.89078 0.52929
vt 0.66269 0.52219
vt 0.66269 0.00000
vt 0.42276 0.07952
vt 0.23634 0.76412
vt 0.17534 0.78012
vt 0.18645 0.86063
vt 0.84649 0.43156
vt 0.87011 0.54870
vt 0.99653 0.49974
vt 0.15401 0.78664
vt 0.16269 0.87864
vt 0.23084 0.89036
vt 0.58256 0.00788
vt 0.58441 0.06012
vt 0.70991 0.07027
vt 0.89078 0.52929
vt 0.93663 0.55764
vt 0.99700 0.50948
vn -1.00000 -0.00000 -0.00000
vn -1.00000 -0.00000 -0.00000
vn -1.00000 -0.00000 -0.00000
vn 0.00000 -0.31461 0.94922
vn 0.00000 -0.31461 0.94922
vn 0.00000 -0.31461 0.94922
vn 0.99087 -0.13480 -0.00000
vn 0.99087 -0.13480 -0.00000
vn 0.99087 -0.13480 -0.00000
vn 0.00000 -0.00000 -1.00000
vn 0.00000 -0.00000 -1.00000
vn 0.00000 -0.00000 -1.00000
vn 0.00000 1.00000 -0.00000
vn 0.00000 1.00000 -0.00000
vn 0.00000 1.00000 -0.00000
vn 0.00000 -0.97967 0.20059
vn 0.00000 -0.97967 0.20059
vn 0.00000 -0.97967 0.20059
vn 1.00000 -0.00000 0.00000
vn 1.00000 -0.00000 0.00000
vn 1.00000 -0.00000 0.00000
vn 0.00000 -0.31461 0.94922
vn 0.00000 -0.31461 0.94922
vn 0.00000 -0.31461 0.94922
vn -0.99087 -0.13480 -0.00000
vn -0.99087 -0.13480 -0.00000
vn -0.99087 -0.13480 -0.00000
vn 0.00000 -0.00000 -1.00000
vn 0.00000 -0.00000 -1.00000
vn 0.00000 -0.00000 -1.00000
vn 0.00000 1.00000 -0.00000
vn 0.00000 1.00000 -0.00000
vn 0.00000 1.00000 -0.00000
vn 0.00000 -0.97967 0.20059
vn 0.00000 -0.97967 0.20059
vn 0.00000 -0.97967 0.20059
vn -1.00000 -0.00000 -0.00000
vn -1.00000 -0.00000 -0.00000
vn -1.00000 -0.00000 -0.00000
vn 0.00000 -0.31461 0.94922
vn 0.00000 -0.31461 0.94922
vn 0.00000 -0.31461 0.94922
vn 0.99496 -0.09820 0.02010
vn 0.99496 -0.09820 0.02010
vn 0.99496 -0.09820 0.02010
vn 0.00000 -0.00000 -1.00000
vn 0.00000 -0.00000 -1.00000
vn 0.00000 -0.00000 -1.00000
vn 0.00000 1.00000 -0.00000
vn 0.00000 1.00000 -0.00000
vn 0.00000 1.00000 -0.00000
vn 0.00000 -0.97967 0.20059
vn 0.00000 -0.97967 0.20059
vn 0.00000 -0.97967 0.20059
vn 1.00000 -0.00000 0.00000
vn 1.00000 -0.00000 0.00000
vn 1.00000 -0.00000 0.00000
vn 0.00000 -0.31461 0.94922
vn 0.00000 -0.31461 0.94922
vn 0.00000 -0.31461 0.94922
vn -0.99496 -0.09820 0.02010
vn -0.99496 -0.09820 0.02010
vn -0.99496 -0.09820 0.02010
vn 0.00000 -0.00000 -1.00000
vn 0.00000 -0.00000 -1.00000
vn 0.00000 -0.00000 -1.00000
vn 0.00000 1.00000 -0.00000
vn 0.00000 1.00000 -0.00000
vn 0.00000 1.00000 -0.00000
vn 0.00000 -0.97967 0.20059
vn 0.00000 -0.97967 0.20059
vn 0.00000 -0.97967 0.20059
f 1/1/1 2/2/2 3/3/3
f 4/4/4 5/5/5 6/6/6
f 7/7/7 8/8/8 9/9/9
f 10/10/10 11/11/11 12/12/12
f 13/13/13 14/14/14 15/15/15
f 16/16/16 17/17/17 18/18/18
f 19/19/19 20/20/20 21/21/21
f 22/22/22 23/23/23 24/24/24
f 25/25/25 26/26/26 27/27/27
f 28/28/28 29/29/29 30/30/30
f 31/31/31 32/32/32 33/33/33
f 34/34/34 35/35/35 36/36/36
f 37/37/37 38/38/38 39/39/39
f 40/40/40 41/41/41 42/42/42
f 43/43/43 44/44/44 45/45/45
f 46/46/46 47/47/47 48/48/48
f 49/49/49 50/50/50 51/51/51
f 52/52/52 53/53/53 54/54/54
f 55/55/55 56/56/56 57/57/57
f 58/58/58 59/59/59 60/60/60
f 61/61/61 62/62/62 63/63/63
f 64/64/64 65/65/65 66/66/66
f 67/67/67 68/68/68 69/69/69
f 70/70/70 71/71/71 72/72/72
