# STALKER Armor converted geometry (MC model units, pivot-relative)
v 2.38017 0.99175 2.94703
v 3.41638 0.80059 2.33048
v 3.74802 0.99175 2.94703
v -3.62953 12.21435 -1.52901
v -3.10958 9.45987 2.94703
v -4.35322 13.24802 2.94703
v -3.10958 9.45987 2.94703
v 4.34678 13.24802 2.94703
v -4.35322 13.24802 2.94703
v -0.00321 13.24802 -1.52901
v -4.35321 13.24802 -1.52901
v -4.35322 13.24802 2.94703
v -0.00265 11.38407 -3.42244
v -2.03422 4.90256 -3.42244
v -2.98664 11.38407 -3.42244
v 3.10315 9.45987 2.94703
v 3.62423 8.96573 -1.52900
v 3.62423 12.21435 -1.52900
v -0.00321 13.24802 -1.52901
v -3.62953 12.21435 -1.52901
v -4.35321 13.24802 -1.52901
v 3.62423 12.21435 -1.52900
v -0.00321 13.24802 -1.52901
v 4.34679 13.24802 -1.52900
v 2.02892 4.90256 -3.42244
v -0.00265 11.38407 -3.42244
v 2.98134 11.38407 -3.42244
v -0.00265 4.90256 -3.42244
v -0.00266 1.90530 -1.52901
v -1.96511 1.90530 -1.52901
v 2.98134 11.38407 -3.42244
v 3.62423 12.21435 -1.52900
v 3.62423 8.96573 -1.52900
v -2.03422 4.90256 -3.42244
v -3.62953 1.90530 -1.52901
v -3.62953 8.96573 -1.52901
v 2.02892 4.90256 -3.42244
v 3.12500 1.90530 -1.52901
v 1.98453 1.90530 -1.52901
v -2.98664 11.38407 -3.42244
v -0.00266 12.21435 -1.52901
v -0.00265 11.38407 -3.42244
v 2.98134 11.38407 -3.42244
v -0.00266 12.21435 -1.52901
v 3.62423 12.21435 -1.52900
v 3.74802 0.99175 0.70901
v 3.62423 1.90530 -1.52900
v 4.34679 0.99175 0.70901
v 3.74802 0.99175 0.70901
v 4.34678 0.99175 2.94703
v 3.74802 0.99175 2.94703
v -0.00321 0.99175 0.70901
v 2.38017 0.99175 2.94703
v -0.00322 0.99175 2.94703
v -0.00321 0.99175 0.70901
v 1.98453 1.90530 -1.52901
v 2.38017 0.99175 0.70901
v -2.35694 0.99175 0.70901
v -2.26512 1.58213 -1.31762
v -1.96511 1.90530 -1.52901
v -4.35321 0.99175 0.70901
v -3.72348 0.99175 2.94703
v -4.35322 0.99175 2.94703
v -3.62953 1.90530 -1.52901
v -3.72348 0.99175 0.70901
v -4.35321 0.99175 0.70901
v -3.10448 1.90530 -1.52901
v -2.26512 1.58213 -1.31762
v -2.98781 1.58213 -1.31762
v -1.96511 1.90530 -1.52901
v -0.00321 0.99175 0.70901
v -2.35694 0.99175 0.70901
v 2.38017 0.99175 0.70901
v 2.69247 0.80059 2.33048
v 2.38017 0.99175 2.94703
v -2.35694 0.99175 0.70901
v -0.00322 0.99175 2.94703
v -2.35694 0.99175 2.94703
v -2.98781 1.58213 -1.31762
v -2.70012 0.58507 0.70901
v -3.42281 0.58507 0.70901
v -3.42281 0.58507 0.70901
v -2.70012 0.80059 2.33048
v -3.42281 0.80059 2.33048
v 2.69247 0.58507 0.70901
v 3.41638 0.80059 2.33048
v 2.69247 0.80059 2.33048
v 2.69247 0.58507 0.70901
v 2.98138 1.58213 -1.31762
v 3.41638 0.58507 0.70901
v 3.74802 0.99175 0.70901
v 3.41638 0.80059 2.33048
v 3.41638 0.58507 0.70901
v -3.72348 0.99175 2.94703
v -2.70012 0.80059 2.33048
v -2.35694 0.99175 2.94703
v 2.38017 0.99175 0.70901
v 2.25747 1.58213 -1.31762
v 2.69247 0.58507 0.70901
v -3.72348 0.99175 0.70901
v -3.42281 0.80059 2.33048
v -3.72348 0.99175 2.94703
v 3.12500 1.90530 -1.52901
v 2.25747 1.58213 -1.31762
v 1.98453 1.90530 -1.52901
v 3.74802 0.99175 0.70901
v 2.98138 1.58213 -1.31762
v 3.12500 1.90530 -1.52901
v -2.35694 0.99175 0.70901
v -2.70012 0.80059 2.33048
v -2.70012 0.58507 0.70901
v -3.72348 0.99175 0.70901
v -2.98781 1.58213 -1.31762
v -3.42281 0.58507 0.70901
v -3.62953 8.96573 -1.52901
v -3.62953 1.90530 -1.52901
v -4.35321 0.99175 0.70901
v 3.10315 9.45987 2.94703
v 4.34678 0.99175 2.94703
v 4.34679 0.99175 0.70901
v -3.10958 9.45987 2.94703
v -3.72348 0.99175 2.94703
v -2.35694 0.99175 2.94703
v 2.38017 0.99175 2.94703
v 2.69247 0.80059 2.33048
v 3.41638 0.80059 2.33048
v -4.35322 13.24802 2.94703
v -4.35321 13.24802 -1.52901
v -3.62953 12.21435 -1.52901
v -3.62953 12.21435 -1.52901
v -3.62953 8.96573 -1.52901
v -3.10958 9.45987 2.94703
v -3.10958 9.45987 2.94703
v 3.10315 9.45987 2.94703
v 4.34678 13.24802 2.94703
v -4.35322 13.24802 2.94703
v 4.34678 13.24802 2.94703
v -0.00321 13.24802 -1.52901
v 4.34678 13.24802 2.94703
v 4.34679 13.24802 -1.52900
v -0.00321 13.24802 -1.52901
v -0.00265 11.38407 -3.42244
v -0.00265 4.90256 -3.42244
v -2.03422 4.90256 -3.42244
v 4.34679 13.24802 -1.52900
v 4.34678 13.24802 2.94703
v 3.62423 12.21435 -1.52900
v 4.34678 13.24802 2.94703
v 3.10315 9.45987 2.94703
v 3.62423 12.21435 -1.52900
v -0.00321 13.24802 -1.52901
v -0.00266 12.21435 -1.52901
v -3.62953 12.21435 -1.52901
v 3.62423 12.21435 -1.52900
v -0.00266 12.21435 -1.52901
v -0.00321 13.24802 -1.52901
v 2.02892 4.90256 -3.42244
v -0.00265 4.90256 -3.42244
v -0.00265 11.38407 -3.42244
v -3.62953 1.90530 -1.52901
v -2.03422 4.90256 -3.42244
v -3.10448 1.90530 -1.52901
v -2.03422 4.90256 -3.42244
v -0.00265 4.90256 -3.42244
v -1.96511 1.90530 -1.52901
v -3.10448 1.90530 -1.52901
v -2.03422 4.90256 -3.42244
v -1.96511 1.90530 -1.52901
v 3.62423 1.90530 -1.52900
v 2.02892 4.90256 -3.42244
v 3.62423 8.96573 -1.52900
v 2.02892 4.90256 -3.42244
v 2.98134 11.38407 -3.42244
v 3.62423 8.96573 -1.52900
v -3.62953 12.21435 -1.52901
v -2.98664 11.38407 -3.42244
v -3.62953 8.96573 -1.52901
v -2.98664 11.38407 -3.42244
v -2.03422 4.90256 -3.42244
v -3.62953 8.96573 -1.52901
v -0.00266 1.90530 -1.52901
v -0.00265 4.90256 -3.42244
v 1.98453 1.90530 -1.52901
v -0.00265 4.90256 -3.42244
v 2.02892 4.90256 -3.42244
v 1.98453 1.90530 -1.52901
v 2.02892 4.90256 -3.42244
v 3.62423 1.90530 -1.52900
v 3.12500 1.90530 -1.52901
v -2.98664 11.38407 -3.42244
v -3.62953 12.21435 -1.52901
v -0.00266 12.21435 -1.52901
v 2.98134 11.38407 -3.42244
v -0.00265 11.38407 -3.42244
v -0.00266 12.21435 -1.52901
v 3.74802 0.99175 0.70901
v 3.12500 1.90530 -1.52901
v 3.62423 1.90530 -1.52900
v 3.74802 0.99175 0.70901
v 4.34679 0.99175 0.70901
v 4.34678 0.99175 2.94703
v -0.00321 0.99175 0.70901
v 2.38017 0.99175 0.70901
v 2.38017 0.99175 2.94703
v -0.00321 0.99175 0.70901
v -0.00266 1.90530 -1.52901
v 1.98453 1.90530 -1.52901
v -2.35694 0.99175 0.70901
v -2.70012 0.58507 0.70901
v -2.26512 1.58213 -1.31762
v -4.35321 0.99175 0.70901
v -3.72348 0.99175 0.70901
v -3.72348 0.99175 2.94703
v -3.62953 1.90530 -1.52901
v -3.10448 1.90530 -1.52901
v -3.72348 0.99175 0.70901
v -3.10448 1.90530 -1.52901
v -1.96511 1.90530 -1.52901
v -2.26512 1.58213 -1.31762
v -1.96511 1.90530 -1.52901
v -0.00266 1.90530 -1.52901
v -0.00321 0.99175 0.70901
v 2.38017 0.99175 0.70901
v 2.69247 0.58507 0.70901
v 2.69247 0.80059 2.33048
v -2.35694 0.99175 0.70901
v -0.00321 0.99175 0.70901
v -0.00322 0.99175 2.94703
v -2.98781 1.58213 -1.31762
v -2.26512 1.58213 -1.31762
v -2.70012 0.58507 0.70901
v -3.42281 0.58507 0.70901
v -2.70012 0.58507 0.70901
v -2.70012 0.80059 2.33048
v 2.69247 0.58507 0.70901
v 3.41638 0.58507 0.70901
v 3.41638 0.80059 2.33048
v 2.69247 0.58507 0.70901
v 2.25747 1.58213 -1.31762
v 2.98138 1.58213 -1.31762
v 3.74802 0.99175 0.70901
v 3.74802 0.99175 2.94703
v 3.41638 0.80059 2.33048
v -3.72348 0.99175 2.94703
v -3.42281 0.80059 2.33048
v -2.70012 0.80059 2.33048
v 2.38017 0.99175 0.70901
v 1.98453 1.90530 -1.52901
v 2.25747 1.58213 -1.31762
v -3.72348 0.99175 0.70901
v -3.42281 0.58507 0.70901
v -3.42281 0.80059 2.33048
v 3.12500 1.90530 -1.52901
v 2.98138 1.58213 -1.31762
v 2.25747 1.58213 -1.31762
v 3.74802 0.99175 0.70901
v 3.41638 0.58507 0.70901
v 2.98138 1.58213 -1.31762
v -2.35694 0.99175 0.70901
v -2.35694 0.99175 2.94703
v -2.70012 0.80059 2.33048
v -3.72348 0.99175 0.70901
v -3.10448 1.90530 -1.52901
v -2.98781 1.58213 -1.31762
v -4.35322 0.99175 2.94703
v -3.10958 9.45987 2.94703
v -4.35321 0.99175 0.70901
v -3.10958 9.45987 2.94703
v -3.62953 8.96573 -1.52901
v -4.35321 0.99175 0.70901
v 3.62423 1.90530 -1.52900
v 3.62423 8.96573 -1.52900
v 4.34679 0.99175 0.70901
v 3.62423 8.96573 -1.52900
v 3.10315 9.45987 2.94703
v 4.34679 0.99175 0.70901
v 4.34678 0.99175 2.94703
v 3.10315 9.45987 2.94703
v 3.74802 0.99175 2.94703
v 3.10315 9.45987 2.94703
v -3.10958 9.45987 2.94703
v -0.00322 0.99175 2.94703
v 3.74802 0.99175 2.94703
v 3.10315 9.45987 2.94703
v 2.38017 0.99175 2.94703
v -3.10958 9.45987 2.94703
v -4.35322 0.99175 2.94703
v -3.72348 0.99175 2.94703
v -2.35694 0.99175 2.94703
v -0.00322 0.99175 2.94703
v -3.10958 9.45987 2.94703
v -0.00322 0.99175 2.94703
v 2.38017 0.99175 2.94703
v 3.10315 9.45987 2.94703
v 3.30030 9.11916 3.15946
v 3.66593 9.96597 -1.49734
v 3.30030 9.96597 3.15946
v 3.66593 9.11916 -1.49734
v -3.64105 9.96597 -1.49734
v 3.66593 9.96597 -1.49734
v -3.64105 9.11916 -1.49734
v -3.27543 9.96597 3.15946
v -3.64105 9.96597 -1.49734
v 0.01244 9.11916 3.15946
v 3.30030 9.96597 3.15946
v 0.01244 9.96597 3.15946
v -3.64105 9.96597 -1.49734
v -3.27543 9.96597 3.15946
v 0.01244 9.96597 3.15946
v 3.66593 9.11916 -1.49734
v 3.30030 9.11916 3.15946
v 0.01244 9.11916 3.15946
v -3.27543 9.11916 3.15946
v 0.01244 9.96597 3.15946
v -3.27543 9.96597 3.15946
v 3.30030 9.11916 3.15946
v 3.66593 9.11916 -1.49734
v 3.66593 9.96597 -1.49734
v 3.66593 9.11916 -1.49734
v -3.64105 9.11916 -1.49734
v -3.64105 9.96597 -1.49734
v -3.64105 9.11916 -1.49734
v -3.27543 9.11916 3.15946
v -3.27543 9.96597 3.15946
v 0.01244 9.11916 3.15946
v 3.30030 9.11916 3.15946
v 3.30030 9.96597 3.15946
v 3.30030 9.96597 3.15946
v 3.66593 9.96597 -1.49734
v 0.01244 9.96597 3.15946
v 3.66593 9.96597 -1.49734
v -3.64105 9.96597 -1.49734
v 0.01244 9.96597 3.15946
v -3.27543 9.11916 3.15946
v -3.64105 9.11916 -1.49734
v 0.01244 9.11916 3.15946
v -3.64105 9.11916 -1.49734
v 3.66593 9.11916 -1.49734
v 0.01244 9.11916 3.15946
v -3.27543 9.11916 3.15946
v 0.01244 9.11916 3.15946
v 0.01244 9.96597 3.15946
vt 0.74123 0.89159
vt 0.70717 0.85266
vt 0.69630 0.89159
vt 0.57915 0.37823
vt 0.50567 0.41896
vt 0.50382 0.36365
vt 0.34148 0.17252
vt 0.05576 0.01434
vt 0.38914 0.01434
vt 0.41798 0.69734
vt 0.41798 0.62265
vt 0.56691 0.62265
vt 0.23943 0.68426
vt 0.15970 0.87722
vt 0.12232 0.68426
vt 0.58283 0.41717
vt 0.49789 0.42567
vt 0.49801 0.37450
vt 0.22320 0.02566
vt 0.06671 0.06666
vt 0.03548 0.02566
vt 0.37973 0.06666
vt 0.22320 0.02566
vt 0.41091 0.02566
vt 0.16035 0.87722
vt 0.24008 0.68426
vt 0.12297 0.68426
vt 0.23744 0.84977
vt 0.23770 0.95112
vt 0.14421 0.95112
vt 0.12169 0.77473
vt 0.18582 0.76490
vt 0.18561 0.80619
vt 0.11826 0.85653
vt 0.18476 0.89641
vt 0.18521 0.80668
vt 0.14348 0.84977
vt 0.09101 0.95112
vt 0.14534 0.95112
vt 0.16977 0.72091
vt 0.23203 0.68362
vt 0.23203 0.72091
vt 0.17023 0.72091
vt 0.23248 0.68362
vt 0.15681 0.68362
vt 0.40291 0.27206
vt 0.42302 0.09538
vt 0.42700 0.27549
vt 0.40291 0.27206
vt 0.40206 0.44979
vt 0.37797 0.44636
vt 0.53626 0.45102
vt 0.60467 0.51709
vt 0.53622 0.51709
vt 0.53626 0.45102
vt 0.59335 0.38433
vt 0.60472 0.45102
vt 0.74064 0.75025
vt 0.74367 0.62049
vt 0.75350 0.60657
vt 0.42677 0.27670
vt 0.37663 0.44741
vt 0.40197 0.45102
vt 0.42277 0.09659
vt 0.40143 0.27309
vt 0.42677 0.27670
vt 0.71608 0.60657
vt 0.74367 0.62049
vt 0.71993 0.62049
vt 0.47990 0.38433
vt 0.53626 0.45102
vt 0.46866 0.45102
vt 0.74118 0.74926
vt 0.73094 0.85266
vt 0.74123 0.89159
vt 0.46866 0.45102
vt 0.53622 0.51709
vt 0.46861 0.51709
vt 0.71013 0.61708
vt 0.72185 0.77834
vt 0.69248 0.77834
vt 0.69248 0.77834
vt 0.72178 0.90552
vt 0.69241 0.90552
vt 0.72259 0.77834
vt 0.69325 0.90552
vt 0.72266 0.90552
vt 0.72259 0.77834
vt 0.71088 0.61708
vt 0.69318 0.77834
vt 0.69625 0.74926
vt 0.70717 0.85266
vt 0.70711 0.74986
vt 0.69570 0.89259
vt 0.72935 0.85366
vt 0.74059 0.89259
vt 0.74118 0.74926
vt 0.74520 0.61950
vt 0.73089 0.74986
vt 0.69576 0.75025
vt 0.70561 0.85366
vt 0.69570 0.89259
vt 0.71672 0.60557
vt 0.74520 0.61950
vt 0.75418 0.60557
vt 0.69625 0.74926
vt 0.72142 0.61950
vt 0.71672 0.60557
vt 0.74064 0.75025
vt 0.72935 0.85366
vt 0.72940 0.75086
vt 0.69576 0.75025
vt 0.71993 0.62049
vt 0.70566 0.75086
vt 0.57925 0.42708
vt 0.57948 0.53324
vt 0.54136 0.54793
vt 0.58283 0.41717
vt 0.58450 0.55228
vt 0.54163 0.55228
vt 0.34148 0.17252
vt 0.36500 0.52611
vt 0.31264 0.52611
vt 0.74123 0.89159
vt 0.73094 0.85266
vt 0.70717 0.85266
vt 0.50382 0.36365
vt 0.57811 0.36365
vt 0.57915 0.37823
vt 0.57915 0.37823
vt 0.57925 0.42708
vt 0.50567 0.41896
vt 0.34148 0.17252
vt 0.10342 0.17252
vt 0.05576 0.01434
vt 0.56691 0.62265
vt 0.56691 0.77202
vt 0.41798 0.69734
vt 0.56691 0.77202
vt 0.41798 0.77202
vt 0.41798 0.69734
vt 0.23943 0.68426
vt 0.23943 0.87722
vt 0.15970 0.87722
vt 0.49921 0.35922
vt 0.58496 0.35922
vt 0.49801 0.37450
vt 0.58496 0.35922
vt 0.58283 0.41717
vt 0.49801 0.37450
vt 0.22320 0.02566
vt 0.22322 0.06666
vt 0.06671 0.06666
vt 0.37973 0.06666
vt 0.22322 0.06666
vt 0.22320 0.02566
vt 0.16035 0.87722
vt 0.24008 0.87722
vt 0.24008 0.68426
vt 0.06492 0.95112
vt 0.14066 0.84977
vt 0.08993 0.95112
vt 0.14066 0.84977
vt 0.23744 0.84977
vt 0.14421 0.95112
vt 0.08993 0.95112
vt 0.14066 0.84977
vt 0.14421 0.95112
vt 0.18516 0.89592
vt 0.11867 0.85604
vt 0.18561 0.80619
vt 0.11867 0.85604
vt 0.12169 0.77473
vt 0.18561 0.80619
vt 0.18541 0.76539
vt 0.12129 0.77522
vt 0.18521 0.80668
vt 0.12129 0.77522
vt 0.11826 0.85653
vt 0.18521 0.80668
vt 0.24001 0.95112
vt 0.24027 0.84977
vt 0.14534 0.95112
vt 0.24027 0.84977
vt 0.14348 0.84977
vt 0.14534 0.95112
vt 0.14348 0.84977
vt 0.06722 0.95112
vt 0.09101 0.95112
vt 0.16977 0.72091
vt 0.15636 0.68362
vt 0.23203 0.68362
vt 0.17023 0.72091
vt 0.23248 0.72091
vt 0.23248 0.68362
vt 0.40291 0.27206
vt 0.40294 0.09251
vt 0.42302 0.09538
vt 0.40291 0.27206
vt 0.42700 0.27549
vt 0.40206 0.44979
vt 0.53626 0.45102
vt 0.60472 0.45102
vt 0.60467 0.51709
vt 0.53626 0.45102
vt 0.53627 0.38433
vt 0.59335 0.38433
vt 0.74064 0.75025
vt 0.72940 0.75086
vt 0.74367 0.62049
vt 0.42677 0.27670
vt 0.40143 0.27309
vt 0.37663 0.44741
vt 0.42277 0.09659
vt 0.40165 0.09357
vt 0.40143 0.27309
vt 0.71608 0.60657
vt 0.75350 0.60657
vt 0.74367 0.62049
vt 0.47990 0.38433
vt 0.53627 0.38433
vt 0.53626 0.45102
vt 0.74118 0.74926
vt 0.73089 0.74986
vt 0.73094 0.85266
vt 0.46866 0.45102
vt 0.53626 0.45102
vt 0.53622 0.51709
vt 0.71013 0.61708
vt 0.73949 0.61708
vt 0.72185 0.77834
vt 0.69248 0.77834
vt 0.72185 0.77834
vt 0.72178 0.90552
vt 0.72259 0.77834
vt 0.69318 0.77834
vt 0.69325 0.90552
vt 0.72259 0.77834
vt 0.74030 0.61708
vt 0.71088 0.61708
vt 0.69625 0.74926
vt 0.69630 0.89159
vt 0.70717 0.85266
vt 0.69570 0.89259
vt 0.70561 0.85366
vt 0.72935 0.85366
vt 0.74118 0.74926
vt 0.75418 0.60557
vt 0.74520 0.61950
vt 0.69576 0.75025
vt 0.70566 0.75086
vt 0.70561 0.85366
vt 0.71672 0.60557
vt 0.72142 0.61950
vt 0.74520 0.61950
vt 0.69625 0.74926
vt 0.70711 0.74986
vt 0.72142 0.61950
vt 0.74064 0.75025
vt 0.74059 0.89259
vt 0.72935 0.85366
vt 0.69576 0.75025
vt 0.71608 0.60657
vt 0.71993 0.62049
vt 0.50422 0.54793
vt 0.50567 0.41896
vt 0.54136 0.54793
vt 0.50567 0.41896
vt 0.57925 0.42708
vt 0.54136 0.54793
vt 0.49763 0.53689
vt 0.49789 0.42567
vt 0.54163 0.55228
vt 0.49789 0.42567
vt 0.58283 0.41717
vt 0.54163 0.55228
vt 0.05576 0.52611
vt 0.10342 0.17252
vt 0.07871 0.52611
vt 0.10342 0.17252
vt 0.34148 0.17252
vt 0.22245 0.52611
vt 0.07871 0.52611
vt 0.10342 0.17252
vt 0.13112 0.52611
vt 0.34148 0.17252
vt 0.38914 0.52611
vt 0.36500 0.52611
vt 0.31264 0.52611
vt 0.22245 0.52611
vt 0.34148 0.17252
vt 0.22245 0.52611
vt 0.13112 0.52611
vt 0.10342 0.17252
vt 0.99665 0.64421
vt 0.95850 0.81202
vt 0.95850 0.64421
vt 0.62500 0.25000
vt 0.37500 0.50000
vt 0.37500 0.25000
vt 0.99804 0.62875
vt 0.95711 0.81164
vt 0.95711 0.62875
vt 0.99850 0.54839
vt 0.95169 0.73970
vt 0.95169 0.54839
vt 0.41386 0.88667
vt 0.41386 0.96946
vt 0.37246 0.96946
vt 0.41333 0.89191
vt 0.41333 0.98282
vt 0.36788 0.98282
vt 0.99528 0.80967
vt 0.95785 0.67177
vt 0.95785 0.80967
vt 0.99665 0.64421
vt 0.99665 0.81202
vt 0.95850 0.81202
vt 0.62500 0.25000
vt 0.62500 0.50000
vt 0.37500 0.50000
vt 0.99804 0.62875
vt 0.99804 0.81164
vt 0.95711 0.81164
vt 0.99850 0.54839
vt 0.99850 0.73970
vt 0.95169 0.73970
vt 0.33107 0.96946
vt 0.33107 0.88667
vt 0.37246 0.96946
vt 0.33107 0.88667
vt 0.41386 0.88667
vt 0.37246 0.96946
vt 0.32242 0.98282
vt 0.32242 0.89191
vt 0.36788 0.98282
vt 0.32242 0.89191
vt 0.41333 0.89191
vt 0.36788 0.98282
vt 0.99528 0.80967
vt 0.99528 0.67177
vt 0.95785 0.67177
vn -0.00000 -0.95025 0.31148
vn -0.00000 -0.95025 0.31148
vn -0.00000 -0.95025 0.31148
vn -0.94919 -0.30330 -0.08390
vn -0.94919 -0.30330 -0.08390
vn -0.94919 -0.30330 -0.08390
vn -0.00000 -0.00000 1.00000
vn -0.00000 -0.00000 1.00000
vn -0.00000 -0.00000 1.00000
vn 0.00000 1.00000 0.00000
vn 0.00000 1.00000 0.00000
vn 0.00000 1.00000 0.00000
vn 0.00000 -0.00000 -1.00000
vn 0.00000 -0.00000 -1.00000
vn 0.00000 -0.00000 -1.00000
vn 0.99291 -0.00000 0.11890
vn 0.99291 -0.00000 0.11890
vn 0.99291 -0.00000 0.11890
vn 0.00000 -0.00000 -1.00000
vn 0.00000 -0.00000 -1.00000
vn 0.00000 -0.00000 -1.00000
vn 0.00000 -0.00000 -1.00000
vn 0.00000 -0.00000 -1.00000
vn 0.00000 -0.00000 -1.00000
vn 0.00000 -0.00000 -1.00000
vn 0.00000 -0.00000 -1.00000
vn 0.00000 -0.00000 -1.00000
vn 0.00000 -0.51299 -0.85839
vn 0.00000 -0.51299 -0.85839
vn 0.00000 -0.51299 -0.85839
vn 0.94405 -0.00000 -0.32982
vn 0.94405 -0.00000 -0.32982
vn 0.94405 -0.00000 -0.32982
vn -0.75557 -0.00000 -0.65507
vn -0.75557 -0.00000 -0.65507
vn -0.75557 -0.00000 -0.65507
vn 0.00000 -0.51299 -0.85839
vn 0.00000 -0.51299 -0.85839
vn 0.00000 -0.51299 -0.85839
vn 0.00000 0.90726 -0.42058
vn 0.00000 0.90726 -0.42058
vn 0.00000 0.90726 -0.42058
vn 0.00000 0.90726 -0.42058
vn 0.00000 0.90726 -0.42058
vn 0.00000 0.90726 -0.42058
vn 0.00000 -0.91817 -0.39619
vn 0.00000 -0.91817 -0.39619
vn 0.00000 -0.91817 -0.39619
vn 0.00000 -1.00000 0.00000
vn 0.00000 -1.00000 0.00000
vn 0.00000 -1.00000 0.00000
vn 0.00000 -1.00000 0.00000
vn 0.00000 -1.00000 0.00000
vn 0.00000 -1.00000 0.00000
vn 0.00000 -0.91817 -0.39619
vn 0.00000 -0.91817 -0.39619
vn 0.00000 -0.91817 -0.39619
vn 0.66670 -0.72050 -0.19080
vn 0.66670 -0.72050 -0.19080
vn 0.66670 -0.72050 -0.19080
vn 0.00000 -1.00000 0.00000
vn 0.00000 -1.00000 0.00000
vn 0.00000 -1.00000 0.00000
vn 0.00000 -0.91817 -0.39619
vn 0.00000 -0.91817 -0.39619
vn 0.00000 -0.91817 -0.39619
vn 0.00000 -0.52618 -0.85037
vn 0.00000 -0.52618 -0.85037
vn 0.00000 -0.52618 -0.85037
vn 0.00000 -0.91817 -0.39619
vn 0.00000 -0.91817 -0.39619
vn 0.00000 -0.91817 -0.39619
vn -0.53240 -0.84649 -0.00000
vn -0.53240 -0.84649 -0.00000
vn -0.53240 -0.84649 -0.00000
vn 0.00000 -1.00000 0.00000
vn 0.00000 -1.00000 0.00000
vn 0.00000 -1.00000 0.00000
vn 0.00000 -0.88719 -0.46140
vn 0.00000 -0.88719 -0.46140
vn 0.00000 -0.88719 -0.46140
vn -0.00000 -0.99028 0.13910
vn -0.00000 -0.99028 0.13910
vn -0.00000 -0.99028 0.13910
vn -0.00000 -0.99028 0.13910
vn -0.00000 -0.99028 0.13910
vn -0.00000 -0.99028 0.13910
vn 0.00000 -0.88719 -0.46140
vn 0.00000 -0.88719 -0.46140
vn 0.00000 -0.88719 -0.46140
vn 0.78031 -0.61931 0.08700
vn 0.78031 -0.61931 0.08700
vn 0.78031 -0.61931 0.08700
vn -0.00000 -0.95025 0.31148
vn -0.00000 -0.95025 0.31148
vn -0.00000 -0.95025 0.31148
vn -0.79384 -0.59333 -0.13331
vn -0.79384 -0.59333 -0.13331
vn -0.79384 -0.59333 -0.13331
vn -0.54690 -0.83720 -0.00000
vn -0.54690 -0.83720 -0.00000
vn -0.54690 -0.83720 -0.00000
vn 0.00000 -0.52618 -0.85037
vn 0.00000 -0.52618 -0.85037
vn 0.00000 -0.52618 -0.85037
vn 0.68866 -0.57287 -0.44448
vn 0.68866 -0.57287 -0.44448
vn 0.68866 -0.57287 -0.44448
vn 0.76970 -0.63220 0.08880
vn 0.76970 -0.63220 0.08880
vn 0.76970 -0.63220 0.08880
vn -0.73090 -0.52590 -0.43500
vn -0.73090 -0.52590 -0.43500
vn -0.73090 -0.52590 -0.43500
vn -0.94886 -0.00000 -0.31569
vn -0.94886 -0.00000 -0.31569
vn -0.94886 -0.00000 -0.31569
vn 0.98994 0.14151 0.00000
vn 0.98994 0.14151 0.00000
vn 0.98994 0.14151 0.00000
vn -0.00000 -0.00000 1.00000
vn -0.00000 -0.00000 1.00000
vn -0.00000 -0.00000 1.00000
vn -0.00000 -0.95025 0.31148
vn -0.00000 -0.95025 0.31148
vn -0.00000 -0.95025 0.31148
vn -0.82639 -0.56309 -0.00000
vn -0.82639 -0.56309 -0.00000
vn -0.82639 -0.56309 -0.00000
vn -0.99293 -0.00000 0.11870
vn -0.99293 -0.00000 0.11870
vn -0.99293 -0.00000 0.11870
vn -0.00000 -0.00000 1.00000
vn -0.00000 -0.00000 1.00000
vn -0.00000 -0.00000 1.00000
vn 0.00000 1.00000 0.00000
vn 0.00000 1.00000 0.00000
vn 0.00000 1.00000 0.00000
vn 0.00000 1.00000 0.00000
vn 0.00000 1.00000 0.00000
vn 0.00000 1.00000 0.00000
vn 0.00000 -0.00000 -1.00000
vn 0.00000 -0.00000 -1.00000
vn 0.00000 -0.00000 -1.00000
vn 0.82680 -0.56250 0.00000
vn 0.82680 -0.56250 0.00000
vn 0.82680 -0.56250 0.00000
vn 0.94922 -0.30331 -0.08360
vn 0.94922 -0.30331 -0.08360
vn 0.94922 -0.30331 -0.08360
vn 0.00000 -0.00000 -1.00000
vn 0.00000 -0.00000 -1.00000
vn 0.00000 -0.00000 -1.00000
vn 0.00000 -0.00000 -1.00000
vn 0.00000 -0.00000 -1.00000
vn 0.00000 -0.00000 -1.00000
vn 0.00000 -0.00000 -1.00000
vn 0.00000 -0.00000 -1.00000
vn 0.00000 -0.00000 -1.00000
vn 0.00000 -0.51299 -0.85839
vn 0.00000 -0.51299 -0.85839
vn 0.00000 -0.51299 -0.85839
vn 0.00000 -0.51299 -0.85839
vn 0.00000 -0.51299 -0.85839
vn 0.00000 -0.51299 -0.85839
vn 0.00000 -0.51299 -0.85839
vn 0.00000 -0.51299 -0.85839
vn 0.00000 -0.51299 -0.85839
vn 0.75557 -0.00000 -0.65507
vn 0.75557 -0.00000 -0.65507
vn 0.75557 -0.00000 -0.65507
vn 0.87213 -0.12470 -0.47312
vn 0.87213 -0.12470 -0.47312
vn 0.87213 -0.12470 -0.47312
vn -0.94405 -0.00000 -0.32982
vn -0.94405 -0.00000 -0.32982
vn -0.94405 -0.00000 -0.32982
vn -0.87213 -0.12470 -0.47312
vn -0.87213 -0.12470 -0.47312
vn -0.87213 -0.12470 -0.47312
vn 0.00000 -0.51299 -0.85839
vn 0.00000 -0.51299 -0.85839
vn 0.00000 -0.51299 -0.85839
vn 0.00000 -0.51299 -0.85839
vn 0.00000 -0.51299 -0.85839
vn 0.00000 -0.51299 -0.85839
vn 0.00000 -0.51299 -0.85839
vn 0.00000 -0.51299 -0.85839
vn 0.00000 -0.51299 -0.85839
vn 0.00000 0.90726 -0.42058
vn 0.00000 0.90726 -0.42058
vn 0.00000 0.90726 -0.42058
vn 0.00000 0.90726 -0.42058
vn 0.00000 0.90726 -0.42058
vn 0.00000 0.90726 -0.42058
vn 0.00000 -0.91817 -0.39619
vn 0.00000 -0.91817 -0.39619
vn 0.00000 -0.91817 -0.39619
vn 0.00000 -1.00000 0.00000
vn 0.00000 -1.00000 0.00000
vn 0.00000 -1.00000 0.00000
vn 0.00000 -1.00000 0.00000
vn 0.00000 -1.00000 0.00000
vn 0.00000 -1.00000 0.00000
vn 0.00000 -0.91817 -0.39619
vn 0.00000 -0.91817 -0.39619
vn 0.00000 -0.91817 -0.39619
vn 0.76310 -0.62680 -0.15750
vn 0.76310 -0.62680 -0.15750
vn 0.76310 -0.62680 -0.15750
vn 0.00000 -1.00000 0.00000
vn 0.00000 -1.00000 0.00000
vn 0.00000 -1.00000 0.00000
vn 0.00000 -0.91817 -0.39619
vn 0.00000 -0.91817 -0.39619
vn 0.00000 -0.91817 -0.39619
vn 0.00000 -0.52618 -0.85037
vn 0.00000 -0.52618 -0.85037
vn 0.00000 -0.52618 -0.85037
vn 0.00000 -0.91817 -0.39619
vn 0.00000 -0.91817 -0.39619
vn 0.00000 -0.91817 -0.39619
vn -0.79817 -0.59658 0.08380
vn -0.79817 -0.59658 0.08380
vn -0.79817 -0.59658 0.08380
vn 0.00000 -1.00000 0.00000
vn 0.00000 -1.00000 0.00000
vn 0.00000 -1.00000 0.00000
vn 0.00000 -0.88719 -0.46140
vn 0.00000 -0.88719 -0.46140
vn 0.00000 -0.88719 -0.46140
vn -0.00000 -0.99028 0.13910
vn -0.00000 -0.99028 0.13910
vn -0.00000 -0.99028 0.13910
vn -0.00000 -0.99028 0.13910
vn -0.00000 -0.99028 0.13910
vn -0.00000 -0.99028 0.13910
vn 0.00000 -0.88719 -0.46140
vn 0.00000 -0.88719 -0.46140
vn 0.00000 -0.88719 -0.46140
vn 0.50961 -0.86041 -0.00000
vn 0.50961 -0.86041 -0.00000
vn 0.50961 -0.86041 -0.00000
vn -0.00000 -0.95025 0.31148
vn -0.00000 -0.95025 0.31148
vn -0.00000 -0.95025 0.31148
vn -0.70843 -0.68573 -0.16701
vn -0.70843 -0.68573 -0.16701
vn -0.70843 -0.68573 -0.16701
vn -0.80899 -0.58210 0.08180
vn -0.80899 -0.58210 0.08180
vn -0.80899 -0.58210 0.08180
vn 0.00000 -0.52618 -0.85037
vn 0.00000 -0.52618 -0.85037
vn 0.00000 -0.52618 -0.85037
vn 0.70158 -0.55689 -0.44459
vn 0.70158 -0.55689 -0.44459
vn 0.70158 -0.55689 -0.44459
vn 0.49671 -0.86792 0.00000
vn 0.49671 -0.86792 0.00000
vn 0.49671 -0.86792 0.00000
vn -0.73086 -0.52597 -0.43497
vn -0.73086 -0.52597 -0.43497
vn -0.73086 -0.52597 -0.43497
vn -0.98994 0.14151 -0.00000
vn -0.98994 0.14151 -0.00000
vn -0.98994 0.14151 -0.00000
vn -0.98784 0.11500 0.10460
vn -0.98784 0.11500 0.10460
vn -0.98784 0.11500 0.10460
vn 0.94899 -0.00000 -0.31530
vn 0.94899 -0.00000 -0.31530
vn 0.94899 -0.00000 -0.31530
vn 0.98781 0.11500 0.10490
vn 0.98781 0.11500 0.10490
vn 0.98781 0.11500 0.10490
vn -0.00000 -0.00000 1.00000
vn -0.00000 -0.00000 1.00000
vn -0.00000 -0.00000 1.00000
vn -0.00000 -0.00000 1.00000
vn -0.00000 -0.00000 1.00000
vn -0.00000 -0.00000 1.00000
vn -0.00000 -0.00000 1.00000
vn -0.00000 -0.00000 1.00000
vn -0.00000 -0.00000 1.00000
vn -0.00000 -0.00000 1.00000
vn -0.00000 -0.00000 1.00000
vn -0.00000 -0.00000 1.00000
vn -0.00000 -0.00000 1.00000
vn -0.00000 -0.00000 1.00000
vn -0.00000 -0.00000 1.00000
vn -0.00000 -0.00000 1.00000
vn -0.00000 -0.00000 1.00000
vn -0.00000 -0.00000 1.00000
vn 0.99675 -0.00000 0.08050
vn 0.99675 -0.00000 0.08050
vn 0.99675 -0.00000 0.08050
vn 0.00000 -0.00000 -1.00000
vn 0.00000 -0.00000 -1.00000
vn 0.00000 -0.00000 -1.00000
vn -0.99675 -0.00000 0.08050
vn -0.99675 -0.00000 0.08050
vn -0.99675 -0.00000 0.08050
vn -0.00000 -0.00000 1.00000
vn -0.00000 -0.00000 1.00000
vn -0.00000 -0.00000 1.00000
vn 0.00000 1.00000 0.00000
vn 0.00000 1.00000 0.00000
vn 0.00000 1.00000 0.00000
vn 0.00000 -1.00000 0.00000
vn 0.00000 -1.00000 0.00000
vn 0.00000 -1.00000 0.00000
vn -0.00000 -0.00000 1.00000
vn -0.00000 -0.00000 1.00000
vn -0.00000 -0.00000 1.00000
vn 0.99675 -0.00000 0.08050
vn 0.99675 -0.00000 0.08050
vn 0.99675 -0.00000 0.08050
vn 0.00000 -0.00000 -1.00000
vn 0.00000 -0.00000 -1.00000
vn 0.00000 -0.00000 -1.00000
vn -0.99675 -0.00000 0.08050
vn -0.99675 -0.00000 0.08050
vn -0.99675 -0.00000 0.08050
vn -0.00000 -0.00000 1.00000
vn -0.00000 -0.00000 1.00000
vn -0.00000 -0.00000 1.00000
vn 0.00000 1.00000 0.00000
vn 0.00000 1.00000 0.00000
vn 0.00000 1.00000 0.00000
vn 0.00000 1.00000 0.00000
vn 0.00000 1.00000 0.00000
vn 0.00000 1.00000 0.00000
vn 0.00000 -1.00000 -0.00000
vn 0.00000 -1.00000 -0.00000
vn 0.00000 -1.00000 -0.00000
vn 0.00000 -1.00000 0.00000
vn 0.00000 -1.00000 0.00000
vn 0.00000 -1.00000 0.00000
vn -0.00000 -0.00000 1.00000
vn -0.00000 -0.00000 1.00000
vn -0.00000 -0.00000 1.00000
f 1/1/1 2/2/2 3/3/3
f 4/4/4 5/5/5 6/6/6
f 7/7/7 8/8/8 9/9/9
f 10/10/10 11/11/11 12/12/12
f 13/13/13 14/14/14 15/15/15
f 16/16/16 17/17/17 18/18/18
f 19/19/19 20/20/20 21/21/21
f 22/22/22 23/23/23 24/24/24
f 25/25/25 26/26/26 27/27/27
f 28/28/28 29/29/29 30/30/30
f 31/31/31 32/32/32 33/33/33
f 34/34/34 35/35/35 36/36/36
f 37/37/37 38/38/38 39/39/39
f 40/40/40 41/41/41 42/42/42
f 43/43/43 44/44/44 45/45/45
f 46/46/46 47/47/47 48/48/48
f 49/49/49 50/50/50 51/51/51
f 52/52/52 53/53/53 54/54/54
f 55/55/55 56/56/56 57/57/57
f 58/58/58 59/59/59 60/60/60
f 61/61/61 62/62/62 63/63/63
f 64/64/64 65/65/65 66/66/66
f 67/67/67 68/68/68 69/69/69
f 70/70/70 71/71/71 72/72/72
f 73/73/73 74/74/74 75/75/75
f 76/76/76 77/77/77 78/78/78
f 79/79/79 80/80/80 81/81/81
f 82/82/82 83/83/83 84/84/84
f 85/85/85 86/86/86 87/87/87
f 88/88/88 89/89/89 90/90/90
f 91/91/91 92/92/92 93/93/93
f 94/94/94 95/95/95 96/96/96
f 97/97/97 98/98/98 99/99/99
f 100/100/100 101/101/101 102/102/102
f 103/103/103 104/104/104 105/105/105
f 106/106/106 107/107/107 108/108/108
f 109/109/109 110/110/110 111/111/111
f 112/112/112 113/113/113 114/114/114
f 115/115/115 116/116/116 117/117/117
f 118/118/118 119/119/119 120/120/120
f 121/121/121 122/122/122 123/123/123
f 124/124/124 125/125/125 126/126/126
f 127/127/127 128/128/128 129/129/129
f 130/130/130 131/131/131 132/132/132
f 133/133/133 134/134/134 135/135/135
f 136/136/136 137/137/137 138/138/138
f 139/139/139 140/140/140 141/141/141
f 142/142/142 143/143/143 144/144/144
f 145/145/145 146/146/146 147/147/147
f 148/148/148 149/149/149 150/150/150
f 151/151/151 152/152/152 153/153/153
f 154/154/154 155/155/155 156/156/156
f 157/157/157 158/158/158 159/159/159
f 160/160/160 161/161/161 162/162/162
f 163/163/163 164/164/164 165/165/165
f 166/166/166 167/167/167 168/168/168
f 169/169/169 170/170/170 171/171/171
f 172/172/172 173/173/173 174/174/174
f 175/175/175 176/176/176 177/177/177
f 178/178/178 179/179/179 180/180/180
f 181/181/181 182/182/182 183/183/183
f 184/184/184 185/185/185 186/186/186
f 187/187/187 188/188/188 189/189/189
f 190/190/190 191/191/191 192/192/192
f 193/193/193 194/194/194 195/195/195
f 196/196/196 197/197/197 198/198/198
f 199/199/199 200/200/200 201/201/201
f 202/202/202 203/203/203 204/204/204
f 205/205/205 206/206/206 207/207/207
f 208/208/208 209/209/209 210/210/210
f 211/211/211 212/212/212 213/213/213
f 214/214/214 215/215/215 216/216/216
f 217/217/217 218/218/218 219/219/219
f 220/220/220 221/221/221 222/222/222
f 223/223/223 224/224/224 225/225/225
f 226/226/226 227/227/227 228/228/228
f 229/229/229 230/230/230 231/231/231
f 232/232/232 233/233/233 234/234/234
f 235/235/235 236/236/236 237/237/237
f 238/238/238 239/239/239 240/240/240
f 241/241/241 242/242/242 243/243/243
f 244/244/244 245/245/245 246/246/246
f 247/247/247 248/248/248 249/249/249
f 250/250/250 251/251/251 252/252/252
f 253/253/253 254/254/254 255/255/255
f 256/256/256 257/257/257 258/258/258
f 259/259/259 260/260/260 261/261/261
f 262/262/262 263/263/263 264/264/264
f 265/265/265 266/266/266 267/267/267
f 268/268/268 269/269/269 270/270/270
f 271/271/271 272/272/272 273/273/273
f 274/274/274 275/275/275 276/276/276
f 277/277/277 278/278/278 279/279/279
f 280/280/280 281/281/281 282/282/282
f 283/283/283 284/284/284 285/285/285
f 286/286/286 287/287/287 288/288/288
f 289/289/289 290/290/290 291/291/291
f 292/292/292 293/293/293 294/294/294
f 295/295/295 296/296/296 297/297/297
f 298/298/298 299/299/299 300/300/300
f 301/301/301 302/302/302 303/303/303
f 304/304/304 305/305/305 306/306/306
f 307/307/307 308/308/308 309/309/309
f 310/310/310 311/311/311 312/312/312
f 313/313/313 314/314/314 315/315/315
f 316/316/316 317/317/317 318/318/318
f 319/319/319 320/320/320 321/321/321
f 322/322/322 323/323/323 324/324/324
f 325/325/325 326/326/326 327/327/327
f 328/328/328 329/329/329 330/330/330
f 331/331/331 332/332/332 333/333/333
f 334/334/334 335/335/335 336/336/336
f 337/337/337 338/338/338 339/339/339
f 340/340/340 341/341/341 342/342/342
