# STALKER Armor converted geometry (MC model units, pivot-relative)
v -4.71890 0.75000 -4.75000
v -3.94902 -8.75000 3.87246
v -4.71890 0.75000 4.75000
v -3.33221 -7.60407 3.87246
v -2.79715 -7.11027 -0.54227
v -4.10209 0.75000 -0.54227
v -2.79715 -7.11027 -0.54227
v -2.79715 -7.60407 -2.74831
v -2.79715 -7.11027 -3.60407
v 0.03698 0.75000 -4.75000
v -3.94902 -8.75000 -3.89424
v -4.71890 0.75000 -4.75000
v -2.79715 -7.11027 -0.54227
v -4.10209 0.75000 -3.60407
v -4.10209 0.75000 -0.54227
v -3.94902 -8.75000 3.87246
v 0.03698 -8.75000 -3.89424
v 0.03698 -8.75000 3.87246
v -4.10209 0.75000 -0.54227
v -4.71890 0.75000 -4.75000
v -4.71890 0.75000 4.75000
v -3.33221 -7.60407 3.87246
v -4.71890 0.75000 4.75000
v -3.94902 -8.75000 3.87246
v -3.33221 -7.60407 3.87246
v 0.03698 -8.75000 3.87246
v -2.79715 -7.60407 -0.58951
v -2.79715 -7.60407 -0.58951
v 0.03698 -8.75000 -3.89424
v -2.79715 -7.60407 -2.74831
v -2.79715 -7.11027 -3.60407
v 0.03698 -8.75000 -3.89424
v 0.03698 0.75000 -4.75000
v -4.10209 0.75000 -3.60407
v 0.03698 0.75000 -4.75000
v -4.71890 0.75000 -4.75000
v 4.71890 0.75000 -4.75000
v 3.94902 -8.75000 3.87246
v 3.94902 -8.75000 -3.89424
v 2.79715 -7.11027 -0.54227
v 3.33221 -7.60407 3.87246
v 4.10209 0.75000 -0.54227
v 2.79715 -7.11027 -0.54227
v 2.79715 -7.60407 -2.74831
v 2.79715 -7.60407 -0.58951
v -0.03698 0.75000 -4.75000
v 3.94902 -8.75000 -3.89424
v -0.03698 -8.75000 -3.89424
v 4.10209 0.75000 -3.60407
v 2.79715 -7.11027 -0.54227
v 4.10209 0.75000 -0.54227
v -0.03698 -8.75000 -3.89424
v 3.94902 -8.75000 3.87246
v -0.03698 -8.75000 3.87246
v 4.10209 0.75000 -0.54227
v 4.71890 0.75000 -4.75000
v 4.10209 0.75000 -3.60407
v 3.33221 -7.60407 3.87246
v 4.71890 0.75000 4.75000
v 4.10209 0.75000 -0.54227
v -0.03698 -8.75000 3.87246
v 3.33221 -7.60407 3.87246
v 2.79715 -7.60407 -0.58951
v -0.03698 -8.75000 -3.89424
v 2.79715 -7.60407 -0.58951
v 2.79715 -7.60407 -2.74831
v 2.79715 -7.11027 -3.60407
v -0.03698 -8.75000 -3.89424
v 2.79715 -7.60407 -2.74831
v 4.10209 0.75000 -3.60407
v -0.03698 0.75000 -4.75000
v 2.79715 -7.11027 -3.60407
v -4.71890 0.75000 -4.75000
v -3.94902 -8.75000 -3.89424
v -3.94902 -8.75000 3.87246
v -3.33221 -7.60407 3.87246
v -2.79715 -7.60407 -0.58951
v -2.79715 -7.11027 -0.54227
v -2.79715 -7.11027 -0.54227
v -2.79715 -7.60407 -0.58951
v -2.79715 -7.60407 -2.74831
v 0.03698 0.75000 -4.75000
v 0.03698 -8.75000 -3.89424
v -3.94902 -8.75000 -3.89424
v -2.79715 -7.11027 -0.54227
v -2.79715 -7.11027 -3.60407
v -4.10209 0.75000 -3.60407
v -3.94902 -8.75000 3.87246
v -3.94902 -8.75000 -3.89424
v 0.03698 -8.75000 -3.89424
v -4.10209 0.75000 -0.54227
v -4.10209 0.75000 -3.60407
v -4.71890 0.75000 -4.75000
v -3.33221 -7.60407 3.87246
v -4.10209 0.75000 -0.54227
v -4.71890 0.75000 4.75000
v -3.33221 -7.60407 3.87246
v -3.94902 -8.75000 3.87246
v 0.03698 -8.75000 3.87246
v -2.79715 -7.60407 -0.58951
v 0.03698 -8.75000 3.87246
v 0.03698 -8.75000 -3.89424
v -2.79715 -7.11027 -3.60407
v -2.79715 -7.60407 -2.74831
v 0.03698 -8.75000 -3.89424
v -4.10209 0.75000 -3.60407
v -2.79715 -7.11027 -3.60407
v 0.03698 0.75000 -4.75000
v 4.71890 0.75000 -4.75000
v 4.71890 0.75000 4.75000
v 3.94902 -8.75000 3.87246
v 2.79715 -7.11027 -0.54227
v 2.79715 -7.60407 -0.58951
v 3.33221 -7.60407 3.87246
v 2.79715 -7.11027 -0.54227
v 2.79715 -7.11027 -3.60407
v 2.79715 -7.60407 -2.74831
v -0.03698 0.75000 -4.75000
v 4.71890 0.75000 -4.75000
v 3.94902 -8.75000 -3.89424
v 4.10209 0.75000 -3.60407
v 2.79715 -7.11027 -3.60407
v 2.79715 -7.11027 -0.54227
v -0.03698 -8.75000 -3.89424
v 3.94902 -8.75000 -3.89424
v 3.94902 -8.75000 3.87246
v 4.10209 0.75000 -0.54227
v 4.71890 0.75000 4.75000
v 4.71890 0.75000 -4.75000
v 3.33221 -7.60407 3.87246
v 3.94902 -8.75000 3.87246
v 4.71890 0.75000 4.75000
v -0.03698 -8.75000 3.87246
v 3.94902 -8.75000 3.87246
v 3.33221 -7.60407 3.87246
v -0.03698 -8.75000 -3.89424
v -0.03698 -8.75000 3.87246
v 2.79715 -7.60407 -0.58951
v 2.79715 -7.11027 -3.60407
v -0.03698 0.75000 -4.75000
v -0.03698 -8.75000 -3.89424
v 4.10209 0.75000 -3.60407
v 4.71890 0.75000 -4.75000
v -0.03698 0.75000 -4.75000
vt 0.59314 0.60198
vt 0.38114 0.81011
vt 0.38153 0.57098
vt 0.99031 0.31269
vt 0.93734 0.36566
vt 0.93734 0.31269
vt 0.93553 0.31402
vt 0.98640 0.36489
vt 0.93553 0.36489
vt 0.52388 0.56690
vt 0.63423 0.35443
vt 0.63546 0.56629
vt 0.98658 0.30495
vt 0.91632 0.37521
vt 0.91632 0.30495
vt 0.43193 0.56807
vt 0.54517 0.35651
vt 0.54712 0.56606
vt 0.15516 0.50000
vt 0.12500 0.75000
vt 0.12500 0.50000
vt 0.59546 0.55478
vt 0.47635 0.53844
vt 0.61180 0.53844
vt 0.47605 0.55486
vt 0.60627 0.53700
vt 0.60627 0.55486
vt 0.46191 0.55640
vt 0.61845 0.53751
vt 0.59957 0.55640
vt 0.47027 0.53785
vt 0.61787 0.55566
vt 0.47027 0.55566
vt 0.47811 0.53887
vt 0.59915 0.55547
vt 0.46150 0.55547
vt 0.59314 0.60198
vt 0.38114 0.81011
vt 0.56446 0.81321
vt 0.93734 0.36566
vt 0.99031 0.31269
vt 0.93734 0.31269
vt 0.93553 0.31402
vt 0.98640 0.36489
vt 0.98640 0.31402
vt 0.52388 0.56690
vt 0.63423 0.35443
vt 0.53003 0.35997
vt 0.91632 0.37521
vt 0.98658 0.30495
vt 0.91632 0.30495
vt 0.54517 0.35651
vt 0.43193 0.56807
vt 0.54712 0.56606
vt 0.15516 0.50000
vt 0.12500 0.75000
vt 0.15516 0.71984
vt 0.59546 0.55478
vt 0.47635 0.53844
vt 0.47635 0.55478
vt 0.60627 0.53700
vt 0.47605 0.55486
vt 0.60627 0.55486
vt 0.61845 0.53751
vt 0.46191 0.55640
vt 0.59957 0.55640
vt 0.47027 0.53785
vt 0.61787 0.55566
vt 0.60006 0.53785
vt 0.47811 0.53887
vt 0.59915 0.55547
vt 0.59915 0.53887
vt 0.59314 0.60198
vt 0.56446 0.81321
vt 0.38114 0.81011
vt 0.99031 0.31269
vt 0.99031 0.36566
vt 0.93734 0.36566
vt 0.93553 0.31402
vt 0.98640 0.31402
vt 0.98640 0.36489
vt 0.52388 0.56690
vt 0.53003 0.35997
vt 0.63423 0.35443
vt 0.98658 0.30495
vt 0.98658 0.37521
vt 0.91632 0.37521
vt 0.43193 0.56807
vt 0.43738 0.36267
vt 0.54517 0.35651
vt 0.15516 0.50000
vt 0.15516 0.71984
vt 0.12500 0.75000
vt 0.59546 0.55478
vt 0.47635 0.55478
vt 0.47635 0.53844
vt 0.47605 0.55486
vt 0.45819 0.53700
vt 0.60627 0.53700
vt 0.46191 0.55640
vt 0.46191 0.53751
vt 0.61845 0.53751
vt 0.47027 0.53785
vt 0.60006 0.53785
vt 0.61787 0.55566
vt 0.47811 0.53887
vt 0.59915 0.53887
vt 0.59915 0.55547
vt 0.59314 0.60198
vt 0.38153 0.57098
vt 0.38114 0.81011
vt 0.93734 0.36566
vt 0.99031 0.36566
vt 0.99031 0.31269
vt 0.93553 0.31402
vt 0.93553 0.36489
vt 0.98640 0.36489
vt 0.52388 0.56690
vt 0.63546 0.56629
vt 0.63423 0.35443
vt 0.91632 0.37521
vt 0.98658 0.37521
vt 0.98658 0.30495
vt 0.54517 0.35651
vt 0.43738 0.36267
vt 0.43193 0.56807
vt 0.15516 0.50000
vt 0.12500 0.50000
vt 0.12500 0.75000
vt 0.59546 0.55478
vt 0.61180 0.53844
vt 0.47635 0.53844
vt 0.60627 0.53700
vt 0.45819 0.53700
vt 0.47605 0.55486
vt 0.61845 0.53751
vt 0.46191 0.53751
vt 0.46191 0.55640
vt 0.47027 0.53785
vt 0.47027 0.55566
vt 0.61787 0.55566
vt 0.47811 0.53887
vt 0.46150 0.55547
vt 0.59915 0.55547
vn -0.99674 -0.08070 -0.00000
vn -0.99674 -0.08070 -0.00000
vn -0.99674 -0.08070 -0.00000
vn 0.97732 0.16200 0.13640
vn 0.97732 0.16200 0.13640
vn 0.97732 0.16200 0.13640
vn 1.00000 -0.00000 -0.00000
vn 1.00000 -0.00000 -0.00000
vn 1.00000 -0.00000 -0.00000
vn 0.00000 -0.08970 -0.99597
vn 0.00000 -0.08970 -0.99597
vn 0.00000 -0.08970 -0.99597
vn 0.98653 0.16360 -0.00000
vn 0.98653 0.16360 -0.00000
vn 0.98653 0.16360 -0.00000
vn 0.00000 -1.00000 0.00000
vn 0.00000 -1.00000 0.00000
vn 0.00000 -1.00000 0.00000
vn 0.00000 1.00000 -0.00000
vn 0.00000 1.00000 -0.00000
vn 0.00000 1.00000 -0.00000
vn 0.14720 -0.07920 0.98593
vn 0.14720 -0.07920 0.98593
vn 0.14720 -0.07920 0.98593
vn 0.32211 0.94592 0.03860
vn 0.32211 0.94592 0.03860
vn 0.32211 0.94592 0.03860
vn 0.37522 0.92694 -0.00000
vn 0.37522 0.92694 -0.00000
vn 0.37522 0.92694 -0.00000
vn 0.15229 0.08870 0.98435
vn 0.15229 0.08870 0.98435
vn 0.15229 0.08870 0.98435
vn 0.00000 1.00000 -0.00000
vn 0.00000 1.00000 -0.00000
vn 0.00000 1.00000 -0.00000
vn 0.99674 -0.08070 -0.00000
vn 0.99674 -0.08070 -0.00000
vn 0.99674 -0.08070 -0.00000
vn -0.97732 0.16200 0.13640
vn -0.97732 0.16200 0.13640
vn -0.97732 0.16200 0.13640
vn -1.00000 -0.00000 -0.00000
vn -1.00000 -0.00000 -0.00000
vn -1.00000 -0.00000 -0.00000
vn 0.00000 -0.08970 -0.99597
vn 0.00000 -0.08970 -0.99597
vn 0.00000 -0.08970 -0.99597
vn -0.98653 0.16360 -0.00000
vn -0.98653 0.16360 -0.00000
vn -0.98653 0.16360 -0.00000
vn 0.00000 -1.00000 0.00000
vn 0.00000 -1.00000 0.00000
vn 0.00000 -1.00000 0.00000
vn 0.00000 1.00000 -0.00000
vn 0.00000 1.00000 -0.00000
vn 0.00000 1.00000 -0.00000
vn -0.98193 0.15081 0.11430
vn -0.98193 0.15081 0.11430
vn -0.98193 0.15081 0.11430
vn -0.32211 0.94592 0.03860
vn -0.32211 0.94592 0.03860
vn -0.32211 0.94592 0.03860
vn -0.37522 0.92694 -0.00000
vn -0.37522 0.92694 -0.00000
vn -0.37522 0.92694 -0.00000
vn -0.48389 0.75798 0.43739
vn -0.48389 0.75798 0.43739
vn -0.48389 0.75798 0.43739
vn -0.26690 0.04420 0.96271
vn -0.26690 0.04420 0.96271
vn -0.26690 0.04420 0.96271
vn -0.99674 -0.08070 -0.00000
vn -0.99674 -0.08070 -0.00000
vn -0.99674 -0.08070 -0.00000
vn 0.99284 -0.01140 0.11890
vn 0.99284 -0.01140 0.11890
vn 0.99284 -0.01140 0.11890
vn 1.00000 -0.00000 -0.00000
vn 1.00000 -0.00000 -0.00000
vn 1.00000 -0.00000 -0.00000
vn 0.00000 -0.08970 -0.99597
vn 0.00000 -0.08970 -0.99597
vn 0.00000 -0.08970 -0.99597
vn 0.98653 0.16360 -0.00000
vn 0.98653 0.16360 -0.00000
vn 0.98653 0.16360 -0.00000
vn 0.00000 -1.00000 0.00000
vn 0.00000 -1.00000 0.00000
vn 0.00000 -1.00000 0.00000
vn 0.00000 1.00000 -0.00000
vn 0.00000 1.00000 -0.00000
vn 0.00000 1.00000 -0.00000
vn 0.98193 0.15081 0.11430
vn 0.98193 0.15081 0.11430
vn 0.98193 0.15081 0.11430
vn 0.00000 -0.00000 1.00000
vn 0.00000 -0.00000 1.00000
vn 0.00000 -0.00000 1.00000
vn 0.37522 0.92694 -0.00000
vn 0.37522 0.92694 -0.00000
vn 0.37522 0.92694 -0.00000
vn 0.48389 0.75798 0.43739
vn 0.48389 0.75798 0.43739
vn 0.48389 0.75798 0.43739
vn 0.26690 0.04420 0.96271
vn 0.26690 0.04420 0.96271
vn 0.26690 0.04420 0.96271
vn 0.99674 -0.08070 -0.00000
vn 0.99674 -0.08070 -0.00000
vn 0.99674 -0.08070 -0.00000
vn -0.99284 -0.01140 0.11890
vn -0.99284 -0.01140 0.11890
vn -0.99284 -0.01140 0.11890
vn -1.00000 -0.00000 -0.00000
vn -1.00000 -0.00000 -0.00000
vn -1.00000 -0.00000 -0.00000
vn 0.00000 -0.08970 -0.99597
vn 0.00000 -0.08970 -0.99597
vn 0.00000 -0.08970 -0.99597
vn -0.98653 0.16360 -0.00000
vn -0.98653 0.16360 -0.00000
vn -0.98653 0.16360 -0.00000
vn 0.00000 -1.00000 0.00000
vn 0.00000 -1.00000 0.00000
vn 0.00000 -1.00000 0.00000
vn 0.00000 1.00000 -0.00000
vn 0.00000 1.00000 -0.00000
vn 0.00000 1.00000 -0.00000
vn -0.14720 -0.07920 0.98593
vn -0.14720 -0.07920 0.98593
vn -0.14720 -0.07920 0.98593
vn 0.00000 -0.00000 1.00000
vn 0.00000 -0.00000 1.00000
vn 0.00000 -0.00000 1.00000
vn -0.37522 0.92694 -0.00000
vn -0.37522 0.92694 -0.00000
vn -0.37522 0.92694 -0.00000
vn -0.15229 0.08870 0.98435
vn -0.15229 0.08870 0.98435
vn -0.15229 0.08870 0.98435
vn 0.00000 1.00000 -0.00000
vn 0.00000 1.00000 -0.00000
vn 0.00000 1.00000 -0.00000
f 1/1/1 2/2/2 3/3/3
f 4/4/4 5/5/5 6/6/6
f 7/7/7 8/8/8 9/9/9
f 10/10/10 11/11/11 12/12/12
f 13/13/13 14/14/14 15/15/15
f 16/16/16 17/17/17 18/18/18
f 19/19/19 20/20/20 21/21/21
f 22/22/22 23/23/23 24/24/24
f 25/25/25 26/26/26 27/27/27
f 28/28/28 29/29/29 30/30/30
f 31/31/31 32/32/32 33/33/33
f 34/34/34 35/35/35 36/36/36
f 37/37/37 38/38/38 39/39/39
f 40/40/40 41/41/41 42/42/42
f 43/43/43 44/44/44 45/45/45
f 46/46/46 47/47/47 48/48/48
f 49/49/49 50/50/50 51/51/51
f 52/52/52 53/53/53 54/54/54
f 55/55/55 56/56/56 57/57/57
f 58/58/58 59/59/59 60/60/60
f 61/61/61 62/62/62 63/63/63
f 64/64/64 65/65/65 66/66/66
f 67/67/67 68/68/68 69/69/69
f 70/70/70 71/71/71 72/72/72
f 73/73/73 74/74/74 75/75/75
f 76/76/76 77/77/77 78/78/78
f 79/79/79 80/80/80 81/81/81
f 82/82/82 83/83/83 84/84/84
f 85/85/85 86/86/86 87/87/87
f 88/88/88 89/89/89 90/90/90
f 91/91/91 92/92/92 93/93/93
f 94/94/94 95/95/95 96/96/96
f 97/97/97 98/98/98 99/99/99
f 100/100/100 101/101/101 102/102/102
f 103/103/103 104/104/104 105/105/105
f 106/106/106 107/107/107 108/108/108
f 109/109/109 110/110/110 111/111/111
f 112/112/112 113/113/113 114/114/114
f 115/115/115 116/116/116 117/117/117
f 118/118/118 119/119/119 120/120/120
f 121/121/121 122/122/122 123/123/123
f 124/124/124 125/125/125 126/126/126
f 127/127/127 128/128/128 129/129/129
f 130/130/130 131/131/131 132/132/132
f 133/133/133 134/134/134 135/135/135
f 136/136/136 137/137/137 138/138/138
f 139/139/139 140/140/140 141/141/141
f 142/142/142 143/143/143 144/144/144
