# STALKER Armor converted geometry (MC model units, pivot-relative)
v 2.30000 -0.30000 2.30000
v 2.30000 12.30000 -2.30000
v 2.30000 12.30000 2.30000
v 2.30000 -0.30000 -2.30000
v -2.30000 12.30000 -2.30000
v 2.30000 12.30000 -2.30000
v -2.30000 -0.30000 -2.30000
v -2.30000 12.30000 2.30000
v -2.30000 12.30000 -2.30000
v -2.30000 -0.30000 2.30000
v 2.30000 12.30000 2.30000
v -2.30000 12.30000 2.30000
v -2.30000 12.30000 -2.30000
v 2.30000 12.30000 2.30000
v 2.30000 12.30000 -2.30000
v 2.30000 -0.30000 -2.30000
v -2.30000 -0.30000 2.30000
v -2.30000 -0.30000 -2.30000
v 2.30000 -0.30000 2.30000
v 2.30000 -0.30000 -2.30000
v 2.30000 12.30000 -2.30000
v 2.30000 -0.30000 -2.30000
v -2.30000 -0.30000 -2.30000
v -2.30000 12.30000 -2.30000
v -2.30000 -0.30000 -2.30000
v -2.30000 -0.30000 2.30000
v -2.30000 12.30000 2.30000
v -2.30000 -0.30000 2.30000
v 2.30000 -0.30000 2.30000
v 2.30000 12.30000 2.30000
v -2.30000 12.30000 -2.30000
v -2.30000 12.30000 2.30000
v 2.30000 12.30000 2.30000
v 2.30000 -0.30000 -2.30000
v 2.30000 -0.30000 2.30000
v -2.30000 -0.30000 2.30000
vt 0.84226 0.96063
vt 0.72565 0.56987
vt 0.84214 0.56981
vt 0.75734 0.92001
vt 0.67395 0.60977
vt 0.77823 0.61696
vt 0.72746 0.94727
vt 0.84776 0.56610
vt 0.73046 0.56454
vt 0.93201 0.94986
vt 0.78813 0.56249
vt 0.93201 0.56249
vt 0.92971 0.79416
vt 0.81267 0.91119
vt 0.81267 0.79416
vt 0.91375 0.80465
vt 0.81062 0.90779
vt 0.81062 0.80465
vt 0.84226 0.96063
vt 0.72576 0.96069
vt 0.72565 0.56987
vt 0.75734 0.92001
vt 0.65307 0.91283
vt 0.67395 0.60977
vt 0.72746 0.94727
vt 0.84476 0.94883
vt 0.84776 0.56610
vt 0.93201 0.94986
vt 0.78813 0.94986
vt 0.78813 0.56249
vt 0.92971 0.79416
vt 0.92971 0.91119
vt 0.81267 0.91119
vt 0.91375 0.80465
vt 0.91375 0.90779
vt 0.81062 0.90779
vn 1.00000 -0.00000 0.00000
vn 1.00000 -0.00000 0.00000
vn 1.00000 -0.00000 0.00000
vn 0.00000 -0.00000 -1.00000
vn 0.00000 -0.00000 -1.00000
vn 0.00000 -0.00000 -1.00000
vn -1.00000 -0.00000 -0.00000
vn -1.00000 -0.00000 -0.00000
vn -1.00000 -0.00000 -0.00000
vn 0.00000 -0.00000 1.00000
vn 0.00000 -0.00000 1.00000
vn 0.00000 -0.00000 1.00000
vn 0.00000 1.00000 -0.00000
vn 0.00000 1.00000 -0.00000
vn 0.00000 1.00000 -0.00000
vn 0.00000 -1.00000 0.00000
vn 0.00000 -1.00000 0.00000
vn 0.00000 -1.00000 0.00000
vn 1.00000 -0.00000 0.00000
vn 1.00000 -0.00000 0.00000
vn 1.00000 -0.00000 0.00000
vn 0.00000 -0.00000 -1.00000
vn 0.00000 -0.00000 -1.00000
vn 0.00000 -0.00000 -1.00000
vn -1.00000 -0.00000 -0.00000
vn -1.00000 -0.00000 -0.00000
vn -1.00000 -0.00000 -0.00000
vn 0.00000 -0.00000 1.00000
vn 0.00000 -0.00000 1.00000
vn 0.00000 -0.00000 1.00000
vn 0.00000 1.00000 -0.00000
vn 0.00000 1.00000 -0.00000
vn 0.00000 1.00000 -0.00000
vn 0.00000 -1.00000 0.00000
vn 0.00000 -1.00000 0.00000
vn 0.00000 -1.00000 0.00000
f 1/1/1 2/2/2 3/3/3
f 4/4/4 5/5/5 6/6/6
f 7/7/7 8/8/8 9/9/9
f 10/10/10 11/11/11 12/12/12
f 13/13/13 14/14/14 15/15/15
f 16/16/16 17/17/17 18/18/18
f 19/19/19 20/20/20 21/21/21
f 22/22/22 23/23/23 24/24/24
f 25/25/25 26/26/26 27/27/27
f 28/28/28 29/29/29 30/30/30
f 31/31/31 32/32/32 33/33/33
f 34/34/34 35/35/35 36/36/36
