# STALKER Armor converted geometry (MC model units, pivot-relative)
v 2.30000 -2.30000 -2.30000
v -2.30000 10.30000 -2.30000
v 2.30000 10.30000 -2.30000
v -2.30000 -2.30000 -2.30000
v -2.30000 10.30000 2.30000
v -2.30000 10.30000 -2.30000
v -2.30000 -2.30000 2.30000
v 2.30000 10.30000 2.30000
v -2.30000 10.30000 2.30000
v 2.30000 -2.30000 2.30000
v 2.30000 10.30000 -2.30000
v 2.30000 10.30000 2.30000
v -2.30000 10.30000 2.30000
v 2.30000 10.30000 -2.30000
v -2.30000 10.30000 -2.30000
v -2.30000 -2.30000 -2.30000
v 2.30000 -2.30000 2.30000
v -2.30000 -2.30000 2.30000
v 2.30000 -2.30000 -2.30000
v -2.30000 -2.30000 -2.30000
v -2.30000 10.30000 -2.30000
v -2.30000 -2.30000 -2.30000
v -2.30000 -2.30000 2.30000
v -2.30000 10.30000 2.30000
v -2.30000 -2.30000 2.30000
v 2.30000 -2.30000 2.30000
v 2.30000 10.30000 2.30000
v 2.30000 -2.30000 2.30000
v 2.30000 -2.30000 -2.30000
v 2.30000 10.30000 -2.30000
v -2.30000 10.30000 2.30000
v 2.30000 10.30000 2.30000
v 2.30000 10.30000 -2.30000
v -2.30000 -2.30000 -2.30000
v 2.30000 -2.30000 -2.30000
v 2.30000 -2.30000 2.30000
vt 0.33411 0.72874
vt 0.74171 0.82468
vt 0.73908 0.72720
vt 0.33350 0.80791
vt 0.74379 0.92009
vt 0.74379 0.80791
vt 0.33202 0.88079
vt 0.74601 0.99361
vt 0.74558 0.88005
vt 0.77067 0.33508
vt 0.65664 0.02809
vt 0.77067 0.02809
vt 0.38227 0.81150
vt 0.29219 0.90159
vt 0.29219 0.81150
vt 0.37435 0.81856
vt 0.29659 0.89632
vt 0.29659 0.81856
vt 0.33411 0.72874
vt 0.33674 0.82622
vt 0.74171 0.82468
vt 0.33350 0.80791
vt 0.33350 0.92009
vt 0.74379 0.92009
vt 0.33202 0.88079
vt 0.33245 0.99435
vt 0.74601 0.99361
vt 0.77067 0.33508
vt 0.65664 0.33508
vt 0.65664 0.02809
vt 0.38227 0.81150
vt 0.38227 0.90159
vt 0.29219 0.90159
vt 0.37435 0.81856
vt 0.37435 0.89632
vt 0.29659 0.89632
vn 0.00000 -0.00000 -1.00000
vn 0.00000 -0.00000 -1.00000
vn 0.00000 -0.00000 -1.00000
vn -1.00000 -0.00000 -0.00000
vn -1.00000 -0.00000 -0.00000
vn -1.00000 -0.00000 -0.00000
vn -0.00000 -0.00000 1.00000
vn -0.00000 -0.00000 1.00000
vn -0.00000 -0.00000 1.00000
vn 1.00000 -0.00000 0.00000
vn 1.00000 -0.00000 0.00000
vn 1.00000 -0.00000 0.00000
vn 0.00000 1.00000 -0.00000
vn 0.00000 1.00000 -0.00000
vn 0.00000 1.00000 -0.00000
vn 0.00000 -1.00000 0.00000
vn 0.00000 -1.00000 0.00000
vn 0.00000 -1.00000 0.00000
vn 0.00000 -0.00000 -1.00000
vn 0.00000 -0.00000 -1.00000
vn 0.00000 -0.00000 -1.00000
vn -1.00000 -0.00000 -0.00000
vn -1.00000 -0.00000 -0.00000
vn -1.00000 -0.00000 -0.00000
vn -0.00000 -0.00000 1.00000
vn -0.00000 -0.00000 1.00000
vn -0.00000 -0.00000 1.00000
vn 1.00000 -0.00000 0.00000
vn 1.00000 -0.00000 0.00000
vn 1.00000 -0.00000 0.00000
vn 0.00000 1.00000 -0.00000
vn 0.00000 1.00000 -0.00000
vn 0.00000 1.00000 -0.00000
vn 0.00000 -1.00000 0.00000
vn 0.00000 -1.00000 0.00000
vn 0.00000 -1.00000 0.00000
f 1/1/1 2/2/2 3/3/3
f 4/4/4 5/5/5 6/6/6
f 7/7/7 8/8/8 9/9/9
f 10/10/10 11/11/11 12/12/12
f 13/13/13 14/14/14 15/15/15
f 16/16/16 17/17/17 18/18/18
f 19/19/19 20/20/20 21/21/21
f 22/22/22 23/23/23 24/24/24
f 25/25/25 26/26/26 27/27/27
f 28/28/28 29/29/29 30/30/30
f 31/31/31 32/32/32 33/33/33
f 34/34/34 35/35/35 36/36/36
