# STALKER Armor converted geometry (MC model units, pivot-relative)
v 2.30000 -0.30000 2.30000
v 2.30000 12.30000 -2.30000
v 2.30000 12.30000 2.30000
v 2.30000 -0.30000 -2.30000
v -2.30000 12.30000 -2.30000
v 2.30000 12.30000 -2.30000
v -2.30000 -0.30000 -2.30000
v -2.30000 12.30000 2.30000
v -2.30000 12.30000 -2.30000
v -2.30000 -0.30000 2.30000
v 2.30000 12.30000 2.30000
v -2.30000 12.30000 2.30000
v -2.30000 12.30000 -2.30000
v 2.30000 12.30000 2.30000
v 2.30000 12.30000 -2.30000
v 2.30000 -0.30000 -2.30000
v -2.30000 -0.30000 2.30000
v -2.30000 -0.30000 -2.30000
v 2.30000 -0.30000 2.30000
v 2.30000 -0.30000 -2.30000
v 2.30000 12.30000 -2.30000
v 2.30000 -0.30000 -2.30000
v -2.30000 -0.30000 -2.30000
v -2.30000 12.30000 -2.30000
v -2.30000 -0.30000 -2.30000
v -2.30000 -0.30000 2.30000
v -2.30000 12.30000 2.30000
v -2.30000 -0.30000 2.30000
v 2.30000 -0.30000 2.30000
v 2.30000 12.30000 2.30000
v -2.30000 12.30000 -2.30000
v -2.30000 12.30000 2.30000
v 2.30000 12.30000 2.30000
v 2.30000 -0.30000 -2.30000
v 2.30000 -0.30000 2.30000
v -2.30000 -0.30000 2.30000
vt 0.56537 0.35840
vt 0.43449 0.01042
vt 0.56524 0.01037
vt 0.65579 0.34706
vt 0.54142 0.00457
vt 0.65889 0.00564
vt 0.43653 0.34650
vt 0.57154 0.00707
vt 0.43989 0.00568
vt 0.44241 0.30998
vt 0.33102 0.01009
vt 0.44241 0.01009
vt 0.77962 0.06003
vt 0.72345 0.11620
vt 0.72345 0.06003
vt 0.77197 0.06507
vt 0.72247 0.11456
vt 0.72247 0.06507
vt 0.56537 0.35840
vt 0.43462 0.35846
vt 0.43449 0.01042
vt 0.65579 0.34706
vt 0.53832 0.34599
vt 0.54142 0.00457
vt 0.43653 0.34650
vt 0.56818 0.34789
vt 0.57154 0.00707
vt 0.44241 0.30998
vt 0.33102 0.30998
vt 0.33102 0.01009
vt 0.77962 0.06003
vt 0.77962 0.11620
vt 0.72345 0.11620
vt 0.77197 0.06507
vt 0.77197 0.11456
vt 0.72247 0.11456
vn 1.00000 -0.00000 0.00000
vn 1.00000 -0.00000 0.00000
vn 1.00000 -0.00000 0.00000
vn 0.00000 -0.00000 -1.00000
vn 0.00000 -0.00000 -1.00000
vn 0.00000 -0.00000 -1.00000
vn -1.00000 -0.00000 -0.00000
vn -1.00000 -0.00000 -0.00000
vn -1.00000 -0.00000 -0.00000
vn 0.00000 -0.00000 1.00000
vn 0.00000 -0.00000 1.00000
vn 0.00000 -0.00000 1.00000
vn 0.00000 1.00000 -0.00000
vn 0.00000 1.00000 -0.00000
vn 0.00000 1.00000 -0.00000
vn 0.00000 -1.00000 0.00000
vn 0.00000 -1.00000 0.00000
vn 0.00000 -1.00000 0.00000
vn 1.00000 -0.00000 0.00000
vn 1.00000 -0.00000 0.00000
vn 1.00000 -0.00000 0.00000
vn 0.00000 -0.00000 -1.00000
vn 0.00000 -0.00000 -1.00000
vn 0.00000 -0.00000 -1.00000
vn -1.00000 -0.00000 -0.00000
vn -1.00000 -0.00000 -0.00000
vn -1.00000 -0.00000 -0.00000
vn 0.00000 -0.00000 1.00000
vn 0.00000 -0.00000 1.00000
vn 0.00000 -0.00000 1.00000
vn 0.00000 1.00000 -0.00000
vn 0.00000 1.00000 -0.00000
vn 0.00000 1.00000 -0.00000
vn 0.00000 -1.00000 0.00000
vn 0.00000 -1.00000 0.00000
vn 0.00000 -1.00000 0.00000
f 1/1/1 2/2/2 3/3/3
f 4/4/4 5/5/5 6/6/6
f 7/7/7 8/8/8 9/9/9
f 10/10/10 11/11/11 12/12/12
f 13/13/13 14/14/14 15/15/15
f 16/16/16 17/17/17 18/18/18
f 19/19/19 20/20/20 21/21/21
f 22/22/22 23/23/23 24/24/24
f 25/25/25 26/26/26 27/27/27
f 28/28/28 29/29/29 30/30/30
f 31/31/31 32/32/32 33/33/33
f 34/34/34 35/35/35 36/36/36
