# STALKER Armor converted geometry (MC model units, pivot-relative)
v 2.30000 -2.30000 -2.30000
v -2.30000 10.30000 -2.30000
v 2.30000 10.30000 -2.30000
v -2.30000 -2.30000 -2.30000
v -2.30000 10.30000 2.30000
v -2.30000 10.30000 -2.30000
v -2.30000 -2.30000 2.30000
v 2.30000 10.30000 2.30000
v -2.30000 10.30000 2.30000
v 2.30000 -2.30000 2.30000
v 2.30000 10.30000 -2.30000
v 2.30000 10.30000 2.30000
v -2.30000 10.30000 2.30000
v 2.30000 10.30000 -2.30000
v -2.30000 10.30000 -2.30000
v -2.30000 -2.30000 -2.30000
v 2.30000 -2.30000 2.30000
v -2.30000 -2.30000 2.30000
v 2.30000 -2.30000 -2.30000
v -2.30000 -2.30000 -2.30000
v -2.30000 10.30000 -2.30000
v -2.30000 -2.30000 -2.30000
v -2.30000 -2.30000 2.30000
v -2.30000 10.30000 2.30000
v -2.30000 -2.30000 2.30000
v 2.30000 -2.30000 2.30000
v 2.30000 10.30000 2.30000
v 2.30000 -2.30000 2.30000
v 2.30000 -2.30000 -2.30000
v 2.30000 10.30000 -2.30000
v -2.30000 10.30000 2.30000
v 2.30000 10.30000 2.30000
v 2.30000 10.30000 -2.30000
v -2.30000 -2.30000 -2.30000
v 2.30000 -2.30000 -2.30000
v 2.30000 -2.30000 2.30000
vt 0.25810 0.81350
vt 0.36363 0.60952
vt 0.25640 0.61083
vt 0.47067 0.81232
vt 0.58957 0.60563
vt 0.47067 0.60563
vt 0.36352 0.81290
vt 0.46934 0.60791
vt 0.36283 0.60812
vt 0.42286 0.79945
vt 0.35253 0.61010
vt 0.42286 0.61010
vt 0.49094 0.74701
vt 0.43620 0.80176
vt 0.43620 0.74701
vt 0.48613 0.75130
vt 0.43887 0.79856
vt 0.43887 0.75130
vt 0.25810 0.81350
vt 0.36532 0.81219
vt 0.36363 0.60952
vt 0.47067 0.81232
vt 0.58957 0.81232
vt 0.58957 0.60563
vt 0.36352 0.81290
vt 0.47003 0.81269
vt 0.46934 0.60791
vt 0.42286 0.79945
vt 0.35253 0.79945
vt 0.35253 0.61010
vt 0.49094 0.74701
vt 0.49094 0.80176
vt 0.43620 0.80176
vt 0.48613 0.75130
vt 0.48613 0.79856
vt 0.43887 0.79856
vn 0.00000 -0.00000 -1.00000
vn 0.00000 -0.00000 -1.00000
vn 0.00000 -0.00000 -1.00000
vn -1.00000 -0.00000 -0.00000
vn -1.00000 -0.00000 -0.00000
vn -1.00000 -0.00000 -0.00000
vn -0.00000 -0.00000 1.00000
vn -0.00000 -0.00000 1.00000
vn -0.00000 -0.00000 1.00000
vn 1.00000 -0.00000 0.00000
vn 1.00000 -0.00000 0.00000
vn 1.00000 -0.00000 0.00000
vn 0.00000 1.00000 -0.00000
vn 0.00000 1.00000 -0.00000
vn 0.00000 1.00000 -0.00000
vn 0.00000 -1.00000 0.00000
vn 0.00000 -1.00000 0.00000
vn 0.00000 -1.00000 0.00000
vn 0.00000 -0.00000 -1.00000
vn 0.00000 -0.00000 -1.00000
vn 0.00000 -0.00000 -1.00000
vn -1.00000 -0.00000 -0.00000
vn -1.00000 -0.00000 -0.00000
vn -1.00000 -0.00000 -0.00000
vn -0.00000 -0.00000 1.00000
vn -0.00000 -0.00000 1.00000
vn -0.00000 -0.00000 1.00000
vn 1.00000 -0.00000 0.00000
vn 1.00000 -0.00000 0.00000
vn 1.00000 -0.00000 0.00000
vn 0.00000 1.00000 -0.00000
vn 0.00000 1.00000 -0.00000
vn 0.00000 1.00000 -0.00000
vn 0.00000 -1.00000 0.00000
vn 0.00000 -1.00000 0.00000
vn 0.00000 -1.00000 0.00000
f 1/1/1 2/2/2 3/3/3
f 4/4/4 5/5/5 6/6/6
f 7/7/7 8/8/8 9/9/9
f 10/10/10 11/11/11 12/12/12
f 13/13/13 14/14/14 15/15/15
f 16/16/16 17/17/17 18/18/18
f 19/19/19 20/20/20 21/21/21
f 22/22/22 23/23/23 24/24/24
f 25/25/25 26/26/26 27/27/27
f 28/28/28 29/29/29 30/30/30
f 31/31/31 32/32/32 33/33/33
f 34/34/34 35/35/35 36/36/36
