# STALKER Armor converted geometry (MC model units, pivot-relative)
v -4.10142 11.98676 -3.57934
v -4.10142 9.38943 3.61927
v -4.10142 11.98676 3.61927
v -4.10142 11.98676 3.61927
v 0.07766 9.38943 3.53057
v 0.09177 11.98676 3.61927
v 0.07766 9.38943 3.53057
v 0.09177 11.98676 -3.57934
v 0.09177 11.98676 3.61927
v -3.63069 9.04351 -3.57934
v -4.10142 8.99663 -3.57934
v -4.10142 11.98676 -3.57934
v 0.09177 11.98676 3.61927
v -4.10142 11.98676 -3.57934
v -4.10142 11.98676 3.61927
v -2.77514 0.11752 4.11683
v -4.67304 0.11752 -4.07385
v -2.77514 0.12868 -4.07385
v -2.19321 0.44333 2.96682
v -0.31456 0.44462 -3.48070
v 0.03175 0.44362 2.96683
v -2.19325 0.43253 -3.48070
v -1.65239 6.45557 -4.01736
v -1.31857 6.17019 -3.47139
v -0.28160 6.24968 -3.48334
v 0.03175 0.44362 -3.48070
v -0.31456 0.44462 -3.48070
v -0.07185 6.59328 -4.10087
v 0.13918 6.59380 -4.11233
v 0.06363 6.28064 -3.48738
v -2.77514 0.12868 -4.07385
v -2.19321 0.44333 2.96682
v -2.77514 0.11752 4.11683
v 0.07940 9.21350 3.99975
v 0.03175 0.44362 2.96683
v 0.06363 6.28064 -3.48738
v -3.60502 8.86941 -4.07385
v -4.67304 7.42020 -4.07385
v -4.67304 8.82071 -4.07385
v -4.33621 6.44229 -4.06514
v -4.67304 0.11752 4.11683
v -4.33418 6.61107 4.11683
v -2.19321 0.44362 3.70025
v 0.03175 0.44362 3.70025
v -4.33418 6.61107 4.11683
v 0.07766 9.38943 3.53057
v 0.12070 9.21350 -4.07385
v 0.10612 9.47247 -3.58038
v -4.10142 8.99663 -3.57934
v -3.60502 8.86941 -4.07385
v -4.67304 8.82071 -4.07385
v -4.10142 8.99663 -3.57934
v -4.67304 9.21350 4.11683
v -4.10142 9.38943 3.61927
v -4.10142 9.38943 3.61927
v 0.07940 9.21350 3.99975
v 0.07766 9.38943 3.53057
v -4.67304 7.42020 -4.07385
v -4.33418 6.61107 4.11683
v -4.67304 7.42020 4.11683
v -4.67304 8.82071 -4.07385
v -4.67304 7.42020 4.11683
v -4.67304 9.21350 4.11683
v -2.70460 6.45808 -4.08256
v -1.65239 6.45557 -4.01736
v -2.77514 0.12868 -4.07385
v -1.07867 9.08098 -4.32721
v -0.80059 8.76416 -4.32551
v -1.18856 8.76963 -4.32788
v -3.02830 8.53657 -4.17884
v -3.33934 8.44935 -4.17884
v -3.49068 8.75403 -4.17884
v -0.07185 6.59328 -4.10087
v 0.12070 9.21350 -4.07385
v 0.13918 6.59380 -4.11233
v -1.81981 9.00607 -4.33378
v -1.67370 9.14848 -4.07955
v -1.67473 9.02073 -4.33249
v -1.07867 9.08098 -4.32721
v -1.67370 9.14848 -4.07955
v -1.07736 9.20585 -4.07452
v -2.44015 6.55690 -4.32877
v -1.65239 6.45557 -4.01736
v -2.70460 6.45808 -4.08256
v -1.96452 8.43471 -4.33261
v -2.70460 6.45808 -4.08256
v -2.13383 9.07907 -4.07385
v -1.63716 6.56442 -4.32877
v -0.75661 6.52468 -4.06484
v -1.65239 6.45557 -4.01736
v -0.29597 6.66123 -4.32877
v -0.75661 6.52468 -4.06484
v -0.74128 6.61857 -4.32877
v -0.44493 9.14503 -4.32159
v -1.07736 9.20585 -4.07452
v -0.24246 9.28618 -4.06748
v -0.41261 8.60607 -4.32314
v -0.24246 9.28618 -4.06748
v -0.07185 6.59328 -4.10087
v -2.28445 8.92593 -4.17884
v -3.60502 8.86941 -4.07385
v -2.13383 9.07907 -4.07385
v -4.15822 6.57003 -4.17884
v -2.70460 6.45808 -4.08256
v -4.33621 6.44229 -4.06514
v -3.65039 8.23152 -4.17884
v -4.33621 6.44229 -4.06514
v -3.60502 8.86941 -4.07385
v -2.40621 8.37860 -4.17884
v -2.13383 9.07907 -4.07385
v -2.70460 6.45808 -4.08256
v -1.07736 9.20585 -4.07452
v -1.67370 9.14848 -4.07955
v -2.15668 9.26446 -3.57831
v -3.63069 9.04351 -3.57934
v -2.13383 9.07907 -4.07385
v -3.60502 8.86941 -4.07385
v -1.19672 8.64821 -4.60525
v -0.52667 8.47295 -4.60079
v -0.75093 6.73798 -4.60609
v -3.05379 8.43424 -4.33720
v -2.79407 8.41449 -4.33720
v -2.53435 8.26413 -4.33720
v -4.02288 6.67017 -4.33720
v -2.80516 6.58529 -4.17884
v -4.15822 6.57003 -4.17884
v -2.53435 8.26413 -4.33720
v -2.80516 6.58529 -4.17884
v -2.88610 6.68299 -4.33720
v -4.02288 6.67017 -4.33720
v -3.65039 8.23152 -4.17884
v -3.57322 8.14133 -4.33720
v -3.31350 8.35308 -4.33720
v -3.65039 8.23152 -4.17884
v -3.33934 8.44935 -4.17884
v -2.28389 6.67813 -4.60568
v -1.63716 6.56442 -4.32877
v -2.44015 6.55690 -4.32877
v -1.64148 6.68415 -4.60608
v -0.74128 6.61857 -4.32877
v -1.63716 6.56442 -4.32877
v -0.42448 6.76925 -4.60640
v -0.74128 6.61857 -4.32877
v -0.75093 6.73798 -4.60609
v -0.52667 8.47295 -4.60079
v -0.29597 6.66123 -4.32877
v -0.42448 6.76925 -4.60640
v -2.28389 6.67813 -4.60568
v -1.96452 8.43471 -4.33261
v -1.86677 8.32499 -4.60972
v -1.53174 8.56292 -4.60748
v -1.96452 8.43471 -4.33261
v -1.57654 8.67849 -4.33025
v -0.86169 8.63690 -4.60302
v -1.18856 8.76963 -4.32788
v -0.80059 8.76416 -4.32551
v -0.52667 8.47295 -4.60079
v -0.80059 8.76416 -4.32551
v -0.41261 8.60607 -4.32314
v -1.19672 8.64821 -4.60525
v -1.57654 8.67849 -4.33025
v -1.18856 8.76963 -4.32788
v -2.79407 8.41449 -4.33720
v -3.02830 8.53657 -4.17884
v -2.71725 8.52289 -4.17884
v -2.53435 8.26413 -4.33720
v -2.71725 8.52289 -4.17884
v -2.40621 8.37860 -4.17884
v -3.05379 8.43424 -4.33720
v -3.33934 8.44935 -4.17884
v -3.02830 8.53657 -4.17884
v 4.10142 11.98676 -3.57934
v 4.10142 9.38943 3.61927
v 4.10142 8.99663 -3.57934
v 4.10142 11.98676 3.61927
v -0.07766 9.38943 3.53057
v 4.10142 9.38943 3.61927
v -0.09177 11.98676 -3.57934
v -0.07766 9.38943 3.53057
v -0.09177 11.98676 3.61927
v 4.10142 11.98676 -3.57934
v 3.63069 9.04351 -3.57934
v 2.15668 9.26446 -3.57831
v 4.10142 11.98676 -3.57934
v -0.09177 11.98676 3.61927
v 4.10142 11.98676 3.61927
v 2.77514 0.11752 4.11683
v 4.67304 0.11752 -4.07385
v 4.67304 0.11752 4.11683
v 2.19321 0.44333 2.96682
v -0.03175 0.44362 2.96683
v 0.31456 0.44462 -3.48070
v 1.65239 6.45557 -4.01736
v 2.19325 0.43253 -3.48070
v 1.31857 6.17019 -3.47139
v 0.28160 6.24968 -3.48334
v 1.31857 6.17019 -3.47139
v 0.31456 0.44462 -3.48070
v 0.75661 6.52468 -4.06484
v 1.65239 6.45557 -4.01736
v 1.31857 6.17019 -3.47139
v 2.77514 0.11752 4.11683
v 2.19321 0.44333 2.96682
v 2.77514 0.12868 -4.07385
v -0.06363 6.28064 -3.48738
v -0.03175 0.44362 2.96683
v -0.07940 9.21350 3.99975
v 4.67304 7.42020 -4.07385
v 3.60502 8.86941 -4.07385
v 4.67304 8.82071 -4.07385
v 4.67304 0.11752 4.11683
v 4.33621 6.44229 -4.06514
v 4.33418 6.61107 4.11683
v 2.19321 0.44362 3.70025
v 4.67304 0.11752 4.11683
v 4.33418 6.61107 4.11683
v -0.12070 9.21350 -4.07385
v -0.07766 9.38943 3.53057
v -0.10612 9.47247 -3.58038
v 4.10142 8.99663 -3.57934
v 3.60502 8.86941 -4.07385
v 3.63069 9.04351 -3.57934
v 4.67304 9.21350 4.11683
v 4.10142 8.99663 -3.57934
v 4.10142 9.38943 3.61927
v -0.07940 9.21350 3.99975
v 4.10142 9.38943 3.61927
v -0.07766 9.38943 3.53057
v 4.33418 6.61107 4.11683
v 4.67304 7.42020 -4.07385
v 4.67304 7.42020 4.11683
v 4.67304 7.42020 4.11683
v 4.67304 8.82071 -4.07385
v 4.67304 9.21350 4.11683
v 2.77514 0.12868 -4.07385
v 1.65239 6.45557 -4.01736
v 2.70460 6.45808 -4.08256
v 0.80059 8.76416 -4.32551
v 0.41261 8.60607 -4.32314
v 0.44493 9.14503 -4.32159
v 3.02830 8.53657 -4.17884
v 2.71725 8.52289 -4.17884
v 2.28445 8.92593 -4.17884
v 0.07185 6.59328 -4.10087
v -0.12070 9.21350 -4.07385
v 0.24246 9.28618 -4.06748
v 1.67370 9.14848 -4.07955
v 1.81981 9.00607 -4.33378
v 1.67473 9.02073 -4.33249
v 1.07867 9.08098 -4.32721
v 1.67370 9.14848 -4.07955
v 1.67473 9.02073 -4.33249
v 2.44015 6.55690 -4.32877
v 1.65239 6.45557 -4.01736
v 1.63716 6.56442 -4.32877
v 2.70460 6.45808 -4.08256
v 2.44015 6.55690 -4.32877
v 1.96452 8.43471 -4.33261
v 1.63716 6.56442 -4.32877
v 0.75661 6.52468 -4.06484
v 0.74128 6.61857 -4.32877
v 0.75661 6.52468 -4.06484
v 0.29597 6.66123 -4.32877
v 0.74128 6.61857 -4.32877
v 0.44493 9.14503 -4.32159
v 1.07736 9.20585 -4.07452
v 1.07867 9.08098 -4.32721
v 0.24246 9.28618 -4.06748
v 0.44493 9.14503 -4.32159
v 0.41261 8.60607 -4.32314
v 2.28445 8.92593 -4.17884
v 3.60502 8.86941 -4.07385
v 3.49068 8.75403 -4.17884
v 4.15822 6.57003 -4.17884
v 2.70460 6.45808 -4.08256
v 2.80516 6.58529 -4.17884
v 4.33621 6.44229 -4.06514
v 4.15822 6.57003 -4.17884
v 3.65039 8.23152 -4.17884
v 2.13383 9.07907 -4.07385
v 2.28445 8.92593 -4.17884
v 2.40621 8.37860 -4.17884
v -0.10612 9.47247 -3.58038
v 2.15668 9.26446 -3.57831
v 1.07736 9.20585 -4.07452
v 2.13383 9.07907 -4.07385
v 3.63069 9.04351 -3.57934
v 3.60502 8.86941 -4.07385
v 1.19672 8.64821 -4.60525
v 1.53174 8.56292 -4.60748
v 0.75093 6.73798 -4.60609
v 2.53435 8.26413 -4.33720
v 2.79407 8.41449 -4.33720
v 3.05379 8.43424 -4.33720
v 4.02288 6.67017 -4.33720
v 2.80516 6.58529 -4.17884
v 2.88610 6.68299 -4.33720
v 2.80516 6.58529 -4.17884
v 2.53435 8.26413 -4.33720
v 2.88610 6.68299 -4.33720
v 3.65039 8.23152 -4.17884
v 4.02288 6.67017 -4.33720
v 3.57322 8.14133 -4.33720
v 3.31350 8.35308 -4.33720
v 3.65039 8.23152 -4.17884
v 3.57322 8.14133 -4.33720
v 2.28389 6.67813 -4.60568
v 1.63716 6.56442 -4.32877
v 1.64148 6.68415 -4.60608
v 1.64148 6.68415 -4.60608
v 0.74128 6.61857 -4.32877
v 0.75093 6.73798 -4.60609
v 0.74128 6.61857 -4.32877
v 0.42448 6.76925 -4.60640
v 0.75093 6.73798 -4.60609
v 0.29597 6.66123 -4.32877
v 0.52667 8.47295 -4.60079
v 0.42448 6.76925 -4.60640
v 1.96452 8.43471 -4.33261
v 2.28389 6.67813 -4.60568
v 1.86677 8.32499 -4.60972
v 1.53174 8.56292 -4.60748
v 1.96452 8.43471 -4.33261
v 1.86677 8.32499 -4.60972
v 0.86169 8.63690 -4.60302
v 1.18856 8.76963 -4.32788
v 1.19672 8.64821 -4.60525
v 0.52667 8.47295 -4.60079
v 0.80059 8.76416 -4.32551
v 0.86169 8.63690 -4.60302
v 1.19672 8.64821 -4.60525
v 1.57654 8.67849 -4.33025
v 1.53174 8.56292 -4.60748
v 2.79407 8.41449 -4.33720
v 3.02830 8.53657 -4.17884
v 3.05379 8.43424 -4.33720
v 2.53435 8.26413 -4.33720
v 2.71725 8.52289 -4.17884
v 2.79407 8.41449 -4.33720
v 3.05379 8.43424 -4.33720
v 3.33934 8.44935 -4.17884
v 3.31350 8.35308 -4.33720
v -4.10142 11.98676 -3.57934
v -4.10142 8.99663 -3.57934
v -4.10142 9.38943 3.61927
v -4.10142 11.98676 3.61927
v -4.10142 9.38943 3.61927
v 0.07766 9.38943 3.53057
v 0.07766 9.38943 3.53057
v 0.10612 9.47247 -3.58038
v 0.09177 11.98676 -3.57934
v -4.10142 11.98676 -3.57934
v 0.09177 11.98676 -3.57934
v -2.15668 9.26446 -3.57831
v 0.09177 11.98676 -3.57934
v 0.10612 9.47247 -3.58038
v -2.15668 9.26446 -3.57831
v -2.15668 9.26446 -3.57831
v -3.63069 9.04351 -3.57934
v -4.10142 11.98676 -3.57934
v 0.09177 11.98676 3.61927
v 0.09177 11.98676 -3.57934
v -4.10142 11.98676 -3.57934
v -2.77514 0.11752 4.11683
v -4.67304 0.11752 4.11683
v -4.67304 0.11752 -4.07385
v -2.19321 0.44333 2.96682
v -2.19325 0.43253 -3.48070
v -0.31456 0.44462 -3.48070
v -0.31456 0.44462 -3.48070
v 0.03175 0.44362 -3.48070
v 0.03175 0.44362 2.96683
v 0.03175 0.44362 2.96683
v 0.03175 0.44362 3.70025
v -2.19321 0.44362 3.70025
v -2.19321 0.44362 3.70025
v -2.19321 0.44333 2.96682
v 0.03175 0.44362 2.96683
v -2.19325 0.43253 -3.48070
v -2.77514 0.12868 -4.07385
v -1.65239 6.45557 -4.01736
v -0.31456 0.44462 -3.48070
v -2.19325 0.43253 -3.48070
v -1.31857 6.17019 -3.47139
v -0.28160 6.24968 -3.48334
v 0.06363 6.28064 -3.48738
v 0.03175 0.44362 -3.48070
v -0.31456 0.44462 -3.48070
v -1.31857 6.17019 -3.47139
v -0.28160 6.24968 -3.48334
v 0.06363 6.28064 -3.48738
v -0.28160 6.24968 -3.48334
v -0.07185 6.59328 -4.10087
v -0.28160 6.24968 -3.48334
v -1.31857 6.17019 -3.47139
v -0.75661 6.52468 -4.06484
v -1.31857 6.17019 -3.47139
v -1.65239 6.45557 -4.01736
v -0.75661 6.52468 -4.06484
v -0.75661 6.52468 -4.06484
v -0.07185 6.59328 -4.10087
v -0.28160 6.24968 -3.48334
v -2.19325 0.43253 -3.48070
v -2.19321 0.44333 2.96682
v -2.77514 0.12868 -4.07385
v -2.19321 0.44333 2.96682
v -2.19321 0.44362 3.70025
v -2.77514 0.11752 4.11683
v 0.13918 6.59380 -4.11233
v 0.12070 9.21350 -4.07385
v 0.06363 6.28064 -3.48738
v 0.12070 9.21350 -4.07385
v 0.07940 9.21350 3.99975
v 0.06363 6.28064 -3.48738
v 0.07940 9.21350 3.99975
v 0.03175 0.44362 3.70025
v 0.03175 0.44362 2.96683
v 0.03175 0.44362 2.96683
v 0.03175 0.44362 -3.48070
v 0.06363 6.28064 -3.48738
v -3.60502 8.86941 -4.07385
v -4.33621 6.44229 -4.06514
v -4.67304 7.42020 -4.07385
v -4.33621 6.44229 -4.06514
v -4.67304 0.11752 -4.07385
v -4.67304 0.11752 4.11683
v 0.03175 0.44362 3.70025
v 0.07940 9.21350 3.99975
v -4.33418 6.61107 4.11683
v 0.07940 9.21350 3.99975
v -4.67304 9.21350 4.11683
v -4.67304 7.42020 4.11683
v -4.33418 6.61107 4.11683
v 0.07940 9.21350 3.99975
v -4.67304 7.42020 4.11683
v -4.33418 6.61107 4.11683
v -4.67304 0.11752 4.11683
v -2.19321 0.44362 3.70025
v -4.67304 0.11752 4.11683
v -2.77514 0.11752 4.11683
v -2.19321 0.44362 3.70025
v 0.07766 9.38943 3.53057
v 0.07940 9.21350 3.99975
v 0.12070 9.21350 -4.07385
v -4.10142 8.99663 -3.57934
v -3.63069 9.04351 -3.57934
v -3.60502 8.86941 -4.07385
v -4.10142 8.99663 -3.57934
v -4.67304 8.82071 -4.07385
v -4.67304 9.21350 4.11683
v -4.10142 9.38943 3.61927
v -4.67304 9.21350 4.11683
v 0.07940 9.21350 3.99975
v -4.67304 7.42020 -4.07385
v -4.33621 6.44229 -4.06514
v -4.33418 6.61107 4.11683
v -4.67304 8.82071 -4.07385
v -4.67304 7.42020 -4.07385
v -4.67304 7.42020 4.11683
v -4.67304 0.11752 -4.07385
v -4.33621 6.44229 -4.06514
v -2.77514 0.12868 -4.07385
v -4.33621 6.44229 -4.06514
v -2.70460 6.45808 -4.08256
v -2.77514 0.12868 -4.07385
v -1.81981 9.00607 -4.33378
v -1.67473 9.02073 -4.33249
v -1.57654 8.67849 -4.33025
v -1.67473 9.02073 -4.33249
v -1.07867 9.08098 -4.32721
v -1.18856 8.76963 -4.32788
v -1.57654 8.67849 -4.33025
v -1.67473 9.02073 -4.33249
v -1.18856 8.76963 -4.32788
v -1.07867 9.08098 -4.32721
v -0.44493 9.14503 -4.32159
v -0.80059 8.76416 -4.32551
v -0.44493 9.14503 -4.32159
v -0.41261 8.60607 -4.32314
v -0.80059 8.76416 -4.32551
v -1.96452 8.43471 -4.33261
v -1.81981 9.00607 -4.33378
v -1.57654 8.67849 -4.33025
v -2.28445 8.92593 -4.17884
v -2.40621 8.37860 -4.17884
v -2.71725 8.52289 -4.17884
v -2.28445 8.92593 -4.17884
v -2.71725 8.52289 -4.17884
v -3.02830 8.53657 -4.17884
v -3.33934 8.44935 -4.17884
v -3.65039 8.23152 -4.17884
v -3.49068 8.75403 -4.17884
v -2.28445 8.92593 -4.17884
v -3.02830 8.53657 -4.17884
v -3.49068 8.75403 -4.17884
v -0.07185 6.59328 -4.10087
v -0.24246 9.28618 -4.06748
v 0.12070 9.21350 -4.07385
v -1.81981 9.00607 -4.33378
v -2.13383 9.07907 -4.07385
v -1.67370 9.14848 -4.07955
v -1.07867 9.08098 -4.32721
v -1.67473 9.02073 -4.33249
v -1.67370 9.14848 -4.07955
v -2.44015 6.55690 -4.32877
v -1.63716 6.56442 -4.32877
v -1.65239 6.45557 -4.01736
v -2.13383 9.07907 -4.07385
v -1.81981 9.00607 -4.33378
v -1.96452 8.43471 -4.33261
v -1.96452 8.43471 -4.33261
v -2.44015 6.55690 -4.32877
v -2.70460 6.45808 -4.08256
v -1.63716 6.56442 -4.32877
v -0.74128 6.61857 -4.32877
v -0.75661 6.52468 -4.06484
v -0.29597 6.66123 -4.32877
v -0.07185 6.59328 -4.10087
v -0.75661 6.52468 -4.06484
v -0.44493 9.14503 -4.32159
v -1.07867 9.08098 -4.32721
v -1.07736 9.20585 -4.07452
v -0.07185 6.59328 -4.10087
v -0.29597 6.66123 -4.32877
v -0.41261 8.60607 -4.32314
v -0.41261 8.60607 -4.32314
v -0.44493 9.14503 -4.32159
v -0.24246 9.28618 -4.06748
v -2.28445 8.92593 -4.17884
v -3.49068 8.75403 -4.17884
v -3.60502 8.86941 -4.07385
v -4.15822 6.57003 -4.17884
v -2.80516 6.58529 -4.17884
v -2.70460 6.45808 -4.08256
v -3.60502 8.86941 -4.07385
v -3.49068 8.75403 -4.17884
v -3.65039 8.23152 -4.17884
v -3.65039 8.23152 -4.17884
v -4.15822 6.57003 -4.17884
v -4.33621 6.44229 -4.06514
v -2.70460 6.45808 -4.08256
v -2.80516 6.58529 -4.17884
v -2.40621 8.37860 -4.17884
v -2.40621 8.37860 -4.17884
v -2.28445 8.92593 -4.17884
v -2.13383 9.07907 -4.07385
v -1.67370 9.14848 -4.07955
v -2.13383 9.07907 -4.07385
v -2.15668 9.26446 -3.57831
v -2.15668 9.26446 -3.57831
v 0.10612 9.47247 -3.58038
v -1.07736 9.20585 -4.07452
v 0.10612 9.47247 -3.58038
v 0.12070 9.21350 -4.07385
v -0.24246 9.28618 -4.06748
v -0.24246 9.28618 -4.06748
v -1.07736 9.20585 -4.07452
v 0.10612 9.47247 -3.58038
v -3.63069 9.04351 -3.57934
v -2.15668 9.26446 -3.57831
v -2.13383 9.07907 -4.07385
v -2.28389 6.67813 -4.60568
v -1.86677 8.32499 -4.60972
v -1.64148 6.68415 -4.60608
v -1.86677 8.32499 -4.60972
v -1.53174 8.56292 -4.60748
v -0.75093 6.73798 -4.60609
v -1.64148 6.68415 -4.60608
v -1.86677 8.32499 -4.60972
v -0.75093 6.73798 -4.60609
v -1.53174 8.56292 -4.60748
v -1.19672 8.64821 -4.60525
v -0.75093 6.73798 -4.60609
v -1.19672 8.64821 -4.60525
v -0.86169 8.63690 -4.60302
v -0.52667 8.47295 -4.60079
v -0.52667 8.47295 -4.60079
v -0.42448 6.76925 -4.60640
v -0.75093 6.73798 -4.60609
v -4.02288 6.67017 -4.33720
v -3.57322 8.14133 -4.33720
v -2.88610 6.68299 -4.33720
v -3.57322 8.14133 -4.33720
v -3.31350 8.35308 -4.33720
v -2.53435 8.26413 -4.33720
v -2.88610 6.68299 -4.33720
v -3.57322 8.14133 -4.33720
v -2.53435 8.26413 -4.33720
v -3.31350 8.35308 -4.33720
v -3.05379 8.43424 -4.33720
v -2.53435 8.26413 -4.33720
v -4.02288 6.67017 -4.33720
v -2.88610 6.68299 -4.33720
v -2.80516 6.58529 -4.17884
v -2.53435 8.26413 -4.33720
v -2.40621 8.37860 -4.17884
v -2.80516 6.58529 -4.17884
v -4.02288 6.67017 -4.33720
v -4.15822 6.57003 -4.17884
v -3.65039 8.23152 -4.17884
v -3.31350 8.35308 -4.33720
v -3.57322 8.14133 -4.33720
v -3.65039 8.23152 -4.17884
v -2.28389 6.67813 -4.60568
v -1.64148 6.68415 -4.60608
v -1.63716 6.56442 -4.32877
v -1.64148 6.68415 -4.60608
v -0.75093 6.73798 -4.60609
v -0.74128 6.61857 -4.32877
v -0.42448 6.76925 -4.60640
v -0.29597 6.66123 -4.32877
v -0.74128 6.61857 -4.32877
v -0.52667 8.47295 -4.60079
v -0.41261 8.60607 -4.32314
v -0.29597 6.66123 -4.32877
v -2.28389 6.67813 -4.60568
v -2.44015 6.55690 -4.32877
v -1.96452 8.43471 -4.33261
v -1.53174 8.56292 -4.60748
v -1.86677 8.32499 -4.60972
v -1.96452 8.43471 -4.33261
v -0.86169 8.63690 -4.60302
v -1.19672 8.64821 -4.60525
v -1.18856 8.76963 -4.32788
v -0.52667 8.47295 -4.60079
v -0.86169 8.63690 -4.60302
v -0.80059 8.76416 -4.32551
v -1.19672 8.64821 -4.60525
v -1.53174 8.56292 -4.60748
v -1.57654 8.67849 -4.33025
v -2.79407 8.41449 -4.33720
v -3.05379 8.43424 -4.33720
v -3.02830 8.53657 -4.17884
v -2.53435 8.26413 -4.33720
v -2.79407 8.41449 -4.33720
v -2.71725 8.52289 -4.17884
v -3.05379 8.43424 -4.33720
v -3.31350 8.35308 -4.33720
v -3.33934 8.44935 -4.17884
v 4.10142 11.98676 -3.57934
v 4.10142 11.98676 3.61927
v 4.10142 9.38943 3.61927
v 4.10142 11.98676 3.61927
v -0.09177 11.98676 3.61927
v -0.07766 9.38943 3.53057
v -0.09177 11.98676 -3.57934
v -0.10612 9.47247 -3.58038
v -0.07766 9.38943 3.53057
v -0.10612 9.47247 -3.58038
v -0.09177 11.98676 -3.57934
v 2.15668 9.26446 -3.57831
v -0.09177 11.98676 -3.57934
v 4.10142 11.98676 -3.57934
v 2.15668 9.26446 -3.57831
v 4.10142 11.98676 -3.57934
v 4.10142 8.99663 -3.57934
v 3.63069 9.04351 -3.57934
v 4.10142 11.98676 -3.57934
v -0.09177 11.98676 -3.57934
v -0.09177 11.98676 3.61927
v 2.77514 0.11752 4.11683
v 2.77514 0.12868 -4.07385
v 4.67304 0.11752 -4.07385
v 2.19321 0.44333 2.96682
v 2.19321 0.44362 3.70025
v -0.03175 0.44362 2.96683
v 2.19321 0.44362 3.70025
v -0.03175 0.44362 3.70025
v -0.03175 0.44362 2.96683
v -0.03175 0.44362 2.96683
v -0.03175 0.44362 -3.48070
v 0.31456 0.44462 -3.48070
v 0.31456 0.44462 -3.48070
v 2.19325 0.43253 -3.48070
v 2.19321 0.44333 2.96682
v 1.65239 6.45557 -4.01736
v 2.77514 0.12868 -4.07385
v 2.19325 0.43253 -3.48070
v 1.31857 6.17019 -3.47139
v 2.19325 0.43253 -3.48070
v 0.31456 0.44462 -3.48070
v 0.31456 0.44462 -3.48070
v -0.03175 0.44362 -3.48070
v 0.28160 6.24968 -3.48334
v -0.03175 0.44362 -3.48070
v -0.06363 6.28064 -3.48738
v 0.28160 6.24968 -3.48334
v 1.31857 6.17019 -3.47139
v 0.28160 6.24968 -3.48334
v 0.75661 6.52468 -4.06484
v 0.28160 6.24968 -3.48334
v -0.06363 6.28064 -3.48738
v 0.07185 6.59328 -4.10087
v 0.75661 6.52468 -4.06484
v 0.28160 6.24968 -3.48334
v 0.07185 6.59328 -4.10087
v -0.06363 6.28064 -3.48738
v -0.13918 6.59380 -4.11233
v 0.07185 6.59328 -4.10087
v 2.19321 0.44362 3.70025
v 2.19321 0.44333 2.96682
v 2.77514 0.11752 4.11683
v 2.19321 0.44333 2.96682
v 2.19325 0.43253 -3.48070
v 2.77514 0.12868 -4.07385
v -0.07940 9.21350 3.99975
v -0.12070 9.21350 -4.07385
v -0.06363 6.28064 -3.48738
v -0.12070 9.21350 -4.07385
v -0.13918 6.59380 -4.11233
v -0.06363 6.28064 -3.48738
v -0.06363 6.28064 -3.48738
v -0.03175 0.44362 -3.48070
v -0.03175 0.44362 2.96683
v -0.03175 0.44362 2.96683
v -0.03175 0.44362 3.70025
v -0.07940 9.21350 3.99975
v 4.67304 7.42020 -4.07385
v 4.33621 6.44229 -4.06514
v 3.60502 8.86941 -4.07385
v 4.67304 0.11752 4.11683
v 4.67304 0.11752 -4.07385
v 4.33621 6.44229 -4.06514
v 4.67304 9.21350 4.11683
v -0.07940 9.21350 3.99975
v 4.67304 7.42020 4.11683
v -0.07940 9.21350 3.99975
v -0.03175 0.44362 3.70025
v 4.33418 6.61107 4.11683
v 2.19321 0.44362 3.70025
v 2.77514 0.11752 4.11683
v 4.67304 0.11752 4.11683
v -0.07940 9.21350 3.99975
v 4.33418 6.61107 4.11683
v 4.67304 7.42020 4.11683
v -0.03175 0.44362 3.70025
v 2.19321 0.44362 3.70025
v 4.33418 6.61107 4.11683
v -0.12070 9.21350 -4.07385
v -0.07940 9.21350 3.99975
v -0.07766 9.38943 3.53057
v 4.10142 8.99663 -3.57934
v 4.67304 8.82071 -4.07385
v 3.60502 8.86941 -4.07385
v 4.67304 9.21350 4.11683
v 4.67304 8.82071 -4.07385
v 4.10142 8.99663 -3.57934
v -0.07940 9.21350 3.99975
v 4.67304 9.21350 4.11683
v 4.10142 9.38943 3.61927
v 4.33418 6.61107 4.11683
v 4.33621 6.44229 -4.06514
v 4.67304 7.42020 -4.07385
v 4.67304 7.42020 4.11683
v 4.67304 7.42020 -4.07385
v 4.67304 8.82071 -4.07385
v 2.70460 6.45808 -4.08256
v 4.33621 6.44229 -4.06514
v 2.77514 0.12868 -4.07385
v 4.33621 6.44229 -4.06514
v 4.67304 0.11752 -4.07385
v 2.77514 0.12868 -4.07385
v 1.07867 9.08098 -4.32721
v 1.67473 9.02073 -4.33249
v 1.18856 8.76963 -4.32788
v 1.67473 9.02073 -4.33249
v 1.81981 9.00607 -4.33378
v 1.57654 8.67849 -4.33025
v 1.18856 8.76963 -4.32788
v 1.67473 9.02073 -4.33249
v 1.57654 8.67849 -4.33025
v 1.81981 9.00607 -4.33378
v 1.96452 8.43471 -4.33261
v 1.57654 8.67849 -4.33025
v 0.44493 9.14503 -4.32159
v 1.07867 9.08098 -4.32721
v 0.80059 8.76416 -4.32551
v 0.80059 8.76416 -4.32551
v 1.07867 9.08098 -4.32721
v 1.18856 8.76963 -4.32788
v 3.49068 8.75403 -4.17884
v 3.65039 8.23152 -4.17884
v 3.33934 8.44935 -4.17884
v 3.49068 8.75403 -4.17884
v 3.33934 8.44935 -4.17884
v 3.02830 8.53657 -4.17884
v 2.71725 8.52289 -4.17884
v 2.40621 8.37860 -4.17884
v 2.28445 8.92593 -4.17884
v 3.49068 8.75403 -4.17884
v 3.02830 8.53657 -4.17884
v 2.28445 8.92593 -4.17884
v 0.07185 6.59328 -4.10087
v -0.13918 6.59380 -4.11233
v -0.12070 9.21350 -4.07385
v 1.67370 9.14848 -4.07955
v 2.13383 9.07907 -4.07385
v 1.81981 9.00607 -4.33378
v 1.07867 9.08098 -4.32721
v 1.07736 9.20585 -4.07452
v 1.67370 9.14848 -4.07955
v 2.44015 6.55690 -4.32877
v 2.70460 6.45808 -4.08256
v 1.65239 6.45557 -4.01736
v 1.96452 8.43471 -4.33261
v 1.81981 9.00607 -4.33378
v 2.13383 9.07907 -4.07385
v 2.13383 9.07907 -4.07385
v 2.70460 6.45808 -4.08256
v 1.96452 8.43471 -4.33261
v 1.63716 6.56442 -4.32877
v 1.65239 6.45557 -4.01736
v 0.75661 6.52468 -4.06484
v 0.75661 6.52468 -4.06484
v 0.07185 6.59328 -4.10087
v 0.29597 6.66123 -4.32877
v 0.44493 9.14503 -4.32159
v 0.24246 9.28618 -4.06748
v 1.07736 9.20585 -4.07452
v 0.41261 8.60607 -4.32314
v 0.29597 6.66123 -4.32877
v 0.07185 6.59328 -4.10087
v 0.07185 6.59328 -4.10087
v 0.24246 9.28618 -4.06748
v 0.41261 8.60607 -4.32314
v 2.28445 8.92593 -4.17884
v 2.13383 9.07907 -4.07385
v 3.60502 8.86941 -4.07385
v 4.15822 6.57003 -4.17884
v 4.33621 6.44229 -4.06514
v 2.70460 6.45808 -4.08256
v 3.65039 8.23152 -4.17884
v 3.49068 8.75403 -4.17884
v 3.60502 8.86941 -4.07385
v 3.60502 8.86941 -4.07385
v 4.33621 6.44229 -4.06514
v 3.65039 8.23152 -4.17884
v 2.40621 8.37860 -4.17884
v 2.80516 6.58529 -4.17884
v 2.70460 6.45808 -4.08256
v 2.70460 6.45808 -4.08256
v 2.13383 9.07907 -4.07385
v 2.40621 8.37860 -4.17884
v 2.15668 9.26446 -3.57831
v 2.13383 9.07907 -4.07385
v 1.67370 9.14848 -4.07955
v 1.67370 9.14848 -4.07955
v 1.07736 9.20585 -4.07452
v 2.15668 9.26446 -3.57831
v 1.07736 9.20585 -4.07452
v 0.24246 9.28618 -4.06748
v -0.10612 9.47247 -3.58038
v 0.24246 9.28618 -4.06748
v -0.12070 9.21350 -4.07385
v -0.10612 9.47247 -3.58038
v 2.13383 9.07907 -4.07385
v 2.15668 9.26446 -3.57831
v 3.63069 9.04351 -3.57934
v 1.53174 8.56292 -4.60748
v 1.86677 8.32499 -4.60972
v 0.75093 6.73798 -4.60609
v 1.86677 8.32499 -4.60972
v 2.28389 6.67813 -4.60568
v 1.64148 6.68415 -4.60608
v 1.64148 6.68415 -4.60608
v 0.75093 6.73798 -4.60609
v 1.86677 8.32499 -4.60972
v 1.19672 8.64821 -4.60525
v 0.75093 6.73798 -4.60609
v 0.52667 8.47295 -4.60079
v 0.75093 6.73798 -4.60609
v 0.42448 6.76925 -4.60640
v 0.52667 8.47295 -4.60079
v 0.52667 8.47295 -4.60079
v 0.86169 8.63690 -4.60302
v 1.19672 8.64821 -4.60525
v 3.31350 8.35308 -4.33720
v 3.57322 8.14133 -4.33720
v 2.53435 8.26413 -4.33720
v 3.57322 8.14133 -4.33720
v 4.02288 6.67017 -4.33720
v 2.88610 6.68299 -4.33720
v 2.88610 6.68299 -4.33720
v 2.53435 8.26413 -4.33720
v 3.57322 8.14133 -4.33720
v 3.31350 8.35308 -4.33720
v 2.53435 8.26413 -4.33720
v 3.05379 8.43424 -4.33720
v 4.02288 6.67017 -4.33720
v 4.15822 6.57003 -4.17884
v 2.80516 6.58529 -4.17884
v 2.80516 6.58529 -4.17884
v 2.40621 8.37860 -4.17884
v 2.53435 8.26413 -4.33720
v 3.65039 8.23152 -4.17884
v 4.15822 6.57003 -4.17884
v 4.02288 6.67017 -4.33720
v 3.31350 8.35308 -4.33720
v 3.33934 8.44935 -4.17884
v 3.65039 8.23152 -4.17884
v 2.28389 6.67813 -4.60568
v 2.44015 6.55690 -4.32877
v 1.63716 6.56442 -4.32877
v 1.64148 6.68415 -4.60608
v 1.63716 6.56442 -4.32877
v 0.74128 6.61857 -4.32877
v 0.74128 6.61857 -4.32877
v 0.29597 6.66123 -4.32877
v 0.42448 6.76925 -4.60640
v 0.29597 6.66123 -4.32877
v 0.41261 8.60607 -4.32314
v 0.52667 8.47295 -4.60079
v 1.96452 8.43471 -4.33261
v 2.44015 6.55690 -4.32877
v 2.28389 6.67813 -4.60568
v 1.53174 8.56292 -4.60748
v 1.57654 8.67849 -4.33025
v 1.96452 8.43471 -4.33261
v 0.86169 8.63690 -4.60302
v 0.80059 8.76416 -4.32551
v 1.18856 8.76963 -4.32788
v 0.52667 8.47295 -4.60079
v 0.41261 8.60607 -4.32314
v 0.80059 8.76416 -4.32551
v 1.19672 8.64821 -4.60525
v 1.18856 8.76963 -4.32788
v 1.57654 8.67849 -4.33025
v 2.79407 8.41449 -4.33720
v 2.71725 8.52289 -4.17884
v 3.02830 8.53657 -4.17884
v 2.53435 8.26413 -4.33720
v 2.40621 8.37860 -4.17884
v 2.71725 8.52289 -4.17884
v 3.05379 8.43424 -4.33720
v 3.02830 8.53657 -4.17884
v 3.33934 8.44935 -4.17884
vt 0.61727 0.72778
vt 0.38105 0.81558
vt 0.38105 0.72809
vt 0.61229 0.71866
vt 0.43900 0.82820
vt 0.43851 0.71859
vt 0.32334 0.11934
vt 0.03198 0.00982
vt 0.32727 0.00982
vt 0.46115 0.82803
vt 0.44163 0.82933
vt 0.44163 0.74623
vt 0.71918 0.29577
vt 0.89214 0.01462
vt 0.89214 0.30057
vt 0.64991 0.37986
vt 0.72972 0.49825
vt 0.65125 0.49847
vt 0.45082 0.90193
vt 0.55502 0.97956
vt 0.44984 0.99386
vt 0.57521 0.72272
vt 0.26906 0.73962
vt 0.28317 0.72420
vt 0.61622 0.95584
vt 0.43844 0.90585
vt 0.43841 0.92021
vt 0.65507 0.98862
vt 0.64635 0.98894
vt 0.65030 0.96043
vt 0.55884 0.47083
vt 0.31254 0.49353
vt 0.26859 0.47079
vt 0.34258 0.12676
vt 0.29921 0.49655
vt 0.03511 0.25043
vt 0.59747 0.40907
vt 0.62176 0.33759
vt 0.63918 0.39404
vt 0.42350 0.65595
vt 0.26507 0.74627
vt 0.26561 0.65370
vt 0.40453 0.49154
vt 0.26215 0.49150
vt 0.54244 0.31303
vt 0.32334 0.11934
vt 0.01156 0.12680
vt 0.03177 0.11586
vt 0.43427 0.45582
vt 0.41424 0.43428
vt 0.45850 0.43473
vt 0.55491 0.03637
vt 0.57179 0.21445
vt 0.55751 0.20410
vt 0.55751 0.20410
vt 0.45845 0.21104
vt 0.45785 0.20142
vt 0.42312 0.64193
vt 0.26561 0.65370
vt 0.26507 0.64208
vt 0.42312 0.62194
vt 0.26507 0.64208
vt 0.26507 0.61649
vt 0.65100 0.22257
vt 0.59087 0.22031
vt 0.63577 0.50010
vt 0.73119 0.07515
vt 0.71254 0.08820
vt 0.71601 0.06533
vt 0.70454 0.16989
vt 0.70648 0.14997
vt 0.72518 0.14437
vt 0.62912 0.20938
vt 0.73894 0.22422
vt 0.62860 0.21811
vt 0.33995 0.42383
vt 0.33337 0.43539
vt 0.33391 0.42391
vt 0.30906 0.42424
vt 0.33337 0.43539
vt 0.30852 0.43569
vt 0.63683 0.04121
vt 0.65341 0.06656
vt 0.62373 0.04366
vt 0.70080 0.98367
vt 0.62166 0.97500
vt 0.72293 0.97167
vt 0.66047 0.05720
vt 0.68117 0.08260
vt 0.65341 0.06656
vt 0.70068 0.08328
vt 0.68117 0.08260
vt 0.68724 0.07470
vt 0.28264 0.42460
vt 0.30852 0.43569
vt 0.27374 0.43609
vt 0.68851 0.09916
vt 0.70730 0.10734
vt 0.63139 0.10410
vt 0.35950 0.42951
vt 0.41424 0.43428
vt 0.35265 0.43527
vt 0.68827 0.17342
vt 0.62852 0.16741
vt 0.69600 0.16741
vt 0.59132 0.38280
vt 0.59625 0.30230
vt 0.59747 0.40907
vt 0.69478 0.96824
vt 0.72293 0.97167
vt 0.62166 0.97500
vt 0.30852 0.43569
vt 0.33337 0.43539
vt 0.35290 0.45706
vt 0.41465 0.45591
vt 0.35265 0.43527
vt 0.41424 0.43428
vt 0.71456 0.06417
vt 0.70434 0.01910
vt 0.61646 0.03522
vt 0.70349 0.17015
vt 0.70544 0.15041
vt 0.70120 0.12832
vt 0.68241 0.18085
vt 0.63230 0.17288
vt 0.68827 0.17342
vt 0.64087 0.98297
vt 0.71128 0.97605
vt 0.70726 0.98297
vt 0.59881 0.32699
vt 0.60568 0.39244
vt 0.59881 0.38876
vt 0.69364 0.07176
vt 0.68827 0.08616
vt 0.68624 0.07237
vt 0.64751 0.03555
vt 0.66047 0.05720
vt 0.63683 0.04121
vt 0.66643 0.04834
vt 0.68724 0.07470
vt 0.66047 0.05720
vt 0.70290 0.07201
vt 0.68724 0.07470
vt 0.69304 0.06573
vt 0.68511 0.09111
vt 0.63368 0.09731
vt 0.63707 0.08947
vt 0.35115 0.29285
vt 0.29208 0.33834
vt 0.29032 0.32585
vt 0.68343 0.05236
vt 0.69114 0.03290
vt 0.69555 0.04956
vt 0.68700 0.08009
vt 0.69817 0.06576
vt 0.69966 0.08167
vt 0.68644 0.09336
vt 0.69966 0.08167
vt 0.69938 0.09713
vt 0.68578 0.06637
vt 0.69555 0.04956
vt 0.69817 0.06576
vt 0.69364 0.05007
vt 0.68567 0.05916
vt 0.68624 0.04640
vt 0.69568 0.04002
vt 0.68624 0.04640
vt 0.68827 0.03420
vt 0.69308 0.06069
vt 0.68624 0.07237
vt 0.68567 0.05916
vt 0.61727 0.72778
vt 0.38105 0.81558
vt 0.61727 0.82849
vt 0.61229 0.71866
vt 0.43900 0.82820
vt 0.61232 0.82820
vt 0.03198 0.00982
vt 0.32334 0.11934
vt 0.32727 0.00982
vt 0.44163 0.74623
vt 0.46115 0.82803
vt 0.52228 0.82188
vt 0.89214 0.01462
vt 0.71918 0.29577
vt 0.89214 0.30057
vt 0.64991 0.37986
vt 0.72972 0.49825
vt 0.72833 0.37970
vt 0.45082 0.90193
vt 0.44984 0.99386
vt 0.55502 0.97956
vt 0.26906 0.73962
vt 0.57521 0.72272
vt 0.28317 0.72420
vt 0.61622 0.95584
vt 0.61344 0.99882
vt 0.43841 0.92021
vt 0.68359 0.98677
vt 0.72083 0.98459
vt 0.70779 0.95927
vt 0.26859 0.47079
vt 0.31254 0.49353
vt 0.55884 0.47083
vt 0.03511 0.25043
vt 0.29921 0.49655
vt 0.34258 0.12676
vt 0.62176 0.33759
vt 0.59747 0.40907
vt 0.63918 0.39404
vt 0.26507 0.74627
vt 0.42350 0.65595
vt 0.26561 0.65370
vt 0.40453 0.49154
vt 0.56413 0.50081
vt 0.54244 0.31303
vt 0.01156 0.12680
vt 0.32334 0.11934
vt 0.03177 0.11586
vt 0.43427 0.45582
vt 0.41424 0.43428
vt 0.41465 0.45591
vt 0.57179 0.21445
vt 0.55491 0.03637
vt 0.55751 0.20410
vt 0.45845 0.21104
vt 0.55751 0.20410
vt 0.45785 0.20142
vt 0.26561 0.65370
vt 0.42312 0.64193
vt 0.26507 0.64208
vt 0.26507 0.64208
vt 0.42312 0.62194
vt 0.26507 0.61649
vt 0.63577 0.50010
vt 0.59087 0.22031
vt 0.65100 0.22257
vt 0.71254 0.08820
vt 0.70118 0.10945
vt 0.72929 0.11329
vt 0.70454 0.16989
vt 0.69743 0.18861
vt 0.70912 0.21966
vt 0.62912 0.20938
vt 0.73894 0.22422
vt 0.74293 0.20938
vt 0.33337 0.43539
vt 0.33995 0.42383
vt 0.33391 0.42391
vt 0.30906 0.42424
vt 0.33337 0.43539
vt 0.33391 0.42391
vt 0.63683 0.04121
vt 0.65341 0.06656
vt 0.66047 0.05720
vt 0.62166 0.97500
vt 0.62765 0.98364
vt 0.70080 0.98367
vt 0.66047 0.05720
vt 0.68117 0.08260
vt 0.68724 0.07470
vt 0.68117 0.08260
vt 0.70068 0.08328
vt 0.68724 0.07470
vt 0.28264 0.42460
vt 0.30852 0.43569
vt 0.30906 0.42424
vt 0.70730 0.10734
vt 0.70371 0.09967
vt 0.68851 0.09916
vt 0.35950 0.42951
vt 0.41424 0.43428
vt 0.40999 0.42870
vt 0.68827 0.17342
vt 0.62852 0.16741
vt 0.63230 0.17288
vt 0.59625 0.30230
vt 0.59078 0.30962
vt 0.59132 0.38280
vt 0.72293 0.97167
vt 0.71596 0.96764
vt 0.69478 0.96824
vt 0.25866 0.45721
vt 0.35290 0.45706
vt 0.30852 0.43569
vt 0.35265 0.43527
vt 0.41465 0.45591
vt 0.41424 0.43428
vt 0.71456 0.06417
vt 0.71087 0.08680
vt 0.61646 0.03522
vt 0.70120 0.12832
vt 0.70544 0.15041
vt 0.70349 0.17015
vt 0.68241 0.18085
vt 0.63230 0.17288
vt 0.63539 0.18040
vt 0.71128 0.97605
vt 0.64087 0.98297
vt 0.70726 0.98297
vt 0.60568 0.39244
vt 0.59881 0.32699
vt 0.59881 0.38876
vt 0.69364 0.07176
vt 0.68827 0.08616
vt 0.69568 0.08340
vt 0.64751 0.03555
vt 0.66047 0.05720
vt 0.66643 0.04834
vt 0.66643 0.04834
vt 0.68724 0.07470
vt 0.69304 0.06573
vt 0.68724 0.07470
vt 0.70290 0.07201
vt 0.69304 0.06573
vt 0.63368 0.09731
vt 0.68511 0.09111
vt 0.63707 0.08947
vt 0.29208 0.33834
vt 0.35115 0.29285
vt 0.29032 0.32585
vt 0.68343 0.05236
vt 0.69114 0.03290
vt 0.67930 0.03790
vt 0.68700 0.08009
vt 0.69817 0.06576
vt 0.68578 0.06637
vt 0.68644 0.09336
vt 0.69966 0.08167
vt 0.68700 0.08009
vt 0.68578 0.06637
vt 0.69555 0.04956
vt 0.68343 0.05236
vt 0.69364 0.05007
vt 0.68567 0.05916
vt 0.69308 0.06069
vt 0.69568 0.04002
vt 0.68624 0.04640
vt 0.69364 0.05007
vt 0.69308 0.06069
vt 0.68624 0.07237
vt 0.69364 0.07176
vt 0.61727 0.72778
vt 0.61727 0.82849
vt 0.38105 0.81558
vt 0.61229 0.71866
vt 0.61232 0.82820
vt 0.43900 0.82820
vt 0.32334 0.11934
vt 0.03177 0.11586
vt 0.03198 0.00982
vt 0.44163 0.74623
vt 0.61551 0.74623
vt 0.52228 0.82188
vt 0.61551 0.74623
vt 0.61611 0.81610
vt 0.52228 0.82188
vt 0.52228 0.82188
vt 0.46115 0.82803
vt 0.44163 0.74623
vt 0.71918 0.29577
vt 0.71918 0.00982
vt 0.89214 0.01462
vt 0.64991 0.37986
vt 0.72833 0.37970
vt 0.72972 0.49825
vt 0.45082 0.90193
vt 0.55578 0.90189
vt 0.55502 0.97956
vt 0.55502 0.97956
vt 0.55486 0.99386
vt 0.44984 0.99386
vt 0.44984 0.99386
vt 0.43789 0.99386
vt 0.43888 0.90193
vt 0.43888 0.90193
vt 0.45082 0.90193
vt 0.44984 0.99386
vt 0.57521 0.72272
vt 0.59101 0.73962
vt 0.26906 0.73962
vt 0.43841 0.92021
vt 0.43769 0.99811
vt 0.61344 0.99882
vt 0.61622 0.95584
vt 0.61729 0.94153
vt 0.43844 0.90585
vt 0.43841 0.92021
vt 0.61344 0.99882
vt 0.61622 0.95584
vt 0.65030 0.96043
vt 0.66467 0.96009
vt 0.65507 0.98862
vt 0.66467 0.96009
vt 0.70779 0.95927
vt 0.68359 0.98677
vt 0.70779 0.95927
vt 0.72083 0.98459
vt 0.68359 0.98677
vt 0.68359 0.98677
vt 0.65507 0.98862
vt 0.66467 0.96009
vt 0.54079 0.49349
vt 0.31254 0.49353
vt 0.55884 0.47083
vt 0.31254 0.49353
vt 0.28657 0.49353
vt 0.26859 0.47079
vt 0.00982 0.23729
vt 0.01156 0.12680
vt 0.03511 0.25043
vt 0.01156 0.12680
vt 0.34258 0.12676
vt 0.03511 0.25043
vt 0.34258 0.12676
vt 0.32929 0.49655
vt 0.29921 0.49655
vt 0.29921 0.49655
vt 0.03472 0.49655
vt 0.03511 0.25043
vt 0.59747 0.40907
vt 0.59625 0.30230
vt 0.62176 0.33759
vt 0.42350 0.65595
vt 0.42312 0.74612
vt 0.26507 0.74627
vt 0.26215 0.49150
vt 0.25976 0.23776
vt 0.54244 0.31303
vt 0.25976 0.23776
vt 0.56413 0.23778
vt 0.56413 0.28964
vt 0.54244 0.31303
vt 0.25976 0.23776
vt 0.56413 0.28964
vt 0.54244 0.31303
vt 0.56413 0.50081
vt 0.40453 0.49154
vt 0.56413 0.50081
vt 0.44268 0.50077
vt 0.40453 0.49154
vt 0.32334 0.11934
vt 0.34258 0.12676
vt 0.01156 0.12680
vt 0.43427 0.45582
vt 0.41465 0.45591
vt 0.41424 0.43428
vt 0.55491 0.03637
vt 0.56871 0.02396
vt 0.57179 0.21445
vt 0.55751 0.20410
vt 0.57179 0.21445
vt 0.45845 0.21104
vt 0.42312 0.64193
vt 0.42350 0.65595
vt 0.26561 0.65370
vt 0.42312 0.62194
vt 0.42312 0.64193
vt 0.26507 0.64208
vt 0.74419 0.50487
vt 0.74419 0.22694
vt 0.63577 0.50010
vt 0.74419 0.22694
vt 0.65100 0.22257
vt 0.63577 0.50010
vt 0.73341 0.03054
vt 0.73298 0.03927
vt 0.71449 0.04142
vt 0.73298 0.03927
vt 0.73119 0.07515
vt 0.71601 0.06533
vt 0.71449 0.04142
vt 0.73298 0.03927
vt 0.71601 0.06533
vt 0.73119 0.07515
vt 0.72929 0.11329
vt 0.71254 0.08820
vt 0.72929 0.11329
vt 0.70118 0.10945
vt 0.71254 0.08820
vt 0.70509 0.01588
vt 0.73341 0.03054
vt 0.71449 0.04142
vt 0.70912 0.21966
vt 0.68364 0.20580
vt 0.69743 0.18861
vt 0.70912 0.21966
vt 0.69743 0.18861
vt 0.70454 0.16989
vt 0.70648 0.14997
vt 0.70175 0.12851
vt 0.72518 0.14437
vt 0.70912 0.21966
vt 0.70454 0.16989
vt 0.72518 0.14437
vt 0.62912 0.20938
vt 0.74293 0.20938
vt 0.73894 0.22422
vt 0.33995 0.42383
vt 0.35265 0.43527
vt 0.33337 0.43539
vt 0.30906 0.42424
vt 0.33391 0.42391
vt 0.33337 0.43539
vt 0.63683 0.04121
vt 0.66047 0.05720
vt 0.65341 0.06656
vt 0.72293 0.97167
vt 0.72306 0.98367
vt 0.70080 0.98367
vt 0.70080 0.98367
vt 0.62765 0.98364
vt 0.62166 0.97500
vt 0.66047 0.05720
vt 0.68724 0.07470
vt 0.68117 0.08260
vt 0.70068 0.08328
vt 0.70251 0.09474
vt 0.68117 0.08260
vt 0.28264 0.42460
vt 0.30906 0.42424
vt 0.30852 0.43569
vt 0.63139 0.10410
vt 0.63368 0.09731
vt 0.68851 0.09916
vt 0.68851 0.09916
vt 0.70371 0.09967
vt 0.70730 0.10734
vt 0.35950 0.42951
vt 0.40999 0.42870
vt 0.41424 0.43428
vt 0.68827 0.17342
vt 0.63230 0.17288
vt 0.62852 0.16741
vt 0.59747 0.40907
vt 0.59149 0.40581
vt 0.59132 0.38280
vt 0.59132 0.38280
vt 0.59078 0.30962
vt 0.59625 0.30230
vt 0.62166 0.97500
vt 0.62542 0.97021
vt 0.69478 0.96824
vt 0.69478 0.96824
vt 0.71596 0.96764
vt 0.72293 0.97167
vt 0.33337 0.43539
vt 0.35265 0.43527
vt 0.35290 0.45706
vt 0.35290 0.45706
vt 0.25866 0.45721
vt 0.30852 0.43569
vt 0.25866 0.45721
vt 0.25907 0.43468
vt 0.27374 0.43609
vt 0.27374 0.43609
vt 0.30852 0.43569
vt 0.25866 0.45721
vt 0.41465 0.45591
vt 0.35290 0.45706
vt 0.35265 0.43527
vt 0.61639 0.13859
vt 0.69941 0.10952
vt 0.61545 0.09528
vt 0.69941 0.10952
vt 0.71087 0.08680
vt 0.61646 0.03522
vt 0.61545 0.09528
vt 0.69941 0.10952
vt 0.61646 0.03522
vt 0.71087 0.08680
vt 0.71456 0.06417
vt 0.61646 0.03522
vt 0.71456 0.06417
vt 0.71334 0.04159
vt 0.70434 0.01910
vt 0.70434 0.01910
vt 0.61742 0.01320
vt 0.61646 0.03522
vt 0.60912 0.21053
vt 0.68384 0.20360
vt 0.62236 0.12595
vt 0.68384 0.20360
vt 0.69676 0.18805
vt 0.70120 0.12832
vt 0.62236 0.12595
vt 0.68384 0.20360
vt 0.70120 0.12832
vt 0.69676 0.18805
vt 0.70349 0.17015
vt 0.70120 0.12832
vt 0.68241 0.18085
vt 0.63539 0.18040
vt 0.63230 0.17288
vt 0.64087 0.98297
vt 0.63599 0.97605
vt 0.71128 0.97605
vt 0.59881 0.32699
vt 0.60568 0.32267
vt 0.60568 0.39244
vt 0.69364 0.07176
vt 0.69568 0.08340
vt 0.68827 0.08616
vt 0.64751 0.03555
vt 0.66643 0.04834
vt 0.66047 0.05720
vt 0.66643 0.04834
vt 0.69304 0.06573
vt 0.68724 0.07470
vt 0.70290 0.07201
vt 0.70068 0.08328
vt 0.68724 0.07470
vt 0.68511 0.09111
vt 0.68851 0.09916
vt 0.63368 0.09731
vt 0.35115 0.29285
vt 0.36143 0.30070
vt 0.29208 0.33834
vt 0.68343 0.05236
vt 0.67930 0.03790
vt 0.69114 0.03290
vt 0.68700 0.08009
vt 0.68578 0.06637
vt 0.69817 0.06576
vt 0.68644 0.09336
vt 0.68700 0.08009
vt 0.69966 0.08167
vt 0.68578 0.06637
vt 0.68343 0.05236
vt 0.69555 0.04956
vt 0.69364 0.05007
vt 0.69308 0.06069
vt 0.68567 0.05916
vt 0.69568 0.04002
vt 0.69364 0.05007
vt 0.68624 0.04640
vt 0.69308 0.06069
vt 0.69364 0.07176
vt 0.68624 0.07237
vt 0.61727 0.72778
vt 0.38105 0.72809
vt 0.38105 0.81558
vt 0.61229 0.71866
vt 0.43851 0.71859
vt 0.43900 0.82820
vt 0.03198 0.00982
vt 0.03177 0.11586
vt 0.32334 0.11934
vt 0.61611 0.81610
vt 0.61551 0.74623
vt 0.52228 0.82188
vt 0.61551 0.74623
vt 0.44163 0.74623
vt 0.52228 0.82188
vt 0.44163 0.74623
vt 0.44163 0.82933
vt 0.46115 0.82803
vt 0.89214 0.01462
vt 0.71918 0.00982
vt 0.71918 0.29577
vt 0.64991 0.37986
vt 0.65125 0.49847
vt 0.72972 0.49825
vt 0.45082 0.90193
vt 0.43888 0.90193
vt 0.44984 0.99386
vt 0.43888 0.90193
vt 0.43789 0.99386
vt 0.44984 0.99386
vt 0.44984 0.99386
vt 0.55486 0.99386
vt 0.55502 0.97956
vt 0.55502 0.97956
vt 0.55578 0.90189
vt 0.45082 0.90193
vt 0.26906 0.73962
vt 0.59101 0.73962
vt 0.57521 0.72272
vt 0.61344 0.99882
vt 0.43769 0.99811
vt 0.43841 0.92021
vt 0.43841 0.92021
vt 0.43844 0.90585
vt 0.61622 0.95584
vt 0.43844 0.90585
vt 0.61729 0.94153
vt 0.61622 0.95584
vt 0.70779 0.95927
vt 0.66467 0.96009
vt 0.68359 0.98677
vt 0.66467 0.96009
vt 0.65030 0.96043
vt 0.65507 0.98862
vt 0.68359 0.98677
vt 0.66467 0.96009
vt 0.65507 0.98862
vt 0.65030 0.96043
vt 0.64635 0.98894
vt 0.65507 0.98862
vt 0.28657 0.49353
vt 0.31254 0.49353
vt 0.26859 0.47079
vt 0.31254 0.49353
vt 0.54079 0.49349
vt 0.55884 0.47083
vt 0.34258 0.12676
vt 0.01156 0.12680
vt 0.03511 0.25043
vt 0.01156 0.12680
vt 0.00982 0.23729
vt 0.03511 0.25043
vt 0.03511 0.25043
vt 0.03472 0.49655
vt 0.29921 0.49655
vt 0.29921 0.49655
vt 0.32929 0.49655
vt 0.34258 0.12676
vt 0.62176 0.33759
vt 0.59625 0.30230
vt 0.59747 0.40907
vt 0.26507 0.74627
vt 0.42312 0.74612
vt 0.42350 0.65595
vt 0.56413 0.23778
vt 0.25976 0.23776
vt 0.56413 0.28964
vt 0.25976 0.23776
vt 0.26215 0.49150
vt 0.54244 0.31303
vt 0.40453 0.49154
vt 0.44268 0.50077
vt 0.56413 0.50081
vt 0.25976 0.23776
vt 0.54244 0.31303
vt 0.56413 0.28964
vt 0.26215 0.49150
vt 0.40453 0.49154
vt 0.54244 0.31303
vt 0.01156 0.12680
vt 0.34258 0.12676
vt 0.32334 0.11934
vt 0.43427 0.45582
vt 0.45850 0.43473
vt 0.41424 0.43428
vt 0.57179 0.21445
vt 0.56871 0.02396
vt 0.55491 0.03637
vt 0.45845 0.21104
vt 0.57179 0.21445
vt 0.55751 0.20410
vt 0.26561 0.65370
vt 0.42350 0.65595
vt 0.42312 0.64193
vt 0.26507 0.64208
vt 0.42312 0.64193
vt 0.42312 0.62194
vt 0.65100 0.22257
vt 0.74419 0.22694
vt 0.63577 0.50010
vt 0.74419 0.22694
vt 0.74419 0.50487
vt 0.63577 0.50010
vt 0.73119 0.07515
vt 0.73298 0.03927
vt 0.71601 0.06533
vt 0.73298 0.03927
vt 0.73341 0.03054
vt 0.71449 0.04142
vt 0.71601 0.06533
vt 0.73298 0.03927
vt 0.71449 0.04142
vt 0.73341 0.03054
vt 0.70509 0.01588
vt 0.71449 0.04142
vt 0.72929 0.11329
vt 0.73119 0.07515
vt 0.71254 0.08820
vt 0.71254 0.08820
vt 0.73119 0.07515
vt 0.71601 0.06533
vt 0.72518 0.14437
vt 0.70175 0.12851
vt 0.70648 0.14997
vt 0.72518 0.14437
vt 0.70648 0.14997
vt 0.70454 0.16989
vt 0.69743 0.18861
vt 0.68364 0.20580
vt 0.70912 0.21966
vt 0.72518 0.14437
vt 0.70454 0.16989
vt 0.70912 0.21966
vt 0.62912 0.20938
vt 0.62860 0.21811
vt 0.73894 0.22422
vt 0.33337 0.43539
vt 0.35265 0.43527
vt 0.33995 0.42383
vt 0.30906 0.42424
vt 0.30852 0.43569
vt 0.33337 0.43539
vt 0.63683 0.04121
vt 0.62373 0.04366
vt 0.65341 0.06656
vt 0.70080 0.98367
vt 0.72306 0.98367
vt 0.72293 0.97167
vt 0.72293 0.97167
vt 0.62166 0.97500
vt 0.70080 0.98367
vt 0.66047 0.05720
vt 0.65341 0.06656
vt 0.68117 0.08260
vt 0.68117 0.08260
vt 0.70251 0.09474
vt 0.70068 0.08328
vt 0.28264 0.42460
vt 0.27374 0.43609
vt 0.30852 0.43569
vt 0.68851 0.09916
vt 0.63368 0.09731
vt 0.63139 0.10410
vt 0.63139 0.10410
vt 0.70730 0.10734
vt 0.68851 0.09916
vt 0.35950 0.42951
vt 0.35265 0.43527
vt 0.41424 0.43428
vt 0.68827 0.17342
vt 0.69600 0.16741
vt 0.62852 0.16741
vt 0.59132 0.38280
vt 0.59149 0.40581
vt 0.59747 0.40907
vt 0.59747 0.40907
vt 0.59625 0.30230
vt 0.59132 0.38280
vt 0.69478 0.96824
vt 0.62542 0.97021
vt 0.62166 0.97500
vt 0.62166 0.97500
vt 0.72293 0.97167
vt 0.69478 0.96824
vt 0.35290 0.45706
vt 0.35265 0.43527
vt 0.33337 0.43539
vt 0.33337 0.43539
vt 0.30852 0.43569
vt 0.35290 0.45706
vt 0.30852 0.43569
vt 0.27374 0.43609
vt 0.25866 0.45721
vt 0.27374 0.43609
vt 0.25907 0.43468
vt 0.25866 0.45721
vt 0.35265 0.43527
vt 0.35290 0.45706
vt 0.41465 0.45591
vt 0.71087 0.08680
vt 0.69941 0.10952
vt 0.61646 0.03522
vt 0.69941 0.10952
vt 0.61639 0.13859
vt 0.61545 0.09528
vt 0.61545 0.09528
vt 0.61646 0.03522
vt 0.69941 0.10952
vt 0.71456 0.06417
vt 0.61646 0.03522
vt 0.70434 0.01910
vt 0.61646 0.03522
vt 0.61742 0.01320
vt 0.70434 0.01910
vt 0.70434 0.01910
vt 0.71334 0.04159
vt 0.71456 0.06417
vt 0.69676 0.18805
vt 0.68384 0.20360
vt 0.70120 0.12832
vt 0.68384 0.20360
vt 0.60912 0.21053
vt 0.62236 0.12595
vt 0.62236 0.12595
vt 0.70120 0.12832
vt 0.68384 0.20360
vt 0.69676 0.18805
vt 0.70120 0.12832
vt 0.70349 0.17015
vt 0.68241 0.18085
vt 0.68827 0.17342
vt 0.63230 0.17288
vt 0.71128 0.97605
vt 0.63599 0.97605
vt 0.64087 0.98297
vt 0.60568 0.39244
vt 0.60568 0.32267
vt 0.59881 0.32699
vt 0.69364 0.07176
vt 0.68624 0.07237
vt 0.68827 0.08616
vt 0.64751 0.03555
vt 0.63683 0.04121
vt 0.66047 0.05720
vt 0.66643 0.04834
vt 0.66047 0.05720
vt 0.68724 0.07470
vt 0.68724 0.07470
vt 0.70068 0.08328
vt 0.70290 0.07201
vt 0.63368 0.09731
vt 0.68851 0.09916
vt 0.68511 0.09111
vt 0.29208 0.33834
vt 0.36143 0.30070
vt 0.35115 0.29285
vt 0.68343 0.05236
vt 0.69555 0.04956
vt 0.69114 0.03290
vt 0.68700 0.08009
vt 0.69966 0.08167
vt 0.69817 0.06576
vt 0.68644 0.09336
vt 0.69938 0.09713
vt 0.69966 0.08167
vt 0.68578 0.06637
vt 0.69817 0.06576
vt 0.69555 0.04956
vt 0.69364 0.05007
vt 0.68624 0.04640
vt 0.68567 0.05916
vt 0.69568 0.04002
vt 0.68827 0.03420
vt 0.68624 0.04640
vt 0.69308 0.06069
vt 0.68567 0.05916
vt 0.68624 0.07237
vn -1.00000 -0.00000 -0.00000
vn -1.00000 -0.00000 -0.00000
vn -1.00000 -0.00000 -0.00000
vn 0.00000 -0.03340 0.99944
vn 0.00000 -0.03340 0.99944
vn 0.00000 -0.03340 0.99944
vn 0.99999 -0.00530 -0.00000
vn 0.99999 -0.00530 -0.00000
vn 0.99999 -0.00530 -0.00000
vn 0.00000 -0.00000 -1.00000
vn 0.00000 -0.00000 -1.00000
vn 0.00000 -0.00000 -1.00000
vn 0.00000 1.00000 -0.00000
vn 0.00000 1.00000 -0.00000
vn 0.00000 1.00000 -0.00000
vn 0.00600 -0.99998 -0.00140
vn 0.00600 -0.99998 -0.00140
vn 0.00600 -0.99998 -0.00140
vn 0.00010 -1.00000 -0.00020
vn 0.00010 -1.00000 -0.00020
vn 0.00010 -1.00000 -0.00020
vn 0.81530 -0.12130 -0.56620
vn 0.81530 -0.12130 -0.56620
vn 0.81530 -0.12130 -0.56620
vn -0.00000 -0.00040 -1.00000
vn -0.00000 -0.00040 -1.00000
vn -0.00000 -0.00040 -1.00000
vn -0.02250 -0.88851 -0.45831
vn -0.02250 -0.88851 -0.45831
vn -0.02250 -0.88851 -0.45831
vn 0.49309 -0.86998 -0.00120
vn 0.49309 -0.86998 -0.00120
vn 0.49309 -0.86998 -0.00120
vn 0.99999 -0.00530 -0.00000
vn 0.99999 -0.00530 -0.00000
vn 0.99999 -0.00530 -0.00000
vn 0.00000 -0.00000 -1.00000
vn 0.00000 -0.00000 -1.00000
vn 0.00000 -0.00000 -1.00000
vn -0.99869 0.05120 -0.00080
vn -0.99869 0.05120 -0.00080
vn -0.99869 0.05120 -0.00080
vn 0.00000 -0.06590 0.99783
vn 0.00000 -0.06590 0.99783
vn 0.00000 -0.06590 0.99783
vn 0.99890 0.04670 0.00460
vn 0.99890 0.04670 0.00460
vn 0.99890 0.04670 0.00460
vn -0.04430 0.95419 -0.29590
vn -0.04430 0.95419 -0.29590
vn -0.04430 0.95419 -0.29590
vn -0.33939 0.93918 -0.05240
vn -0.33939 0.93918 -0.05240
vn -0.33939 0.93918 -0.05240
vn 0.00760 0.93365 0.35812
vn 0.00760 0.93365 0.35812
vn 0.00760 0.93365 0.35812
vn -0.92470 -0.38070 -0.00000
vn -0.92470 -0.38070 -0.00000
vn -0.92470 -0.38070 -0.00000
vn -1.00000 -0.00000 -0.00000
vn -1.00000 -0.00000 -0.00000
vn -1.00000 -0.00000 -0.00000
vn 0.06150 -0.00200 -0.99811
vn 0.06150 -0.00200 -0.99811
vn 0.06150 -0.00200 -0.99811
vn 0.00610 0.00000 -0.99998
vn 0.00610 0.00000 -0.99998
vn 0.00610 0.00000 -0.99998
vn 0.00000 -0.00000 -1.00000
vn 0.00000 -0.00000 -1.00000
vn 0.00000 -0.00000 -1.00000
vn -0.05390 0.01400 -0.99845
vn -0.05390 0.01400 -0.99845
vn -0.05390 0.01400 -0.99845
vn -0.08700 0.88520 -0.45700
vn -0.08700 0.88520 -0.45700
vn -0.08700 0.88520 -0.45700
vn -0.08330 0.88949 -0.44930
vn -0.08330 0.88949 -0.44930
vn -0.08330 0.88949 -0.44930
vn 0.02000 -0.93228 -0.36119
vn 0.02000 -0.93228 -0.36119
vn 0.02000 -0.93228 -0.36119
vn -0.62992 0.13730 -0.76443
vn -0.62992 0.13730 -0.76443
vn -0.62992 0.13730 -0.76443
vn 0.05630 -0.94100 -0.33370
vn 0.05630 -0.94100 -0.33370
vn 0.05630 -0.94100 -0.33370
vn 0.09140 -0.93749 -0.33580
vn 0.09140 -0.93749 -0.33580
vn 0.09140 -0.93749 -0.33580
vn -0.08380 0.89369 -0.44079
vn -0.08380 0.89369 -0.44079
vn -0.08380 0.89369 -0.44079
vn 0.75427 0.05490 -0.65427
vn 0.75427 0.05490 -0.65427
vn 0.75427 0.05490 -0.65427
vn -0.08880 0.61231 -0.78561
vn -0.08880 0.61231 -0.78561
vn -0.08880 0.61231 -0.78561
vn -0.00160 -0.65512 -0.75552
vn -0.00160 -0.65512 -0.75552
vn -0.00160 -0.65512 -0.75552
vn -0.57939 0.16880 -0.79738
vn -0.57939 0.16880 -0.79738
vn -0.57939 0.16880 -0.79738
vn 0.64249 -0.13510 -0.75429
vn 0.64249 -0.13510 -0.75429
vn 0.64249 -0.13510 -0.75429
vn -0.09000 0.94608 -0.31119
vn -0.09000 0.94608 -0.31119
vn -0.09000 0.94608 -0.31119
vn -0.13480 0.92998 -0.34199
vn -0.13480 0.92998 -0.34199
vn -0.13480 0.92998 -0.34199
vn 0.00720 0.00210 -0.99997
vn 0.00720 0.00210 -0.99997
vn 0.00720 0.00210 -0.99997
vn 0.00000 -0.00000 -1.00000
vn 0.00000 -0.00000 -1.00000
vn 0.00000 -0.00000 -1.00000
vn 0.00970 -0.84333 -0.53732
vn 0.00970 -0.84333 -0.53732
vn 0.00970 -0.84333 -0.53732
vn 0.82391 -0.18020 -0.53731
vn 0.82391 -0.18020 -0.53731
vn 0.82391 -0.18020 -0.53731
vn -0.80771 0.24270 -0.53731
vn -0.80771 0.24270 -0.53731
vn -0.80771 0.24270 -0.53731
vn -0.49710 0.69789 -0.51560
vn -0.49710 0.69789 -0.51560
vn -0.49710 0.69789 -0.51560
vn 0.00870 -0.91444 -0.40462
vn 0.00870 -0.91444 -0.40462
vn 0.00870 -0.91444 -0.40462
vn 0.05610 -0.91296 -0.40418
vn 0.05610 -0.91296 -0.40418
vn 0.05610 -0.91296 -0.40418
vn 0.08840 -0.91043 -0.40411
vn 0.08840 -0.91043 -0.40411
vn 0.08840 -0.91043 -0.40411
vn 0.91340 0.05520 -0.40330
vn 0.91340 0.05520 -0.40330
vn 0.91340 0.05520 -0.40330
vn -0.88780 0.22010 -0.40420
vn -0.88780 0.22010 -0.40420
vn -0.88780 0.22010 -0.40420
vn -0.48990 0.77030 -0.40820
vn -0.48990 0.77030 -0.40820
vn -0.48990 0.77030 -0.40820
vn 0.01550 0.90389 -0.42749
vn 0.01550 0.90389 -0.42749
vn 0.01550 0.90389 -0.42749
vn 0.32930 0.78681 -0.52201
vn 0.32930 0.78681 -0.52201
vn 0.32930 0.78681 -0.52201
vn -0.21129 0.89437 -0.39429
vn -0.21129 0.89437 -0.39429
vn -0.21129 0.89437 -0.39429
vn 0.03630 0.81017 -0.58508
vn 0.03630 0.81017 -0.58508
vn 0.03630 0.81017 -0.58508
vn 0.29930 0.63440 -0.71271
vn 0.29930 0.63440 -0.71271
vn 0.29930 0.63440 -0.71271
vn -0.23611 0.82774 -0.50902
vn -0.23611 0.82774 -0.50902
vn -0.23611 0.82774 -0.50902
vn 1.00000 -0.00000 -0.00000
vn 1.00000 -0.00000 -0.00000
vn 1.00000 -0.00000 -0.00000
vn -0.02110 -0.00000 0.99978
vn -0.02110 -0.00000 0.99978
vn -0.02110 -0.00000 0.99978
vn -0.99999 -0.00530 -0.00000
vn -0.99999 -0.00530 -0.00000
vn -0.99999 -0.00530 -0.00000
vn -0.00070 0.00010 -1.00000
vn -0.00070 0.00010 -1.00000
vn -0.00070 0.00010 -1.00000
vn 0.00000 1.00000 -0.00000
vn 0.00000 1.00000 -0.00000
vn 0.00000 1.00000 -0.00000
vn 0.00000 -1.00000 0.00000
vn 0.00000 -1.00000 0.00000
vn 0.00000 -1.00000 0.00000
vn -0.00010 -1.00000 -0.00020
vn -0.00010 -1.00000 -0.00020
vn -0.00010 -1.00000 -0.00020
vn -0.81530 -0.12130 -0.56620
vn -0.81530 -0.12130 -0.56620
vn -0.81530 -0.12130 -0.56620
vn 0.01140 -0.00040 -0.99993
vn 0.01140 -0.00040 -0.99993
vn 0.01140 -0.00040 -0.99993
vn -0.04240 -0.86997 -0.49128
vn -0.04240 -0.86997 -0.49128
vn -0.04240 -0.86997 -0.49128
vn -0.49309 -0.86998 -0.00120
vn -0.49309 -0.86998 -0.00120
vn -0.49309 -0.86998 -0.00120
vn -0.99999 -0.00530 -0.00000
vn -0.99999 -0.00530 -0.00000
vn -0.99999 -0.00530 -0.00000
vn 0.00000 -0.00000 -1.00000
vn 0.00000 -0.00000 -1.00000
vn 0.00000 -0.00000 -1.00000
vn 0.99869 0.05120 -0.00080
vn 0.99869 0.05120 -0.00080
vn 0.99869 0.05120 -0.00080
vn -0.16580 -0.00850 0.98612
vn -0.16580 -0.00850 0.98612
vn -0.16580 -0.00850 0.98612
vn -0.99890 0.04670 0.00460
vn -0.99890 0.04670 0.00460
vn -0.99890 0.04670 0.00460
vn 0.09470 0.93502 -0.34171
vn 0.09470 0.93502 -0.34171
vn 0.09470 0.93502 -0.34171
vn 0.33939 0.93918 -0.05240
vn 0.33939 0.93918 -0.05240
vn 0.33939 0.93918 -0.05240
vn -0.00760 0.93365 0.35812
vn -0.00760 0.93365 0.35812
vn -0.00760 0.93365 0.35812
vn 0.92470 -0.38070 -0.00000
vn 0.92470 -0.38070 -0.00000
vn 0.92470 -0.38070 -0.00000
vn 1.00000 -0.00000 -0.00000
vn 1.00000 -0.00000 -0.00000
vn 1.00000 -0.00000 -0.00000
vn -0.06150 -0.00200 -0.99811
vn -0.06150 -0.00200 -0.99811
vn -0.06150 -0.00200 -0.99811
vn -0.00740 0.00330 -0.99997
vn -0.00740 0.00330 -0.99997
vn -0.00740 0.00330 -0.99997
vn 0.00000 -0.00000 -1.00000
vn 0.00000 -0.00000 -1.00000
vn 0.00000 -0.00000 -1.00000
vn 0.01520 0.01120 -0.99982
vn 0.01520 0.01120 -0.99982
vn 0.01520 0.01120 -0.99982
vn 0.08700 0.88520 -0.45700
vn 0.08700 0.88520 -0.45700
vn 0.08700 0.88520 -0.45700
vn 0.08700 0.88520 -0.45700
vn 0.08700 0.88520 -0.45700
vn 0.08700 0.88520 -0.45700
vn -0.00900 -0.94171 -0.33630
vn -0.00900 -0.94171 -0.33630
vn -0.00900 -0.94171 -0.33630
vn 0.70369 0.17390 -0.68889
vn 0.70369 0.17390 -0.68889
vn 0.70369 0.17390 -0.68889
vn -0.05770 -0.93923 -0.33841
vn -0.05770 -0.93923 -0.33841
vn -0.05770 -0.93923 -0.33841
vn -0.09140 -0.93749 -0.33580
vn -0.09140 -0.93749 -0.33580
vn -0.09140 -0.93749 -0.33580
vn 0.08750 0.88919 -0.44909
vn 0.08750 0.88919 -0.44909
vn 0.08750 0.88919 -0.44909
vn -0.76628 0.04700 -0.64078
vn -0.76628 0.04700 -0.64078
vn -0.76628 0.04700 -0.64078
vn 0.08880 0.61231 -0.78561
vn 0.08880 0.61231 -0.78561
vn 0.08880 0.61231 -0.78561
vn -0.00680 -0.59131 -0.80641
vn -0.00680 -0.59131 -0.80641
vn -0.00680 -0.59131 -0.80641
vn 0.62009 0.18630 -0.76209
vn 0.62009 0.18630 -0.76209
vn 0.62009 0.18630 -0.76209
vn -0.66019 -0.14440 -0.73709
vn -0.66019 -0.14440 -0.73709
vn -0.66019 -0.14440 -0.73709
vn 0.08880 0.94698 -0.30879
vn 0.08880 0.94698 -0.30879
vn 0.08880 0.94698 -0.30879
vn 0.13480 0.92998 -0.34199
vn 0.13480 0.92998 -0.34199
vn 0.13480 0.92998 -0.34199
vn -0.00610 0.00180 -0.99998
vn -0.00610 0.00180 -0.99998
vn -0.00610 0.00180 -0.99998
vn 0.00000 -0.00000 -1.00000
vn 0.00000 -0.00000 -1.00000
vn 0.00000 -0.00000 -1.00000
vn -0.00970 -0.84333 -0.53732
vn -0.00970 -0.84333 -0.53732
vn -0.00970 -0.84333 -0.53732
vn -0.82391 -0.18020 -0.53731
vn -0.82391 -0.18020 -0.53731
vn -0.82391 -0.18020 -0.53731
vn 0.80771 0.24270 -0.53731
vn 0.80771 0.24270 -0.53731
vn 0.80771 0.24270 -0.53731
vn 0.50790 0.61240 -0.60580
vn 0.50790 0.61240 -0.60580
vn 0.50790 0.61240 -0.60580
vn -0.00850 -0.91464 -0.40417
vn -0.00850 -0.91464 -0.40417
vn -0.00850 -0.91464 -0.40417
vn -0.05610 -0.91299 -0.40410
vn -0.05610 -0.91299 -0.40410
vn -0.05610 -0.91299 -0.40410
vn -0.08840 -0.91043 -0.40411
vn -0.08840 -0.91043 -0.40411
vn -0.08840 -0.91043 -0.40411
vn -0.91340 0.05520 -0.40330
vn -0.91340 0.05520 -0.40330
vn -0.91340 0.05520 -0.40330
vn 0.88780 0.22010 -0.40420
vn 0.88780 0.22010 -0.40420
vn 0.88780 0.22010 -0.40420
vn 0.51411 0.71591 -0.47241
vn 0.51411 0.71591 -0.47241
vn 0.51411 0.71591 -0.47241
vn -0.03400 0.91177 -0.40929
vn -0.03400 0.91177 -0.40929
vn -0.03400 0.91177 -0.40929
vn -0.39800 0.79349 -0.46040
vn -0.39800 0.79349 -0.46040
vn -0.39800 0.79349 -0.46040
vn 0.22580 0.88230 -0.41300
vn 0.22580 0.88230 -0.41300
vn 0.22580 0.88230 -0.41300
vn -0.06400 0.82766 -0.55757
vn -0.06400 0.82766 -0.55757
vn -0.06400 0.82766 -0.55757
vn -0.38641 0.65622 -0.64812
vn -0.38641 0.65622 -0.64812
vn -0.38641 0.65622 -0.64812
vn 0.25490 0.80180 -0.54050
vn 0.25490 0.80180 -0.54050
vn 0.25490 0.80180 -0.54050
vn -1.00000 -0.00000 -0.00000
vn -1.00000 -0.00000 -0.00000
vn -1.00000 -0.00000 -0.00000
vn 0.02110 -0.00000 0.99978
vn 0.02110 -0.00000 0.99978
vn 0.02110 -0.00000 0.99978
vn 0.99998 0.00560 0.00410
vn 0.99998 0.00560 0.00410
vn 0.99998 0.00560 0.00410
vn -0.00000 -0.00040 -1.00000
vn -0.00000 -0.00040 -1.00000
vn -0.00000 -0.00040 -1.00000
vn -0.00090 0.00040 -1.00000
vn -0.00090 0.00040 -1.00000
vn -0.00090 0.00040 -1.00000
vn 0.00070 0.00010 -1.00000
vn 0.00070 0.00010 -1.00000
vn 0.00070 0.00010 -1.00000
vn 0.00000 1.00000 -0.00000
vn 0.00000 1.00000 -0.00000
vn 0.00000 1.00000 -0.00000
vn -0.00000 -1.00000 0.00000
vn -0.00000 -1.00000 0.00000
vn -0.00000 -1.00000 0.00000
vn 0.00650 -0.99998 0.00170
vn 0.00650 -0.99998 0.00170
vn 0.00650 -0.99998 0.00170
vn -0.00290 -1.00000 -0.00000
vn -0.00290 -1.00000 -0.00000
vn -0.00290 -1.00000 -0.00000
vn 0.00000 -1.00000 0.00000
vn 0.00000 -1.00000 0.00000
vn 0.00000 -1.00000 0.00000
vn 0.00010 -1.00000 0.00040
vn 0.00010 -1.00000 0.00040
vn 0.00010 -1.00000 0.00040
vn 0.73791 -0.12290 -0.66361
vn 0.73791 -0.12290 -0.66361
vn 0.73791 -0.12290 -0.66361
vn -0.00000 0.00160 -1.00000
vn -0.00000 0.00160 -1.00000
vn -0.00000 0.00160 -1.00000
vn -0.01150 -0.00110 -0.99993
vn -0.01150 -0.00110 -0.99993
vn -0.01150 -0.00110 -0.99993
vn -0.01140 -0.00040 -0.99993
vn -0.01140 -0.00040 -0.99993
vn -0.01140 -0.00040 -0.99993
vn 0.07450 -0.87737 -0.47399
vn 0.07450 -0.87737 -0.47399
vn 0.07450 -0.87737 -0.47399
vn 0.06290 -0.87713 -0.47612
vn 0.06290 -0.87713 -0.47612
vn 0.06290 -0.87713 -0.47612
vn 0.04240 -0.86997 -0.49128
vn 0.04240 -0.86997 -0.49128
vn 0.04240 -0.86997 -0.49128
vn 0.06440 -0.87653 -0.47702
vn 0.06440 -0.87653 -0.47702
vn 0.06440 -0.87653 -0.47702
vn 0.46789 -0.88378 0.00150
vn 0.46789 -0.88378 0.00150
vn 0.46789 -0.88378 0.00150
vn 0.49538 -0.86867 0.00040
vn 0.49538 -0.86867 0.00040
vn 0.49538 -0.86867 0.00040
vn 0.99236 0.00510 0.12329
vn 0.99236 0.00510 0.12329
vn 0.99236 0.00510 0.12329
vn 0.99982 -0.01810 0.00510
vn 0.99982 -0.01810 0.00510
vn 0.99982 -0.01810 0.00510
vn 0.99999 -0.00530 -0.00000
vn 0.99999 -0.00530 -0.00000
vn 0.99999 -0.00530 -0.00000
vn 0.99999 -0.00540 -0.00000
vn 0.99999 -0.00540 -0.00000
vn 0.99999 -0.00540 -0.00000
vn 0.00820 -0.00590 -0.99995
vn 0.00820 -0.00590 -0.99995
vn 0.00820 -0.00590 -0.99995
vn -0.99863 0.05230 -0.00000
vn -0.99863 0.05230 -0.00000
vn -0.99863 0.05230 -0.00000
vn 0.04650 -0.03360 0.99835
vn 0.04650 -0.03360 0.99835
vn 0.04650 -0.03360 0.99835
vn 0.02450 -0.00000 0.99970
vn 0.02450 -0.00000 0.99970
vn 0.02450 -0.00000 0.99970
vn 0.02110 0.00870 0.99974
vn 0.02110 0.00870 0.99974
vn 0.02110 0.00870 0.99974
vn 0.16580 -0.00850 0.98612
vn 0.16580 -0.00850 0.98612
vn 0.16580 -0.00850 0.98612
vn 0.00000 0.78053 0.62512
vn 0.00000 0.78053 0.62512
vn 0.00000 0.78053 0.62512
vn 0.99972 0.02310 0.00510
vn 0.99972 0.02310 0.00510
vn 0.99972 0.02310 0.00510
vn -0.09470 0.93502 -0.34171
vn -0.09470 0.93502 -0.34171
vn -0.09470 0.93502 -0.34171
vn -0.26111 0.96415 -0.04730
vn -0.26111 0.96415 -0.04730
vn -0.26111 0.96415 -0.04730
vn 0.00850 0.93712 0.34891
vn 0.00850 0.93712 0.34891
vn 0.00850 0.93712 0.34891
vn -0.94716 -0.32069 0.00700
vn -0.94716 -0.32069 0.00700
vn -0.94716 -0.32069 0.00700
vn -1.00000 -0.00000 -0.00000
vn -1.00000 -0.00000 -0.00000
vn -1.00000 -0.00000 -0.00000
vn -0.00000 0.00130 -1.00000
vn -0.00000 0.00130 -1.00000
vn -0.00000 0.00130 -1.00000
vn -0.01060 -0.00120 -0.99994
vn -0.01060 -0.00120 -0.99994
vn -0.01060 -0.00120 -0.99994
vn 0.00920 -0.00380 -0.99995
vn 0.00920 -0.00380 -0.99995
vn 0.00920 -0.00380 -0.99995
vn 0.00890 -0.00100 -0.99996
vn 0.00890 -0.00100 -0.99996
vn 0.00890 -0.00100 -0.99996
vn 0.00710 -0.00440 -0.99997
vn 0.00710 -0.00440 -0.99997
vn 0.00710 -0.00440 -0.99997
vn 0.00860 0.00220 -0.99996
vn 0.00860 0.00220 -0.99996
vn 0.00860 0.00220 -0.99996
vn 0.00740 0.00330 -0.99997
vn 0.00740 0.00330 -0.99997
vn 0.00740 0.00330 -0.99997
vn 0.00870 -0.00420 -0.99995
vn 0.00870 -0.00420 -0.99995
vn 0.00870 -0.00420 -0.99995
vn 0.00000 -0.00000 -1.00000
vn 0.00000 -0.00000 -1.00000
vn 0.00000 -0.00000 -1.00000
vn 0.00000 -0.00000 -1.00000
vn 0.00000 -0.00000 -1.00000
vn 0.00000 -0.00000 -1.00000
vn 0.00000 -0.00000 -1.00000
vn 0.00000 -0.00000 -1.00000
vn 0.00000 -0.00000 -1.00000
vn 0.00000 -0.00000 -1.00000
vn 0.00000 -0.00000 -1.00000
vn 0.00000 -0.00000 -1.00000
vn -0.01520 0.01120 -0.99982
vn -0.01520 0.01120 -0.99982
vn -0.01520 0.01120 -0.99982
vn -0.14221 0.89203 -0.42902
vn -0.14221 0.89203 -0.42902
vn -0.14221 0.89203 -0.42902
vn -0.08700 0.88520 -0.45700
vn -0.08700 0.88520 -0.45700
vn -0.08700 0.88520 -0.45700
vn 0.00900 -0.94171 -0.33630
vn 0.00900 -0.94171 -0.33630
vn 0.00900 -0.94171 -0.33630
vn -0.60700 0.14960 -0.78050
vn -0.60700 0.14960 -0.78050
vn -0.60700 0.14960 -0.78050
vn -0.70369 0.17390 -0.68889
vn -0.70369 0.17390 -0.68889
vn -0.70369 0.17390 -0.68889
vn 0.05770 -0.93923 -0.33841
vn 0.05770 -0.93923 -0.33841
vn 0.05770 -0.93923 -0.33841
vn 0.07600 -0.93023 -0.35901
vn 0.07600 -0.93023 -0.35901
vn 0.07600 -0.93023 -0.35901
vn -0.08750 0.88919 -0.44909
vn -0.08750 0.88919 -0.44909
vn -0.08750 0.88919 -0.44909
vn 0.71699 0.04420 -0.69569
vn 0.71699 0.04420 -0.69569
vn 0.71699 0.04420 -0.69569
vn 0.76628 0.04700 -0.64078
vn 0.76628 0.04700 -0.64078
vn 0.76628 0.04700 -0.64078
vn -0.08880 0.61231 -0.78561
vn -0.08880 0.61231 -0.78561
vn -0.08880 0.61231 -0.78561
vn 0.00680 -0.59131 -0.80641
vn 0.00680 -0.59131 -0.80641
vn 0.00680 -0.59131 -0.80641
vn -0.56393 0.16951 -0.80824
vn -0.56393 0.16951 -0.80824
vn -0.56393 0.16951 -0.80824
vn -0.62009 0.18630 -0.76209
vn -0.62009 0.18630 -0.76209
vn -0.62009 0.18630 -0.76209
vn 0.59131 -0.12930 -0.79601
vn 0.59131 -0.12930 -0.79601
vn 0.59131 -0.12930 -0.79601
vn 0.66019 -0.14440 -0.73709
vn 0.66019 -0.14440 -0.73709
vn 0.66019 -0.14440 -0.73709
vn -0.14590 0.92167 -0.35949
vn -0.14590 0.92167 -0.35949
vn -0.14590 0.92167 -0.35949
vn -0.08880 0.94698 -0.30879
vn -0.08880 0.94698 -0.30879
vn -0.08880 0.94698 -0.30879
vn 0.16911 0.87044 -0.46232
vn 0.16911 0.87044 -0.46232
vn 0.16911 0.87044 -0.46232
vn -0.09020 0.94778 -0.30589
vn -0.09020 0.94778 -0.30589
vn -0.09020 0.94778 -0.30589
vn -0.14040 0.92249 -0.35959
vn -0.14040 0.92249 -0.35959
vn -0.14040 0.92249 -0.35959
vn -0.00060 -0.00220 -1.00000
vn -0.00060 -0.00220 -1.00000
vn -0.00060 -0.00220 -1.00000
vn 0.00550 0.00160 -0.99998
vn 0.00550 0.00160 -0.99998
vn 0.00550 0.00160 -0.99998
vn 0.00010 -0.00220 -1.00000
vn 0.00010 -0.00220 -1.00000
vn 0.00010 -0.00220 -1.00000
vn 0.00610 0.00180 -0.99998
vn 0.00610 0.00180 -0.99998
vn 0.00610 0.00180 -0.99998
vn 0.00660 -0.00000 -0.99998
vn 0.00660 -0.00000 -0.99998
vn 0.00660 -0.00000 -0.99998
vn -0.00120 0.00310 -0.99999
vn -0.00120 0.00310 -0.99999
vn -0.00120 0.00310 -0.99999
vn 0.00000 -0.00000 -1.00000
vn 0.00000 -0.00000 -1.00000
vn 0.00000 -0.00000 -1.00000
vn 0.00000 -0.00000 -1.00000
vn 0.00000 -0.00000 -1.00000
vn 0.00000 -0.00000 -1.00000
vn 0.00000 -0.00000 -1.00000
vn 0.00000 -0.00000 -1.00000
vn 0.00000 -0.00000 -1.00000
vn 0.00000 -0.00000 -1.00000
vn 0.00000 -0.00000 -1.00000
vn 0.00000 -0.00000 -1.00000
vn 0.00970 -0.84333 -0.53732
vn 0.00970 -0.84333 -0.53732
vn 0.00970 -0.84333 -0.53732
vn 0.82391 -0.18020 -0.53731
vn 0.82391 -0.18020 -0.53731
vn 0.82391 -0.18020 -0.53731
vn -0.80771 0.24270 -0.53731
vn -0.80771 0.24270 -0.53731
vn -0.80771 0.24270 -0.53731
vn -0.50790 0.61240 -0.60580
vn -0.50790 0.61240 -0.60580
vn -0.50790 0.61240 -0.60580
vn 0.00850 -0.91464 -0.40417
vn 0.00850 -0.91464 -0.40417
vn 0.00850 -0.91464 -0.40417
vn 0.05610 -0.91299 -0.40410
vn 0.05610 -0.91299 -0.40410
vn 0.05610 -0.91299 -0.40410
vn 0.08870 -0.91053 -0.40381
vn 0.08870 -0.91053 -0.40381
vn 0.08870 -0.91053 -0.40381
vn 0.91301 0.05500 -0.40421
vn 0.91301 0.05500 -0.40421
vn 0.91301 0.05500 -0.40421
vn -0.88740 0.22020 -0.40500
vn -0.88740 0.22020 -0.40500
vn -0.88740 0.22020 -0.40500
vn -0.51411 0.71591 -0.47241
vn -0.51411 0.71591 -0.47241
vn -0.51411 0.71591 -0.47241
vn 0.03400 0.91177 -0.40929
vn 0.03400 0.91177 -0.40929
vn 0.03400 0.91177 -0.40929
vn 0.39800 0.79349 -0.46040
vn 0.39800 0.79349 -0.46040
vn 0.39800 0.79349 -0.46040
vn -0.22580 0.88230 -0.41300
vn -0.22580 0.88230 -0.41300
vn -0.22580 0.88230 -0.41300
vn 0.06400 0.82766 -0.55757
vn 0.06400 0.82766 -0.55757
vn 0.06400 0.82766 -0.55757
vn 0.38641 0.65622 -0.64812
vn 0.38641 0.65622 -0.64812
vn 0.38641 0.65622 -0.64812
vn -0.25490 0.80180 -0.54050
vn -0.25490 0.80180 -0.54050
vn -0.25490 0.80180 -0.54050
vn 1.00000 -0.00000 -0.00000
vn 1.00000 -0.00000 -0.00000
vn 1.00000 -0.00000 -0.00000
vn 0.00000 -0.03340 0.99944
vn 0.00000 -0.03340 0.99944
vn 0.00000 -0.03340 0.99944
vn -0.99998 0.00560 0.00410
vn -0.99998 0.00560 0.00410
vn -0.99998 0.00560 0.00410
vn 0.00090 0.00040 -1.00000
vn 0.00090 0.00040 -1.00000
vn 0.00090 0.00040 -1.00000
vn -0.00000 -0.00040 -1.00000
vn -0.00000 -0.00040 -1.00000
vn -0.00000 -0.00040 -1.00000
vn 0.00000 -0.00000 -1.00000
vn 0.00000 -0.00000 -1.00000
vn 0.00000 -0.00000 -1.00000
vn 0.00000 1.00000 -0.00000
vn 0.00000 1.00000 -0.00000
vn 0.00000 1.00000 -0.00000
vn -0.00600 -0.99998 -0.00140
vn -0.00600 -0.99998 -0.00140
vn -0.00600 -0.99998 -0.00140
vn -0.00010 -1.00000 0.00040
vn -0.00010 -1.00000 0.00040
vn -0.00010 -1.00000 0.00040
vn -0.00000 -1.00000 0.00000
vn -0.00000 -1.00000 0.00000
vn -0.00000 -1.00000 0.00000
vn 0.00290 -1.00000 -0.00000
vn 0.00290 -1.00000 -0.00000
vn 0.00290 -1.00000 -0.00000
vn -0.00650 -0.99998 0.00170
vn -0.00650 -0.99998 0.00170
vn -0.00650 -0.99998 0.00170
vn -0.73791 -0.12290 -0.66361
vn -0.73791 -0.12290 -0.66361
vn -0.73791 -0.12290 -0.66361
vn -0.00000 0.00160 -1.00000
vn -0.00000 0.00160 -1.00000
vn -0.00000 0.00160 -1.00000
vn -0.00000 -0.00040 -1.00000
vn -0.00000 -0.00040 -1.00000
vn -0.00000 -0.00040 -1.00000
vn 0.01150 -0.00110 -0.99993
vn 0.01150 -0.00110 -0.99993
vn 0.01150 -0.00110 -0.99993
vn -0.06290 -0.87713 -0.47612
vn -0.06290 -0.87713 -0.47612
vn -0.06290 -0.87713 -0.47612
vn -0.07450 -0.87737 -0.47399
vn -0.07450 -0.87737 -0.47399
vn -0.07450 -0.87737 -0.47399
vn -0.06440 -0.87653 -0.47702
vn -0.06440 -0.87653 -0.47702
vn -0.06440 -0.87653 -0.47702
vn 0.02250 -0.88851 -0.45831
vn 0.02250 -0.88851 -0.45831
vn 0.02250 -0.88851 -0.45831
vn -0.49538 -0.86867 0.00040
vn -0.49538 -0.86867 0.00040
vn -0.49538 -0.86867 0.00040
vn -0.46789 -0.88378 0.00150
vn -0.46789 -0.88378 0.00150
vn -0.46789 -0.88378 0.00150
vn -0.99982 -0.01810 0.00510
vn -0.99982 -0.01810 0.00510
vn -0.99982 -0.01810 0.00510
vn -0.99236 0.00510 0.12329
vn -0.99236 0.00510 0.12329
vn -0.99236 0.00510 0.12329
vn -0.99999 -0.00540 -0.00000
vn -0.99999 -0.00540 -0.00000
vn -0.99999 -0.00540 -0.00000
vn -0.99999 -0.00530 -0.00000
vn -0.99999 -0.00530 -0.00000
vn -0.99999 -0.00530 -0.00000
vn -0.00820 -0.00590 -0.99995
vn -0.00820 -0.00590 -0.99995
vn -0.00820 -0.00590 -0.99995
vn 0.99863 0.05230 -0.00000
vn 0.99863 0.05230 -0.00000
vn 0.99863 0.05230 -0.00000
vn -0.02450 -0.00000 0.99970
vn -0.02450 -0.00000 0.99970
vn -0.02450 -0.00000 0.99970
vn -0.04650 -0.03360 0.99835
vn -0.04650 -0.03360 0.99835
vn -0.04650 -0.03360 0.99835
vn 0.00000 0.78053 0.62512
vn 0.00000 0.78053 0.62512
vn 0.00000 0.78053 0.62512
vn -0.02110 0.00870 0.99974
vn -0.02110 0.00870 0.99974
vn -0.02110 0.00870 0.99974
vn 0.00000 -0.06590 0.99783
vn 0.00000 -0.06590 0.99783
vn 0.00000 -0.06590 0.99783
vn -0.99972 0.02310 0.00510
vn -0.99972 0.02310 0.00510
vn -0.99972 0.02310 0.00510
vn 0.04430 0.95419 -0.29590
vn 0.04430 0.95419 -0.29590
vn 0.04430 0.95419 -0.29590
vn 0.26111 0.96415 -0.04730
vn 0.26111 0.96415 -0.04730
vn 0.26111 0.96415 -0.04730
vn -0.00850 0.93712 0.34891
vn -0.00850 0.93712 0.34891
vn -0.00850 0.93712 0.34891
vn 0.94716 -0.32069 0.00700
vn 0.94716 -0.32069 0.00700
vn 0.94716 -0.32069 0.00700
vn 1.00000 -0.00000 -0.00000
vn 1.00000 -0.00000 -0.00000
vn 1.00000 -0.00000 -0.00000
vn 0.01060 -0.00120 -0.99994
vn 0.01060 -0.00120 -0.99994
vn 0.01060 -0.00120 -0.99994
vn -0.00000 0.00130 -1.00000
vn -0.00000 0.00130 -1.00000
vn -0.00000 0.00130 -1.00000
vn -0.00890 -0.00100 -0.99996
vn -0.00890 -0.00100 -0.99996
vn -0.00890 -0.00100 -0.99996
vn -0.00920 -0.00380 -0.99995
vn -0.00920 -0.00380 -0.99995
vn -0.00920 -0.00380 -0.99995
vn -0.00710 -0.00440 -0.99997
vn -0.00710 -0.00440 -0.99997
vn -0.00710 -0.00440 -0.99997
vn -0.00870 -0.00420 -0.99995
vn -0.00870 -0.00420 -0.99995
vn -0.00870 -0.00420 -0.99995
vn -0.00860 0.00220 -0.99996
vn -0.00860 0.00220 -0.99996
vn -0.00860 0.00220 -0.99996
vn -0.00610 0.00000 -0.99998
vn -0.00610 0.00000 -0.99998
vn -0.00610 0.00000 -0.99998
vn 0.00000 -0.00000 -1.00000
vn 0.00000 -0.00000 -1.00000
vn 0.00000 -0.00000 -1.00000
vn 0.00000 -0.00000 -1.00000
vn 0.00000 -0.00000 -1.00000
vn 0.00000 -0.00000 -1.00000
vn 0.00000 -0.00000 -1.00000
vn 0.00000 -0.00000 -1.00000
vn 0.00000 -0.00000 -1.00000
vn 0.00000 -0.00000 -1.00000
vn 0.00000 -0.00000 -1.00000
vn 0.00000 -0.00000 -1.00000
vn 0.05390 0.01400 -0.99845
vn 0.05390 0.01400 -0.99845
vn 0.05390 0.01400 -0.99845
vn 0.14221 0.89203 -0.42902
vn 0.14221 0.89203 -0.42902
vn 0.14221 0.89203 -0.42902
vn 0.08330 0.88949 -0.44930
vn 0.08330 0.88949 -0.44930
vn 0.08330 0.88949 -0.44930
vn -0.02000 -0.93228 -0.36119
vn -0.02000 -0.93228 -0.36119
vn -0.02000 -0.93228 -0.36119
vn 0.60700 0.14960 -0.78050
vn 0.60700 0.14960 -0.78050
vn 0.60700 0.14960 -0.78050
vn 0.62992 0.13730 -0.76443
vn 0.62992 0.13730 -0.76443
vn 0.62992 0.13730 -0.76443
vn -0.05630 -0.94100 -0.33370
vn -0.05630 -0.94100 -0.33370
vn -0.05630 -0.94100 -0.33370
vn -0.07600 -0.93023 -0.35901
vn -0.07600 -0.93023 -0.35901
vn -0.07600 -0.93023 -0.35901
vn 0.08380 0.89369 -0.44079
vn 0.08380 0.89369 -0.44079
vn 0.08380 0.89369 -0.44079
vn -0.71699 0.04420 -0.69569
vn -0.71699 0.04420 -0.69569
vn -0.71699 0.04420 -0.69569
vn -0.75427 0.05490 -0.65427
vn -0.75427 0.05490 -0.65427
vn -0.75427 0.05490 -0.65427
vn 0.08880 0.61231 -0.78561
vn 0.08880 0.61231 -0.78561
vn 0.08880 0.61231 -0.78561
vn 0.00160 -0.65512 -0.75552
vn 0.00160 -0.65512 -0.75552
vn 0.00160 -0.65512 -0.75552
vn 0.56393 0.16951 -0.80824
vn 0.56393 0.16951 -0.80824
vn 0.56393 0.16951 -0.80824
vn 0.57939 0.16880 -0.79738
vn 0.57939 0.16880 -0.79738
vn 0.57939 0.16880 -0.79738
vn -0.59131 -0.12930 -0.79601
vn -0.59131 -0.12930 -0.79601
vn -0.59131 -0.12930 -0.79601
vn -0.64249 -0.13510 -0.75429
vn -0.64249 -0.13510 -0.75429
vn -0.64249 -0.13510 -0.75429
vn 0.14590 0.92167 -0.35949
vn 0.14590 0.92167 -0.35949
vn 0.14590 0.92167 -0.35949
vn 0.09000 0.94608 -0.31119
vn 0.09000 0.94608 -0.31119
vn 0.09000 0.94608 -0.31119
vn 0.09020 0.94778 -0.30589
vn 0.09020 0.94778 -0.30589
vn 0.09020 0.94778 -0.30589
vn -0.16911 0.87044 -0.46232
vn -0.16911 0.87044 -0.46232
vn -0.16911 0.87044 -0.46232
vn 0.14040 0.92249 -0.35959
vn 0.14040 0.92249 -0.35959
vn 0.14040 0.92249 -0.35959
vn -0.00550 0.00160 -0.99998
vn -0.00550 0.00160 -0.99998
vn -0.00550 0.00160 -0.99998
vn 0.00060 -0.00220 -1.00000
vn 0.00060 -0.00220 -1.00000
vn 0.00060 -0.00220 -1.00000
vn -0.00010 -0.00220 -1.00000
vn -0.00010 -0.00220 -1.00000
vn -0.00010 -0.00220 -1.00000
vn -0.00720 0.00210 -0.99997
vn -0.00720 0.00210 -0.99997
vn -0.00720 0.00210 -0.99997
vn 0.00120 0.00310 -0.99999
vn 0.00120 0.00310 -0.99999
vn 0.00120 0.00310 -0.99999
vn -0.00660 -0.00000 -0.99998
vn -0.00660 -0.00000 -0.99998
vn -0.00660 -0.00000 -0.99998
vn 0.00000 -0.00000 -1.00000
vn 0.00000 -0.00000 -1.00000
vn 0.00000 -0.00000 -1.00000
vn 0.00000 -0.00000 -1.00000
vn 0.00000 -0.00000 -1.00000
vn 0.00000 -0.00000 -1.00000
vn 0.00000 -0.00000 -1.00000
vn 0.00000 -0.00000 -1.00000
vn 0.00000 -0.00000 -1.00000
vn 0.00000 -0.00000 -1.00000
vn 0.00000 -0.00000 -1.00000
vn 0.00000 -0.00000 -1.00000
vn -0.00970 -0.84333 -0.53732
vn -0.00970 -0.84333 -0.53732
vn -0.00970 -0.84333 -0.53732
vn -0.82391 -0.18020 -0.53731
vn -0.82391 -0.18020 -0.53731
vn -0.82391 -0.18020 -0.53731
vn 0.80771 0.24270 -0.53731
vn 0.80771 0.24270 -0.53731
vn 0.80771 0.24270 -0.53731
vn 0.49710 0.69789 -0.51560
vn 0.49710 0.69789 -0.51560
vn 0.49710 0.69789 -0.51560
vn -0.00870 -0.91444 -0.40462
vn -0.00870 -0.91444 -0.40462
vn -0.00870 -0.91444 -0.40462
vn -0.05610 -0.91296 -0.40418
vn -0.05610 -0.91296 -0.40418
vn -0.05610 -0.91296 -0.40418
vn -0.08870 -0.91053 -0.40381
vn -0.08870 -0.91053 -0.40381
vn -0.08870 -0.91053 -0.40381
vn -0.91301 0.05500 -0.40421
vn -0.91301 0.05500 -0.40421
vn -0.91301 0.05500 -0.40421
vn 0.88740 0.22020 -0.40500
vn 0.88740 0.22020 -0.40500
vn 0.88740 0.22020 -0.40500
vn 0.48990 0.77030 -0.40820
vn 0.48990 0.77030 -0.40820
vn 0.48990 0.77030 -0.40820
vn -0.01550 0.90389 -0.42749
vn -0.01550 0.90389 -0.42749
vn -0.01550 0.90389 -0.42749
vn -0.32930 0.78681 -0.52201
vn -0.32930 0.78681 -0.52201
vn -0.32930 0.78681 -0.52201
vn 0.21129 0.89437 -0.39429
vn 0.21129 0.89437 -0.39429
vn 0.21129 0.89437 -0.39429
vn -0.03630 0.81017 -0.58508
vn -0.03630 0.81017 -0.58508
vn -0.03630 0.81017 -0.58508
vn -0.29930 0.63440 -0.71271
vn -0.29930 0.63440 -0.71271
vn -0.29930 0.63440 -0.71271
vn 0.23611 0.82774 -0.50902
vn 0.23611 0.82774 -0.50902
vn 0.23611 0.82774 -0.50902
f 1/1/1 2/2/2 3/3/3
f 4/4/4 5/5/5 6/6/6
f 7/7/7 8/8/8 9/9/9
f 10/10/10 11/11/11 12/12/12
f 13/13/13 14/14/14 15/15/15
f 16/16/16 17/17/17 18/18/18
f 19/19/19 20/20/20 21/21/21
f 22/22/22 23/23/23 24/24/24
f 25/25/25 26/26/26 27/27/27
f 28/28/28 29/29/29 30/30/30
f 31/31/31 32/32/32 33/33/33
f 34/34/34 35/35/35 36/36/36
f 37/37/37 38/38/38 39/39/39
f 40/40/40 41/41/41 42/42/42
f 43/43/43 44/44/44 45/45/45
f 46/46/46 47/47/47 48/48/48
f 49/49/49 50/50/50 51/51/51
f 52/52/52 53/53/53 54/54/54
f 55/55/55 56/56/56 57/57/57
f 58/58/58 59/59/59 60/60/60
f 61/61/61 62/62/62 63/63/63
f 64/64/64 65/65/65 66/66/66
f 67/67/67 68/68/68 69/69/69
f 70/70/70 71/71/71 72/72/72
f 73/73/73 74/74/74 75/75/75
f 76/76/76 77/77/77 78/78/78
f 79/79/79 80/80/80 81/81/81
f 82/82/82 83/83/83 84/84/84
f 85/85/85 86/86/86 87/87/87
f 88/88/88 89/89/89 90/90/90
f 91/91/91 92/92/92 93/93/93
f 94/94/94 95/95/95 96/96/96
f 97/97/97 98/98/98 99/99/99
f 100/100/100 101/101/101 102/102/102
f 103/103/103 104/104/104 105/105/105
f 106/106/106 107/107/107 108/108/108
f 109/109/109 110/110/110 111/111/111
f 112/112/112 113/113/113 114/114/114
f 115/115/115 116/116/116 117/117/117
f 118/118/118 119/119/119 120/120/120
f 121/121/121 122/122/122 123/123/123
f 124/124/124 125/125/125 126/126/126
f 127/127/127 128/128/128 129/129/129
f 130/130/130 131/131/131 132/132/132
f 133/133/133 134/134/134 135/135/135
f 136/136/136 137/137/137 138/138/138
f 139/139/139 140/140/140 141/141/141
f 142/142/142 143/143/143 144/144/144
f 145/145/145 146/146/146 147/147/147
f 148/148/148 149/149/149 150/150/150
f 151/151/151 152/152/152 153/153/153
f 154/154/154 155/155/155 156/156/156
f 157/157/157 158/158/158 159/159/159
f 160/160/160 161/161/161 162/162/162
f 163/163/163 164/164/164 165/165/165
f 166/166/166 167/167/167 168/168/168
f 169/169/169 170/170/170 171/171/171
f 172/172/172 173/173/173 174/174/174
f 175/175/175 176/176/176 177/177/177
f 178/178/178 179/179/179 180/180/180
f 181/181/181 182/182/182 183/183/183
f 184/184/184 185/185/185 186/186/186
f 187/187/187 188/188/188 189/189/189
f 190/190/190 191/191/191 192/192/192
f 193/193/193 194/194/194 195/195/195
f 196/196/196 197/197/197 198/198/198
f 199/199/199 200/200/200 201/201/201
f 202/202/202 203/203/203 204/204/204
f 205/205/205 206/206/206 207/207/207
f 208/208/208 209/209/209 210/210/210
f 211/211/211 212/212/212 213/213/213
f 214/214/214 215/215/215 216/216/216
f 217/217/217 218/218/218 219/219/219
f 220/220/220 221/221/221 222/222/222
f 223/223/223 224/224/224 225/225/225
f 226/226/226 227/227/227 228/228/228
f 229/229/229 230/230/230 231/231/231
f 232/232/232 233/233/233 234/234/234
f 235/235/235 236/236/236 237/237/237
f 238/238/238 239/239/239 240/240/240
f 241/241/241 242/242/242 243/243/243
f 244/244/244 245/245/245 246/246/246
f 247/247/247 248/248/248 249/249/249
f 250/250/250 251/251/251 252/252/252
f 253/253/253 254/254/254 255/255/255
f 256/256/256 257/257/257 258/258/258
f 259/259/259 260/260/260 261/261/261
f 262/262/262 263/263/263 264/264/264
f 265/265/265 266/266/266 267/267/267
f 268/268/268 269/269/269 270/270/270
f 271/271/271 272/272/272 273/273/273
f 274/274/274 275/275/275 276/276/276
f 277/277/277 278/278/278 279/279/279
f 280/280/280 281/281/281 282/282/282
f 283/283/283 284/284/284 285/285/285
f 286/286/286 287/287/287 288/288/288
f 289/289/289 290/290/290 291/291/291
f 292/292/292 293/293/293 294/294/294
f 295/295/295 296/296/296 297/297/297
f 298/298/298 299/299/299 300/300/300
f 301/301/301 302/302/302 303/303/303
f 304/304/304 305/305/305 306/306/306
f 307/307/307 308/308/308 309/309/309
f 310/310/310 311/311/311 312/312/312
f 313/313/313 314/314/314 315/315/315
f 316/316/316 317/317/317 318/318/318
f 319/319/319 320/320/320 321/321/321
f 322/322/322 323/323/323 324/324/324
f 325/325/325 326/326/326 327/327/327
f 328/328/328 329/329/329 330/330/330
f 331/331/331 332/332/332 333/333/333
f 334/334/334 335/335/335 336/336/336
f 337/337/337 338/338/338 339/339/339
f 340/340/340 341/341/341 342/342/342
f 343/343/343 344/344/344 345/345/345
f 346/346/346 347/347/347 348/348/348
f 349/349/349 350/350/350 351/351/351
f 352/352/352 353/353/353 354/354/354
f 355/355/355 356/356/356 357/357/357
f 358/358/358 359/359/359 360/360/360
f 361/361/361 362/362/362 363/363/363
f 364/364/364 365/365/365 366/366/366
f 367/367/367 368/368/368 369/369/369
f 370/370/370 371/371/371 372/372/372
f 373/373/373 374/374/374 375/375/375
f 376/376/376 377/377/377 378/378/378
f 379/379/379 380/380/380 381/381/381
f 382/382/382 383/383/383 384/384/384
f 385/385/385 386/386/386 387/387/387
f 388/388/388 389/389/389 390/390/390
f 391/391/391 392/392/392 393/393/393
f 394/394/394 395/395/395 396/396/396
f 397/397/397 398/398/398 399/399/399
f 400/400/400 401/401/401 402/402/402
f 403/403/403 404/404/404 405/405/405
f 406/406/406 407/407/407 408/408/408
f 409/409/409 410/410/410 411/411/411
f 412/412/412 413/413/413 414/414/414
f 415/415/415 416/416/416 417/417/417
f 418/418/418 419/419/419 420/420/420
f 421/421/421 422/422/422 423/423/423
f 424/424/424 425/425/425 426/426/426
f 427/427/427 428/428/428 429/429/429
f 430/430/430 431/431/431 432/432/432
f 433/433/433 434/434/434 435/435/435
f 436/436/436 437/437/437 438/438/438
f 439/439/439 440/440/440 441/441/441
f 442/442/442 443/443/443 444/444/444
f 445/445/445 446/446/446 447/447/447
f 448/448/448 449/449/449 450/450/450
f 451/451/451 452/452/452 453/453/453
f 454/454/454 455/455/455 456/456/456
f 457/457/457 458/458/458 459/459/459
f 460/460/460 461/461/461 462/462/462
f 463/463/463 464/464/464 465/465/465
f 466/466/466 467/467/467 468/468/468
f 469/469/469 470/470/470 471/471/471
f 472/472/472 473/473/473 474/474/474
f 475/475/475 476/476/476 477/477/477
f 478/478/478 479/479/479 480/480/480
f 481/481/481 482/482/482 483/483/483
f 484/484/484 485/485/485 486/486/486
f 487/487/487 488/488/488 489/489/489
f 490/490/490 491/491/491 492/492/492
f 493/493/493 494/494/494 495/495/495
f 496/496/496 497/497/497 498/498/498
f 499/499/499 500/500/500 501/501/501
f 502/502/502 503/503/503 504/504/504
f 505/505/505 506/506/506 507/507/507
f 508/508/508 509/509/509 510/510/510
f 511/511/511 512/512/512 513/513/513
f 514/514/514 515/515/515 516/516/516
f 517/517/517 518/518/518 519/519/519
f 520/520/520 521/521/521 522/522/522
f 523/523/523 524/524/524 525/525/525
f 526/526/526 527/527/527 528/528/528
f 529/529/529 530/530/530 531/531/531
f 532/532/532 533/533/533 534/534/534
f 535/535/535 536/536/536 537/537/537
f 538/538/538 539/539/539 540/540/540
f 541/541/541 542/542/542 543/543/543
f 544/544/544 545/545/545 546/546/546
f 547/547/547 548/548/548 549/549/549
f 550/550/550 551/551/551 552/552/552
f 553/553/553 554/554/554 555/555/555
f 556/556/556 557/557/557 558/558/558
f 559/559/559 560/560/560 561/561/561
f 562/562/562 563/563/563 564/564/564
f 565/565/565 566/566/566 567/567/567
f 568/568/568 569/569/569 570/570/570
f 571/571/571 572/572/572 573/573/573
f 574/574/574 575/575/575 576/576/576
f 577/577/577 578/578/578 579/579/579
f 580/580/580 581/581/581 582/582/582
f 583/583/583 584/584/584 585/585/585
f 586/586/586 587/587/587 588/588/588
f 589/589/589 590/590/590 591/591/591
f 592/592/592 593/593/593 594/594/594
f 595/595/595 596/596/596 597/597/597
f 598/598/598 599/599/599 600/600/600
f 601/601/601 602/602/602 603/603/603
f 604/604/604 605/605/605 606/606/606
f 607/607/607 608/608/608 609/609/609
f 610/610/610 611/611/611 612/612/612
f 613/613/613 614/614/614 615/615/615
f 616/616/616 617/617/617 618/618/618
f 619/619/619 620/620/620 621/621/621
f 622/622/622 623/623/623 624/624/624
f 625/625/625 626/626/626 627/627/627
f 628/628/628 629/629/629 630/630/630
f 631/631/631 632/632/632 633/633/633
f 634/634/634 635/635/635 636/636/636
f 637/637/637 638/638/638 639/639/639
f 640/640/640 641/641/641 642/642/642
f 643/643/643 644/644/644 645/645/645
f 646/646/646 647/647/647 648/648/648
f 649/649/649 650/650/650 651/651/651
f 652/652/652 653/653/653 654/654/654
f 655/655/655 656/656/656 657/657/657
f 658/658/658 659/659/659 660/660/660
f 661/661/661 662/662/662 663/663/663
f 664/664/664 665/665/665 666/666/666
f 667/667/667 668/668/668 669/669/669
f 670/670/670 671/671/671 672/672/672
f 673/673/673 674/674/674 675/675/675
f 676/676/676 677/677/677 678/678/678
f 679/679/679 680/680/680 681/681/681
f 682/682/682 683/683/683 684/684/684
f 685/685/685 686/686/686 687/687/687
f 688/688/688 689/689/689 690/690/690
f 691/691/691 692/692/692 693/693/693
f 694/694/694 695/695/695 696/696/696
f 697/697/697 698/698/698 699/699/699
f 700/700/700 701/701/701 702/702/702
f 703/703/703 704/704/704 705/705/705
f 706/706/706 707/707/707 708/708/708
f 709/709/709 710/710/710 711/711/711
f 712/712/712 713/713/713 714/714/714
f 715/715/715 716/716/716 717/717/717
f 718/718/718 719/719/719 720/720/720
f 721/721/721 722/722/722 723/723/723
f 724/724/724 725/725/725 726/726/726
f 727/727/727 728/728/728 729/729/729
f 730/730/730 731/731/731 732/732/732
f 733/733/733 734/734/734 735/735/735
f 736/736/736 737/737/737 738/738/738
f 739/739/739 740/740/740 741/741/741
f 742/742/742 743/743/743 744/744/744
f 745/745/745 746/746/746 747/747/747
f 748/748/748 749/749/749 750/750/750
f 751/751/751 752/752/752 753/753/753
f 754/754/754 755/755/755 756/756/756
f 757/757/757 758/758/758 759/759/759
f 760/760/760 761/761/761 762/762/762
f 763/763/763 764/764/764 765/765/765
f 766/766/766 767/767/767 768/768/768
f 769/769/769 770/770/770 771/771/771
f 772/772/772 773/773/773 774/774/774
f 775/775/775 776/776/776 777/777/777
f 778/778/778 779/779/779 780/780/780
f 781/781/781 782/782/782 783/783/783
f 784/784/784 785/785/785 786/786/786
f 787/787/787 788/788/788 789/789/789
f 790/790/790 791/791/791 792/792/792
f 793/793/793 794/794/794 795/795/795
f 796/796/796 797/797/797 798/798/798
f 799/799/799 800/800/800 801/801/801
f 802/802/802 803/803/803 804/804/804
f 805/805/805 806/806/806 807/807/807
f 808/808/808 809/809/809 810/810/810
f 811/811/811 812/812/812 813/813/813
f 814/814/814 815/815/815 816/816/816
f 817/817/817 818/818/818 819/819/819
f 820/820/820 821/821/821 822/822/822
f 823/823/823 824/824/824 825/825/825
f 826/826/826 827/827/827 828/828/828
f 829/829/829 830/830/830 831/831/831
f 832/832/832 833/833/833 834/834/834
f 835/835/835 836/836/836 837/837/837
f 838/838/838 839/839/839 840/840/840
f 841/841/841 842/842/842 843/843/843
f 844/844/844 845/845/845 846/846/846
f 847/847/847 848/848/848 849/849/849
f 850/850/850 851/851/851 852/852/852
f 853/853/853 854/854/854 855/855/855
f 856/856/856 857/857/857 858/858/858
f 859/859/859 860/860/860 861/861/861
f 862/862/862 863/863/863 864/864/864
f 865/865/865 866/866/866 867/867/867
f 868/868/868 869/869/869 870/870/870
f 871/871/871 872/872/872 873/873/873
f 874/874/874 875/875/875 876/876/876
f 877/877/877 878/878/878 879/879/879
f 880/880/880 881/881/881 882/882/882
f 883/883/883 884/884/884 885/885/885
f 886/886/886 887/887/887 888/888/888
f 889/889/889 890/890/890 891/891/891
f 892/892/892 893/893/893 894/894/894
f 895/895/895 896/896/896 897/897/897
f 898/898/898 899/899/899 900/900/900
f 901/901/901 902/902/902 903/903/903
f 904/904/904 905/905/905 906/906/906
f 907/907/907 908/908/908 909/909/909
f 910/910/910 911/911/911 912/912/912
f 913/913/913 914/914/914 915/915/915
f 916/916/916 917/917/917 918/918/918
f 919/919/919 920/920/920 921/921/921
f 922/922/922 923/923/923 924/924/924
f 925/925/925 926/926/926 927/927/927
f 928/928/928 929/929/929 930/930/930
f 931/931/931 932/932/932 933/933/933
f 934/934/934 935/935/935 936/936/936
