# STALKER Armor converted geometry (MC model units, pivot-relative)
v -4.75000 -8.75000 -4.67858
v -4.75000 0.75000 4.75000
v -4.75000 0.75000 -4.67858
v -4.75000 -8.75000 4.75000
v 0.00000 0.75000 4.75000
v -4.75000 0.75000 4.75000
v -4.09248 -6.19642 -4.67858
v -4.09306 -6.19642 -3.94254
v -3.74925 -6.19642 -3.94255
v -4.09248 0.75000 4.09742
v 0.00000 0.75000 4.09742
v 0.00000 -8.09248 4.09742
v -4.09248 -8.09248 -4.67858
v -4.09248 0.75000 -4.67858
v -4.09248 0.75000 4.09742
v -4.75000 -8.75000 4.75000
v 0.00000 -8.75000 -4.67858
v 0.00000 -8.75000 4.75000
v -4.09248 0.75000 4.09742
v -4.75000 0.75000 -4.67858
v -4.75000 0.75000 4.75000
v -4.09248 -8.09248 -4.67858
v -4.75000 0.75000 -4.67858
v -4.09248 0.75000 -4.67858
v -4.09248 0.75000 4.09742
v 0.00000 0.75000 4.75000
v 0.00000 0.75000 4.09742
v -4.09248 -8.09248 -4.67858
v 0.00000 -8.75000 -4.67858
v -4.75000 -8.75000 -4.67858
v -4.09306 -8.09248 -3.94254
v -4.09248 0.75000 4.09742
v -4.09935 -8.09248 4.09742
v 0.00000 -8.09248 4.09742
v -4.09935 -8.09248 4.09742
v -4.09248 0.75000 4.09742
v -4.09306 -8.09248 -3.94254
v -4.09248 -6.19642 -4.67858
v -4.09248 -8.09248 -4.67858
v -4.09248 -8.09248 -4.67858
v 0.00000 -6.19642 -4.67858
v 0.00000 -8.09248 -4.67858
v 0.00000 -8.09248 -3.94255
v -3.74925 -8.09248 -3.94255
v 0.00000 -8.09248 4.09742
v -3.74925 -8.09248 -3.94255
v -4.09935 -8.09248 4.09742
v 0.00000 -8.09248 4.09742
v -3.74925 -8.09248 -3.94255
v -4.09306 -6.19642 -3.94254
v -4.09306 -8.09248 -3.94254
v 0.00000 -8.09248 -3.94255
v -3.74925 -6.19642 -3.94255
v -3.74925 -8.09248 -3.94255
v -3.96439 -6.00474 -5.14993
v -3.55187 -3.24179 -4.20707
v -3.55187 -3.24179 -5.14993
v 0.01287 -6.09179 -4.20707
v 0.01287 -4.07035 -4.20707
v -1.25276 -3.15778 -4.20707
v -3.50819 -5.62021 -4.87469
v -3.21014 -3.62398 -4.87469
v -1.38972 -3.55747 -4.87469
v 0.01287 -4.07035 -4.20707
v -1.25276 -3.15778 -5.14993
v -1.25276 -3.15778 -4.20707
v -3.96439 -6.00474 -4.20707
v 0.01287 -6.09179 -5.14993
v 0.01287 -6.09179 -4.20707
v -1.25276 -3.15778 -4.20707
v -3.55187 -3.24179 -5.14993
v -3.55187 -3.24179 -4.20707
v -3.70483 -5.78596 -5.14993
v -3.55187 -3.24179 -5.14993
v -3.35744 -3.45924 -5.14993
v -1.33068 -3.38518 -5.14993
v 0.01287 -4.07035 -5.14993
v 0.01107 -4.32166 -5.14993
v -3.70483 -5.78596 -5.14993
v 0.01287 -6.09179 -5.14993
v -3.96439 -6.00474 -5.14993
v -3.35744 -3.45924 -5.14993
v -1.25276 -3.15778 -5.14993
v -1.33068 -3.38518 -5.14993
v -3.50819 -5.62021 -4.87469
v -3.35744 -3.45924 -5.14993
v -3.21014 -3.62398 -4.87469
v -1.38972 -3.55747 -4.87469
v 0.01107 -4.32166 -5.14993
v 0.01661 -4.51619 -4.87469
v -3.50819 -5.62021 -4.87469
v 0.01107 -5.86242 -5.14993
v -3.70483 -5.78596 -5.14993
v -3.21014 -3.62398 -4.87469
v -1.33068 -3.38518 -5.14993
v -1.38972 -3.55747 -4.87469
v 4.75000 0.75000 4.75000
v 4.75000 -8.75000 -4.67858
v 4.75000 0.75000 -4.67858
v 0.00000 0.75000 4.75000
v 4.75000 -8.75000 4.75000
v 4.75000 0.75000 4.75000
v 0.00000 -6.19642 -4.67858
v 0.00000 -6.19642 -3.94255
v 3.74925 -6.19642 -3.94255
v 4.09248 0.75000 4.09742
v 0.00000 -8.09248 4.09742
v 0.00000 0.75000 4.09742
v 4.09248 -8.09248 -4.67858
v 4.09248 0.75000 4.09742
v 4.09248 0.75000 -4.67858
v 0.00000 -8.75000 -4.67858
v 4.75000 -8.75000 4.75000
v 0.00000 -8.75000 4.75000
v 4.09248 0.75000 4.09742
v 4.75000 0.75000 -4.67858
v 4.09248 0.75000 -4.67858
v 4.75000 0.75000 -4.67858
v 4.09248 -8.09248 -4.67858
v 4.09248 0.75000 -4.67858
v 0.00000 0.75000 4.75000
v 4.09248 0.75000 4.09742
v 0.00000 0.75000 4.09742
v 0.00000 -8.09248 4.09742
v 0.00000 0.75000 4.75000
v 0.00000 0.75000 4.09742
v 0.00000 -8.75000 4.75000
v 0.00000 -8.09248 4.09742
v 0.00000 -8.09248 -3.94255
v 4.09248 -8.09248 -4.67858
v 0.00000 -8.75000 -4.67858
v 0.00000 -8.09248 -4.67858
v 4.09248 0.75000 4.09742
v 4.09306 -8.09248 -3.94254
v 4.09935 -8.09248 4.09742
v 0.00000 -8.09248 4.09742
v 4.09248 0.75000 4.09742
v 4.09935 -8.09248 4.09742
v 4.09248 -6.19642 -4.67858
v 4.09306 -8.09248 -3.94254
v 4.09248 -8.09248 -4.67858
v 0.00000 -6.19642 -4.67858
v 4.09248 -8.09248 -4.67858
v 0.00000 -8.09248 -4.67858
v 0.00000 -8.09248 -3.94255
v 0.00000 -8.09248 4.09742
v 3.74925 -8.09248 -3.94255
v 3.74925 -8.09248 -3.94255
v 4.09935 -8.09248 4.09742
v 4.09306 -8.09248 -3.94254
v 4.09306 -6.19642 -3.94254
v 3.74925 -8.09248 -3.94255
v 4.09306 -8.09248 -3.94254
v 3.74925 -6.19642 -3.94255
v 0.00000 -8.09248 -3.94255
v 3.74925 -8.09248 -3.94255
v 0.00000 -6.19642 -3.94255
v 0.00000 -8.09248 -4.67858
v 0.00000 -8.09248 -3.94255
v 3.55187 -3.24179 -4.20707
v 3.96439 -6.00474 -5.14993
v 3.55187 -3.24179 -5.14993
v 1.25276 -3.15778 -4.20707
v -0.01287 -6.09179 -4.20707
v 3.96439 -6.00474 -4.20707
v 1.38972 -3.55747 -4.87469
v 3.50819 -5.62021 -4.87469
v -0.01661 -5.69651 -4.87469
v 1.25276 -3.15778 -5.14993
v -0.01287 -4.07035 -4.20707
v 1.25276 -3.15778 -4.20707
v -0.01287 -6.09179 -5.14993
v 3.96439 -6.00474 -4.20707
v -0.01287 -6.09179 -4.20707
v 3.55187 -3.24179 -5.14993
v 1.25276 -3.15778 -4.20707
v 3.55187 -3.24179 -4.20707
v 3.55187 -3.24179 -5.14993
v 3.70483 -5.78596 -5.14993
v 3.35744 -3.45924 -5.14993
v -0.01287 -4.07035 -5.14993
v 1.33068 -3.38518 -5.14993
v -0.01107 -4.32166 -5.14993
v 3.70483 -5.78596 -5.14993
v -0.01287 -6.09179 -5.14993
v -0.01107 -5.86242 -5.14993
v 1.25276 -3.15778 -5.14993
v 3.35744 -3.45924 -5.14993
v 1.33068 -3.38518 -5.14993
v 3.35744 -3.45924 -5.14993
v 3.50819 -5.62021 -4.87469
v 3.21014 -3.62398 -4.87469
v -0.01107 -4.32166 -5.14993
v 1.38972 -3.55747 -4.87469
v -0.01661 -4.51619 -4.87469
v 3.50819 -5.62021 -4.87469
v -0.01107 -5.86242 -5.14993
v -0.01661 -5.69651 -4.87469
v 1.33068 -3.38518 -5.14993
v 3.21014 -3.62398 -4.87469
v 1.38972 -3.55747 -4.87469
v -4.75000 -8.75000 -4.67858
v -4.75000 -8.75000 4.75000
v -4.75000 0.75000 4.75000
v -4.75000 -8.75000 4.75000
v 0.00000 -8.75000 4.75000
v 0.00000 0.75000 4.75000
v -3.74925 -6.19642 -3.94255
v 0.00000 -6.19642 -3.94255
v 0.00000 -6.19642 -4.67858
v 0.00000 -6.19642 -4.67858
v -4.09248 -6.19642 -4.67858
v -3.74925 -6.19642 -3.94255
v -4.75000 -8.75000 4.75000
v -4.75000 -8.75000 -4.67858
v 0.00000 -8.75000 -4.67858
v -4.09248 0.75000 4.09742
v -4.09248 0.75000 -4.67858
v -4.75000 0.75000 -4.67858
v -4.09248 -8.09248 -4.67858
v -4.75000 -8.75000 -4.67858
v -4.75000 0.75000 -4.67858
v -4.09248 0.75000 4.09742
v -4.75000 0.75000 4.75000
v 0.00000 0.75000 4.75000
v -4.09248 -8.09248 -4.67858
v 0.00000 -8.09248 -4.67858
v 0.00000 -8.75000 -4.67858
v -4.09306 -8.09248 -3.94254
v -4.09248 -8.09248 -4.67858
v -4.09248 0.75000 4.09742
v -4.09306 -8.09248 -3.94254
v -4.09306 -6.19642 -3.94254
v -4.09248 -6.19642 -4.67858
v -4.09248 -8.09248 -4.67858
v -4.09248 -6.19642 -4.67858
v 0.00000 -6.19642 -4.67858
v -3.74925 -8.09248 -3.94255
v -4.09306 -8.09248 -3.94254
v -4.09935 -8.09248 4.09742
v -3.74925 -8.09248 -3.94255
v -3.74925 -6.19642 -3.94255
v -4.09306 -6.19642 -3.94254
v 0.00000 -8.09248 -3.94255
v 0.00000 -6.19642 -3.94255
v -3.74925 -6.19642 -3.94255
v -3.96439 -6.00474 -5.14993
v -3.96439 -6.00474 -4.20707
v -3.55187 -3.24179 -4.20707
v -1.25276 -3.15778 -4.20707
v -3.55187 -3.24179 -4.20707
v -3.96439 -6.00474 -4.20707
v -3.96439 -6.00474 -4.20707
v 0.01287 -6.09179 -4.20707
v -1.25276 -3.15778 -4.20707
v -1.38972 -3.55747 -4.87469
v 0.01661 -4.51619 -4.87469
v 0.01661 -5.69651 -4.87469
v 0.01661 -5.69651 -4.87469
v -3.50819 -5.62021 -4.87469
v -1.38972 -3.55747 -4.87469
v 0.01287 -4.07035 -4.20707
v 0.01287 -4.07035 -5.14993
v -1.25276 -3.15778 -5.14993
v -3.96439 -6.00474 -4.20707
v -3.96439 -6.00474 -5.14993
v 0.01287 -6.09179 -5.14993
v -1.25276 -3.15778 -4.20707
v -1.25276 -3.15778 -5.14993
v -3.55187 -3.24179 -5.14993
v -3.70483 -5.78596 -5.14993
v -3.96439 -6.00474 -5.14993
v -3.55187 -3.24179 -5.14993
v -1.33068 -3.38518 -5.14993
v -1.25276 -3.15778 -5.14993
v 0.01287 -4.07035 -5.14993
v -3.70483 -5.78596 -5.14993
v 0.01107 -5.86242 -5.14993
v 0.01287 -6.09179 -5.14993
v -3.35744 -3.45924 -5.14993
v -3.55187 -3.24179 -5.14993
v -1.25276 -3.15778 -5.14993
v -3.50819 -5.62021 -4.87469
v -3.70483 -5.78596 -5.14993
v -3.35744 -3.45924 -5.14993
v -1.38972 -3.55747 -4.87469
v -1.33068 -3.38518 -5.14993
v 0.01107 -4.32166 -5.14993
v -3.50819 -5.62021 -4.87469
v 0.01661 -5.69651 -4.87469
v 0.01107 -5.86242 -5.14993
v -3.21014 -3.62398 -4.87469
v -3.35744 -3.45924 -5.14993
v -1.33068 -3.38518 -5.14993
v 4.75000 0.75000 4.75000
v 4.75000 -8.75000 4.75000
v 4.75000 -8.75000 -4.67858
v 0.00000 0.75000 4.75000
v 0.00000 -8.75000 4.75000
v 4.75000 -8.75000 4.75000
v 3.74925 -6.19642 -3.94255
v 4.09306 -6.19642 -3.94254
v 4.09248 -6.19642 -4.67858
v 4.09248 -6.19642 -4.67858
v 0.00000 -6.19642 -4.67858
v 3.74925 -6.19642 -3.94255
v 0.00000 -8.75000 -4.67858
v 4.75000 -8.75000 -4.67858
v 4.75000 -8.75000 4.75000
v 4.09248 0.75000 4.09742
v 4.75000 0.75000 4.75000
v 4.75000 0.75000 -4.67858
v 4.75000 0.75000 -4.67858
v 4.75000 -8.75000 -4.67858
v 4.09248 -8.09248 -4.67858
v 0.00000 0.75000 4.75000
v 4.75000 0.75000 4.75000
v 4.09248 0.75000 4.09742
v 0.00000 -8.09248 4.09742
v 0.00000 -8.75000 4.75000
v 0.00000 0.75000 4.75000
v 0.00000 -8.09248 -3.94255
v 0.00000 -8.09248 -4.67858
v 0.00000 -8.75000 -4.67858
v 0.00000 -8.75000 -4.67858
v 0.00000 -8.75000 4.75000
v 0.00000 -8.09248 -3.94255
v 4.09248 -8.09248 -4.67858
v 4.75000 -8.75000 -4.67858
v 0.00000 -8.75000 -4.67858
v 4.09248 0.75000 4.09742
v 4.09248 -8.09248 -4.67858
v 4.09306 -8.09248 -3.94254
v 4.09248 -6.19642 -4.67858
v 4.09306 -6.19642 -3.94254
v 4.09306 -8.09248 -3.94254
v 0.00000 -6.19642 -4.67858
v 4.09248 -6.19642 -4.67858
v 4.09248 -8.09248 -4.67858
v 3.74925 -8.09248 -3.94255
v 0.00000 -8.09248 4.09742
v 4.09935 -8.09248 4.09742
v 4.09306 -6.19642 -3.94254
v 3.74925 -6.19642 -3.94255
v 3.74925 -8.09248 -3.94255
v 3.74925 -6.19642 -3.94255
v 0.00000 -6.19642 -3.94255
v 0.00000 -8.09248 -3.94255
v 0.00000 -6.19642 -3.94255
v 0.00000 -6.19642 -4.67858
v 0.00000 -8.09248 -4.67858
v 3.55187 -3.24179 -4.20707
v 3.96439 -6.00474 -4.20707
v 3.96439 -6.00474 -5.14993
v 3.96439 -6.00474 -4.20707
v 3.55187 -3.24179 -4.20707
v 1.25276 -3.15778 -4.20707
v 1.25276 -3.15778 -4.20707
v -0.01287 -4.07035 -4.20707
v -0.01287 -6.09179 -4.20707
v -0.01661 -5.69651 -4.87469
v -0.01661 -4.51619 -4.87469
v 1.38972 -3.55747 -4.87469
v 1.38972 -3.55747 -4.87469
v 3.21014 -3.62398 -4.87469
v 3.50819 -5.62021 -4.87469
v 1.25276 -3.15778 -5.14993
v -0.01287 -4.07035 -5.14993
v -0.01287 -4.07035 -4.20707
v -0.01287 -6.09179 -5.14993
v 3.96439 -6.00474 -5.14993
v 3.96439 -6.00474 -4.20707
v 3.55187 -3.24179 -5.14993
v 1.25276 -3.15778 -5.14993
v 1.25276 -3.15778 -4.20707
v 3.55187 -3.24179 -5.14993
v 3.96439 -6.00474 -5.14993
v 3.70483 -5.78596 -5.14993
v -0.01287 -4.07035 -5.14993
v 1.25276 -3.15778 -5.14993
v 1.33068 -3.38518 -5.14993
v 3.70483 -5.78596 -5.14993
v 3.96439 -6.00474 -5.14993
v -0.01287 -6.09179 -5.14993
v 1.25276 -3.15778 -5.14993
v 3.55187 -3.24179 -5.14993
v 3.35744 -3.45924 -5.14993
v 3.35744 -3.45924 -5.14993
v 3.70483 -5.78596 -5.14993
v 3.50819 -5.62021 -4.87469
v -0.01107 -4.32166 -5.14993
v 1.33068 -3.38518 -5.14993
v 1.38972 -3.55747 -4.87469
v 3.50819 -5.62021 -4.87469
v 3.70483 -5.78596 -5.14993
v -0.01107 -5.86242 -5.14993
v 1.33068 -3.38518 -5.14993
v 3.35744 -3.45924 -5.14993
v 3.21014 -3.62398 -4.87469
vt 0.61206 0.91026
vt 0.73075 0.78000
vt 0.59547 0.80423
vt 0.69992 0.89158
vt 0.72132 0.78747
vt 0.67540 0.79973
vt 0.87544 0.49113
vt 0.85021 0.49115
vt 0.85021 0.47942
vt 0.81285 0.47553
vt 0.95249 0.47553
vt 0.95249 0.77726
vt 0.79661 0.96869
vt 0.79659 0.80509
vt 0.95958 0.80539
vt 0.44525 0.84091
vt 0.53119 0.88460
vt 0.44522 0.88460
vt 0.83188 0.30999
vt 0.85432 0.00912
vt 0.85432 0.33236
vt 0.71963 0.90426
vt 0.70110 0.79792
vt 0.68836 0.80181
vt 0.45364 0.84031
vt 0.54683 0.85522
vt 0.54683 0.84029
vt 0.71963 0.90426
vt 0.64264 0.93610
vt 0.73470 0.90799
vt 0.81027 0.96871
vt 0.95958 0.80539
vt 0.95958 0.96899
vt 0.95249 0.77726
vt 0.81261 0.77726
vt 0.81285 0.47553
vt 0.55675 0.82592
vt 0.53144 0.86135
vt 0.53144 0.82592
vt 0.71963 0.90426
vt 0.63664 0.91643
vt 0.64031 0.92848
vt 0.95404 0.45573
vt 0.82611 0.45570
vt 0.95404 0.18009
vt 0.82611 0.45570
vt 0.81416 0.18006
vt 0.95404 0.18009
vt 0.78727 0.82181
vt 0.82275 0.83354
vt 0.78727 0.83354
vt 0.78727 0.69388
vt 0.82275 0.82181
vt 0.78727 0.82181
vt 0.40189 0.93114
vt 0.42374 0.86720
vt 0.40189 0.86720
vt 0.76904 0.82962
vt 0.70008 0.82812
vt 0.66989 0.78426
vt 0.37932 0.98565
vt 0.37895 0.91701
vt 0.33215 0.90910
vt 0.42228 0.86753
vt 0.40617 0.88984
vt 0.42311 0.89014
vt 0.41778 0.92860
vt 0.40342 0.86753
vt 0.41778 0.86747
vt 0.42311 0.89014
vt 0.40534 0.93095
vt 0.42228 0.93125
vt 0.38890 0.98727
vt 0.38628 0.88457
vt 0.38092 0.89317
vt 0.32642 0.88839
vt 0.28985 0.91483
vt 0.28975 0.92496
vt 0.38890 0.98727
vt 0.28866 0.99632
vt 0.39576 0.99632
vt 0.38092 0.89317
vt 0.32445 0.87916
vt 0.32642 0.88839
vt 0.38332 0.97649
vt 0.38032 0.90866
vt 0.37226 0.91512
vt 0.31797 0.90488
vt 0.29580 0.92189
vt 0.29990 0.92644
vt 0.39005 0.98816
vt 0.29010 0.99638
vt 0.39563 0.99638
vt 0.34462 0.88035
vt 0.31298 0.90127
vt 0.31797 0.90488
vt 0.73075 0.78000
vt 0.61206 0.91026
vt 0.59547 0.80423
vt 0.72132 0.78747
vt 0.69992 0.89158
vt 0.67540 0.79973
vt 0.87544 0.35148
vt 0.85021 0.35149
vt 0.85021 0.47942
vt 0.81285 0.47553
vt 0.95249 0.77726
vt 0.95249 0.47553
vt 0.79661 0.96869
vt 0.95958 0.80539
vt 0.79659 0.80509
vt 0.53119 0.88460
vt 0.44525 0.84091
vt 0.44522 0.88460
vt 0.83188 0.30999
vt 0.85432 0.00912
vt 0.83188 0.00912
vt 0.70110 0.79792
vt 0.71963 0.90426
vt 0.68836 0.80181
vt 0.54683 0.85522
vt 0.45364 0.84031
vt 0.54683 0.84029
vt 0.37347 0.03159
vt 0.35113 0.33320
vt 0.37347 0.33325
vt 0.35113 0.00912
vt 0.37347 0.03159
vt 0.64880 0.03212
vt 0.71963 0.90426
vt 0.64264 0.93610
vt 0.64031 0.92848
vt 0.95958 0.80539
vt 0.81027 0.96871
vt 0.95958 0.96899
vt 0.95249 0.77726
vt 0.81285 0.47553
vt 0.81261 0.77726
vt 0.53144 0.86135
vt 0.55675 0.82592
vt 0.53144 0.82592
vt 0.63664 0.91643
vt 0.71963 0.90426
vt 0.64031 0.92848
vt 0.95404 0.45573
vt 0.95404 0.18009
vt 0.82611 0.45570
vt 0.82611 0.45570
vt 0.81416 0.18006
vt 0.81438 0.45570
vt 0.82275 0.83354
vt 0.78727 0.82181
vt 0.78727 0.83354
vt 0.82275 0.82181
vt 0.78727 0.69388
vt 0.78727 0.82181
vt 0.64880 0.06759
vt 0.67400 0.03217
vt 0.64880 0.03212
vt 0.42374 0.86720
vt 0.40189 0.93114
vt 0.40189 0.86720
vt 0.66989 0.78426
vt 0.76904 0.82962
vt 0.76904 0.69388
vt 0.33215 0.90910
vt 0.37932 0.98565
vt 0.28794 0.97728
vt 0.40617 0.88984
vt 0.42228 0.86753
vt 0.42311 0.89014
vt 0.40342 0.86753
vt 0.41778 0.92860
vt 0.41778 0.86747
vt 0.40534 0.93095
vt 0.42311 0.89014
vt 0.42228 0.93125
vt 0.38628 0.88457
vt 0.38890 0.98727
vt 0.38092 0.89317
vt 0.28985 0.91483
vt 0.32642 0.88839
vt 0.28975 0.92496
vt 0.38890 0.98727
vt 0.28866 0.99632
vt 0.28885 0.98707
vt 0.32445 0.87916
vt 0.38092 0.89317
vt 0.32642 0.88839
vt 0.38032 0.90866
vt 0.38332 0.97649
vt 0.37226 0.91512
vt 0.29580 0.92189
vt 0.31797 0.90488
vt 0.29990 0.92644
vt 0.39005 0.98816
vt 0.29010 0.99638
vt 0.28995 0.98817
vt 0.31298 0.90127
vt 0.34462 0.88035
vt 0.31797 0.90488
vt 0.61206 0.91026
vt 0.74735 0.88604
vt 0.73075 0.78000
vt 0.69992 0.89158
vt 0.74585 0.87932
vt 0.72132 0.78747
vt 0.85021 0.47942
vt 0.85021 0.35149
vt 0.87544 0.35148
vt 0.87544 0.35148
vt 0.87544 0.49113
vt 0.85021 0.47942
vt 0.44525 0.84091
vt 0.53121 0.84091
vt 0.53119 0.88460
vt 0.83188 0.30999
vt 0.83188 0.00912
vt 0.85432 0.00912
vt 0.71963 0.90426
vt 0.73470 0.90799
vt 0.70110 0.79792
vt 0.45364 0.84031
vt 0.43866 0.85524
vt 0.54683 0.85522
vt 0.71963 0.90426
vt 0.64031 0.92848
vt 0.64264 0.93610
vt 0.81027 0.96871
vt 0.79661 0.96869
vt 0.95958 0.80539
vt 0.55675 0.82592
vt 0.55675 0.86135
vt 0.53144 0.86135
vt 0.71963 0.90426
vt 0.71596 0.89221
vt 0.63664 0.91643
vt 0.82611 0.45570
vt 0.81438 0.45570
vt 0.81416 0.18006
vt 0.78727 0.82181
vt 0.82275 0.82181
vt 0.82275 0.83354
vt 0.78727 0.69388
vt 0.82275 0.69388
vt 0.82275 0.82181
vt 0.40189 0.93114
vt 0.42374 0.93114
vt 0.42374 0.86720
vt 0.66989 0.78426
vt 0.67447 0.70589
vt 0.76904 0.69388
vt 0.76904 0.69388
vt 0.76904 0.82962
vt 0.66989 0.78426
vt 0.33215 0.90910
vt 0.29228 0.93725
vt 0.28794 0.97728
vt 0.28794 0.97728
vt 0.37932 0.98565
vt 0.33215 0.90910
vt 0.42228 0.86753
vt 0.40534 0.86723
vt 0.40617 0.88984
vt 0.41778 0.92860
vt 0.40342 0.92866
vt 0.40342 0.86753
vt 0.42311 0.89014
vt 0.40617 0.88984
vt 0.40534 0.93095
vt 0.38890 0.98727
vt 0.39576 0.99632
vt 0.38628 0.88457
vt 0.32642 0.88839
vt 0.32445 0.87916
vt 0.28985 0.91483
vt 0.38890 0.98727
vt 0.28885 0.98707
vt 0.28866 0.99632
vt 0.38092 0.89317
vt 0.38628 0.88457
vt 0.32445 0.87916
vt 0.38332 0.97649
vt 0.39321 0.98020
vt 0.38032 0.90866
vt 0.31797 0.90488
vt 0.31298 0.90127
vt 0.29580 0.92189
vt 0.39005 0.98816
vt 0.28995 0.98817
vt 0.29010 0.99638
vt 0.34462 0.88035
vt 0.34265 0.87396
vt 0.31298 0.90127
vt 0.73075 0.78000
vt 0.74735 0.88604
vt 0.61206 0.91026
vt 0.72132 0.78747
vt 0.74585 0.87932
vt 0.69992 0.89158
vt 0.85021 0.47942
vt 0.85021 0.49115
vt 0.87544 0.49113
vt 0.87544 0.49113
vt 0.87544 0.35148
vt 0.85021 0.47942
vt 0.53119 0.88460
vt 0.53121 0.84091
vt 0.44525 0.84091
vt 0.83188 0.30999
vt 0.85432 0.33236
vt 0.85432 0.00912
vt 0.70110 0.79792
vt 0.73470 0.90799
vt 0.71963 0.90426
vt 0.54683 0.85522
vt 0.43866 0.85524
vt 0.45364 0.84031
vt 0.37347 0.03159
vt 0.35113 0.00912
vt 0.35113 0.33320
vt 0.64880 0.03212
vt 0.67400 0.03217
vt 0.67400 0.00974
vt 0.67400 0.00974
vt 0.35113 0.00912
vt 0.64880 0.03212
vt 0.71963 0.90426
vt 0.73470 0.90799
vt 0.64264 0.93610
vt 0.95958 0.80539
vt 0.79661 0.96869
vt 0.81027 0.96871
vt 0.53144 0.86135
vt 0.55675 0.86135
vt 0.55675 0.82592
vt 0.63664 0.91643
vt 0.71596 0.89221
vt 0.71963 0.90426
vt 0.82611 0.45570
vt 0.95404 0.18009
vt 0.81416 0.18006
vt 0.82275 0.83354
vt 0.82275 0.82181
vt 0.78727 0.82181
vt 0.82275 0.82181
vt 0.82275 0.69388
vt 0.78727 0.69388
vt 0.64880 0.06759
vt 0.67400 0.06764
vt 0.67400 0.03217
vt 0.42374 0.86720
vt 0.42374 0.93114
vt 0.40189 0.93114
vt 0.76904 0.69388
vt 0.67447 0.70589
vt 0.66989 0.78426
vt 0.66989 0.78426
vt 0.70008 0.82812
vt 0.76904 0.82962
vt 0.28794 0.97728
vt 0.29228 0.93725
vt 0.33215 0.90910
vt 0.33215 0.90910
vt 0.37895 0.91701
vt 0.37932 0.98565
vt 0.40617 0.88984
vt 0.40534 0.86723
vt 0.42228 0.86753
vt 0.40342 0.86753
vt 0.40342 0.92866
vt 0.41778 0.92860
vt 0.40534 0.93095
vt 0.40617 0.88984
vt 0.42311 0.89014
vt 0.38628 0.88457
vt 0.39576 0.99632
vt 0.38890 0.98727
vt 0.28985 0.91483
vt 0.32445 0.87916
vt 0.32642 0.88839
vt 0.38890 0.98727
vt 0.39576 0.99632
vt 0.28866 0.99632
vt 0.32445 0.87916
vt 0.38628 0.88457
vt 0.38092 0.89317
vt 0.38032 0.90866
vt 0.39321 0.98020
vt 0.38332 0.97649
vt 0.29580 0.92189
vt 0.31298 0.90127
vt 0.31797 0.90488
vt 0.39005 0.98816
vt 0.39563 0.99638
vt 0.29010 0.99638
vt 0.31298 0.90127
vt 0.34265 0.87396
vt 0.34462 0.88035
vn -1.00000 -0.00000 -0.00000
vn -1.00000 -0.00000 -0.00000
vn -1.00000 -0.00000 -0.00000
vn 0.00000 -0.00000 1.00000
vn 0.00000 -0.00000 1.00000
vn 0.00000 -0.00000 1.00000
vn 0.00000 1.00000 -0.00000
vn 0.00000 1.00000 -0.00000
vn 0.00000 1.00000 -0.00000
vn 0.00000 -0.00000 -1.00000
vn 0.00000 -0.00000 -1.00000
vn 0.00000 -0.00000 -1.00000
vn 1.00000 -0.00000 -0.00000
vn 1.00000 -0.00000 -0.00000
vn 1.00000 -0.00000 -0.00000
vn 0.00000 -1.00000 0.00000
vn 0.00000 -1.00000 0.00000
vn 0.00000 -1.00000 0.00000
vn 0.00000 1.00000 -0.00000
vn 0.00000 1.00000 -0.00000
vn 0.00000 1.00000 -0.00000
vn 0.00000 -0.00000 -1.00000
vn 0.00000 -0.00000 -1.00000
vn 0.00000 -0.00000 -1.00000
vn 0.00000 1.00000 -0.00000
vn 0.00000 1.00000 -0.00000
vn 0.00000 1.00000 -0.00000
vn 0.00000 -0.00000 -1.00000
vn 0.00000 -0.00000 -1.00000
vn 0.00000 -0.00000 -1.00000
vn 1.00000 -0.00080 0.00080
vn 1.00000 -0.00080 0.00080
vn 1.00000 -0.00080 0.00080
vn 0.00000 -0.00000 -1.00000
vn 0.00000 -0.00000 -1.00000
vn 0.00000 -0.00000 -1.00000
vn -1.00000 -0.00000 -0.00080
vn -1.00000 -0.00000 -0.00080
vn -1.00000 -0.00000 -0.00080
vn 0.00000 -0.00000 -1.00000
vn 0.00000 -0.00000 -1.00000
vn 0.00000 -0.00000 -1.00000
vn 0.00000 1.00000 -0.00000
vn 0.00000 1.00000 -0.00000
vn 0.00000 1.00000 -0.00000
vn 0.00000 1.00000 -0.00000
vn 0.00000 1.00000 -0.00000
vn 0.00000 1.00000 -0.00000
vn 0.00000 -0.00000 1.00000
vn 0.00000 -0.00000 1.00000
vn 0.00000 -0.00000 1.00000
vn 0.00000 -0.00000 1.00000
vn 0.00000 -0.00000 1.00000
vn 0.00000 -0.00000 1.00000
vn -0.98903 0.14770 -0.00000
vn -0.98903 0.14770 -0.00000
vn -0.98903 0.14770 -0.00000
vn 0.00000 -0.00000 1.00000
vn 0.00000 -0.00000 1.00000
vn 0.00000 -0.00000 1.00000
vn 0.00000 -0.00000 -1.00000
vn 0.00000 -0.00000 -1.00000
vn 0.00000 -0.00000 -1.00000
vn 0.58490 0.81110 -0.00000
vn 0.58490 0.81110 -0.00000
vn 0.58490 0.81110 -0.00000
vn -0.02190 -0.99976 -0.00000
vn -0.02190 -0.99976 -0.00000
vn -0.02190 -0.99976 -0.00000
vn -0.03650 0.99933 -0.00000
vn -0.03650 0.99933 -0.00000
vn -0.03650 0.99933 -0.00000
vn 0.00000 -0.00000 -1.00000
vn 0.00000 -0.00000 -1.00000
vn 0.00000 -0.00000 -1.00000
vn 0.00000 -0.00000 -1.00000
vn 0.00000 -0.00000 -1.00000
vn 0.00000 -0.00000 -1.00000
vn 0.00000 -0.00000 -1.00000
vn 0.00000 -0.00000 -1.00000
vn 0.00000 -0.00000 -1.00000
vn 0.00000 -0.00000 -1.00000
vn 0.00000 -0.00000 -1.00000
vn 0.00000 -0.00000 -1.00000
vn 0.84318 -0.12590 -0.52269
vn 0.84318 -0.12590 -0.52269
vn 0.84318 -0.12590 -0.52269
vn -0.48973 -0.71834 -0.49413
vn -0.48973 -0.71834 -0.49413
vn -0.48973 -0.71834 -0.49413
vn 0.01750 0.85270 -0.52210
vn 0.01750 0.85270 -0.52210
vn 0.01750 0.85270 -0.52210
vn 0.03110 -0.85196 -0.52268
vn 0.03110 -0.85196 -0.52268
vn 0.03110 -0.85196 -0.52268
vn 1.00000 -0.00000 -0.00000
vn 1.00000 -0.00000 -0.00000
vn 1.00000 -0.00000 -0.00000
vn 0.00000 -0.00000 1.00000
vn 0.00000 -0.00000 1.00000
vn 0.00000 -0.00000 1.00000
vn 0.00000 1.00000 -0.00000
vn 0.00000 1.00000 -0.00000
vn 0.00000 1.00000 -0.00000
vn 0.00000 -0.00000 -1.00000
vn 0.00000 -0.00000 -1.00000
vn 0.00000 -0.00000 -1.00000
vn -1.00000 -0.00000 -0.00000
vn -1.00000 -0.00000 -0.00000
vn -1.00000 -0.00000 -0.00000
vn 0.00000 -1.00000 0.00000
vn 0.00000 -1.00000 0.00000
vn 0.00000 -1.00000 0.00000
vn 0.00000 1.00000 -0.00000
vn 0.00000 1.00000 -0.00000
vn 0.00000 1.00000 -0.00000
vn 0.00000 -0.00000 -1.00000
vn 0.00000 -0.00000 -1.00000
vn 0.00000 -0.00000 -1.00000
vn 0.00000 1.00000 -0.00000
vn 0.00000 1.00000 -0.00000
vn 0.00000 1.00000 -0.00000
vn -1.00000 -0.00000 -0.00000
vn -1.00000 -0.00000 -0.00000
vn -1.00000 -0.00000 -0.00000
vn -1.00000 -0.00000 -0.00000
vn -1.00000 -0.00000 -0.00000
vn -1.00000 -0.00000 -0.00000
vn 0.00000 -0.00000 -1.00000
vn 0.00000 -0.00000 -1.00000
vn 0.00000 -0.00000 -1.00000
vn -1.00000 -0.00080 0.00080
vn -1.00000 -0.00080 0.00080
vn -1.00000 -0.00080 0.00080
vn 0.00000 -0.00000 -1.00000
vn 0.00000 -0.00000 -1.00000
vn 0.00000 -0.00000 -1.00000
vn 1.00000 -0.00000 -0.00080
vn 1.00000 -0.00000 -0.00080
vn 1.00000 -0.00000 -0.00080
vn 0.00000 -0.00000 -1.00000
vn 0.00000 -0.00000 -1.00000
vn 0.00000 -0.00000 -1.00000
vn 0.00000 1.00000 -0.00000
vn 0.00000 1.00000 -0.00000
vn 0.00000 1.00000 -0.00000
vn 0.00000 1.00000 -0.00000
vn 0.00000 1.00000 -0.00000
vn 0.00000 1.00000 -0.00000
vn 0.00000 -0.00000 1.00000
vn 0.00000 -0.00000 1.00000
vn 0.00000 -0.00000 1.00000
vn 0.00000 -0.00000 1.00000
vn 0.00000 -0.00000 1.00000
vn 0.00000 -0.00000 1.00000
vn -1.00000 -0.00000 -0.00000
vn -1.00000 -0.00000 -0.00000
vn -1.00000 -0.00000 -0.00000
vn 0.98903 0.14770 -0.00000
vn 0.98903 0.14770 -0.00000
vn 0.98903 0.14770 -0.00000
vn 0.00000 -0.00000 1.00000
vn 0.00000 -0.00000 1.00000
vn 0.00000 -0.00000 1.00000
vn 0.00000 -0.00000 -1.00000
vn 0.00000 -0.00000 -1.00000
vn 0.00000 -0.00000 -1.00000
vn -0.58490 0.81110 -0.00000
vn -0.58490 0.81110 -0.00000
vn -0.58490 0.81110 -0.00000
vn 0.02190 -0.99976 -0.00000
vn 0.02190 -0.99976 -0.00000
vn 0.02190 -0.99976 -0.00000
vn 0.03650 0.99933 -0.00000
vn 0.03650 0.99933 -0.00000
vn 0.03650 0.99933 -0.00000
vn 0.00000 -0.00000 -1.00000
vn 0.00000 -0.00000 -1.00000
vn 0.00000 -0.00000 -1.00000
vn 0.00000 -0.00000 -1.00000
vn 0.00000 -0.00000 -1.00000
vn 0.00000 -0.00000 -1.00000
vn 0.00000 -0.00000 -1.00000
vn 0.00000 -0.00000 -1.00000
vn 0.00000 -0.00000 -1.00000
vn 0.00000 -0.00000 -1.00000
vn 0.00000 -0.00000 -1.00000
vn 0.00000 -0.00000 -1.00000
vn -0.84318 -0.12590 -0.52269
vn -0.84318 -0.12590 -0.52269
vn -0.84318 -0.12590 -0.52269
vn 0.48973 -0.71834 -0.49413
vn 0.48973 -0.71834 -0.49413
vn 0.48973 -0.71834 -0.49413
vn -0.01860 0.85782 -0.51361
vn -0.01860 0.85782 -0.51361
vn -0.01860 0.85782 -0.51361
vn -0.03110 -0.85196 -0.52268
vn -0.03110 -0.85196 -0.52268
vn -0.03110 -0.85196 -0.52268
vn -1.00000 -0.00000 -0.00000
vn -1.00000 -0.00000 -0.00000
vn -1.00000 -0.00000 -0.00000
vn 0.00000 -0.00000 1.00000
vn 0.00000 -0.00000 1.00000
vn 0.00000 -0.00000 1.00000
vn 0.00000 1.00000 -0.00000
vn 0.00000 1.00000 -0.00000
vn 0.00000 1.00000 -0.00000
vn 0.00000 1.00000 -0.00000
vn 0.00000 1.00000 -0.00000
vn 0.00000 1.00000 -0.00000
vn 0.00000 -1.00000 0.00000
vn 0.00000 -1.00000 0.00000
vn 0.00000 -1.00000 0.00000
vn 0.00000 1.00000 -0.00000
vn 0.00000 1.00000 -0.00000
vn 0.00000 1.00000 -0.00000
vn 0.00000 -0.00000 -1.00000
vn 0.00000 -0.00000 -1.00000
vn 0.00000 -0.00000 -1.00000
vn 0.00000 1.00000 -0.00000
vn 0.00000 1.00000 -0.00000
vn 0.00000 1.00000 -0.00000
vn 0.00000 -0.00000 -1.00000
vn 0.00000 -0.00000 -1.00000
vn 0.00000 -0.00000 -1.00000
vn 1.00000 -0.00080 0.00080
vn 1.00000 -0.00080 0.00080
vn 1.00000 -0.00080 0.00080
vn -1.00000 -0.00000 -0.00080
vn -1.00000 -0.00000 -0.00080
vn -1.00000 -0.00000 -0.00080
vn 0.00000 -0.00000 -1.00000
vn 0.00000 -0.00000 -1.00000
vn 0.00000 -0.00000 -1.00000
vn 0.00000 1.00000 -0.00000
vn 0.00000 1.00000 -0.00000
vn 0.00000 1.00000 -0.00000
vn 0.00000 -0.00000 1.00000
vn 0.00000 -0.00000 1.00000
vn 0.00000 -0.00000 1.00000
vn 0.00000 -0.00000 1.00000
vn 0.00000 -0.00000 1.00000
vn 0.00000 -0.00000 1.00000
vn -0.98903 0.14770 -0.00000
vn -0.98903 0.14770 -0.00000
vn -0.98903 0.14770 -0.00000
vn 0.00000 -0.00000 1.00000
vn 0.00000 -0.00000 1.00000
vn 0.00000 -0.00000 1.00000
vn 0.00000 -0.00000 1.00000
vn 0.00000 -0.00000 1.00000
vn 0.00000 -0.00000 1.00000
vn 0.00000 -0.00000 -1.00000
vn 0.00000 -0.00000 -1.00000
vn 0.00000 -0.00000 -1.00000
vn 0.00000 -0.00000 -1.00000
vn 0.00000 -0.00000 -1.00000
vn 0.00000 -0.00000 -1.00000
vn 0.58490 0.81110 -0.00000
vn 0.58490 0.81110 -0.00000
vn 0.58490 0.81110 -0.00000
vn -0.02190 -0.99976 -0.00000
vn -0.02190 -0.99976 -0.00000
vn -0.02190 -0.99976 -0.00000
vn -0.03650 0.99933 -0.00000
vn -0.03650 0.99933 -0.00000
vn -0.03650 0.99933 -0.00000
vn 0.00000 -0.00000 -1.00000
vn 0.00000 -0.00000 -1.00000
vn 0.00000 -0.00000 -1.00000
vn 0.00000 -0.00000 -1.00000
vn 0.00000 -0.00000 -1.00000
vn 0.00000 -0.00000 -1.00000
vn 0.00000 -0.00000 -1.00000
vn 0.00000 -0.00000 -1.00000
vn 0.00000 -0.00000 -1.00000
vn 0.00000 -0.00000 -1.00000
vn 0.00000 -0.00000 -1.00000
vn 0.00000 -0.00000 -1.00000
vn 0.84318 -0.12590 -0.52269
vn 0.84318 -0.12590 -0.52269
vn 0.84318 -0.12590 -0.52269
vn -0.48400 -0.69340 -0.53380
vn -0.48400 -0.69340 -0.53380
vn -0.48400 -0.69340 -0.53380
vn 0.01860 0.85782 -0.51361
vn 0.01860 0.85782 -0.51361
vn 0.01860 0.85782 -0.51361
vn 0.03110 -0.85196 -0.52268
vn 0.03110 -0.85196 -0.52268
vn 0.03110 -0.85196 -0.52268
vn 1.00000 -0.00000 -0.00000
vn 1.00000 -0.00000 -0.00000
vn 1.00000 -0.00000 -0.00000
vn 0.00000 -0.00000 1.00000
vn 0.00000 -0.00000 1.00000
vn 0.00000 -0.00000 1.00000
vn 0.00000 1.00000 -0.00000
vn 0.00000 1.00000 -0.00000
vn 0.00000 1.00000 -0.00000
vn 0.00000 1.00000 -0.00000
vn 0.00000 1.00000 -0.00000
vn 0.00000 1.00000 -0.00000
vn 0.00000 -1.00000 0.00000
vn 0.00000 -1.00000 0.00000
vn 0.00000 -1.00000 0.00000
vn 0.00000 1.00000 -0.00000
vn 0.00000 1.00000 -0.00000
vn 0.00000 1.00000 -0.00000
vn 0.00000 -0.00000 -1.00000
vn 0.00000 -0.00000 -1.00000
vn 0.00000 -0.00000 -1.00000
vn 0.00000 1.00000 -0.00000
vn 0.00000 1.00000 -0.00000
vn 0.00000 1.00000 -0.00000
vn -1.00000 -0.00000 -0.00000
vn -1.00000 -0.00000 -0.00000
vn -1.00000 -0.00000 -0.00000
vn -1.00000 -0.00000 -0.00000
vn -1.00000 -0.00000 -0.00000
vn -1.00000 -0.00000 -0.00000
vn -1.00000 -0.00000 -0.00000
vn -1.00000 -0.00000 -0.00000
vn -1.00000 -0.00000 -0.00000
vn 0.00000 -0.00000 -1.00000
vn 0.00000 -0.00000 -1.00000
vn 0.00000 -0.00000 -1.00000
vn -1.00000 -0.00080 0.00080
vn -1.00000 -0.00080 0.00080
vn -1.00000 -0.00080 0.00080
vn 1.00000 -0.00000 -0.00080
vn 1.00000 -0.00000 -0.00080
vn 1.00000 -0.00000 -0.00080
vn 0.00000 -0.00000 -1.00000
vn 0.00000 -0.00000 -1.00000
vn 0.00000 -0.00000 -1.00000
vn 0.00000 1.00000 -0.00000
vn 0.00000 1.00000 -0.00000
vn 0.00000 1.00000 -0.00000
vn 0.00000 -0.00000 1.00000
vn 0.00000 -0.00000 1.00000
vn 0.00000 -0.00000 1.00000
vn 0.00000 -0.00000 1.00000
vn 0.00000 -0.00000 1.00000
vn 0.00000 -0.00000 1.00000
vn -1.00000 -0.00000 -0.00000
vn -1.00000 -0.00000 -0.00000
vn -1.00000 -0.00000 -0.00000
vn 0.98903 0.14770 -0.00000
vn 0.98903 0.14770 -0.00000
vn 0.98903 0.14770 -0.00000
vn 0.00000 -0.00000 1.00000
vn 0.00000 -0.00000 1.00000
vn 0.00000 -0.00000 1.00000
vn 0.00000 -0.00000 1.00000
vn 0.00000 -0.00000 1.00000
vn 0.00000 -0.00000 1.00000
vn 0.00000 -0.00000 -1.00000
vn 0.00000 -0.00000 -1.00000
vn 0.00000 -0.00000 -1.00000
vn 0.00000 -0.00000 -1.00000
vn 0.00000 -0.00000 -1.00000
vn 0.00000 -0.00000 -1.00000
vn -0.58490 0.81110 -0.00000
vn -0.58490 0.81110 -0.00000
vn -0.58490 0.81110 -0.00000
vn 0.02190 -0.99976 -0.00000
vn 0.02190 -0.99976 -0.00000
vn 0.02190 -0.99976 -0.00000
vn 0.03650 0.99933 -0.00000
vn 0.03650 0.99933 -0.00000
vn 0.03650 0.99933 -0.00000
vn 0.00000 -0.00000 -1.00000
vn 0.00000 -0.00000 -1.00000
vn 0.00000 -0.00000 -1.00000
vn 0.00000 -0.00000 -1.00000
vn 0.00000 -0.00000 -1.00000
vn 0.00000 -0.00000 -1.00000
vn 0.00000 -0.00000 -1.00000
vn 0.00000 -0.00000 -1.00000
vn 0.00000 -0.00000 -1.00000
vn 0.00000 -0.00000 -1.00000
vn 0.00000 -0.00000 -1.00000
vn 0.00000 -0.00000 -1.00000
vn -0.84318 -0.12590 -0.52269
vn -0.84318 -0.12590 -0.52269
vn -0.84318 -0.12590 -0.52269
vn 0.48400 -0.69340 -0.53380
vn 0.48400 -0.69340 -0.53380
vn 0.48400 -0.69340 -0.53380
vn -0.01750 0.85270 -0.52210
vn -0.01750 0.85270 -0.52210
vn -0.01750 0.85270 -0.52210
vn -0.03110 -0.85196 -0.52268
vn -0.03110 -0.85196 -0.52268
vn -0.03110 -0.85196 -0.52268
f 1/1/1 2/2/2 3/3/3
f 4/4/4 5/5/5 6/6/6
f 7/7/7 8/8/8 9/9/9
f 10/10/10 11/11/11 12/12/12
f 13/13/13 14/14/14 15/15/15
f 16/16/16 17/17/17 18/18/18
f 19/19/19 20/20/20 21/21/21
f 22/22/22 23/23/23 24/24/24
f 25/25/25 26/26/26 27/27/27
f 28/28/28 29/29/29 30/30/30
f 31/31/31 32/32/32 33/33/33
f 34/34/34 35/35/35 36/36/36
f 37/37/37 38/38/38 39/39/39
f 40/40/40 41/41/41 42/42/42
f 43/43/43 44/44/44 45/45/45
f 46/46/46 47/47/47 48/48/48
f 49/49/49 50/50/50 51/51/51
f 52/52/52 53/53/53 54/54/54
f 55/55/55 56/56/56 57/57/57
f 58/58/58 59/59/59 60/60/60
f 61/61/61 62/62/62 63/63/63
f 64/64/64 65/65/65 66/66/66
f 67/67/67 68/68/68 69/69/69
f 70/70/70 71/71/71 72/72/72
f 73/73/73 74/74/74 75/75/75
f 76/76/76 77/77/77 78/78/78
f 79/79/79 80/80/80 81/81/81
f 82/82/82 83/83/83 84/84/84
f 85/85/85 86/86/86 87/87/87
f 88/88/88 89/89/89 90/90/90
f 91/91/91 92/92/92 93/93/93
f 94/94/94 95/95/95 96/96/96
f 97/97/97 98/98/98 99/99/99
f 100/100/100 101/101/101 102/102/102
f 103/103/103 104/104/104 105/105/105
f 106/106/106 107/107/107 108/108/108
f 109/109/109 110/110/110 111/111/111
f 112/112/112 113/113/113 114/114/114
f 115/115/115 116/116/116 117/117/117
f 118/118/118 119/119/119 120/120/120
f 121/121/121 122/122/122 123/123/123
f 124/124/124 125/125/125 126/126/126
f 127/127/127 128/128/128 129/129/129
f 130/130/130 131/131/131 132/132/132
f 133/133/133 134/134/134 135/135/135
f 136/136/136 137/137/137 138/138/138
f 139/139/139 140/140/140 141/141/141
f 142/142/142 143/143/143 144/144/144
f 145/145/145 146/146/146 147/147/147
f 148/148/148 149/149/149 150/150/150
f 151/151/151 152/152/152 153/153/153
f 154/154/154 155/155/155 156/156/156
f 157/157/157 158/158/158 159/159/159
f 160/160/160 161/161/161 162/162/162
f 163/163/163 164/164/164 165/165/165
f 166/166/166 167/167/167 168/168/168
f 169/169/169 170/170/170 171/171/171
f 172/172/172 173/173/173 174/174/174
f 175/175/175 176/176/176 177/177/177
f 178/178/178 179/179/179 180/180/180
f 181/181/181 182/182/182 183/183/183
f 184/184/184 185/185/185 186/186/186
f 187/187/187 188/188/188 189/189/189
f 190/190/190 191/191/191 192/192/192
f 193/193/193 194/194/194 195/195/195
f 196/196/196 197/197/197 198/198/198
f 199/199/199 200/200/200 201/201/201
f 202/202/202 203/203/203 204/204/204
f 205/205/205 206/206/206 207/207/207
f 208/208/208 209/209/209 210/210/210
f 211/211/211 212/212/212 213/213/213
f 214/214/214 215/215/215 216/216/216
f 217/217/217 218/218/218 219/219/219
f 220/220/220 221/221/221 222/222/222
f 223/223/223 224/224/224 225/225/225
f 226/226/226 227/227/227 228/228/228
f 229/229/229 230/230/230 231/231/231
f 232/232/232 233/233/233 234/234/234
f 235/235/235 236/236/236 237/237/237
f 238/238/238 239/239/239 240/240/240
f 241/241/241 242/242/242 243/243/243
f 244/244/244 245/245/245 246/246/246
f 247/247/247 248/248/248 249/249/249
f 250/250/250 251/251/251 252/252/252
f 253/253/253 254/254/254 255/255/255
f 256/256/256 257/257/257 258/258/258
f 259/259/259 260/260/260 261/261/261
f 262/262/262 263/263/263 264/264/264
f 265/265/265 266/266/266 267/267/267
f 268/268/268 269/269/269 270/270/270
f 271/271/271 272/272/272 273/273/273
f 274/274/274 275/275/275 276/276/276
f 277/277/277 278/278/278 279/279/279
f 280/280/280 281/281/281 282/282/282
f 283/283/283 284/284/284 285/285/285
f 286/286/286 287/287/287 288/288/288
f 289/289/289 290/290/290 291/291/291
f 292/292/292 293/293/293 294/294/294
f 295/295/295 296/296/296 297/297/297
f 298/298/298 299/299/299 300/300/300
f 301/301/301 302/302/302 303/303/303
f 304/304/304 305/305/305 306/306/306
f 307/307/307 308/308/308 309/309/309
f 310/310/310 311/311/311 312/312/312
f 313/313/313 314/314/314 315/315/315
f 316/316/316 317/317/317 318/318/318
f 319/319/319 320/320/320 321/321/321
f 322/322/322 323/323/323 324/324/324
f 325/325/325 326/326/326 327/327/327
f 328/328/328 329/329/329 330/330/330
f 331/331/331 332/332/332 333/333/333
f 334/334/334 335/335/335 336/336/336
f 337/337/337 338/338/338 339/339/339
f 340/340/340 341/341/341 342/342/342
f 343/343/343 344/344/344 345/345/345
f 346/346/346 347/347/347 348/348/348
f 349/349/349 350/350/350 351/351/351
f 352/352/352 353/353/353 354/354/354
f 355/355/355 356/356/356 357/357/357
f 358/358/358 359/359/359 360/360/360
f 361/361/361 362/362/362 363/363/363
f 364/364/364 365/365/365 366/366/366
f 367/367/367 368/368/368 369/369/369
f 370/370/370 371/371/371 372/372/372
f 373/373/373 374/374/374 375/375/375
f 376/376/376 377/377/377 378/378/378
f 379/379/379 380/380/380 381/381/381
f 382/382/382 383/383/383 384/384/384
f 385/385/385 386/386/386 387/387/387
f 388/388/388 389/389/389 390/390/390
f 391/391/391 392/392/392 393/393/393
f 394/394/394 395/395/395 396/396/396
f 397/397/397 398/398/398 399/399/399
