# STALKER Armor converted geometry (MC model units, pivot-relative)
v 2.30000 -0.30000 2.30000
v 2.30000 12.30000 -2.30000
v 2.30000 12.30000 2.30000
v 2.30000 -0.30000 -2.30000
v -2.30000 12.30000 -2.30000
v 2.30000 12.30000 -2.30000
v -2.30000 -0.30000 -2.30000
v -2.30000 12.30000 2.30000
v -2.30000 12.30000 -2.30000
v -2.30000 -0.30000 2.30000
v 2.30000 12.30000 2.30000
v -2.30000 12.30000 2.30000
v -2.30000 12.30000 -2.30000
v 2.30000 12.30000 2.30000
v 2.30000 12.30000 -2.30000
v 2.30000 -0.30000 -2.30000
v -2.30000 -0.30000 2.30000
v -2.30000 -0.30000 -2.30000
v 2.30000 -0.30000 2.30000
v 2.30000 -0.30000 -2.30000
v 2.30000 12.30000 -2.30000
v 2.30000 -0.30000 -2.30000
v -2.30000 -0.30000 -2.30000
v -2.30000 12.30000 -2.30000
v -2.30000 -0.30000 -2.30000
v -2.30000 -0.30000 2.30000
v -2.30000 12.30000 2.30000
v -2.30000 -0.30000 2.30000
v 2.30000 -0.30000 2.30000
v 2.30000 12.30000 2.30000
v -2.30000 12.30000 -2.30000
v -2.30000 12.30000 2.30000
v 2.30000 12.30000 2.30000
v 2.30000 -0.30000 -2.30000
v 2.30000 -0.30000 2.30000
v -2.30000 -0.30000 2.30000
vt 0.57398 0.22146
vt 0.44311 0.00464
vt 0.57385 0.00460
vt 0.28550 0.21948
vt 0.39987 0.00788
vt 0.28240 0.00854
vt 0.39962 0.22241
vt 0.53463 0.00566
vt 0.40298 0.00477
vt 0.49320 0.22140
vt 0.57306 0.00639
vt 0.49320 0.00639
vt 0.34017 0.15720
vt 0.28400 0.21337
vt 0.28400 0.15720
vt 0.33251 0.16223
vt 0.28302 0.21173
vt 0.28302 0.16223
vt 0.57398 0.22146
vt 0.44323 0.22150
vt 0.44311 0.00464
vt 0.28550 0.21948
vt 0.40297 0.21882
vt 0.39987 0.00788
vt 0.39962 0.22241
vt 0.53127 0.22330
vt 0.53463 0.00566
vt 0.49320 0.22140
vt 0.57306 0.22140
vt 0.57306 0.00639
vt 0.34017 0.15720
vt 0.34017 0.21337
vt 0.28400 0.21337
vt 0.33251 0.16223
vt 0.33251 0.21173
vt 0.28302 0.21173
vn 1.00000 -0.00000 0.00000
vn 1.00000 -0.00000 0.00000
vn 1.00000 -0.00000 0.00000
vn 0.00000 -0.00000 -1.00000
vn 0.00000 -0.00000 -1.00000
vn 0.00000 -0.00000 -1.00000
vn -1.00000 -0.00000 -0.00000
vn -1.00000 -0.00000 -0.00000
vn -1.00000 -0.00000 -0.00000
vn 0.00000 -0.00000 1.00000
vn 0.00000 -0.00000 1.00000
vn 0.00000 -0.00000 1.00000
vn 0.00000 1.00000 -0.00000
vn 0.00000 1.00000 -0.00000
vn 0.00000 1.00000 -0.00000
vn 0.00000 -1.00000 0.00000
vn 0.00000 -1.00000 0.00000
vn 0.00000 -1.00000 0.00000
vn 1.00000 -0.00000 0.00000
vn 1.00000 -0.00000 0.00000
vn 1.00000 -0.00000 0.00000
vn 0.00000 -0.00000 -1.00000
vn 0.00000 -0.00000 -1.00000
vn 0.00000 -0.00000 -1.00000
vn -1.00000 -0.00000 -0.00000
vn -1.00000 -0.00000 -0.00000
vn -1.00000 -0.00000 -0.00000
vn 0.00000 -0.00000 1.00000
vn 0.00000 -0.00000 1.00000
vn 0.00000 -0.00000 1.00000
vn 0.00000 1.00000 -0.00000
vn 0.00000 1.00000 -0.00000
vn 0.00000 1.00000 -0.00000
vn 0.00000 -1.00000 0.00000
vn 0.00000 -1.00000 0.00000
vn 0.00000 -1.00000 0.00000
f 1/1/1 2/2/2 3/3/3
f 4/4/4 5/5/5 6/6/6
f 7/7/7 8/8/8 9/9/9
f 10/10/10 11/11/11 12/12/12
f 13/13/13 14/14/14 15/15/15
f 16/16/16 17/17/17 18/18/18
f 19/19/19 20/20/20 21/21/21
f 22/22/22 23/23/23 24/24/24
f 25/25/25 26/26/26 27/27/27
f 28/28/28 29/29/29 30/30/30
f 31/31/31 32/32/32 33/33/33
f 34/34/34 35/35/35 36/36/36
