# STALKER Armor converted geometry (MC model units, pivot-relative)
v -4.09605 0.06099 -2.85672
v -3.72115 4.46032 3.17683
v -3.72115 4.46032 -2.85672
v -2.10254 9.95790 3.17683
v 0.02546 12.79558 3.17683
v -4.32660 12.79558 3.17683
v 0.02546 12.79558 3.17683
v 0.02546 7.92292 3.17683
v 0.02546 12.79558 3.17683
v 0.02546 12.79558 -2.85672
v -4.20919 11.17921 -2.85672
v -4.32660 12.79558 -2.85672
v 0.02546 12.79558 3.17683
v -4.32660 12.79558 -2.85672
v -4.32660 12.79558 3.17683
v -4.09605 0.06099 3.17683
v -4.05247 -0.48654 -2.36558
v -3.78137 -0.48654 2.66983
v -0.33721 0.06099 3.17683
v -1.66863 0.06099 -2.85672
v -0.33721 1.05922 -2.85672
v -2.69418 -0.48654 2.66983
v -4.05247 -0.48654 -2.36558
v -2.15057 -0.48654 -2.36558
v -4.09605 0.06099 -2.85672
v -2.15057 -0.48654 -2.36558
v -4.05247 -0.48654 -2.36558
v -2.42330 0.06099 3.17683
v -2.15057 -0.48654 -2.36558
v -1.66863 0.06099 -2.85672
v -2.42330 0.06099 3.17683
v -3.78137 -0.48654 2.66983
v -2.69418 -0.48654 2.66983
v -4.32660 12.79558 3.17683
v -3.79956 6.49727 -2.85672
v -3.72115 4.46032 3.17683
v -4.31824 -0.14866 -2.43740
v -4.31824 12.25142 2.67861
v -4.31824 12.25142 -2.43740
v -4.31824 -0.14866 2.67861
v 0.03382 -0.14866 2.67861
v 0.03382 4.96404 2.67861
v 0.03382 4.96404 2.67861
v 0.03382 12.25142 -2.43740
v 0.03382 12.25142 2.67861
v 0.03382 4.96404 -2.43740
v -4.31824 -0.14866 -2.43740
v -4.31824 12.25142 -2.43740
v 0.03382 12.25142 2.67861
v -4.31824 12.25142 -2.43740
v -4.31824 12.25142 2.67861
v -4.31824 -0.14866 2.67861
v 0.03382 -0.14866 -2.43740
v 0.03382 -0.14866 2.67861
v -1.74004 0.39581 -3.15699
v -3.84473 0.39581 -3.15699
v -3.51968 4.21024 -3.15699
v 0.02546 11.17921 -2.85672
v -3.79956 6.49727 -2.85672
v -4.20919 11.17921 -2.85672
v -0.33721 1.05922 -2.85672
v -1.74004 0.39581 -3.15699
v -0.34559 1.35029 -3.53507
v -1.66863 0.06099 -2.85672
v -3.84473 0.39581 -3.15699
v -1.74004 0.39581 -3.15699
v -3.72115 4.46032 -2.85672
v -3.84473 0.39581 -3.15699
v -4.09605 0.06099 -2.85672
v -3.72115 4.46032 -2.85672
v -3.58766 6.10369 -3.15699
v -3.51968 4.21024 -3.15699
v -0.33721 5.92154 -2.85672
v -3.58766 6.10369 -3.15699
v -3.79956 6.49727 -2.85672
v -0.34559 5.60450 -3.53507
v 0.01958 1.35029 -3.53991
v -0.34559 1.35029 -3.53507
v 0.03382 4.96404 2.67861
v 0.03382 -0.14866 -2.43740
v 0.03382 4.96404 -2.43740
v -0.33721 1.05922 -2.85672
v 0.02796 0.06099 3.17199
v -0.33721 0.06099 3.17683
v 0.02546 7.92292 3.17683
v 0.02546 4.96404 -2.85672
v 0.02546 11.17921 -2.85672
v -0.33721 5.92154 -2.85672
v 0.02546 11.17921 -2.85672
v 0.02546 4.96404 -2.85672
v 0.02546 11.17921 -2.85672
v 0.02546 12.79558 -2.85672
v 0.02546 11.17921 -2.85672
v 0.02546 12.79558 -2.85672
v 0.02546 12.79558 3.17683
v 0.02546 12.79558 -2.85672
v -0.33721 4.96404 3.17683
v 0.02546 4.96404 -2.85672
v 0.02546 4.96404 3.17683
v 0.02796 1.05922 -2.86156
v 0.01958 5.60450 -3.53991
v 0.02796 5.92154 -2.86156
v 0.02796 4.96404 3.17199
v 0.02796 1.05922 -2.86156
v 0.02796 5.92154 -2.86156
v -0.34559 5.60450 -3.53507
v 0.02796 5.92154 -2.86156
v 0.01958 5.60450 -3.53991
v -0.34559 1.35029 -3.53507
v 0.02796 1.05922 -2.86156
v -0.33721 1.05922 -2.85672
v -0.33721 5.92154 -2.85672
v 0.02796 4.96404 3.17199
v 0.02796 5.92154 -2.86156
v -0.33721 0.06099 3.17683
v 0.02796 4.96404 3.17199
v -0.33721 4.96404 3.17683
v -2.10254 9.95790 3.17683
v 0.24519 11.20560 4.20588
v -0.20019 9.95790 3.17683
v 0.02546 7.92292 3.17683
v -0.33721 4.96404 3.17683
v 0.02546 4.96404 3.17683
v 0.06416 -0.51786 7.79262
v 0.06416 5.02889 7.79262
v -3.52844 -0.10681 7.79262
v -2.94574 0.56665 3.17683
v -3.15115 8.25026 4.20588
v -2.45860 7.57830 3.17683
v 0.17413 9.94980 3.17359
v 0.60205 4.99342 4.20588
v 0.03710 4.95594 3.17359
v -2.42330 0.06099 3.17683
v 0.03913 -1.08586 4.20588
v -3.09807 -1.08586 4.20588
v 0.24519 11.20560 6.67424
v 0.79987 10.62753 7.78468
v 0.80811 11.19554 6.66629
v -2.10254 9.95790 3.17683
v -3.15115 8.25026 4.20588
v -2.61568 11.20560 4.20588
v -2.42330 0.06099 3.17683
v -3.88375 -0.45786 4.20588
v -2.94574 0.56665 3.17683
v -3.01419 -0.51786 7.79262
v 0.03913 -1.08586 6.67424
v 0.06416 -0.51786 7.79262
v 0.23695 10.63760 7.79262
v 0.62708 5.01883 7.78468
v 0.79987 10.62753 7.78468
v 0.03710 0.05289 3.17359
v 0.60205 4.99342 4.20588
v 0.60205 -1.09593 4.20588
v -3.01419 -0.51786 7.79262
v -3.88375 -0.45786 6.67424
v -3.09807 -1.08586 6.67424
v -3.52844 -0.10681 7.79262
v -3.15115 8.25026 6.67424
v -3.88375 -0.45786 6.67424
v -2.53180 10.63760 7.79262
v -3.15115 8.25026 6.67424
v -2.79584 7.89921 7.79262
v -2.53180 10.63760 7.79262
v 0.24519 11.20560 6.67424
v -2.61568 11.20560 6.67424
v 0.06416 -0.51786 7.79262
v 0.62708 5.01883 7.78468
v 0.06416 5.02889 7.79262
v -0.20019 9.95790 3.17683
v 0.03710 4.95594 3.17359
v -0.33721 4.96404 3.17683
v 0.03913 -1.08586 4.20588
v 0.60205 -1.09593 6.66629
v 0.03913 -1.08586 6.67424
v 0.03913 -1.08586 6.67424
v 0.62708 -0.52792 7.78468
v 0.06416 -0.51786 7.79262
v -0.33721 0.06099 3.17683
v 0.03710 4.95594 3.17359
v 0.03710 0.05289 3.17359
v 0.24519 11.20560 4.20588
v 0.17413 9.94980 3.17359
v -0.20019 9.95790 3.17683
v 0.03913 -1.08586 4.20588
v -3.09807 -1.08586 6.67424
v -3.09807 -1.08586 4.20588
v -3.88375 -0.45786 4.20588
v -3.15115 8.25026 6.67424
v -3.15115 8.25026 4.20588
v 0.79987 10.62753 7.78468
v 0.62708 5.01883 7.78468
v 0.60205 4.99342 6.66629
v 0.60205 4.99342 6.66629
v 0.62708 -0.52792 7.78468
v 0.60205 -1.09593 6.66629
v 0.03913 -1.08586 4.20588
v 0.03710 0.05289 3.17359
v 0.60205 -1.09593 4.20588
v -3.88375 -0.45786 4.20588
v -3.09807 -1.08586 6.67424
v -3.88375 -0.45786 6.67424
v 0.24519 11.20560 4.20588
v 0.80811 11.19554 6.66629
v 0.80811 11.19554 4.20588
v -2.61568 11.20560 4.20588
v 0.24519 11.20560 6.67424
v 0.24519 11.20560 4.20588
v -3.15115 8.25026 4.20588
v -2.61568 11.20560 6.67424
v -2.61568 11.20560 4.20588
v 3.72115 4.46032 3.17683
v 4.09605 0.06099 -2.85672
v 3.72115 4.46032 -2.85672
v 2.94574 0.56665 3.17683
v 4.09605 0.06099 3.17683
v 3.72115 4.46032 3.17683
v -0.02546 12.79558 3.17683
v -0.02546 7.92292 3.17683
v 0.20019 9.95790 3.17683
v -0.02546 12.79558 -2.85672
v 4.20919 11.17921 -2.85672
v -0.02546 11.17921 -2.85672
v 4.32660 12.79558 -2.85672
v -0.02546 12.79558 3.17683
v 4.32660 12.79558 3.17683
v 4.09605 0.06099 3.17683
v 4.05247 -0.48654 -2.36558
v 4.09605 0.06099 -2.85672
v 0.33721 0.06099 3.17683
v 1.66863 0.06099 -2.85672
v 2.42330 0.06099 3.17683
v 2.69418 -0.48654 2.66983
v 4.05247 -0.48654 -2.36558
v 3.78137 -0.48654 2.66983
v 4.09605 0.06099 -2.85672
v 2.15057 -0.48654 -2.36558
v 1.66863 0.06099 -2.85672
v 2.15057 -0.48654 -2.36558
v 2.42330 0.06099 3.17683
v 1.66863 0.06099 -2.85672
v 2.42330 0.06099 3.17683
v 3.78137 -0.48654 2.66983
v 4.09605 0.06099 3.17683
v 3.79956 6.49727 -2.85672
v 4.20919 11.17921 -2.85672
v 4.32660 12.79558 3.17683
v 4.31824 12.25142 2.67861
v 4.31824 -0.14866 -2.43740
v 4.31824 12.25142 -2.43740
v -0.03382 4.96404 2.67861
v -0.03382 -0.14866 2.67861
v 4.31824 -0.14866 2.67861
v -0.03382 12.25142 -2.43740
v -0.03382 4.96404 2.67861
v -0.03382 12.25142 2.67861
v 4.31824 -0.14866 -2.43740
v -0.03382 -0.14866 -2.43740
v -0.03382 4.96404 -2.43740
v 4.31824 12.25142 -2.43740
v -0.03382 12.25142 2.67861
v 4.31824 12.25142 2.67861
v -0.03382 -0.14866 -2.43740
v 4.31824 -0.14866 2.67861
v -0.03382 -0.14866 2.67861
v 0.34559 1.35029 -3.53507
v 0.34559 5.60450 -3.53507
v 3.51968 4.21024 -3.15699
v 3.79956 6.49727 -2.85672
v -0.02546 11.17921 -2.85672
v 4.20919 11.17921 -2.85672
v 0.33721 1.05922 -2.85672
v 1.74004 0.39581 -3.15699
v 1.66863 0.06099 -2.85672
v 1.66863 0.06099 -2.85672
v 3.84473 0.39581 -3.15699
v 4.09605 0.06099 -2.85672
v 3.84473 0.39581 -3.15699
v 3.72115 4.46032 -2.85672
v 4.09605 0.06099 -2.85672
v 3.72115 4.46032 -2.85672
v 3.58766 6.10369 -3.15699
v 3.79956 6.49727 -2.85672
v 3.58766 6.10369 -3.15699
v 0.33721 5.92154 -2.85672
v 3.79956 6.49727 -2.85672
v -0.01958 1.35029 -3.53991
v 0.34559 5.60450 -3.53507
v 0.34559 1.35029 -3.53507
v -0.03382 -0.14866 -2.43740
v -0.03382 4.96404 2.67861
v -0.03382 4.96404 -2.43740
v -0.02796 0.06099 3.17199
v 0.33721 1.05922 -2.85672
v 0.33721 0.06099 3.17683
v -0.02546 4.96404 -2.85672
v -0.02546 4.96404 3.17683
v -0.02546 7.92292 3.17683
v 0.33721 5.92154 -2.85672
v -0.02546 11.17921 -2.85672
v -0.02546 11.17921 -2.85672
v -0.02546 11.17921 -2.85672
v -0.02546 12.79558 -2.85672
v -0.02546 12.79558 -2.85672
v -0.02546 12.79558 -2.85672
v -0.02546 12.79558 3.17683
v -0.02546 12.79558 3.17683
v 0.33721 4.96404 3.17683
v -0.02546 4.96404 -2.85672
v 0.33721 5.92154 -2.85672
v -0.01958 5.60450 -3.53991
v -0.02796 1.05922 -2.86156
v -0.02796 5.92154 -2.86156
v -0.02796 1.05922 -2.86156
v -0.02796 4.96404 3.17199
v -0.02796 5.92154 -2.86156
v 0.34559 5.60450 -3.53507
v -0.02796 5.92154 -2.86156
v 0.33721 5.92154 -2.85672
v -0.02796 1.05922 -2.86156
v 0.34559 1.35029 -3.53507
v 0.33721 1.05922 -2.85672
v 0.33721 5.92154 -2.85672
v -0.02796 4.96404 3.17199
v 0.33721 4.96404 3.17683
v -0.02796 4.96404 3.17199
v 0.33721 0.06099 3.17683
v 0.33721 4.96404 3.17683
v -0.24519 11.20560 4.20588
v 2.10254 9.95790 3.17683
v 0.20019 9.95790 3.17683
v -0.02546 7.92292 3.17683
v 0.33721 4.96404 3.17683
v 0.20019 9.95790 3.17683
v 3.52844 -0.10681 7.79262
v 2.79584 7.89921 7.79262
v -0.06416 5.02889 7.79262
v 3.15115 8.25026 4.20588
v 2.94574 0.56665 3.17683
v 2.45860 7.57830 3.17683
v -0.60205 4.99342 4.20588
v -0.17413 9.94980 3.17359
v -0.03710 4.95594 3.17359
v 2.42330 0.06099 3.17683
v -0.03913 -1.08586 4.20588
v 0.33721 0.06099 3.17683
v -0.24519 11.20560 6.67424
v -0.79987 10.62753 7.78468
v -0.23695 10.63760 7.79262
v 2.10254 9.95790 3.17683
v 3.15115 8.25026 4.20588
v 2.45860 7.57830 3.17683
v 3.88375 -0.45786 4.20588
v 2.42330 0.06099 3.17683
v 2.94574 0.56665 3.17683
v -0.03913 -1.08586 6.67424
v 3.01419 -0.51786 7.79262
v -0.06416 -0.51786 7.79262
v -0.23695 10.63760 7.79262
v -0.62708 5.01883 7.78468
v -0.06416 5.02889 7.79262
v -0.03710 0.05289 3.17359
v -0.60205 4.99342 4.20588
v -0.03710 4.95594 3.17359
v 3.01419 -0.51786 7.79262
v 3.88375 -0.45786 6.67424
v 3.52844 -0.10681 7.79262
v 3.52844 -0.10681 7.79262
v 3.15115 8.25026 6.67424
v 2.79584 7.89921 7.79262
v 3.15115 8.25026 6.67424
v 2.53180 10.63760 7.79262
v 2.79584 7.89921 7.79262
v 2.53180 10.63760 7.79262
v -0.24519 11.20560 6.67424
v -0.23695 10.63760 7.79262
v -0.62708 5.01883 7.78468
v -0.06416 -0.51786 7.79262
v -0.06416 5.02889 7.79262
v -0.03710 4.95594 3.17359
v 0.20019 9.95790 3.17683
v 0.33721 4.96404 3.17683
v -0.60205 -1.09593 6.66629
v -0.03913 -1.08586 4.20588
v -0.03913 -1.08586 6.67424
v -0.62708 -0.52792 7.78468
v -0.03913 -1.08586 6.67424
v -0.06416 -0.51786 7.79262
v 0.33721 0.06099 3.17683
v -0.03710 4.95594 3.17359
v 0.33721 4.96404 3.17683
v -0.17413 9.94980 3.17359
v -0.24519 11.20560 4.20588
v 0.20019 9.95790 3.17683
v 3.09807 -1.08586 6.67424
v -0.03913 -1.08586 4.20588
v 3.09807 -1.08586 4.20588
v 3.15115 8.25026 6.67424
v 3.88375 -0.45786 4.20588
v 3.15115 8.25026 4.20588
v -0.80811 11.19554 6.66629
v -0.80811 11.19554 4.20588
v -0.60205 4.99342 6.66629
v -0.60205 4.99342 6.66629
v -0.60205 4.99342 4.20588
v -0.60205 -1.09593 6.66629
v -0.03710 0.05289 3.17359
v -0.03913 -1.08586 4.20588
v -0.60205 -1.09593 4.20588
v 3.88375 -0.45786 4.20588
v 3.09807 -1.08586 6.67424
v 3.09807 -1.08586 4.20588
v -0.80811 11.19554 6.66629
v -0.24519 11.20560 4.20588
v -0.80811 11.19554 4.20588
v -0.24519 11.20560 6.67424
v 2.61568 11.20560 4.20588
v -0.24519 11.20560 4.20588
v 2.61568 11.20560 6.67424
v 3.15115 8.25026 4.20588
v 2.61568 11.20560 4.20588
v -4.09605 0.06099 -2.85672
v -4.09605 0.06099 3.17683
v -3.72115 4.46032 3.17683
v -4.09605 0.06099 3.17683
v -2.42330 0.06099 3.17683
v -2.94574 0.56665 3.17683
v -4.09605 0.06099 3.17683
v -2.94574 0.56665 3.17683
v -3.72115 4.46032 3.17683
v -2.94574 0.56665 3.17683
v -2.45860 7.57830 3.17683
v -3.72115 4.46032 3.17683
v -2.10254 9.95790 3.17683
v -0.20019 9.95790 3.17683
v 0.02546 12.79558 3.17683
v -3.72115 4.46032 3.17683
v -2.45860 7.57830 3.17683
v -4.32660 12.79558 3.17683
v -2.45860 7.57830 3.17683
v -2.10254 9.95790 3.17683
v -4.32660 12.79558 3.17683
v 0.02546 12.79558 3.17683
v -0.20019 9.95790 3.17683
v 0.02546 7.92292 3.17683
v 0.02546 12.79558 -2.85672
v 0.02546 11.17921 -2.85672
v -4.20919 11.17921 -2.85672
v 0.02546 12.79558 3.17683
v 0.02546 12.79558 -2.85672
v -4.32660 12.79558 -2.85672
v -4.09605 0.06099 3.17683
v -4.09605 0.06099 -2.85672
v -4.05247 -0.48654 -2.36558
v -0.33721 0.06099 3.17683
v -2.42330 0.06099 3.17683
v -1.66863 0.06099 -2.85672
v -2.69418 -0.48654 2.66983
v -3.78137 -0.48654 2.66983
v -4.05247 -0.48654 -2.36558
v -4.09605 0.06099 -2.85672
v -1.66863 0.06099 -2.85672
v -2.15057 -0.48654 -2.36558
v -2.42330 0.06099 3.17683
v -2.69418 -0.48654 2.66983
v -2.15057 -0.48654 -2.36558
v -2.42330 0.06099 3.17683
v -4.09605 0.06099 3.17683
v -3.78137 -0.48654 2.66983
v -4.32660 12.79558 3.17683
v -4.32660 12.79558 -2.85672
v -4.20919 11.17921 -2.85672
v -4.20919 11.17921 -2.85672
v -3.79956 6.49727 -2.85672
v -4.32660 12.79558 3.17683
v -3.79956 6.49727 -2.85672
v -3.72115 4.46032 -2.85672
v -3.72115 4.46032 3.17683
v -4.31824 -0.14866 -2.43740
v -4.31824 -0.14866 2.67861
v -4.31824 12.25142 2.67861
v 0.03382 12.25142 2.67861
v -4.31824 12.25142 2.67861
v 0.03382 4.96404 2.67861
v -4.31824 12.25142 2.67861
v -4.31824 -0.14866 2.67861
v 0.03382 4.96404 2.67861
v 0.03382 4.96404 2.67861
v 0.03382 4.96404 -2.43740
v 0.03382 12.25142 -2.43740
v -4.31824 12.25142 -2.43740
v 0.03382 12.25142 -2.43740
v 0.03382 4.96404 -2.43740
v 0.03382 4.96404 -2.43740
v 0.03382 -0.14866 -2.43740
v -4.31824 -0.14866 -2.43740
v 0.03382 12.25142 2.67861
v 0.03382 12.25142 -2.43740
v -4.31824 12.25142 -2.43740
v -4.31824 -0.14866 2.67861
v -4.31824 -0.14866 -2.43740
v 0.03382 -0.14866 -2.43740
v -3.51968 4.21024 -3.15699
v -3.58766 6.10369 -3.15699
v -0.34559 5.60450 -3.53507
v -0.34559 5.60450 -3.53507
v -0.34559 1.35029 -3.53507
v -3.51968 4.21024 -3.15699
v -0.34559 1.35029 -3.53507
v -1.74004 0.39581 -3.15699
v -3.51968 4.21024 -3.15699
v 0.02546 11.17921 -2.85672
v -0.33721 5.92154 -2.85672
v -3.79956 6.49727 -2.85672
v -0.33721 1.05922 -2.85672
v -1.66863 0.06099 -2.85672
v -1.74004 0.39581 -3.15699
v -1.66863 0.06099 -2.85672
v -4.09605 0.06099 -2.85672
v -3.84473 0.39581 -3.15699
v -3.72115 4.46032 -2.85672
v -3.51968 4.21024 -3.15699
v -3.84473 0.39581 -3.15699
v -3.72115 4.46032 -2.85672
v -3.79956 6.49727 -2.85672
v -3.58766 6.10369 -3.15699
v -0.33721 5.92154 -2.85672
v -0.34559 5.60450 -3.53507
v -3.58766 6.10369 -3.15699
v -0.34559 5.60450 -3.53507
v 0.01958 5.60450 -3.53991
v 0.01958 1.35029 -3.53991
v 0.03382 4.96404 2.67861
v 0.03382 -0.14866 2.67861
v 0.03382 -0.14866 -2.43740
v -0.33721 1.05922 -2.85672
v 0.02796 1.05922 -2.86156
v 0.02796 0.06099 3.17199
v 0.02546 12.79558 -2.85672
v 0.02546 12.79558 3.17683
v 0.02546 11.17921 -2.85672
v 0.02546 12.79558 3.17683
v 0.02546 7.92292 3.17683
v 0.02546 11.17921 -2.85672
v 0.02546 7.92292 3.17683
v 0.02546 4.96404 3.17683
v 0.02546 4.96404 -2.85672
v -0.33721 5.92154 -2.85672
v 0.02546 11.17921 -2.85672
v 0.02546 11.17921 -2.85672
v 0.02546 11.17921 -2.85672
v 0.02546 12.79558 -2.85672
v 0.02546 12.79558 -2.85672
v 0.02546 12.79558 -2.85672
v 0.02546 12.79558 3.17683
v 0.02546 12.79558 3.17683
v -0.33721 4.96404 3.17683
v -0.33721 5.92154 -2.85672
v 0.02546 4.96404 -2.85672
v 0.02796 1.05922 -2.86156
v 0.01958 1.35029 -3.53991
v 0.01958 5.60450 -3.53991
v 0.02796 4.96404 3.17199
v 0.02796 0.06099 3.17199
v 0.02796 1.05922 -2.86156
v -0.34559 5.60450 -3.53507
v -0.33721 5.92154 -2.85672
v 0.02796 5.92154 -2.86156
v -0.34559 1.35029 -3.53507
v 0.01958 1.35029 -3.53991
v 0.02796 1.05922 -2.86156
v -0.33721 5.92154 -2.85672
v -0.33721 4.96404 3.17683
v 0.02796 4.96404 3.17199
v -0.33721 0.06099 3.17683
v 0.02796 0.06099 3.17199
v 0.02796 4.96404 3.17199
v -2.10254 9.95790 3.17683
v -2.61568 11.20560 4.20588
v 0.24519 11.20560 4.20588
v 0.02546 7.92292 3.17683
v -0.20019 9.95790 3.17683
v -0.33721 4.96404 3.17683
v 0.06416 5.02889 7.79262
v 0.23695 10.63760 7.79262
v -2.79584 7.89921 7.79262
v 0.23695 10.63760 7.79262
v -2.53180 10.63760 7.79262
v -2.79584 7.89921 7.79262
v -2.79584 7.89921 7.79262
v -3.52844 -0.10681 7.79262
v 0.06416 5.02889 7.79262
v -3.52844 -0.10681 7.79262
v -3.01419 -0.51786 7.79262
v 0.06416 -0.51786 7.79262
v -2.94574 0.56665 3.17683
v -3.88375 -0.45786 4.20588
v -3.15115 8.25026 4.20588
v 0.17413 9.94980 3.17359
v 0.80811 11.19554 4.20588
v 0.60205 4.99342 4.20588
v -2.42330 0.06099 3.17683
v -0.33721 0.06099 3.17683
v 0.03913 -1.08586 4.20588
v 0.24519 11.20560 6.67424
v 0.23695 10.63760 7.79262
v 0.79987 10.62753 7.78468
v -2.10254 9.95790 3.17683
v -2.45860 7.57830 3.17683
v -3.15115 8.25026 4.20588
v -2.42330 0.06099 3.17683
v -3.09807 -1.08586 4.20588
v -3.88375 -0.45786 4.20588
v -3.01419 -0.51786 7.79262
v -3.09807 -1.08586 6.67424
v 0.03913 -1.08586 6.67424
v 0.23695 10.63760 7.79262
v 0.06416 5.02889 7.79262
v 0.62708 5.01883 7.78468
v 0.03710 0.05289 3.17359
v 0.03710 4.95594 3.17359
v 0.60205 4.99342 4.20588
v -3.01419 -0.51786 7.79262
v -3.52844 -0.10681 7.79262
v -3.88375 -0.45786 6.67424
v -3.52844 -0.10681 7.79262
v -2.79584 7.89921 7.79262
v -3.15115 8.25026 6.67424
v -2.53180 10.63760 7.79262
v -2.61568 11.20560 6.67424
v -3.15115 8.25026 6.67424
v -2.53180 10.63760 7.79262
v 0.23695 10.63760 7.79262
v 0.24519 11.20560 6.67424
v 0.06416 -0.51786 7.79262
v 0.62708 -0.52792 7.78468
v 0.62708 5.01883 7.78468
v -0.20019 9.95790 3.17683
v 0.17413 9.94980 3.17359
v 0.03710 4.95594 3.17359
v 0.03913 -1.08586 4.20588
v 0.60205 -1.09593 4.20588
v 0.60205 -1.09593 6.66629
v 0.03913 -1.08586 6.67424
v 0.60205 -1.09593 6.66629
v 0.62708 -0.52792 7.78468
v -0.33721 0.06099 3.17683
v -0.33721 4.96404 3.17683
v 0.03710 4.95594 3.17359
v 0.24519 11.20560 4.20588
v 0.80811 11.19554 4.20588
v 0.17413 9.94980 3.17359
v 0.03913 -1.08586 4.20588
v 0.03913 -1.08586 6.67424
v -3.09807 -1.08586 6.67424
v -3.88375 -0.45786 4.20588
v -3.88375 -0.45786 6.67424
v -3.15115 8.25026 6.67424
v 0.60205 4.99342 6.66629
v 0.60205 4.99342 4.20588
v 0.80811 11.19554 4.20588
v 0.80811 11.19554 4.20588
v 0.80811 11.19554 6.66629
v 0.60205 4.99342 6.66629
v 0.80811 11.19554 6.66629
v 0.79987 10.62753 7.78468
v 0.60205 4.99342 6.66629
v 0.60205 -1.09593 6.66629
v 0.60205 -1.09593 4.20588
v 0.60205 4.99342 4.20588
v 0.60205 4.99342 6.66629
v 0.62708 5.01883 7.78468
v 0.62708 -0.52792 7.78468
v 0.60205 -1.09593 6.66629
v 0.60205 4.99342 4.20588
v 0.60205 4.99342 6.66629
v 0.03913 -1.08586 4.20588
v -0.33721 0.06099 3.17683
v 0.03710 0.05289 3.17359
v -3.88375 -0.45786 4.20588
v -3.09807 -1.08586 4.20588
v -3.09807 -1.08586 6.67424
v 0.24519 11.20560 4.20588
v 0.24519 11.20560 6.67424
v 0.80811 11.19554 6.66629
v -2.61568 11.20560 4.20588
v -2.61568 11.20560 6.67424
v 0.24519 11.20560 6.67424
v -3.15115 8.25026 4.20588
v -3.15115 8.25026 6.67424
v -2.61568 11.20560 6.67424
v 3.72115 4.46032 3.17683
v 4.09605 0.06099 3.17683
v 4.09605 0.06099 -2.85672
v 4.32660 12.79558 3.17683
v -0.02546 12.79558 3.17683
v 2.10254 9.95790 3.17683
v -0.02546 12.79558 3.17683
v 0.20019 9.95790 3.17683
v 2.10254 9.95790 3.17683
v 3.72115 4.46032 3.17683
v 4.32660 12.79558 3.17683
v 2.45860 7.57830 3.17683
v 4.32660 12.79558 3.17683
v 2.10254 9.95790 3.17683
v 2.45860 7.57830 3.17683
v 2.94574 0.56665 3.17683
v 2.42330 0.06099 3.17683
v 4.09605 0.06099 3.17683
v 3.72115 4.46032 3.17683
v 2.45860 7.57830 3.17683
v 2.94574 0.56665 3.17683
v -0.02546 12.79558 3.17683
v -0.02546 12.79558 3.17683
v -0.02546 7.92292 3.17683
v -0.02546 12.79558 -2.85672
v 4.32660 12.79558 -2.85672
v 4.20919 11.17921 -2.85672
v 4.32660 12.79558 -2.85672
v -0.02546 12.79558 -2.85672
v -0.02546 12.79558 3.17683
v 4.09605 0.06099 3.17683
v 3.78137 -0.48654 2.66983
v 4.05247 -0.48654 -2.36558
v 0.33721 0.06099 3.17683
v 0.33721 1.05922 -2.85672
v 1.66863 0.06099 -2.85672
v 2.69418 -0.48654 2.66983
v 2.15057 -0.48654 -2.36558
v 4.05247 -0.48654 -2.36558
v 4.09605 0.06099 -2.85672
v 4.05247 -0.48654 -2.36558
v 2.15057 -0.48654 -2.36558
v 2.15057 -0.48654 -2.36558
v 2.69418 -0.48654 2.66983
v 2.42330 0.06099 3.17683
v 2.42330 0.06099 3.17683
v 2.69418 -0.48654 2.66983
v 3.78137 -0.48654 2.66983
v 4.20919 11.17921 -2.85672
v 4.32660 12.79558 -2.85672
v 4.32660 12.79558 3.17683
v 4.32660 12.79558 3.17683
v 3.72115 4.46032 3.17683
v 3.79956 6.49727 -2.85672
v 3.72115 4.46032 3.17683
v 3.72115 4.46032 -2.85672
v 3.79956 6.49727 -2.85672
v 4.31824 12.25142 2.67861
v 4.31824 -0.14866 2.67861
v 4.31824 -0.14866 -2.43740
v 4.31824 -0.14866 2.67861
v 4.31824 12.25142 2.67861
v -0.03382 4.96404 2.67861
v 4.31824 12.25142 2.67861
v -0.03382 12.25142 2.67861
v -0.03382 4.96404 2.67861
v -0.03382 12.25142 -2.43740
v -0.03382 4.96404 -2.43740
v -0.03382 4.96404 2.67861
v -0.03382 4.96404 -2.43740
v -0.03382 12.25142 -2.43740
v 4.31824 12.25142 -2.43740
v 4.31824 12.25142 -2.43740
v 4.31824 -0.14866 -2.43740
v -0.03382 4.96404 -2.43740
v 4.31824 12.25142 -2.43740
v -0.03382 12.25142 -2.43740
v -0.03382 12.25142 2.67861
v -0.03382 -0.14866 -2.43740
v 4.31824 -0.14866 -2.43740
v 4.31824 -0.14866 2.67861
v 0.34559 5.60450 -3.53507
v 3.58766 6.10369 -3.15699
v 3.51968 4.21024 -3.15699
v 3.51968 4.21024 -3.15699
v 3.84473 0.39581 -3.15699
v 1.74004 0.39581 -3.15699
v 1.74004 0.39581 -3.15699
v 0.34559 1.35029 -3.53507
v 3.51968 4.21024 -3.15699
v 3.79956 6.49727 -2.85672
v 0.33721 5.92154 -2.85672
v -0.02546 11.17921 -2.85672
v 0.33721 1.05922 -2.85672
v 0.34559 1.35029 -3.53507
v 1.74004 0.39581 -3.15699
v 1.66863 0.06099 -2.85672
v 1.74004 0.39581 -3.15699
v 3.84473 0.39581 -3.15699
v 3.84473 0.39581 -3.15699
v 3.51968 4.21024 -3.15699
v 3.72115 4.46032 -2.85672
v 3.72115 4.46032 -2.85672
v 3.51968 4.21024 -3.15699
v 3.58766 6.10369 -3.15699
v 3.58766 6.10369 -3.15699
v 0.34559 5.60450 -3.53507
v 0.33721 5.92154 -2.85672
v -0.01958 1.35029 -3.53991
v -0.01958 5.60450 -3.53991
v 0.34559 5.60450 -3.53507
v -0.03382 -0.14866 -2.43740
v -0.03382 -0.14866 2.67861
v -0.03382 4.96404 2.67861
v -0.02796 0.06099 3.17199
v -0.02796 1.05922 -2.86156
v 0.33721 1.05922 -2.85672
v -0.02546 7.92292 3.17683
v -0.02546 12.79558 3.17683
v -0.02546 11.17921 -2.85672
v -0.02546 12.79558 3.17683
v -0.02546 12.79558 -2.85672
v -0.02546 11.17921 -2.85672
v -0.02546 11.17921 -2.85672
v -0.02546 4.96404 -2.85672
v -0.02546 7.92292 3.17683
v 0.33721 5.92154 -2.85672
v -0.02546 4.96404 -2.85672
v -0.02546 11.17921 -2.85672
v -0.02546 11.17921 -2.85672
v -0.02546 11.17921 -2.85672
v -0.02546 12.79558 -2.85672
v -0.02546 12.79558 -2.85672
v -0.02546 12.79558 -2.85672
v -0.02546 12.79558 3.17683
v 0.33721 4.96404 3.17683
v -0.02546 4.96404 3.17683
v -0.02546 4.96404 -2.85672
v -0.01958 5.60450 -3.53991
v -0.01958 1.35029 -3.53991
v -0.02796 1.05922 -2.86156
v -0.02796 1.05922 -2.86156
v -0.02796 0.06099 3.17199
v -0.02796 4.96404 3.17199
v 0.34559 5.60450 -3.53507
v -0.01958 5.60450 -3.53991
v -0.02796 5.92154 -2.86156
v -0.02796 1.05922 -2.86156
v -0.01958 1.35029 -3.53991
v 0.34559 1.35029 -3.53507
v 0.33721 5.92154 -2.85672
v -0.02796 5.92154 -2.86156
v -0.02796 4.96404 3.17199
v -0.02796 4.96404 3.17199
v -0.02796 0.06099 3.17199
v 0.33721 0.06099 3.17683
v -0.24519 11.20560 4.20588
v 2.61568 11.20560 4.20588
v 2.10254 9.95790 3.17683
v -0.02546 7.92292 3.17683
v -0.02546 4.96404 3.17683
v 0.33721 4.96404 3.17683
v 2.53180 10.63760 7.79262
v -0.23695 10.63760 7.79262
v 2.79584 7.89921 7.79262
v -0.23695 10.63760 7.79262
v -0.06416 5.02889 7.79262
v 2.79584 7.89921 7.79262
v -0.06416 5.02889 7.79262
v -0.06416 -0.51786 7.79262
v 3.52844 -0.10681 7.79262
v -0.06416 -0.51786 7.79262
v 3.01419 -0.51786 7.79262
v 3.52844 -0.10681 7.79262
v 3.15115 8.25026 4.20588
v 3.88375 -0.45786 4.20588
v 2.94574 0.56665 3.17683
v -0.60205 4.99342 4.20588
v -0.80811 11.19554 4.20588
v -0.17413 9.94980 3.17359
v 2.42330 0.06099 3.17683
v 3.09807 -1.08586 4.20588
v -0.03913 -1.08586 4.20588
v -0.24519 11.20560 6.67424
v -0.80811 11.19554 6.66629
v -0.79987 10.62753 7.78468
v 2.10254 9.95790 3.17683
v 2.61568 11.20560 4.20588
v 3.15115 8.25026 4.20588
v 3.88375 -0.45786 4.20588
v 3.09807 -1.08586 4.20588
v 2.42330 0.06099 3.17683
v -0.03913 -1.08586 6.67424
v 3.09807 -1.08586 6.67424
v 3.01419 -0.51786 7.79262
v -0.23695 10.63760 7.79262
v -0.79987 10.62753 7.78468
v -0.62708 5.01883 7.78468
v -0.03710 0.05289 3.17359
v -0.60205 -1.09593 4.20588
v -0.60205 4.99342 4.20588
v 3.01419 -0.51786 7.79262
v 3.09807 -1.08586 6.67424
v 3.88375 -0.45786 6.67424
v 3.52844 -0.10681 7.79262
v 3.88375 -0.45786 6.67424
v 3.15115 8.25026 6.67424
v 3.15115 8.25026 6.67424
v 2.61568 11.20560 6.67424
v 2.53180 10.63760 7.79262
v 2.53180 10.63760 7.79262
v 2.61568 11.20560 6.67424
v -0.24519 11.20560 6.67424
v -0.62708 5.01883 7.78468
v -0.62708 -0.52792 7.78468
v -0.06416 -0.51786 7.79262
v -0.03710 4.95594 3.17359
v -0.17413 9.94980 3.17359
v 0.20019 9.95790 3.17683
v -0.60205 -1.09593 6.66629
v -0.60205 -1.09593 4.20588
v -0.03913 -1.08586 4.20588
v -0.62708 -0.52792 7.78468
v -0.60205 -1.09593 6.66629
v -0.03913 -1.08586 6.67424
v 0.33721 0.06099 3.17683
v -0.03710 0.05289 3.17359
v -0.03710 4.95594 3.17359
v -0.17413 9.94980 3.17359
v -0.80811 11.19554 4.20588
v -0.24519 11.20560 4.20588
v 3.09807 -1.08586 6.67424
v -0.03913 -1.08586 6.67424
v -0.03913 -1.08586 4.20588
v 3.15115 8.25026 6.67424
v 3.88375 -0.45786 6.67424
v 3.88375 -0.45786 4.20588
v -0.80811 11.19554 4.20588
v -0.60205 4.99342 4.20588
v -0.60205 4.99342 6.66629
v -0.60205 4.99342 6.66629
v -0.62708 5.01883 7.78468
v -0.79987 10.62753 7.78468
v -0.79987 10.62753 7.78468
v -0.80811 11.19554 6.66629
v -0.60205 4.99342 6.66629
v -0.60205 4.99342 4.20588
v -0.60205 -1.09593 4.20588
v -0.60205 -1.09593 6.66629
v -0.60205 -1.09593 6.66629
v -0.62708 -0.52792 7.78468
v -0.60205 4.99342 6.66629
v -0.62708 -0.52792 7.78468
v -0.62708 5.01883 7.78468
v -0.60205 4.99342 6.66629
v -0.03710 0.05289 3.17359
v 0.33721 0.06099 3.17683
v -0.03913 -1.08586 4.20588
v 3.88375 -0.45786 4.20588
v 3.88375 -0.45786 6.67424
v 3.09807 -1.08586 6.67424
v -0.80811 11.19554 6.66629
v -0.24519 11.20560 6.67424
v -0.24519 11.20560 4.20588
v -0.24519 11.20560 6.67424
v 2.61568 11.20560 6.67424
v 2.61568 11.20560 4.20588
v 2.61568 11.20560 6.67424
v 3.15115 8.25026 6.67424
v 3.15115 8.25026 4.20588
vt 0.70414 0.76520
vt 0.64905 0.83971
vt 0.64915 0.76528
vt 0.35429 0.19295
vt 0.40813 0.24441
vt 0.29891 0.24651
vt 0.72899 0.33121
vt 0.72804 0.21860
vt 0.72899 0.33121
vt 0.02135 0.48141
vt 0.32182 0.55052
vt 0.33317 0.48523
vt 0.75189 0.18837
vt 0.66518 0.27877
vt 0.66249 0.19008
vt 0.03841 0.60907
vt 0.21568 0.62704
vt 0.05425 0.62677
vt 0.32177 0.19936
vt 0.40905 0.05266
vt 0.31899 0.05176
vt 0.30191 0.91839
vt 0.25926 0.75722
vt 0.31886 0.75729
vt 0.23598 0.92172
vt 0.15175 0.96845
vt 0.23703 0.96448
vt 0.30884 0.93474
vt 0.29104 0.75733
vt 0.30884 0.74169
vt 0.31119 0.93395
vt 0.26784 0.91835
vt 0.30191 0.91839
vt 0.54496 0.83928
vt 0.62371 0.76521
vt 0.64905 0.83971
vt 0.44696 0.93721
vt 0.74357 0.81637
vt 0.74360 0.93721
vt 0.01357 0.24115
vt 0.12346 0.24065
vt 0.12286 0.33578
vt 0.39316 0.24509
vt 0.22934 0.00891
vt 0.39316 0.00891
vt 0.10412 0.68530
vt 0.03867 0.74146
vt 0.03867 0.59816
vt 0.36585 0.71518
vt 0.23114 0.83064
vt 0.22934 0.71580
vt 0.34475 0.84082
vt 0.25019 0.95417
vt 0.25019 0.84066
vt 0.12629 0.99546
vt 0.27709 0.99731
vt 0.26073 0.84272
vt 0.01841 0.54679
vt 0.28396 0.73956
vt 0.32182 0.55052
vt 0.03643 0.98245
vt 0.13392 0.95504
vt 0.03610 0.95153
vt 0.12713 0.92679
vt 0.22287 0.89616
vt 0.12849 0.90056
vt 0.28592 0.80207
vt 0.29659 0.98236
vt 0.31121 0.99544
vt 0.28592 0.80207
vt 0.26344 0.73157
vt 0.27467 0.81469
vt 0.03484 0.75981
vt 0.26904 0.76618
vt 0.28396 0.73956
vt 0.03584 0.78352
vt 0.00196 0.95548
vt 0.02811 0.95562
vt 0.39316 0.24509
vt 0.22934 0.41078
vt 0.22934 0.24508
vt 0.31899 0.05176
vt 0.29789 0.19925
vt 0.32177 0.19936
vt 0.20210 0.61528
vt 0.00891 0.71117
vt 0.00891 0.50974
vt 0.03484 0.75981
vt 0.01841 0.54679
vt 0.00712 0.79822
vt 0.38547 0.42860
vt 0.38547 0.42860
vt 0.38547 0.42860
vt 0.38547 0.42860
vt 0.38547 0.42860
vt 0.38547 0.42860
vt 0.03927 0.72939
vt 0.00891 0.91964
vt 0.03941 0.72899
vt 0.74784 0.51990
vt 0.89176 0.48704
vt 0.90343 0.49490
vt 0.90343 0.69058
vt 0.74784 0.51990
vt 0.90343 0.49490
vt 0.03584 0.78352
vt 0.00869 0.75966
vt 0.00969 0.78338
vt 0.03610 0.95153
vt 0.01159 0.98201
vt 0.03643 0.98245
vt 0.97964 0.39933
vt 0.98985 0.24186
vt 0.99109 0.39944
vt 0.97964 0.12844
vt 0.98985 0.24186
vt 0.97839 0.24175
vt 0.98962 0.34204
vt 0.98281 0.28256
vt 0.98848 0.28239
vt 0.72804 0.21860
vt 0.71610 0.15043
vt 0.72747 0.15021
vt 0.96775 0.62574
vt 0.96587 0.35436
vt 0.82280 0.60536
vt 0.84956 0.32226
vt 0.83602 0.47498
vt 0.84147 0.47526
vt 0.92126 0.48704
vt 0.92944 0.64890
vt 0.92125 0.64890
vt 0.91738 0.56978
vt 0.98276 0.57794
vt 0.91738 0.57787
vt 0.96026 0.28324
vt 0.93914 0.27208
vt 0.95992 0.27150
vt 0.83857 0.52720
vt 0.83602 0.47498
vt 0.83313 0.52692
vt 0.84972 0.31128
vt 0.84412 0.32198
vt 0.84956 0.32226
vt 0.91981 0.62401
vt 0.98277 0.61009
vt 0.98396 0.62409
vt 0.97094 0.07996
vt 0.98857 0.35471
vt 0.99364 0.08031
vt 0.92126 0.80780
vt 0.92944 0.64890
vt 0.92945 0.80780
vt 0.81229 0.31939
vt 0.82248 0.32089
vt 0.82264 0.30991
vt 0.81219 0.32658
vt 0.81439 0.47388
vt 0.82248 0.32089
vt 0.80215 0.51536
vt 0.81439 0.47388
vt 0.80471 0.46724
vt 0.94059 0.34155
vt 0.96026 0.28324
vt 0.96141 0.34290
vt 0.96775 0.62574
vt 0.98857 0.35471
vt 0.96587 0.35436
vt 0.05935 0.72899
vt 0.06895 0.84954
vt 0.05723 0.84896
vt 0.98276 0.57794
vt 0.99449 0.61001
vt 0.98277 0.61009
vt 0.98277 0.61009
vt 0.99568 0.62401
vt 0.98396 0.62409
vt 0.05935 0.96687
vt 0.06895 0.84954
vt 0.07108 0.96744
vt 0.98281 0.28256
vt 0.98814 0.27065
vt 0.98848 0.28239
vt 0.98276 0.57794
vt 0.91740 0.61001
vt 0.91738 0.57787
vt 0.84412 0.32198
vt 0.81439 0.47388
vt 0.83602 0.47498
vt 0.97610 0.50186
vt 0.97608 0.64824
vt 0.96151 0.64890
vt 0.96151 0.64890
vt 0.97610 0.79298
vt 0.96152 0.80780
vt 0.98276 0.57794
vt 0.99447 0.56978
vt 0.99447 0.57797
vt 0.84412 0.32198
vt 0.82264 0.30991
vt 0.82248 0.32089
vt 0.98281 0.28256
vt 0.95992 0.27150
vt 0.98240 0.27082
vt 0.98395 0.34222
vt 0.96026 0.28324
vt 0.98281 0.28256
vt 0.83602 0.47498
vt 0.81149 0.52582
vt 0.83313 0.52692
vt 0.64905 0.83971
vt 0.70414 0.76520
vt 0.64915 0.76528
vt 0.33167 0.01968
vt 0.30272 0.01088
vt 0.31281 0.09206
vt 0.72899 0.33121
vt 0.72804 0.21860
vt 0.72136 0.26576
vt 0.02135 0.48141
vt 0.32182 0.55052
vt 0.01841 0.54679
vt 0.66518 0.27877
vt 0.75189 0.18837
vt 0.66249 0.19008
vt 0.03841 0.60907
vt 0.21568 0.62704
vt 0.23148 0.60933
vt 0.32177 0.19936
vt 0.40905 0.05266
vt 0.45819 0.19931
vt 0.30191 0.91839
vt 0.25926 0.75722
vt 0.26784 0.91835
vt 0.23598 0.92172
vt 0.15175 0.96845
vt 0.12713 0.92679
vt 0.29104 0.75733
vt 0.30884 0.93474
vt 0.30884 0.74169
vt 0.31119 0.93395
vt 0.26784 0.91835
vt 0.25878 0.93389
vt 0.62371 0.76521
vt 0.56525 0.76494
vt 0.54496 0.83928
vt 0.74357 0.81637
vt 0.44696 0.93721
vt 0.74360 0.93721
vt 0.12286 0.33578
vt 0.12346 0.24065
vt 0.01357 0.24115
vt 0.22934 0.00891
vt 0.39316 0.24509
vt 0.39316 0.00891
vt 0.03867 0.74146
vt 0.10412 0.74438
vt 0.10412 0.68530
vt 0.23114 0.83064
vt 0.36585 0.71518
vt 0.22934 0.71580
vt 0.25019 0.95417
vt 0.34475 0.84082
vt 0.25019 0.84066
vt 0.02811 0.95562
vt 0.03584 0.78352
vt 0.26073 0.84272
vt 0.28396 0.73956
vt 0.01841 0.54679
vt 0.32182 0.55052
vt 0.03643 0.98245
vt 0.13392 0.95504
vt 0.13009 0.98613
vt 0.12713 0.92679
vt 0.22287 0.89616
vt 0.23598 0.92172
vt 0.29659 0.98236
vt 0.28592 0.80207
vt 0.31121 0.99544
vt 0.28592 0.80207
vt 0.26344 0.73157
vt 0.27383 0.71265
vt 0.26904 0.76618
vt 0.03484 0.75981
vt 0.28396 0.73956
vt 0.00196 0.95548
vt 0.03584 0.78352
vt 0.02811 0.95562
vt 0.22934 0.41078
vt 0.39316 0.24509
vt 0.22934 0.24508
vt 0.29789 0.19925
vt 0.31899 0.05176
vt 0.32177 0.19936
vt 0.00891 0.71117
vt 0.20210 0.71118
vt 0.20210 0.61528
vt 0.03484 0.75981
vt 0.01841 0.54679
vt 0.01841 0.54679
vt 0.38547 0.42860
vt 0.38547 0.42860
vt 0.38547 0.42860
vt 0.38547 0.42860
vt 0.38547 0.42860
vt 0.38547 0.42860
vt 0.03927 0.72939
vt 0.00891 0.91964
vt 0.03941 0.92495
vt 0.89176 0.48704
vt 0.74784 0.51990
vt 0.90343 0.49490
vt 0.74784 0.51990
vt 0.90343 0.69058
vt 0.90343 0.49490
vt 0.03584 0.78352
vt 0.00869 0.75966
vt 0.03484 0.75981
vt 0.01159 0.98201
vt 0.03610 0.95153
vt 0.03643 0.98245
vt 0.97964 0.39933
vt 0.98985 0.24186
vt 0.97839 0.24175
vt 0.98985 0.24186
vt 0.97964 0.12844
vt 0.97839 0.24175
vt 0.98281 0.28256
vt 0.98962 0.34204
vt 0.98848 0.28239
vt 0.72804 0.21860
vt 0.71610 0.15043
vt 0.72136 0.26576
vt 0.82280 0.60536
vt 0.84962 0.21371
vt 0.96587 0.35436
vt 0.83602 0.47498
vt 0.84956 0.32226
vt 0.84147 0.47526
vt 0.92944 0.64890
vt 0.92126 0.48704
vt 0.92125 0.64890
vt 0.91738 0.56978
vt 0.98276 0.57794
vt 0.98275 0.56986
vt 0.96026 0.28324
vt 0.93914 0.27208
vt 0.93948 0.28381
vt 0.83857 0.52720
vt 0.83602 0.47498
vt 0.84147 0.47526
vt 0.84412 0.32198
vt 0.84972 0.31128
vt 0.84956 0.32226
vt 0.98277 0.61009
vt 0.91981 0.62401
vt 0.98396 0.62409
vt 0.97094 0.07996
vt 0.98857 0.35471
vt 0.96587 0.35436
vt 0.92126 0.80780
vt 0.92944 0.64890
vt 0.92125 0.64890
vt 0.81229 0.31939
vt 0.82248 0.32089
vt 0.81219 0.32658
vt 0.81219 0.32658
vt 0.81439 0.47388
vt 0.80471 0.46724
vt 0.81439 0.47388
vt 0.80215 0.51536
vt 0.80471 0.46724
vt 0.94059 0.34155
vt 0.96026 0.28324
vt 0.93948 0.28381
vt 0.98857 0.35471
vt 0.96775 0.62574
vt 0.96587 0.35436
vt 0.06895 0.84954
vt 0.05935 0.72899
vt 0.05723 0.84896
vt 0.99449 0.61001
vt 0.98276 0.57794
vt 0.98277 0.61009
vt 0.99568 0.62401
vt 0.98277 0.61009
vt 0.98396 0.62409
vt 0.05935 0.96687
vt 0.06895 0.84954
vt 0.05723 0.84896
vt 0.98814 0.27065
vt 0.98281 0.28256
vt 0.98848 0.28239
vt 0.91740 0.61001
vt 0.98276 0.57794
vt 0.91738 0.57787
vt 0.81439 0.47388
vt 0.84412 0.32198
vt 0.83602 0.47498
vt 0.96152 0.48704
vt 0.92945 0.48704
vt 0.96151 0.64890
vt 0.96151 0.64890
vt 0.92944 0.64890
vt 0.96152 0.80780
vt 0.99447 0.56978
vt 0.98276 0.57794
vt 0.99447 0.57797
vt 0.84412 0.32198
vt 0.82264 0.30991
vt 0.84428 0.31100
vt 0.95992 0.27150
vt 0.98281 0.28256
vt 0.98240 0.27082
vt 0.96026 0.28324
vt 0.98395 0.34222
vt 0.98281 0.28256
vt 0.81149 0.52582
vt 0.83602 0.47498
vt 0.83313 0.52692
vt 0.70414 0.76520
vt 0.70404 0.83963
vt 0.64905 0.83971
vt 0.30272 0.01088
vt 0.34470 0.01007
vt 0.33167 0.01968
vt 0.30272 0.01088
vt 0.33167 0.01968
vt 0.31281 0.09206
vt 0.33167 0.01968
vt 0.34498 0.14912
vt 0.31281 0.09206
vt 0.35429 0.19295
vt 0.40203 0.19204
vt 0.40813 0.24441
vt 0.31281 0.09206
vt 0.34498 0.14912
vt 0.29891 0.24651
vt 0.34498 0.14912
vt 0.35429 0.19295
vt 0.29891 0.24651
vt 0.72899 0.33121
vt 0.72136 0.26576
vt 0.72804 0.21860
vt 0.02135 0.48141
vt 0.01841 0.54679
vt 0.32182 0.55052
vt 0.75189 0.18837
vt 0.75458 0.27705
vt 0.66518 0.27877
vt 0.03841 0.60907
vt 0.23148 0.60933
vt 0.21568 0.62704
vt 0.32177 0.19936
vt 0.45819 0.19931
vt 0.40905 0.05266
vt 0.30191 0.91839
vt 0.26784 0.91835
vt 0.25926 0.75722
vt 0.23598 0.92172
vt 0.12713 0.92679
vt 0.15175 0.96845
vt 0.30884 0.93474
vt 0.29105 0.91846
vt 0.29104 0.75733
vt 0.31119 0.93395
vt 0.25878 0.93389
vt 0.26784 0.91835
vt 0.54496 0.83928
vt 0.54506 0.76485
vt 0.56525 0.76494
vt 0.56525 0.76494
vt 0.62371 0.76521
vt 0.54496 0.83928
vt 0.62371 0.76521
vt 0.64915 0.76528
vt 0.64905 0.83971
vt 0.44696 0.93721
vt 0.44693 0.81637
vt 0.74357 0.81637
vt 0.12201 0.47137
vt 0.01212 0.47186
vt 0.12286 0.33578
vt 0.01212 0.47186
vt 0.01357 0.24115
vt 0.12286 0.33578
vt 0.39316 0.24509
vt 0.22934 0.24508
vt 0.22934 0.00891
vt 0.03867 0.59816
vt 0.10412 0.60109
vt 0.10412 0.68530
vt 0.10412 0.68530
vt 0.10412 0.74438
vt 0.03867 0.74146
vt 0.36585 0.71518
vt 0.36765 0.83003
vt 0.23114 0.83064
vt 0.34475 0.84082
vt 0.34475 0.95433
vt 0.25019 0.95417
vt 0.26073 0.84272
vt 0.26904 0.76618
vt 0.03584 0.78352
vt 0.03584 0.78352
vt 0.02811 0.95562
vt 0.26073 0.84272
vt 0.02811 0.95562
vt 0.12629 0.99546
vt 0.26073 0.84272
vt 0.01841 0.54679
vt 0.03484 0.75981
vt 0.28396 0.73956
vt 0.03643 0.98245
vt 0.13009 0.98613
vt 0.13392 0.95504
vt 0.12713 0.92679
vt 0.23598 0.92172
vt 0.22287 0.89616
vt 0.28592 0.80207
vt 0.27467 0.81469
vt 0.29659 0.98236
vt 0.28592 0.80207
vt 0.27383 0.71265
vt 0.26344 0.73157
vt 0.03484 0.75981
vt 0.03584 0.78352
vt 0.26904 0.76618
vt 0.03584 0.78352
vt 0.00969 0.78338
vt 0.00196 0.95548
vt 0.39316 0.24509
vt 0.39316 0.41079
vt 0.22934 0.41078
vt 0.31899 0.05176
vt 0.29511 0.05165
vt 0.29789 0.19925
vt 0.00891 0.45736
vt 0.20210 0.45736
vt 0.00891 0.50974
vt 0.20210 0.45736
vt 0.20210 0.61528
vt 0.00891 0.50974
vt 0.20210 0.61528
vt 0.20210 0.71118
vt 0.00891 0.71117
vt 0.03484 0.75981
vt 0.01841 0.54679
vt 0.01841 0.54679
vt 0.38547 0.42860
vt 0.38547 0.42860
vt 0.38547 0.42860
vt 0.38547 0.42860
vt 0.38547 0.42860
vt 0.38547 0.42860
vt 0.03927 0.72939
vt 0.03941 0.92495
vt 0.00891 0.91964
vt 0.74784 0.51990
vt 0.75563 0.50891
vt 0.89176 0.48704
vt 0.90343 0.69058
vt 0.74654 0.71578
vt 0.74784 0.51990
vt 0.03584 0.78352
vt 0.03484 0.75981
vt 0.00869 0.75966
vt 0.03610 0.95153
vt 0.01127 0.95109
vt 0.01159 0.98201
vt 0.97964 0.39933
vt 0.97839 0.24175
vt 0.98985 0.24186
vt 0.97964 0.12844
vt 0.99109 0.12855
vt 0.98985 0.24186
vt 0.98962 0.34204
vt 0.98395 0.34222
vt 0.98281 0.28256
vt 0.72804 0.21860
vt 0.72136 0.26576
vt 0.71610 0.15043
vt 0.96587 0.35436
vt 0.97094 0.07996
vt 0.84962 0.21371
vt 0.97094 0.07996
vt 0.85934 0.07975
vt 0.84962 0.21371
vt 0.84962 0.21371
vt 0.82280 0.60536
vt 0.96587 0.35436
vt 0.82280 0.60536
vt 0.84367 0.62551
vt 0.96775 0.62574
vt 0.84956 0.32226
vt 0.84412 0.32198
vt 0.83602 0.47498
vt 0.92126 0.48704
vt 0.92945 0.48704
vt 0.92944 0.64890
vt 0.91738 0.56978
vt 0.98275 0.56986
vt 0.98276 0.57794
vt 0.96026 0.28324
vt 0.93948 0.28381
vt 0.93914 0.27208
vt 0.83857 0.52720
vt 0.84147 0.47526
vt 0.83602 0.47498
vt 0.84972 0.31128
vt 0.84428 0.31100
vt 0.84412 0.32198
vt 0.91981 0.62401
vt 0.91740 0.61001
vt 0.98277 0.61009
vt 0.97094 0.07996
vt 0.96587 0.35436
vt 0.98857 0.35471
vt 0.92126 0.80780
vt 0.92125 0.64890
vt 0.92944 0.64890
vt 0.81229 0.31939
vt 0.81219 0.32658
vt 0.82248 0.32089
vt 0.81219 0.32658
vt 0.80471 0.46724
vt 0.81439 0.47388
vt 0.80215 0.51536
vt 0.81149 0.52582
vt 0.81439 0.47388
vt 0.94059 0.34155
vt 0.93948 0.28381
vt 0.96026 0.28324
vt 0.96775 0.62574
vt 0.99045 0.62609
vt 0.98857 0.35471
vt 0.05935 0.72899
vt 0.07108 0.72957
vt 0.06895 0.84954
vt 0.98276 0.57794
vt 0.99447 0.57797
vt 0.99449 0.61001
vt 0.98277 0.61009
vt 0.99449 0.61001
vt 0.99568 0.62401
vt 0.05935 0.96687
vt 0.05723 0.84896
vt 0.06895 0.84954
vt 0.98281 0.28256
vt 0.98240 0.27082
vt 0.98814 0.27065
vt 0.98276 0.57794
vt 0.98277 0.61009
vt 0.91740 0.61001
vt 0.84412 0.32198
vt 0.82248 0.32089
vt 0.81439 0.47388
vt 0.96151 0.64890
vt 0.92944 0.64890
vt 0.92945 0.48704
vt 0.92945 0.48704
vt 0.96152 0.48704
vt 0.96151 0.64890
vt 0.96152 0.48704
vt 0.97610 0.50186
vt 0.96151 0.64890
vt 0.96152 0.80780
vt 0.92945 0.80780
vt 0.92944 0.64890
vt 0.96151 0.64890
vt 0.97608 0.64824
vt 0.97610 0.79298
vt 0.96152 0.80780
vt 0.92944 0.64890
vt 0.96151 0.64890
vt 0.98276 0.57794
vt 0.98275 0.56986
vt 0.99447 0.56978
vt 0.84412 0.32198
vt 0.84428 0.31100
vt 0.82264 0.30991
vt 0.98281 0.28256
vt 0.96026 0.28324
vt 0.95992 0.27150
vt 0.98395 0.34222
vt 0.96141 0.34290
vt 0.96026 0.28324
vt 0.83602 0.47498
vt 0.81439 0.47388
vt 0.81149 0.52582
vt 0.64905 0.83971
vt 0.70404 0.83963
vt 0.70414 0.76520
vt 0.29891 0.24651
vt 0.40813 0.24441
vt 0.35429 0.19295
vt 0.40813 0.24441
vt 0.40203 0.19204
vt 0.35429 0.19295
vt 0.31281 0.09206
vt 0.29891 0.24651
vt 0.34498 0.14912
vt 0.29891 0.24651
vt 0.35429 0.19295
vt 0.34498 0.14912
vt 0.33167 0.01968
vt 0.34470 0.01007
vt 0.30272 0.01088
vt 0.31281 0.09206
vt 0.34498 0.14912
vt 0.33167 0.01968
vt 0.72899 0.33121
vt 0.72899 0.33121
vt 0.72804 0.21860
vt 0.02135 0.48141
vt 0.33317 0.48523
vt 0.32182 0.55052
vt 0.66518 0.27877
vt 0.75458 0.27705
vt 0.75189 0.18837
vt 0.03841 0.60907
vt 0.05425 0.62677
vt 0.21568 0.62704
vt 0.32177 0.19936
vt 0.31899 0.05176
vt 0.40905 0.05266
vt 0.30191 0.91839
vt 0.31886 0.75729
vt 0.25926 0.75722
vt 0.23598 0.92172
vt 0.23703 0.96448
vt 0.15175 0.96845
vt 0.29104 0.75733
vt 0.29105 0.91846
vt 0.30884 0.93474
vt 0.31119 0.93395
vt 0.30191 0.91839
vt 0.26784 0.91835
vt 0.56525 0.76494
vt 0.54506 0.76485
vt 0.54496 0.83928
vt 0.54496 0.83928
vt 0.64905 0.83971
vt 0.62371 0.76521
vt 0.64905 0.83971
vt 0.64915 0.76528
vt 0.62371 0.76521
vt 0.74357 0.81637
vt 0.44693 0.81637
vt 0.44696 0.93721
vt 0.01357 0.24115
vt 0.01212 0.47186
vt 0.12286 0.33578
vt 0.01212 0.47186
vt 0.12201 0.47137
vt 0.12286 0.33578
vt 0.22934 0.00891
vt 0.22934 0.24508
vt 0.39316 0.24509
vt 0.10412 0.68530
vt 0.10412 0.60109
vt 0.03867 0.59816
vt 0.03867 0.59816
vt 0.03867 0.74146
vt 0.10412 0.68530
vt 0.23114 0.83064
vt 0.36765 0.83003
vt 0.36585 0.71518
vt 0.25019 0.95417
vt 0.34475 0.95433
vt 0.34475 0.84082
vt 0.03584 0.78352
vt 0.26904 0.76618
vt 0.26073 0.84272
vt 0.26073 0.84272
vt 0.27709 0.99731
vt 0.12629 0.99546
vt 0.12629 0.99546
vt 0.02811 0.95562
vt 0.26073 0.84272
vt 0.28396 0.73956
vt 0.03484 0.75981
vt 0.01841 0.54679
vt 0.03643 0.98245
vt 0.03610 0.95153
vt 0.13392 0.95504
vt 0.12713 0.92679
vt 0.12849 0.90056
vt 0.22287 0.89616
vt 0.29659 0.98236
vt 0.27467 0.81469
vt 0.28592 0.80207
vt 0.28592 0.80207
vt 0.27467 0.81469
vt 0.26344 0.73157
vt 0.26904 0.76618
vt 0.03584 0.78352
vt 0.03484 0.75981
vt 0.00196 0.95548
vt 0.00969 0.78338
vt 0.03584 0.78352
vt 0.22934 0.41078
vt 0.39316 0.41079
vt 0.39316 0.24509
vt 0.29789 0.19925
vt 0.29511 0.05165
vt 0.31899 0.05176
vt 0.20210 0.61528
vt 0.20210 0.45736
vt 0.00891 0.50974
vt 0.20210 0.45736
vt 0.00891 0.45736
vt 0.00891 0.50974
vt 0.00891 0.50974
vt 0.00891 0.71117
vt 0.20210 0.61528
vt 0.03484 0.75981
vt 0.00712 0.79822
vt 0.01841 0.54679
vt 0.38547 0.42860
vt 0.38547 0.42860
vt 0.38547 0.42860
vt 0.38547 0.42860
vt 0.38547 0.42860
vt 0.38547 0.42860
vt 0.03927 0.72939
vt 0.03941 0.72899
vt 0.00891 0.91964
vt 0.89176 0.48704
vt 0.75563 0.50891
vt 0.74784 0.51990
vt 0.74784 0.51990
vt 0.74654 0.71578
vt 0.90343 0.69058
vt 0.03584 0.78352
vt 0.00969 0.78338
vt 0.00869 0.75966
vt 0.01159 0.98201
vt 0.01127 0.95109
vt 0.03610 0.95153
vt 0.97964 0.39933
vt 0.99109 0.39944
vt 0.98985 0.24186
vt 0.98985 0.24186
vt 0.99109 0.12855
vt 0.97964 0.12844
vt 0.98281 0.28256
vt 0.98395 0.34222
vt 0.98962 0.34204
vt 0.72804 0.21860
vt 0.72747 0.15021
vt 0.71610 0.15043
vt 0.85934 0.07975
vt 0.97094 0.07996
vt 0.84962 0.21371
vt 0.97094 0.07996
vt 0.96587 0.35436
vt 0.84962 0.21371
vt 0.96587 0.35436
vt 0.96775 0.62574
vt 0.82280 0.60536
vt 0.96775 0.62574
vt 0.84367 0.62551
vt 0.82280 0.60536
vt 0.83602 0.47498
vt 0.84412 0.32198
vt 0.84956 0.32226
vt 0.92944 0.64890
vt 0.92945 0.48704
vt 0.92126 0.48704
vt 0.91738 0.56978
vt 0.91738 0.57787
vt 0.98276 0.57794
vt 0.96026 0.28324
vt 0.95992 0.27150
vt 0.93914 0.27208
vt 0.83857 0.52720
vt 0.83313 0.52692
vt 0.83602 0.47498
vt 0.84412 0.32198
vt 0.84428 0.31100
vt 0.84972 0.31128
vt 0.98277 0.61009
vt 0.91740 0.61001
vt 0.91981 0.62401
vt 0.97094 0.07996
vt 0.99364 0.08031
vt 0.98857 0.35471
vt 0.92126 0.80780
vt 0.92945 0.80780
vt 0.92944 0.64890
vt 0.81229 0.31939
vt 0.82264 0.30991
vt 0.82248 0.32089
vt 0.81219 0.32658
vt 0.82248 0.32089
vt 0.81439 0.47388
vt 0.81439 0.47388
vt 0.81149 0.52582
vt 0.80215 0.51536
vt 0.94059 0.34155
vt 0.96141 0.34290
vt 0.96026 0.28324
vt 0.98857 0.35471
vt 0.99045 0.62609
vt 0.96775 0.62574
vt 0.06895 0.84954
vt 0.07108 0.72957
vt 0.05935 0.72899
vt 0.99449 0.61001
vt 0.99447 0.57797
vt 0.98276 0.57794
vt 0.99568 0.62401
vt 0.99449 0.61001
vt 0.98277 0.61009
vt 0.05935 0.96687
vt 0.07108 0.96744
vt 0.06895 0.84954
vt 0.98814 0.27065
vt 0.98240 0.27082
vt 0.98281 0.28256
vt 0.91740 0.61001
vt 0.98277 0.61009
vt 0.98276 0.57794
vt 0.81439 0.47388
vt 0.82248 0.32089
vt 0.84412 0.32198
vt 0.92945 0.48704
vt 0.92944 0.64890
vt 0.96151 0.64890
vt 0.96151 0.64890
vt 0.97608 0.64824
vt 0.97610 0.50186
vt 0.97610 0.50186
vt 0.96152 0.48704
vt 0.96151 0.64890
vt 0.92944 0.64890
vt 0.92945 0.80780
vt 0.96152 0.80780
vt 0.96152 0.80780
vt 0.97610 0.79298
vt 0.96151 0.64890
vt 0.97610 0.79298
vt 0.97608 0.64824
vt 0.96151 0.64890
vt 0.99447 0.56978
vt 0.98275 0.56986
vt 0.98276 0.57794
vt 0.84412 0.32198
vt 0.82248 0.32089
vt 0.82264 0.30991
vt 0.95992 0.27150
vt 0.96026 0.28324
vt 0.98281 0.28256
vt 0.96026 0.28324
vt 0.96141 0.34290
vt 0.98395 0.34222
vt 0.81149 0.52582
vt 0.81439 0.47388
vt 0.83602 0.47498
vn -0.99662 0.08220 -0.00000
vn -0.99662 0.08220 -0.00000
vn -0.99662 0.08220 -0.00000
vn 0.00000 -0.00000 1.00000
vn 0.00000 -0.00000 1.00000
vn 0.00000 -0.00000 1.00000
vn 0.00000 -0.00000 -1.00000
vn 0.00000 -0.00000 -1.00000
vn 0.00000 -0.00000 -1.00000
vn 0.00000 -0.00000 -1.00000
vn 0.00000 -0.00000 -1.00000
vn 0.00000 -0.00000 -1.00000
vn 0.00000 1.00000 -0.00000
vn 0.00000 1.00000 -0.00000
vn 0.00000 1.00000 -0.00000
vn -0.85491 -0.51681 0.04510
vn -0.85491 -0.51681 0.04510
vn -0.85491 -0.51681 0.04510
vn 0.60711 -0.78371 -0.13120
vn 0.60711 -0.78371 -0.13120
vn 0.60711 -0.78371 -0.13120
vn 0.00000 -1.00000 -0.00000
vn 0.00000 -1.00000 -0.00000
vn 0.00000 -1.00000 -0.00000
vn 0.00000 -0.66328 -0.74837
vn 0.00000 -0.66328 -0.74837
vn 0.00000 -0.66328 -0.74837
vn 0.79871 -0.59370 0.09790
vn 0.79871 -0.59370 0.09790
vn 0.79871 -0.59370 0.09790
vn 0.00000 -0.67501 0.73781
vn 0.00000 -0.67501 0.73781
vn 0.00000 -0.67501 0.73781
vn -0.99748 -0.07010 -0.01130
vn -0.99748 -0.07010 -0.01130
vn -0.99748 -0.07010 -0.01130
vn -1.00000 -0.00000 -0.00000
vn -1.00000 -0.00000 -0.00000
vn -1.00000 -0.00000 -0.00000
vn 0.00000 -0.00000 1.00000
vn 0.00000 -0.00000 1.00000
vn 0.00000 -0.00000 1.00000
vn 1.00000 -0.00000 -0.00000
vn 1.00000 -0.00000 -0.00000
vn 1.00000 -0.00000 -0.00000
vn 0.00000 -0.00000 -1.00000
vn 0.00000 -0.00000 -1.00000
vn 0.00000 -0.00000 -1.00000
vn 0.00000 1.00000 -0.00000
vn 0.00000 1.00000 -0.00000
vn 0.00000 1.00000 -0.00000
vn 0.00000 -1.00000 0.00000
vn 0.00000 -1.00000 0.00000
vn 0.00000 -1.00000 0.00000
vn 0.00000 -0.00000 -1.00000
vn 0.00000 -0.00000 -1.00000
vn 0.00000 -0.00000 -1.00000
vn 0.00000 -0.00000 -1.00000
vn 0.00000 -0.00000 -1.00000
vn 0.00000 -0.00000 -1.00000
vn 0.47189 -0.80659 -0.35599
vn 0.47189 -0.80659 -0.35599
vn 0.47189 -0.80659 -0.35599
vn 0.00000 -0.66317 -0.74847
vn 0.00000 -0.66317 -0.74847
vn 0.00000 -0.66317 -0.74847
vn -0.80712 0.06660 -0.58662
vn -0.80712 0.06660 -0.58662
vn -0.80712 0.06660 -0.58662
vn -0.84649 -0.02940 -0.53159
vn -0.84649 -0.02940 -0.53159
vn -0.84649 -0.02940 -0.53159
vn 0.10890 0.63390 -0.76571
vn 0.10890 0.63390 -0.76571
vn 0.10890 0.63390 -0.76571
vn -0.01350 -0.00000 -0.99991
vn -0.01350 -0.00000 -0.99991
vn -0.01350 -0.00000 -0.99991
vn 1.00000 -0.00000 -0.00000
vn 1.00000 -0.00000 -0.00000
vn 1.00000 -0.00000 -0.00000
vn -0.00220 -0.98626 -0.16519
vn -0.00220 -0.98626 -0.16519
vn -0.00220 -0.98626 -0.16519
vn 1.00000 -0.00000 -0.00000
vn 1.00000 -0.00000 -0.00000
vn 1.00000 -0.00000 -0.00000
vn 0.00000 -0.00000 -1.00000
vn 0.00000 -0.00000 -1.00000
vn 0.00000 -0.00000 -1.00000
vn 0.00000 -0.00000 -1.00000
vn 0.00000 -0.00000 -1.00000
vn 0.00000 -0.00000 -1.00000
vn 0.00000 -0.00000 -1.00000
vn 0.00000 -0.00000 -1.00000
vn 0.00000 -0.00000 -1.00000
vn 0.00000 -1.00000 0.00000
vn 0.00000 -1.00000 0.00000
vn 0.00000 -1.00000 0.00000
vn 0.99993 -0.00000 -0.01210
vn 0.99993 -0.00000 -0.01210
vn 0.99993 -0.00000 -0.01210
vn 1.00000 -0.00000 -0.00000
vn 1.00000 -0.00000 -0.00000
vn 1.00000 -0.00000 -0.00000
vn -0.00580 0.90400 -0.42750
vn -0.00580 0.90400 -0.42750
vn -0.00580 0.90400 -0.42750
vn -0.00540 -0.91723 -0.39831
vn -0.00540 -0.91723 -0.39831
vn -0.00540 -0.91723 -0.39831
vn 0.00210 0.98734 0.15861
vn 0.00210 0.98734 0.15861
vn 0.00210 0.98734 0.15861
vn 0.01350 -0.00000 0.99991
vn 0.01350 -0.00000 0.99991
vn 0.01350 -0.00000 0.99991
vn 0.00000 0.63171 -0.77521
vn 0.00000 0.63171 -0.77521
vn 0.00000 0.63171 -0.77521
vn 0.00000 -0.00000 1.00000
vn 0.00000 -0.00000 1.00000
vn 0.00000 -0.00000 1.00000
vn 0.00000 -0.00000 1.00000
vn 0.00000 -0.00000 1.00000
vn 0.00000 -0.00000 1.00000
vn -0.81659 0.05490 -0.57460
vn -0.81659 0.05490 -0.57460
vn -0.81659 0.05490 -0.57460
vn 0.88144 -0.02340 -0.47172
vn 0.88144 -0.02340 -0.47172
vn 0.88144 -0.02340 -0.47172
vn 0.00000 -0.66338 -0.74828
vn 0.00000 -0.66338 -0.74828
vn 0.00000 -0.66338 -0.74828
vn 0.02300 0.88907 0.45719
vn 0.02300 0.88907 0.45719
vn 0.02300 0.88907 0.45719
vn -0.80950 0.14200 -0.56970
vn -0.80950 0.14200 -0.56970
vn -0.80950 0.14200 -0.56970
vn -0.42210 -0.42210 -0.80229
vn -0.42210 -0.42210 -0.80229
vn -0.42210 -0.42210 -0.80229
vn 0.00000 -0.88937 0.45719
vn 0.00000 -0.88937 0.45719
vn 0.00000 -0.88937 0.45719
vn 0.01440 -0.00040 0.99990
vn 0.01440 -0.00040 0.99990
vn 0.01440 -0.00040 0.99990
vn 0.88132 -0.00000 -0.47251
vn 0.88132 -0.00000 -0.47251
vn 0.88132 -0.00000 -0.47251
vn -0.58222 -0.70492 0.40511
vn -0.58222 -0.70492 0.40511
vn -0.58222 -0.70492 0.40511
vn -0.95867 0.07810 0.27359
vn -0.95867 0.07810 0.27359
vn -0.95867 0.07810 0.27359
vn -0.94285 0.08800 0.32138
vn -0.94285 0.08800 0.32138
vn -0.94285 0.08800 0.32138
vn 0.00000 0.88937 0.45719
vn 0.00000 0.88937 0.45719
vn 0.00000 0.88937 0.45719
vn 0.01440 -0.00000 0.99990
vn 0.01440 -0.00000 0.99990
vn 0.01440 -0.00000 0.99990
vn -0.00880 0.00020 -0.99996
vn -0.00880 0.00020 -0.99996
vn -0.00880 0.00020 -0.99996
vn -0.01850 -0.99983 -0.00000
vn -0.01850 -0.99983 -0.00000
vn -0.01850 -0.99983 -0.00000
vn -0.00980 -0.88925 0.45732
vn -0.00980 -0.88925 0.45732
vn -0.00980 -0.88925 0.45732
vn -0.00880 -0.00000 -0.99996
vn -0.00880 -0.00000 -0.99996
vn -0.00880 -0.00000 -0.99996
vn 0.00720 0.63020 -0.77640
vn 0.00720 0.63020 -0.77640
vn 0.00720 0.63020 -0.77640
vn 0.00000 -1.00000 0.00000
vn 0.00000 -1.00000 0.00000
vn 0.00000 -1.00000 0.00000
vn -0.99670 0.08120 -0.00000
vn -0.99670 0.08120 -0.00000
vn -0.99670 0.08120 -0.00000
vn 0.99933 -0.02980 -0.02120
vn 0.99933 -0.02980 -0.02120
vn 0.99933 -0.02980 -0.02120
vn 0.99976 -0.00000 -0.02190
vn 0.99976 -0.00000 -0.02190
vn 0.99976 -0.00000 -0.02190
vn -0.01230 -0.66713 -0.74484
vn -0.01230 -0.66713 -0.74484
vn -0.01230 -0.66713 -0.74484
vn -0.63677 -0.77106 -0.00000
vn -0.63677 -0.77106 -0.00000
vn -0.63677 -0.77106 -0.00000
vn 0.01850 0.99983 -0.00000
vn 0.01850 0.99983 -0.00000
vn 0.01850 0.99983 -0.00000
vn 0.00000 1.00000 -0.00000
vn 0.00000 1.00000 -0.00000
vn 0.00000 1.00000 -0.00000
vn -0.98498 0.17270 -0.00000
vn -0.98498 0.17270 -0.00000
vn -0.98498 0.17270 -0.00000
vn 0.99662 0.08220 -0.00000
vn 0.99662 0.08220 -0.00000
vn 0.99662 0.08220 -0.00000
vn 0.00000 -0.00000 1.00000
vn 0.00000 -0.00000 1.00000
vn 0.00000 -0.00000 1.00000
vn 0.00000 -0.00000 1.00000
vn 0.00000 -0.00000 1.00000
vn 0.00000 -0.00000 1.00000
vn 0.00000 -0.00000 -1.00000
vn 0.00000 -0.00000 -1.00000
vn 0.00000 -0.00000 -1.00000
vn 0.00000 1.00000 -0.00000
vn 0.00000 1.00000 -0.00000
vn 0.00000 1.00000 -0.00000
vn 0.99705 -0.07680 -0.00000
vn 0.99705 -0.07680 -0.00000
vn 0.99705 -0.07680 -0.00000
vn 0.00000 -1.00000 0.00000
vn 0.00000 -1.00000 0.00000
vn 0.00000 -1.00000 0.00000
vn 0.00000 -1.00000 0.00000
vn 0.00000 -1.00000 0.00000
vn 0.00000 -1.00000 0.00000
vn 0.00000 -0.66328 -0.74837
vn 0.00000 -0.66328 -0.74837
vn 0.00000 -0.66328 -0.74837
vn -0.79871 -0.59370 0.09790
vn -0.79871 -0.59370 0.09790
vn -0.79871 -0.59370 0.09790
vn 0.00000 -0.67501 0.73781
vn 0.00000 -0.67501 0.73781
vn 0.00000 -0.67501 0.73781
vn 0.99642 -0.08440 0.00390
vn 0.99642 -0.08440 0.00390
vn 0.99642 -0.08440 0.00390
vn 1.00000 -0.00000 -0.00000
vn 1.00000 -0.00000 -0.00000
vn 1.00000 -0.00000 -0.00000
vn 0.00000 -0.00000 1.00000
vn 0.00000 -0.00000 1.00000
vn 0.00000 -0.00000 1.00000
vn -1.00000 -0.00000 -0.00000
vn -1.00000 -0.00000 -0.00000
vn -1.00000 -0.00000 -0.00000
vn 0.00000 -0.00000 -1.00000
vn 0.00000 -0.00000 -1.00000
vn 0.00000 -0.00000 -1.00000
vn 0.00000 1.00000 -0.00000
vn 0.00000 1.00000 -0.00000
vn 0.00000 1.00000 -0.00000
vn 0.00000 -1.00000 0.00000
vn 0.00000 -1.00000 0.00000
vn 0.00000 -1.00000 0.00000
vn 0.12070 -0.00000 -0.99269
vn 0.12070 -0.00000 -0.99269
vn 0.12070 -0.00000 -0.99269
vn 0.00000 -0.00000 -1.00000
vn 0.00000 -0.00000 -1.00000
vn 0.00000 -0.00000 -1.00000
vn -0.42550 -0.54940 -0.71910
vn -0.42550 -0.54940 -0.71910
vn -0.42550 -0.54940 -0.71910
vn 0.00000 -0.66322 -0.74842
vn 0.00000 -0.66322 -0.74842
vn 0.00000 -0.66322 -0.74842
vn 0.80712 0.06660 -0.58662
vn 0.80712 0.06660 -0.58662
vn 0.80712 0.06660 -0.58662
vn 0.84113 -0.03130 -0.53992
vn 0.84113 -0.03130 -0.53992
vn 0.84113 -0.03130 -0.53992
vn -0.10890 0.63390 -0.76571
vn -0.10890 0.63390 -0.76571
vn -0.10890 0.63390 -0.76571
vn 0.01350 -0.00000 -0.99991
vn 0.01350 -0.00000 -0.99991
vn 0.01350 -0.00000 -0.99991
vn -1.00000 -0.00000 -0.00000
vn -1.00000 -0.00000 -0.00000
vn -1.00000 -0.00000 -0.00000
vn 0.00220 -0.98626 -0.16519
vn 0.00220 -0.98626 -0.16519
vn 0.00220 -0.98626 -0.16519
vn -1.00000 -0.00000 -0.00000
vn -1.00000 -0.00000 -0.00000
vn -1.00000 -0.00000 -0.00000
vn 0.00000 -0.00000 -1.00000
vn 0.00000 -0.00000 -1.00000
vn 0.00000 -0.00000 -1.00000
vn 0.00000 -0.00000 -1.00000
vn 0.00000 -0.00000 -1.00000
vn 0.00000 -0.00000 -1.00000
vn 0.00000 -0.00000 -1.00000
vn 0.00000 -0.00000 -1.00000
vn 0.00000 -0.00000 -1.00000
vn 0.93746 -0.34369 -0.05520
vn 0.93746 -0.34369 -0.05520
vn 0.93746 -0.34369 -0.05520
vn -0.99993 -0.00000 -0.01210
vn -0.99993 -0.00000 -0.01210
vn -0.99993 -0.00000 -0.01210
vn -1.00000 -0.00000 -0.00000
vn -1.00000 -0.00000 -0.00000
vn -1.00000 -0.00000 -0.00000
vn 0.00580 0.90400 -0.42750
vn 0.00580 0.90400 -0.42750
vn 0.00580 0.90400 -0.42750
vn 0.00540 -0.91723 -0.39831
vn 0.00540 -0.91723 -0.39831
vn 0.00540 -0.91723 -0.39831
vn -0.00210 0.98734 0.15861
vn -0.00210 0.98734 0.15861
vn -0.00210 0.98734 0.15861
vn -0.01350 -0.00000 0.99991
vn -0.01350 -0.00000 0.99991
vn -0.01350 -0.00000 0.99991
vn 0.00000 0.63171 -0.77521
vn 0.00000 0.63171 -0.77521
vn 0.00000 0.63171 -0.77521
vn 0.00000 -0.00000 1.00000
vn 0.00000 -0.00000 1.00000
vn 0.00000 -0.00000 1.00000
vn 0.00000 -0.00000 1.00000
vn 0.00000 -0.00000 1.00000
vn 0.00000 -0.00000 1.00000
vn 0.81659 0.05490 -0.57460
vn 0.81659 0.05490 -0.57460
vn 0.81659 0.05490 -0.57460
vn -0.88144 -0.02340 -0.47172
vn -0.88144 -0.02340 -0.47172
vn -0.88144 -0.02340 -0.47172
vn 0.00000 -0.66338 -0.74828
vn 0.00000 -0.66338 -0.74828
vn 0.00000 -0.66338 -0.74828
vn -0.02300 0.88907 0.45719
vn -0.02300 0.88907 0.45719
vn -0.02300 0.88907 0.45719
vn 0.79279 0.11480 -0.59859
vn 0.79279 0.11480 -0.59859
vn 0.79279 0.11480 -0.59859
vn 0.42210 -0.42210 -0.80229
vn 0.42210 -0.42210 -0.80229
vn 0.42210 -0.42210 -0.80229
vn 0.00000 -0.88937 0.45719
vn 0.00000 -0.88937 0.45719
vn 0.00000 -0.88937 0.45719
vn -0.01440 -0.00040 0.99990
vn -0.01440 -0.00040 0.99990
vn -0.01440 -0.00040 0.99990
vn -0.88132 -0.00000 -0.47251
vn -0.88132 -0.00000 -0.47251
vn -0.88132 -0.00000 -0.47251
vn 0.58222 -0.70492 0.40511
vn 0.58222 -0.70492 0.40511
vn 0.58222 -0.70492 0.40511
vn 0.94365 0.08360 0.32022
vn 0.94365 0.08360 0.32022
vn 0.94365 0.08360 0.32022
vn 0.94284 0.08800 0.32141
vn 0.94284 0.08800 0.32141
vn 0.94284 0.08800 0.32141
vn 0.00000 0.88937 0.45719
vn 0.00000 0.88937 0.45719
vn 0.00000 0.88937 0.45719
vn -0.01440 -0.00000 0.99990
vn -0.01440 -0.00000 0.99990
vn -0.01440 -0.00000 0.99990
vn 0.00880 0.00020 -0.99996
vn 0.00880 0.00020 -0.99996
vn 0.00880 0.00020 -0.99996
vn 0.01850 -0.99983 -0.00000
vn 0.01850 -0.99983 -0.00000
vn 0.01850 -0.99983 -0.00000
vn 0.00980 -0.88925 0.45732
vn 0.00980 -0.88925 0.45732
vn 0.00980 -0.88925 0.45732
vn 0.00880 -0.00000 -0.99996
vn 0.00880 -0.00000 -0.99996
vn 0.00880 -0.00000 -0.99996
vn -0.00720 0.63020 -0.77640
vn -0.00720 0.63020 -0.77640
vn -0.00720 0.63020 -0.77640
vn 0.00000 -1.00000 -0.00000
vn 0.00000 -1.00000 -0.00000
vn 0.00000 -1.00000 -0.00000
vn 0.99670 0.08120 -0.00000
vn 0.99670 0.08120 -0.00000
vn 0.99670 0.08120 -0.00000
vn -0.99948 -0.03210 -0.00000
vn -0.99948 -0.03210 -0.00000
vn -0.99948 -0.03210 -0.00000
vn -1.00000 -0.00000 -0.00000
vn -1.00000 -0.00000 -0.00000
vn -1.00000 -0.00000 -0.00000
vn 0.01230 -0.66713 -0.74484
vn 0.01230 -0.66713 -0.74484
vn 0.01230 -0.66713 -0.74484
vn 0.63677 -0.77106 -0.00000
vn 0.63677 -0.77106 -0.00000
vn 0.63677 -0.77106 -0.00000
vn -0.01850 0.99983 -0.00000
vn -0.01850 0.99983 -0.00000
vn -0.01850 0.99983 -0.00000
vn 0.00000 1.00000 -0.00000
vn 0.00000 1.00000 -0.00000
vn 0.00000 1.00000 -0.00000
vn 0.98498 0.17270 -0.00000
vn 0.98498 0.17270 -0.00000
vn 0.98498 0.17270 -0.00000
vn -0.99662 0.08220 -0.00000
vn -0.99662 0.08220 -0.00000
vn -0.99662 0.08220 -0.00000
vn 0.00000 -0.00000 1.00000
vn 0.00000 -0.00000 1.00000
vn 0.00000 -0.00000 1.00000
vn 0.00000 -0.00000 1.00000
vn 0.00000 -0.00000 1.00000
vn 0.00000 -0.00000 1.00000
vn 0.00000 -0.00000 1.00000
vn 0.00000 -0.00000 1.00000
vn 0.00000 -0.00000 1.00000
vn 0.00000 -0.00000 1.00000
vn 0.00000 -0.00000 1.00000
vn 0.00000 -0.00000 1.00000
vn 0.00000 -0.00000 1.00000
vn 0.00000 -0.00000 1.00000
vn 0.00000 -0.00000 1.00000
vn 0.00000 -0.00000 1.00000
vn 0.00000 -0.00000 1.00000
vn 0.00000 -0.00000 1.00000
vn 0.00000 -0.00000 1.00000
vn 0.00000 -0.00000 1.00000
vn 0.00000 -0.00000 1.00000
vn 0.00000 -0.00000 -1.00000
vn 0.00000 -0.00000 -1.00000
vn 0.00000 -0.00000 -1.00000
vn 0.00000 1.00000 -0.00000
vn 0.00000 1.00000 -0.00000
vn 0.00000 1.00000 -0.00000
vn -0.99705 -0.07680 -0.00000
vn -0.99705 -0.07680 -0.00000
vn -0.99705 -0.07680 -0.00000
vn -0.00000 -1.00000 0.00000
vn -0.00000 -1.00000 0.00000
vn -0.00000 -1.00000 0.00000
vn -0.00000 -1.00000 0.00000
vn -0.00000 -1.00000 0.00000
vn -0.00000 -1.00000 0.00000
vn 0.00000 -0.66328 -0.74837
vn 0.00000 -0.66328 -0.74837
vn 0.00000 -0.66328 -0.74837
vn 0.86306 -0.49678 0.09130
vn 0.86306 -0.49678 0.09130
vn 0.86306 -0.49678 0.09130
vn 0.00000 -0.67501 0.73781
vn 0.00000 -0.67501 0.73781
vn 0.00000 -0.67501 0.73781
vn -0.99754 -0.07010 -0.00000
vn -0.99754 -0.07010 -0.00000
vn -0.99754 -0.07010 -0.00000
vn -0.99642 -0.08440 0.00390
vn -0.99642 -0.08440 0.00390
vn -0.99642 -0.08440 0.00390
vn -0.99931 -0.03720 -0.00000
vn -0.99931 -0.03720 -0.00000
vn -0.99931 -0.03720 -0.00000
vn -1.00000 -0.00000 -0.00000
vn -1.00000 -0.00000 -0.00000
vn -1.00000 -0.00000 -0.00000
vn 0.00000 -0.00000 1.00000
vn 0.00000 -0.00000 1.00000
vn 0.00000 -0.00000 1.00000
vn 0.00000 -0.00000 1.00000
vn 0.00000 -0.00000 1.00000
vn 0.00000 -0.00000 1.00000
vn 1.00000 -0.00000 -0.00000
vn 1.00000 -0.00000 -0.00000
vn 1.00000 -0.00000 -0.00000
vn 0.00000 -0.00000 -1.00000
vn 0.00000 -0.00000 -1.00000
vn 0.00000 -0.00000 -1.00000
vn 0.00000 -0.00000 -1.00000
vn 0.00000 -0.00000 -1.00000
vn 0.00000 -0.00000 -1.00000
vn 0.00000 1.00000 -0.00000
vn 0.00000 1.00000 -0.00000
vn 0.00000 1.00000 -0.00000
vn 0.00000 -1.00000 0.00000
vn 0.00000 -1.00000 0.00000
vn 0.00000 -1.00000 0.00000
vn -0.11890 -0.00410 -0.99290
vn -0.11890 -0.00410 -0.99290
vn -0.11890 -0.00410 -0.99290
vn -0.12070 -0.00000 -0.99269
vn -0.12070 -0.00000 -0.99269
vn -0.12070 -0.00000 -0.99269
vn -0.20441 -0.09230 -0.97452
vn -0.20441 -0.09230 -0.97452
vn -0.20441 -0.09230 -0.97452
vn 0.00000 -0.00000 -1.00000
vn 0.00000 -0.00000 -1.00000
vn 0.00000 -0.00000 -1.00000
vn 0.42550 -0.54940 -0.71910
vn 0.42550 -0.54940 -0.71910
vn 0.42550 -0.54940 -0.71910
vn 0.00000 -0.66322 -0.74842
vn 0.00000 -0.66322 -0.74842
vn 0.00000 -0.66322 -0.74842
vn -0.80712 0.06660 -0.58662
vn -0.80712 0.06660 -0.58662
vn -0.80712 0.06660 -0.58662
vn -0.84113 -0.03130 -0.53992
vn -0.84113 -0.03130 -0.53992
vn -0.84113 -0.03130 -0.53992
vn 0.09230 0.89968 -0.42669
vn 0.09230 0.89968 -0.42669
vn 0.09230 0.89968 -0.42669
vn -0.01350 -0.00000 -0.99991
vn -0.01350 -0.00000 -0.99991
vn -0.01350 -0.00000 -0.99991
vn 1.00000 -0.00000 -0.00000
vn 1.00000 -0.00000 -0.00000
vn 1.00000 -0.00000 -0.00000
vn -0.00220 -0.98626 -0.16519
vn -0.00220 -0.98626 -0.16519
vn -0.00220 -0.98626 -0.16519
vn 1.00000 -0.00000 -0.00000
vn 1.00000 -0.00000 -0.00000
vn 1.00000 -0.00000 -0.00000
vn 1.00000 -0.00000 -0.00000
vn 1.00000 -0.00000 -0.00000
vn 1.00000 -0.00000 -0.00000
vn 1.00000 -0.00000 -0.00000
vn 1.00000 -0.00000 -0.00000
vn 1.00000 -0.00000 -0.00000
vn 0.00000 -0.00000 -1.00000
vn 0.00000 -0.00000 -1.00000
vn 0.00000 -0.00000 -1.00000
vn 0.00000 -0.00000 -1.00000
vn 0.00000 -0.00000 -1.00000
vn 0.00000 -0.00000 -1.00000
vn 0.00000 -0.00000 -1.00000
vn 0.00000 -0.00000 -1.00000
vn 0.00000 -0.00000 -1.00000
vn -0.93746 -0.34369 -0.05520
vn -0.93746 -0.34369 -0.05520
vn -0.93746 -0.34369 -0.05520
vn 0.99993 -0.00000 -0.01210
vn 0.99993 -0.00000 -0.01210
vn 0.99993 -0.00000 -0.01210
vn 1.00000 -0.00000 -0.00000
vn 1.00000 -0.00000 -0.00000
vn 1.00000 -0.00000 -0.00000
vn -0.00580 0.90400 -0.42750
vn -0.00580 0.90400 -0.42750
vn -0.00580 0.90400 -0.42750
vn -0.00540 -0.91723 -0.39831
vn -0.00540 -0.91723 -0.39831
vn -0.00540 -0.91723 -0.39831
vn 0.00210 0.98734 0.15861
vn 0.00210 0.98734 0.15861
vn 0.00210 0.98734 0.15861
vn 0.01350 -0.00000 0.99991
vn 0.01350 -0.00000 0.99991
vn 0.01350 -0.00000 0.99991
vn 0.00000 0.63171 -0.77521
vn 0.00000 0.63171 -0.77521
vn 0.00000 0.63171 -0.77521
vn 0.00000 -0.00000 1.00000
vn 0.00000 -0.00000 1.00000
vn 0.00000 -0.00000 1.00000
vn 0.00000 -0.00000 1.00000
vn 0.00000 -0.00000 1.00000
vn 0.00000 -0.00000 1.00000
vn 0.00000 -0.00000 1.00000
vn 0.00000 -0.00000 1.00000
vn 0.00000 -0.00000 1.00000
vn 0.00000 -0.00000 1.00000
vn 0.00000 -0.00000 1.00000
vn 0.00000 -0.00000 1.00000
vn 0.00000 -0.00000 1.00000
vn 0.00000 -0.00000 1.00000
vn 0.00000 -0.00000 1.00000
vn -0.77518 0.06310 -0.62858
vn -0.77518 0.06310 -0.62858
vn -0.77518 0.06310 -0.62858
vn 0.87128 -0.02800 -0.48999
vn 0.87128 -0.02800 -0.48999
vn 0.87128 -0.02800 -0.48999
vn 0.00000 -0.66338 -0.74828
vn 0.00000 -0.66338 -0.74828
vn 0.00000 -0.66338 -0.74828
vn 0.02300 0.88907 0.45719
vn 0.02300 0.88907 0.45719
vn 0.02300 0.88907 0.45719
vn -0.79279 0.11480 -0.59859
vn -0.79279 0.11480 -0.59859
vn -0.79279 0.11480 -0.59859
vn -0.39230 -0.47500 -0.78770
vn -0.39230 -0.47500 -0.78770
vn -0.39230 -0.47500 -0.78770
vn 0.00000 -0.88937 0.45719
vn 0.00000 -0.88937 0.45719
vn 0.00000 -0.88937 0.45719
vn 0.01440 -0.00040 0.99990
vn 0.01440 -0.00040 0.99990
vn 0.01440 -0.00040 0.99990
vn 0.88132 -0.00000 -0.47251
vn 0.88132 -0.00000 -0.47251
vn 0.88132 -0.00000 -0.47251
vn -0.58222 -0.70492 0.40511
vn -0.58222 -0.70492 0.40511
vn -0.58222 -0.70492 0.40511
vn -0.94365 0.08360 0.32022
vn -0.94365 0.08360 0.32022
vn -0.94365 0.08360 0.32022
vn -0.97243 0.17050 0.15910
vn -0.97243 0.17050 0.15910
vn -0.97243 0.17050 0.15910
vn 0.00000 0.88937 0.45719
vn 0.00000 0.88937 0.45719
vn 0.00000 0.88937 0.45719
vn 0.01440 -0.00000 0.99990
vn 0.01440 -0.00000 0.99990
vn 0.01440 -0.00000 0.99990
vn -0.00880 0.00020 -0.99996
vn -0.00880 0.00020 -0.99996
vn -0.00880 0.00020 -0.99996
vn -0.01850 -0.99983 -0.00000
vn -0.01850 -0.99983 -0.00000
vn -0.01850 -0.99983 -0.00000
vn -0.00980 -0.88925 0.45732
vn -0.00980 -0.88925 0.45732
vn -0.00980 -0.88925 0.45732
vn -0.00880 -0.00000 -0.99996
vn -0.00880 -0.00000 -0.99996
vn -0.00880 -0.00000 -0.99996
vn 0.01160 0.63000 -0.77651
vn 0.01160 0.63000 -0.77651
vn 0.01160 0.63000 -0.77651
vn 0.00000 -1.00000 0.00000
vn 0.00000 -1.00000 0.00000
vn 0.00000 -1.00000 0.00000
vn -0.99670 0.08120 -0.00000
vn -0.99670 0.08120 -0.00000
vn -0.99670 0.08120 -0.00000
vn 0.99948 -0.03210 -0.00000
vn 0.99948 -0.03210 -0.00000
vn 0.99948 -0.03210 -0.00000
vn 0.99948 -0.03210 -0.00000
vn 0.99948 -0.03210 -0.00000
vn 0.99948 -0.03210 -0.00000
vn 0.99944 -0.03210 -0.00930
vn 0.99944 -0.03210 -0.00930
vn 0.99944 -0.03210 -0.00930
vn 1.00000 -0.00000 -0.00000
vn 1.00000 -0.00000 -0.00000
vn 1.00000 -0.00000 -0.00000
vn 0.99976 -0.00000 -0.02190
vn 0.99976 -0.00000 -0.02190
vn 0.99976 -0.00000 -0.02190
vn 1.00000 -0.00000 -0.00000
vn 1.00000 -0.00000 -0.00000
vn 1.00000 -0.00000 -0.00000
vn -0.02150 -0.66702 -0.74473
vn -0.02150 -0.66702 -0.74473
vn -0.02150 -0.66702 -0.74473
vn -0.63677 -0.77106 -0.00000
vn -0.63677 -0.77106 -0.00000
vn -0.63677 -0.77106 -0.00000
vn 0.01850 0.99983 -0.00000
vn 0.01850 0.99983 -0.00000
vn 0.01850 0.99983 -0.00000
vn 0.00000 1.00000 -0.00000
vn 0.00000 1.00000 -0.00000
vn 0.00000 1.00000 -0.00000
vn -0.98498 0.17270 -0.00000
vn -0.98498 0.17270 -0.00000
vn -0.98498 0.17270 -0.00000
vn 0.99662 0.08220 -0.00000
vn 0.99662 0.08220 -0.00000
vn 0.99662 0.08220 -0.00000
vn 0.00000 -0.00000 1.00000
vn 0.00000 -0.00000 1.00000
vn 0.00000 -0.00000 1.00000
vn 0.00000 -0.00000 1.00000
vn 0.00000 -0.00000 1.00000
vn 0.00000 -0.00000 1.00000
vn 0.00000 -0.00000 1.00000
vn 0.00000 -0.00000 1.00000
vn 0.00000 -0.00000 1.00000
vn 0.00000 -0.00000 1.00000
vn 0.00000 -0.00000 1.00000
vn 0.00000 -0.00000 1.00000
vn 0.00000 -0.00000 1.00000
vn 0.00000 -0.00000 1.00000
vn 0.00000 -0.00000 1.00000
vn 0.00000 -0.00000 1.00000
vn 0.00000 -0.00000 1.00000
vn 0.00000 -0.00000 1.00000
vn 0.00000 -0.00000 -1.00000
vn 0.00000 -0.00000 -1.00000
vn 0.00000 -0.00000 -1.00000
vn 0.00000 -0.00000 -1.00000
vn 0.00000 -0.00000 -1.00000
vn 0.00000 -0.00000 -1.00000
vn 0.00000 1.00000 -0.00000
vn 0.00000 1.00000 -0.00000
vn 0.00000 1.00000 -0.00000
vn 0.85491 -0.51681 0.04510
vn 0.85491 -0.51681 0.04510
vn 0.85491 -0.51681 0.04510
vn -0.60711 -0.78371 -0.13120
vn -0.60711 -0.78371 -0.13120
vn -0.60711 -0.78371 -0.13120
vn 0.00000 -1.00000 -0.00000
vn 0.00000 -1.00000 -0.00000
vn 0.00000 -1.00000 -0.00000
vn 0.00000 -0.66328 -0.74837
vn 0.00000 -0.66328 -0.74837
vn 0.00000 -0.66328 -0.74837
vn -0.86306 -0.49678 0.09130
vn -0.86306 -0.49678 0.09130
vn -0.86306 -0.49678 0.09130
vn 0.00000 -0.67501 0.73781
vn 0.00000 -0.67501 0.73781
vn 0.00000 -0.67501 0.73781
vn 0.99754 -0.07010 -0.00000
vn 0.99754 -0.07010 -0.00000
vn 0.99754 -0.07010 -0.00000
vn 0.99748 -0.07010 -0.01130
vn 0.99748 -0.07010 -0.01130
vn 0.99748 -0.07010 -0.01130
vn 0.99931 -0.03720 -0.00000
vn 0.99931 -0.03720 -0.00000
vn 0.99931 -0.03720 -0.00000
vn 1.00000 -0.00000 -0.00000
vn 1.00000 -0.00000 -0.00000
vn 1.00000 -0.00000 -0.00000
vn 0.00000 -0.00000 1.00000
vn 0.00000 -0.00000 1.00000
vn 0.00000 -0.00000 1.00000
vn 0.00000 -0.00000 1.00000
vn 0.00000 -0.00000 1.00000
vn 0.00000 -0.00000 1.00000
vn -1.00000 -0.00000 -0.00000
vn -1.00000 -0.00000 -0.00000
vn -1.00000 -0.00000 -0.00000
vn 0.00000 -0.00000 -1.00000
vn 0.00000 -0.00000 -1.00000
vn 0.00000 -0.00000 -1.00000
vn 0.00000 -0.00000 -1.00000
vn 0.00000 -0.00000 -1.00000
vn 0.00000 -0.00000 -1.00000
vn 0.00000 1.00000 -0.00000
vn 0.00000 1.00000 -0.00000
vn 0.00000 1.00000 -0.00000
vn 0.00000 -1.00000 0.00000
vn 0.00000 -1.00000 0.00000
vn 0.00000 -1.00000 0.00000
vn 0.11890 -0.00410 -0.99290
vn 0.11890 -0.00410 -0.99290
vn 0.11890 -0.00410 -0.99290
vn 0.00000 -0.00000 -1.00000
vn 0.00000 -0.00000 -1.00000
vn 0.00000 -0.00000 -1.00000
vn 0.20441 -0.09230 -0.97452
vn 0.20441 -0.09230 -0.97452
vn 0.20441 -0.09230 -0.97452
vn 0.00000 -0.00000 -1.00000
vn 0.00000 -0.00000 -1.00000
vn 0.00000 -0.00000 -1.00000
vn -0.47189 -0.80659 -0.35599
vn -0.47189 -0.80659 -0.35599
vn -0.47189 -0.80659 -0.35599
vn 0.00000 -0.66317 -0.74847
vn 0.00000 -0.66317 -0.74847
vn 0.00000 -0.66317 -0.74847
vn 0.80712 0.06660 -0.58662
vn 0.80712 0.06660 -0.58662
vn 0.80712 0.06660 -0.58662
vn 0.84649 -0.02940 -0.53159
vn 0.84649 -0.02940 -0.53159
vn 0.84649 -0.02940 -0.53159
vn -0.09230 0.89968 -0.42669
vn -0.09230 0.89968 -0.42669
vn -0.09230 0.89968 -0.42669
vn 0.01350 -0.00000 -0.99991
vn 0.01350 -0.00000 -0.99991
vn 0.01350 -0.00000 -0.99991
vn -1.00000 -0.00000 -0.00000
vn -1.00000 -0.00000 -0.00000
vn -1.00000 -0.00000 -0.00000
vn 0.00220 -0.98626 -0.16519
vn 0.00220 -0.98626 -0.16519
vn 0.00220 -0.98626 -0.16519
vn -1.00000 -0.00000 -0.00000
vn -1.00000 -0.00000 -0.00000
vn -1.00000 -0.00000 -0.00000
vn -1.00000 -0.00000 -0.00000
vn -1.00000 -0.00000 -0.00000
vn -1.00000 -0.00000 -0.00000
vn -1.00000 -0.00000 -0.00000
vn -1.00000 -0.00000 -0.00000
vn -1.00000 -0.00000 -0.00000
vn 0.00000 -0.00000 -1.00000
vn 0.00000 -0.00000 -1.00000
vn 0.00000 -0.00000 -1.00000
vn 0.00000 -0.00000 -1.00000
vn 0.00000 -0.00000 -1.00000
vn 0.00000 -0.00000 -1.00000
vn 0.00000 -0.00000 -1.00000
vn 0.00000 -0.00000 -1.00000
vn 0.00000 -0.00000 -1.00000
vn -0.00000 -1.00000 0.00000
vn -0.00000 -1.00000 0.00000
vn -0.00000 -1.00000 0.00000
vn -0.99993 -0.00000 -0.01210
vn -0.99993 -0.00000 -0.01210
vn -0.99993 -0.00000 -0.01210
vn -1.00000 -0.00000 -0.00000
vn -1.00000 -0.00000 -0.00000
vn -1.00000 -0.00000 -0.00000
vn 0.00580 0.90400 -0.42750
vn 0.00580 0.90400 -0.42750
vn 0.00580 0.90400 -0.42750
vn 0.00540 -0.91723 -0.39831
vn 0.00540 -0.91723 -0.39831
vn 0.00540 -0.91723 -0.39831
vn -0.00210 0.98734 0.15861
vn -0.00210 0.98734 0.15861
vn -0.00210 0.98734 0.15861
vn -0.01350 -0.00000 0.99991
vn -0.01350 -0.00000 0.99991
vn -0.01350 -0.00000 0.99991
vn 0.00000 0.63171 -0.77521
vn 0.00000 0.63171 -0.77521
vn 0.00000 0.63171 -0.77521
vn 0.00000 -0.00000 1.00000
vn 0.00000 -0.00000 1.00000
vn 0.00000 -0.00000 1.00000
vn 0.00000 -0.00000 1.00000
vn 0.00000 -0.00000 1.00000
vn 0.00000 -0.00000 1.00000
vn 0.00000 -0.00000 1.00000
vn 0.00000 -0.00000 1.00000
vn 0.00000 -0.00000 1.00000
vn 0.00000 -0.00000 1.00000
vn 0.00000 -0.00000 1.00000
vn 0.00000 -0.00000 1.00000
vn 0.00000 -0.00000 1.00000
vn 0.00000 -0.00000 1.00000
vn 0.00000 -0.00000 1.00000
vn 0.77518 0.06310 -0.62858
vn 0.77518 0.06310 -0.62858
vn 0.77518 0.06310 -0.62858
vn -0.87128 -0.02800 -0.48999
vn -0.87128 -0.02800 -0.48999
vn -0.87128 -0.02800 -0.48999
vn 0.00000 -0.66338 -0.74828
vn 0.00000 -0.66338 -0.74828
vn 0.00000 -0.66338 -0.74828
vn -0.02300 0.88907 0.45719
vn -0.02300 0.88907 0.45719
vn -0.02300 0.88907 0.45719
vn 0.80950 0.14200 -0.56970
vn 0.80950 0.14200 -0.56970
vn 0.80950 0.14200 -0.56970
vn 0.39230 -0.47500 -0.78770
vn 0.39230 -0.47500 -0.78770
vn 0.39230 -0.47500 -0.78770
vn 0.00000 -0.88937 0.45719
vn 0.00000 -0.88937 0.45719
vn 0.00000 -0.88937 0.45719
vn -0.01440 -0.00040 0.99990
vn -0.01440 -0.00040 0.99990
vn -0.01440 -0.00040 0.99990
vn -0.88132 -0.00000 -0.47251
vn -0.88132 -0.00000 -0.47251
vn -0.88132 -0.00000 -0.47251
vn 0.58222 -0.70492 0.40511
vn 0.58222 -0.70492 0.40511
vn 0.58222 -0.70492 0.40511
vn 0.95867 0.07810 0.27359
vn 0.95867 0.07810 0.27359
vn 0.95867 0.07810 0.27359
vn 0.97243 0.17050 0.15910
vn 0.97243 0.17050 0.15910
vn 0.97243 0.17050 0.15910
vn 0.00000 0.88937 0.45719
vn 0.00000 0.88937 0.45719
vn 0.00000 0.88937 0.45719
vn -0.01440 -0.00000 0.99990
vn -0.01440 -0.00000 0.99990
vn -0.01440 -0.00000 0.99990
vn 0.00880 0.00020 -0.99996
vn 0.00880 0.00020 -0.99996
vn 0.00880 0.00020 -0.99996
vn 0.01850 -0.99983 -0.00000
vn 0.01850 -0.99983 -0.00000
vn 0.01850 -0.99983 -0.00000
vn 0.00980 -0.88925 0.45732
vn 0.00980 -0.88925 0.45732
vn 0.00980 -0.88925 0.45732
vn 0.00880 -0.00000 -0.99996
vn 0.00880 -0.00000 -0.99996
vn 0.00880 -0.00000 -0.99996
vn -0.01160 0.63000 -0.77651
vn -0.01160 0.63000 -0.77651
vn -0.01160 0.63000 -0.77651
vn -0.00000 -1.00000 0.00000
vn -0.00000 -1.00000 0.00000
vn -0.00000 -1.00000 0.00000
vn 0.99670 0.08120 -0.00000
vn 0.99670 0.08120 -0.00000
vn 0.99670 0.08120 -0.00000
vn -0.99948 -0.03210 -0.00000
vn -0.99948 -0.03210 -0.00000
vn -0.99948 -0.03210 -0.00000
vn -0.99933 -0.02980 -0.02120
vn -0.99933 -0.02980 -0.02120
vn -0.99933 -0.02980 -0.02120
vn -0.99944 -0.03210 -0.00930
vn -0.99944 -0.03210 -0.00930
vn -0.99944 -0.03210 -0.00930
vn -1.00000 -0.00000 -0.00000
vn -1.00000 -0.00000 -0.00000
vn -1.00000 -0.00000 -0.00000
vn -0.99976 -0.00000 -0.02190
vn -0.99976 -0.00000 -0.02190
vn -0.99976 -0.00000 -0.02190
vn -0.99976 -0.00000 -0.02190
vn -0.99976 -0.00000 -0.02190
vn -0.99976 -0.00000 -0.02190
vn 0.02150 -0.66702 -0.74473
vn 0.02150 -0.66702 -0.74473
vn 0.02150 -0.66702 -0.74473
vn 0.63677 -0.77106 -0.00000
vn 0.63677 -0.77106 -0.00000
vn 0.63677 -0.77106 -0.00000
vn -0.01850 0.99983 -0.00000
vn -0.01850 0.99983 -0.00000
vn -0.01850 0.99983 -0.00000
vn 0.00000 1.00000 -0.00000
vn 0.00000 1.00000 -0.00000
vn 0.00000 1.00000 -0.00000
vn 0.98498 0.17270 -0.00000
vn 0.98498 0.17270 -0.00000
vn 0.98498 0.17270 -0.00000
f 1/1/1 2/2/2 3/3/3
f 4/4/4 5/5/5 6/6/6
f 7/7/7 8/8/8 9/9/9
f 10/10/10 11/11/11 12/12/12
f 13/13/13 14/14/14 15/15/15
f 16/16/16 17/17/17 18/18/18
f 19/19/19 20/20/20 21/21/21
f 22/22/22 23/23/23 24/24/24
f 25/25/25 26/26/26 27/27/27
f 28/28/28 29/29/29 30/30/30
f 31/31/31 32/32/32 33/33/33
f 34/34/34 35/35/35 36/36/36
f 37/37/37 38/38/38 39/39/39
f 40/40/40 41/41/41 42/42/42
f 43/43/43 44/44/44 45/45/45
f 46/46/46 47/47/47 48/48/48
f 49/49/49 50/50/50 51/51/51
f 52/52/52 53/53/53 54/54/54
f 55/55/55 56/56/56 57/57/57
f 58/58/58 59/59/59 60/60/60
f 61/61/61 62/62/62 63/63/63
f 64/64/64 65/65/65 66/66/66
f 67/67/67 68/68/68 69/69/69
f 70/70/70 71/71/71 72/72/72
f 73/73/73 74/74/74 75/75/75
f 76/76/76 77/77/77 78/78/78
f 79/79/79 80/80/80 81/81/81
f 82/82/82 83/83/83 84/84/84
f 85/85/85 86/86/86 87/87/87
f 88/88/88 89/89/89 90/90/90
f 91/91/91 92/92/92 93/93/93
f 94/94/94 95/95/95 96/96/96
f 97/97/97 98/98/98 99/99/99
f 100/100/100 101/101/101 102/102/102
f 103/103/103 104/104/104 105/105/105
f 106/106/106 107/107/107 108/108/108
f 109/109/109 110/110/110 111/111/111
f 112/112/112 113/113/113 114/114/114
f 115/115/115 116/116/116 117/117/117
f 118/118/118 119/119/119 120/120/120
f 121/121/121 122/122/122 123/123/123
f 124/124/124 125/125/125 126/126/126
f 127/127/127 128/128/128 129/129/129
f 130/130/130 131/131/131 132/132/132
f 133/133/133 134/134/134 135/135/135
f 136/136/136 137/137/137 138/138/138
f 139/139/139 140/140/140 141/141/141
f 142/142/142 143/143/143 144/144/144
f 145/145/145 146/146/146 147/147/147
f 148/148/148 149/149/149 150/150/150
f 151/151/151 152/152/152 153/153/153
f 154/154/154 155/155/155 156/156/156
f 157/157/157 158/158/158 159/159/159
f 160/160/160 161/161/161 162/162/162
f 163/163/163 164/164/164 165/165/165
f 166/166/166 167/167/167 168/168/168
f 169/169/169 170/170/170 171/171/171
f 172/172/172 173/173/173 174/174/174
f 175/175/175 176/176/176 177/177/177
f 178/178/178 179/179/179 180/180/180
f 181/181/181 182/182/182 183/183/183
f 184/184/184 185/185/185 186/186/186
f 187/187/187 188/188/188 189/189/189
f 190/190/190 191/191/191 192/192/192
f 193/193/193 194/194/194 195/195/195
f 196/196/196 197/197/197 198/198/198
f 199/199/199 200/200/200 201/201/201
f 202/202/202 203/203/203 204/204/204
f 205/205/205 206/206/206 207/207/207
f 208/208/208 209/209/209 210/210/210
f 211/211/211 212/212/212 213/213/213
f 214/214/214 215/215/215 216/216/216
f 217/217/217 218/218/218 219/219/219
f 220/220/220 221/221/221 222/222/222
f 223/223/223 224/224/224 225/225/225
f 226/226/226 227/227/227 228/228/228
f 229/229/229 230/230/230 231/231/231
f 232/232/232 233/233/233 234/234/234
f 235/235/235 236/236/236 237/237/237
f 238/238/238 239/239/239 240/240/240
f 241/241/241 242/242/242 243/243/243
f 244/244/244 245/245/245 246/246/246
f 247/247/247 248/248/248 249/249/249
f 250/250/250 251/251/251 252/252/252
f 253/253/253 254/254/254 255/255/255
f 256/256/256 257/257/257 258/258/258
f 259/259/259 260/260/260 261/261/261
f 262/262/262 263/263/263 264/264/264
f 265/265/265 266/266/266 267/267/267
f 268/268/268 269/269/269 270/270/270
f 271/271/271 272/272/272 273/273/273
f 274/274/274 275/275/275 276/276/276
f 277/277/277 278/278/278 279/279/279
f 280/280/280 281/281/281 282/282/282
f 283/283/283 284/284/284 285/285/285
f 286/286/286 287/287/287 288/288/288
f 289/289/289 290/290/290 291/291/291
f 292/292/292 293/293/293 294/294/294
f 295/295/295 296/296/296 297/297/297
f 298/298/298 299/299/299 300/300/300
f 301/301/301 302/302/302 303/303/303
f 304/304/304 305/305/305 306/306/306
f 307/307/307 308/308/308 309/309/309
f 310/310/310 311/311/311 312/312/312
f 313/313/313 314/314/314 315/315/315
f 316/316/316 317/317/317 318/318/318
f 319/319/319 320/320/320 321/321/321
f 322/322/322 323/323/323 324/324/324
f 325/325/325 326/326/326 327/327/327
f 328/328/328 329/329/329 330/330/330
f 331/331/331 332/332/332 333/333/333
f 334/334/334 335/335/335 336/336/336
f 337/337/337 338/338/338 339/339/339
f 340/340/340 341/341/341 342/342/342
f 343/343/343 344/344/344 345/345/345
f 346/346/346 347/347/347 348/348/348
f 349/349/349 350/350/350 351/351/351
f 352/352/352 353/353/353 354/354/354
f 355/355/355 356/356/356 357/357/357
f 358/358/358 359/359/359 360/360/360
f 361/361/361 362/362/362 363/363/363
f 364/364/364 365/365/365 366/366/366
f 367/367/367 368/368/368 369/369/369
f 370/370/370 371/371/371 372/372/372
f 373/373/373 374/374/374 375/375/375
f 376/376/376 377/377/377 378/378/378
f 379/379/379 380/380/380 381/381/381
f 382/382/382 383/383/383 384/384/384
f 385/385/385 386/386/386 387/387/387
f 388/388/388 389/389/389 390/390/390
f 391/391/391 392/392/392 393/393/393
f 394/394/394 395/395/395 396/396/396
f 397/397/397 398/398/398 399/399/399
f 400/400/400 401/401/401 402/402/402
f 403/403/403 404/404/404 405/405/405
f 406/406/406 407/407/407 408/408/408
f 409/409/409 410/410/410 411/411/411
f 412/412/412 413/413/413 414/414/414
f 415/415/415 416/416/416 417/417/417
f 418/418/418 419/419/419 420/420/420
f 421/421/421 422/422/422 423/423/423
f 424/424/424 425/425/425 426/426/426
f 427/427/427 428/428/428 429/429/429
f 430/430/430 431/431/431 432/432/432
f 433/433/433 434/434/434 435/435/435
f 436/436/436 437/437/437 438/438/438
f 439/439/439 440/440/440 441/441/441
f 442/442/442 443/443/443 444/444/444
f 445/445/445 446/446/446 447/447/447
f 448/448/448 449/449/449 450/450/450
f 451/451/451 452/452/452 453/453/453
f 454/454/454 455/455/455 456/456/456
f 457/457/457 458/458/458 459/459/459
f 460/460/460 461/461/461 462/462/462
f 463/463/463 464/464/464 465/465/465
f 466/466/466 467/467/467 468/468/468
f 469/469/469 470/470/470 471/471/471
f 472/472/472 473/473/473 474/474/474
f 475/475/475 476/476/476 477/477/477
f 478/478/478 479/479/479 480/480/480
f 481/481/481 482/482/482 483/483/483
f 484/484/484 485/485/485 486/486/486
f 487/487/487 488/488/488 489/489/489
f 490/490/490 491/491/491 492/492/492
f 493/493/493 494/494/494 495/495/495
f 496/496/496 497/497/497 498/498/498
f 499/499/499 500/500/500 501/501/501
f 502/502/502 503/503/503 504/504/504
f 505/505/505 506/506/506 507/507/507
f 508/508/508 509/509/509 510/510/510
f 511/511/511 512/512/512 513/513/513
f 514/514/514 515/515/515 516/516/516
f 517/517/517 518/518/518 519/519/519
f 520/520/520 521/521/521 522/522/522
f 523/523/523 524/524/524 525/525/525
f 526/526/526 527/527/527 528/528/528
f 529/529/529 530/530/530 531/531/531
f 532/532/532 533/533/533 534/534/534
f 535/535/535 536/536/536 537/537/537
f 538/538/538 539/539/539 540/540/540
f 541/541/541 542/542/542 543/543/543
f 544/544/544 545/545/545 546/546/546
f 547/547/547 548/548/548 549/549/549
f 550/550/550 551/551/551 552/552/552
f 553/553/553 554/554/554 555/555/555
f 556/556/556 557/557/557 558/558/558
f 559/559/559 560/560/560 561/561/561
f 562/562/562 563/563/563 564/564/564
f 565/565/565 566/566/566 567/567/567
f 568/568/568 569/569/569 570/570/570
f 571/571/571 572/572/572 573/573/573
f 574/574/574 575/575/575 576/576/576
f 577/577/577 578/578/578 579/579/579
f 580/580/580 581/581/581 582/582/582
f 583/583/583 584/584/584 585/585/585
f 586/586/586 587/587/587 588/588/588
f 589/589/589 590/590/590 591/591/591
f 592/592/592 593/593/593 594/594/594
f 595/595/595 596/596/596 597/597/597
f 598/598/598 599/599/599 600/600/600
f 601/601/601 602/602/602 603/603/603
f 604/604/604 605/605/605 606/606/606
f 607/607/607 608/608/608 609/609/609
f 610/610/610 611/611/611 612/612/612
f 613/613/613 614/614/614 615/615/615
f 616/616/616 617/617/617 618/618/618
f 619/619/619 620/620/620 621/621/621
f 622/622/622 623/623/623 624/624/624
f 625/625/625 626/626/626 627/627/627
f 628/628/628 629/629/629 630/630/630
f 631/631/631 632/632/632 633/633/633
f 634/634/634 635/635/635 636/636/636
f 637/637/637 638/638/638 639/639/639
f 640/640/640 641/641/641 642/642/642
f 643/643/643 644/644/644 645/645/645
f 646/646/646 647/647/647 648/648/648
f 649/649/649 650/650/650 651/651/651
f 652/652/652 653/653/653 654/654/654
f 655/655/655 656/656/656 657/657/657
f 658/658/658 659/659/659 660/660/660
f 661/661/661 662/662/662 663/663/663
f 664/664/664 665/665/665 666/666/666
f 667/667/667 668/668/668 669/669/669
f 670/670/670 671/671/671 672/672/672
f 673/673/673 674/674/674 675/675/675
f 676/676/676 677/677/677 678/678/678
f 679/679/679 680/680/680 681/681/681
f 682/682/682 683/683/683 684/684/684
f 685/685/685 686/686/686 687/687/687
f 688/688/688 689/689/689 690/690/690
f 691/691/691 692/692/692 693/693/693
f 694/694/694 695/695/695 696/696/696
f 697/697/697 698/698/698 699/699/699
f 700/700/700 701/701/701 702/702/702
f 703/703/703 704/704/704 705/705/705
f 706/706/706 707/707/707 708/708/708
f 709/709/709 710/710/710 711/711/711
f 712/712/712 713/713/713 714/714/714
f 715/715/715 716/716/716 717/717/717
f 718/718/718 719/719/719 720/720/720
f 721/721/721 722/722/722 723/723/723
f 724/724/724 725/725/725 726/726/726
f 727/727/727 728/728/728 729/729/729
f 730/730/730 731/731/731 732/732/732
f 733/733/733 734/734/734 735/735/735
f 736/736/736 737/737/737 738/738/738
f 739/739/739 740/740/740 741/741/741
f 742/742/742 743/743/743 744/744/744
f 745/745/745 746/746/746 747/747/747
f 748/748/748 749/749/749 750/750/750
f 751/751/751 752/752/752 753/753/753
f 754/754/754 755/755/755 756/756/756
f 757/757/757 758/758/758 759/759/759
f 760/760/760 761/761/761 762/762/762
f 763/763/763 764/764/764 765/765/765
f 766/766/766 767/767/767 768/768/768
f 769/769/769 770/770/770 771/771/771
f 772/772/772 773/773/773 774/774/774
f 775/775/775 776/776/776 777/777/777
f 778/778/778 779/779/779 780/780/780
f 781/781/781 782/782/782 783/783/783
f 784/784/784 785/785/785 786/786/786
f 787/787/787 788/788/788 789/789/789
f 790/790/790 791/791/791 792/792/792
f 793/793/793 794/794/794 795/795/795
f 796/796/796 797/797/797 798/798/798
f 799/799/799 800/800/800 801/801/801
f 802/802/802 803/803/803 804/804/804
f 805/805/805 806/806/806 807/807/807
f 808/808/808 809/809/809 810/810/810
f 811/811/811 812/812/812 813/813/813
f 814/814/814 815/815/815 816/816/816
f 817/817/817 818/818/818 819/819/819
f 820/820/820 821/821/821 822/822/822
f 823/823/823 824/824/824 825/825/825
f 826/826/826 827/827/827 828/828/828
f 829/829/829 830/830/830 831/831/831
f 832/832/832 833/833/833 834/834/834
f 835/835/835 836/836/836 837/837/837
f 838/838/838 839/839/839 840/840/840
f 841/841/841 842/842/842 843/843/843
f 844/844/844 845/845/845 846/846/846
f 847/847/847 848/848/848 849/849/849
f 850/850/850 851/851/851 852/852/852
f 853/853/853 854/854/854 855/855/855
f 856/856/856 857/857/857 858/858/858
f 859/859/859 860/860/860 861/861/861
f 862/862/862 863/863/863 864/864/864
f 865/865/865 866/866/866 867/867/867
f 868/868/868 869/869/869 870/870/870
f 871/871/871 872/872/872 873/873/873
f 874/874/874 875/875/875 876/876/876
f 877/877/877 878/878/878 879/879/879
f 880/880/880 881/881/881 882/882/882
f 883/883/883 884/884/884 885/885/885
f 886/886/886 887/887/887 888/888/888
f 889/889/889 890/890/890 891/891/891
f 892/892/892 893/893/893 894/894/894
f 895/895/895 896/896/896 897/897/897
f 898/898/898 899/899/899 900/900/900
f 901/901/901 902/902/902 903/903/903
f 904/904/904 905/905/905 906/906/906
f 907/907/907 908/908/908 909/909/909
f 910/910/910 911/911/911 912/912/912
f 913/913/913 914/914/914 915/915/915
f 916/916/916 917/917/917 918/918/918
f 919/919/919 920/920/920 921/921/921
f 922/922/922 923/923/923 924/924/924
f 925/925/925 926/926/926 927/927/927
f 928/928/928 929/929/929 930/930/930
f 931/931/931 932/932/932 933/933/933
f 934/934/934 935/935/935 936/936/936
f 937/937/937 938/938/938 939/939/939
f 940/940/940 941/941/941 942/942/942
f 943/943/943 944/944/944 945/945/945
f 946/946/946 947/947/947 948/948/948
f 949/949/949 950/950/950 951/951/951
f 952/952/952 953/953/953 954/954/954
f 955/955/955 956/956/956 957/957/957
f 958/958/958 959/959/959 960/960/960
