# STALKER Armor converted geometry (MC model units, pivot-relative)
v -4.57566 -8.70548 -4.61675
v -4.57566 0.41277 -3.59221
v -4.57566 0.41277 -4.61675
v -4.57566 -8.70548 4.64876
v 0.00000 0.41277 4.64876
v -4.57566 0.41277 4.64876
v -4.97150 -9.06846 -0.08419
v -4.97150 0.15342 4.12454
v -4.97150 0.15342 -0.08419
v -4.57566 -8.70548 -3.59221
v -4.97150 0.15342 -3.19280
v -4.57566 0.41277 -3.59221
v -4.57566 0.41277 0.01600
v -4.97150 0.15342 -3.19280
v -4.97150 0.15342 -0.08419
v 0.00000 0.41277 -3.59221
v -4.57566 0.41277 -4.61675
v -4.57566 0.41277 -3.59221
v 0.00000 0.41277 -3.59221
v -4.57566 0.41277 -3.59221
v -4.57566 0.41277 0.01600
v -4.57566 -8.70548 4.64876
v -4.97150 0.15342 4.12454
v -4.97150 -9.06846 4.12454
v -4.57566 -8.70548 -3.59221
v 0.00000 -9.06846 -3.19280
v -4.97150 -9.06846 -3.19280
v -4.57566 0.41277 0.01600
v -4.97150 0.15342 4.12454
v -4.57566 0.41277 4.64876
v -3.89263 -8.40197 -5.24137
v -4.57566 0.41277 -4.61675
v -3.89263 0.10926 -5.24137
v -3.89263 -8.40197 -5.24137
v 0.00000 -8.70548 -4.61675
v -4.57566 -8.70548 -4.61675
v -2.93382 -7.61048 -5.59232
v -3.89263 0.10926 -5.24137
v -2.93382 -0.68223 -5.59232
v -2.93382 -7.61048 -5.59232
v 0.00000 -8.40197 -5.24137
v -3.89263 -8.40197 -5.24137
v 0.00000 -9.06846 4.12454
v -4.97150 -9.06846 4.12454
v -4.97150 -9.06846 -0.08419
v 0.00000 0.41277 -4.61675
v -3.89263 0.10926 -5.24137
v -4.57566 0.41277 -4.61675
v 0.00000 0.10926 -5.24137
v -2.93382 -0.68223 -5.59232
v -3.89263 0.10926 -5.24137
v 0.00000 -7.61048 -5.59232
v -2.93382 -0.68223 -5.59232
v 0.00000 -0.68223 -5.59232
v 0.00000 -8.70548 -3.59221
v -4.57566 -8.70548 -4.61675
v 0.00000 -8.70548 -4.61675
v 0.00000 -9.06846 4.12454
v -4.57566 -8.70548 4.64876
v -4.97150 -9.06846 4.12454
v -4.50086 -2.99967 4.15220
v -4.85312 -2.35397 4.23461
v -4.29165 -3.14676 4.39410
v -4.29165 -3.14676 4.39410
v -4.82241 -2.67314 4.37451
v -4.26093 -3.46593 4.53400
v -4.26093 -3.46593 4.53400
v -4.98819 -2.97744 4.33045
v -4.42672 -3.77022 4.48993
v -4.98819 -2.97744 4.33045
v -4.69188 -3.88139 4.28772
v -4.42672 -3.77022 4.48993
v -5.25335 -3.08860 4.12824
v -4.90108 -3.73431 4.04582
v -4.69188 -3.88139 4.28772
v -5.46256 -2.94152 3.88633
v -4.93180 -3.41513 3.90592
v -4.90108 -3.73431 4.04582
v -5.32749 -2.31806 3.79050
v -5.21342 -2.22041 4.03325
v -5.06233 -2.20690 3.99271
v -5.49327 -2.62236 3.74644
v -4.76602 -3.11084 3.94999
v -4.93180 -3.41513 3.90592
v -4.76602 -3.11084 3.94999
v -5.06233 -2.20690 3.99271
v -4.50086 -2.99967 4.15220
v -4.42672 -3.77022 4.48993
v -4.90108 -3.73431 4.04582
v -4.76602 -3.11084 3.94999
v -5.74894 -2.58221 4.04368
v -5.61894 -2.26882 4.03242
v -5.53061 -2.33158 3.93413
v -5.06233 -2.20690 3.99271
v -4.98317 -2.31383 4.28299
v -4.85312 -2.35397 4.23461
v -4.98819 -2.97744 4.33045
v -4.97473 -2.55710 4.53704
v -5.19307 -2.80773 4.64659
v -5.46256 -2.94152 3.88633
v -5.74894 -2.58221 4.04368
v -5.49327 -2.62236 3.74644
v -4.98819 -2.97744 4.33045
v -5.51026 -2.91889 4.54747
v -5.25335 -3.08860 4.12824
v -5.49327 -2.62236 3.74644
v -5.53061 -2.33158 3.93413
v -5.32749 -2.31806 3.79050
v -4.85312 -2.35397 4.23461
v -4.97473 -2.55710 4.53704
v -4.82241 -2.67314 4.37451
v -5.25335 -3.08860 4.12824
v -5.74051 -2.82548 4.29774
v -5.46256 -2.94152 3.88633
v -5.87837 -2.55178 4.55929
v -5.94822 -1.93199 4.46927
v -5.86994 -2.40318 4.23858
v -5.51026 -2.91889 4.54747
v -5.87837 -2.55178 4.55929
v -5.74051 -2.82548 4.29774
v -5.19307 -2.80773 4.64659
v -5.04176 -2.45180 4.62967
v -5.29276 -2.58616 4.83582
v -5.21342 -2.22041 4.03325
v -5.03332 -2.30320 4.30896
v -4.98317 -2.31383 4.28299
v -5.53061 -2.33158 3.93413
v -5.27240 -2.22741 4.06157
v -5.21342 -2.22041 4.03325
v -5.74051 -2.82548 4.29774
v -5.86994 -2.40318 4.23858
v -5.74894 -2.58221 4.04368
v -5.51026 -2.91889 4.54747
v -5.29276 -2.58616 4.83582
v -5.63930 -2.62757 4.80667
v -4.97473 -2.55710 4.53704
v -5.03332 -2.30320 4.30896
v -5.04176 -2.45180 4.62967
v -5.10338 -1.92773 4.50203
v -4.16173 0.49274 4.48259
v -3.92359 0.46979 4.74152
v -5.63930 -2.62757 4.80667
v -5.37330 -1.98741 5.09438
v -5.72325 -1.98917 5.08081
v -5.04176 -2.45180 4.62967
v -5.10338 -1.92773 4.50203
v -5.11654 -1.96195 4.85465
v -5.86994 -2.40318 4.23858
v -5.69147 -1.90654 4.22953
v -5.61894 -2.26882 4.03242
v -5.63930 -2.62757 4.80667
v -5.96139 -1.96622 4.82188
v -5.87837 -2.55178 4.55929
v -5.29276 -2.58616 4.83582
v -5.11654 -1.96195 4.85465
v -5.37330 -1.98741 5.09438
v -5.03332 -2.30320 4.30896
v -5.34152 -1.90477 4.24310
v -5.10338 -1.92773 4.50203
v -5.61894 -2.26882 4.03242
v -5.34152 -1.90477 4.24310
v -5.27240 -2.22741 4.06157
v -4.76843 0.46552 4.70876
v -4.50459 1.18338 4.53869
v -4.51167 0.49097 4.46902
v -5.34152 -1.90477 4.24310
v -4.51167 0.49097 4.46902
v -4.16173 0.49274 4.48259
v -5.94822 -1.93199 4.46927
v -4.78160 0.43129 5.06137
v -4.76843 0.46552 4.70876
v -5.37330 -1.98741 5.09438
v -4.54346 0.40834 5.32030
v -5.72325 -1.98917 5.08081
v -5.10338 -1.92773 4.50203
v -3.93675 0.43556 5.09414
v -5.11654 -1.96195 4.85465
v -5.69147 -1.90654 4.22953
v -4.76843 0.46552 4.70876
v -4.51167 0.49097 4.46902
v -5.72325 -1.98917 5.08081
v -4.78160 0.43129 5.06137
v -5.96139 -1.96622 4.82188
v -5.11654 -1.96195 4.85465
v -4.19351 0.41010 5.33388
v -5.37330 -1.98741 5.09438
v -3.95964 0.93591 4.78686
v -1.82206 2.04859 4.69192
v -3.97281 0.90168 5.13947
v -4.78160 0.43129 5.06137
v -4.53637 1.10075 5.38998
v -4.75664 1.21743 5.14112
v -4.19351 0.41010 5.33388
v -3.97281 0.90168 5.13947
v -4.21170 0.96996 5.38929
v -4.16173 0.49274 4.48259
v -3.95964 0.93591 4.78686
v -3.92359 0.46979 4.74152
v -4.51167 0.49097 4.46902
v -4.17991 1.05259 4.53801
v -4.16173 0.49274 4.48259
v -4.78160 0.43129 5.06137
v -4.74348 1.25166 4.78851
v -4.76843 0.46552 4.70876
v -4.54346 0.40834 5.32030
v -4.21170 0.96996 5.38929
v -4.53637 1.10075 5.38998
v -3.92359 0.46979 4.74152
v -3.97281 0.90168 5.13947
v -3.93675 0.43556 5.09414
v -2.35384 2.33029 4.09114
v -2.07974 2.71479 4.16413
v -2.02916 2.19950 4.09045
v -4.50459 1.18338 4.53869
v -2.59273 2.39857 4.34095
v -2.35384 2.33029 4.09114
v -4.53637 1.10075 5.38998
v -2.60589 2.36434 4.69357
v -4.75664 1.21743 5.14112
v -3.97281 0.90168 5.13947
v -2.06095 2.11687 4.94174
v -4.21170 0.96996 5.38929
v -3.95964 0.93591 4.78686
v -2.02916 2.19950 4.09045
v -1.80889 2.08282 4.33930
v -4.17991 1.05259 4.53801
v -2.35384 2.33029 4.09114
v -2.02916 2.19950 4.09045
v -4.74348 1.25166 4.78851
v -2.60589 2.36434 4.69357
v -2.59273 2.39857 4.34095
v -4.21170 0.96996 5.38929
v -2.38562 2.24766 4.94242
v -4.53637 1.10075 5.38998
v -2.07974 2.71479 4.16413
v -2.28708 3.16021 4.58877
v -1.82840 2.98029 5.01322
v -2.60589 2.36434 4.69357
v -2.28708 3.16021 4.58877
v -2.59273 2.39857 4.34095
v -2.38562 2.24766 4.94242
v -1.62974 2.72031 4.88880
v -1.82840 2.98029 5.01322
v -1.80889 2.08282 4.33930
v -1.62106 2.53487 4.58857
v -1.82206 2.04859 4.69192
v -2.59273 2.39857 4.34095
v -2.27841 2.97476 4.28854
v -2.35384 2.33029 4.09114
v -2.38562 2.24766 4.94242
v -2.10068 3.16250 4.88894
v -2.60589 2.36434 4.69357
v -2.06095 2.11687 4.94174
v -1.62106 2.53487 4.58857
v -1.62974 2.72031 4.88880
v -2.02916 2.19950 4.09045
v -1.80746 2.53258 4.28840
v -1.80889 2.08282 4.33930
v 4.57566 0.41277 -3.59221
v 4.57566 -8.70548 -4.61675
v 4.57566 0.41277 -4.61675
v 0.00000 0.41277 4.64876
v 4.57566 -8.70548 4.64876
v 4.57566 0.41277 4.64876
v 4.97150 0.15342 -0.08419
v 4.97150 -9.06846 4.12454
v 4.97150 -9.06846 -0.08419
v 4.97150 0.15342 -3.19280
v 4.57566 -8.70548 -3.59221
v 4.57566 0.41277 -3.59221
v 4.57566 0.41277 0.01600
v 4.97150 0.15342 -3.19280
v 4.57566 0.41277 -3.59221
v 4.57566 0.41277 -4.61675
v 0.00000 0.41277 -3.59221
v 4.57566 0.41277 -3.59221
v 4.57566 0.41277 0.01600
v 0.00000 0.41277 -3.59221
v 0.00000 0.41277 4.64876
v 4.57566 -8.70548 4.64876
v 4.97150 0.15342 4.12454
v 4.57566 0.41277 4.64876
v 4.57566 -8.70548 -3.59221
v 0.00000 -9.06846 -3.19280
v 0.00000 -8.70548 -3.59221
v 4.97150 0.15342 4.12454
v 4.57566 0.41277 0.01600
v 4.57566 0.41277 4.64876
v 4.57566 0.41277 -4.61675
v 3.89263 -8.40197 -5.24137
v 3.89263 0.10926 -5.24137
v 3.89263 -8.40197 -5.24137
v 0.00000 -8.70548 -4.61675
v 0.00000 -8.40197 -5.24137
v 3.89263 0.10926 -5.24137
v 2.93382 -7.61048 -5.59232
v 2.93382 -0.68223 -5.59232
v 2.93382 -7.61048 -5.59232
v 0.00000 -8.40197 -5.24137
v 0.00000 -7.61048 -5.59232
v 4.97150 -9.06846 -0.08419
v 4.97150 -9.06846 4.12454
v 0.00000 -9.06846 4.12454
v 0.00000 0.41277 -4.61675
v 3.89263 0.10926 -5.24137
v 0.00000 0.10926 -5.24137
v 0.00000 0.10926 -5.24137
v 2.93382 -0.68223 -5.59232
v 0.00000 -0.68223 -5.59232
v 2.93382 -0.68223 -5.59232
v 0.00000 -7.61048 -5.59232
v 0.00000 -0.68223 -5.59232
v 4.57566 -8.70548 -4.61675
v 0.00000 -8.70548 -3.59221
v 0.00000 -8.70548 -4.61675
v 0.00000 -9.06846 4.12454
v 4.57566 -8.70548 4.64876
v 0.00000 -8.70548 4.64876
v 4.50086 -2.99967 4.15220
v 4.85312 -2.35397 4.23461
v 5.06233 -2.20690 3.99271
v 4.29165 -3.14676 4.39410
v 4.82241 -2.67314 4.37451
v 4.85312 -2.35397 4.23461
v 4.26093 -3.46593 4.53400
v 4.98819 -2.97744 4.33045
v 4.82241 -2.67314 4.37451
v 4.69188 -3.88139 4.28772
v 4.98819 -2.97744 4.33045
v 4.42672 -3.77022 4.48993
v 4.90108 -3.73431 4.04582
v 5.25335 -3.08860 4.12824
v 4.69188 -3.88139 4.28772
v 4.93180 -3.41513 3.90592
v 5.46256 -2.94152 3.88633
v 4.90108 -3.73431 4.04582
v 5.21342 -2.22041 4.03325
v 5.32749 -2.31806 3.79050
v 5.06233 -2.20690 3.99271
v 4.76602 -3.11084 3.94999
v 5.49327 -2.62236 3.74644
v 4.93180 -3.41513 3.90592
v 4.76602 -3.11084 3.94999
v 5.06233 -2.20690 3.99271
v 5.32749 -2.31806 3.79050
v 4.90108 -3.73431 4.04582
v 4.42672 -3.77022 4.48993
v 4.29165 -3.14676 4.39410
v 5.61894 -2.26882 4.03242
v 5.74894 -2.58221 4.04368
v 5.53061 -2.33158 3.93413
v 4.98317 -2.31383 4.28299
v 5.06233 -2.20690 3.99271
v 4.85312 -2.35397 4.23461
v 4.98819 -2.97744 4.33045
v 4.97473 -2.55710 4.53704
v 4.82241 -2.67314 4.37451
v 5.74894 -2.58221 4.04368
v 5.46256 -2.94152 3.88633
v 5.49327 -2.62236 3.74644
v 5.51026 -2.91889 4.54747
v 4.98819 -2.97744 4.33045
v 5.25335 -3.08860 4.12824
v 5.53061 -2.33158 3.93413
v 5.49327 -2.62236 3.74644
v 5.32749 -2.31806 3.79050
v 4.97473 -2.55710 4.53704
v 4.85312 -2.35397 4.23461
v 4.82241 -2.67314 4.37451
v 5.74051 -2.82548 4.29774
v 5.25335 -3.08860 4.12824
v 5.46256 -2.94152 3.88633
v 5.94822 -1.93199 4.46927
v 5.87837 -2.55178 4.55929
v 5.86994 -2.40318 4.23858
v 5.87837 -2.55178 4.55929
v 5.51026 -2.91889 4.54747
v 5.74051 -2.82548 4.29774
v 5.19307 -2.80773 4.64659
v 5.04176 -2.45180 4.62967
v 4.97473 -2.55710 4.53704
v 5.03332 -2.30320 4.30896
v 5.21342 -2.22041 4.03325
v 4.98317 -2.31383 4.28299
v 5.27240 -2.22741 4.06157
v 5.53061 -2.33158 3.93413
v 5.21342 -2.22041 4.03325
v 5.86994 -2.40318 4.23858
v 5.74051 -2.82548 4.29774
v 5.74894 -2.58221 4.04368
v 5.51026 -2.91889 4.54747
v 5.29276 -2.58616 4.83582
v 5.19307 -2.80773 4.64659
v 4.97473 -2.55710 4.53704
v 5.03332 -2.30320 4.30896
v 4.98317 -2.31383 4.28299
v 5.10338 -1.92773 4.50203
v 4.16173 0.49274 4.48259
v 5.34152 -1.90477 4.24310
v 5.63930 -2.62757 4.80667
v 5.37330 -1.98741 5.09438
v 5.29276 -2.58616 4.83582
v 5.04176 -2.45180 4.62967
v 5.10338 -1.92773 4.50203
v 5.03332 -2.30320 4.30896
v 5.69147 -1.90654 4.22953
v 5.86994 -2.40318 4.23858
v 5.61894 -2.26882 4.03242
v 5.96139 -1.96622 4.82188
v 5.63930 -2.62757 4.80667
v 5.87837 -2.55178 4.55929
v 5.29276 -2.58616 4.83582
v 5.11654 -1.96195 4.85465
v 5.04176 -2.45180 4.62967
v 5.03332 -2.30320 4.30896
v 5.34152 -1.90477 4.24310
v 5.27240 -2.22741 4.06157
v 5.34152 -1.90477 4.24310
v 5.61894 -2.26882 4.03242
v 5.27240 -2.22741 4.06157
v 4.50459 1.18338 4.53869
v 4.76843 0.46552 4.70876
v 4.51167 0.49097 4.46902
v 5.34152 -1.90477 4.24310
v 4.51167 0.49097 4.46902
v 5.69147 -1.90654 4.22953
v 5.94822 -1.93199 4.46927
v 4.78160 0.43129 5.06137
v 5.96139 -1.96622 4.82188
v 4.54346 0.40834 5.32030
v 5.37330 -1.98741 5.09438
v 5.72325 -1.98917 5.08081
v 3.93675 0.43556 5.09414
v 5.10338 -1.92773 4.50203
v 5.11654 -1.96195 4.85465
v 5.69147 -1.90654 4.22953
v 4.76843 0.46552 4.70876
v 5.94822 -1.93199 4.46927
v 4.78160 0.43129 5.06137
v 5.72325 -1.98917 5.08081
v 5.96139 -1.96622 4.82188
v 4.19351 0.41010 5.33388
v 5.11654 -1.96195 4.85465
v 5.37330 -1.98741 5.09438
v 1.82206 2.04859 4.69192
v 3.95964 0.93591 4.78686
v 3.97281 0.90168 5.13947
v 4.78160 0.43129 5.06137
v 4.53637 1.10075 5.38998
v 4.54346 0.40834 5.32030
v 4.19351 0.41010 5.33388
v 3.97281 0.90168 5.13947
v 3.93675 0.43556 5.09414
v 3.95964 0.93591 4.78686
v 4.16173 0.49274 4.48259
v 3.92359 0.46979 4.74152
v 4.17991 1.05259 4.53801
v 4.51167 0.49097 4.46902
v 4.16173 0.49274 4.48259
v 4.74348 1.25166 4.78851
v 4.78160 0.43129 5.06137
v 4.76843 0.46552 4.70876
v 4.54346 0.40834 5.32030
v 4.21170 0.96996 5.38929
v 4.19351 0.41010 5.33388
v 3.93675 0.43556 5.09414
v 3.95964 0.93591 4.78686
v 3.92359 0.46979 4.74152
v 2.07974 2.71479 4.16413
v 2.35384 2.33029 4.09114
v 2.02916 2.19950 4.09045
v 4.50459 1.18338 4.53869
v 2.59273 2.39857 4.34095
v 4.74348 1.25166 4.78851
v 2.60589 2.36434 4.69357
v 4.53637 1.10075 5.38998
v 4.75664 1.21743 5.14112
v 2.06095 2.11687 4.94174
v 3.97281 0.90168 5.13947
v 4.21170 0.96996 5.38929
v 3.95964 0.93591 4.78686
v 2.02916 2.19950 4.09045
v 4.17991 1.05259 4.53801
v 4.17991 1.05259 4.53801
v 2.35384 2.33029 4.09114
v 4.50459 1.18338 4.53869
v 4.74348 1.25166 4.78851
v 2.60589 2.36434 4.69357
v 4.75664 1.21743 5.14112
v 2.38562 2.24766 4.94242
v 4.21170 0.96996 5.38929
v 4.53637 1.10075 5.38998
v 1.82840 2.98029 5.01322
v 2.28708 3.16021 4.58877
v 2.07974 2.71479 4.16413
v 2.28708 3.16021 4.58877
v 2.60589 2.36434 4.69357
v 2.59273 2.39857 4.34095
v 2.38562 2.24766 4.94242
v 1.62974 2.72031 4.88880
v 2.06095 2.11687 4.94174
v 1.62106 2.53487 4.58857
v 1.80889 2.08282 4.33930
v 1.82206 2.04859 4.69192
v 2.27841 2.97476 4.28854
v 2.59273 2.39857 4.34095
v 2.35384 2.33029 4.09114
v 2.10068 3.16250 4.88894
v 2.38562 2.24766 4.94242
v 2.60589 2.36434 4.69357
v 2.06095 2.11687 4.94174
v 1.62106 2.53487 4.58857
v 1.82206 2.04859 4.69192
v 1.80746 2.53258 4.28840
v 2.02916 2.19950 4.09045
v 1.80889 2.08282 4.33930
v -4.57566 -8.70548 -4.61675
v -4.57566 -8.70548 -3.59221
v -4.57566 0.41277 -3.59221
v -4.57566 -8.70548 4.64876
v 0.00000 -8.70548 4.64876
v 0.00000 0.41277 4.64876
v -4.97150 0.15342 -0.08419
v -4.97150 0.15342 -3.19280
v -4.97150 -9.06846 -3.19280
v -4.97150 -9.06846 -0.08419
v -4.97150 -9.06846 4.12454
v -4.97150 0.15342 4.12454
v -4.97150 0.15342 -0.08419
v -4.97150 -9.06846 -3.19280
v -4.97150 -9.06846 -0.08419
v -4.57566 -8.70548 -3.59221
v -4.97150 -9.06846 -3.19280
v -4.97150 0.15342 -3.19280
v -4.57566 0.41277 0.01600
v -4.57566 0.41277 -3.59221
v -4.97150 0.15342 -3.19280
v 0.00000 0.41277 -3.59221
v 0.00000 0.41277 -4.61675
v -4.57566 0.41277 -4.61675
v -4.57566 0.41277 0.01600
v -4.57566 0.41277 4.64876
v 0.00000 0.41277 4.64876
v 0.00000 0.41277 4.64876
v 0.00000 0.41277 -3.59221
v -4.57566 0.41277 0.01600
v -4.57566 -8.70548 4.64876
v -4.57566 0.41277 4.64876
v -4.97150 0.15342 4.12454
v -4.57566 -8.70548 -3.59221
v 0.00000 -8.70548 -3.59221
v 0.00000 -9.06846 -3.19280
v -4.57566 0.41277 0.01600
v -4.97150 0.15342 -0.08419
v -4.97150 0.15342 4.12454
v -3.89263 -8.40197 -5.24137
v -4.57566 -8.70548 -4.61675
v -4.57566 0.41277 -4.61675
v -3.89263 -8.40197 -5.24137
v 0.00000 -8.40197 -5.24137
v 0.00000 -8.70548 -4.61675
v -2.93382 -7.61048 -5.59232
v -3.89263 -8.40197 -5.24137
v -3.89263 0.10926 -5.24137
v -2.93382 -7.61048 -5.59232
v 0.00000 -7.61048 -5.59232
v 0.00000 -8.40197 -5.24137
v -4.97150 -9.06846 -3.19280
v 0.00000 -9.06846 -3.19280
v -4.97150 -9.06846 -0.08419
v 0.00000 -9.06846 -3.19280
v 0.00000 -9.06846 4.12454
v -4.97150 -9.06846 -0.08419
v 0.00000 0.41277 -4.61675
v 0.00000 0.10926 -5.24137
v -3.89263 0.10926 -5.24137
v 0.00000 0.10926 -5.24137
v 0.00000 -0.68223 -5.59232
v -2.93382 -0.68223 -5.59232
v 0.00000 -7.61048 -5.59232
v -2.93382 -7.61048 -5.59232
v -2.93382 -0.68223 -5.59232
v 0.00000 -8.70548 -3.59221
v -4.57566 -8.70548 -3.59221
v -4.57566 -8.70548 -4.61675
v 0.00000 -9.06846 4.12454
v 0.00000 -8.70548 4.64876
v -4.57566 -8.70548 4.64876
v -4.50086 -2.99967 4.15220
v -5.06233 -2.20690 3.99271
v -4.85312 -2.35397 4.23461
v -4.29165 -3.14676 4.39410
v -4.85312 -2.35397 4.23461
v -4.82241 -2.67314 4.37451
v -4.26093 -3.46593 4.53400
v -4.82241 -2.67314 4.37451
v -4.98819 -2.97744 4.33045
v -4.98819 -2.97744 4.33045
v -5.25335 -3.08860 4.12824
v -4.69188 -3.88139 4.28772
v -5.25335 -3.08860 4.12824
v -5.46256 -2.94152 3.88633
v -4.90108 -3.73431 4.04582
v -5.46256 -2.94152 3.88633
v -5.49327 -2.62236 3.74644
v -4.93180 -3.41513 3.90592
v -5.32749 -2.31806 3.79050
v -5.53061 -2.33158 3.93413
v -5.21342 -2.22041 4.03325
v -5.49327 -2.62236 3.74644
v -5.32749 -2.31806 3.79050
v -4.76602 -3.11084 3.94999
v -4.76602 -3.11084 3.94999
v -5.32749 -2.31806 3.79050
v -5.06233 -2.20690 3.99271
v -4.76602 -3.11084 3.94999
v -4.50086 -2.99967 4.15220
v -4.29165 -3.14676 4.39410
v -4.29165 -3.14676 4.39410
v -4.26093 -3.46593 4.53400
v -4.42672 -3.77022 4.48993
v -4.42672 -3.77022 4.48993
v -4.69188 -3.88139 4.28772
v -4.90108 -3.73431 4.04582
v -4.90108 -3.73431 4.04582
v -4.93180 -3.41513 3.90592
v -4.76602 -3.11084 3.94999
v -4.76602 -3.11084 3.94999
v -4.29165 -3.14676 4.39410
v -4.42672 -3.77022 4.48993
v -5.74894 -2.58221 4.04368
v -5.86994 -2.40318 4.23858
v -5.61894 -2.26882 4.03242
v -5.06233 -2.20690 3.99271
v -5.21342 -2.22041 4.03325
v -4.98317 -2.31383 4.28299
v -4.98819 -2.97744 4.33045
v -4.82241 -2.67314 4.37451
v -4.97473 -2.55710 4.53704
v -5.46256 -2.94152 3.88633
v -5.74051 -2.82548 4.29774
v -5.74894 -2.58221 4.04368
v -4.98819 -2.97744 4.33045
v -5.19307 -2.80773 4.64659
v -5.51026 -2.91889 4.54747
v -5.49327 -2.62236 3.74644
v -5.74894 -2.58221 4.04368
v -5.53061 -2.33158 3.93413
v -4.85312 -2.35397 4.23461
v -4.98317 -2.31383 4.28299
v -4.97473 -2.55710 4.53704
v -5.25335 -3.08860 4.12824
v -5.51026 -2.91889 4.54747
v -5.74051 -2.82548 4.29774
v -5.87837 -2.55178 4.55929
v -5.96139 -1.96622 4.82188
v -5.94822 -1.93199 4.46927
v -5.51026 -2.91889 4.54747
v -5.63930 -2.62757 4.80667
v -5.87837 -2.55178 4.55929
v -5.19307 -2.80773 4.64659
v -4.97473 -2.55710 4.53704
v -5.04176 -2.45180 4.62967
v -5.21342 -2.22041 4.03325
v -5.27240 -2.22741 4.06157
v -5.03332 -2.30320 4.30896
v -5.53061 -2.33158 3.93413
v -5.61894 -2.26882 4.03242
v -5.27240 -2.22741 4.06157
v -5.74051 -2.82548 4.29774
v -5.87837 -2.55178 4.55929
v -5.86994 -2.40318 4.23858
v -5.51026 -2.91889 4.54747
v -5.19307 -2.80773 4.64659
v -5.29276 -2.58616 4.83582
v -4.97473 -2.55710 4.53704
v -4.98317 -2.31383 4.28299
v -5.03332 -2.30320 4.30896
v -5.10338 -1.92773 4.50203
v -5.34152 -1.90477 4.24310
v -4.16173 0.49274 4.48259
v -5.63930 -2.62757 4.80667
v -5.29276 -2.58616 4.83582
v -5.37330 -1.98741 5.09438
v -5.04176 -2.45180 4.62967
v -5.03332 -2.30320 4.30896
v -5.10338 -1.92773 4.50203
v -5.86994 -2.40318 4.23858
v -5.94822 -1.93199 4.46927
v -5.69147 -1.90654 4.22953
v -5.63930 -2.62757 4.80667
v -5.72325 -1.98917 5.08081
v -5.96139 -1.96622 4.82188
v -5.29276 -2.58616 4.83582
v -5.04176 -2.45180 4.62967
v -5.11654 -1.96195 4.85465
v -5.03332 -2.30320 4.30896
v -5.27240 -2.22741 4.06157
v -5.34152 -1.90477 4.24310
v -5.61894 -2.26882 4.03242
v -5.69147 -1.90654 4.22953
v -5.34152 -1.90477 4.24310
v -4.76843 0.46552 4.70876
v -4.74348 1.25166 4.78851
v -4.50459 1.18338 4.53869
v -5.34152 -1.90477 4.24310
v -5.69147 -1.90654 4.22953
v -4.51167 0.49097 4.46902
v -5.94822 -1.93199 4.46927
v -5.96139 -1.96622 4.82188
v -4.78160 0.43129 5.06137
v -5.37330 -1.98741 5.09438
v -4.19351 0.41010 5.33388
v -4.54346 0.40834 5.32030
v -5.10338 -1.92773 4.50203
v -3.92359 0.46979 4.74152
v -3.93675 0.43556 5.09414
v -5.69147 -1.90654 4.22953
v -5.94822 -1.93199 4.46927
v -4.76843 0.46552 4.70876
v -5.72325 -1.98917 5.08081
v -4.54346 0.40834 5.32030
v -4.78160 0.43129 5.06137
v -5.11654 -1.96195 4.85465
v -3.93675 0.43556 5.09414
v -4.19351 0.41010 5.33388
v -3.95964 0.93591 4.78686
v -1.80889 2.08282 4.33930
v -1.82206 2.04859 4.69192
v -4.78160 0.43129 5.06137
v -4.54346 0.40834 5.32030
v -4.53637 1.10075 5.38998
v -4.19351 0.41010 5.33388
v -3.93675 0.43556 5.09414
v -3.97281 0.90168 5.13947
v -4.16173 0.49274 4.48259
v -4.17991 1.05259 4.53801
v -3.95964 0.93591 4.78686
v -4.51167 0.49097 4.46902
v -4.50459 1.18338 4.53869
v -4.17991 1.05259 4.53801
v -4.78160 0.43129 5.06137
v -4.75664 1.21743 5.14112
v -4.74348 1.25166 4.78851
v -4.54346 0.40834 5.32030
v -4.19351 0.41010 5.33388
v -4.21170 0.96996 5.38929
v -3.92359 0.46979 4.74152
v -3.95964 0.93591 4.78686
v -3.97281 0.90168 5.13947
v -2.35384 2.33029 4.09114
v -2.27841 2.97476 4.28854
v -2.07974 2.71479 4.16413
v -4.50459 1.18338 4.53869
v -4.74348 1.25166 4.78851
v -2.59273 2.39857 4.34095
v -4.53637 1.10075 5.38998
v -2.38562 2.24766 4.94242
v -2.60589 2.36434 4.69357
v -3.97281 0.90168 5.13947
v -1.82206 2.04859 4.69192
v -2.06095 2.11687 4.94174
v -3.95964 0.93591 4.78686
v -4.17991 1.05259 4.53801
v -2.02916 2.19950 4.09045
v -4.17991 1.05259 4.53801
v -4.50459 1.18338 4.53869
v -2.35384 2.33029 4.09114
v -4.74348 1.25166 4.78851
v -4.75664 1.21743 5.14112
v -2.60589 2.36434 4.69357
v -4.21170 0.96996 5.38929
v -2.06095 2.11687 4.94174
v -2.38562 2.24766 4.94242
v -1.62106 2.53487 4.58857
v -1.80746 2.53258 4.28840
v -2.07974 2.71479 4.16413
v -2.07974 2.71479 4.16413
v -2.27841 2.97476 4.28854
v -2.28708 3.16021 4.58877
v -2.28708 3.16021 4.58877
v -2.10068 3.16250 4.88894
v -1.82840 2.98029 5.01322
v -1.82840 2.98029 5.01322
v -1.62974 2.72031 4.88880
v -1.62106 2.53487 4.58857
v -1.62106 2.53487 4.58857
v -2.07974 2.71479 4.16413
v -1.82840 2.98029 5.01322
v -2.60589 2.36434 4.69357
v -2.10068 3.16250 4.88894
v -2.28708 3.16021 4.58877
v -2.38562 2.24766 4.94242
v -2.06095 2.11687 4.94174
v -1.62974 2.72031 4.88880
v -1.80889 2.08282 4.33930
v -1.80746 2.53258 4.28840
v -1.62106 2.53487 4.58857
v -2.59273 2.39857 4.34095
v -2.28708 3.16021 4.58877
v -2.27841 2.97476 4.28854
v -2.38562 2.24766 4.94242
v -1.82840 2.98029 5.01322
v -2.10068 3.16250 4.88894
v -2.06095 2.11687 4.94174
v -1.82206 2.04859 4.69192
v -1.62106 2.53487 4.58857
v -2.02916 2.19950 4.09045
v -2.07974 2.71479 4.16413
v -1.80746 2.53258 4.28840
v 4.57566 0.41277 -3.59221
v 4.57566 -8.70548 -3.59221
v 4.57566 -8.70548 -4.61675
v 0.00000 0.41277 4.64876
v 0.00000 -8.70548 4.64876
v 4.57566 -8.70548 4.64876
v 4.97150 -9.06846 -3.19280
v 4.97150 0.15342 -3.19280
v 4.97150 0.15342 -0.08419
v 4.97150 0.15342 -0.08419
v 4.97150 0.15342 4.12454
v 4.97150 -9.06846 4.12454
v 4.97150 -9.06846 -0.08419
v 4.97150 -9.06846 -3.19280
v 4.97150 0.15342 -0.08419
v 4.97150 0.15342 -3.19280
v 4.97150 -9.06846 -3.19280
v 4.57566 -8.70548 -3.59221
v 4.57566 0.41277 0.01600
v 4.97150 0.15342 -0.08419
v 4.97150 0.15342 -3.19280
v 4.57566 0.41277 -4.61675
v 0.00000 0.41277 -4.61675
v 0.00000 0.41277 -3.59221
v 0.00000 0.41277 4.64876
v 4.57566 0.41277 4.64876
v 4.57566 0.41277 0.01600
v 4.57566 0.41277 0.01600
v 4.57566 0.41277 -3.59221
v 0.00000 0.41277 -3.59221
v 4.57566 -8.70548 4.64876
v 4.97150 -9.06846 4.12454
v 4.97150 0.15342 4.12454
v 4.57566 -8.70548 -3.59221
v 4.97150 -9.06846 -3.19280
v 0.00000 -9.06846 -3.19280
v 4.97150 0.15342 4.12454
v 4.97150 0.15342 -0.08419
v 4.57566 0.41277 0.01600
v 4.57566 0.41277 -4.61675
v 4.57566 -8.70548 -4.61675
v 3.89263 -8.40197 -5.24137
v 3.89263 -8.40197 -5.24137
v 4.57566 -8.70548 -4.61675
v 0.00000 -8.70548 -4.61675
v 3.89263 0.10926 -5.24137
v 3.89263 -8.40197 -5.24137
v 2.93382 -7.61048 -5.59232
v 2.93382 -7.61048 -5.59232
v 3.89263 -8.40197 -5.24137
v 0.00000 -8.40197 -5.24137
v 0.00000 -9.06846 4.12454
v 0.00000 -9.06846 -3.19280
v 4.97150 -9.06846 -0.08419
v 0.00000 -9.06846 -3.19280
v 4.97150 -9.06846 -3.19280
v 4.97150 -9.06846 -0.08419
v 0.00000 0.41277 -4.61675
v 4.57566 0.41277 -4.61675
v 3.89263 0.10926 -5.24137
v 0.00000 0.10926 -5.24137
v 3.89263 0.10926 -5.24137
v 2.93382 -0.68223 -5.59232
v 2.93382 -0.68223 -5.59232
v 2.93382 -7.61048 -5.59232
v 0.00000 -7.61048 -5.59232
v 4.57566 -8.70548 -4.61675
v 4.57566 -8.70548 -3.59221
v 0.00000 -8.70548 -3.59221
v 0.00000 -9.06846 4.12454
v 4.97150 -9.06846 4.12454
v 4.57566 -8.70548 4.64876
v 4.50086 -2.99967 4.15220
v 4.29165 -3.14676 4.39410
v 4.85312 -2.35397 4.23461
v 4.29165 -3.14676 4.39410
v 4.26093 -3.46593 4.53400
v 4.82241 -2.67314 4.37451
v 4.26093 -3.46593 4.53400
v 4.42672 -3.77022 4.48993
v 4.98819 -2.97744 4.33045
v 4.69188 -3.88139 4.28772
v 5.25335 -3.08860 4.12824
v 4.98819 -2.97744 4.33045
v 4.90108 -3.73431 4.04582
v 5.46256 -2.94152 3.88633
v 5.25335 -3.08860 4.12824
v 4.93180 -3.41513 3.90592
v 5.49327 -2.62236 3.74644
v 5.46256 -2.94152 3.88633
v 5.21342 -2.22041 4.03325
v 5.53061 -2.33158 3.93413
v 5.32749 -2.31806 3.79050
v 4.76602 -3.11084 3.94999
v 5.32749 -2.31806 3.79050
v 5.49327 -2.62236 3.74644
v 4.76602 -3.11084 3.94999
v 4.50086 -2.99967 4.15220
v 5.06233 -2.20690 3.99271
v 4.29165 -3.14676 4.39410
v 4.50086 -2.99967 4.15220
v 4.90108 -3.73431 4.04582
v 4.50086 -2.99967 4.15220
v 4.76602 -3.11084 3.94999
v 4.90108 -3.73431 4.04582
v 4.76602 -3.11084 3.94999
v 4.93180 -3.41513 3.90592
v 4.90108 -3.73431 4.04582
v 4.90108 -3.73431 4.04582
v 4.69188 -3.88139 4.28772
v 4.42672 -3.77022 4.48993
v 4.42672 -3.77022 4.48993
v 4.26093 -3.46593 4.53400
v 4.29165 -3.14676 4.39410
v 5.61894 -2.26882 4.03242
v 5.86994 -2.40318 4.23858
v 5.74894 -2.58221 4.04368
v 4.98317 -2.31383 4.28299
v 5.21342 -2.22041 4.03325
v 5.06233 -2.20690 3.99271
v 4.98819 -2.97744 4.33045
v 5.19307 -2.80773 4.64659
v 4.97473 -2.55710 4.53704
v 5.74894 -2.58221 4.04368
v 5.74051 -2.82548 4.29774
v 5.46256 -2.94152 3.88633
v 5.51026 -2.91889 4.54747
v 5.19307 -2.80773 4.64659
v 4.98819 -2.97744 4.33045
v 5.53061 -2.33158 3.93413
v 5.74894 -2.58221 4.04368
v 5.49327 -2.62236 3.74644
v 4.97473 -2.55710 4.53704
v 4.98317 -2.31383 4.28299
v 4.85312 -2.35397 4.23461
v 5.74051 -2.82548 4.29774
v 5.51026 -2.91889 4.54747
v 5.25335 -3.08860 4.12824
v 5.94822 -1.93199 4.46927
v 5.96139 -1.96622 4.82188
v 5.87837 -2.55178 4.55929
v 5.87837 -2.55178 4.55929
v 5.63930 -2.62757 4.80667
v 5.51026 -2.91889 4.54747
v 5.19307 -2.80773 4.64659
v 5.29276 -2.58616 4.83582
v 5.04176 -2.45180 4.62967
v 5.03332 -2.30320 4.30896
v 5.27240 -2.22741 4.06157
v 5.21342 -2.22041 4.03325
v 5.27240 -2.22741 4.06157
v 5.61894 -2.26882 4.03242
v 5.53061 -2.33158 3.93413
v 5.86994 -2.40318 4.23858
v 5.87837 -2.55178 4.55929
v 5.74051 -2.82548 4.29774
v 5.51026 -2.91889 4.54747
v 5.63930 -2.62757 4.80667
v 5.29276 -2.58616 4.83582
v 4.97473 -2.55710 4.53704
v 5.04176 -2.45180 4.62967
v 5.03332 -2.30320 4.30896
v 5.10338 -1.92773 4.50203
v 3.92359 0.46979 4.74152
v 4.16173 0.49274 4.48259
v 5.63930 -2.62757 4.80667
v 5.72325 -1.98917 5.08081
v 5.37330 -1.98741 5.09438
v 5.04176 -2.45180 4.62967
v 5.11654 -1.96195 4.85465
v 5.10338 -1.92773 4.50203
v 5.69147 -1.90654 4.22953
v 5.94822 -1.93199 4.46927
v 5.86994 -2.40318 4.23858
v 5.96139 -1.96622 4.82188
v 5.72325 -1.98917 5.08081
v 5.63930 -2.62757 4.80667
v 5.29276 -2.58616 4.83582
v 5.37330 -1.98741 5.09438
v 5.11654 -1.96195 4.85465
v 5.03332 -2.30320 4.30896
v 5.10338 -1.92773 4.50203
v 5.34152 -1.90477 4.24310
v 5.34152 -1.90477 4.24310
v 5.69147 -1.90654 4.22953
v 5.61894 -2.26882 4.03242
v 4.50459 1.18338 4.53869
v 4.74348 1.25166 4.78851
v 4.76843 0.46552 4.70876
v 5.34152 -1.90477 4.24310
v 4.16173 0.49274 4.48259
v 4.51167 0.49097 4.46902
v 5.94822 -1.93199 4.46927
v 4.76843 0.46552 4.70876
v 4.78160 0.43129 5.06137
v 4.54346 0.40834 5.32030
v 4.19351 0.41010 5.33388
v 5.37330 -1.98741 5.09438
v 3.93675 0.43556 5.09414
v 3.92359 0.46979 4.74152
v 5.10338 -1.92773 4.50203
v 5.69147 -1.90654 4.22953
v 4.51167 0.49097 4.46902
v 4.76843 0.46552 4.70876
v 4.78160 0.43129 5.06137
v 4.54346 0.40834 5.32030
v 5.72325 -1.98917 5.08081
v 4.19351 0.41010 5.33388
v 3.93675 0.43556 5.09414
v 5.11654 -1.96195 4.85465
v 1.82206 2.04859 4.69192
v 1.80889 2.08282 4.33930
v 3.95964 0.93591 4.78686
v 4.78160 0.43129 5.06137
v 4.75664 1.21743 5.14112
v 4.53637 1.10075 5.38998
v 4.19351 0.41010 5.33388
v 4.21170 0.96996 5.38929
v 3.97281 0.90168 5.13947
v 3.95964 0.93591 4.78686
v 4.17991 1.05259 4.53801
v 4.16173 0.49274 4.48259
v 4.17991 1.05259 4.53801
v 4.50459 1.18338 4.53869
v 4.51167 0.49097 4.46902
v 4.74348 1.25166 4.78851
v 4.75664 1.21743 5.14112
v 4.78160 0.43129 5.06137
v 4.54346 0.40834 5.32030
v 4.53637 1.10075 5.38998
v 4.21170 0.96996 5.38929
v 3.93675 0.43556 5.09414
v 3.97281 0.90168 5.13947
v 3.95964 0.93591 4.78686
v 2.07974 2.71479 4.16413
v 2.27841 2.97476 4.28854
v 2.35384 2.33029 4.09114
v 4.50459 1.18338 4.53869
v 2.35384 2.33029 4.09114
v 2.59273 2.39857 4.34095
v 2.60589 2.36434 4.69357
v 2.38562 2.24766 4.94242
v 4.53637 1.10075 5.38998
v 2.06095 2.11687 4.94174
v 1.82206 2.04859 4.69192
v 3.97281 0.90168 5.13947
v 3.95964 0.93591 4.78686
v 1.80889 2.08282 4.33930
v 2.02916 2.19950 4.09045
v 4.17991 1.05259 4.53801
v 2.02916 2.19950 4.09045
v 2.35384 2.33029 4.09114
v 4.74348 1.25166 4.78851
v 2.59273 2.39857 4.34095
v 2.60589 2.36434 4.69357
v 2.38562 2.24766 4.94242
v 2.06095 2.11687 4.94174
v 4.21170 0.96996 5.38929
v 2.07974 2.71479 4.16413
v 1.80746 2.53258 4.28840
v 1.62106 2.53487 4.58857
v 1.62106 2.53487 4.58857
v 1.62974 2.72031 4.88880
v 1.82840 2.98029 5.01322
v 1.82840 2.98029 5.01322
v 2.10068 3.16250 4.88894
v 2.28708 3.16021 4.58877
v 2.28708 3.16021 4.58877
v 2.27841 2.97476 4.28854
v 2.07974 2.71479 4.16413
v 2.07974 2.71479 4.16413
v 1.62106 2.53487 4.58857
v 1.82840 2.98029 5.01322
v 2.28708 3.16021 4.58877
v 2.10068 3.16250 4.88894
v 2.60589 2.36434 4.69357
v 2.38562 2.24766 4.94242
v 1.82840 2.98029 5.01322
v 1.62974 2.72031 4.88880
v 1.62106 2.53487 4.58857
v 1.80746 2.53258 4.28840
v 1.80889 2.08282 4.33930
v 2.27841 2.97476 4.28854
v 2.28708 3.16021 4.58877
v 2.59273 2.39857 4.34095
v 2.10068 3.16250 4.88894
v 1.82840 2.98029 5.01322
v 2.38562 2.24766 4.94242
v 2.06095 2.11687 4.94174
v 1.62974 2.72031 4.88880
v 1.62106 2.53487 4.58857
v 1.80746 2.53258 4.28840
v 2.07974 2.71479 4.16413
v 2.02916 2.19950 4.09045
vt 0.69865 0.49550
vt 0.71624 0.66433
vt 0.69865 0.66433
vt 0.99806 0.99558
vt 0.90668 0.68250
vt 0.99881 0.68250
vt 0.86189 0.99507
vt 0.99791 0.65664
vt 0.86189 0.65663
vt 0.98274 0.96388
vt 0.96865 0.65924
vt 0.98274 0.65160
vt 0.98348 0.83537
vt 0.97018 0.94437
vt 0.97033 0.83984
vt 0.61720 0.48847
vt 0.69864 0.49515
vt 0.69853 0.48821
vt 0.99521 0.91768
vt 0.87428 0.91815
vt 0.87441 0.82451
vt 0.98721 0.65195
vt 0.96966 0.95677
vt 0.96966 0.63949
vt 0.76353 0.90599
vt 0.78013 0.74913
vt 0.78013 0.91956
vt 0.98348 0.83537
vt 0.97053 0.69832
vt 0.98370 0.67959
vt 0.68583 0.50006
vt 0.69818 0.66449
vt 0.68583 0.65782
vt 0.68591 0.65783
vt 0.61745 0.66475
vt 0.69793 0.66475
vt 0.66884 0.51419
vt 0.68583 0.65782
vt 0.66884 0.64260
vt 0.66884 0.51419
vt 0.61782 0.50033
vt 0.68583 0.50006
vt 0.99607 0.87455
vt 0.99607 0.99362
vt 0.90095 0.99362
vt 0.61731 0.49541
vt 0.68633 0.49967
vt 0.69864 0.49515
vt 0.61782 0.65809
vt 0.66884 0.64260
vt 0.68583 0.65782
vt 0.62312 0.51439
vt 0.67437 0.64260
vt 0.62312 0.64280
vt 0.61745 0.67460
vt 0.69793 0.66475
vt 0.61745 0.66475
vt 0.81373 0.97242
vt 0.96918 0.95883
vt 0.98381 0.97242
vt 0.30662 0.35606
vt 0.64985 0.39205
vt 0.30662 0.39205
vt 0.30662 0.35606
vt 0.64985 0.39205
vt 0.30662 0.39205
vt 0.30662 0.35606
vt 0.64985 0.39205
vt 0.30662 0.39205
vt 0.64985 0.35606
vt 0.30662 0.39205
vt 0.30662 0.35606
vt 0.64985 0.35606
vt 0.30662 0.39205
vt 0.30662 0.35606
vt 0.64985 0.35606
vt 0.30662 0.39205
vt 0.30662 0.35606
vt 0.30705 0.35553
vt 0.64942 0.39258
vt 0.30705 0.39258
vt 0.64985 0.35606
vt 0.30662 0.39205
vt 0.30662 0.35606
vt 0.30662 0.35606
vt 0.64985 0.39205
vt 0.30662 0.39205
vt 0.96835 0.35375
vt 0.98345 0.35010
vt 0.99293 0.36964
vt 0.30705 0.35553
vt 0.64942 0.39258
vt 0.30705 0.39258
vt 0.30705 0.35553
vt 0.64942 0.39258
vt 0.30705 0.39258
vt 0.30705 0.39258
vt 0.64942 0.35553
vt 0.64942 0.39258
vt 0.30705 0.35553
vt 0.64942 0.39258
vt 0.30705 0.39258
vt 0.30705 0.35553
vt 0.64942 0.39258
vt 0.30705 0.39258
vt 0.30705 0.35553
vt 0.64942 0.39258
vt 0.30705 0.39258
vt 0.30705 0.35553
vt 0.64942 0.39258
vt 0.30705 0.39258
vt 0.30705 0.35553
vt 0.64942 0.39258
vt 0.30705 0.39258
vt 0.30705 0.35553
vt 0.64942 0.39258
vt 0.30705 0.39258
vt 0.30705 0.35553
vt 0.64942 0.39258
vt 0.30705 0.39258
vt 0.30705 0.39258
vt 0.64942 0.35553
vt 0.64942 0.39258
vt 0.30705 0.35553
vt 0.64942 0.39258
vt 0.30705 0.39258
vt 0.30705 0.35553
vt 0.64942 0.39258
vt 0.30705 0.39258
vt 0.30705 0.35553
vt 0.64942 0.39258
vt 0.30705 0.39258
vt 0.30705 0.39258
vt 0.64942 0.35553
vt 0.64942 0.39258
vt 0.30705 0.39258
vt 0.64942 0.35553
vt 0.64942 0.39258
vt 0.30705 0.39258
vt 0.64942 0.35553
vt 0.64942 0.39258
vt 0.30705 0.39258
vt 0.64942 0.35553
vt 0.64942 0.39258
vt 0.30705 0.39258
vt 0.64942 0.35553
vt 0.64942 0.39258
vt 0.30705 0.35553
vt 0.64942 0.39258
vt 0.30705 0.39258
vt 0.30705 0.35553
vt 0.64942 0.39258
vt 0.30705 0.39258
vt 0.30705 0.39258
vt 0.64942 0.35553
vt 0.64942 0.39258
vt 0.30705 0.39258
vt 0.64942 0.35553
vt 0.64942 0.39258
vt 0.30705 0.35553
vt 0.64942 0.39258
vt 0.30705 0.39258
vt 0.30705 0.35553
vt 0.64942 0.39258
vt 0.30705 0.39258
vt 0.30705 0.39258
vt 0.64942 0.35553
vt 0.64942 0.39258
vt 0.30705 0.39258
vt 0.64942 0.35553
vt 0.64942 0.39258
vt 0.30705 0.35553
vt 0.64942 0.39258
vt 0.30705 0.39258
vt 0.30705 0.35553
vt 0.64942 0.39258
vt 0.30705 0.39258
vt 0.30705 0.39258
vt 0.64942 0.35553
vt 0.64942 0.39258
vt 0.30705 0.35553
vt 0.64942 0.39258
vt 0.30705 0.39258
vt 0.30705 0.35553
vt 0.64942 0.39258
vt 0.30705 0.39258
vt 0.30705 0.35553
vt 0.64942 0.39258
vt 0.30705 0.39258
vt 0.30705 0.39258
vt 0.64942 0.35553
vt 0.64942 0.39258
vt 0.30705 0.39258
vt 0.64942 0.35553
vt 0.64942 0.39258
vt 0.30705 0.35553
vt 0.64942 0.39258
vt 0.30705 0.39258
vt 0.30705 0.35553
vt 0.64942 0.39258
vt 0.30705 0.39258
vt 0.30705 0.35553
vt 0.64942 0.39258
vt 0.30705 0.39258
vt 0.30705 0.39258
vt 0.64942 0.35553
vt 0.64942 0.39258
vt 0.30705 0.35553
vt 0.64942 0.39258
vt 0.30705 0.39258
vt 0.30705 0.35553
vt 0.64942 0.39258
vt 0.30705 0.39258
vt 0.30705 0.39258
vt 0.64942 0.35553
vt 0.64942 0.39258
vt 0.30705 0.35553
vt 0.64942 0.39258
vt 0.30705 0.39258
vt 0.30705 0.35553
vt 0.64942 0.39258
vt 0.30705 0.39258
vt 0.30705 0.39258
vt 0.64942 0.35553
vt 0.64942 0.39258
vt 0.30705 0.39258
vt 0.64942 0.35553
vt 0.64942 0.39258
vt 0.30705 0.39258
vt 0.64942 0.35553
vt 0.64942 0.39258
vt 0.30705 0.35553
vt 0.64942 0.39258
vt 0.30705 0.39258
vt 0.88122 0.44527
vt 0.88122 0.48847
vt 0.92443 0.48847
vt 0.30705 0.35553
vt 0.64942 0.39258
vt 0.30705 0.39258
vt 0.30705 0.39258
vt 0.64942 0.35553
vt 0.64942 0.39258
vt 0.30705 0.35553
vt 0.64942 0.39258
vt 0.30705 0.39258
vt 0.30705 0.35553
vt 0.64942 0.39258
vt 0.30705 0.39258
vt 0.30705 0.35553
vt 0.64942 0.39258
vt 0.30705 0.39258
vt 0.30705 0.39258
vt 0.64942 0.35553
vt 0.64942 0.39258
vt 0.30705 0.35553
vt 0.64942 0.39258
vt 0.30705 0.39258
vt 0.71624 0.66433
vt 0.69865 0.49550
vt 0.69865 0.66433
vt 0.90668 0.68250
vt 0.99806 0.99558
vt 0.99881 0.68250
vt 0.86189 0.65663
vt 0.99791 0.99507
vt 0.86189 0.99507
vt 0.96865 0.65924
vt 0.98274 0.96388
vt 0.98274 0.65160
vt 0.98348 0.83537
vt 0.97018 0.94437
vt 0.98330 0.95670
vt 0.69864 0.49515
vt 0.61720 0.48847
vt 0.69853 0.48821
vt 0.87441 0.82451
vt 0.99521 0.91768
vt 0.99551 0.70381
vt 0.98721 0.65195
vt 0.96966 0.95677
vt 0.98721 0.96566
vt 0.76353 0.90599
vt 0.78013 0.74913
vt 0.76353 0.74913
vt 0.97053 0.69832
vt 0.98348 0.83537
vt 0.98370 0.67959
vt 0.69818 0.66449
vt 0.68583 0.50006
vt 0.68583 0.65782
vt 0.68591 0.65783
vt 0.61745 0.66475
vt 0.61745 0.65783
vt 0.68583 0.65782
vt 0.66884 0.51419
vt 0.66884 0.64260
vt 0.66884 0.51419
vt 0.61782 0.50033
vt 0.61758 0.51439
vt 0.90095 0.99362
vt 0.99607 0.99362
vt 0.99607 0.87455
vt 0.61731 0.49541
vt 0.68633 0.49967
vt 0.61714 0.49989
vt 0.61782 0.65809
vt 0.66884 0.64260
vt 0.61758 0.64280
vt 0.67437 0.64260
vt 0.62312 0.51439
vt 0.62312 0.64280
vt 0.69793 0.66475
vt 0.61745 0.67460
vt 0.61745 0.66475
vt 0.81373 0.97242
vt 0.96918 0.95883
vt 0.81265 0.95883
vt 0.30662 0.35606
vt 0.64985 0.39205
vt 0.64985 0.35606
vt 0.30662 0.35606
vt 0.64985 0.39205
vt 0.64985 0.35606
vt 0.30662 0.35606
vt 0.64985 0.39205
vt 0.64985 0.35606
vt 0.30662 0.39205
vt 0.64985 0.35606
vt 0.30662 0.35606
vt 0.30662 0.39205
vt 0.64985 0.35606
vt 0.30662 0.35606
vt 0.30662 0.39205
vt 0.64985 0.35606
vt 0.30662 0.35606
vt 0.64942 0.39258
vt 0.30705 0.35553
vt 0.30705 0.39258
vt 0.30662 0.39205
vt 0.64985 0.35606
vt 0.30662 0.35606
vt 0.30662 0.35606
vt 0.64985 0.39205
vt 0.64985 0.35606
vt 0.98345 0.35010
vt 0.96835 0.35375
vt 0.97784 0.37329
vt 0.64942 0.39258
vt 0.30705 0.35553
vt 0.30705 0.39258
vt 0.64942 0.39258
vt 0.30705 0.35553
vt 0.30705 0.39258
vt 0.30705 0.39258
vt 0.64942 0.35553
vt 0.30705 0.35553
vt 0.64942 0.39258
vt 0.30705 0.35553
vt 0.30705 0.39258
vt 0.64942 0.39258
vt 0.30705 0.35553
vt 0.30705 0.39258
vt 0.64942 0.39258
vt 0.30705 0.35553
vt 0.30705 0.39258
vt 0.64942 0.39258
vt 0.30705 0.35553
vt 0.30705 0.39258
vt 0.64942 0.39258
vt 0.30705 0.35553
vt 0.30705 0.39258
vt 0.64942 0.39258
vt 0.30705 0.35553
vt 0.30705 0.39258
vt 0.64942 0.39258
vt 0.30705 0.35553
vt 0.30705 0.39258
vt 0.30705 0.39258
vt 0.64942 0.35553
vt 0.30705 0.35553
vt 0.64942 0.39258
vt 0.30705 0.35553
vt 0.30705 0.39258
vt 0.64942 0.39258
vt 0.30705 0.35553
vt 0.30705 0.39258
vt 0.64942 0.39258
vt 0.30705 0.35553
vt 0.30705 0.39258
vt 0.30705 0.39258
vt 0.64942 0.35553
vt 0.30705 0.35553
vt 0.30705 0.39258
vt 0.64942 0.35553
vt 0.30705 0.35553
vt 0.30705 0.39258
vt 0.64942 0.35553
vt 0.30705 0.35553
vt 0.30705 0.39258
vt 0.64942 0.35553
vt 0.30705 0.35553
vt 0.30705 0.39258
vt 0.64942 0.35553
vt 0.30705 0.35553
vt 0.64942 0.39258
vt 0.30705 0.35553
vt 0.30705 0.39258
vt 0.64942 0.39258
vt 0.30705 0.35553
vt 0.30705 0.39258
vt 0.30705 0.39258
vt 0.64942 0.35553
vt 0.30705 0.35553
vt 0.30705 0.39258
vt 0.64942 0.35553
vt 0.30705 0.35553
vt 0.64942 0.39258
vt 0.30705 0.35553
vt 0.30705 0.39258
vt 0.64942 0.39258
vt 0.30705 0.35553
vt 0.30705 0.39258
vt 0.30705 0.39258
vt 0.64942 0.35553
vt 0.30705 0.35553
vt 0.30705 0.39258
vt 0.64942 0.35553
vt 0.30705 0.35553
vt 0.64942 0.39258
vt 0.30705 0.35553
vt 0.30705 0.39258
vt 0.64942 0.39258
vt 0.30705 0.35553
vt 0.30705 0.39258
vt 0.30705 0.39258
vt 0.64942 0.35553
vt 0.30705 0.35553
vt 0.64942 0.39258
vt 0.30705 0.35553
vt 0.30705 0.39258
vt 0.64942 0.39258
vt 0.30705 0.35553
vt 0.30705 0.39258
vt 0.64942 0.39258
vt 0.30705 0.35553
vt 0.30705 0.39258
vt 0.30705 0.39258
vt 0.64942 0.35553
vt 0.30705 0.35553
vt 0.30705 0.39258
vt 0.64942 0.35553
vt 0.30705 0.35553
vt 0.64942 0.39258
vt 0.30705 0.35553
vt 0.30705 0.39258
vt 0.64942 0.39258
vt 0.30705 0.35553
vt 0.30705 0.39258
vt 0.64942 0.39258
vt 0.30705 0.35553
vt 0.30705 0.39258
vt 0.30705 0.39258
vt 0.64942 0.35553
vt 0.30705 0.35553
vt 0.30705 0.39258
vt 0.64942 0.35553
vt 0.30705 0.35553
vt 0.64942 0.39258
vt 0.30705 0.35553
vt 0.30705 0.39258
vt 0.30705 0.39258
vt 0.64942 0.35553
vt 0.30705 0.35553
vt 0.64942 0.39258
vt 0.30705 0.35553
vt 0.30705 0.39258
vt 0.64942 0.39258
vt 0.30705 0.35553
vt 0.30705 0.39258
vt 0.30705 0.39258
vt 0.64942 0.35553
vt 0.30705 0.35553
vt 0.30705 0.39258
vt 0.64942 0.35553
vt 0.30705 0.35553
vt 0.30705 0.39258
vt 0.64942 0.35553
vt 0.30705 0.35553
vt 0.64942 0.39258
vt 0.30705 0.35553
vt 0.30705 0.39258
vt 0.92443 0.48847
vt 0.88122 0.48847
vt 0.88122 0.44527
vt 0.64942 0.39258
vt 0.30705 0.35553
vt 0.30705 0.39258
vt 0.30705 0.39258
vt 0.64942 0.35553
vt 0.30705 0.35553
vt 0.64942 0.39258
vt 0.30705 0.35553
vt 0.30705 0.39258
vt 0.64942 0.39258
vt 0.30705 0.35553
vt 0.30705 0.39258
vt 0.64942 0.39258
vt 0.30705 0.35553
vt 0.30705 0.39258
vt 0.30705 0.39258
vt 0.64942 0.35553
vt 0.30705 0.35553
vt 0.64942 0.39258
vt 0.30705 0.35553
vt 0.30705 0.39258
vt 0.69865 0.49550
vt 0.71624 0.49550
vt 0.71624 0.66433
vt 0.99806 0.99558
vt 0.90593 0.99558
vt 0.90668 0.68250
vt 0.86189 0.65663
vt 0.76142 0.65663
vt 0.76142 0.99506
vt 0.86189 0.99507
vt 0.99791 0.99507
vt 0.99791 0.65664
vt 0.86189 0.65663
vt 0.76142 0.99506
vt 0.86189 0.99507
vt 0.98274 0.96388
vt 0.96865 0.97507
vt 0.96865 0.65924
vt 0.98348 0.83537
vt 0.98330 0.95670
vt 0.97018 0.94437
vt 0.61720 0.48847
vt 0.61731 0.49541
vt 0.69864 0.49515
vt 0.87441 0.82451
vt 0.87458 0.70429
vt 0.99551 0.70381
vt 0.99551 0.70381
vt 0.99521 0.91768
vt 0.87441 0.82451
vt 0.98721 0.65195
vt 0.98721 0.96566
vt 0.96966 0.95677
vt 0.76353 0.90599
vt 0.76353 0.74913
vt 0.78013 0.74913
vt 0.98348 0.83537
vt 0.97033 0.83984
vt 0.97053 0.69832
vt 0.68583 0.50006
vt 0.69818 0.49549
vt 0.69818 0.66449
vt 0.68591 0.65783
vt 0.61745 0.65783
vt 0.61745 0.66475
vt 0.66884 0.51419
vt 0.68583 0.50006
vt 0.68583 0.65782
vt 0.66884 0.51419
vt 0.61758 0.51439
vt 0.61782 0.50033
vt 0.83069 0.99362
vt 0.83069 0.87455
vt 0.90095 0.99362
vt 0.83069 0.87455
vt 0.99607 0.87455
vt 0.90095 0.99362
vt 0.61731 0.49541
vt 0.61714 0.49989
vt 0.68633 0.49967
vt 0.61782 0.65809
vt 0.61758 0.64280
vt 0.66884 0.64260
vt 0.62312 0.51439
vt 0.67437 0.51419
vt 0.67437 0.64260
vt 0.61745 0.67460
vt 0.69793 0.67460
vt 0.69793 0.66475
vt 0.81373 0.97242
vt 0.81265 0.95883
vt 0.96918 0.95883
vt 0.30662 0.35606
vt 0.64985 0.35606
vt 0.64985 0.39205
vt 0.30662 0.35606
vt 0.64985 0.35606
vt 0.64985 0.39205
vt 0.30662 0.35606
vt 0.64985 0.35606
vt 0.64985 0.39205
vt 0.64985 0.35606
vt 0.64985 0.39205
vt 0.30662 0.39205
vt 0.64985 0.35606
vt 0.64985 0.39205
vt 0.30662 0.39205
vt 0.64985 0.35606
vt 0.64985 0.39205
vt 0.30662 0.39205
vt 0.30705 0.35553
vt 0.64942 0.35553
vt 0.64942 0.39258
vt 0.64985 0.35606
vt 0.64985 0.39205
vt 0.30662 0.39205
vt 0.30662 0.35606
vt 0.64985 0.35606
vt 0.64985 0.39205
vt 0.99293 0.36964
vt 0.98735 0.37551
vt 0.97784 0.37329
vt 0.97784 0.37329
vt 0.96997 0.36428
vt 0.96835 0.35375
vt 0.96835 0.35375
vt 0.97394 0.34788
vt 0.98345 0.35010
vt 0.98345 0.35010
vt 0.99132 0.35912
vt 0.99293 0.36964
vt 0.99293 0.36964
vt 0.97784 0.37329
vt 0.96835 0.35375
vt 0.30705 0.35553
vt 0.64942 0.35553
vt 0.64942 0.39258
vt 0.30705 0.35553
vt 0.64942 0.35553
vt 0.64942 0.39258
vt 0.30705 0.39258
vt 0.30705 0.35553
vt 0.64942 0.35553
vt 0.30705 0.35553
vt 0.64942 0.35553
vt 0.64942 0.39258
vt 0.30705 0.35553
vt 0.64942 0.35553
vt 0.64942 0.39258
vt 0.30705 0.35553
vt 0.64942 0.35553
vt 0.64942 0.39258
vt 0.30705 0.35553
vt 0.64942 0.35553
vt 0.64942 0.39258
vt 0.30705 0.35553
vt 0.64942 0.35553
vt 0.64942 0.39258
vt 0.30705 0.35553
vt 0.64942 0.35553
vt 0.64942 0.39258
vt 0.30705 0.35553
vt 0.64942 0.35553
vt 0.64942 0.39258
vt 0.30705 0.39258
vt 0.30705 0.35553
vt 0.64942 0.35553
vt 0.30705 0.35553
vt 0.64942 0.35553
vt 0.64942 0.39258
vt 0.30705 0.35553
vt 0.64942 0.35553
vt 0.64942 0.39258
vt 0.30705 0.35553
vt 0.64942 0.35553
vt 0.64942 0.39258
vt 0.30705 0.39258
vt 0.30705 0.35553
vt 0.64942 0.35553
vt 0.30705 0.39258
vt 0.30705 0.35553
vt 0.64942 0.35553
vt 0.30705 0.39258
vt 0.30705 0.35553
vt 0.64942 0.35553
vt 0.30705 0.39258
vt 0.30705 0.35553
vt 0.64942 0.35553
vt 0.30705 0.39258
vt 0.30705 0.35553
vt 0.64942 0.35553
vt 0.30705 0.35553
vt 0.64942 0.35553
vt 0.64942 0.39258
vt 0.30705 0.35553
vt 0.64942 0.35553
vt 0.64942 0.39258
vt 0.30705 0.39258
vt 0.30705 0.35553
vt 0.64942 0.35553
vt 0.30705 0.39258
vt 0.30705 0.35553
vt 0.64942 0.35553
vt 0.30705 0.35553
vt 0.64942 0.35553
vt 0.64942 0.39258
vt 0.30705 0.35553
vt 0.64942 0.35553
vt 0.64942 0.39258
vt 0.30705 0.39258
vt 0.30705 0.35553
vt 0.64942 0.35553
vt 0.30705 0.39258
vt 0.30705 0.35553
vt 0.64942 0.35553
vt 0.30705 0.35553
vt 0.64942 0.35553
vt 0.64942 0.39258
vt 0.30705 0.35553
vt 0.64942 0.35553
vt 0.64942 0.39258
vt 0.30705 0.39258
vt 0.30705 0.35553
vt 0.64942 0.35553
vt 0.30705 0.35553
vt 0.64942 0.35553
vt 0.64942 0.39258
vt 0.30705 0.35553
vt 0.64942 0.35553
vt 0.64942 0.39258
vt 0.30705 0.35553
vt 0.64942 0.35553
vt 0.64942 0.39258
vt 0.30705 0.39258
vt 0.30705 0.35553
vt 0.64942 0.35553
vt 0.30705 0.39258
vt 0.30705 0.35553
vt 0.64942 0.35553
vt 0.30705 0.35553
vt 0.64942 0.35553
vt 0.64942 0.39258
vt 0.30705 0.35553
vt 0.64942 0.35553
vt 0.64942 0.39258
vt 0.30705 0.35553
vt 0.64942 0.35553
vt 0.64942 0.39258
vt 0.30705 0.39258
vt 0.30705 0.35553
vt 0.64942 0.35553
vt 0.30705 0.35553
vt 0.64942 0.35553
vt 0.64942 0.39258
vt 0.30705 0.35553
vt 0.64942 0.35553
vt 0.64942 0.39258
vt 0.30705 0.39258
vt 0.30705 0.35553
vt 0.64942 0.35553
vt 0.30705 0.35553
vt 0.64942 0.35553
vt 0.64942 0.39258
vt 0.30705 0.35553
vt 0.64942 0.35553
vt 0.64942 0.39258
vt 0.30705 0.39258
vt 0.30705 0.35553
vt 0.64942 0.35553
vt 0.30705 0.39258
vt 0.30705 0.35553
vt 0.64942 0.35553
vt 0.30705 0.39258
vt 0.30705 0.35553
vt 0.64942 0.35553
vt 0.30705 0.35553
vt 0.64942 0.35553
vt 0.64942 0.39258
vt 0.92443 0.44527
vt 0.90283 0.43632
vt 0.88122 0.44527
vt 0.88122 0.44527
vt 0.87228 0.46687
vt 0.88122 0.48847
vt 0.88122 0.48847
vt 0.90283 0.49742
vt 0.92443 0.48847
vt 0.92443 0.48847
vt 0.93338 0.46687
vt 0.92443 0.44527
vt 0.92443 0.44527
vt 0.88122 0.44527
vt 0.92443 0.48847
vt 0.30705 0.35553
vt 0.64942 0.35553
vt 0.64942 0.39258
vt 0.30705 0.39258
vt 0.30705 0.35553
vt 0.64942 0.35553
vt 0.30705 0.35553
vt 0.64942 0.35553
vt 0.64942 0.39258
vt 0.30705 0.35553
vt 0.64942 0.35553
vt 0.64942 0.39258
vt 0.30705 0.35553
vt 0.64942 0.35553
vt 0.64942 0.39258
vt 0.30705 0.39258
vt 0.30705 0.35553
vt 0.64942 0.35553
vt 0.30705 0.35553
vt 0.64942 0.35553
vt 0.64942 0.39258
vt 0.71624 0.66433
vt 0.71624 0.49550
vt 0.69865 0.49550
vt 0.90668 0.68250
vt 0.90593 0.99558
vt 0.99806 0.99558
vt 0.76142 0.99506
vt 0.76142 0.65663
vt 0.86189 0.65663
vt 0.86189 0.65663
vt 0.99791 0.65664
vt 0.99791 0.99507
vt 0.86189 0.99507
vt 0.76142 0.99506
vt 0.86189 0.65663
vt 0.96865 0.65924
vt 0.96865 0.97507
vt 0.98274 0.96388
vt 0.98348 0.83537
vt 0.97033 0.83984
vt 0.97018 0.94437
vt 0.69864 0.49515
vt 0.61731 0.49541
vt 0.61720 0.48847
vt 0.99551 0.70381
vt 0.87458 0.70429
vt 0.87441 0.82451
vt 0.87441 0.82451
vt 0.87428 0.91815
vt 0.99521 0.91768
vt 0.98721 0.65195
vt 0.96966 0.63949
vt 0.96966 0.95677
vt 0.76353 0.90599
vt 0.78013 0.91956
vt 0.78013 0.74913
vt 0.97053 0.69832
vt 0.97033 0.83984
vt 0.98348 0.83537
vt 0.69818 0.66449
vt 0.69818 0.49549
vt 0.68583 0.50006
vt 0.68591 0.65783
vt 0.69793 0.66475
vt 0.61745 0.66475
vt 0.68583 0.65782
vt 0.68583 0.50006
vt 0.66884 0.51419
vt 0.66884 0.51419
vt 0.68583 0.50006
vt 0.61782 0.50033
vt 0.99607 0.87455
vt 0.83069 0.87455
vt 0.90095 0.99362
vt 0.83069 0.87455
vt 0.83069 0.99362
vt 0.90095 0.99362
vt 0.61731 0.49541
vt 0.69864 0.49515
vt 0.68633 0.49967
vt 0.61782 0.65809
vt 0.68583 0.65782
vt 0.66884 0.64260
vt 0.67437 0.64260
vt 0.67437 0.51419
vt 0.62312 0.51439
vt 0.69793 0.66475
vt 0.69793 0.67460
vt 0.61745 0.67460
vt 0.81373 0.97242
vt 0.98381 0.97242
vt 0.96918 0.95883
vt 0.30662 0.35606
vt 0.30662 0.39205
vt 0.64985 0.39205
vt 0.30662 0.35606
vt 0.30662 0.39205
vt 0.64985 0.39205
vt 0.30662 0.35606
vt 0.30662 0.39205
vt 0.64985 0.39205
vt 0.30662 0.39205
vt 0.64985 0.39205
vt 0.64985 0.35606
vt 0.30662 0.39205
vt 0.64985 0.39205
vt 0.64985 0.35606
vt 0.30662 0.39205
vt 0.64985 0.39205
vt 0.64985 0.35606
vt 0.64942 0.39258
vt 0.64942 0.35553
vt 0.30705 0.35553
vt 0.30662 0.39205
vt 0.64985 0.39205
vt 0.64985 0.35606
vt 0.30662 0.35606
vt 0.30662 0.39205
vt 0.64985 0.39205
vt 0.97784 0.37329
vt 0.98735 0.37551
vt 0.98345 0.35010
vt 0.98735 0.37551
vt 0.99293 0.36964
vt 0.98345 0.35010
vt 0.99293 0.36964
vt 0.99132 0.35912
vt 0.98345 0.35010
vt 0.98345 0.35010
vt 0.97394 0.34788
vt 0.96835 0.35375
vt 0.96835 0.35375
vt 0.96997 0.36428
vt 0.97784 0.37329
vt 0.64942 0.39258
vt 0.64942 0.35553
vt 0.30705 0.35553
vt 0.64942 0.39258
vt 0.64942 0.35553
vt 0.30705 0.35553
vt 0.30705 0.39258
vt 0.64942 0.39258
vt 0.64942 0.35553
vt 0.64942 0.39258
vt 0.64942 0.35553
vt 0.30705 0.35553
vt 0.64942 0.39258
vt 0.64942 0.35553
vt 0.30705 0.35553
vt 0.64942 0.39258
vt 0.64942 0.35553
vt 0.30705 0.35553
vt 0.64942 0.39258
vt 0.64942 0.35553
vt 0.30705 0.35553
vt 0.64942 0.39258
vt 0.64942 0.35553
vt 0.30705 0.35553
vt 0.64942 0.39258
vt 0.64942 0.35553
vt 0.30705 0.35553
vt 0.64942 0.39258
vt 0.64942 0.35553
vt 0.30705 0.35553
vt 0.30705 0.39258
vt 0.64942 0.39258
vt 0.64942 0.35553
vt 0.64942 0.39258
vt 0.64942 0.35553
vt 0.30705 0.35553
vt 0.64942 0.39258
vt 0.64942 0.35553
vt 0.30705 0.35553
vt 0.64942 0.39258
vt 0.64942 0.35553
vt 0.30705 0.35553
vt 0.30705 0.39258
vt 0.64942 0.39258
vt 0.64942 0.35553
vt 0.30705 0.39258
vt 0.64942 0.39258
vt 0.64942 0.35553
vt 0.30705 0.39258
vt 0.64942 0.39258
vt 0.64942 0.35553
vt 0.30705 0.39258
vt 0.64942 0.39258
vt 0.64942 0.35553
vt 0.30705 0.39258
vt 0.64942 0.39258
vt 0.64942 0.35553
vt 0.64942 0.39258
vt 0.64942 0.35553
vt 0.30705 0.35553
vt 0.64942 0.39258
vt 0.64942 0.35553
vt 0.30705 0.35553
vt 0.30705 0.39258
vt 0.64942 0.39258
vt 0.64942 0.35553
vt 0.30705 0.39258
vt 0.64942 0.39258
vt 0.64942 0.35553
vt 0.64942 0.39258
vt 0.64942 0.35553
vt 0.30705 0.35553
vt 0.64942 0.39258
vt 0.64942 0.35553
vt 0.30705 0.35553
vt 0.30705 0.39258
vt 0.64942 0.39258
vt 0.64942 0.35553
vt 0.30705 0.39258
vt 0.64942 0.39258
vt 0.64942 0.35553
vt 0.64942 0.39258
vt 0.64942 0.35553
vt 0.30705 0.35553
vt 0.64942 0.39258
vt 0.64942 0.35553
vt 0.30705 0.35553
vt 0.30705 0.39258
vt 0.64942 0.39258
vt 0.64942 0.35553
vt 0.64942 0.39258
vt 0.64942 0.35553
vt 0.30705 0.35553
vt 0.64942 0.39258
vt 0.64942 0.35553
vt 0.30705 0.35553
vt 0.64942 0.39258
vt 0.64942 0.35553
vt 0.30705 0.35553
vt 0.30705 0.39258
vt 0.64942 0.39258
vt 0.64942 0.35553
vt 0.30705 0.39258
vt 0.64942 0.39258
vt 0.64942 0.35553
vt 0.64942 0.39258
vt 0.64942 0.35553
vt 0.30705 0.35553
vt 0.64942 0.39258
vt 0.64942 0.35553
vt 0.30705 0.35553
vt 0.64942 0.39258
vt 0.64942 0.35553
vt 0.30705 0.35553
vt 0.30705 0.39258
vt 0.64942 0.39258
vt 0.64942 0.35553
vt 0.30705 0.39258
vt 0.64942 0.39258
vt 0.64942 0.35553
vt 0.64942 0.39258
vt 0.64942 0.35553
vt 0.30705 0.35553
vt 0.30705 0.39258
vt 0.64942 0.39258
vt 0.64942 0.35553
vt 0.64942 0.39258
vt 0.64942 0.35553
vt 0.30705 0.35553
vt 0.64942 0.39258
vt 0.64942 0.35553
vt 0.30705 0.35553
vt 0.30705 0.39258
vt 0.64942 0.39258
vt 0.64942 0.35553
vt 0.30705 0.39258
vt 0.64942 0.39258
vt 0.64942 0.35553
vt 0.30705 0.39258
vt 0.64942 0.39258
vt 0.64942 0.35553
vt 0.64942 0.39258
vt 0.64942 0.35553
vt 0.30705 0.35553
vt 0.88122 0.44527
vt 0.90283 0.43632
vt 0.92443 0.44527
vt 0.92443 0.44527
vt 0.93338 0.46687
vt 0.92443 0.48847
vt 0.92443 0.48847
vt 0.90283 0.49742
vt 0.88122 0.48847
vt 0.88122 0.48847
vt 0.87228 0.46687
vt 0.88122 0.44527
vt 0.88122 0.44527
vt 0.92443 0.44527
vt 0.92443 0.48847
vt 0.64942 0.39258
vt 0.64942 0.35553
vt 0.30705 0.35553
vt 0.30705 0.39258
vt 0.64942 0.39258
vt 0.64942 0.35553
vt 0.64942 0.39258
vt 0.64942 0.35553
vt 0.30705 0.35553
vt 0.64942 0.39258
vt 0.64942 0.35553
vt 0.30705 0.35553
vt 0.64942 0.39258
vt 0.64942 0.35553
vt 0.30705 0.35553
vt 0.30705 0.39258
vt 0.64942 0.39258
vt 0.64942 0.35553
vt 0.64942 0.39258
vt 0.64942 0.35553
vt 0.30705 0.35553
vn -1.00000 -0.00000 -0.00000
vn -1.00000 -0.00000 -0.00000
vn -1.00000 -0.00000 -0.00000
vn 0.00000 -0.00000 1.00000
vn 0.00000 -0.00000 1.00000
vn 0.00000 -0.00000 1.00000
vn -1.00000 -0.00000 -0.00000
vn -1.00000 -0.00000 -0.00000
vn -1.00000 -0.00000 -0.00000
vn -0.70591 -0.00000 -0.70831
vn -0.70591 -0.00000 -0.70831
vn -0.70591 -0.00000 -0.70831
vn -0.54943 0.83554 -0.00000
vn -0.54943 0.83554 -0.00000
vn -0.54943 0.83554 -0.00000
vn 0.00000 1.00000 -0.00000
vn 0.00000 1.00000 -0.00000
vn 0.00000 1.00000 -0.00000
vn 0.00000 1.00000 -0.00000
vn 0.00000 1.00000 -0.00000
vn 0.00000 1.00000 -0.00000
vn -0.79440 -0.00000 0.60740
vn -0.79440 -0.00000 0.60740
vn -0.79440 -0.00000 0.60740
vn 0.00000 -0.73470 -0.67840
vn 0.00000 -0.73470 -0.67840
vn 0.00000 -0.73470 -0.67840
vn -0.54943 0.83554 -0.00000
vn -0.54943 0.83554 -0.00000
vn -0.54943 0.83554 -0.00000
vn -0.67030 -0.00000 -0.74209
vn -0.67030 -0.00000 -0.74209
vn -0.67030 -0.00000 -0.74209
vn 0.00000 -0.89668 -0.44269
vn 0.00000 -0.89668 -0.44269
vn 0.00000 -0.89668 -0.44269
vn -0.34001 -0.00000 -0.94042
vn -0.34001 -0.00000 -0.94042
vn -0.34001 -0.00000 -0.94042
vn 0.00000 -0.39992 -0.91655
vn 0.00000 -0.39992 -0.91655
vn 0.00000 -0.39992 -0.91655
vn -0.00000 -1.00000 0.00000
vn -0.00000 -1.00000 0.00000
vn -0.00000 -1.00000 0.00000
vn 0.00000 0.89668 -0.44269
vn 0.00000 0.89668 -0.44269
vn 0.00000 0.89668 -0.44269
vn 0.00000 0.39992 -0.91655
vn 0.00000 0.39992 -0.91655
vn 0.00000 0.39992 -0.91655
vn 0.00000 -0.00000 -1.00000
vn 0.00000 -0.00000 -1.00000
vn 0.00000 -0.00000 -1.00000
vn 0.00000 -1.00000 -0.00000
vn 0.00000 -1.00000 -0.00000
vn 0.00000 -1.00000 -0.00000
vn 0.00000 -0.81785 0.57543
vn 0.00000 -0.81785 0.57543
vn 0.00000 -0.81785 0.57543
vn 0.78598 0.47669 -0.39369
vn 0.78598 0.47669 -0.39369
vn 0.78598 0.47669 -0.39369
vn 0.32749 0.40049 0.85578
vn 0.32749 0.40049 0.85578
vn 0.32749 0.40049 0.85578
vn -0.26309 0.00530 0.96476
vn -0.26309 0.00530 0.96476
vn -0.26309 0.00530 0.96476
vn -0.52980 -0.21120 0.82140
vn -0.52980 -0.21120 0.82140
vn -0.52980 -0.21120 0.82140
vn -0.78598 -0.47669 0.39369
vn -0.78598 -0.47669 0.39369
vn -0.78598 -0.47669 0.39369
vn -0.32749 -0.40049 -0.85578
vn -0.32749 -0.40049 -0.85578
vn -0.32749 -0.40049 -0.85578
vn -0.16500 0.93798 -0.30489
vn -0.16500 0.93798 -0.30489
vn -0.16500 0.93798 -0.30489
vn 0.26309 -0.00530 -0.96476
vn 0.26309 -0.00530 -0.96476
vn 0.26309 -0.00530 -0.96476
vn 0.52980 0.21120 -0.82140
vn 0.52980 0.21120 -0.82140
vn 0.52980 0.21120 -0.82140
vn 0.64731 -0.24870 -0.72051
vn 0.64731 -0.24870 -0.72051
vn 0.64731 -0.24870 -0.72051
vn -0.63691 0.23730 -0.73351
vn -0.63691 0.23730 -0.73351
vn -0.63691 0.23730 -0.73351
vn 0.36571 0.90031 0.23600
vn 0.36571 0.90031 0.23600
vn 0.36571 0.90031 0.23600
vn 0.69639 -0.33039 0.63709
vn 0.69639 -0.33039 0.63709
vn 0.69639 -0.33039 0.63709
vn -0.73445 -0.32692 -0.59474
vn -0.73445 -0.32692 -0.59474
vn -0.73445 -0.32692 -0.59474
vn 0.06860 -0.90696 0.41558
vn 0.06860 -0.90696 0.41558
vn 0.06860 -0.90696 0.41558
vn -0.54262 0.39981 -0.73872
vn -0.54262 0.39981 -0.73872
vn -0.54262 0.39981 -0.73872
vn 0.79143 0.30451 0.53002
vn 0.79143 0.30451 0.53002
vn 0.79143 0.30451 0.53002
vn -0.49939 -0.86118 -0.09480
vn -0.49939 -0.86118 -0.09480
vn -0.49939 -0.86118 -0.09480
vn -0.98881 -0.12310 -0.08430
vn -0.98881 -0.12310 -0.08430
vn -0.98881 -0.12310 -0.08430
vn -0.65479 -0.66549 0.35829
vn -0.65479 -0.66549 0.35829
vn -0.65479 -0.66549 0.35829
vn 0.68871 -0.26000 0.67681
vn 0.68871 -0.26000 0.67681
vn 0.68871 -0.26000 0.67681
vn 0.26370 0.95740 0.11770
vn 0.26370 0.95740 0.11770
vn 0.26370 0.95740 0.11770
vn -0.24181 0.93012 -0.27641
vn -0.24181 0.93012 -0.27641
vn -0.24181 0.93012 -0.27641
vn -0.90788 -0.31529 -0.27629
vn -0.90788 -0.31529 -0.27629
vn -0.90788 -0.31529 -0.27629
vn 0.01570 -0.65471 0.75571
vn 0.01570 -0.65471 0.75571
vn 0.01570 -0.65471 0.75571
vn 0.89734 0.38962 0.20731
vn 0.89734 0.38962 0.20731
vn 0.89734 0.38962 0.20731
vn 0.69157 -0.27339 -0.66857
vn 0.69157 -0.27339 -0.66857
vn 0.69157 -0.27339 -0.66857
vn -0.03320 -0.39272 0.91906
vn -0.03320 -0.39272 0.91906
vn -0.03320 -0.39272 0.91906
vn 0.99051 0.12800 0.05010
vn 0.99051 0.12800 0.05010
vn 0.99051 0.12800 0.05010
vn -0.68511 0.23290 -0.69021
vn -0.68511 0.23290 -0.69021
vn -0.68511 0.23290 -0.69021
vn -0.71999 -0.36280 0.59160
vn -0.71999 -0.36280 0.59160
vn -0.71999 -0.36280 0.59160
vn 0.67399 -0.21060 0.70809
vn 0.67399 -0.21060 0.70809
vn 0.67399 -0.21060 0.70809
vn 0.68042 0.42761 -0.59512
vn 0.68042 0.42761 -0.59512
vn 0.68042 0.42761 -0.59512
vn 0.01420 0.48668 -0.87346
vn 0.01420 0.48668 -0.87346
vn 0.01420 0.48668 -0.87346
vn -0.68007 0.07910 -0.72887
vn -0.68007 0.07910 -0.72887
vn -0.68007 0.07910 -0.72887
vn 0.03770 0.07940 -0.99613
vn 0.03770 0.07940 -0.99613
vn 0.03770 0.07940 -0.99613
vn -0.89819 0.43950 0.00940
vn -0.89819 0.43950 0.00940
vn -0.89819 0.43950 0.00940
vn -0.03780 -0.07940 0.99613
vn -0.03780 -0.07940 0.99613
vn -0.03780 -0.07940 0.99613
vn 0.89819 -0.43950 -0.00940
vn 0.89819 -0.43950 -0.00940
vn 0.89819 -0.43950 -0.00940
vn -0.64680 0.38200 -0.66010
vn -0.64680 0.38200 -0.66010
vn -0.64680 0.38200 -0.66010
vn -0.69157 0.27339 0.66857
vn -0.69157 0.27339 0.66857
vn -0.69157 0.27339 0.66857
vn 0.64680 -0.38200 0.66010
vn 0.64680 -0.38200 0.66010
vn 0.64680 -0.38200 0.66010
vn 0.45951 -0.88541 -0.07000
vn 0.45951 -0.88541 -0.07000
vn 0.45951 -0.88541 -0.07000
vn -0.75384 -0.04160 0.65574
vn -0.75384 -0.04160 0.65574
vn -0.75384 -0.04160 0.65574
vn 0.71141 -0.04530 0.70131
vn 0.71141 -0.04530 0.70131
vn 0.71141 -0.04530 0.70131
vn 0.73188 0.12060 -0.67068
vn 0.73188 0.12060 -0.67068
vn 0.73188 0.12060 -0.67068
vn 0.03760 0.09810 -0.99447
vn 0.03760 0.09810 -0.99447
vn 0.03760 0.09810 -0.99447
vn -0.99880 0.03500 -0.03430
vn -0.99880 0.03500 -0.03430
vn -0.99880 0.03500 -0.03430
vn -0.03760 -0.09810 0.99447
vn -0.03760 -0.09810 0.99447
vn -0.03760 -0.09810 0.99447
vn 0.99636 0.07250 0.04480
vn 0.99636 0.07250 0.04480
vn 0.99636 0.07250 0.04480
vn 0.05640 0.14450 -0.98790
vn 0.05640 0.14450 -0.98790
vn 0.05640 0.14450 -0.98790
vn -0.46450 0.62819 -0.62419
vn -0.46450 0.62819 -0.62419
vn -0.46450 0.62819 -0.62419
vn -0.27610 0.74780 0.60380
vn -0.27610 0.74780 0.60380
vn -0.27610 0.74780 0.60380
vn 0.46450 -0.62819 0.62419
vn 0.46450 -0.62819 0.62419
vn 0.46450 -0.62819 0.62419
vn 0.27610 -0.74780 -0.60380
vn 0.27610 -0.74780 -0.60380
vn 0.27610 -0.74780 -0.60380
vn -0.08730 -0.21080 -0.97362
vn -0.08730 -0.21080 -0.97362
vn -0.08730 -0.21080 -0.97362
vn -0.45951 0.88541 0.07000
vn -0.45951 0.88541 0.07000
vn -0.45951 0.88541 0.07000
vn 0.08730 0.21080 0.97362
vn 0.08730 0.21080 0.97362
vn 0.08730 0.21080 0.97362
vn 0.62840 0.66699 -0.40030
vn 0.62840 0.66699 -0.40030
vn 0.62840 0.66699 -0.40030
vn -0.92868 0.37089 0.00150
vn -0.92868 0.37089 0.00150
vn -0.92868 0.37089 0.00150
vn 0.23161 -0.26461 0.93613
vn 0.23161 -0.26461 0.93613
vn 0.23161 -0.26461 0.93613
vn 0.92446 -0.38128 -0.00270
vn 0.92446 -0.38128 -0.00270
vn 0.92446 -0.38128 -0.00270
vn -0.64668 0.28829 -0.70618
vn -0.64668 0.28829 -0.70618
vn -0.64668 0.28829 -0.70618
vn -0.66068 0.24579 0.70928
vn -0.66068 0.24579 0.70928
vn -0.66068 0.24579 0.70928
vn 0.77689 -0.52279 0.35090
vn 0.77689 -0.52279 0.35090
vn 0.77689 -0.52279 0.35090
vn 0.72346 -0.07870 -0.68586
vn 0.72346 -0.07870 -0.68586
vn 0.72346 -0.07870 -0.68586
vn 1.00000 -0.00000 -0.00000
vn 1.00000 -0.00000 -0.00000
vn 1.00000 -0.00000 -0.00000
vn 0.00000 -0.00000 1.00000
vn 0.00000 -0.00000 1.00000
vn 0.00000 -0.00000 1.00000
vn 1.00000 -0.00000 -0.00000
vn 1.00000 -0.00000 -0.00000
vn 1.00000 -0.00000 -0.00000
vn 0.70591 -0.00000 -0.70831
vn 0.70591 -0.00000 -0.70831
vn 0.70591 -0.00000 -0.70831
vn 0.54943 0.83554 -0.00000
vn 0.54943 0.83554 -0.00000
vn 0.54943 0.83554 -0.00000
vn 0.00000 1.00000 -0.00000
vn 0.00000 1.00000 -0.00000
vn 0.00000 1.00000 -0.00000
vn 0.00000 1.00000 -0.00000
vn 0.00000 1.00000 -0.00000
vn 0.00000 1.00000 -0.00000
vn 0.79440 -0.00000 0.60740
vn 0.79440 -0.00000 0.60740
vn 0.79440 -0.00000 0.60740
vn 0.00000 -0.73470 -0.67840
vn 0.00000 -0.73470 -0.67840
vn 0.00000 -0.73470 -0.67840
vn 0.54943 0.83554 -0.00000
vn 0.54943 0.83554 -0.00000
vn 0.54943 0.83554 -0.00000
vn 0.67030 -0.00000 -0.74209
vn 0.67030 -0.00000 -0.74209
vn 0.67030 -0.00000 -0.74209
vn 0.00000 -0.89668 -0.44269
vn 0.00000 -0.89668 -0.44269
vn 0.00000 -0.89668 -0.44269
vn 0.34001 -0.00000 -0.94042
vn 0.34001 -0.00000 -0.94042
vn 0.34001 -0.00000 -0.94042
vn 0.00000 -0.39992 -0.91655
vn 0.00000 -0.39992 -0.91655
vn 0.00000 -0.39992 -0.91655
vn 0.00000 -1.00000 0.00000
vn 0.00000 -1.00000 0.00000
vn 0.00000 -1.00000 0.00000
vn 0.00000 0.89668 -0.44269
vn 0.00000 0.89668 -0.44269
vn 0.00000 0.89668 -0.44269
vn 0.00000 0.39992 -0.91655
vn 0.00000 0.39992 -0.91655
vn 0.00000 0.39992 -0.91655
vn 0.00000 -0.00000 -1.00000
vn 0.00000 -0.00000 -1.00000
vn 0.00000 -0.00000 -1.00000
vn 0.00000 -1.00000 0.00000
vn 0.00000 -1.00000 0.00000
vn 0.00000 -1.00000 0.00000
vn 0.00000 -0.81785 0.57543
vn 0.00000 -0.81785 0.57543
vn 0.00000 -0.81785 0.57543
vn -0.78598 0.47669 -0.39369
vn -0.78598 0.47669 -0.39369
vn -0.78598 0.47669 -0.39369
vn -0.32749 0.40049 0.85578
vn -0.32749 0.40049 0.85578
vn -0.32749 0.40049 0.85578
vn 0.26309 0.00530 0.96476
vn 0.26309 0.00530 0.96476
vn 0.26309 0.00530 0.96476
vn 0.52980 -0.21120 0.82140
vn 0.52980 -0.21120 0.82140
vn 0.52980 -0.21120 0.82140
vn 0.78598 -0.47669 0.39369
vn 0.78598 -0.47669 0.39369
vn 0.78598 -0.47669 0.39369
vn 0.32749 -0.40049 -0.85578
vn 0.32749 -0.40049 -0.85578
vn 0.32749 -0.40049 -0.85578
vn 0.16500 0.93798 -0.30489
vn 0.16500 0.93798 -0.30489
vn 0.16500 0.93798 -0.30489
vn -0.26309 -0.00530 -0.96476
vn -0.26309 -0.00530 -0.96476
vn -0.26309 -0.00530 -0.96476
vn -0.52980 0.21120 -0.82140
vn -0.52980 0.21120 -0.82140
vn -0.52980 0.21120 -0.82140
vn -0.64731 -0.24870 -0.72051
vn -0.64731 -0.24870 -0.72051
vn -0.64731 -0.24870 -0.72051
vn 0.63691 0.23730 -0.73351
vn 0.63691 0.23730 -0.73351
vn 0.63691 0.23730 -0.73351
vn -0.36571 0.90031 0.23600
vn -0.36571 0.90031 0.23600
vn -0.36571 0.90031 0.23600
vn -0.51199 -0.38719 0.76678
vn -0.51199 -0.38719 0.76678
vn -0.51199 -0.38719 0.76678
vn 0.73445 -0.32692 -0.59474
vn 0.73445 -0.32692 -0.59474
vn 0.73445 -0.32692 -0.59474
vn -0.06860 -0.90696 0.41558
vn -0.06860 -0.90696 0.41558
vn -0.06860 -0.90696 0.41558
vn 0.54262 0.39981 -0.73872
vn 0.54262 0.39981 -0.73872
vn 0.54262 0.39981 -0.73872
vn -0.79143 0.30451 0.53002
vn -0.79143 0.30451 0.53002
vn -0.79143 0.30451 0.53002
vn 0.49939 -0.86118 -0.09480
vn 0.49939 -0.86118 -0.09480
vn 0.49939 -0.86118 -0.09480
vn 0.98881 -0.12310 -0.08430
vn 0.98881 -0.12310 -0.08430
vn 0.98881 -0.12310 -0.08430
vn 0.65479 -0.66549 0.35829
vn 0.65479 -0.66549 0.35829
vn 0.65479 -0.66549 0.35829
vn -0.63498 -0.23449 0.73608
vn -0.63498 -0.23449 0.73608
vn -0.63498 -0.23449 0.73608
vn -0.26370 0.95740 0.11770
vn -0.26370 0.95740 0.11770
vn -0.26370 0.95740 0.11770
vn 0.24181 0.93012 -0.27641
vn 0.24181 0.93012 -0.27641
vn 0.24181 0.93012 -0.27641
vn 0.90788 -0.31529 -0.27629
vn 0.90788 -0.31529 -0.27629
vn 0.90788 -0.31529 -0.27629
vn 0.00860 -0.64561 0.76362
vn 0.00860 -0.64561 0.76362
vn 0.00860 -0.64561 0.76362
vn -0.45170 0.64700 0.61430
vn -0.45170 0.64700 0.61430
vn -0.45170 0.64700 0.61430
vn -0.69157 -0.27339 -0.66857
vn -0.69157 -0.27339 -0.66857
vn -0.69157 -0.27339 -0.66857
vn 0.02900 -0.39422 0.91856
vn 0.02900 -0.39422 0.91856
vn 0.02900 -0.39422 0.91856
vn -0.98635 0.13731 0.09090
vn -0.98635 0.13731 0.09090
vn -0.98635 0.13731 0.09090
vn 0.68511 0.23290 -0.69021
vn 0.68511 0.23290 -0.69021
vn 0.68511 0.23290 -0.69021
vn 0.71999 -0.36280 0.59160
vn 0.71999 -0.36280 0.59160
vn 0.71999 -0.36280 0.59160
vn -0.68193 -0.21261 0.69983
vn -0.68193 -0.21261 0.69983
vn -0.68193 -0.21261 0.69983
vn -0.70361 0.45320 -0.54731
vn -0.70361 0.45320 -0.54731
vn -0.70361 0.45320 -0.54731
vn -0.01420 0.48668 -0.87346
vn -0.01420 0.48668 -0.87346
vn -0.01420 0.48668 -0.87346
vn 0.68007 0.07910 -0.72887
vn 0.68007 0.07910 -0.72887
vn 0.68007 0.07910 -0.72887
vn -0.03770 0.07940 -0.99613
vn -0.03770 0.07940 -0.99613
vn -0.03770 0.07940 -0.99613
vn 0.89819 0.43950 0.00940
vn 0.89819 0.43950 0.00940
vn 0.89819 0.43950 0.00940
vn 0.03780 -0.07940 0.99613
vn 0.03780 -0.07940 0.99613
vn 0.03780 -0.07940 0.99613
vn -0.89819 -0.43950 -0.00940
vn -0.89819 -0.43950 -0.00940
vn -0.89819 -0.43950 -0.00940
vn 0.64680 0.38200 -0.66010
vn 0.64680 0.38200 -0.66010
vn 0.64680 0.38200 -0.66010
vn 0.69157 0.27339 0.66857
vn 0.69157 0.27339 0.66857
vn 0.69157 0.27339 0.66857
vn -0.64680 -0.38200 0.66010
vn -0.64680 -0.38200 0.66010
vn -0.64680 -0.38200 0.66010
vn -0.45951 -0.88541 -0.07000
vn -0.45951 -0.88541 -0.07000
vn -0.45951 -0.88541 -0.07000
vn 0.73320 -0.05960 0.67740
vn 0.73320 -0.05960 0.67740
vn 0.73320 -0.05960 0.67740
vn -0.67880 -0.01800 0.73410
vn -0.67880 -0.01800 0.73410
vn -0.67880 -0.01800 0.73410
vn -0.73188 0.12060 -0.67068
vn -0.73188 0.12060 -0.67068
vn -0.73188 0.12060 -0.67068
vn -0.03760 0.09810 -0.99447
vn -0.03760 0.09810 -0.99447
vn -0.03760 0.09810 -0.99447
vn 0.99880 0.03500 -0.03430
vn 0.99880 0.03500 -0.03430
vn 0.99880 0.03500 -0.03430
vn 0.03760 -0.09810 0.99447
vn 0.03760 -0.09810 0.99447
vn 0.03760 -0.09810 0.99447
vn -0.99636 0.07250 0.04480
vn -0.99636 0.07250 0.04480
vn -0.99636 0.07250 0.04480
vn -0.05640 0.14450 -0.98790
vn -0.05640 0.14450 -0.98790
vn -0.05640 0.14450 -0.98790
vn 0.46450 0.62819 -0.62419
vn 0.46450 0.62819 -0.62419
vn 0.46450 0.62819 -0.62419
vn 0.27610 0.74780 0.60380
vn 0.27610 0.74780 0.60380
vn 0.27610 0.74780 0.60380
vn -0.46450 -0.62819 0.62419
vn -0.46450 -0.62819 0.62419
vn -0.46450 -0.62819 0.62419
vn -0.27610 -0.74780 -0.60380
vn -0.27610 -0.74780 -0.60380
vn -0.27610 -0.74780 -0.60380
vn 0.08730 -0.21080 -0.97362
vn 0.08730 -0.21080 -0.97362
vn 0.08730 -0.21080 -0.97362
vn 0.45951 0.88541 0.07000
vn 0.45951 0.88541 0.07000
vn 0.45951 0.88541 0.07000
vn -0.08730 0.21080 0.97362
vn -0.08730 0.21080 0.97362
vn -0.08730 0.21080 0.97362
vn -0.62840 0.66699 -0.40030
vn -0.62840 0.66699 -0.40030
vn -0.62840 0.66699 -0.40030
vn 0.92868 0.37089 0.00150
vn 0.92868 0.37089 0.00150
vn 0.92868 0.37089 0.00150
vn -0.02860 0.06570 0.99743
vn -0.02860 0.06570 0.99743
vn -0.02860 0.06570 0.99743
vn -0.92446 -0.38128 -0.00270
vn -0.92446 -0.38128 -0.00270
vn -0.92446 -0.38128 -0.00270
vn 0.64668 0.28829 -0.70618
vn 0.64668 0.28829 -0.70618
vn 0.64668 0.28829 -0.70618
vn 0.66068 0.24579 0.70928
vn 0.66068 0.24579 0.70928
vn 0.66068 0.24579 0.70928
vn -0.69239 -0.13700 0.70839
vn -0.69239 -0.13700 0.70839
vn -0.69239 -0.13700 0.70839
vn -0.72346 -0.07870 -0.68586
vn -0.72346 -0.07870 -0.68586
vn -0.72346 -0.07870 -0.68586
vn -1.00000 -0.00000 -0.00000
vn -1.00000 -0.00000 -0.00000
vn -1.00000 -0.00000 -0.00000
vn 0.00000 -0.00000 1.00000
vn 0.00000 -0.00000 1.00000
vn 0.00000 -0.00000 1.00000
vn -1.00000 -0.00000 -0.00000
vn -1.00000 -0.00000 -0.00000
vn -1.00000 -0.00000 -0.00000
vn -1.00000 -0.00000 -0.00000
vn -1.00000 -0.00000 -0.00000
vn -1.00000 -0.00000 -0.00000
vn -1.00000 -0.00000 -0.00000
vn -1.00000 -0.00000 -0.00000
vn -1.00000 -0.00000 -0.00000
vn -0.70591 -0.00000 -0.70831
vn -0.70591 -0.00000 -0.70831
vn -0.70591 -0.00000 -0.70831
vn -0.54943 0.83554 -0.00000
vn -0.54943 0.83554 -0.00000
vn -0.54943 0.83554 -0.00000
vn 0.00000 1.00000 -0.00000
vn 0.00000 1.00000 -0.00000
vn 0.00000 1.00000 -0.00000
vn 0.00000 1.00000 -0.00000
vn 0.00000 1.00000 -0.00000
vn 0.00000 1.00000 -0.00000
vn 0.00000 1.00000 -0.00000
vn 0.00000 1.00000 -0.00000
vn 0.00000 1.00000 -0.00000
vn -0.79440 -0.00000 0.60740
vn -0.79440 -0.00000 0.60740
vn -0.79440 -0.00000 0.60740
vn 0.00000 -0.73470 -0.67840
vn 0.00000 -0.73470 -0.67840
vn 0.00000 -0.73470 -0.67840
vn -0.54943 0.83554 -0.00000
vn -0.54943 0.83554 -0.00000
vn -0.54943 0.83554 -0.00000
vn -0.67030 -0.00000 -0.74209
vn -0.67030 -0.00000 -0.74209
vn -0.67030 -0.00000 -0.74209
vn 0.00000 -0.89668 -0.44269
vn 0.00000 -0.89668 -0.44269
vn 0.00000 -0.89668 -0.44269
vn -0.34001 -0.00000 -0.94042
vn -0.34001 -0.00000 -0.94042
vn -0.34001 -0.00000 -0.94042
vn 0.00000 -0.39992 -0.91655
vn 0.00000 -0.39992 -0.91655
vn 0.00000 -0.39992 -0.91655
vn 0.00000 -1.00000 0.00000
vn 0.00000 -1.00000 0.00000
vn 0.00000 -1.00000 0.00000
vn 0.00000 -1.00000 0.00000
vn 0.00000 -1.00000 0.00000
vn 0.00000 -1.00000 0.00000
vn 0.00000 0.89668 -0.44269
vn 0.00000 0.89668 -0.44269
vn 0.00000 0.89668 -0.44269
vn 0.00000 0.39992 -0.91655
vn 0.00000 0.39992 -0.91655
vn 0.00000 0.39992 -0.91655
vn 0.00000 -0.00000 -1.00000
vn 0.00000 -0.00000 -1.00000
vn 0.00000 -0.00000 -1.00000
vn -0.00000 -1.00000 0.00000
vn -0.00000 -1.00000 0.00000
vn -0.00000 -1.00000 0.00000
vn 0.00000 -0.81785 0.57543
vn 0.00000 -0.81785 0.57543
vn 0.00000 -0.81785 0.57543
vn 0.78598 0.47669 -0.39369
vn 0.78598 0.47669 -0.39369
vn 0.78598 0.47669 -0.39369
vn 0.32749 0.40049 0.85578
vn 0.32749 0.40049 0.85578
vn 0.32749 0.40049 0.85578
vn -0.26309 0.00530 0.96476
vn -0.26309 0.00530 0.96476
vn -0.26309 0.00530 0.96476
vn -0.52980 -0.21120 0.82140
vn -0.52980 -0.21120 0.82140
vn -0.52980 -0.21120 0.82140
vn -0.78598 -0.47669 0.39369
vn -0.78598 -0.47669 0.39369
vn -0.78598 -0.47669 0.39369
vn -0.32749 -0.40049 -0.85578
vn -0.32749 -0.40049 -0.85578
vn -0.32749 -0.40049 -0.85578
vn -0.24661 0.93252 -0.26381
vn -0.24661 0.93252 -0.26381
vn -0.24661 0.93252 -0.26381
vn 0.26309 -0.00530 -0.96476
vn 0.26309 -0.00530 -0.96476
vn 0.26309 -0.00530 -0.96476
vn 0.52980 0.21120 -0.82140
vn 0.52980 0.21120 -0.82140
vn 0.52980 0.21120 -0.82140
vn 0.64731 -0.24870 -0.72051
vn 0.64731 -0.24870 -0.72051
vn 0.64731 -0.24870 -0.72051
vn 0.64731 -0.24870 -0.72051
vn 0.64731 -0.24870 -0.72051
vn 0.64731 -0.24870 -0.72051
vn 0.64731 -0.24870 -0.72051
vn 0.64731 -0.24870 -0.72051
vn 0.64731 -0.24870 -0.72051
vn 0.64731 -0.24870 -0.72051
vn 0.64731 -0.24870 -0.72051
vn 0.64731 -0.24870 -0.72051
vn 0.64731 -0.24870 -0.72051
vn 0.64731 -0.24870 -0.72051
vn 0.64731 -0.24870 -0.72051
vn -0.68881 0.26080 -0.67641
vn -0.68881 0.26080 -0.67641
vn -0.68881 0.26080 -0.67641
vn 0.00820 0.93723 0.34861
vn 0.00820 0.93723 0.34861
vn 0.00820 0.93723 0.34861
vn 0.51199 -0.38719 0.76678
vn 0.51199 -0.38719 0.76678
vn 0.51199 -0.38719 0.76678
vn -0.79162 -0.45101 -0.41221
vn -0.79162 -0.45101 -0.41221
vn -0.79162 -0.45101 -0.41221
vn 0.12710 -0.83331 0.53800
vn 0.12710 -0.83331 0.53800
vn 0.12710 -0.83331 0.53800
vn -0.69157 0.32219 -0.64647
vn -0.69157 0.32219 -0.64647
vn -0.69157 0.32219 -0.64647
vn 0.43100 0.65391 0.62181
vn 0.43100 0.65391 0.62181
vn 0.43100 0.65391 0.62181
vn -0.45219 -0.88789 0.08470
vn -0.45219 -0.88789 0.08470
vn -0.45219 -0.88789 0.08470
vn -0.99175 -0.11841 -0.04920
vn -0.99175 -0.11841 -0.04920
vn -0.99175 -0.11841 -0.04920
vn -0.63537 -0.64807 0.41988
vn -0.63537 -0.64807 0.41988
vn -0.63537 -0.64807 0.41988
vn 0.63498 -0.23449 0.73608
vn 0.63498 -0.23449 0.73608
vn 0.63498 -0.23449 0.73608
vn 0.01870 0.95970 0.28040
vn 0.01870 0.95970 0.28040
vn 0.01870 0.95970 0.28040
vn -0.05010 0.81640 -0.57530
vn -0.05010 0.81640 -0.57530
vn -0.05010 0.81640 -0.57530
vn -0.93559 -0.30920 -0.17050
vn -0.93559 -0.30920 -0.17050
vn -0.93559 -0.30920 -0.17050
vn -0.00860 -0.64561 0.76362
vn -0.00860 -0.64561 0.76362
vn -0.00860 -0.64561 0.76362
vn 0.45170 0.64700 0.61430
vn 0.45170 0.64700 0.61430
vn 0.45170 0.64700 0.61430
vn 0.69157 -0.27339 -0.66857
vn 0.69157 -0.27339 -0.66857
vn 0.69157 -0.27339 -0.66857
vn -0.02900 -0.39422 0.91856
vn -0.02900 -0.39422 0.91856
vn -0.02900 -0.39422 0.91856
vn 0.98635 0.13731 0.09090
vn 0.98635 0.13731 0.09090
vn 0.98635 0.13731 0.09090
vn -0.67223 0.22811 -0.70433
vn -0.67223 0.22811 -0.70433
vn -0.67223 0.22811 -0.70433
vn -0.70021 -0.35380 0.62011
vn -0.70021 -0.35380 0.62011
vn -0.70021 -0.35380 0.62011
vn 0.68193 -0.21261 0.69983
vn 0.68193 -0.21261 0.69983
vn 0.68193 -0.21261 0.69983
vn 0.70361 0.45320 -0.54731
vn 0.70361 0.45320 -0.54731
vn 0.70361 0.45320 -0.54731
vn 0.03120 0.47659 -0.87857
vn 0.03120 0.47659 -0.87857
vn 0.03120 0.47659 -0.87857
vn -0.70236 0.09269 -0.70576
vn -0.70236 0.09269 -0.70576
vn -0.70236 0.09269 -0.70576
vn 0.03770 0.07940 -0.99613
vn 0.03770 0.07940 -0.99613
vn 0.03770 0.07940 -0.99613
vn -0.89819 0.43950 0.00940
vn -0.89819 0.43950 0.00940
vn -0.89819 0.43950 0.00940
vn -0.03780 -0.07940 0.99613
vn -0.03780 -0.07940 0.99613
vn -0.03780 -0.07940 0.99613
vn 0.89819 -0.43950 -0.00940
vn 0.89819 -0.43950 -0.00940
vn 0.89819 -0.43950 -0.00940
vn -0.64680 0.38200 -0.66010
vn -0.64680 0.38200 -0.66010
vn -0.64680 0.38200 -0.66010
vn -0.69157 0.27339 0.66857
vn -0.69157 0.27339 0.66857
vn -0.69157 0.27339 0.66857
vn 0.64680 -0.38200 0.66010
vn 0.64680 -0.38200 0.66010
vn 0.64680 -0.38200 0.66010
vn 0.45951 -0.88541 -0.07000
vn 0.45951 -0.88541 -0.07000
vn 0.45951 -0.88541 -0.07000
vn -0.73320 -0.05960 0.67740
vn -0.73320 -0.05960 0.67740
vn -0.73320 -0.05960 0.67740
vn 0.67880 -0.01800 0.73410
vn 0.67880 -0.01800 0.73410
vn 0.67880 -0.01800 0.73410
vn 0.76217 0.08720 -0.64148
vn 0.76217 0.08720 -0.64148
vn 0.76217 0.08720 -0.64148
vn 0.03760 0.09810 -0.99447
vn 0.03760 0.09810 -0.99447
vn 0.03760 0.09810 -0.99447
vn -0.99880 0.03500 -0.03430
vn -0.99880 0.03500 -0.03430
vn -0.99880 0.03500 -0.03430
vn -0.03760 -0.09810 0.99447
vn -0.03760 -0.09810 0.99447
vn -0.03760 -0.09810 0.99447
vn 0.99636 0.07250 0.04480
vn 0.99636 0.07250 0.04480
vn 0.99636 0.07250 0.04480
vn -0.18069 0.30309 -0.93567
vn -0.18069 0.30309 -0.93567
vn -0.18069 0.30309 -0.93567
vn -0.46450 0.62819 -0.62419
vn -0.46450 0.62819 -0.62419
vn -0.46450 0.62819 -0.62419
vn -0.27610 0.74780 0.60380
vn -0.27610 0.74780 0.60380
vn -0.27610 0.74780 0.60380
vn 0.46450 -0.62819 0.62419
vn 0.46450 -0.62819 0.62419
vn 0.46450 -0.62819 0.62419
vn 0.27610 -0.74780 -0.60380
vn 0.27610 -0.74780 -0.60380
vn 0.27610 -0.74780 -0.60380
vn -0.08730 -0.21080 -0.97362
vn -0.08730 -0.21080 -0.97362
vn -0.08730 -0.21080 -0.97362
vn -0.45951 0.88541 0.07000
vn -0.45951 0.88541 0.07000
vn -0.45951 0.88541 0.07000
vn 0.08730 0.21080 0.97362
vn 0.08730 0.21080 0.97362
vn 0.08730 0.21080 0.97362
vn 0.62840 0.66699 -0.40030
vn 0.62840 0.66699 -0.40030
vn 0.62840 0.66699 -0.40030
vn 0.62840 0.66699 -0.40030
vn 0.62840 0.66699 -0.40030
vn 0.62840 0.66699 -0.40030
vn 0.62840 0.66699 -0.40030
vn 0.62840 0.66699 -0.40030
vn 0.62840 0.66699 -0.40030
vn 0.62840 0.66699 -0.40030
vn 0.62840 0.66699 -0.40030
vn 0.62840 0.66699 -0.40030
vn 0.62840 0.66699 -0.40030
vn 0.62840 0.66699 -0.40030
vn 0.62840 0.66699 -0.40030
vn -0.78538 0.37709 0.49089
vn -0.78538 0.37709 0.49089
vn -0.78538 0.37709 0.49089
vn 0.02860 0.06570 0.99743
vn 0.02860 0.06570 0.99743
vn 0.02860 0.06570 0.99743
vn 0.84518 -0.06180 -0.53089
vn 0.84518 -0.06180 -0.53089
vn 0.84518 -0.06180 -0.53089
vn -0.84963 0.43511 -0.29801
vn -0.84963 0.43511 -0.29801
vn -0.84963 0.43511 -0.29801
vn -0.31902 0.15281 0.93535
vn -0.31902 0.15281 0.93535
vn -0.31902 0.15281 0.93535
vn 0.69239 -0.13700 0.70839
vn 0.69239 -0.13700 0.70839
vn 0.69239 -0.13700 0.70839
vn 0.49691 0.16840 -0.85131
vn 0.49691 0.16840 -0.85131
vn 0.49691 0.16840 -0.85131
vn 1.00000 -0.00000 -0.00000
vn 1.00000 -0.00000 -0.00000
vn 1.00000 -0.00000 -0.00000
vn 0.00000 -0.00000 1.00000
vn 0.00000 -0.00000 1.00000
vn 0.00000 -0.00000 1.00000
vn 1.00000 -0.00000 -0.00000
vn 1.00000 -0.00000 -0.00000
vn 1.00000 -0.00000 -0.00000
vn 1.00000 -0.00000 -0.00000
vn 1.00000 -0.00000 -0.00000
vn 1.00000 -0.00000 -0.00000
vn 1.00000 -0.00000 -0.00000
vn 1.00000 -0.00000 -0.00000
vn 1.00000 -0.00000 -0.00000
vn 0.70591 -0.00000 -0.70831
vn 0.70591 -0.00000 -0.70831
vn 0.70591 -0.00000 -0.70831
vn 0.54943 0.83554 -0.00000
vn 0.54943 0.83554 -0.00000
vn 0.54943 0.83554 -0.00000
vn 0.00000 1.00000 -0.00000
vn 0.00000 1.00000 -0.00000
vn 0.00000 1.00000 -0.00000
vn 0.00000 1.00000 -0.00000
vn 0.00000 1.00000 -0.00000
vn 0.00000 1.00000 -0.00000
vn 0.00000 1.00000 -0.00000
vn 0.00000 1.00000 -0.00000
vn 0.00000 1.00000 -0.00000
vn 0.79440 -0.00000 0.60740
vn 0.79440 -0.00000 0.60740
vn 0.79440 -0.00000 0.60740
vn 0.00000 -0.73470 -0.67840
vn 0.00000 -0.73470 -0.67840
vn 0.00000 -0.73470 -0.67840
vn 0.54943 0.83554 -0.00000
vn 0.54943 0.83554 -0.00000
vn 0.54943 0.83554 -0.00000
vn 0.67030 -0.00000 -0.74209
vn 0.67030 -0.00000 -0.74209
vn 0.67030 -0.00000 -0.74209
vn 0.00000 -0.89668 -0.44269
vn 0.00000 -0.89668 -0.44269
vn 0.00000 -0.89668 -0.44269
vn 0.34001 -0.00000 -0.94042
vn 0.34001 -0.00000 -0.94042
vn 0.34001 -0.00000 -0.94042
vn 0.00000 -0.39992 -0.91655
vn 0.00000 -0.39992 -0.91655
vn 0.00000 -0.39992 -0.91655
vn 0.00000 -1.00000 0.00000
vn 0.00000 -1.00000 0.00000
vn 0.00000 -1.00000 0.00000
vn 0.00000 -1.00000 0.00000
vn 0.00000 -1.00000 0.00000
vn 0.00000 -1.00000 0.00000
vn 0.00000 0.89668 -0.44269
vn 0.00000 0.89668 -0.44269
vn 0.00000 0.89668 -0.44269
vn 0.00000 0.39992 -0.91655
vn 0.00000 0.39992 -0.91655
vn 0.00000 0.39992 -0.91655
vn 0.00000 -0.00000 -1.00000
vn 0.00000 -0.00000 -1.00000
vn 0.00000 -0.00000 -1.00000
vn 0.00000 -1.00000 0.00000
vn 0.00000 -1.00000 0.00000
vn 0.00000 -1.00000 0.00000
vn 0.00000 -0.81785 0.57543
vn 0.00000 -0.81785 0.57543
vn 0.00000 -0.81785 0.57543
vn -0.78598 0.47669 -0.39369
vn -0.78598 0.47669 -0.39369
vn -0.78598 0.47669 -0.39369
vn -0.32749 0.40049 0.85578
vn -0.32749 0.40049 0.85578
vn -0.32749 0.40049 0.85578
vn 0.26309 0.00530 0.96476
vn 0.26309 0.00530 0.96476
vn 0.26309 0.00530 0.96476
vn 0.52980 -0.21120 0.82140
vn 0.52980 -0.21120 0.82140
vn 0.52980 -0.21120 0.82140
vn 0.78598 -0.47669 0.39369
vn 0.78598 -0.47669 0.39369
vn 0.78598 -0.47669 0.39369
vn 0.32749 -0.40049 -0.85578
vn 0.32749 -0.40049 -0.85578
vn 0.32749 -0.40049 -0.85578
vn 0.24661 0.93252 -0.26381
vn 0.24661 0.93252 -0.26381
vn 0.24661 0.93252 -0.26381
vn -0.26309 -0.00530 -0.96476
vn -0.26309 -0.00530 -0.96476
vn -0.26309 -0.00530 -0.96476
vn -0.52980 0.21120 -0.82140
vn -0.52980 0.21120 -0.82140
vn -0.52980 0.21120 -0.82140
vn -0.64731 -0.24870 -0.72051
vn -0.64731 -0.24870 -0.72051
vn -0.64731 -0.24870 -0.72051
vn -0.64731 -0.24870 -0.72051
vn -0.64731 -0.24870 -0.72051
vn -0.64731 -0.24870 -0.72051
vn -0.64731 -0.24870 -0.72051
vn -0.64731 -0.24870 -0.72051
vn -0.64731 -0.24870 -0.72051
vn -0.64731 -0.24870 -0.72051
vn -0.64731 -0.24870 -0.72051
vn -0.64731 -0.24870 -0.72051
vn -0.64731 -0.24870 -0.72051
vn -0.64731 -0.24870 -0.72051
vn -0.64731 -0.24870 -0.72051
vn 0.68881 0.26080 -0.67641
vn 0.68881 0.26080 -0.67641
vn 0.68881 0.26080 -0.67641
vn -0.00820 0.93723 0.34861
vn -0.00820 0.93723 0.34861
vn -0.00820 0.93723 0.34861
vn -0.69639 -0.33039 0.63709
vn -0.69639 -0.33039 0.63709
vn -0.69639 -0.33039 0.63709
vn 0.79162 -0.45101 -0.41221
vn 0.79162 -0.45101 -0.41221
vn 0.79162 -0.45101 -0.41221
vn -0.12710 -0.83331 0.53800
vn -0.12710 -0.83331 0.53800
vn -0.12710 -0.83331 0.53800
vn 0.69157 0.32219 -0.64647
vn 0.69157 0.32219 -0.64647
vn 0.69157 0.32219 -0.64647
vn -0.43100 0.65391 0.62181
vn -0.43100 0.65391 0.62181
vn -0.43100 0.65391 0.62181
vn 0.45219 -0.88789 0.08470
vn 0.45219 -0.88789 0.08470
vn 0.45219 -0.88789 0.08470
vn 0.99175 -0.11841 -0.04920
vn 0.99175 -0.11841 -0.04920
vn 0.99175 -0.11841 -0.04920
vn 0.63537 -0.64807 0.41988
vn 0.63537 -0.64807 0.41988
vn 0.63537 -0.64807 0.41988
vn -0.68871 -0.26000 0.67681
vn -0.68871 -0.26000 0.67681
vn -0.68871 -0.26000 0.67681
vn -0.01870 0.95970 0.28040
vn -0.01870 0.95970 0.28040
vn -0.01870 0.95970 0.28040
vn 0.05010 0.81640 -0.57530
vn 0.05010 0.81640 -0.57530
vn 0.05010 0.81640 -0.57530
vn 0.93559 -0.30920 -0.17050
vn 0.93559 -0.30920 -0.17050
vn 0.93559 -0.30920 -0.17050
vn -0.01570 -0.65471 0.75571
vn -0.01570 -0.65471 0.75571
vn -0.01570 -0.65471 0.75571
vn -0.89734 0.38962 0.20731
vn -0.89734 0.38962 0.20731
vn -0.89734 0.38962 0.20731
vn -0.69157 -0.27339 -0.66857
vn -0.69157 -0.27339 -0.66857
vn -0.69157 -0.27339 -0.66857
vn 0.03320 -0.39272 0.91906
vn 0.03320 -0.39272 0.91906
vn 0.03320 -0.39272 0.91906
vn -0.99051 0.12800 0.05010
vn -0.99051 0.12800 0.05010
vn -0.99051 0.12800 0.05010
vn 0.67223 0.22811 -0.70433
vn 0.67223 0.22811 -0.70433
vn 0.67223 0.22811 -0.70433
vn 0.70021 -0.35380 0.62011
vn 0.70021 -0.35380 0.62011
vn 0.70021 -0.35380 0.62011
vn -0.67399 -0.21060 0.70809
vn -0.67399 -0.21060 0.70809
vn -0.67399 -0.21060 0.70809
vn -0.68042 0.42761 -0.59512
vn -0.68042 0.42761 -0.59512
vn -0.68042 0.42761 -0.59512
vn -0.03120 0.47659 -0.87857
vn -0.03120 0.47659 -0.87857
vn -0.03120 0.47659 -0.87857
vn 0.70236 0.09269 -0.70576
vn 0.70236 0.09269 -0.70576
vn 0.70236 0.09269 -0.70576
vn -0.03770 0.07940 -0.99613
vn -0.03770 0.07940 -0.99613
vn -0.03770 0.07940 -0.99613
vn 0.89819 0.43950 0.00940
vn 0.89819 0.43950 0.00940
vn 0.89819 0.43950 0.00940
vn 0.03780 -0.07940 0.99613
vn 0.03780 -0.07940 0.99613
vn 0.03780 -0.07940 0.99613
vn -0.89819 -0.43950 -0.00940
vn -0.89819 -0.43950 -0.00940
vn -0.89819 -0.43950 -0.00940
vn 0.64680 0.38200 -0.66010
vn 0.64680 0.38200 -0.66010
vn 0.64680 0.38200 -0.66010
vn 0.69157 0.27339 0.66857
vn 0.69157 0.27339 0.66857
vn 0.69157 0.27339 0.66857
vn -0.64680 -0.38200 0.66010
vn -0.64680 -0.38200 0.66010
vn -0.64680 -0.38200 0.66010
vn -0.45951 -0.88541 -0.07000
vn -0.45951 -0.88541 -0.07000
vn -0.45951 -0.88541 -0.07000
vn 0.75384 -0.04160 0.65574
vn 0.75384 -0.04160 0.65574
vn 0.75384 -0.04160 0.65574
vn -0.71141 -0.04530 0.70131
vn -0.71141 -0.04530 0.70131
vn -0.71141 -0.04530 0.70131
vn -0.76217 0.08720 -0.64148
vn -0.76217 0.08720 -0.64148
vn -0.76217 0.08720 -0.64148
vn -0.03760 0.09810 -0.99447
vn -0.03760 0.09810 -0.99447
vn -0.03760 0.09810 -0.99447
vn 0.99880 0.03500 -0.03430
vn 0.99880 0.03500 -0.03430
vn 0.99880 0.03500 -0.03430
vn 0.03760 -0.09810 0.99447
vn 0.03760 -0.09810 0.99447
vn 0.03760 -0.09810 0.99447
vn -0.99636 0.07250 0.04480
vn -0.99636 0.07250 0.04480
vn -0.99636 0.07250 0.04480
vn 0.18069 0.30309 -0.93567
vn 0.18069 0.30309 -0.93567
vn 0.18069 0.30309 -0.93567
vn 0.46450 0.62819 -0.62419
vn 0.46450 0.62819 -0.62419
vn 0.46450 0.62819 -0.62419
vn 0.27610 0.74780 0.60380
vn 0.27610 0.74780 0.60380
vn 0.27610 0.74780 0.60380
vn -0.46450 -0.62819 0.62419
vn -0.46450 -0.62819 0.62419
vn -0.46450 -0.62819 0.62419
vn -0.27610 -0.74780 -0.60380
vn -0.27610 -0.74780 -0.60380
vn -0.27610 -0.74780 -0.60380
vn 0.08730 -0.21080 -0.97362
vn 0.08730 -0.21080 -0.97362
vn 0.08730 -0.21080 -0.97362
vn 0.45951 0.88541 0.07000
vn 0.45951 0.88541 0.07000
vn 0.45951 0.88541 0.07000
vn -0.08730 0.21080 0.97362
vn -0.08730 0.21080 0.97362
vn -0.08730 0.21080 0.97362
vn -0.62840 0.66699 -0.40030
vn -0.62840 0.66699 -0.40030
vn -0.62840 0.66699 -0.40030
vn -0.62840 0.66699 -0.40030
vn -0.62840 0.66699 -0.40030
vn -0.62840 0.66699 -0.40030
vn -0.62840 0.66699 -0.40030
vn -0.62840 0.66699 -0.40030
vn -0.62840 0.66699 -0.40030
vn -0.62840 0.66699 -0.40030
vn -0.62840 0.66699 -0.40030
vn -0.62840 0.66699 -0.40030
vn -0.62840 0.66699 -0.40030
vn -0.62840 0.66699 -0.40030
vn -0.62840 0.66699 -0.40030
vn 0.78538 0.37709 0.49089
vn 0.78538 0.37709 0.49089
vn 0.78538 0.37709 0.49089
vn -0.23161 -0.26461 0.93613
vn -0.23161 -0.26461 0.93613
vn -0.23161 -0.26461 0.93613
vn -0.84518 -0.06180 -0.53089
vn -0.84518 -0.06180 -0.53089
vn -0.84518 -0.06180 -0.53089
vn 0.84963 0.43511 -0.29801
vn 0.84963 0.43511 -0.29801
vn 0.84963 0.43511 -0.29801
vn 0.31902 0.15281 0.93535
vn 0.31902 0.15281 0.93535
vn 0.31902 0.15281 0.93535
vn -0.77689 -0.52279 0.35090
vn -0.77689 -0.52279 0.35090
vn -0.77689 -0.52279 0.35090
vn -0.49691 0.16840 -0.85131
vn -0.49691 0.16840 -0.85131
vn -0.49691 0.16840 -0.85131
f 1/1/1 2/2/2 3/3/3
f 4/4/4 5/5/5 6/6/6
f 7/7/7 8/8/8 9/9/9
f 10/10/10 11/11/11 12/12/12
f 13/13/13 14/14/14 15/15/15
f 16/16/16 17/17/17 18/18/18
f 19/19/19 20/20/20 21/21/21
f 22/22/22 23/23/23 24/24/24
f 25/25/25 26/26/26 27/27/27
f 28/28/28 29/29/29 30/30/30
f 31/31/31 32/32/32 33/33/33
f 34/34/34 35/35/35 36/36/36
f 37/37/37 38/38/38 39/39/39
f 40/40/40 41/41/41 42/42/42
f 43/43/43 44/44/44 45/45/45
f 46/46/46 47/47/47 48/48/48
f 49/49/49 50/50/50 51/51/51
f 52/52/52 53/53/53 54/54/54
f 55/55/55 56/56/56 57/57/57
f 58/58/58 59/59/59 60/60/60
f 61/61/61 62/62/62 63/63/63
f 64/64/64 65/65/65 66/66/66
f 67/67/67 68/68/68 69/69/69
f 70/70/70 71/71/71 72/72/72
f 73/73/73 74/74/74 75/75/75
f 76/76/76 77/77/77 78/78/78
f 79/79/79 80/80/80 81/81/81
f 82/82/82 83/83/83 84/84/84
f 85/85/85 86/86/86 87/87/87
f 88/88/88 89/89/89 90/90/90
f 91/91/91 92/92/92 93/93/93
f 94/94/94 95/95/95 96/96/96
f 97/97/97 98/98/98 99/99/99
f 100/100/100 101/101/101 102/102/102
f 103/103/103 104/104/104 105/105/105
f 106/106/106 107/107/107 108/108/108
f 109/109/109 110/110/110 111/111/111
f 112/112/112 113/113/113 114/114/114
f 115/115/115 116/116/116 117/117/117
f 118/118/118 119/119/119 120/120/120
f 121/121/121 122/122/122 123/123/123
f 124/124/124 125/125/125 126/126/126
f 127/127/127 128/128/128 129/129/129
f 130/130/130 131/131/131 132/132/132
f 133/133/133 134/134/134 135/135/135
f 136/136/136 137/137/137 138/138/138
f 139/139/139 140/140/140 141/141/141
f 142/142/142 143/143/143 144/144/144
f 145/145/145 146/146/146 147/147/147
f 148/148/148 149/149/149 150/150/150
f 151/151/151 152/152/152 153/153/153
f 154/154/154 155/155/155 156/156/156
f 157/157/157 158/158/158 159/159/159
f 160/160/160 161/161/161 162/162/162
f 163/163/163 164/164/164 165/165/165
f 166/166/166 167/167/167 168/168/168
f 169/169/169 170/170/170 171/171/171
f 172/172/172 173/173/173 174/174/174
f 175/175/175 176/176/176 177/177/177
f 178/178/178 179/179/179 180/180/180
f 181/181/181 182/182/182 183/183/183
f 184/184/184 185/185/185 186/186/186
f 187/187/187 188/188/188 189/189/189
f 190/190/190 191/191/191 192/192/192
f 193/193/193 194/194/194 195/195/195
f 196/196/196 197/197/197 198/198/198
f 199/199/199 200/200/200 201/201/201
f 202/202/202 203/203/203 204/204/204
f 205/205/205 206/206/206 207/207/207
f 208/208/208 209/209/209 210/210/210
f 211/211/211 212/212/212 213/213/213
f 214/214/214 215/215/215 216/216/216
f 217/217/217 218/218/218 219/219/219
f 220/220/220 221/221/221 222/222/222
f 223/223/223 224/224/224 225/225/225
f 226/226/226 227/227/227 228/228/228
f 229/229/229 230/230/230 231/231/231
f 232/232/232 233/233/233 234/234/234
f 235/235/235 236/236/236 237/237/237
f 238/238/238 239/239/239 240/240/240
f 241/241/241 242/242/242 243/243/243
f 244/244/244 245/245/245 246/246/246
f 247/247/247 248/248/248 249/249/249
f 250/250/250 251/251/251 252/252/252
f 253/253/253 254/254/254 255/255/255
f 256/256/256 257/257/257 258/258/258
f 259/259/259 260/260/260 261/261/261
f 262/262/262 263/263/263 264/264/264
f 265/265/265 266/266/266 267/267/267
f 268/268/268 269/269/269 270/270/270
f 271/271/271 272/272/272 273/273/273
f 274/274/274 275/275/275 276/276/276
f 277/277/277 278/278/278 279/279/279
f 280/280/280 281/281/281 282/282/282
f 283/283/283 284/284/284 285/285/285
f 286/286/286 287/287/287 288/288/288
f 289/289/289 290/290/290 291/291/291
f 292/292/292 293/293/293 294/294/294
f 295/295/295 296/296/296 297/297/297
f 298/298/298 299/299/299 300/300/300
f 301/301/301 302/302/302 303/303/303
f 304/304/304 305/305/305 306/306/306
f 307/307/307 308/308/308 309/309/309
f 310/310/310 311/311/311 312/312/312
f 313/313/313 314/314/314 315/315/315
f 316/316/316 317/317/317 318/318/318
f 319/319/319 320/320/320 321/321/321
f 322/322/322 323/323/323 324/324/324
f 325/325/325 326/326/326 327/327/327
f 328/328/328 329/329/329 330/330/330
f 331/331/331 332/332/332 333/333/333
f 334/334/334 335/335/335 336/336/336
f 337/337/337 338/338/338 339/339/339
f 340/340/340 341/341/341 342/342/342
f 343/343/343 344/344/344 345/345/345
f 346/346/346 347/347/347 348/348/348
f 349/349/349 350/350/350 351/351/351
f 352/352/352 353/353/353 354/354/354
f 355/355/355 356/356/356 357/357/357
f 358/358/358 359/359/359 360/360/360
f 361/361/361 362/362/362 363/363/363
f 364/364/364 365/365/365 366/366/366
f 367/367/367 368/368/368 369/369/369
f 370/370/370 371/371/371 372/372/372
f 373/373/373 374/374/374 375/375/375
f 376/376/376 377/377/377 378/378/378
f 379/379/379 380/380/380 381/381/381
f 382/382/382 383/383/383 384/384/384
f 385/385/385 386/386/386 387/387/387
f 388/388/388 389/389/389 390/390/390
f 391/391/391 392/392/392 393/393/393
f 394/394/394 395/395/395 396/396/396
f 397/397/397 398/398/398 399/399/399
f 400/400/400 401/401/401 402/402/402
f 403/403/403 404/404/404 405/405/405
f 406/406/406 407/407/407 408/408/408
f 409/409/409 410/410/410 411/411/411
f 412/412/412 413/413/413 414/414/414
f 415/415/415 416/416/416 417/417/417
f 418/418/418 419/419/419 420/420/420
f 421/421/421 422/422/422 423/423/423
f 424/424/424 425/425/425 426/426/426
f 427/427/427 428/428/428 429/429/429
f 430/430/430 431/431/431 432/432/432
f 433/433/433 434/434/434 435/435/435
f 436/436/436 437/437/437 438/438/438
f 439/439/439 440/440/440 441/441/441
f 442/442/442 443/443/443 444/444/444
f 445/445/445 446/446/446 447/447/447
f 448/448/448 449/449/449 450/450/450
f 451/451/451 452/452/452 453/453/453
f 454/454/454 455/455/455 456/456/456
f 457/457/457 458/458/458 459/459/459
f 460/460/460 461/461/461 462/462/462
f 463/463/463 464/464/464 465/465/465
f 466/466/466 467/467/467 468/468/468
f 469/469/469 470/470/470 471/471/471
f 472/472/472 473/473/473 474/474/474
f 475/475/475 476/476/476 477/477/477
f 478/478/478 479/479/479 480/480/480
f 481/481/481 482/482/482 483/483/483
f 484/484/484 485/485/485 486/486/486
f 487/487/487 488/488/488 489/489/489
f 490/490/490 491/491/491 492/492/492
f 493/493/493 494/494/494 495/495/495
f 496/496/496 497/497/497 498/498/498
f 499/499/499 500/500/500 501/501/501
f 502/502/502 503/503/503 504/504/504
f 505/505/505 506/506/506 507/507/507
f 508/508/508 509/509/509 510/510/510
f 511/511/511 512/512/512 513/513/513
f 514/514/514 515/515/515 516/516/516
f 517/517/517 518/518/518 519/519/519
f 520/520/520 521/521/521 522/522/522
f 523/523/523 524/524/524 525/525/525
f 526/526/526 527/527/527 528/528/528
f 529/529/529 530/530/530 531/531/531
f 532/532/532 533/533/533 534/534/534
f 535/535/535 536/536/536 537/537/537
f 538/538/538 539/539/539 540/540/540
f 541/541/541 542/542/542 543/543/543
f 544/544/544 545/545/545 546/546/546
f 547/547/547 548/548/548 549/549/549
f 550/550/550 551/551/551 552/552/552
f 553/553/553 554/554/554 555/555/555
f 556/556/556 557/557/557 558/558/558
f 559/559/559 560/560/560 561/561/561
f 562/562/562 563/563/563 564/564/564
f 565/565/565 566/566/566 567/567/567
f 568/568/568 569/569/569 570/570/570
f 571/571/571 572/572/572 573/573/573
f 574/574/574 575/575/575 576/576/576
f 577/577/577 578/578/578 579/579/579
f 580/580/580 581/581/581 582/582/582
f 583/583/583 584/584/584 585/585/585
f 586/586/586 587/587/587 588/588/588
f 589/589/589 590/590/590 591/591/591
f 592/592/592 593/593/593 594/594/594
f 595/595/595 596/596/596 597/597/597
f 598/598/598 599/599/599 600/600/600
f 601/601/601 602/602/602 603/603/603
f 604/604/604 605/605/605 606/606/606
f 607/607/607 608/608/608 609/609/609
f 610/610/610 611/611/611 612/612/612
f 613/613/613 614/614/614 615/615/615
f 616/616/616 617/617/617 618/618/618
f 619/619/619 620/620/620 621/621/621
f 622/622/622 623/623/623 624/624/624
f 625/625/625 626/626/626 627/627/627
f 628/628/628 629/629/629 630/630/630
f 631/631/631 632/632/632 633/633/633
f 634/634/634 635/635/635 636/636/636
f 637/637/637 638/638/638 639/639/639
f 640/640/640 641/641/641 642/642/642
f 643/643/643 644/644/644 645/645/645
f 646/646/646 647/647/647 648/648/648
f 649/649/649 650/650/650 651/651/651
f 652/652/652 653/653/653 654/654/654
f 655/655/655 656/656/656 657/657/657
f 658/658/658 659/659/659 660/660/660
f 661/661/661 662/662/662 663/663/663
f 664/664/664 665/665/665 666/666/666
f 667/667/667 668/668/668 669/669/669
f 670/670/670 671/671/671 672/672/672
f 673/673/673 674/674/674 675/675/675
f 676/676/676 677/677/677 678/678/678
f 679/679/679 680/680/680 681/681/681
f 682/682/682 683/683/683 684/684/684
f 685/685/685 686/686/686 687/687/687
f 688/688/688 689/689/689 690/690/690
f 691/691/691 692/692/692 693/693/693
f 694/694/694 695/695/695 696/696/696
f 697/697/697 698/698/698 699/699/699
f 700/700/700 701/701/701 702/702/702
f 703/703/703 704/704/704 705/705/705
f 706/706/706 707/707/707 708/708/708
f 709/709/709 710/710/710 711/711/711
f 712/712/712 713/713/713 714/714/714
f 715/715/715 716/716/716 717/717/717
f 718/718/718 719/719/719 720/720/720
f 721/721/721 722/722/722 723/723/723
f 724/724/724 725/725/725 726/726/726
f 727/727/727 728/728/728 729/729/729
f 730/730/730 731/731/731 732/732/732
f 733/733/733 734/734/734 735/735/735
f 736/736/736 737/737/737 738/738/738
f 739/739/739 740/740/740 741/741/741
f 742/742/742 743/743/743 744/744/744
f 745/745/745 746/746/746 747/747/747
f 748/748/748 749/749/749 750/750/750
f 751/751/751 752/752/752 753/753/753
f 754/754/754 755/755/755 756/756/756
f 757/757/757 758/758/758 759/759/759
f 760/760/760 761/761/761 762/762/762
f 763/763/763 764/764/764 765/765/765
f 766/766/766 767/767/767 768/768/768
f 769/769/769 770/770/770 771/771/771
f 772/772/772 773/773/773 774/774/774
f 775/775/775 776/776/776 777/777/777
f 778/778/778 779/779/779 780/780/780
f 781/781/781 782/782/782 783/783/783
f 784/784/784 785/785/785 786/786/786
f 787/787/787 788/788/788 789/789/789
f 790/790/790 791/791/791 792/792/792
f 793/793/793 794/794/794 795/795/795
f 796/796/796 797/797/797 798/798/798
f 799/799/799 800/800/800 801/801/801
f 802/802/802 803/803/803 804/804/804
f 805/805/805 806/806/806 807/807/807
f 808/808/808 809/809/809 810/810/810
f 811/811/811 812/812/812 813/813/813
f 814/814/814 815/815/815 816/816/816
f 817/817/817 818/818/818 819/819/819
f 820/820/820 821/821/821 822/822/822
f 823/823/823 824/824/824 825/825/825
f 826/826/826 827/827/827 828/828/828
f 829/829/829 830/830/830 831/831/831
f 832/832/832 833/833/833 834/834/834
f 835/835/835 836/836/836 837/837/837
f 838/838/838 839/839/839 840/840/840
f 841/841/841 842/842/842 843/843/843
f 844/844/844 845/845/845 846/846/846
f 847/847/847 848/848/848 849/849/849
f 850/850/850 851/851/851 852/852/852
f 853/853/853 854/854/854 855/855/855
f 856/856/856 857/857/857 858/858/858
f 859/859/859 860/860/860 861/861/861
f 862/862/862 863/863/863 864/864/864
f 865/865/865 866/866/866 867/867/867
f 868/868/868 869/869/869 870/870/870
f 871/871/871 872/872/872 873/873/873
f 874/874/874 875/875/875 876/876/876
f 877/877/877 878/878/878 879/879/879
f 880/880/880 881/881/881 882/882/882
f 883/883/883 884/884/884 885/885/885
f 886/886/886 887/887/887 888/888/888
f 889/889/889 890/890/890 891/891/891
f 892/892/892 893/893/893 894/894/894
f 895/895/895 896/896/896 897/897/897
f 898/898/898 899/899/899 900/900/900
f 901/901/901 902/902/902 903/903/903
f 904/904/904 905/905/905 906/906/906
f 907/907/907 908/908/908 909/909/909
f 910/910/910 911/911/911 912/912/912
f 913/913/913 914/914/914 915/915/915
f 916/916/916 917/917/917 918/918/918
f 919/919/919 920/920/920 921/921/921
f 922/922/922 923/923/923 924/924/924
f 925/925/925 926/926/926 927/927/927
f 928/928/928 929/929/929 930/930/930
f 931/931/931 932/932/932 933/933/933
f 934/934/934 935/935/935 936/936/936
f 937/937/937 938/938/938 939/939/939
f 940/940/940 941/941/941 942/942/942
f 943/943/943 944/944/944 945/945/945
f 946/946/946 947/947/947 948/948/948
f 949/949/949 950/950/950 951/951/951
f 952/952/952 953/953/953 954/954/954
f 955/955/955 956/956/956 957/957/957
f 958/958/958 959/959/959 960/960/960
f 961/961/961 962/962/962 963/963/963
f 964/964/964 965/965/965 966/966/966
f 967/967/967 968/968/968 969/969/969
f 970/970/970 971/971/971 972/972/972
f 973/973/973 974/974/974 975/975/975
f 976/976/976 977/977/977 978/978/978
f 979/979/979 980/980/980 981/981/981
f 982/982/982 983/983/983 984/984/984
f 985/985/985 986/986/986 987/987/987
f 988/988/988 989/989/989 990/990/990
f 991/991/991 992/992/992 993/993/993
f 994/994/994 995/995/995 996/996/996
f 997/997/997 998/998/998 999/999/999
f 1000/1000/1000 1001/1001/1001 1002/1002/1002
f 1003/1003/1003 1004/1004/1004 1005/1005/1005
f 1006/1006/1006 1007/1007/1007 1008/1008/1008
f 1009/1009/1009 1010/1010/1010 1011/1011/1011
f 1012/1012/1012 1013/1013/1013 1014/1014/1014
f 1015/1015/1015 1016/1016/1016 1017/1017/1017
f 1018/1018/1018 1019/1019/1019 1020/1020/1020
f 1021/1021/1021 1022/1022/1022 1023/1023/1023
f 1024/1024/1024 1025/1025/1025 1026/1026/1026
f 1027/1027/1027 1028/1028/1028 1029/1029/1029
f 1030/1030/1030 1031/1031/1031 1032/1032/1032
f 1033/1033/1033 1034/1034/1034 1035/1035/1035
f 1036/1036/1036 1037/1037/1037 1038/1038/1038
f 1039/1039/1039 1040/1040/1040 1041/1041/1041
f 1042/1042/1042 1043/1043/1043 1044/1044/1044
f 1045/1045/1045 1046/1046/1046 1047/1047/1047
f 1048/1048/1048 1049/1049/1049 1050/1050/1050
f 1051/1051/1051 1052/1052/1052 1053/1053/1053
f 1054/1054/1054 1055/1055/1055 1056/1056/1056
f 1057/1057/1057 1058/1058/1058 1059/1059/1059
f 1060/1060/1060 1061/1061/1061 1062/1062/1062
f 1063/1063/1063 1064/1064/1064 1065/1065/1065
f 1066/1066/1066 1067/1067/1067 1068/1068/1068
f 1069/1069/1069 1070/1070/1070 1071/1071/1071
f 1072/1072/1072 1073/1073/1073 1074/1074/1074
f 1075/1075/1075 1076/1076/1076 1077/1077/1077
f 1078/1078/1078 1079/1079/1079 1080/1080/1080
f 1081/1081/1081 1082/1082/1082 1083/1083/1083
f 1084/1084/1084 1085/1085/1085 1086/1086/1086
f 1087/1087/1087 1088/1088/1088 1089/1089/1089
f 1090/1090/1090 1091/1091/1091 1092/1092/1092
f 1093/1093/1093 1094/1094/1094 1095/1095/1095
f 1096/1096/1096 1097/1097/1097 1098/1098/1098
f 1099/1099/1099 1100/1100/1100 1101/1101/1101
f 1102/1102/1102 1103/1103/1103 1104/1104/1104
