# STALKER Armor converted geometry (MC model units, pivot-relative)
v 2.30000 -0.30000 2.30000
v 2.30000 12.30000 -2.30000
v 2.30000 12.30000 2.30000
v 2.30000 -0.30000 -2.30000
v -2.11012 12.30000 -2.30000
v 2.30000 12.30000 -2.30000
v -2.11012 -0.30000 -2.30000
v -2.11012 12.30000 2.30000
v -2.11012 12.30000 -2.30000
v -2.11012 -0.30000 2.30000
v 2.30000 12.30000 2.30000
v -2.11012 12.30000 2.30000
v -2.11012 12.30000 -2.30000
v 2.30000 12.30000 2.30000
v 2.30000 12.30000 -2.30000
v 2.30000 -0.30000 -2.30000
v -2.11012 -0.30000 2.30000
v -2.11012 -0.30000 -2.30000
v -3.74260 0.15076 -1.08968
v -4.15200 4.60717 1.08968
v -4.15200 4.60717 -1.08968
v -3.46087 -0.07808 1.36497
v -2.35495 5.00921 1.36497
v -3.91627 4.87912 1.36497
v -1.89956 0.05201 1.36497
v -2.35495 5.00921 -1.36497
v -2.35495 5.00921 1.36497
v -1.89956 0.05201 -1.36497
v -3.91627 4.87912 -1.36497
v -2.35495 5.00921 -1.36497
v -2.35495 5.00921 1.36497
v -3.91627 4.87912 -1.36497
v -3.91627 4.87912 1.36497
v -3.46087 -0.07808 1.36497
v -1.89956 0.05201 -1.36497
v -1.89956 0.05201 1.36497
v -4.15200 4.60717 1.08968
v -3.91627 4.87912 -1.36497
v -4.15200 4.60717 -1.08968
v -4.15200 4.60717 -1.08968
v -3.46087 -0.07808 -1.36497
v -3.74260 0.15076 -1.08968
v -3.74260 0.15076 -1.08968
v -3.46087 -0.07808 1.36497
v -3.74260 0.15076 1.08968
v -4.15200 4.60717 1.08968
v -3.46087 -0.07808 1.36497
v -3.91627 4.87912 1.36497
v 2.30000 -0.30000 2.30000
v 2.30000 -0.30000 -2.30000
v 2.30000 12.30000 -2.30000
v 2.30000 -0.30000 -2.30000
v -2.11012 -0.30000 -2.30000
v -2.11012 12.30000 -2.30000
v -2.11012 -0.30000 -2.30000
v -2.11012 -0.30000 2.30000
v -2.11012 12.30000 2.30000
v -2.11012 -0.30000 2.30000
v 2.30000 -0.30000 2.30000
v 2.30000 12.30000 2.30000
v -2.11012 12.30000 -2.30000
v -2.11012 12.30000 2.30000
v 2.30000 12.30000 2.30000
v 2.30000 -0.30000 -2.30000
v 2.30000 -0.30000 2.30000
v -2.11012 -0.30000 2.30000
v -3.74260 0.15076 -1.08968
v -3.74260 0.15076 1.08968
v -4.15200 4.60717 1.08968
v -3.46087 -0.07808 1.36497
v -1.89956 0.05201 1.36497
v -2.35495 5.00921 1.36497
v -1.89956 0.05201 1.36497
v -1.89956 0.05201 -1.36497
v -2.35495 5.00921 -1.36497
v -1.89956 0.05201 -1.36497
v -3.46087 -0.07808 -1.36497
v -3.91627 4.87912 -1.36497
v -2.35495 5.00921 1.36497
v -2.35495 5.00921 -1.36497
v -3.91627 4.87912 -1.36497
v -3.46087 -0.07808 1.36497
v -3.46087 -0.07808 -1.36497
v -1.89956 0.05201 -1.36497
v -4.15200 4.60717 1.08968
v -3.91627 4.87912 1.36497
v -3.91627 4.87912 -1.36497
v -4.15200 4.60717 -1.08968
v -3.91627 4.87912 -1.36497
v -3.46087 -0.07808 -1.36497
v -3.74260 0.15076 -1.08968
v -3.46087 -0.07808 -1.36497
v -3.46087 -0.07808 1.36497
v -4.15200 4.60717 1.08968
v -3.74260 0.15076 1.08968
v -3.46087 -0.07808 1.36497
vt 0.40084 0.34953
vt 0.29601 0.00156
vt 0.40073 0.00150
vt 0.73372 0.34412
vt 0.61935 0.00163
vt 0.73682 0.00270
vt 0.49416 0.34281
vt 0.61850 0.00338
vt 0.49725 0.00198
vt 0.51532 0.34137
vt 0.38976 0.00331
vt 0.51532 0.00331
vt 0.74319 0.00810
vt 0.68702 0.06427
vt 0.68702 0.00810
vt 0.73554 0.01313
vt 0.68604 0.06263
vt 0.68604 0.01313
vt 0.40071 0.40260
vt 0.51511 0.48101
vt 0.51511 0.40260
vt 0.35101 0.47933
vt 0.32747 0.40087
vt 0.35101 0.40087
vt 0.30392 0.60090
vt 0.00587 0.00587
vt 0.30392 0.00587
vt 0.35090 0.47972
vt 0.32736 0.40126
vt 0.35090 0.40126
vt 0.37025 0.40016
vt 0.31976 0.48447
vt 0.31976 0.40016
vt 0.32022 0.48499
vt 0.37226 0.39810
vt 0.37226 0.48499
vt 0.51511 0.48101
vt 0.52154 0.39269
vt 0.51511 0.40260
vt 0.51511 0.40260
vt 0.39429 0.39269
vt 0.40071 0.40260
vt 0.40071 0.40260
vt 0.39429 0.49091
vt 0.40071 0.48101
vt 0.51511 0.48101
vt 0.39429 0.49091
vt 0.52154 0.49091
vt 0.40084 0.34953
vt 0.29611 0.34959
vt 0.29601 0.00156
vt 0.73372 0.34412
vt 0.61625 0.34305
vt 0.61935 0.00163
vt 0.49416 0.34281
vt 0.61540 0.34420
vt 0.61850 0.00338
vt 0.51532 0.34137
vt 0.38976 0.34137
vt 0.38976 0.00331
vt 0.74319 0.00810
vt 0.74319 0.06427
vt 0.68702 0.06427
vt 0.73554 0.01313
vt 0.73554 0.06263
vt 0.68604 0.06263
vt 0.40071 0.40260
vt 0.40071 0.48101
vt 0.51511 0.48101
vt 0.35101 0.47933
vt 0.32747 0.47933
vt 0.32747 0.40087
vt 0.30392 0.60090
vt 0.00587 0.60090
vt 0.00587 0.00587
vt 0.35090 0.47972
vt 0.32736 0.47972
vt 0.32736 0.40126
vt 0.37025 0.40016
vt 0.37025 0.48447
vt 0.31976 0.48447
vt 0.32022 0.48499
vt 0.32022 0.39810
vt 0.37226 0.39810
vt 0.51511 0.48101
vt 0.52154 0.49091
vt 0.52154 0.39269
vt 0.51511 0.40260
vt 0.52154 0.39269
vt 0.39429 0.39269
vt 0.40071 0.40260
vt 0.39429 0.39269
vt 0.39429 0.49091
vt 0.51511 0.48101
vt 0.40071 0.48101
vt 0.39429 0.49091
vn 1.00000 -0.00000 0.00000
vn 1.00000 -0.00000 0.00000
vn 1.00000 -0.00000 0.00000
vn 0.00000 -0.00000 -1.00000
vn 0.00000 -0.00000 -1.00000
vn 0.00000 -0.00000 -1.00000
vn -1.00000 -0.00000 -0.00000
vn -1.00000 -0.00000 -0.00000
vn -1.00000 -0.00000 -0.00000
vn 0.00000 -0.00000 1.00000
vn 0.00000 -0.00000 1.00000
vn 0.00000 -0.00000 1.00000
vn 0.00000 1.00000 -0.00000
vn 0.00000 1.00000 -0.00000
vn 0.00000 1.00000 -0.00000
vn 0.00000 -1.00000 0.00000
vn 0.00000 -1.00000 0.00000
vn 0.00000 -1.00000 0.00000
vn -0.99619 -0.08720 -0.00000
vn -0.99619 -0.08720 -0.00000
vn -0.99619 -0.08720 -0.00000
vn 0.00000 -0.00000 1.00000
vn 0.00000 -0.00000 1.00000
vn 0.00000 -0.00000 1.00000
vn 0.99619 0.08720 -0.00000
vn 0.99619 0.08720 -0.00000
vn 0.99619 0.08720 -0.00000
vn 0.00000 -0.00000 -1.00000
vn 0.00000 -0.00000 -1.00000
vn 0.00000 -0.00000 -1.00000
vn -0.08720 0.99619 -0.00000
vn -0.08720 0.99619 -0.00000
vn -0.08720 0.99619 -0.00000
vn 0.08720 -0.99619 -0.00000
vn 0.08720 -0.99619 -0.00000
vn 0.08720 -0.99619 -0.00000
vn -0.77120 0.63660 -0.00000
vn -0.77120 0.63660 -0.00000
vn -0.77120 0.63660 -0.00000
vn -0.71003 -0.06210 -0.70143
vn -0.71003 -0.06210 -0.70143
vn -0.71003 -0.06210 -0.70143
vn -0.64889 -0.76088 -0.00000
vn -0.64889 -0.76088 -0.00000
vn -0.64889 -0.76088 -0.00000
vn -0.71003 -0.06210 0.70143
vn -0.71003 -0.06210 0.70143
vn -0.71003 -0.06210 0.70143
vn 1.00000 -0.00000 0.00000
vn 1.00000 -0.00000 0.00000
vn 1.00000 -0.00000 0.00000
vn 0.00000 -0.00000 -1.00000
vn 0.00000 -0.00000 -1.00000
vn 0.00000 -0.00000 -1.00000
vn -1.00000 -0.00000 -0.00000
vn -1.00000 -0.00000 -0.00000
vn -1.00000 -0.00000 -0.00000
vn 0.00000 -0.00000 1.00000
vn 0.00000 -0.00000 1.00000
vn 0.00000 -0.00000 1.00000
vn 0.00000 1.00000 -0.00000
vn 0.00000 1.00000 -0.00000
vn 0.00000 1.00000 -0.00000
vn 0.00000 -1.00000 0.00000
vn 0.00000 -1.00000 0.00000
vn 0.00000 -1.00000 0.00000
vn -0.99619 -0.08720 -0.00000
vn -0.99619 -0.08720 -0.00000
vn -0.99619 -0.08720 -0.00000
vn 0.00000 -0.00000 1.00000
vn 0.00000 -0.00000 1.00000
vn 0.00000 -0.00000 1.00000
vn 0.99619 0.08720 -0.00000
vn 0.99619 0.08720 -0.00000
vn 0.99619 0.08720 -0.00000
vn 0.00000 -0.00000 -1.00000
vn 0.00000 -0.00000 -1.00000
vn 0.00000 -0.00000 -1.00000
vn -0.08720 0.99619 -0.00000
vn -0.08720 0.99619 -0.00000
vn -0.08720 0.99619 -0.00000
vn 0.08720 -0.99619 -0.00000
vn 0.08720 -0.99619 -0.00000
vn 0.08720 -0.99619 -0.00000
vn -0.77120 0.63660 -0.00000
vn -0.77120 0.63660 -0.00000
vn -0.77120 0.63660 -0.00000
vn -0.71003 -0.06210 -0.70143
vn -0.71003 -0.06210 -0.70143
vn -0.71003 -0.06210 -0.70143
vn -0.64889 -0.76088 -0.00000
vn -0.64889 -0.76088 -0.00000
vn -0.64889 -0.76088 -0.00000
vn -0.71003 -0.06210 0.70143
vn -0.71003 -0.06210 0.70143
vn -0.71003 -0.06210 0.70143
f 1/1/1 2/2/2 3/3/3
f 4/4/4 5/5/5 6/6/6
f 7/7/7 8/8/8 9/9/9
f 10/10/10 11/11/11 12/12/12
f 13/13/13 14/14/14 15/15/15
f 16/16/16 17/17/17 18/18/18
f 19/19/19 20/20/20 21/21/21
f 22/22/22 23/23/23 24/24/24
f 25/25/25 26/26/26 27/27/27
f 28/28/28 29/29/29 30/30/30
f 31/31/31 32/32/32 33/33/33
f 34/34/34 35/35/35 36/36/36
f 37/37/37 38/38/38 39/39/39
f 40/40/40 41/41/41 42/42/42
f 43/43/43 44/44/44 45/45/45
f 46/46/46 47/47/47 48/48/48
f 49/49/49 50/50/50 51/51/51
f 52/52/52 53/53/53 54/54/54
f 55/55/55 56/56/56 57/57/57
f 58/58/58 59/59/59 60/60/60
f 61/61/61 62/62/62 63/63/63
f 64/64/64 65/65/65 66/66/66
f 67/67/67 68/68/68 69/69/69
f 70/70/70 71/71/71 72/72/72
f 73/73/73 74/74/74 75/75/75
f 76/76/76 77/77/77 78/78/78
f 79/79/79 80/80/80 81/81/81
f 82/82/82 83/83/83 84/84/84
f 85/85/85 86/86/86 87/87/87
f 88/88/88 89/89/89 90/90/90
f 91/91/91 92/92/92 93/93/93
f 94/94/94 95/95/95 96/96/96
