# STALKER Armor converted geometry (MC model units, pivot-relative)
v -4.69028 -8.69257 -4.60711
v -4.69028 0.75000 -3.57243
v -4.69028 0.75000 -4.60711
v -4.69028 -8.69257 4.75000
v 0.00000 0.75000 4.75000
v -4.69028 0.75000 4.75000
v -5.09604 -9.06846 -0.02974
v -5.09604 0.48142 4.22060
v -5.09604 0.48142 -0.02974
v -4.69028 -8.69257 -3.57243
v -5.09604 0.48142 -3.16908
v -4.69028 0.75000 -3.57243
v -4.69028 0.75000 0.07145
v -5.09604 0.48142 -3.16908
v -5.09604 0.48142 -0.02974
v 0.00000 0.75000 -3.57243
v -4.69028 0.75000 -4.60711
v -4.69028 0.75000 -3.57243
v 0.00000 0.75000 -3.57243
v -4.69028 0.75000 -3.57243
v -4.69028 0.75000 0.07145
v -4.69028 -8.69257 4.75000
v -5.09604 0.48142 4.22060
v -5.09604 -9.06846 4.22060
v -4.69028 -8.69257 -3.57243
v 0.00000 -9.06846 -3.16908
v -5.09604 -9.06846 -3.16908
v -4.69028 0.75000 0.07145
v -5.09604 0.48142 4.22060
v -4.69028 0.75000 4.75000
v -3.99014 -8.37827 -5.23790
v -4.69028 0.75000 -4.60711
v -3.99014 0.43569 -5.23790
v -3.99014 -8.37827 -5.23790
v 0.00000 -8.69257 -4.60711
v -4.69028 -8.69257 -4.60711
v -3.00732 -7.55862 -5.59232
v -3.99014 0.43569 -5.23790
v -3.00732 -0.38395 -5.59232
v -3.00732 -7.55862 -5.59232
v 0.00000 -8.37827 -5.23790
v -3.99014 -8.37827 -5.23790
v 0.00000 -9.06846 4.22060
v -5.09604 -9.06846 4.22060
v -5.09604 -9.06846 -0.02974
v 0.00000 0.75000 -4.60711
v -3.99014 0.43569 -5.23790
v -4.69028 0.75000 -4.60711
v 0.00000 0.43569 -5.23790
v -3.00732 -0.38395 -5.59232
v -3.99014 0.43569 -5.23790
v 0.00000 -7.55862 -5.59232
v -3.00732 -0.38395 -5.59232
v 0.00000 -0.38395 -5.59232
v 0.00000 -8.69257 -3.57243
v -4.69028 -8.69257 -4.60711
v 0.00000 -8.69257 -4.60711
v 0.00000 -9.06846 4.22060
v -4.69028 -8.69257 4.75000
v -5.09604 -9.06846 4.22060
v 4.69028 0.75000 -3.57243
v 4.69028 -8.69257 -4.60711
v 4.69028 0.75000 -4.60711
v 0.00000 0.75000 4.75000
v 4.69028 -8.69257 4.75000
v 4.69028 0.75000 4.75000
v 5.09604 0.48142 -0.02974
v 5.09604 -9.06846 4.22060
v 5.09604 -9.06846 -0.02974
v 5.09604 0.48142 -3.16908
v 4.69028 -8.69257 -3.57243
v 4.69028 0.75000 -3.57243
v 4.69028 0.75000 0.07145
v 5.09604 0.48142 -3.16908
v 4.69028 0.75000 -3.57243
v 4.69028 0.75000 -4.60711
v 0.00000 0.75000 -3.57243
v 4.69028 0.75000 -3.57243
v 4.69028 0.75000 0.07145
v 0.00000 0.75000 -3.57243
v 0.00000 0.75000 4.75000
v 4.69028 -8.69257 4.75000
v 5.09604 0.48142 4.22060
v 4.69028 0.75000 4.75000
v 4.69028 -8.69257 -3.57243
v 0.00000 -9.06846 -3.16908
v 0.00000 -8.69257 -3.57243
v 5.09604 0.48142 4.22060
v 4.69028 0.75000 0.07145
v 4.69028 0.75000 4.75000
v 4.69028 0.75000 -4.60711
v 3.99014 -8.37827 -5.23790
v 3.99014 0.43569 -5.23790
v 3.99014 -8.37827 -5.23790
v 0.00000 -8.69257 -4.60711
v 0.00000 -8.37827 -5.23790
v 3.99014 0.43569 -5.23790
v 3.00732 -7.55862 -5.59232
v 3.00732 -0.38395 -5.59232
v 3.00732 -7.55862 -5.59232
v 0.00000 -8.37827 -5.23790
v 0.00000 -7.55862 -5.59232
v 5.09604 -9.06846 -0.02974
v 5.09604 -9.06846 4.22060
v 0.00000 -9.06846 4.22060
v 0.00000 0.75000 -4.60711
v 3.99014 0.43569 -5.23790
v 0.00000 0.43569 -5.23790
v 0.00000 0.43569 -5.23790
v 3.00732 -0.38395 -5.59232
v 0.00000 -0.38395 -5.59232
v 3.00732 -0.38395 -5.59232
v 0.00000 -7.55862 -5.59232
v 0.00000 -0.38395 -5.59232
v 4.69028 -8.69257 -4.60711
v 0.00000 -8.69257 -3.57243
v 0.00000 -8.69257 -4.60711
v 0.00000 -9.06846 4.22060
v 4.69028 -8.69257 4.75000
v 0.00000 -8.69257 4.75000
v -4.69028 -8.69257 -4.60711
v -4.69028 -8.69257 -3.57243
v -4.69028 0.75000 -3.57243
v -4.69028 -8.69257 4.75000
v 0.00000 -8.69257 4.75000
v 0.00000 0.75000 4.75000
v -5.09604 0.48142 -0.02974
v -5.09604 0.48142 -3.16908
v -5.09604 -9.06846 -3.16908
v -5.09604 -9.06846 -0.02974
v -5.09604 -9.06846 4.22060
v -5.09604 0.48142 4.22060
v -5.09604 0.48142 -0.02974
v -5.09604 -9.06846 -3.16908
v -5.09604 -9.06846 -0.02974
v -4.69028 -8.69257 -3.57243
v -5.09604 -9.06846 -3.16908
v -5.09604 0.48142 -3.16908
v -4.69028 0.75000 0.07145
v -4.69028 0.75000 -3.57243
v -5.09604 0.48142 -3.16908
v 0.00000 0.75000 -3.57243
v 0.00000 0.75000 -4.60711
v -4.69028 0.75000 -4.60711
v -4.69028 0.75000 0.07145
v -4.69028 0.75000 4.75000
v 0.00000 0.75000 4.75000
v 0.00000 0.75000 4.75000
v 0.00000 0.75000 -3.57243
v -4.69028 0.75000 0.07145
v -4.69028 -8.69257 4.75000
v -4.69028 0.75000 4.75000
v -5.09604 0.48142 4.22060
v -4.69028 -8.69257 -3.57243
v 0.00000 -8.69257 -3.57243
v 0.00000 -9.06846 -3.16908
v -4.69028 0.75000 0.07145
v -5.09604 0.48142 -0.02974
v -5.09604 0.48142 4.22060
v -3.99014 -8.37827 -5.23790
v -4.69028 -8.69257 -4.60711
v -4.69028 0.75000 -4.60711
v -3.99014 -8.37827 -5.23790
v 0.00000 -8.37827 -5.23790
v 0.00000 -8.69257 -4.60711
v -3.00732 -7.55862 -5.59232
v -3.99014 -8.37827 -5.23790
v -3.99014 0.43569 -5.23790
v -3.00732 -7.55862 -5.59232
v 0.00000 -7.55862 -5.59232
v 0.00000 -8.37827 -5.23790
v -5.09604 -9.06846 -3.16908
v 0.00000 -9.06846 -3.16908
v -5.09604 -9.06846 -0.02974
v 0.00000 -9.06846 -3.16908
v 0.00000 -9.06846 4.22060
v -5.09604 -9.06846 -0.02974
v 0.00000 0.75000 -4.60711
v 0.00000 0.43569 -5.23790
v -3.99014 0.43569 -5.23790
v 0.00000 0.43569 -5.23790
v 0.00000 -0.38395 -5.59232
v -3.00732 -0.38395 -5.59232
v 0.00000 -7.55862 -5.59232
v -3.00732 -7.55862 -5.59232
v -3.00732 -0.38395 -5.59232
v 0.00000 -8.69257 -3.57243
v -4.69028 -8.69257 -3.57243
v -4.69028 -8.69257 -4.60711
v 0.00000 -9.06846 4.22060
v 0.00000 -8.69257 4.75000
v -4.69028 -8.69257 4.75000
v 4.69028 0.75000 -3.57243
v 4.69028 -8.69257 -3.57243
v 4.69028 -8.69257 -4.60711
v 0.00000 0.75000 4.75000
v 0.00000 -8.69257 4.75000
v 4.69028 -8.69257 4.75000
v 5.09604 -9.06846 -3.16908
v 5.09604 0.48142 -3.16908
v 5.09604 0.48142 -0.02974
v 5.09604 0.48142 -0.02974
v 5.09604 0.48142 4.22060
v 5.09604 -9.06846 4.22060
v 5.09604 -9.06846 -0.02974
v 5.09604 -9.06846 -3.16908
v 5.09604 0.48142 -0.02974
v 5.09604 0.48142 -3.16908
v 5.09604 -9.06846 -3.16908
v 4.69028 -8.69257 -3.57243
v 4.69028 0.75000 0.07145
v 5.09604 0.48142 -0.02974
v 5.09604 0.48142 -3.16908
v 4.69028 0.75000 -4.60711
v 0.00000 0.75000 -4.60711
v 0.00000 0.75000 -3.57243
v 0.00000 0.75000 4.75000
v 4.69028 0.75000 4.75000
v 4.69028 0.75000 0.07145
v 4.69028 0.75000 0.07145
v 4.69028 0.75000 -3.57243
v 0.00000 0.75000 -3.57243
v 4.69028 -8.69257 4.75000
v 5.09604 -9.06846 4.22060
v 5.09604 0.48142 4.22060
v 4.69028 -8.69257 -3.57243
v 5.09604 -9.06846 -3.16908
v 0.00000 -9.06846 -3.16908
v 5.09604 0.48142 4.22060
v 5.09604 0.48142 -0.02974
v 4.69028 0.75000 0.07145
v 4.69028 0.75000 -4.60711
v 4.69028 -8.69257 -4.60711
v 3.99014 -8.37827 -5.23790
v 3.99014 -8.37827 -5.23790
v 4.69028 -8.69257 -4.60711
v 0.00000 -8.69257 -4.60711
v 3.99014 0.43569 -5.23790
v 3.99014 -8.37827 -5.23790
v 3.00732 -7.55862 -5.59232
v 3.00732 -7.55862 -5.59232
v 3.99014 -8.37827 -5.23790
v 0.00000 -8.37827 -5.23790
v 0.00000 -9.06846 4.22060
v 0.00000 -9.06846 -3.16908
v 5.09604 -9.06846 -0.02974
v 0.00000 -9.06846 -3.16908
v 5.09604 -9.06846 -3.16908
v 5.09604 -9.06846 -0.02974
v 0.00000 0.75000 -4.60711
v 4.69028 0.75000 -4.60711
v 3.99014 0.43569 -5.23790
v 0.00000 0.43569 -5.23790
v 3.99014 0.43569 -5.23790
v 3.00732 -0.38395 -5.59232
v 3.00732 -0.38395 -5.59232
v 3.00732 -7.55862 -5.59232
v 0.00000 -7.55862 -5.59232
v 4.69028 -8.69257 -4.60711
v 4.69028 -8.69257 -3.57243
v 0.00000 -8.69257 -3.57243
v 0.00000 -9.06846 4.22060
v 5.09604 -9.06846 4.22060
v 4.69028 -8.69257 4.75000
vt 0.97220 0.81281
vt 0.98933 0.97725
vt 0.97220 0.97725
vt 0.99509 0.67158
vt 0.93958 0.48137
vt 0.99555 0.48137
vt 0.94181 0.66260
vt 0.89873 0.49180
vt 0.84562 0.53046
vt 0.79378 0.56071
vt 0.91429 0.70299
vt 0.91032 0.71195
vt 0.68061 0.46948
vt 0.71643 0.57328
vt 0.67074 0.47926
vt 0.89287 0.80597
vt 0.97220 0.81247
vt 0.97208 0.80571
vt 0.72568 0.71748
vt 0.60474 0.71796
vt 0.60488 0.62432
vt 0.67092 0.44385
vt 0.77633 0.67729
vt 0.65303 0.44141
vt 0.82665 0.57041
vt 0.89585 0.68320
vt 0.80867 0.56988
vt 0.73943 0.58167
vt 0.67654 0.48481
vt 0.67906 0.46577
vt 0.95971 0.81726
vt 0.97174 0.97741
vt 0.95971 0.97091
vt 0.95980 0.97093
vt 0.89312 0.97766
vt 0.97150 0.97766
vt 0.94317 0.83101
vt 0.95971 0.97091
vt 0.94317 0.95609
vt 0.94317 0.83101
vt 0.89347 0.81752
vt 0.95971 0.81726
vt 0.90688 0.53470
vt 0.94883 0.59406
vt 0.90140 0.62757
vt 0.89298 0.81273
vt 0.96020 0.81687
vt 0.97220 0.81247
vt 0.89347 0.97117
vt 0.94317 0.95609
vt 0.95971 0.97091
vt 0.89864 0.83121
vt 0.94856 0.95609
vt 0.89864 0.95629
vt 0.89312 0.98725
vt 0.97150 0.97766
vt 0.89312 0.97766
vt 0.66649 0.74952
vt 0.77678 0.67901
vt 0.79293 0.68342
vt 0.98933 0.97725
vt 0.97220 0.81281
vt 0.97220 0.97725
vt 0.93958 0.48137
vt 0.99509 0.67158
vt 0.99555 0.48137
vt 0.84562 0.53046
vt 0.99492 0.62394
vt 0.94181 0.66260
vt 0.91429 0.70299
vt 0.79378 0.56071
vt 0.91032 0.71195
vt 0.68061 0.46948
vt 0.71643 0.57328
vt 0.73363 0.57861
vt 0.97220 0.81247
vt 0.89287 0.80597
vt 0.97208 0.80571
vt 0.60488 0.62432
vt 0.72568 0.71748
vt 0.72598 0.50362
vt 0.67092 0.44385
vt 0.77633 0.67729
vt 0.79284 0.67708
vt 0.82665 0.57041
vt 0.89585 0.68320
vt 0.90689 0.67470
vt 0.67654 0.48481
vt 0.73943 0.58167
vt 0.67906 0.46577
vt 0.97174 0.97741
vt 0.95971 0.81726
vt 0.95971 0.97091
vt 0.95980 0.97093
vt 0.89312 0.97766
vt 0.89312 0.97093
vt 0.95971 0.97091
vt 0.94317 0.83101
vt 0.94317 0.95609
vt 0.94317 0.83101
vt 0.89347 0.81752
vt 0.89324 0.83121
vt 0.90140 0.62757
vt 0.94883 0.59406
vt 0.90688 0.53470
vt 0.89298 0.81273
vt 0.96020 0.81687
vt 0.89281 0.81709
vt 0.89347 0.97117
vt 0.94317 0.95609
vt 0.89324 0.95629
vt 0.94856 0.95609
vt 0.89864 0.83121
vt 0.89864 0.95629
vt 0.97150 0.97766
vt 0.89312 0.98725
vt 0.89312 0.97766
vt 0.66649 0.74952
vt 0.77678 0.67901
vt 0.66040 0.73984
vt 0.97220 0.81281
vt 0.98933 0.81281
vt 0.98933 0.97725
vt 0.99509 0.67158
vt 0.93912 0.67158
vt 0.93958 0.48137
vt 0.84562 0.53046
vt 0.80639 0.55902
vt 0.90259 0.69115
vt 0.94181 0.66260
vt 0.99492 0.62394
vt 0.89873 0.49180
vt 0.84562 0.53046
vt 0.90259 0.69115
vt 0.94181 0.66260
vt 0.79378 0.56071
vt 0.79642 0.55004
vt 0.91429 0.70299
vt 0.68061 0.46948
vt 0.73363 0.57861
vt 0.71643 0.57328
vt 0.89287 0.80597
vt 0.89298 0.81273
vt 0.97220 0.81247
vt 0.60488 0.62432
vt 0.60505 0.50409
vt 0.72598 0.50362
vt 0.72598 0.50362
vt 0.72568 0.71748
vt 0.60488 0.62432
vt 0.67092 0.44385
vt 0.79284 0.67708
vt 0.77633 0.67729
vt 0.82665 0.57041
vt 0.90689 0.67470
vt 0.89585 0.68320
vt 0.73943 0.58167
vt 0.73139 0.59010
vt 0.67654 0.48481
vt 0.95971 0.81726
vt 0.97174 0.81280
vt 0.97174 0.97741
vt 0.95980 0.97093
vt 0.89312 0.97093
vt 0.89312 0.97766
vt 0.94317 0.83101
vt 0.95971 0.81726
vt 0.95971 0.97091
vt 0.94317 0.83101
vt 0.89324 0.83121
vt 0.89347 0.81752
vt 0.86637 0.65233
vt 0.82442 0.59296
vt 0.90140 0.62757
vt 0.82442 0.59296
vt 0.90688 0.53470
vt 0.90140 0.62757
vt 0.89298 0.81273
vt 0.89281 0.81709
vt 0.96020 0.81687
vt 0.89347 0.97117
vt 0.89324 0.95629
vt 0.94317 0.95609
vt 0.89864 0.83121
vt 0.94856 0.83101
vt 0.94856 0.95609
vt 0.89312 0.98725
vt 0.97150 0.98725
vt 0.97150 0.97766
vt 0.66649 0.74952
vt 0.66040 0.73984
vt 0.77678 0.67901
vt 0.98933 0.97725
vt 0.98933 0.81281
vt 0.97220 0.81281
vt 0.93958 0.48137
vt 0.93912 0.67158
vt 0.99509 0.67158
vt 0.90259 0.69115
vt 0.80639 0.55902
vt 0.84562 0.53046
vt 0.84562 0.53046
vt 0.89873 0.49180
vt 0.99492 0.62394
vt 0.94181 0.66260
vt 0.90259 0.69115
vt 0.84562 0.53046
vt 0.91429 0.70299
vt 0.79642 0.55004
vt 0.79378 0.56071
vt 0.68061 0.46948
vt 0.67074 0.47926
vt 0.71643 0.57328
vt 0.97220 0.81247
vt 0.89298 0.81273
vt 0.89287 0.80597
vt 0.72598 0.50362
vt 0.60505 0.50409
vt 0.60488 0.62432
vt 0.60488 0.62432
vt 0.60474 0.71796
vt 0.72568 0.71748
vt 0.67092 0.44385
vt 0.65303 0.44141
vt 0.77633 0.67729
vt 0.82665 0.57041
vt 0.80867 0.56988
vt 0.89585 0.68320
vt 0.67654 0.48481
vt 0.73139 0.59010
vt 0.73943 0.58167
vt 0.97174 0.97741
vt 0.97174 0.81280
vt 0.95971 0.81726
vt 0.95980 0.97093
vt 0.97150 0.97766
vt 0.89312 0.97766
vt 0.95971 0.97091
vt 0.95971 0.81726
vt 0.94317 0.83101
vt 0.94317 0.83101
vt 0.95971 0.81726
vt 0.89347 0.81752
vt 0.90688 0.53470
vt 0.82442 0.59296
vt 0.90140 0.62757
vt 0.82442 0.59296
vt 0.86637 0.65233
vt 0.90140 0.62757
vt 0.89298 0.81273
vt 0.97220 0.81247
vt 0.96020 0.81687
vt 0.89347 0.97117
vt 0.95971 0.97091
vt 0.94317 0.95609
vt 0.94856 0.95609
vt 0.94856 0.83101
vt 0.89864 0.83121
vt 0.97150 0.97766
vt 0.97150 0.98725
vt 0.89312 0.98725
vt 0.66649 0.74952
vt 0.79293 0.68342
vt 0.77678 0.67901
vn -1.00000 -0.00000 -0.00000
vn -1.00000 -0.00000 -0.00000
vn -1.00000 -0.00000 -0.00000
vn 0.00000 -0.00000 1.00000
vn 0.00000 -0.00000 1.00000
vn 0.00000 -0.00000 1.00000
vn -1.00000 -0.00000 -0.00000
vn -1.00000 -0.00000 -0.00000
vn -1.00000 -0.00000 -0.00000
vn -0.70591 -0.00000 -0.70831
vn -0.70591 -0.00000 -0.70831
vn -0.70591 -0.00000 -0.70831
vn -0.54943 0.83554 -0.00000
vn -0.54943 0.83554 -0.00000
vn -0.54943 0.83554 -0.00000
vn 0.00000 1.00000 -0.00000
vn 0.00000 1.00000 -0.00000
vn 0.00000 1.00000 -0.00000
vn 0.00000 1.00000 -0.00000
vn 0.00000 1.00000 -0.00000
vn 0.00000 1.00000 -0.00000
vn -0.79440 -0.00000 0.60740
vn -0.79440 -0.00000 0.60740
vn -0.79440 -0.00000 0.60740
vn 0.00000 -0.73470 -0.67840
vn 0.00000 -0.73470 -0.67840
vn 0.00000 -0.73470 -0.67840
vn -0.54943 0.83554 -0.00000
vn -0.54943 0.83554 -0.00000
vn -0.54943 0.83554 -0.00000
vn -0.67030 -0.00000 -0.74209
vn -0.67030 -0.00000 -0.74209
vn -0.67030 -0.00000 -0.74209
vn 0.00000 -0.89668 -0.44269
vn 0.00000 -0.89668 -0.44269
vn 0.00000 -0.89668 -0.44269
vn -0.34001 -0.00000 -0.94042
vn -0.34001 -0.00000 -0.94042
vn -0.34001 -0.00000 -0.94042
vn 0.00000 -0.39992 -0.91655
vn 0.00000 -0.39992 -0.91655
vn 0.00000 -0.39992 -0.91655
vn -0.00000 -1.00000 0.00000
vn -0.00000 -1.00000 0.00000
vn -0.00000 -1.00000 0.00000
vn 0.00000 0.89668 -0.44269
vn 0.00000 0.89668 -0.44269
vn 0.00000 0.89668 -0.44269
vn 0.00000 0.39992 -0.91655
vn 0.00000 0.39992 -0.91655
vn 0.00000 0.39992 -0.91655
vn 0.00000 -0.00000 -1.00000
vn 0.00000 -0.00000 -1.00000
vn 0.00000 -0.00000 -1.00000
vn 0.00000 -1.00000 -0.00000
vn 0.00000 -1.00000 -0.00000
vn 0.00000 -1.00000 -0.00000
vn 0.00000 -0.81785 0.57543
vn 0.00000 -0.81785 0.57543
vn 0.00000 -0.81785 0.57543
vn 1.00000 -0.00000 -0.00000
vn 1.00000 -0.00000 -0.00000
vn 1.00000 -0.00000 -0.00000
vn 0.00000 -0.00000 1.00000
vn 0.00000 -0.00000 1.00000
vn 0.00000 -0.00000 1.00000
vn 1.00000 -0.00000 -0.00000
vn 1.00000 -0.00000 -0.00000
vn 1.00000 -0.00000 -0.00000
vn 0.70591 -0.00000 -0.70831
vn 0.70591 -0.00000 -0.70831
vn 0.70591 -0.00000 -0.70831
vn 0.54943 0.83554 -0.00000
vn 0.54943 0.83554 -0.00000
vn 0.54943 0.83554 -0.00000
vn 0.00000 1.00000 -0.00000
vn 0.00000 1.00000 -0.00000
vn 0.00000 1.00000 -0.00000
vn 0.00000 1.00000 -0.00000
vn 0.00000 1.00000 -0.00000
vn 0.00000 1.00000 -0.00000
vn 0.79440 -0.00000 0.60740
vn 0.79440 -0.00000 0.60740
vn 0.79440 -0.00000 0.60740
vn 0.00000 -0.73470 -0.67840
vn 0.00000 -0.73470 -0.67840
vn 0.00000 -0.73470 -0.67840
vn 0.54943 0.83554 -0.00000
vn 0.54943 0.83554 -0.00000
vn 0.54943 0.83554 -0.00000
vn 0.67030 -0.00000 -0.74209
vn 0.67030 -0.00000 -0.74209
vn 0.67030 -0.00000 -0.74209
vn 0.00000 -0.89668 -0.44269
vn 0.00000 -0.89668 -0.44269
vn 0.00000 -0.89668 -0.44269
vn 0.34001 -0.00000 -0.94042
vn 0.34001 -0.00000 -0.94042
vn 0.34001 -0.00000 -0.94042
vn 0.00000 -0.39992 -0.91655
vn 0.00000 -0.39992 -0.91655
vn 0.00000 -0.39992 -0.91655
vn 0.00000 -1.00000 0.00000
vn 0.00000 -1.00000 0.00000
vn 0.00000 -1.00000 0.00000
vn 0.00000 0.89668 -0.44269
vn 0.00000 0.89668 -0.44269
vn 0.00000 0.89668 -0.44269
vn 0.00000 0.39992 -0.91655
vn 0.00000 0.39992 -0.91655
vn 0.00000 0.39992 -0.91655
vn 0.00000 -0.00000 -1.00000
vn 0.00000 -0.00000 -1.00000
vn 0.00000 -0.00000 -1.00000
vn 0.00000 -1.00000 0.00000
vn 0.00000 -1.00000 0.00000
vn 0.00000 -1.00000 0.00000
vn 0.00000 -0.81785 0.57543
vn 0.00000 -0.81785 0.57543
vn 0.00000 -0.81785 0.57543
vn -1.00000 -0.00000 -0.00000
vn -1.00000 -0.00000 -0.00000
vn -1.00000 -0.00000 -0.00000
vn 0.00000 -0.00000 1.00000
vn 0.00000 -0.00000 1.00000
vn 0.00000 -0.00000 1.00000
vn -1.00000 -0.00000 -0.00000
vn -1.00000 -0.00000 -0.00000
vn -1.00000 -0.00000 -0.00000
vn -1.00000 -0.00000 -0.00000
vn -1.00000 -0.00000 -0.00000
vn -1.00000 -0.00000 -0.00000
vn -1.00000 -0.00000 -0.00000
vn -1.00000 -0.00000 -0.00000
vn -1.00000 -0.00000 -0.00000
vn -0.70591 -0.00000 -0.70831
vn -0.70591 -0.00000 -0.70831
vn -0.70591 -0.00000 -0.70831
vn -0.54943 0.83554 -0.00000
vn -0.54943 0.83554 -0.00000
vn -0.54943 0.83554 -0.00000
vn 0.00000 1.00000 -0.00000
vn 0.00000 1.00000 -0.00000
vn 0.00000 1.00000 -0.00000
vn 0.00000 1.00000 -0.00000
vn 0.00000 1.00000 -0.00000
vn 0.00000 1.00000 -0.00000
vn 0.00000 1.00000 -0.00000
vn 0.00000 1.00000 -0.00000
vn 0.00000 1.00000 -0.00000
vn -0.79440 -0.00000 0.60740
vn -0.79440 -0.00000 0.60740
vn -0.79440 -0.00000 0.60740
vn 0.00000 -0.73470 -0.67840
vn 0.00000 -0.73470 -0.67840
vn 0.00000 -0.73470 -0.67840
vn -0.54943 0.83554 -0.00000
vn -0.54943 0.83554 -0.00000
vn -0.54943 0.83554 -0.00000
vn -0.67030 -0.00000 -0.74209
vn -0.67030 -0.00000 -0.74209
vn -0.67030 -0.00000 -0.74209
vn 0.00000 -0.89668 -0.44269
vn 0.00000 -0.89668 -0.44269
vn 0.00000 -0.89668 -0.44269
vn -0.34001 -0.00000 -0.94042
vn -0.34001 -0.00000 -0.94042
vn -0.34001 -0.00000 -0.94042
vn 0.00000 -0.39992 -0.91655
vn 0.00000 -0.39992 -0.91655
vn 0.00000 -0.39992 -0.91655
vn 0.00000 -1.00000 0.00000
vn 0.00000 -1.00000 0.00000
vn 0.00000 -1.00000 0.00000
vn 0.00000 -1.00000 0.00000
vn 0.00000 -1.00000 0.00000
vn 0.00000 -1.00000 0.00000
vn 0.00000 0.89668 -0.44269
vn 0.00000 0.89668 -0.44269
vn 0.00000 0.89668 -0.44269
vn 0.00000 0.39992 -0.91655
vn 0.00000 0.39992 -0.91655
vn 0.00000 0.39992 -0.91655
vn 0.00000 -0.00000 -1.00000
vn 0.00000 -0.00000 -1.00000
vn 0.00000 -0.00000 -1.00000
vn -0.00000 -1.00000 0.00000
vn -0.00000 -1.00000 0.00000
vn -0.00000 -1.00000 0.00000
vn 0.00000 -0.81785 0.57543
vn 0.00000 -0.81785 0.57543
vn 0.00000 -0.81785 0.57543
vn 1.00000 -0.00000 -0.00000
vn 1.00000 -0.00000 -0.00000
vn 1.00000 -0.00000 -0.00000
vn 0.00000 -0.00000 1.00000
vn 0.00000 -0.00000 1.00000
vn 0.00000 -0.00000 1.00000
vn 1.00000 -0.00000 -0.00000
vn 1.00000 -0.00000 -0.00000
vn 1.00000 -0.00000 -0.00000
vn 1.00000 -0.00000 -0.00000
vn 1.00000 -0.00000 -0.00000
vn 1.00000 -0.00000 -0.00000
vn 1.00000 -0.00000 -0.00000
vn 1.00000 -0.00000 -0.00000
vn 1.00000 -0.00000 -0.00000
vn 0.70591 -0.00000 -0.70831
vn 0.70591 -0.00000 -0.70831
vn 0.70591 -0.00000 -0.70831
vn 0.54943 0.83554 -0.00000
vn 0.54943 0.83554 -0.00000
vn 0.54943 0.83554 -0.00000
vn 0.00000 1.00000 -0.00000
vn 0.00000 1.00000 -0.00000
vn 0.00000 1.00000 -0.00000
vn 0.00000 1.00000 -0.00000
vn 0.00000 1.00000 -0.00000
vn 0.00000 1.00000 -0.00000
vn 0.00000 1.00000 -0.00000
vn 0.00000 1.00000 -0.00000
vn 0.00000 1.00000 -0.00000
vn 0.79440 -0.00000 0.60740
vn 0.79440 -0.00000 0.60740
vn 0.79440 -0.00000 0.60740
vn 0.00000 -0.73470 -0.67840
vn 0.00000 -0.73470 -0.67840
vn 0.00000 -0.73470 -0.67840
vn 0.54943 0.83554 -0.00000
vn 0.54943 0.83554 -0.00000
vn 0.54943 0.83554 -0.00000
vn 0.67030 -0.00000 -0.74209
vn 0.67030 -0.00000 -0.74209
vn 0.67030 -0.00000 -0.74209
vn 0.00000 -0.89668 -0.44269
vn 0.00000 -0.89668 -0.44269
vn 0.00000 -0.89668 -0.44269
vn 0.34001 -0.00000 -0.94042
vn 0.34001 -0.00000 -0.94042
vn 0.34001 -0.00000 -0.94042
vn 0.00000 -0.39992 -0.91655
vn 0.00000 -0.39992 -0.91655
vn 0.00000 -0.39992 -0.91655
vn 0.00000 -1.00000 0.00000
vn 0.00000 -1.00000 0.00000
vn 0.00000 -1.00000 0.00000
vn 0.00000 -1.00000 0.00000
vn 0.00000 -1.00000 0.00000
vn 0.00000 -1.00000 0.00000
vn 0.00000 0.89668 -0.44269
vn 0.00000 0.89668 -0.44269
vn 0.00000 0.89668 -0.44269
vn 0.00000 0.39992 -0.91655
vn 0.00000 0.39992 -0.91655
vn 0.00000 0.39992 -0.91655
vn 0.00000 -0.00000 -1.00000
vn 0.00000 -0.00000 -1.00000
vn 0.00000 -0.00000 -1.00000
vn 0.00000 -1.00000 0.00000
vn 0.00000 -1.00000 0.00000
vn 0.00000 -1.00000 0.00000
vn 0.00000 -0.81785 0.57543
vn 0.00000 -0.81785 0.57543
vn 0.00000 -0.81785 0.57543
f 1/1/1 2/2/2 3/3/3
f 4/4/4 5/5/5 6/6/6
f 7/7/7 8/8/8 9/9/9
f 10/10/10 11/11/11 12/12/12
f 13/13/13 14/14/14 15/15/15
f 16/16/16 17/17/17 18/18/18
f 19/19/19 20/20/20 21/21/21
f 22/22/22 23/23/23 24/24/24
f 25/25/25 26/26/26 27/27/27
f 28/28/28 29/29/29 30/30/30
f 31/31/31 32/32/32 33/33/33
f 34/34/34 35/35/35 36/36/36
f 37/37/37 38/38/38 39/39/39
f 40/40/40 41/41/41 42/42/42
f 43/43/43 44/44/44 45/45/45
f 46/46/46 47/47/47 48/48/48
f 49/49/49 50/50/50 51/51/51
f 52/52/52 53/53/53 54/54/54
f 55/55/55 56/56/56 57/57/57
f 58/58/58 59/59/59 60/60/60
f 61/61/61 62/62/62 63/63/63
f 64/64/64 65/65/65 66/66/66
f 67/67/67 68/68/68 69/69/69
f 70/70/70 71/71/71 72/72/72
f 73/73/73 74/74/74 75/75/75
f 76/76/76 77/77/77 78/78/78
f 79/79/79 80/80/80 81/81/81
f 82/82/82 83/83/83 84/84/84
f 85/85/85 86/86/86 87/87/87
f 88/88/88 89/89/89 90/90/90
f 91/91/91 92/92/92 93/93/93
f 94/94/94 95/95/95 96/96/96
f 97/97/97 98/98/98 99/99/99
f 100/100/100 101/101/101 102/102/102
f 103/103/103 104/104/104 105/105/105
f 106/106/106 107/107/107 108/108/108
f 109/109/109 110/110/110 111/111/111
f 112/112/112 113/113/113 114/114/114
f 115/115/115 116/116/116 117/117/117
f 118/118/118 119/119/119 120/120/120
f 121/121/121 122/122/122 123/123/123
f 124/124/124 125/125/125 126/126/126
f 127/127/127 128/128/128 129/129/129
f 130/130/130 131/131/131 132/132/132
f 133/133/133 134/134/134 135/135/135
f 136/136/136 137/137/137 138/138/138
f 139/139/139 140/140/140 141/141/141
f 142/142/142 143/143/143 144/144/144
f 145/145/145 146/146/146 147/147/147
f 148/148/148 149/149/149 150/150/150
f 151/151/151 152/152/152 153/153/153
f 154/154/154 155/155/155 156/156/156
f 157/157/157 158/158/158 159/159/159
f 160/160/160 161/161/161 162/162/162
f 163/163/163 164/164/164 165/165/165
f 166/166/166 167/167/167 168/168/168
f 169/169/169 170/170/170 171/171/171
f 172/172/172 173/173/173 174/174/174
f 175/175/175 176/176/176 177/177/177
f 178/178/178 179/179/179 180/180/180
f 181/181/181 182/182/182 183/183/183
f 184/184/184 185/185/185 186/186/186
f 187/187/187 188/188/188 189/189/189
f 190/190/190 191/191/191 192/192/192
f 193/193/193 194/194/194 195/195/195
f 196/196/196 197/197/197 198/198/198
f 199/199/199 200/200/200 201/201/201
f 202/202/202 203/203/203 204/204/204
f 205/205/205 206/206/206 207/207/207
f 208/208/208 209/209/209 210/210/210
f 211/211/211 212/212/212 213/213/213
f 214/214/214 215/215/215 216/216/216
f 217/217/217 218/218/218 219/219/219
f 220/220/220 221/221/221 222/222/222
f 223/223/223 224/224/224 225/225/225
f 226/226/226 227/227/227 228/228/228
f 229/229/229 230/230/230 231/231/231
f 232/232/232 233/233/233 234/234/234
f 235/235/235 236/236/236 237/237/237
f 238/238/238 239/239/239 240/240/240
f 241/241/241 242/242/242 243/243/243
f 244/244/244 245/245/245 246/246/246
f 247/247/247 248/248/248 249/249/249
f 250/250/250 251/251/251 252/252/252
f 253/253/253 254/254/254 255/255/255
f 256/256/256 257/257/257 258/258/258
f 259/259/259 260/260/260 261/261/261
f 262/262/262 263/263/263 264/264/264
