# STALKER Armor converted geometry (MC model units, pivot-relative)
v 2.25849 -2.27041 -2.25849
v -2.25849 10.30000 -2.25849
v 2.25849 10.30000 -2.25849
v -2.25849 -2.27041 -2.25849
v -2.25849 10.30000 2.25849
v -2.25849 10.30000 -2.25849
v -2.25849 -2.27041 2.25849
v 2.25849 10.30000 2.25849
v -2.25849 10.30000 2.25849
v 2.25849 -2.27041 2.25849
v 2.25849 10.30000 -2.25849
v 2.25849 10.30000 2.25849
v -2.25849 10.30000 2.25849
v 2.25849 10.30000 -2.25849
v -2.25849 10.30000 -2.25849
v -2.25849 -2.27041 -2.25849
v 2.25849 -2.27041 2.25849
v -2.25849 -2.27041 2.25849
v -2.62117 -2.92241 -2.62117
v -2.62117 -0.15283 2.62117
v -2.62117 -0.15283 -2.62117
v 0.83874 0.81773 2.62117
v -1.90472 0.53995 2.62117
v -2.62117 -2.92241 2.62117
v 2.62117 -2.92241 2.62117
v 2.62117 1.94059 -2.62117
v 2.62117 1.94059 2.62117
v 0.83874 0.81773 -2.62117
v -2.62117 -2.92241 -2.62117
v -1.90472 0.53995 -2.62117
v 2.62117 1.94059 2.62117
v 0.83874 0.81773 -2.62117
v 0.83874 0.81773 2.62117
v -2.62117 -2.92241 2.62117
v 2.62117 -2.92241 -2.62117
v 2.62117 -2.92241 2.62117
v 0.83874 0.81773 2.62117
v -1.90472 0.53995 -2.62117
v -1.90472 0.53995 2.62117
v -1.90472 0.53995 2.62117
v -2.62117 -0.15283 -2.62117
v -2.62117 -0.15283 2.62117
v 2.25849 -2.27041 -2.25849
v -2.25849 -2.27041 -2.25849
v -2.25849 10.30000 -2.25849
v -2.25849 -2.27041 -2.25849
v -2.25849 -2.27041 2.25849
v -2.25849 10.30000 2.25849
v -2.25849 -2.27041 2.25849
v 2.25849 -2.27041 2.25849
v 2.25849 10.30000 2.25849
v 2.25849 -2.27041 2.25849
v 2.25849 -2.27041 -2.25849
v 2.25849 10.30000 -2.25849
v -2.25849 10.30000 2.25849
v 2.25849 10.30000 2.25849
v 2.25849 10.30000 -2.25849
v -2.25849 -2.27041 -2.25849
v 2.25849 -2.27041 -2.25849
v 2.25849 -2.27041 2.25849
v -2.62117 -2.92241 -2.62117
v -2.62117 -2.92241 2.62117
v -2.62117 -0.15283 2.62117
v -1.90472 0.53995 2.62117
v -2.62117 -0.15283 2.62117
v -2.62117 -2.92241 2.62117
v -2.62117 -2.92241 2.62117
v 2.62117 -2.92241 2.62117
v 0.83874 0.81773 2.62117
v 2.62117 -2.92241 2.62117
v 2.62117 1.94059 2.62117
v 0.83874 0.81773 2.62117
v 2.62117 -2.92241 2.62117
v 2.62117 -2.92241 -2.62117
v 2.62117 1.94059 -2.62117
v 0.83874 0.81773 -2.62117
v 2.62117 1.94059 -2.62117
v 2.62117 -2.92241 -2.62117
v 2.62117 -2.92241 -2.62117
v -2.62117 -2.92241 -2.62117
v 0.83874 0.81773 -2.62117
v -2.62117 -2.92241 -2.62117
v -2.62117 -0.15283 -2.62117
v -1.90472 0.53995 -2.62117
v 2.62117 1.94059 2.62117
v 2.62117 1.94059 -2.62117
v 0.83874 0.81773 -2.62117
v -2.62117 -2.92241 2.62117
v -2.62117 -2.92241 -2.62117
v 2.62117 -2.92241 -2.62117
v 0.83874 0.81773 2.62117
v 0.83874 0.81773 -2.62117
v -1.90472 0.53995 -2.62117
v -1.90472 0.53995 2.62117
v -1.90472 0.53995 -2.62117
v -2.62117 -0.15283 -2.62117
vt 0.99380 0.31084
vt 0.73643 0.39663
vt 0.73643 0.31084
vt 0.99580 0.20157
vt 0.73879 0.32520
vt 0.73879 0.20157
vt 0.99464 0.30984
vt 0.73727 0.39563
vt 0.73727 0.30984
vt 0.99520 0.35843
vt 0.72809 0.44747
vt 0.72809 0.35843
vt 0.65137 0.78447
vt 0.82960 0.96297
vt 0.65137 0.96297
vt 0.63464 0.96297
vt 0.45614 0.78447
vt 0.63464 0.78448
vt 0.94108 0.67392
vt 0.80349 0.76222
vt 0.86942 0.63638
vt 0.84603 0.66675
vt 0.81116 0.73954
vt 0.89287 0.81491
vt 0.89979 0.79925
vt 0.85586 0.62478
vt 0.96506 0.69005
vt 0.84499 0.66567
vt 0.89242 0.81471
vt 0.81004 0.73901
vt 0.86069 0.63553
vt 0.94172 0.73026
vt 0.83995 0.67136
vt 0.84293 0.69834
vt 0.72183 0.81944
vt 0.72183 0.69834
vt 0.83995 0.67136
vt 0.91076 0.78376
vt 0.80899 0.72485
vt 0.80899 0.72485
vt 0.90226 0.79843
vt 0.80049 0.73953
vt 0.99380 0.31084
vt 0.99380 0.39663
vt 0.73643 0.39663
vt 0.99580 0.20157
vt 0.99580 0.32520
vt 0.73879 0.32520
vt 0.99464 0.30984
vt 0.99464 0.39563
vt 0.73727 0.39563
vt 0.99520 0.35843
vt 0.99520 0.44747
vt 0.72809 0.44747
vt 0.65137 0.78447
vt 0.82960 0.78447
vt 0.82960 0.96297
vt 0.63464 0.96297
vt 0.45614 0.96297
vt 0.45614 0.78447
vt 0.94108 0.67392
vt 0.87516 0.79977
vt 0.80349 0.76222
vt 0.81116 0.73954
vt 0.81867 0.76886
vt 0.89287 0.81491
vt 0.89287 0.81491
vt 0.97372 0.68463
vt 0.84603 0.66675
vt 0.97372 0.68463
vt 0.84344 0.60378
vt 0.84603 0.66675
vt 0.89979 0.79925
vt 0.79059 0.73398
vt 0.85586 0.62478
vt 0.84499 0.66567
vt 0.84226 0.60230
vt 0.97354 0.68342
vt 0.97354 0.68342
vt 0.89242 0.81471
vt 0.84499 0.66567
vt 0.89242 0.81471
vt 0.81765 0.76851
vt 0.81004 0.73901
vt 0.86069 0.63553
vt 0.96246 0.69444
vt 0.94172 0.73026
vt 0.84293 0.69834
vt 0.84293 0.81944
vt 0.72183 0.81944
vt 0.83995 0.67136
vt 0.94172 0.73026
vt 0.91076 0.78376
vt 0.80899 0.72485
vt 0.91076 0.78376
vt 0.90226 0.79843
vn 0.00000 -0.00000 -1.00000
vn 0.00000 -0.00000 -1.00000
vn 0.00000 -0.00000 -1.00000
vn -1.00000 -0.00000 -0.00000
vn -1.00000 -0.00000 -0.00000
vn -1.00000 -0.00000 -0.00000
vn -0.00000 -0.00000 1.00000
vn -0.00000 -0.00000 1.00000
vn -0.00000 -0.00000 1.00000
vn 1.00000 -0.00000 0.00000
vn 1.00000 -0.00000 0.00000
vn 1.00000 -0.00000 0.00000
vn 0.00000 1.00000 -0.00000
vn 0.00000 1.00000 -0.00000
vn 0.00000 1.00000 -0.00000
vn 0.00000 -1.00000 0.00000
vn 0.00000 -1.00000 0.00000
vn 0.00000 -1.00000 0.00000
vn -1.00000 -0.00000 -0.00000
vn -1.00000 -0.00000 -0.00000
vn -1.00000 -0.00000 -0.00000
vn -0.00000 -0.00000 1.00000
vn -0.00000 -0.00000 1.00000
vn -0.00000 -0.00000 1.00000
vn 1.00000 -0.00000 0.00000
vn 1.00000 -0.00000 0.00000
vn 1.00000 -0.00000 0.00000
vn 0.00000 -0.00000 -1.00000
vn 0.00000 -0.00000 -1.00000
vn 0.00000 -0.00000 -1.00000
vn -0.56179 0.82728 -0.00000
vn -0.56179 0.82728 -0.00000
vn -0.56179 0.82728 -0.00000
vn 0.00000 -1.00000 0.00000
vn 0.00000 -1.00000 0.00000
vn 0.00000 -1.00000 0.00000
vn -0.10850 0.99410 -0.00000
vn -0.10850 0.99410 -0.00000
vn -0.10850 0.99410 -0.00000
vn -0.72161 0.69230 -0.00000
vn -0.72161 0.69230 -0.00000
vn -0.72161 0.69230 -0.00000
vn 0.00000 -0.00000 -1.00000
vn 0.00000 -0.00000 -1.00000
vn 0.00000 -0.00000 -1.00000
vn -1.00000 -0.00000 -0.00000
vn -1.00000 -0.00000 -0.00000
vn -1.00000 -0.00000 -0.00000
vn -0.00000 -0.00000 1.00000
vn -0.00000 -0.00000 1.00000
vn -0.00000 -0.00000 1.00000
vn 1.00000 -0.00000 0.00000
vn 1.00000 -0.00000 0.00000
vn 1.00000 -0.00000 0.00000
vn 0.00000 1.00000 -0.00000
vn 0.00000 1.00000 -0.00000
vn 0.00000 1.00000 -0.00000
vn 0.00000 -1.00000 0.00000
vn 0.00000 -1.00000 0.00000
vn 0.00000 -1.00000 0.00000
vn -1.00000 -0.00000 -0.00000
vn -1.00000 -0.00000 -0.00000
vn -1.00000 -0.00000 -0.00000
vn -0.00000 -0.00000 1.00000
vn -0.00000 -0.00000 1.00000
vn -0.00000 -0.00000 1.00000
vn -0.00000 -0.00000 1.00000
vn -0.00000 -0.00000 1.00000
vn -0.00000 -0.00000 1.00000
vn -0.00000 -0.00000 1.00000
vn -0.00000 -0.00000 1.00000
vn -0.00000 -0.00000 1.00000
vn 1.00000 -0.00000 0.00000
vn 1.00000 -0.00000 0.00000
vn 1.00000 -0.00000 0.00000
vn 0.00000 -0.00000 -1.00000
vn 0.00000 -0.00000 -1.00000
vn 0.00000 -0.00000 -1.00000
vn 0.00000 -0.00000 -1.00000
vn 0.00000 -0.00000 -1.00000
vn 0.00000 -0.00000 -1.00000
vn 0.00000 -0.00000 -1.00000
vn 0.00000 -0.00000 -1.00000
vn 0.00000 -0.00000 -1.00000
vn -0.56179 0.82728 -0.00000
vn -0.56179 0.82728 -0.00000
vn -0.56179 0.82728 -0.00000
vn 0.00000 -1.00000 0.00000
vn 0.00000 -1.00000 0.00000
vn 0.00000 -1.00000 0.00000
vn -0.10850 0.99410 -0.00000
vn -0.10850 0.99410 -0.00000
vn -0.10850 0.99410 -0.00000
vn -0.72161 0.69230 -0.00000
vn -0.72161 0.69230 -0.00000
vn -0.72161 0.69230 -0.00000
f 1/1/1 2/2/2 3/3/3
f 4/4/4 5/5/5 6/6/6
f 7/7/7 8/8/8 9/9/9
f 10/10/10 11/11/11 12/12/12
f 13/13/13 14/14/14 15/15/15
f 16/16/16 17/17/17 18/18/18
f 19/19/19 20/20/20 21/21/21
f 22/22/22 23/23/23 24/24/24
f 25/25/25 26/26/26 27/27/27
f 28/28/28 29/29/29 30/30/30
f 31/31/31 32/32/32 33/33/33
f 34/34/34 35/35/35 36/36/36
f 37/37/37 38/38/38 39/39/39
f 40/40/40 41/41/41 42/42/42
f 43/43/43 44/44/44 45/45/45
f 46/46/46 47/47/47 48/48/48
f 49/49/49 50/50/50 51/51/51
f 52/52/52 53/53/53 54/54/54
f 55/55/55 56/56/56 57/57/57
f 58/58/58 59/59/59 60/60/60
f 61/61/61 62/62/62 63/63/63
f 64/64/64 65/65/65 66/66/66
f 67/67/67 68/68/68 69/69/69
f 70/70/70 71/71/71 72/72/72
f 73/73/73 74/74/74 75/75/75
f 76/76/76 77/77/77 78/78/78
f 79/79/79 80/80/80 81/81/81
f 82/82/82 83/83/83 84/84/84
f 85/85/85 86/86/86 87/87/87
f 88/88/88 89/89/89 90/90/90
f 91/91/91 92/92/92 93/93/93
f 94/94/94 95/95/95 96/96/96
