# STALKER Armor converted geometry (MC model units, pivot-relative)
v -4.30655 10.45466 -3.47407
v -4.30655 12.00460 3.49659
v -4.30655 12.00460 -3.47407
v -4.30655 10.45466 3.49659
v 0.01478 12.00460 3.49659
v -4.30655 12.00460 3.49659
v 0.01478 10.45466 3.49659
v 0.01478 12.00460 -3.47407
v 0.01478 12.00460 3.49659
v 0.01478 10.45466 -3.47407
v -4.30655 12.00460 -3.47407
v 0.01478 12.00460 -3.47407
v 0.01478 12.00460 3.49659
v -4.30655 12.00460 -3.47407
v -4.30655 12.00460 3.49659
v -1.51167 0.28835 3.25401
v 0.00348 0.28835 -3.11059
v 0.00348 0.28835 3.25401
v -4.30655 10.45466 3.49659
v -4.51112 10.37908 -3.38825
v -4.51112 10.37908 3.54937
v -4.30655 10.45466 3.49659
v 0.01768 10.37908 3.54937
v 0.01478 10.45466 3.49659
v 0.01478 10.45466 -3.47407
v 0.01768 10.37908 3.54937
v 0.01768 10.37908 -3.79931
v -4.30655 10.45466 -3.47407
v 0.01768 10.37908 -3.79931
v -4.51112 10.37908 -3.38825
v -1.79015 0.49571 -4.40653
v -4.31303 0.49571 -4.14730
v -3.83677 8.70712 -3.94699
v -4.21066 8.68580 -3.38825
v -4.70690 0.12976 3.54937
v -4.21066 8.68580 3.54937
v -3.61364 8.71985 3.90772
v -1.80225 0.46533 4.23464
v 0.01194 1.37824 4.20265
v 0.01768 10.37908 3.54937
v 0.01768 1.44627 -3.44106
v 0.01768 10.37908 -3.79931
v -4.51112 10.37908 -3.38825
v -4.21066 8.68580 3.54937
v -4.51112 10.37908 3.54937
v -4.31303 0.49571 -4.14730
v -4.21066 8.68580 -3.38825
v -3.83677 8.70712 -3.94699
v -4.31303 0.49571 -4.14730
v -1.80225 0.12976 -3.38825
v -4.70690 0.12976 -3.38825
v 0.00858 0.62408 -4.14251
v 0.00348 1.28374 -3.15051
v 0.00348 0.28835 -3.11059
v -4.06851 10.01313 -3.94699
v 0.01768 10.37908 -3.79931
v 0.02324 10.01313 -4.31275
v -4.06851 10.01313 -3.94699
v -4.21066 8.68580 -3.38825
v -4.51112 10.37908 -3.38825
v 0.00000 0.59621 3.88268
v -1.51167 0.28835 3.25401
v 0.00348 0.28835 3.25401
v 0.01194 9.79474 3.90772
v 0.01768 1.38207 3.54937
v 0.01768 10.37908 3.54937
v -3.80438 9.79474 3.90772
v -4.21066 8.68580 3.54937
v -3.61364 8.71985 3.90772
v -3.80438 9.79474 3.90772
v 0.01768 10.37908 3.54937
v -4.51112 10.37908 3.54937
v -4.07798 0.46533 4.23464
v -4.21066 8.68580 3.54937
v -4.70690 0.12976 3.54937
v -1.80225 0.12976 -3.38825
v -1.48946 0.62408 -4.06256
v -1.51167 0.28835 -3.11059
v -1.48946 0.62408 -4.06256
v 0.00348 0.28835 -3.11059
v -1.51167 0.28835 -3.11059
v 0.02324 1.45382 -4.49291
v -1.48946 0.62408 -4.06256
v -1.79015 0.49571 -4.40653
v -1.48946 0.62408 -4.06256
v 0.00858 1.28457 -4.12860
v 0.00858 0.62408 -4.14251
v -1.51167 0.59621 3.88268
v -1.80225 0.12976 3.54937
v -1.51167 0.28835 3.25401
v -1.80225 0.12976 3.54937
v -4.07798 0.46533 4.23464
v -4.70690 0.12976 3.54937
v -1.51167 0.28835 3.25401
v -1.80225 0.12976 -3.38825
v -1.51167 0.28835 -3.11059
v -1.80225 0.12976 3.54937
v -4.70690 0.12976 -3.38825
v -1.80225 0.12976 -3.38825
v 0.01194 1.37824 4.20265
v -1.51167 0.59621 3.88268
v 0.00000 1.26682 3.85918
v 0.00000 1.26682 3.85918
v -1.51167 0.59621 3.88268
v 0.00000 0.59621 3.88268
v 0.01768 1.44627 -3.44106
v 0.00348 1.26660 3.25401
v 0.00348 1.28374 -3.15051
v 0.00348 1.26660 3.25401
v 0.00348 0.28835 -3.11059
v 0.00348 1.28374 -3.15051
v 0.00858 1.28457 -4.12860
v 0.01768 1.44627 -3.44106
v 0.00348 1.28374 -3.15051
v 0.01768 1.44627 -3.44106
v 0.02324 10.01313 -4.31275
v 0.01768 10.37908 -3.79931
v 0.01768 1.38207 3.54937
v 0.00000 1.26682 3.85918
v 0.00348 1.26660 3.25401
v 0.00348 1.26660 3.25401
v 0.00000 0.59621 3.88268
v 0.00348 0.28835 3.25401
v 4.30655 12.00460 3.49659
v 4.30655 10.45466 -3.47407
v 4.30655 12.00460 -3.47407
v -0.01478 12.00460 3.49659
v 4.30655 10.45466 3.49659
v 4.30655 12.00460 3.49659
v -0.01478 12.00460 -3.47407
v -0.01478 10.45466 3.49659
v -0.01478 12.00460 3.49659
v 4.30655 12.00460 -3.47407
v -0.01478 10.45466 -3.47407
v -0.01478 12.00460 -3.47407
v 4.30655 12.00460 -3.47407
v -0.01478 12.00460 3.49659
v 4.30655 12.00460 3.49659
v -0.00348 0.28835 -3.11059
v 1.51167 0.28835 3.25401
v -0.00348 0.28835 3.25401
v 4.30655 10.45466 3.49659
v 4.51112 10.37908 -3.38825
v 4.30655 10.45466 -3.47407
v -0.01768 10.37908 3.54937
v 4.30655 10.45466 3.49659
v -0.01478 10.45466 3.49659
v -0.01478 10.45466 -3.47407
v -0.01768 10.37908 3.54937
v -0.01478 10.45466 3.49659
v 4.30655 10.45466 -3.47407
v -0.01768 10.37908 -3.79931
v -0.01478 10.45466 -3.47407
v -0.02324 1.45382 -4.49291
v -0.02324 10.01313 -4.31275
v 3.83677 8.70712 -3.94699
v 4.70690 0.12976 3.54937
v 4.21066 8.68580 -3.38825
v 4.21066 8.68580 3.54937
v 1.80225 0.46533 4.23464
v 4.07798 0.46533 4.23464
v 3.61364 8.71985 3.90772
v -0.01768 1.44627 -3.44106
v -0.01768 10.37908 3.54937
v -0.01768 10.37908 -3.79931
v 4.21066 8.68580 3.54937
v 4.51112 10.37908 -3.38825
v 4.51112 10.37908 3.54937
v 4.21066 8.68580 -3.38825
v 4.31303 0.49571 -4.14730
v 3.83677 8.70712 -3.94699
v 4.31303 0.49571 -4.14730
v 1.80225 0.12976 -3.38825
v 1.79015 0.49571 -4.40653
v -0.00858 0.62408 -4.14251
v -0.00348 1.28374 -3.15051
v -0.00858 1.28457 -4.12860
v -0.01768 10.37908 -3.79931
v 4.06851 10.01313 -3.94699
v -0.02324 10.01313 -4.31275
v 4.06851 10.01313 -3.94699
v 4.21066 8.68580 -3.38825
v 3.83677 8.70712 -3.94699
v 0.00000 0.59621 3.88268
v 1.51167 0.28835 3.25401
v 1.51167 0.59621 3.88268
v -0.01194 9.79474 3.90772
v -0.01768 1.38207 3.54937
v -0.01194 1.37824 4.20265
v 4.21066 8.68580 3.54937
v 3.80438 9.79474 3.90772
v 3.61364 8.71985 3.90772
v 3.80438 9.79474 3.90772
v -0.01768 10.37908 3.54937
v -0.01194 9.79474 3.90772
v 4.07798 0.46533 4.23464
v 4.21066 8.68580 3.54937
v 3.61364 8.71985 3.90772
v 1.80225 0.12976 -3.38825
v 1.48946 0.62408 -4.06256
v 1.79015 0.49571 -4.40653
v -0.00348 0.28835 -3.11059
v 1.48946 0.62408 -4.06256
v 1.51167 0.28835 -3.11059
v 1.48946 0.62408 -4.06256
v -0.02324 1.45382 -4.49291
v 1.79015 0.49571 -4.40653
v 1.48946 0.62408 -4.06256
v -0.00858 0.62408 -4.14251
v -0.00858 1.28457 -4.12860
v 1.80225 0.12976 3.54937
v 1.51167 0.59621 3.88268
v 1.51167 0.28835 3.25401
v 1.80225 0.12976 3.54937
v 4.07798 0.46533 4.23464
v 1.80225 0.46533 4.23464
v 1.80225 0.12976 -3.38825
v 1.51167 0.28835 3.25401
v 1.51167 0.28835 -3.11059
v 4.70690 0.12976 -3.38825
v 1.80225 0.12976 3.54937
v 1.80225 0.12976 -3.38825
v -0.01194 1.37824 4.20265
v 1.51167 0.59621 3.88268
v 1.80225 0.46533 4.23464
v 0.00000 1.26682 3.85918
v 0.00000 0.59621 3.88268
v 1.51167 0.59621 3.88268
v -0.01768 1.44627 -3.44106
v -0.00348 1.26660 3.25401
v -0.01768 1.38207 3.54937
v -0.00348 0.28835 -3.11059
v -0.00348 1.26660 3.25401
v -0.00348 1.28374 -3.15051
v -0.01768 1.44627 -3.44106
v -0.00858 1.28457 -4.12860
v -0.00348 1.28374 -3.15051
v -0.01768 1.44627 -3.44106
v -0.02324 10.01313 -4.31275
v -0.02324 1.45382 -4.49291
v -0.01768 1.38207 3.54937
v 0.00000 1.26682 3.85918
v -0.01194 1.37824 4.20265
v -0.00348 1.26660 3.25401
v 0.00000 0.59621 3.88268
v 0.00000 1.26682 3.85918
v -4.30655 10.45466 -3.47407
v -4.30655 10.45466 3.49659
v -4.30655 12.00460 3.49659
v -4.30655 10.45466 3.49659
v 0.01478 10.45466 3.49659
v 0.01478 12.00460 3.49659
v 0.01478 10.45466 3.49659
v 0.01478 10.45466 -3.47407
v 0.01478 12.00460 -3.47407
v 0.01478 10.45466 -3.47407
v -4.30655 10.45466 -3.47407
v -4.30655 12.00460 -3.47407
v 0.01478 12.00460 3.49659
v 0.01478 12.00460 -3.47407
v -4.30655 12.00460 -3.47407
v -1.51167 0.28835 3.25401
v -1.51167 0.28835 -3.11059
v 0.00348 0.28835 -3.11059
v -4.30655 10.45466 3.49659
v -4.30655 10.45466 -3.47407
v -4.51112 10.37908 -3.38825
v -4.30655 10.45466 3.49659
v -4.51112 10.37908 3.54937
v 0.01768 10.37908 3.54937
v 0.01478 10.45466 -3.47407
v 0.01478 10.45466 3.49659
v 0.01768 10.37908 3.54937
v -4.30655 10.45466 -3.47407
v 0.01478 10.45466 -3.47407
v 0.01768 10.37908 -3.79931
v -3.83677 8.70712 -3.94699
v -4.06851 10.01313 -3.94699
v 0.02324 10.01313 -4.31275
v 0.02324 10.01313 -4.31275
v 0.02324 1.45382 -4.49291
v -3.83677 8.70712 -3.94699
v 0.02324 1.45382 -4.49291
v -1.79015 0.49571 -4.40653
v -3.83677 8.70712 -3.94699
v -4.21066 8.68580 -3.38825
v -4.70690 0.12976 -3.38825
v -4.70690 0.12976 3.54937
v 0.01194 1.37824 4.20265
v 0.01194 9.79474 3.90772
v -3.61364 8.71985 3.90772
v 0.01194 9.79474 3.90772
v -3.80438 9.79474 3.90772
v -3.61364 8.71985 3.90772
v -3.61364 8.71985 3.90772
v -4.07798 0.46533 4.23464
v -1.80225 0.46533 4.23464
v 0.01768 10.37908 3.54937
v 0.01768 1.38207 3.54937
v 0.01768 1.44627 -3.44106
v -4.51112 10.37908 -3.38825
v -4.21066 8.68580 -3.38825
v -4.21066 8.68580 3.54937
v -4.31303 0.49571 -4.14730
v -4.70690 0.12976 -3.38825
v -4.21066 8.68580 -3.38825
v -4.31303 0.49571 -4.14730
v -1.79015 0.49571 -4.40653
v -1.80225 0.12976 -3.38825
v 0.00858 0.62408 -4.14251
v 0.00858 1.28457 -4.12860
v 0.00348 1.28374 -3.15051
v -4.06851 10.01313 -3.94699
v -4.51112 10.37908 -3.38825
v 0.01768 10.37908 -3.79931
v -4.06851 10.01313 -3.94699
v -3.83677 8.70712 -3.94699
v -4.21066 8.68580 -3.38825
v 0.00000 0.59621 3.88268
v -1.51167 0.59621 3.88268
v -1.51167 0.28835 3.25401
v 0.01194 9.79474 3.90772
v 0.01194 1.37824 4.20265
v 0.01768 1.38207 3.54937
v -3.80438 9.79474 3.90772
v -4.51112 10.37908 3.54937
v -4.21066 8.68580 3.54937
v -3.80438 9.79474 3.90772
v 0.01194 9.79474 3.90772
v 0.01768 10.37908 3.54937
v -4.07798 0.46533 4.23464
v -3.61364 8.71985 3.90772
v -4.21066 8.68580 3.54937
v -1.80225 0.12976 -3.38825
v -1.79015 0.49571 -4.40653
v -1.48946 0.62408 -4.06256
v -1.48946 0.62408 -4.06256
v 0.00858 0.62408 -4.14251
v 0.00348 0.28835 -3.11059
v 0.02324 1.45382 -4.49291
v 0.00858 1.28457 -4.12860
v -1.48946 0.62408 -4.06256
v -1.51167 0.59621 3.88268
v -1.80225 0.46533 4.23464
v -1.80225 0.12976 3.54937
v -1.80225 0.12976 3.54937
v -1.80225 0.46533 4.23464
v -4.07798 0.46533 4.23464
v -1.51167 0.28835 3.25401
v -1.80225 0.12976 3.54937
v -1.80225 0.12976 -3.38825
v -1.80225 0.12976 3.54937
v -4.70690 0.12976 3.54937
v -4.70690 0.12976 -3.38825
v 0.01194 1.37824 4.20265
v -1.80225 0.46533 4.23464
v -1.51167 0.59621 3.88268
v 0.01768 1.44627 -3.44106
v 0.01768 1.38207 3.54937
v 0.00348 1.26660 3.25401
v 0.00348 1.26660 3.25401
v 0.00348 0.28835 3.25401
v 0.00348 0.28835 -3.11059
v 0.00858 1.28457 -4.12860
v 0.02324 1.45382 -4.49291
v 0.01768 1.44627 -3.44106
v 0.01768 1.44627 -3.44106
v 0.02324 1.45382 -4.49291
v 0.02324 10.01313 -4.31275
v 0.01768 1.38207 3.54937
v 0.01194 1.37824 4.20265
v 0.00000 1.26682 3.85918
v 0.00348 1.26660 3.25401
v 0.00000 1.26682 3.85918
v 0.00000 0.59621 3.88268
v 4.30655 12.00460 3.49659
v 4.30655 10.45466 3.49659
v 4.30655 10.45466 -3.47407
v -0.01478 12.00460 3.49659
v -0.01478 10.45466 3.49659
v 4.30655 10.45466 3.49659
v -0.01478 12.00460 -3.47407
v -0.01478 10.45466 -3.47407
v -0.01478 10.45466 3.49659
v 4.30655 12.00460 -3.47407
v 4.30655 10.45466 -3.47407
v -0.01478 10.45466 -3.47407
v 4.30655 12.00460 -3.47407
v -0.01478 12.00460 -3.47407
v -0.01478 12.00460 3.49659
v -0.00348 0.28835 -3.11059
v 1.51167 0.28835 -3.11059
v 1.51167 0.28835 3.25401
v 4.30655 10.45466 3.49659
v 4.51112 10.37908 3.54937
v 4.51112 10.37908 -3.38825
v -0.01768 10.37908 3.54937
v 4.51112 10.37908 3.54937
v 4.30655 10.45466 3.49659
v -0.01478 10.45466 -3.47407
v -0.01768 10.37908 -3.79931
v -0.01768 10.37908 3.54937
v 4.30655 10.45466 -3.47407
v 4.51112 10.37908 -3.38825
v -0.01768 10.37908 -3.79931
v -0.02324 10.01313 -4.31275
v 4.06851 10.01313 -3.94699
v 3.83677 8.70712 -3.94699
v 3.83677 8.70712 -3.94699
v 4.31303 0.49571 -4.14730
v 1.79015 0.49571 -4.40653
v 1.79015 0.49571 -4.40653
v -0.02324 1.45382 -4.49291
v 3.83677 8.70712 -3.94699
v 4.70690 0.12976 3.54937
v 4.70690 0.12976 -3.38825
v 4.21066 8.68580 -3.38825
v 3.80438 9.79474 3.90772
v -0.01194 9.79474 3.90772
v 3.61364 8.71985 3.90772
v -0.01194 9.79474 3.90772
v -0.01194 1.37824 4.20265
v 3.61364 8.71985 3.90772
v -0.01194 1.37824 4.20265
v 1.80225 0.46533 4.23464
v 3.61364 8.71985 3.90772
v -0.01768 1.44627 -3.44106
v -0.01768 1.38207 3.54937
v -0.01768 10.37908 3.54937
v 4.21066 8.68580 3.54937
v 4.21066 8.68580 -3.38825
v 4.51112 10.37908 -3.38825
v 4.21066 8.68580 -3.38825
v 4.70690 0.12976 -3.38825
v 4.31303 0.49571 -4.14730
v 4.31303 0.49571 -4.14730
v 4.70690 0.12976 -3.38825
v 1.80225 0.12976 -3.38825
v -0.00858 0.62408 -4.14251
v -0.00348 0.28835 -3.11059
v -0.00348 1.28374 -3.15051
v -0.01768 10.37908 -3.79931
v 4.51112 10.37908 -3.38825
v 4.06851 10.01313 -3.94699
v 4.06851 10.01313 -3.94699
v 4.51112 10.37908 -3.38825
v 4.21066 8.68580 -3.38825
v 0.00000 0.59621 3.88268
v -0.00348 0.28835 3.25401
v 1.51167 0.28835 3.25401
v -0.01194 9.79474 3.90772
v -0.01768 10.37908 3.54937
v -0.01768 1.38207 3.54937
v 4.21066 8.68580 3.54937
v 4.51112 10.37908 3.54937
v 3.80438 9.79474 3.90772
v 3.80438 9.79474 3.90772
v 4.51112 10.37908 3.54937
v -0.01768 10.37908 3.54937
v 4.07798 0.46533 4.23464
v 4.70690 0.12976 3.54937
v 4.21066 8.68580 3.54937
v 1.80225 0.12976 -3.38825
v 1.51167 0.28835 -3.11059
v 1.48946 0.62408 -4.06256
v -0.00348 0.28835 -3.11059
v -0.00858 0.62408 -4.14251
v 1.48946 0.62408 -4.06256
v 1.48946 0.62408 -4.06256
v -0.00858 1.28457 -4.12860
v -0.02324 1.45382 -4.49291
v 1.80225 0.12976 3.54937
v 1.80225 0.46533 4.23464
v 1.51167 0.59621 3.88268
v 1.80225 0.12976 3.54937
v 4.70690 0.12976 3.54937
v 4.07798 0.46533 4.23464
v 1.80225 0.12976 -3.38825
v 1.80225 0.12976 3.54937
v 1.51167 0.28835 3.25401
v 4.70690 0.12976 -3.38825
v 4.70690 0.12976 3.54937
v 1.80225 0.12976 3.54937
v -0.01194 1.37824 4.20265
v 0.00000 1.26682 3.85918
v 1.51167 0.59621 3.88268
v -0.01768 1.44627 -3.44106
v -0.00348 1.28374 -3.15051
v -0.00348 1.26660 3.25401
v -0.00348 0.28835 -3.11059
v -0.00348 0.28835 3.25401
v -0.00348 1.26660 3.25401
v -0.01768 1.44627 -3.44106
v -0.02324 1.45382 -4.49291
v -0.00858 1.28457 -4.12860
v -0.01768 1.44627 -3.44106
v -0.01768 10.37908 -3.79931
v -0.02324 10.01313 -4.31275
v -0.01768 1.38207 3.54937
v -0.00348 1.26660 3.25401
v 0.00000 1.26682 3.85918
v -0.00348 1.26660 3.25401
v -0.00348 0.28835 3.25401
v 0.00000 0.59621 3.88268
vt 0.37774 0.61918
vt 0.05659 0.55200
vt 0.37833 0.55200
vt 0.24843 0.56013
vt 0.43283 0.62157
vt 0.24840 0.62134
vt 0.38486 0.07470
vt 0.05640 0.00745
vt 0.38485 0.00745
vt 0.01528 0.55338
vt 0.19942 0.62063
vt 0.01524 0.62063
vt 0.22234 0.40465
vt 0.01336 0.27832
vt 0.22366 0.27832
vt 0.32854 0.40464
vt 0.34709 0.27257
vt 0.34709 0.40464
vt 0.75364 0.48878
vt 0.57906 0.48267
vt 0.75438 0.48371
vt 0.29642 0.89837
vt 0.48098 0.89459
vt 0.48085 0.89860
vt 0.05640 0.07470
vt 0.38734 0.07798
vt 0.04107 0.07798
vt 0.57748 0.48772
vt 0.56685 0.59350
vt 0.57906 0.48267
vt 0.92791 0.56506
vt 0.92791 0.69005
vt 0.61313 0.67140
vt 0.41307 0.09361
vt 0.20545 0.40960
vt 0.21021 0.09361
vt 0.60319 0.66480
vt 0.93539 0.56383
vt 0.89865 0.50991
vt 0.38734 0.07798
vt 0.05796 0.46554
vt 0.04107 0.07798
vt 0.41800 0.04819
vt 0.21637 0.09504
vt 0.21514 0.04819
vt 0.82741 0.47905
vt 0.60515 0.49849
vt 0.60500 0.48032
vt 0.66771 0.48311
vt 0.79835 0.51474
vt 0.65090 0.51474
vt 0.00745 0.50679
vt 0.05840 0.47559
vt 0.06045 0.52266
vt 0.65400 0.50709
vt 0.82687 0.47933
vt 0.82947 0.50748
vt 0.56927 0.48126
vt 0.60515 0.49849
vt 0.55882 0.49971
vt 0.84454 0.50622
vt 0.79990 0.47159
vt 0.84478 0.47159
vt 0.40423 0.10333
vt 0.38735 0.46833
vt 0.38734 0.07798
vt 0.05667 0.34041
vt 0.04384 0.31319
vt 0.06270 0.30904
vt 0.05667 0.34041
vt 0.17725 0.36280
vt 0.03433 0.36262
vt 0.04818 0.06328
vt 0.04384 0.31319
vt 0.02829 0.06335
vt 0.79835 0.51474
vt 0.80868 0.47028
vt 0.80765 0.51474
vt 0.80868 0.47028
vt 0.85253 0.51474
vt 0.80765 0.51474
vt 0.89119 0.51375
vt 0.92791 0.55571
vt 0.92791 0.56506
vt 0.92791 0.55571
vt 0.90032 0.51374
vt 0.92791 0.51369
vt 0.79990 0.50622
vt 0.79060 0.47159
vt 0.79990 0.47159
vt 0.79060 0.47159
vt 0.66999 0.50622
vt 0.64315 0.47159
vt 0.32854 0.40464
vt 0.32470 0.27257
vt 0.32854 0.27257
vt 0.32470 0.40464
vt 0.26377 0.27257
vt 0.32470 0.27257
vt 0.89865 0.50991
vt 0.93538 0.55454
vt 0.90596 0.50991
vt 0.90596 0.50991
vt 0.93538 0.55454
vt 0.93532 0.50989
vt 0.05796 0.46554
vt 0.38735 0.47640
vt 0.05840 0.47559
vt 0.38735 0.47640
vt 0.06045 0.52266
vt 0.05840 0.47559
vt 0.00816 0.47555
vt 0.05796 0.46554
vt 0.05840 0.47559
vt 0.05796 0.46554
vt 0.01688 0.09386
vt 0.04107 0.07798
vt 0.38735 0.46833
vt 0.41844 0.47639
vt 0.38735 0.47640
vt 0.38735 0.47640
vt 0.41964 0.50810
vt 0.38735 0.52266
vt 0.05659 0.55200
vt 0.37774 0.61918
vt 0.37833 0.55200
vt 0.43283 0.62157
vt 0.24843 0.56013
vt 0.24840 0.62134
vt 0.05640 0.00745
vt 0.38486 0.07470
vt 0.38485 0.00745
vt 0.19942 0.62063
vt 0.01528 0.55338
vt 0.01524 0.62063
vt 0.01336 0.27832
vt 0.22234 0.40465
vt 0.22366 0.27832
vt 0.34709 0.27257
vt 0.32854 0.40464
vt 0.34709 0.40464
vt 0.75364 0.48878
vt 0.57906 0.48267
vt 0.57748 0.48772
vt 0.48098 0.89459
vt 0.29642 0.89837
vt 0.48085 0.89860
vt 0.05640 0.07470
vt 0.38734 0.07798
vt 0.38486 0.07470
vt 0.57748 0.48772
vt 0.56685 0.59350
vt 0.57574 0.59354
vt 0.89119 0.51375
vt 0.56310 0.51434
vt 0.61313 0.67140
vt 0.20545 0.40960
vt 0.41307 0.09361
vt 0.21021 0.09361
vt 0.93539 0.56383
vt 0.93555 0.68444
vt 0.60319 0.66480
vt 0.05796 0.46554
vt 0.38734 0.07798
vt 0.04107 0.07798
vt 0.21637 0.09504
vt 0.41800 0.04819
vt 0.21514 0.04819
vt 0.60515 0.49849
vt 0.82741 0.47905
vt 0.60500 0.48032
vt 0.66771 0.48311
vt 0.79835 0.51474
vt 0.79886 0.47117
vt 0.00745 0.50679
vt 0.05840 0.47559
vt 0.00816 0.47555
vt 0.82687 0.47933
vt 0.65400 0.50709
vt 0.82947 0.50748
vt 0.56927 0.48126
vt 0.60515 0.49849
vt 0.60500 0.48032
vt 0.84454 0.50622
vt 0.79990 0.47159
vt 0.79990 0.50622
vt 0.40423 0.10333
vt 0.38735 0.46833
vt 0.41813 0.46849
vt 0.04384 0.31319
vt 0.05667 0.34041
vt 0.06270 0.30904
vt 0.05667 0.34041
vt 0.17725 0.36280
vt 0.17710 0.34057
vt 0.04818 0.06328
vt 0.04384 0.31319
vt 0.06270 0.30904
vt 0.79835 0.51474
vt 0.80868 0.47028
vt 0.79886 0.47117
vt 0.85253 0.51474
vt 0.80868 0.47028
vt 0.80765 0.51474
vt 0.92791 0.55571
vt 0.89119 0.51375
vt 0.92791 0.56506
vt 0.92791 0.55571
vt 0.92791 0.51369
vt 0.90032 0.51374
vt 0.79060 0.47159
vt 0.79990 0.50622
vt 0.79990 0.47159
vt 0.79060 0.47159
vt 0.66999 0.50622
vt 0.79060 0.50622
vt 0.32470 0.27257
vt 0.32854 0.40464
vt 0.32854 0.27257
vt 0.26377 0.27257
vt 0.32470 0.40464
vt 0.32470 0.27257
vt 0.89865 0.50991
vt 0.93538 0.55454
vt 0.93539 0.56383
vt 0.90596 0.50991
vt 0.93532 0.50989
vt 0.93538 0.55454
vt 0.05796 0.46554
vt 0.38735 0.47640
vt 0.38735 0.46833
vt 0.06045 0.52266
vt 0.38735 0.47640
vt 0.05840 0.47559
vt 0.05796 0.46554
vt 0.00816 0.47555
vt 0.05840 0.47559
vt 0.05796 0.46554
vt 0.01688 0.09386
vt 0.00840 0.46522
vt 0.38735 0.46833
vt 0.41844 0.47639
vt 0.41813 0.46849
vt 0.38735 0.47640
vt 0.41964 0.50810
vt 0.41844 0.47639
vt 0.37774 0.61918
vt 0.05600 0.61918
vt 0.05659 0.55200
vt 0.24843 0.56013
vt 0.43285 0.56037
vt 0.43283 0.62157
vt 0.38486 0.07470
vt 0.05640 0.07470
vt 0.05640 0.00745
vt 0.01528 0.55338
vt 0.19946 0.55338
vt 0.19942 0.62063
vt 0.22234 0.40465
vt 0.01204 0.40465
vt 0.01336 0.27832
vt 0.32854 0.40464
vt 0.32854 0.27257
vt 0.34709 0.27257
vt 0.75364 0.48878
vt 0.57748 0.48772
vt 0.57906 0.48267
vt 0.29642 0.89837
vt 0.28770 0.89434
vt 0.48098 0.89459
vt 0.05640 0.07470
vt 0.38486 0.07470
vt 0.38734 0.07798
vt 0.57748 0.48772
vt 0.57574 0.59354
vt 0.56685 0.59350
vt 0.61313 0.67140
vt 0.56309 0.68081
vt 0.56310 0.51434
vt 0.56310 0.51434
vt 0.89119 0.51375
vt 0.61313 0.67140
vt 0.89119 0.51375
vt 0.92791 0.56506
vt 0.61313 0.67140
vt 0.41307 0.09361
vt 0.40831 0.40960
vt 0.20545 0.40960
vt 0.89865 0.50991
vt 0.56055 0.51009
vt 0.60319 0.66480
vt 0.56055 0.51009
vt 0.56076 0.67296
vt 0.60319 0.66480
vt 0.60319 0.66480
vt 0.93555 0.68444
vt 0.93539 0.56383
vt 0.38734 0.07798
vt 0.38735 0.46833
vt 0.05796 0.46554
vt 0.41800 0.04819
vt 0.41922 0.09504
vt 0.21637 0.09504
vt 0.82741 0.47905
vt 0.83689 0.50320
vt 0.60515 0.49849
vt 0.66771 0.48311
vt 0.79886 0.47117
vt 0.79835 0.51474
vt 0.00745 0.50679
vt 0.00816 0.47555
vt 0.05840 0.47559
vt 0.65400 0.50709
vt 0.63263 0.47864
vt 0.82687 0.47933
vt 0.56927 0.48126
vt 0.60500 0.48032
vt 0.60515 0.49849
vt 0.84454 0.50622
vt 0.79990 0.50622
vt 0.79990 0.47159
vt 0.40423 0.10333
vt 0.41813 0.46849
vt 0.38735 0.46833
vt 0.05667 0.34041
vt 0.03433 0.36262
vt 0.04384 0.31319
vt 0.05667 0.34041
vt 0.17710 0.34057
vt 0.17725 0.36280
vt 0.04818 0.06328
vt 0.06270 0.30904
vt 0.04384 0.31319
vt 0.79835 0.51474
vt 0.79886 0.47117
vt 0.80868 0.47028
vt 0.80868 0.47028
vt 0.85277 0.46626
vt 0.85253 0.51474
vt 0.89119 0.51375
vt 0.90032 0.51374
vt 0.92791 0.55571
vt 0.79990 0.50622
vt 0.79060 0.50622
vt 0.79060 0.47159
vt 0.79060 0.47159
vt 0.79060 0.50622
vt 0.66999 0.50622
vt 0.32854 0.40464
vt 0.32470 0.40464
vt 0.32470 0.27257
vt 0.32470 0.40464
vt 0.26377 0.40464
vt 0.26377 0.27257
vt 0.89865 0.50991
vt 0.93539 0.56383
vt 0.93538 0.55454
vt 0.05796 0.46554
vt 0.38735 0.46833
vt 0.38735 0.47640
vt 0.38735 0.47640
vt 0.38735 0.52266
vt 0.06045 0.52266
vt 0.00816 0.47555
vt 0.00840 0.46522
vt 0.05796 0.46554
vt 0.05796 0.46554
vt 0.00840 0.46522
vt 0.01688 0.09386
vt 0.38735 0.46833
vt 0.41813 0.46849
vt 0.41844 0.47639
vt 0.38735 0.47640
vt 0.41844 0.47639
vt 0.41964 0.50810
vt 0.05659 0.55200
vt 0.05600 0.61918
vt 0.37774 0.61918
vt 0.43283 0.62157
vt 0.43285 0.56037
vt 0.24843 0.56013
vt 0.05640 0.00745
vt 0.05640 0.07470
vt 0.38486 0.07470
vt 0.19942 0.62063
vt 0.19946 0.55338
vt 0.01528 0.55338
vt 0.01336 0.27832
vt 0.01204 0.40465
vt 0.22234 0.40465
vt 0.34709 0.27257
vt 0.32854 0.27257
vt 0.32854 0.40464
vt 0.75364 0.48878
vt 0.75438 0.48371
vt 0.57906 0.48267
vt 0.48098 0.89459
vt 0.28770 0.89434
vt 0.29642 0.89837
vt 0.05640 0.07470
vt 0.04107 0.07798
vt 0.38734 0.07798
vt 0.57748 0.48772
vt 0.57906 0.48267
vt 0.56685 0.59350
vt 0.56310 0.51434
vt 0.56309 0.68081
vt 0.61313 0.67140
vt 0.61313 0.67140
vt 0.92791 0.69005
vt 0.92791 0.56506
vt 0.92791 0.56506
vt 0.89119 0.51375
vt 0.61313 0.67140
vt 0.20545 0.40960
vt 0.40831 0.40960
vt 0.41307 0.09361
vt 0.56076 0.67296
vt 0.56055 0.51009
vt 0.60319 0.66480
vt 0.56055 0.51009
vt 0.89865 0.50991
vt 0.60319 0.66480
vt 0.89865 0.50991
vt 0.93539 0.56383
vt 0.60319 0.66480
vt 0.05796 0.46554
vt 0.38735 0.46833
vt 0.38734 0.07798
vt 0.21637 0.09504
vt 0.41922 0.09504
vt 0.41800 0.04819
vt 0.60515 0.49849
vt 0.83689 0.50320
vt 0.82741 0.47905
vt 0.66771 0.48311
vt 0.65090 0.51474
vt 0.79835 0.51474
vt 0.00745 0.50679
vt 0.06045 0.52266
vt 0.05840 0.47559
vt 0.82687 0.47933
vt 0.63263 0.47864
vt 0.65400 0.50709
vt 0.56927 0.48126
vt 0.55882 0.49971
vt 0.60515 0.49849
vt 0.84454 0.50622
vt 0.84478 0.47159
vt 0.79990 0.47159
vt 0.40423 0.10333
vt 0.38734 0.07798
vt 0.38735 0.46833
vt 0.04384 0.31319
vt 0.03433 0.36262
vt 0.05667 0.34041
vt 0.05667 0.34041
vt 0.03433 0.36262
vt 0.17725 0.36280
vt 0.04818 0.06328
vt 0.02829 0.06335
vt 0.04384 0.31319
vt 0.79835 0.51474
vt 0.80765 0.51474
vt 0.80868 0.47028
vt 0.85253 0.51474
vt 0.85277 0.46626
vt 0.80868 0.47028
vt 0.92791 0.55571
vt 0.90032 0.51374
vt 0.89119 0.51375
vt 0.79060 0.47159
vt 0.79060 0.50622
vt 0.79990 0.50622
vt 0.79060 0.47159
vt 0.64315 0.47159
vt 0.66999 0.50622
vt 0.32470 0.27257
vt 0.32470 0.40464
vt 0.32854 0.40464
vt 0.26377 0.27257
vt 0.26377 0.40464
vt 0.32470 0.40464
vt 0.89865 0.50991
vt 0.90596 0.50991
vt 0.93538 0.55454
vt 0.05796 0.46554
vt 0.05840 0.47559
vt 0.38735 0.47640
vt 0.06045 0.52266
vt 0.38735 0.52266
vt 0.38735 0.47640
vt 0.05796 0.46554
vt 0.00840 0.46522
vt 0.00816 0.47555
vt 0.05796 0.46554
vt 0.04107 0.07798
vt 0.01688 0.09386
vt 0.38735 0.46833
vt 0.38735 0.47640
vt 0.41844 0.47639
vt 0.38735 0.47640
vt 0.38735 0.52266
vt 0.41964 0.50810
vn -1.00000 -0.00000 -0.00000
vn -1.00000 -0.00000 -0.00000
vn -1.00000 -0.00000 -0.00000
vn 0.00000 -0.00000 1.00000
vn 0.00000 -0.00000 1.00000
vn 0.00000 -0.00000 1.00000
vn 1.00000 -0.00000 -0.00000
vn 1.00000 -0.00000 -0.00000
vn 1.00000 -0.00000 -0.00000
vn 0.00000 -0.00000 -1.00000
vn 0.00000 -0.00000 -1.00000
vn 0.00000 -0.00000 -1.00000
vn 0.00000 1.00000 -0.00000
vn 0.00000 1.00000 -0.00000
vn 0.00000 1.00000 -0.00000
vn 0.00000 -1.00000 0.00000
vn 0.00000 -1.00000 0.00000
vn 0.00000 -1.00000 0.00000
vn -0.35158 0.93616 -0.00000
vn -0.35158 0.93616 -0.00000
vn -0.35158 0.93616 -0.00000
vn 0.00000 0.56381 0.82591
vn 0.00000 0.56381 0.82591
vn 0.00000 0.56381 0.82591
vn 0.99929 0.03770 0.00000
vn 0.99929 0.03770 0.00000
vn 0.99929 0.03770 0.00000
vn -0.06790 -0.65472 -0.75282
vn -0.06790 -0.65472 -0.75282
vn -0.06790 -0.65472 -0.75282
vn -0.10150 0.02950 -0.99440
vn -0.10150 0.02950 -0.99440
vn -0.10150 0.02950 -0.99440
vn -0.99837 0.05700 -0.00000
vn -0.99837 0.05700 -0.00000
vn -0.99837 0.05700 -0.00000
vn -0.00210 0.03820 0.99927
vn -0.00210 0.03820 0.99927
vn -0.00210 0.03820 0.99927
vn 1.00000 -0.00000 -0.00000
vn 1.00000 -0.00000 -0.00000
vn 1.00000 -0.00000 -0.00000
vn -0.98511 -0.17190 -0.00000
vn -0.98511 -0.17190 -0.00000
vn -0.98511 -0.17190 -0.00000
vn -0.82903 0.06060 -0.55592
vn -0.82903 0.06060 -0.55592
vn -0.82903 0.06060 -0.55592
vn 0.00000 -0.89681 -0.44241
vn 0.00000 -0.89681 -0.44241
vn 0.00000 -0.89681 -0.44241
vn 0.99999 0.00020 0.00500
vn 0.99999 0.00020 0.00500
vn 0.99999 0.00020 0.00500
vn -0.05230 0.80659 -0.58879
vn -0.05230 0.80659 -0.58879
vn -0.05230 0.80659 -0.58879
vn -0.81837 -0.14279 -0.55668
vn -0.81837 -0.14279 -0.55668
vn -0.81837 -0.14279 -0.55668
vn 0.00000 -0.89409 0.44789
vn 0.00000 -0.89409 0.44789
vn 0.00000 -0.89409 0.44789
vn 0.99987 -0.00000 0.01610
vn 0.99987 -0.00000 0.01610
vn 0.99987 -0.00000 0.01610
vn -0.50650 -0.08840 0.85770
vn -0.50650 -0.08840 0.85770
vn -0.50650 -0.08840 0.85770
vn 0.00000 0.51411 0.85772
vn 0.00000 0.51411 0.85772
vn 0.00000 0.51411 0.85772
vn -0.74448 0.04250 0.66629
vn -0.74448 0.04250 0.66629
vn -0.74448 0.04250 0.66629
vn 0.63918 -0.72808 -0.24769
vn 0.63918 -0.72808 -0.24769
vn 0.63918 -0.72808 -0.24769
vn 0.00000 -0.94064 -0.33941
vn 0.00000 -0.94064 -0.33941
vn 0.00000 -0.94064 -0.33941
vn 0.46899 -0.87988 -0.07660
vn 0.46899 -0.87988 -0.07660
vn 0.46899 -0.87988 -0.07660
vn -0.05290 0.02050 -0.99839
vn -0.05290 0.02050 -0.99839
vn -0.05290 0.02050 -0.99839
vn 0.68818 -0.64868 0.32499
vn 0.68818 -0.64868 0.32499
vn 0.68818 -0.64868 0.32499
vn 0.00000 -0.89409 0.44789
vn 0.00000 -0.89409 0.44789
vn 0.00000 -0.89409 0.44789
vn 0.48520 -0.87440 -0.00000
vn 0.48520 -0.87440 -0.00000
vn 0.48520 -0.87440 -0.00000
vn 0.00000 -1.00000 -0.00000
vn 0.00000 -1.00000 -0.00000
vn 0.00000 -1.00000 -0.00000
vn 0.39869 -0.87448 0.27629
vn 0.39869 -0.87448 0.27629
vn 0.39869 -0.87448 0.27629
vn 0.00000 0.03420 0.99941
vn 0.00000 0.03420 0.99941
vn 0.00000 0.03420 0.99941
vn 0.99630 -0.08600 -0.00020
vn 0.99630 -0.08600 -0.00020
vn 0.99630 -0.08600 -0.00020
vn 1.00000 -0.00000 -0.00000
vn 1.00000 -0.00000 -0.00000
vn 1.00000 -0.00000 -0.00000
vn 0.99705 -0.07660 0.00520
vn 0.99705 -0.07660 0.00520
vn 0.99705 -0.07660 0.00520
vn 0.99994 0.00040 0.01060
vn 0.99994 0.00040 0.01060
vn 0.99994 0.00040 0.01060
vn 0.99092 -0.13430 0.00580
vn 0.99092 -0.13430 0.00580
vn 0.99092 -0.13430 0.00580
vn 0.99998 -0.00000 0.00560
vn 0.99998 -0.00000 0.00560
vn 0.99998 -0.00000 0.00560
vn 1.00000 -0.00000 -0.00000
vn 1.00000 -0.00000 -0.00000
vn 1.00000 -0.00000 -0.00000
vn 0.00000 -0.00000 1.00000
vn 0.00000 -0.00000 1.00000
vn 0.00000 -0.00000 1.00000
vn -1.00000 -0.00000 -0.00000
vn -1.00000 -0.00000 -0.00000
vn -1.00000 -0.00000 -0.00000
vn 0.00000 -0.00000 -1.00000
vn 0.00000 -0.00000 -1.00000
vn 0.00000 -0.00000 -1.00000
vn 0.00000 1.00000 -0.00000
vn 0.00000 1.00000 -0.00000
vn 0.00000 1.00000 -0.00000
vn 0.00000 -1.00000 0.00000
vn 0.00000 -1.00000 0.00000
vn 0.00000 -1.00000 0.00000
vn 0.35162 0.93614 -0.00000
vn 0.35162 0.93614 -0.00000
vn 0.35162 0.93614 -0.00000
vn 0.00000 0.56381 0.82591
vn 0.00000 0.56381 0.82591
vn 0.00000 0.56381 0.82591
vn -0.99929 0.03770 -0.00000
vn -0.99929 0.03770 -0.00000
vn -0.99929 0.03770 -0.00000
vn -0.00000 0.97288 -0.23130
vn -0.00000 0.97288 -0.23130
vn -0.00000 0.97288 -0.23130
vn 0.10070 0.02050 -0.99471
vn 0.10070 0.02050 -0.99471
vn 0.10070 0.02050 -0.99471
vn 0.99837 0.05700 -0.00000
vn 0.99837 0.05700 -0.00000
vn 0.99837 0.05700 -0.00000
vn 0.00000 0.03870 0.99925
vn 0.00000 0.03870 0.99925
vn 0.00000 0.03870 0.99925
vn -1.00000 -0.00000 -0.00000
vn -1.00000 -0.00000 -0.00000
vn -1.00000 -0.00000 -0.00000
vn 0.98511 -0.17190 -0.00000
vn 0.98511 -0.17190 -0.00000
vn 0.98511 -0.17190 -0.00000
vn 0.82903 0.06060 -0.55592
vn 0.82903 0.06060 -0.55592
vn 0.82903 0.06060 -0.55592
vn 0.03530 -0.93782 -0.34531
vn 0.03530 -0.93782 -0.34531
vn 0.03530 -0.93782 -0.34531
vn -0.99999 -0.00010 0.00520
vn -0.99999 -0.00010 0.00520
vn -0.99999 -0.00010 0.00520
vn 0.05230 0.80659 -0.58879
vn 0.05230 0.80659 -0.58879
vn 0.05230 0.80659 -0.58879
vn 0.81837 -0.14279 -0.55668
vn 0.81837 -0.14279 -0.55668
vn 0.81837 -0.14279 -0.55668
vn 0.00000 -0.89409 0.44789
vn 0.00000 -0.89409 0.44789
vn 0.00000 -0.89409 0.44789
vn -0.99996 0.00030 0.00880
vn -0.99996 0.00030 0.00880
vn -0.99996 0.00030 0.00880
vn 0.50650 -0.08840 0.85770
vn 0.50650 -0.08840 0.85770
vn 0.50650 -0.08840 0.85770
vn 0.00000 0.51411 0.85772
vn 0.00000 0.51411 0.85772
vn 0.00000 0.51411 0.85772
vn 0.51392 0.06160 0.85563
vn 0.51392 0.06160 0.85563
vn 0.51392 0.06160 0.85563
vn -0.62062 -0.73833 -0.26401
vn -0.62062 -0.73833 -0.26401
vn -0.62062 -0.73833 -0.26401
vn 0.00000 -0.94064 -0.33941
vn 0.00000 -0.94064 -0.33941
vn 0.00000 -0.94064 -0.33941
vn -0.46899 -0.87988 -0.07660
vn -0.46899 -0.87988 -0.07660
vn -0.46899 -0.87988 -0.07660
vn 0.05290 0.02050 -0.99839
vn 0.05290 0.02050 -0.99839
vn 0.05290 0.02050 -0.99839
vn -0.68818 -0.64868 0.32499
vn -0.68818 -0.64868 0.32499
vn -0.68818 -0.64868 0.32499
vn 0.00000 -0.89409 0.44789
vn 0.00000 -0.89409 0.44789
vn 0.00000 -0.89409 0.44789
vn -0.48520 -0.87440 -0.00000
vn -0.48520 -0.87440 -0.00000
vn -0.48520 -0.87440 -0.00000
vn 0.00000 -1.00000 0.00000
vn 0.00000 -1.00000 0.00000
vn 0.00000 -1.00000 0.00000
vn -0.45559 -0.88928 0.04020
vn -0.45559 -0.88928 0.04020
vn -0.45559 -0.88928 0.04020
vn 0.00000 0.03420 0.99941
vn 0.00000 0.03420 0.99941
vn 0.00000 0.03420 0.99941
vn -0.99308 -0.11740 -0.00110
vn -0.99308 -0.11740 -0.00110
vn -0.99308 -0.11740 -0.00110
vn -1.00000 -0.00000 -0.00000
vn -1.00000 -0.00000 -0.00000
vn -1.00000 -0.00000 -0.00000
vn -0.99705 -0.07660 0.00520
vn -0.99705 -0.07660 0.00520
vn -0.99705 -0.07660 0.00520
vn -0.99999 -0.00010 0.00530
vn -0.99999 -0.00010 0.00530
vn -0.99999 -0.00010 0.00530
vn -0.99166 -0.12860 0.00800
vn -0.99166 -0.12860 0.00800
vn -0.99166 -0.12860 0.00800
vn -0.99998 0.00020 0.00580
vn -0.99998 0.00020 0.00580
vn -0.99998 0.00020 0.00580
vn -1.00000 -0.00000 -0.00000
vn -1.00000 -0.00000 -0.00000
vn -1.00000 -0.00000 -0.00000
vn 0.00000 -0.00000 1.00000
vn 0.00000 -0.00000 1.00000
vn 0.00000 -0.00000 1.00000
vn 1.00000 -0.00000 -0.00000
vn 1.00000 -0.00000 -0.00000
vn 1.00000 -0.00000 -0.00000
vn 0.00000 -0.00000 -1.00000
vn 0.00000 -0.00000 -1.00000
vn 0.00000 -0.00000 -1.00000
vn 0.00000 1.00000 -0.00000
vn 0.00000 1.00000 -0.00000
vn 0.00000 1.00000 -0.00000
vn 0.00000 -1.00000 0.00000
vn 0.00000 -1.00000 0.00000
vn 0.00000 -1.00000 0.00000
vn -0.35162 0.93614 -0.00000
vn -0.35162 0.93614 -0.00000
vn -0.35162 0.93614 -0.00000
vn 0.00000 0.56381 0.82591
vn 0.00000 0.56381 0.82591
vn 0.00000 0.56381 0.82591
vn 0.99929 0.03770 0.00000
vn 0.99929 0.03770 0.00000
vn 0.99929 0.03770 0.00000
vn -0.00000 0.97288 -0.23130
vn -0.00000 0.97288 -0.23130
vn -0.00000 0.97288 -0.23130
vn -0.08850 -0.01540 -0.99596
vn -0.08850 -0.01540 -0.99596
vn -0.08850 -0.01540 -0.99596
vn -0.10070 0.02050 -0.99471
vn -0.10070 0.02050 -0.99471
vn -0.10070 0.02050 -0.99471
vn -0.06760 0.03800 -0.99699
vn -0.06760 0.03800 -0.99699
vn -0.06760 0.03800 -0.99699
vn -0.99837 0.05700 -0.00000
vn -0.99837 0.05700 -0.00000
vn -0.99837 0.05700 -0.00000
vn -0.01030 0.03420 0.99936
vn -0.01030 0.03420 0.99936
vn -0.01030 0.03420 0.99936
vn 0.00000 -0.00000 1.00000
vn 0.00000 -0.00000 1.00000
vn 0.00000 -0.00000 1.00000
vn 0.00000 0.03870 0.99925
vn 0.00000 0.03870 0.99925
vn 0.00000 0.03870 0.99925
vn 1.00000 -0.00000 -0.00000
vn 1.00000 -0.00000 -0.00000
vn 1.00000 -0.00000 -0.00000
vn -0.98511 -0.17190 -0.00000
vn -0.98511 -0.17190 -0.00000
vn -0.98511 -0.17190 -0.00000
vn -0.89537 0.05110 -0.44238
vn -0.89537 0.05110 -0.44238
vn -0.89537 0.05110 -0.44238
vn -0.03530 -0.93782 -0.34531
vn -0.03530 -0.93782 -0.34531
vn -0.03530 -0.93782 -0.34531
vn 0.99999 -0.00010 0.00520
vn 0.99999 -0.00010 0.00520
vn 0.99999 -0.00010 0.00520
vn -0.05270 0.80961 -0.58460
vn -0.05270 0.80961 -0.58460
vn -0.05270 0.80961 -0.58460
vn -0.81837 -0.14279 -0.55668
vn -0.81837 -0.14279 -0.55668
vn -0.81837 -0.14279 -0.55668
vn 0.00000 -0.89409 0.44789
vn 0.00000 -0.89409 0.44789
vn 0.00000 -0.89409 0.44789
vn 0.99996 0.00030 0.00880
vn 0.99996 0.00030 0.00880
vn 0.99996 0.00030 0.00880
vn -0.50650 -0.08840 0.85770
vn -0.50650 -0.08840 0.85770
vn -0.50650 -0.08840 0.85770
vn 0.00000 0.51411 0.85772
vn 0.00000 0.51411 0.85772
vn 0.00000 0.51411 0.85772
vn -0.51392 0.06160 0.85563
vn -0.51392 0.06160 0.85563
vn -0.51392 0.06160 0.85563
vn 0.62062 -0.73833 -0.26401
vn 0.62062 -0.73833 -0.26401
vn 0.62062 -0.73833 -0.26401
vn -0.01680 -0.94865 -0.31588
vn -0.01680 -0.94865 -0.31588
vn -0.01680 -0.94865 -0.31588
vn 0.36282 -0.84724 -0.38802
vn 0.36282 -0.84724 -0.38802
vn 0.36282 -0.84724 -0.38802
vn 0.68818 -0.64868 0.32499
vn 0.68818 -0.64868 0.32499
vn 0.68818 -0.64868 0.32499
vn 0.00000 -0.89409 0.44789
vn 0.00000 -0.89409 0.44789
vn 0.00000 -0.89409 0.44789
vn 0.48520 -0.87440 -0.00000
vn 0.48520 -0.87440 -0.00000
vn 0.48520 -0.87440 -0.00000
vn -0.00000 -1.00000 0.00000
vn -0.00000 -1.00000 0.00000
vn -0.00000 -1.00000 0.00000
vn 0.45559 -0.88928 0.04020
vn 0.45559 -0.88928 0.04020
vn 0.45559 -0.88928 0.04020
vn 0.99308 -0.11740 -0.00110
vn 0.99308 -0.11740 -0.00110
vn 0.99308 -0.11740 -0.00110
vn 1.00000 -0.00000 -0.00000
vn 1.00000 -0.00000 -0.00000
vn 1.00000 -0.00000 -0.00000
vn 0.99718 -0.07490 0.00480
vn 0.99718 -0.07490 0.00480
vn 0.99718 -0.07490 0.00480
vn 0.99999 -0.00010 0.00530
vn 0.99999 -0.00010 0.00530
vn 0.99999 -0.00010 0.00530
vn 0.99166 -0.12860 0.00800
vn 0.99166 -0.12860 0.00800
vn 0.99166 -0.12860 0.00800
vn 0.99998 0.00020 0.00580
vn 0.99998 0.00020 0.00580
vn 0.99998 0.00020 0.00580
vn 1.00000 -0.00000 -0.00000
vn 1.00000 -0.00000 -0.00000
vn 1.00000 -0.00000 -0.00000
vn 0.00000 -0.00000 1.00000
vn 0.00000 -0.00000 1.00000
vn 0.00000 -0.00000 1.00000
vn -1.00000 -0.00000 -0.00000
vn -1.00000 -0.00000 -0.00000
vn -1.00000 -0.00000 -0.00000
vn 0.00000 -0.00000 -1.00000
vn 0.00000 -0.00000 -1.00000
vn 0.00000 -0.00000 -1.00000
vn 0.00000 1.00000 -0.00000
vn 0.00000 1.00000 -0.00000
vn 0.00000 1.00000 -0.00000
vn 0.00000 -1.00000 0.00000
vn 0.00000 -1.00000 0.00000
vn 0.00000 -1.00000 0.00000
vn 0.35158 0.93616 -0.00000
vn 0.35158 0.93616 -0.00000
vn 0.35158 0.93616 -0.00000
vn 0.00000 0.56381 0.82591
vn 0.00000 0.56381 0.82591
vn 0.00000 0.56381 0.82591
vn -0.99929 0.03770 -0.00000
vn -0.99929 0.03770 -0.00000
vn -0.99929 0.03770 -0.00000
vn 0.06790 -0.65472 -0.75282
vn 0.06790 -0.65472 -0.75282
vn 0.06790 -0.65472 -0.75282
vn 0.08850 -0.01540 -0.99596
vn 0.08850 -0.01540 -0.99596
vn 0.08850 -0.01540 -0.99596
vn 0.10150 0.02950 -0.99440
vn 0.10150 0.02950 -0.99440
vn 0.10150 0.02950 -0.99440
vn 0.06760 0.03800 -0.99699
vn 0.06760 0.03800 -0.99699
vn 0.06760 0.03800 -0.99699
vn 0.99837 0.05700 -0.00000
vn 0.99837 0.05700 -0.00000
vn 0.99837 0.05700 -0.00000
vn 0.00000 -0.00000 1.00000
vn 0.00000 -0.00000 1.00000
vn 0.00000 -0.00000 1.00000
vn 0.01030 0.03420 0.99936
vn 0.01030 0.03420 0.99936
vn 0.01030 0.03420 0.99936
vn 0.00210 0.03820 0.99927
vn 0.00210 0.03820 0.99927
vn 0.00210 0.03820 0.99927
vn -1.00000 -0.00000 -0.00000
vn -1.00000 -0.00000 -0.00000
vn -1.00000 -0.00000 -0.00000
vn 0.98511 -0.17190 -0.00000
vn 0.98511 -0.17190 -0.00000
vn 0.98511 -0.17190 -0.00000
vn 0.89537 0.05110 -0.44238
vn 0.89537 0.05110 -0.44238
vn 0.89537 0.05110 -0.44238
vn 0.00000 -0.89681 -0.44241
vn 0.00000 -0.89681 -0.44241
vn 0.00000 -0.89681 -0.44241
vn -0.99999 0.00020 0.00500
vn -0.99999 0.00020 0.00500
vn -0.99999 0.00020 0.00500
vn 0.05270 0.80961 -0.58460
vn 0.05270 0.80961 -0.58460
vn 0.05270 0.80961 -0.58460
vn 0.81837 -0.14279 -0.55668
vn 0.81837 -0.14279 -0.55668
vn 0.81837 -0.14279 -0.55668
vn 0.00000 -0.89409 0.44789
vn 0.00000 -0.89409 0.44789
vn 0.00000 -0.89409 0.44789
vn -0.99987 -0.00000 0.01610
vn -0.99987 -0.00000 0.01610
vn -0.99987 -0.00000 0.01610
vn 0.50650 -0.08840 0.85770
vn 0.50650 -0.08840 0.85770
vn 0.50650 -0.08840 0.85770
vn 0.00000 0.51411 0.85772
vn 0.00000 0.51411 0.85772
vn 0.00000 0.51411 0.85772
vn 0.74448 0.04250 0.66629
vn 0.74448 0.04250 0.66629
vn 0.74448 0.04250 0.66629
vn -0.63918 -0.72808 -0.24769
vn -0.63918 -0.72808 -0.24769
vn -0.63918 -0.72808 -0.24769
vn 0.01680 -0.94865 -0.31588
vn 0.01680 -0.94865 -0.31588
vn 0.01680 -0.94865 -0.31588
vn -0.36282 -0.84724 -0.38802
vn -0.36282 -0.84724 -0.38802
vn -0.36282 -0.84724 -0.38802
vn -0.68818 -0.64868 0.32499
vn -0.68818 -0.64868 0.32499
vn -0.68818 -0.64868 0.32499
vn 0.00000 -0.89409 0.44789
vn 0.00000 -0.89409 0.44789
vn 0.00000 -0.89409 0.44789
vn -0.48520 -0.87440 -0.00000
vn -0.48520 -0.87440 -0.00000
vn -0.48520 -0.87440 -0.00000
vn 0.00000 -1.00000 0.00000
vn 0.00000 -1.00000 0.00000
vn 0.00000 -1.00000 0.00000
vn -0.39869 -0.87448 0.27629
vn -0.39869 -0.87448 0.27629
vn -0.39869 -0.87448 0.27629
vn -0.99630 -0.08600 -0.00020
vn -0.99630 -0.08600 -0.00020
vn -0.99630 -0.08600 -0.00020
vn -1.00000 -0.00000 -0.00000
vn -1.00000 -0.00000 -0.00000
vn -1.00000 -0.00000 -0.00000
vn -0.99718 -0.07490 0.00480
vn -0.99718 -0.07490 0.00480
vn -0.99718 -0.07490 0.00480
vn -0.99994 0.00040 0.01060
vn -0.99994 0.00040 0.01060
vn -0.99994 0.00040 0.01060
vn -0.99092 -0.13430 0.00580
vn -0.99092 -0.13430 0.00580
vn -0.99092 -0.13430 0.00580
vn -0.99998 -0.00000 0.00560
vn -0.99998 -0.00000 0.00560
vn -0.99998 -0.00000 0.00560
f 1/1/1 2/2/2 3/3/3
f 4/4/4 5/5/5 6/6/6
f 7/7/7 8/8/8 9/9/9
f 10/10/10 11/11/11 12/12/12
f 13/13/13 14/14/14 15/15/15
f 16/16/16 17/17/17 18/18/18
f 19/19/19 20/20/20 21/21/21
f 22/22/22 23/23/23 24/24/24
f 25/25/25 26/26/26 27/27/27
f 28/28/28 29/29/29 30/30/30
f 31/31/31 32/32/32 33/33/33
f 34/34/34 35/35/35 36/36/36
f 37/37/37 38/38/38 39/39/39
f 40/40/40 41/41/41 42/42/42
f 43/43/43 44/44/44 45/45/45
f 46/46/46 47/47/47 48/48/48
f 49/49/49 50/50/50 51/51/51
f 52/52/52 53/53/53 54/54/54
f 55/55/55 56/56/56 57/57/57
f 58/58/58 59/59/59 60/60/60
f 61/61/61 62/62/62 63/63/63
f 64/64/64 65/65/65 66/66/66
f 67/67/67 68/68/68 69/69/69
f 70/70/70 71/71/71 72/72/72
f 73/73/73 74/74/74 75/75/75
f 76/76/76 77/77/77 78/78/78
f 79/79/79 80/80/80 81/81/81
f 82/82/82 83/83/83 84/84/84
f 85/85/85 86/86/86 87/87/87
f 88/88/88 89/89/89 90/90/90
f 91/91/91 92/92/92 93/93/93
f 94/94/94 95/95/95 96/96/96
f 97/97/97 98/98/98 99/99/99
f 100/100/100 101/101/101 102/102/102
f 103/103/103 104/104/104 105/105/105
f 106/106/106 107/107/107 108/108/108
f 109/109/109 110/110/110 111/111/111
f 112/112/112 113/113/113 114/114/114
f 115/115/115 116/116/116 117/117/117
f 118/118/118 119/119/119 120/120/120
f 121/121/121 122/122/122 123/123/123
f 124/124/124 125/125/125 126/126/126
f 127/127/127 128/128/128 129/129/129
f 130/130/130 131/131/131 132/132/132
f 133/133/133 134/134/134 135/135/135
f 136/136/136 137/137/137 138/138/138
f 139/139/139 140/140/140 141/141/141
f 142/142/142 143/143/143 144/144/144
f 145/145/145 146/146/146 147/147/147
f 148/148/148 149/149/149 150/150/150
f 151/151/151 152/152/152 153/153/153
f 154/154/154 155/155/155 156/156/156
f 157/157/157 158/158/158 159/159/159
f 160/160/160 161/161/161 162/162/162
f 163/163/163 164/164/164 165/165/165
f 166/166/166 167/167/167 168/168/168
f 169/169/169 170/170/170 171/171/171
f 172/172/172 173/173/173 174/174/174
f 175/175/175 176/176/176 177/177/177
f 178/178/178 179/179/179 180/180/180
f 181/181/181 182/182/182 183/183/183
f 184/184/184 185/185/185 186/186/186
f 187/187/187 188/188/188 189/189/189
f 190/190/190 191/191/191 192/192/192
f 193/193/193 194/194/194 195/195/195
f 196/196/196 197/197/197 198/198/198
f 199/199/199 200/200/200 201/201/201
f 202/202/202 203/203/203 204/204/204
f 205/205/205 206/206/206 207/207/207
f 208/208/208 209/209/209 210/210/210
f 211/211/211 212/212/212 213/213/213
f 214/214/214 215/215/215 216/216/216
f 217/217/217 218/218/218 219/219/219
f 220/220/220 221/221/221 222/222/222
f 223/223/223 224/224/224 225/225/225
f 226/226/226 227/227/227 228/228/228
f 229/229/229 230/230/230 231/231/231
f 232/232/232 233/233/233 234/234/234
f 235/235/235 236/236/236 237/237/237
f 238/238/238 239/239/239 240/240/240
f 241/241/241 242/242/242 243/243/243
f 244/244/244 245/245/245 246/246/246
f 247/247/247 248/248/248 249/249/249
f 250/250/250 251/251/251 252/252/252
f 253/253/253 254/254/254 255/255/255
f 256/256/256 257/257/257 258/258/258
f 259/259/259 260/260/260 261/261/261
f 262/262/262 263/263/263 264/264/264
f 265/265/265 266/266/266 267/267/267
f 268/268/268 269/269/269 270/270/270
f 271/271/271 272/272/272 273/273/273
f 274/274/274 275/275/275 276/276/276
f 277/277/277 278/278/278 279/279/279
f 280/280/280 281/281/281 282/282/282
f 283/283/283 284/284/284 285/285/285
f 286/286/286 287/287/287 288/288/288
f 289/289/289 290/290/290 291/291/291
f 292/292/292 293/293/293 294/294/294
f 295/295/295 296/296/296 297/297/297
f 298/298/298 299/299/299 300/300/300
f 301/301/301 302/302/302 303/303/303
f 304/304/304 305/305/305 306/306/306
f 307/307/307 308/308/308 309/309/309
f 310/310/310 311/311/311 312/312/312
f 313/313/313 314/314/314 315/315/315
f 316/316/316 317/317/317 318/318/318
f 319/319/319 320/320/320 321/321/321
f 322/322/322 323/323/323 324/324/324
f 325/325/325 326/326/326 327/327/327
f 328/328/328 329/329/329 330/330/330
f 331/331/331 332/332/332 333/333/333
f 334/334/334 335/335/335 336/336/336
f 337/337/337 338/338/338 339/339/339
f 340/340/340 341/341/341 342/342/342
f 343/343/343 344/344/344 345/345/345
f 346/346/346 347/347/347 348/348/348
f 349/349/349 350/350/350 351/351/351
f 352/352/352 353/353/353 354/354/354
f 355/355/355 356/356/356 357/357/357
f 358/358/358 359/359/359 360/360/360
f 361/361/361 362/362/362 363/363/363
f 364/364/364 365/365/365 366/366/366
f 367/367/367 368/368/368 369/369/369
f 370/370/370 371/371/371 372/372/372
f 373/373/373 374/374/374 375/375/375
f 376/376/376 377/377/377 378/378/378
f 379/379/379 380/380/380 381/381/381
f 382/382/382 383/383/383 384/384/384
f 385/385/385 386/386/386 387/387/387
f 388/388/388 389/389/389 390/390/390
f 391/391/391 392/392/392 393/393/393
f 394/394/394 395/395/395 396/396/396
f 397/397/397 398/398/398 399/399/399
f 400/400/400 401/401/401 402/402/402
f 403/403/403 404/404/404 405/405/405
f 406/406/406 407/407/407 408/408/408
f 409/409/409 410/410/410 411/411/411
f 412/412/412 413/413/413 414/414/414
f 415/415/415 416/416/416 417/417/417
f 418/418/418 419/419/419 420/420/420
f 421/421/421 422/422/422 423/423/423
f 424/424/424 425/425/425 426/426/426
f 427/427/427 428/428/428 429/429/429
f 430/430/430 431/431/431 432/432/432
f 433/433/433 434/434/434 435/435/435
f 436/436/436 437/437/437 438/438/438
f 439/439/439 440/440/440 441/441/441
f 442/442/442 443/443/443 444/444/444
f 445/445/445 446/446/446 447/447/447
f 448/448/448 449/449/449 450/450/450
f 451/451/451 452/452/452 453/453/453
f 454/454/454 455/455/455 456/456/456
f 457/457/457 458/458/458 459/459/459
f 460/460/460 461/461/461 462/462/462
f 463/463/463 464/464/464 465/465/465
f 466/466/466 467/467/467 468/468/468
f 469/469/469 470/470/470 471/471/471
f 472/472/472 473/473/473 474/474/474
f 475/475/475 476/476/476 477/477/477
f 478/478/478 479/479/479 480/480/480
f 481/481/481 482/482/482 483/483/483
f 484/484/484 485/485/485 486/486/486
f 487/487/487 488/488/488 489/489/489
f 490/490/490 491/491/491 492/492/492
f 493/493/493 494/494/494 495/495/495
f 496/496/496 497/497/497 498/498/498
f 499/499/499 500/500/500 501/501/501
f 502/502/502 503/503/503 504/504/504
