# STALKER Armor converted geometry (MC model units, pivot-relative)
v 2.30000 -0.30000 2.30000
v 2.30000 12.30000 -2.30000
v 2.30000 12.30000 2.30000
v 2.30000 -0.30000 -2.30000
v -2.30000 12.30000 -2.30000
v 2.30000 12.30000 -2.30000
v -2.30000 -0.30000 -2.30000
v -2.30000 12.30000 2.30000
v -2.30000 12.30000 -2.30000
v -2.30000 -0.30000 2.30000
v 2.30000 12.30000 2.30000
v -2.30000 12.30000 2.30000
v -2.30000 12.30000 -2.30000
v 2.30000 12.30000 2.30000
v 2.30000 12.30000 -2.30000
v 2.30000 -0.30000 -2.30000
v -2.30000 -0.30000 2.30000
v -2.30000 -0.30000 -2.30000
v 2.30000 -0.30000 2.30000
v 2.30000 -0.30000 -2.30000
v 2.30000 12.30000 -2.30000
v 2.30000 -0.30000 -2.30000
v -2.30000 -0.30000 -2.30000
v -2.30000 12.30000 -2.30000
v -2.30000 -0.30000 -2.30000
v -2.30000 -0.30000 2.30000
v -2.30000 12.30000 2.30000
v -2.30000 -0.30000 2.30000
v 2.30000 -0.30000 2.30000
v 2.30000 12.30000 2.30000
v -2.30000 12.30000 -2.30000
v -2.30000 12.30000 2.30000
v 2.30000 12.30000 2.30000
v 2.30000 -0.30000 -2.30000
v 2.30000 -0.30000 2.30000
v -2.30000 -0.30000 2.30000
vt 0.38211 0.52696
vt 0.18034 0.02570
vt 0.38191 0.02562
vt 0.01055 0.52428
vt 0.19676 0.00852
vt 0.00551 0.01013
vt 0.17653 0.52463
vt 0.38467 0.02355
vt 0.18171 0.02150
vt 0.25860 0.52967
vt 0.43362 0.01310
vt 0.25860 0.01310
vt 0.35099 0.27378
vt 0.26136 0.36341
vt 0.26136 0.27378
vt 0.33877 0.28182
vt 0.25979 0.36080
vt 0.25979 0.28182
vt 0.38211 0.52696
vt 0.18054 0.52704
vt 0.18034 0.02570
vt 0.01055 0.52428
vt 0.20181 0.52268
vt 0.19676 0.00852
vt 0.17653 0.52463
vt 0.37949 0.52668
vt 0.38467 0.02355
vt 0.25860 0.52967
vt 0.43362 0.52967
vt 0.43362 0.01310
vt 0.35099 0.27378
vt 0.35099 0.36341
vt 0.26136 0.36341
vt 0.33877 0.28182
vt 0.33877 0.36080
vt 0.25979 0.36080
vn 1.00000 -0.00000 0.00000
vn 1.00000 -0.00000 0.00000
vn 1.00000 -0.00000 0.00000
vn 0.00000 -0.00000 -1.00000
vn 0.00000 -0.00000 -1.00000
vn 0.00000 -0.00000 -1.00000
vn -1.00000 -0.00000 -0.00000
vn -1.00000 -0.00000 -0.00000
vn -1.00000 -0.00000 -0.00000
vn 0.00000 -0.00000 1.00000
vn 0.00000 -0.00000 1.00000
vn 0.00000 -0.00000 1.00000
vn 0.00000 1.00000 -0.00000
vn 0.00000 1.00000 -0.00000
vn 0.00000 1.00000 -0.00000
vn 0.00000 -1.00000 0.00000
vn 0.00000 -1.00000 0.00000
vn 0.00000 -1.00000 0.00000
vn 1.00000 -0.00000 0.00000
vn 1.00000 -0.00000 0.00000
vn 1.00000 -0.00000 0.00000
vn 0.00000 -0.00000 -1.00000
vn 0.00000 -0.00000 -1.00000
vn 0.00000 -0.00000 -1.00000
vn -1.00000 -0.00000 -0.00000
vn -1.00000 -0.00000 -0.00000
vn -1.00000 -0.00000 -0.00000
vn 0.00000 -0.00000 1.00000
vn 0.00000 -0.00000 1.00000
vn 0.00000 -0.00000 1.00000
vn 0.00000 1.00000 -0.00000
vn 0.00000 1.00000 -0.00000
vn 0.00000 1.00000 -0.00000
vn 0.00000 -1.00000 0.00000
vn 0.00000 -1.00000 0.00000
vn 0.00000 -1.00000 0.00000
f 1/1/1 2/2/2 3/3/3
f 4/4/4 5/5/5 6/6/6
f 7/7/7 8/8/8 9/9/9
f 10/10/10 11/11/11 12/12/12
f 13/13/13 14/14/14 15/15/15
f 16/16/16 17/17/17 18/18/18
f 19/19/19 20/20/20 21/21/21
f 22/22/22 23/23/23 24/24/24
f 25/25/25 26/26/26 27/27/27
f 28/28/28 29/29/29 30/30/30
f 31/31/31 32/32/32 33/33/33
f 34/34/34 35/35/35 36/36/36
