# STALKER Armor converted geometry (MC model units, pivot-relative)
v 2.30000 -2.30000 -2.30000
v -2.30000 10.30000 -2.30000
v 2.30000 10.30000 -2.30000
v -2.30000 -2.30000 -2.30000
v -2.30000 10.30000 2.30000
v -2.30000 10.30000 -2.30000
v -2.30000 -2.30000 2.30000
v 2.30000 10.30000 2.30000
v -2.30000 10.30000 2.30000
v 2.30000 -2.30000 2.30000
v 2.30000 10.30000 -2.30000
v 2.30000 10.30000 2.30000
v -2.30000 10.30000 2.30000
v 2.30000 10.30000 -2.30000
v -2.30000 10.30000 -2.30000
v -2.30000 -2.30000 -2.30000
v 2.30000 -2.30000 2.30000
v -2.30000 -2.30000 2.30000
v 2.30000 -2.30000 -2.30000
v -2.30000 -2.30000 -2.30000
v -2.30000 10.30000 -2.30000
v -2.30000 -2.30000 -2.30000
v -2.30000 -2.30000 2.30000
v -2.30000 10.30000 2.30000
v -2.30000 -2.30000 2.30000
v 2.30000 -2.30000 2.30000
v 2.30000 10.30000 2.30000
v 2.30000 -2.30000 2.30000
v 2.30000 -2.30000 -2.30000
v 2.30000 10.30000 -2.30000
v -2.30000 10.30000 2.30000
v 2.30000 10.30000 2.30000
v 2.30000 10.30000 -2.30000
v -2.30000 -2.30000 -2.30000
v 2.30000 -2.30000 -2.30000
v 2.30000 -2.30000 2.30000
vt 0.70039 0.18253
vt 0.99067 0.06816
vt 0.99006 0.18403
vt 0.54587 0.59533
vt 0.50109 0.13173
vt 0.64846 0.16702
vt 0.69985 0.18579
vt 0.99368 0.06992
vt 0.99311 0.18722
vt 0.23109 0.54622
vt 0.01997 0.19099
vt 0.16150 0.16515
vt 0.18433 0.82455
vt 0.02388 0.98500
vt 0.02388 0.82455
vt 0.17022 0.83712
vt 0.03171 0.97562
vt 0.03171 0.83712
vt 0.70039 0.18253
vt 0.70099 0.06666
vt 0.99067 0.06816
vt 0.54587 0.59533
vt 0.39850 0.56004
vt 0.50109 0.13173
vt 0.69985 0.18579
vt 0.70042 0.06848
vt 0.99368 0.06992
vt 0.23109 0.54622
vt 0.08955 0.57206
vt 0.01997 0.19099
vt 0.18433 0.82455
vt 0.18433 0.98500
vt 0.02388 0.98500
vt 0.17022 0.83712
vt 0.17022 0.97562
vt 0.03171 0.97562
vn 0.00000 -0.00000 -1.00000
vn 0.00000 -0.00000 -1.00000
vn 0.00000 -0.00000 -1.00000
vn -1.00000 -0.00000 -0.00000
vn -1.00000 -0.00000 -0.00000
vn -1.00000 -0.00000 -0.00000
vn -0.00000 -0.00000 1.00000
vn -0.00000 -0.00000 1.00000
vn -0.00000 -0.00000 1.00000
vn 1.00000 -0.00000 0.00000
vn 1.00000 -0.00000 0.00000
vn 1.00000 -0.00000 0.00000
vn 0.00000 1.00000 -0.00000
vn 0.00000 1.00000 -0.00000
vn 0.00000 1.00000 -0.00000
vn 0.00000 -1.00000 0.00000
vn 0.00000 -1.00000 0.00000
vn 0.00000 -1.00000 0.00000
vn 0.00000 -0.00000 -1.00000
vn 0.00000 -0.00000 -1.00000
vn 0.00000 -0.00000 -1.00000
vn -1.00000 -0.00000 -0.00000
vn -1.00000 -0.00000 -0.00000
vn -1.00000 -0.00000 -0.00000
vn -0.00000 -0.00000 1.00000
vn -0.00000 -0.00000 1.00000
vn -0.00000 -0.00000 1.00000
vn 1.00000 -0.00000 0.00000
vn 1.00000 -0.00000 0.00000
vn 1.00000 -0.00000 0.00000
vn 0.00000 1.00000 -0.00000
vn 0.00000 1.00000 -0.00000
vn 0.00000 1.00000 -0.00000
vn 0.00000 -1.00000 0.00000
vn 0.00000 -1.00000 0.00000
vn 0.00000 -1.00000 0.00000
f 1/1/1 2/2/2 3/3/3
f 4/4/4 5/5/5 6/6/6
f 7/7/7 8/8/8 9/9/9
f 10/10/10 11/11/11 12/12/12
f 13/13/13 14/14/14 15/15/15
f 16/16/16 17/17/17 18/18/18
f 19/19/19 20/20/20 21/21/21
f 22/22/22 23/23/23 24/24/24
f 25/25/25 26/26/26 27/27/27
f 28/28/28 29/29/29 30/30/30
f 31/31/31 32/32/32 33/33/33
f 34/34/34 35/35/35 36/36/36
