# STALKER Armor converted geometry (MC model units, pivot-relative)
v 1.48625 5.09409 2.94476
v 1.48486 9.07200 2.64101
v 1.32608 5.14395 2.64101
v 3.76442 0.97289 2.94476
v 3.76442 13.25610 -2.03179
v 3.76442 13.25610 2.94476
v 3.76442 0.97289 -2.03179
v -0.01350 13.25610 -2.03179
v 3.76442 13.25610 -2.03179
v 0.33054 0.97289 2.94476
v -0.01350 0.97289 -2.03179
v 3.76442 0.97289 -2.03179
v 1.67049 9.12164 2.94476
v 1.48625 5.09409 2.94476
v 3.76442 0.97289 2.94476
v -0.01910 13.10432 2.64101
v 1.54479 10.74589 2.64101
v 1.62922 13.10432 2.64101
v 1.83798 13.25610 2.94476
v 1.62922 13.10432 2.64101
v 1.54479 10.74589 2.64101
v 0.33054 0.97289 2.94476
v 1.32608 5.14395 2.64101
v 0.33004 1.12456 2.64101
v -0.01350 0.97289 2.94476
v 0.33004 1.12456 2.64101
v -0.01910 1.12456 2.64101
v 1.62922 13.10432 2.64101
v 1.83798 13.25610 2.94476
v 3.76442 13.25610 2.94476
v -0.01910 10.74589 2.64101
v 1.52699 10.24882 2.64101
v 1.54479 10.74589 2.64101
v 1.32608 5.14395 2.64101
v 1.48486 9.07200 2.64101
v -0.01910 10.24882 2.64101
v -1.48625 5.09409 2.94476
v -1.48486 9.07200 2.64101
v -1.67049 9.12164 2.94476
v -3.76442 13.25610 -2.03179
v -3.76442 0.97289 2.94476
v -3.76442 13.25610 2.94476
v 0.01350 13.25610 -2.03179
v -3.76442 0.97289 -2.03179
v -3.76442 13.25610 -2.03179
v 0.01350 0.97289 -2.03179
v 0.01350 0.97289 2.94476
v -0.33054 0.97289 2.94476
v -1.67049 9.12164 2.94476
v -3.76442 13.25610 2.94476
v -3.76442 0.97289 2.94476
v 0.01910 13.10432 2.64101
v -1.54479 10.74589 2.64101
v 0.01910 10.74589 2.64101
v -1.54479 10.74589 2.64101
v -1.62922 13.10432 2.64101
v -1.83798 13.25610 2.94476
v -0.33054 0.97289 2.94476
v -1.32608 5.14395 2.64101
v -1.48625 5.09409 2.94476
v 0.01350 0.97289 2.94476
v -0.33004 1.12456 2.64101
v -0.33054 0.97289 2.94476
v -1.62922 13.10432 2.64101
v 0.01910 13.10432 2.64101
v 0.01350 13.25610 -2.03179
v -1.52699 10.24882 2.64101
v 0.01910 10.74589 2.64101
v -1.54479 10.74589 2.64101
v 0.01910 10.24882 2.64101
v -1.32608 5.14395 2.64101
v 0.01910 1.12456 2.64101
v 1.48625 5.09409 2.94476
v 1.67049 9.12164 2.94476
v 1.48486 9.07200 2.64101
v 3.76442 0.97289 2.94476
v 3.76442 0.97289 -2.03179
v 3.76442 13.25610 -2.03179
v 3.76442 0.97289 -2.03179
v -0.01350 0.97289 -2.03179
v -0.01350 13.25610 -2.03179
v 3.76442 0.97289 -2.03179
v 3.76442 0.97289 2.94476
v 0.33054 0.97289 2.94476
v 0.33054 0.97289 2.94476
v -0.01350 0.97289 2.94476
v -0.01350 0.97289 -2.03179
v 3.76442 13.25610 2.94476
v 1.83798 13.25610 2.94476
v 1.67049 9.12164 2.94476
v 1.48625 5.09409 2.94476
v 0.33054 0.97289 2.94476
v 3.76442 0.97289 2.94476
v 3.76442 13.25610 2.94476
v 1.67049 9.12164 2.94476
v 3.76442 0.97289 2.94476
v -0.01910 13.10432 2.64101
v -0.01910 10.74589 2.64101
v 1.54479 10.74589 2.64101
v 1.48486 9.07200 2.64101
v 1.67049 9.12164 2.94476
v 1.52699 10.24882 2.64101
v 1.67049 9.12164 2.94476
v 1.83798 13.25610 2.94476
v 1.54479 10.74589 2.64101
v 1.52699 10.24882 2.64101
v 1.67049 9.12164 2.94476
v 1.54479 10.74589 2.64101
v 0.33054 0.97289 2.94476
v 1.48625 5.09409 2.94476
v 1.32608 5.14395 2.64101
v -0.01350 0.97289 2.94476
v 0.33054 0.97289 2.94476
v 0.33004 1.12456 2.64101
v 3.76442 13.25610 2.94476
v 3.76442 13.25610 -2.03179
v 1.62922 13.10432 2.64101
v 3.76442 13.25610 -2.03179
v -0.01350 13.25610 -2.03179
v 1.62922 13.10432 2.64101
v -0.01350 13.25610 -2.03179
v -0.01910 13.10432 2.64101
v 1.62922 13.10432 2.64101
v -0.01910 10.74589 2.64101
v -0.01910 10.24882 2.64101
v 1.52699 10.24882 2.64101
v 1.48486 9.07200 2.64101
v 1.52699 10.24882 2.64101
v -0.01910 10.24882 2.64101
v -0.01910 10.24882 2.64101
v -0.01910 1.12456 2.64101
v 1.32608 5.14395 2.64101
v -0.01910 1.12456 2.64101
v 0.33004 1.12456 2.64101
v 1.32608 5.14395 2.64101
v -1.48625 5.09409 2.94476
v -1.32608 5.14395 2.64101
v -1.48486 9.07200 2.64101
v -3.76442 13.25610 -2.03179
v -3.76442 0.97289 -2.03179
v -3.76442 0.97289 2.94476
v 0.01350 13.25610 -2.03179
v 0.01350 0.97289 -2.03179
v -3.76442 0.97289 -2.03179
v -0.33054 0.97289 2.94476
v -3.76442 0.97289 2.94476
v -3.76442 0.97289 -2.03179
v -3.76442 0.97289 -2.03179
v 0.01350 0.97289 -2.03179
v -0.33054 0.97289 2.94476
v -1.67049 9.12164 2.94476
v -1.83798 13.25610 2.94476
v -3.76442 13.25610 2.94476
v -3.76442 0.97289 2.94476
v -0.33054 0.97289 2.94476
v -1.48625 5.09409 2.94476
v -1.48625 5.09409 2.94476
v -1.67049 9.12164 2.94476
v -3.76442 0.97289 2.94476
v 0.01910 13.10432 2.64101
v -1.62922 13.10432 2.64101
v -1.54479 10.74589 2.64101
v -1.83798 13.25610 2.94476
v -1.67049 9.12164 2.94476
v -1.54479 10.74589 2.64101
v -1.67049 9.12164 2.94476
v -1.48486 9.07200 2.64101
v -1.52699 10.24882 2.64101
v -1.54479 10.74589 2.64101
v -1.67049 9.12164 2.94476
v -1.52699 10.24882 2.64101
v -0.33054 0.97289 2.94476
v -0.33004 1.12456 2.64101
v -1.32608 5.14395 2.64101
v 0.01350 0.97289 2.94476
v 0.01910 1.12456 2.64101
v -0.33004 1.12456 2.64101
v 0.01350 13.25610 -2.03179
v -3.76442 13.25610 -2.03179
v -1.62922 13.10432 2.64101
v -3.76442 13.25610 -2.03179
v -3.76442 13.25610 2.94476
v -1.62922 13.10432 2.64101
v -3.76442 13.25610 2.94476
v -1.83798 13.25610 2.94476
v -1.62922 13.10432 2.64101
v -1.52699 10.24882 2.64101
v 0.01910 10.24882 2.64101
v 0.01910 10.74589 2.64101
v 0.01910 10.24882 2.64101
v -1.52699 10.24882 2.64101
v -1.48486 9.07200 2.64101
v -1.48486 9.07200 2.64101
v -1.32608 5.14395 2.64101
v 0.01910 10.24882 2.64101
v -1.32608 5.14395 2.64101
v -0.33004 1.12456 2.64101
v 0.01910 1.12456 2.64101
vt 0.38541 0.34946
vt 0.40286 0.19464
vt 0.41235 0.34731
vt 0.46312 0.67344
vt 0.17307 0.00619
vt 0.46312 0.00619
vt 0.44016 0.46065
vt 0.22411 0.01631
vt 0.44016 0.01631
vt 0.17597 0.80128
vt 0.19136 0.97034
vt 0.02230 0.97034
vt 0.33295 0.17057
vt 0.34532 0.30531
vt 0.19234 0.42166
vt 0.91722 0.61961
vt 0.86490 0.64242
vt 0.86373 0.61119
vt 0.36440 0.03200
vt 0.39423 0.03810
vt 0.39928 0.12965
vt 0.45445 0.51969
vt 0.41235 0.34731
vt 0.47185 0.51201
vt 0.77567 0.00589
vt 0.75315 0.03892
vt 0.75315 0.00536
vt 0.27040 0.13049
vt 0.27720 0.13682
vt 0.27720 0.19516
vt 0.00399 0.71630
vt 0.08902 0.72351
vt 0.09083 0.69898
vt 0.86827 0.71670
vt 0.86573 0.66459
vt 0.91532 0.65691
vt 0.38541 0.34946
vt 0.40286 0.19464
vt 0.37440 0.19270
vt 0.17307 0.00619
vt 0.46312 0.67344
vt 0.46312 0.00619
vt 0.22411 0.01631
vt 0.44016 0.46065
vt 0.44016 0.01631
vt 0.19136 0.97034
vt 0.19136 0.80128
vt 0.17597 0.80128
vt 0.33295 0.17057
vt 0.19234 0.01561
vt 0.19234 0.42166
vt 0.91722 0.61961
vt 0.86490 0.64242
vt 0.91565 0.65041
vt 0.39928 0.12965
vt 0.39423 0.03810
vt 0.36440 0.03200
vt 0.45445 0.51969
vt 0.41235 0.34731
vt 0.38541 0.34946
vt 0.77567 0.00589
vt 0.75315 0.03892
vt 0.77567 0.03896
vt 0.27040 0.13049
vt 0.27040 0.08058
vt 0.16340 0.08071
vt 0.08902 0.72351
vt 0.00399 0.71630
vt 0.09083 0.69898
vt 0.91532 0.65691
vt 0.86827 0.71670
vt 0.90924 0.77607
vt 0.38541 0.34946
vt 0.37440 0.19270
vt 0.40286 0.19464
vt 0.46312 0.67344
vt 0.17307 0.67344
vt 0.17307 0.00619
vt 0.44016 0.46065
vt 0.22411 0.46065
vt 0.22411 0.01631
vt 0.02230 0.97034
vt 0.02230 0.80128
vt 0.17597 0.80128
vt 0.17597 0.80128
vt 0.19136 0.80128
vt 0.19136 0.97034
vt 0.19234 0.01561
vt 0.32170 0.03243
vt 0.33295 0.17057
vt 0.34532 0.30531
vt 0.42292 0.45164
vt 0.19234 0.42166
vt 0.19234 0.01561
vt 0.33295 0.17057
vt 0.19234 0.42166
vt 0.91722 0.61961
vt 0.91565 0.65041
vt 0.86490 0.64242
vt 0.40286 0.19464
vt 0.37440 0.19270
vt 0.40034 0.14895
vt 0.37440 0.19270
vt 0.36440 0.03200
vt 0.39928 0.12965
vt 0.40034 0.14895
vt 0.37440 0.19270
vt 0.39928 0.12965
vt 0.45445 0.51969
vt 0.38541 0.34946
vt 0.41235 0.34731
vt 0.77567 0.00589
vt 0.77567 0.03896
vt 0.75315 0.03892
vt 0.27720 0.19516
vt 0.16340 0.19512
vt 0.27040 0.13049
vt 0.16340 0.19512
vt 0.16340 0.08071
vt 0.27040 0.13049
vt 0.16340 0.08071
vt 0.27040 0.08058
vt 0.27040 0.13049
vt 0.00399 0.71630
vt 0.00317 0.74063
vt 0.08902 0.72351
vt 0.86573 0.66459
vt 0.86515 0.64900
vt 0.91532 0.65691
vt 0.91532 0.65691
vt 0.90924 0.77607
vt 0.86827 0.71670
vt 0.90924 0.77607
vt 0.89791 0.77428
vt 0.86827 0.71670
vt 0.38541 0.34946
vt 0.41235 0.34731
vt 0.40286 0.19464
vt 0.17307 0.00619
vt 0.17307 0.67344
vt 0.46312 0.67344
vt 0.22411 0.01631
vt 0.22411 0.46065
vt 0.44016 0.46065
vt 0.17597 0.80128
vt 0.02230 0.80128
vt 0.02230 0.97034
vt 0.02230 0.97034
vt 0.19136 0.97034
vt 0.17597 0.80128
vt 0.33295 0.17057
vt 0.32170 0.03243
vt 0.19234 0.01561
vt 0.19234 0.42166
vt 0.42292 0.45164
vt 0.34532 0.30531
vt 0.34532 0.30531
vt 0.33295 0.17057
vt 0.19234 0.42166
vt 0.91722 0.61961
vt 0.86373 0.61119
vt 0.86490 0.64242
vt 0.36440 0.03200
vt 0.37440 0.19270
vt 0.39928 0.12965
vt 0.37440 0.19270
vt 0.40286 0.19464
vt 0.40034 0.14895
vt 0.39928 0.12965
vt 0.37440 0.19270
vt 0.40034 0.14895
vt 0.45445 0.51969
vt 0.47185 0.51201
vt 0.41235 0.34731
vt 0.77567 0.00589
vt 0.75315 0.00536
vt 0.75315 0.03892
vt 0.16340 0.08071
vt 0.16340 0.19512
vt 0.27040 0.13049
vt 0.16340 0.19512
vt 0.27720 0.19516
vt 0.27040 0.13049
vt 0.27720 0.19516
vt 0.27720 0.13682
vt 0.27040 0.13049
vt 0.08902 0.72351
vt 0.00317 0.74063
vt 0.00399 0.71630
vt 0.91532 0.65691
vt 0.86515 0.64900
vt 0.86573 0.66459
vt 0.86573 0.66459
vt 0.86827 0.71670
vt 0.91532 0.65691
vt 0.86827 0.71670
vt 0.89791 0.77428
vt 0.90924 0.77607
vn -0.87068 0.03390 0.49069
vn -0.87068 0.03390 0.49069
vn -0.87068 0.03390 0.49069
vn 1.00000 -0.00000 -0.00000
vn 1.00000 -0.00000 -0.00000
vn 1.00000 -0.00000 -0.00000
vn 0.00000 -0.00000 -1.00000
vn 0.00000 -0.00000 -1.00000
vn 0.00000 -0.00000 -1.00000
vn 0.00000 -1.00000 -0.00000
vn 0.00000 -1.00000 -0.00000
vn 0.00000 -1.00000 -0.00000
vn -0.00000 -0.00000 1.00000
vn -0.00000 -0.00000 1.00000
vn -0.00000 -0.00000 1.00000
vn -0.00000 -0.00000 1.00000
vn -0.00000 -0.00000 1.00000
vn -0.00000 -0.00000 1.00000
vn -0.81640 0.02810 0.57680
vn -0.81640 0.02810 0.57680
vn -0.81640 0.02810 0.57680
vn -0.96478 0.22999 0.12770
vn -0.96478 0.22999 0.12770
vn -0.96478 0.22999 0.12770
vn 0.00000 0.87700 0.48050
vn 0.00000 0.87700 0.48050
vn 0.00000 0.87700 0.48050
vn 0.00000 0.87682 -0.48081
vn 0.00000 0.87682 -0.48081
vn 0.00000 0.87682 -0.48081
vn -0.00000 -0.00000 1.00000
vn -0.00000 -0.00000 1.00000
vn -0.00000 -0.00000 1.00000
vn -0.00000 -0.00000 1.00000
vn -0.00000 -0.00000 1.00000
vn -0.00000 -0.00000 1.00000
vn 0.84278 0.03710 0.53698
vn 0.84278 0.03710 0.53698
vn 0.84278 0.03710 0.53698
vn -1.00000 -0.00000 -0.00000
vn -1.00000 -0.00000 -0.00000
vn -1.00000 -0.00000 -0.00000
vn 0.00000 -0.00000 -1.00000
vn 0.00000 -0.00000 -1.00000
vn 0.00000 -0.00000 -1.00000
vn 0.00000 -1.00000 0.00000
vn 0.00000 -1.00000 0.00000
vn 0.00000 -1.00000 0.00000
vn -0.00000 -0.00000 1.00000
vn -0.00000 -0.00000 1.00000
vn -0.00000 -0.00000 1.00000
vn -0.00000 -0.00000 1.00000
vn -0.00000 -0.00000 1.00000
vn -0.00000 -0.00000 1.00000
vn 0.81640 0.02810 0.57680
vn 0.81640 0.02810 0.57680
vn 0.81640 0.02810 0.57680
vn 0.83360 0.22490 0.50450
vn 0.83360 0.22490 0.50450
vn 0.83360 0.22490 0.50450
vn 0.00000 0.87700 0.48050
vn 0.00000 0.87700 0.48050
vn 0.00000 0.87700 0.48050
vn 0.00000 0.99937 0.03560
vn 0.00000 0.99937 0.03560
vn 0.00000 0.99937 0.03560
vn -0.00000 -0.00000 1.00000
vn -0.00000 -0.00000 1.00000
vn -0.00000 -0.00000 1.00000
vn -0.00000 -0.00000 1.00000
vn -0.00000 -0.00000 1.00000
vn -0.00000 -0.00000 1.00000
vn -0.84278 0.03710 0.53698
vn -0.84278 0.03710 0.53698
vn -0.84278 0.03710 0.53698
vn 1.00000 -0.00000 -0.00000
vn 1.00000 -0.00000 -0.00000
vn 1.00000 -0.00000 -0.00000
vn 0.00000 -0.00000 -1.00000
vn 0.00000 -0.00000 -1.00000
vn 0.00000 -0.00000 -1.00000
vn 0.00000 -1.00000 0.00000
vn 0.00000 -1.00000 0.00000
vn 0.00000 -1.00000 0.00000
vn -0.00000 -1.00000 0.00000
vn -0.00000 -1.00000 0.00000
vn -0.00000 -1.00000 0.00000
vn -0.00000 -0.00000 1.00000
vn -0.00000 -0.00000 1.00000
vn -0.00000 -0.00000 1.00000
vn -0.00000 -0.00000 1.00000
vn -0.00000 -0.00000 1.00000
vn -0.00000 -0.00000 1.00000
vn -0.00000 -0.00000 1.00000
vn -0.00000 -0.00000 1.00000
vn -0.00000 -0.00000 1.00000
vn -0.00000 -0.00000 1.00000
vn -0.00000 -0.00000 1.00000
vn -0.00000 -0.00000 1.00000
vn -0.84239 0.02900 0.53809
vn -0.84239 0.02900 0.53809
vn -0.84239 0.02900 0.53809
vn -0.83209 0.03240 0.55369
vn -0.83209 0.03240 0.55369
vn -0.83209 0.03240 0.55369
vn -0.84239 0.02900 0.53809
vn -0.84239 0.02900 0.53809
vn -0.84239 0.02900 0.53809
vn -0.83360 0.22490 0.50450
vn -0.83360 0.22490 0.50450
vn -0.83360 0.22490 0.50450
vn 0.00000 0.87700 0.48050
vn 0.00000 0.87700 0.48050
vn 0.00000 0.87700 0.48050
vn -0.07370 0.99728 -0.00000
vn -0.07370 0.99728 -0.00000
vn -0.07370 0.99728 -0.00000
vn 0.00000 0.99937 0.03560
vn 0.00000 0.99937 0.03560
vn 0.00000 0.99937 0.03560
vn 0.00000 0.99937 0.03560
vn 0.00000 0.99937 0.03560
vn 0.00000 0.99937 0.03560
vn -0.00000 -0.00000 1.00000
vn -0.00000 -0.00000 1.00000
vn -0.00000 -0.00000 1.00000
vn -0.00000 -0.00000 1.00000
vn -0.00000 -0.00000 1.00000
vn -0.00000 -0.00000 1.00000
vn -0.00000 -0.00000 1.00000
vn -0.00000 -0.00000 1.00000
vn -0.00000 -0.00000 1.00000
vn -0.00000 -0.00000 1.00000
vn -0.00000 -0.00000 1.00000
vn -0.00000 -0.00000 1.00000
vn 0.87068 0.03390 0.49069
vn 0.87068 0.03390 0.49069
vn 0.87068 0.03390 0.49069
vn -1.00000 -0.00000 -0.00000
vn -1.00000 -0.00000 -0.00000
vn -1.00000 -0.00000 -0.00000
vn 0.00000 -0.00000 -1.00000
vn 0.00000 -0.00000 -1.00000
vn 0.00000 -0.00000 -1.00000
vn -0.00000 -1.00000 0.00000
vn -0.00000 -1.00000 0.00000
vn -0.00000 -1.00000 0.00000
vn 0.00000 -1.00000 0.00000
vn 0.00000 -1.00000 0.00000
vn 0.00000 -1.00000 0.00000
vn -0.00000 -0.00000 1.00000
vn -0.00000 -0.00000 1.00000
vn -0.00000 -0.00000 1.00000
vn -0.00000 -0.00000 1.00000
vn -0.00000 -0.00000 1.00000
vn -0.00000 -0.00000 1.00000
vn -0.00000 -0.00000 1.00000
vn -0.00000 -0.00000 1.00000
vn -0.00000 -0.00000 1.00000
vn -0.00000 -0.00000 1.00000
vn -0.00000 -0.00000 1.00000
vn -0.00000 -0.00000 1.00000
vn 0.83209 0.03240 0.55369
vn 0.83209 0.03240 0.55369
vn 0.83209 0.03240 0.55369
vn 0.84239 0.02900 0.53809
vn 0.84239 0.02900 0.53809
vn 0.84239 0.02900 0.53809
vn 0.84239 0.02900 0.53809
vn 0.84239 0.02900 0.53809
vn 0.84239 0.02900 0.53809
vn 0.96478 0.22999 0.12770
vn 0.96478 0.22999 0.12770
vn 0.96478 0.22999 0.12770
vn 0.00000 0.87700 0.48050
vn 0.00000 0.87700 0.48050
vn 0.00000 0.87700 0.48050
vn 0.00000 0.99937 0.03560
vn 0.00000 0.99937 0.03560
vn 0.00000 0.99937 0.03560
vn 0.07370 0.99728 -0.00000
vn 0.07370 0.99728 -0.00000
vn 0.07370 0.99728 -0.00000
vn 0.00000 0.87682 -0.48081
vn 0.00000 0.87682 -0.48081
vn 0.00000 0.87682 -0.48081
vn -0.00000 -0.00000 1.00000
vn -0.00000 -0.00000 1.00000
vn -0.00000 -0.00000 1.00000
vn -0.00000 -0.00000 1.00000
vn -0.00000 -0.00000 1.00000
vn -0.00000 -0.00000 1.00000
vn -0.00000 -0.00000 1.00000
vn -0.00000 -0.00000 1.00000
vn -0.00000 -0.00000 1.00000
vn -0.00000 -0.00000 1.00000
vn -0.00000 -0.00000 1.00000
vn -0.00000 -0.00000 1.00000
f 1/1/1 2/2/2 3/3/3
f 4/4/4 5/5/5 6/6/6
f 7/7/7 8/8/8 9/9/9
f 10/10/10 11/11/11 12/12/12
f 13/13/13 14/14/14 15/15/15
f 16/16/16 17/17/17 18/18/18
f 19/19/19 20/20/20 21/21/21
f 22/22/22 23/23/23 24/24/24
f 25/25/25 26/26/26 27/27/27
f 28/28/28 29/29/29 30/30/30
f 31/31/31 32/32/32 33/33/33
f 34/34/34 35/35/35 36/36/36
f 37/37/37 38/38/38 39/39/39
f 40/40/40 41/41/41 42/42/42
f 43/43/43 44/44/44 45/45/45
f 46/46/46 47/47/47 48/48/48
f 49/49/49 50/50/50 51/51/51
f 52/52/52 53/53/53 54/54/54
f 55/55/55 56/56/56 57/57/57
f 58/58/58 59/59/59 60/60/60
f 61/61/61 62/62/62 63/63/63
f 64/64/64 65/65/65 66/66/66
f 67/67/67 68/68/68 69/69/69
f 70/70/70 71/71/71 72/72/72
f 73/73/73 74/74/74 75/75/75
f 76/76/76 77/77/77 78/78/78
f 79/79/79 80/80/80 81/81/81
f 82/82/82 83/83/83 84/84/84
f 85/85/85 86/86/86 87/87/87
f 88/88/88 89/89/89 90/90/90
f 91/91/91 92/92/92 93/93/93
f 94/94/94 95/95/95 96/96/96
f 97/97/97 98/98/98 99/99/99
f 100/100/100 101/101/101 102/102/102
f 103/103/103 104/104/104 105/105/105
f 106/106/106 107/107/107 108/108/108
f 109/109/109 110/110/110 111/111/111
f 112/112/112 113/113/113 114/114/114
f 115/115/115 116/116/116 117/117/117
f 118/118/118 119/119/119 120/120/120
f 121/121/121 122/122/122 123/123/123
f 124/124/124 125/125/125 126/126/126
f 127/127/127 128/128/128 129/129/129
f 130/130/130 131/131/131 132/132/132
f 133/133/133 134/134/134 135/135/135
f 136/136/136 137/137/137 138/138/138
f 139/139/139 140/140/140 141/141/141
f 142/142/142 143/143/143 144/144/144
f 145/145/145 146/146/146 147/147/147
f 148/148/148 149/149/149 150/150/150
f 151/151/151 152/152/152 153/153/153
f 154/154/154 155/155/155 156/156/156
f 157/157/157 158/158/158 159/159/159
f 160/160/160 161/161/161 162/162/162
f 163/163/163 164/164/164 165/165/165
f 166/166/166 167/167/167 168/168/168
f 169/169/169 170/170/170 171/171/171
f 172/172/172 173/173/173 174/174/174
f 175/175/175 176/176/176 177/177/177
f 178/178/178 179/179/179 180/180/180
f 181/181/181 182/182/182 183/183/183
f 184/184/184 185/185/185 186/186/186
f 187/187/187 188/188/188 189/189/189
f 190/190/190 191/191/191 192/192/192
f 193/193/193 194/194/194 195/195/195
f 196/196/196 197/197/197 198/198/198
