# STALKER Armor converted geometry (MC model units, pivot-relative)
v 2.23803 -0.30000 2.22396
v 2.23803 12.30000 -2.24227
v 2.23803 12.30000 2.22396
v 2.23803 -0.30000 -2.24227
v -2.24336 12.30000 -2.24227
v 2.23803 12.30000 -2.24227
v -2.24336 -0.30000 -2.24227
v -2.24336 12.30000 2.22396
v -2.24336 12.30000 -2.24227
v -2.24336 -0.30000 2.22396
v 2.23803 12.30000 2.22396
v -2.24336 12.30000 2.22396
v -2.24336 12.30000 -2.24227
v 2.23803 12.30000 2.22396
v 2.23803 12.30000 -2.24227
v 2.23803 -0.30000 -2.24227
v -2.24336 -0.30000 2.22396
v -2.24336 -0.30000 -2.24227
v -2.77060 -0.30000 -2.79531
v -2.77060 12.30000 -2.52734
v -2.77060 12.30000 -2.79531
v -2.77060 -0.30000 -2.52734
v 2.76527 12.30000 -2.52734
v -2.77060 12.30000 -2.52734
v 2.76527 -0.30000 -2.52734
v 2.76527 12.30000 -2.79531
v 2.76527 12.30000 -2.52734
v 2.76527 -0.30000 -2.79531
v -2.77060 12.30000 -2.79531
v 2.76527 12.30000 -2.79531
v 2.76527 12.30000 -2.52734
v -2.77060 12.30000 -2.79531
v -2.77060 12.30000 -2.52734
v -2.77060 -0.30000 -2.52734
v 2.76527 -0.30000 -2.79531
v 2.76527 -0.30000 -2.52734
v 2.81491 -0.30000 -2.74935
v 2.54603 12.30000 -2.74935
v 2.81491 12.30000 -2.74935
v 2.54603 -0.30000 -2.74935
v 2.54603 12.30000 2.76778
v 2.54603 12.30000 -2.74935
v 2.54603 -0.30000 2.76778
v 2.81491 12.30000 2.76778
v 2.54603 12.30000 2.76778
v 2.81491 -0.30000 2.76778
v 2.81491 12.30000 -2.74935
v 2.81491 12.30000 2.76778
v 2.54603 12.30000 2.76778
v 2.81491 12.30000 -2.74935
v 2.54603 12.30000 -2.74935
v 2.54603 -0.30000 -2.74935
v 2.81491 -0.30000 2.76778
v 2.54603 -0.30000 2.76778
v 2.73923 -0.30000 2.95236
v 2.73923 12.30000 2.68439
v 2.73923 12.30000 2.95236
v 2.73923 -0.30000 2.68439
v -0.02871 12.30000 2.68439
v 2.73923 12.30000 2.68439
v -0.02871 -0.30000 2.68439
v -0.02871 12.30000 2.95236
v -0.02871 12.30000 2.68439
v -0.02871 -0.30000 2.95236
v 2.73923 12.30000 2.95236
v -0.02871 12.30000 2.95236
v -0.02871 12.30000 2.68439
v 2.73923 12.30000 2.95236
v 2.73923 12.30000 2.68439
v 2.73923 -0.30000 2.68439
v -0.02871 -0.30000 2.95236
v -0.02871 -0.30000 2.68439
v 2.23803 -0.30000 2.22396
v 2.23803 -0.30000 -2.24227
v 2.23803 12.30000 -2.24227
v 2.23803 -0.30000 -2.24227
v -2.24336 -0.30000 -2.24227
v -2.24336 12.30000 -2.24227
v -2.24336 -0.30000 -2.24227
v -2.24336 -0.30000 2.22396
v -2.24336 12.30000 2.22396
v -2.24336 -0.30000 2.22396
v 2.23803 -0.30000 2.22396
v 2.23803 12.30000 2.22396
v -2.24336 12.30000 -2.24227
v -2.24336 12.30000 2.22396
v 2.23803 12.30000 2.22396
v 2.23803 -0.30000 -2.24227
v 2.23803 -0.30000 2.22396
v -2.24336 -0.30000 2.22396
v -2.77060 -0.30000 -2.79531
v -2.77060 -0.30000 -2.52734
v -2.77060 12.30000 -2.52734
v -2.77060 -0.30000 -2.52734
v 2.76527 -0.30000 -2.52734
v 2.76527 12.30000 -2.52734
v 2.76527 -0.30000 -2.52734
v 2.76527 -0.30000 -2.79531
v 2.76527 12.30000 -2.79531
v 2.76527 -0.30000 -2.79531
v -2.77060 -0.30000 -2.79531
v -2.77060 12.30000 -2.79531
v 2.76527 12.30000 -2.52734
v 2.76527 12.30000 -2.79531
v -2.77060 12.30000 -2.79531
v -2.77060 -0.30000 -2.52734
v -2.77060 -0.30000 -2.79531
v 2.76527 -0.30000 -2.79531
v 2.81491 -0.30000 -2.74935
v 2.54603 -0.30000 -2.74935
v 2.54603 12.30000 -2.74935
v 2.54603 -0.30000 -2.74935
v 2.54603 -0.30000 2.76778
v 2.54603 12.30000 2.76778
v 2.54603 -0.30000 2.76778
v 2.81491 -0.30000 2.76778
v 2.81491 12.30000 2.76778
v 2.81491 -0.30000 2.76778
v 2.81491 -0.30000 -2.74935
v 2.81491 12.30000 -2.74935
v 2.54603 12.30000 2.76778
v 2.81491 12.30000 2.76778
v 2.81491 12.30000 -2.74935
v 2.54603 -0.30000 -2.74935
v 2.81491 -0.30000 -2.74935
v 2.81491 -0.30000 2.76778
v 2.73923 -0.30000 2.95236
v 2.73923 -0.30000 2.68439
v 2.73923 12.30000 2.68439
v 2.73923 -0.30000 2.68439
v -0.02871 -0.30000 2.68439
v -0.02871 12.30000 2.68439
v -0.02871 -0.30000 2.68439
v -0.02871 -0.30000 2.95236
v -0.02871 12.30000 2.95236
v -0.02871 -0.30000 2.95236
v 2.73923 -0.30000 2.95236
v 2.73923 12.30000 2.95236
v -0.02871 12.30000 2.68439
v -0.02871 12.30000 2.95236
v 2.73923 12.30000 2.95236
v 2.73923 -0.30000 2.68439
v 2.73923 -0.30000 2.95236
v -0.02871 -0.30000 2.95236
vt 0.71659 0.54746
vt 0.66967 0.29359
vt 0.74301 0.30144
vt 0.83742 0.57822
vt 0.75403 0.26797
vt 0.85830 0.27516
vt 0.88763 0.58098
vt 0.98446 0.27418
vt 0.89004 0.27292
vt 0.95176 0.58491
vt 0.83088 0.25947
vt 0.95176 0.25947
vt 0.37387 0.71505
vt 0.25683 0.83208
vt 0.25683 0.71505
vt 0.35791 0.72554
vt 0.25478 0.82868
vt 0.25478 0.72554
vt 0.28365 0.11284
vt 0.16138 0.23511
vt 0.16138 0.11284
vt 0.41389 0.45996
vt 0.42733 0.02918
vt 0.54942 0.07406
vt 0.28365 0.35738
vt 0.16138 0.47965
vt 0.16138 0.35738
vt 0.37316 0.37990
vt 0.12601 0.03234
vt 0.30286 0.01627
vt 0.92585 0.03651
vt 0.75533 0.20703
vt 0.75533 0.03651
vt 0.92800 0.03235
vt 0.74671 0.21365
vt 0.74671 0.03235
vt 0.28365 0.11284
vt 0.16138 0.23511
vt 0.16138 0.11284
vt 0.41389 0.45996
vt 0.42733 0.02918
vt 0.54942 0.07406
vt 0.28365 0.35738
vt 0.16138 0.47965
vt 0.16138 0.35738
vt 0.37316 0.37990
vt 0.12601 0.03234
vt 0.30286 0.01627
vt 0.92585 0.03651
vt 0.75533 0.20703
vt 0.75533 0.03651
vt 0.92800 0.03235
vt 0.74671 0.21365
vt 0.74671 0.03235
vt 0.28365 0.11284
vt 0.16138 0.23511
vt 0.16138 0.11284
vt 0.41389 0.45996
vt 0.42733 0.02918
vt 0.54942 0.07406
vt 0.28365 0.35738
vt 0.16138 0.47965
vt 0.16138 0.35738
vt 0.37316 0.37990
vt 0.12601 0.03234
vt 0.30286 0.01627
vt 0.92585 0.03651
vt 0.75533 0.20703
vt 0.75533 0.03651
vt 0.92800 0.03235
vt 0.74671 0.21365
vt 0.74671 0.03235
vt 0.71659 0.54746
vt 0.64326 0.53960
vt 0.66967 0.29359
vt 0.83742 0.57822
vt 0.73314 0.57103
vt 0.75403 0.26797
vt 0.88763 0.58098
vt 0.98205 0.58224
vt 0.98446 0.27418
vt 0.95176 0.58491
vt 0.83088 0.58491
vt 0.83088 0.25947
vt 0.37387 0.71505
vt 0.37387 0.83208
vt 0.25683 0.83208
vt 0.35791 0.72554
vt 0.35791 0.82868
vt 0.25478 0.82868
vt 0.28365 0.11284
vt 0.28365 0.23511
vt 0.16138 0.23511
vt 0.41389 0.45996
vt 0.29179 0.41508
vt 0.42733 0.02918
vt 0.28365 0.35738
vt 0.28365 0.47965
vt 0.16138 0.47965
vt 0.37316 0.37990
vt 0.19631 0.39597
vt 0.12601 0.03234
vt 0.92585 0.03651
vt 0.92585 0.20703
vt 0.75533 0.20703
vt 0.92800 0.03235
vt 0.92800 0.21365
vt 0.74671 0.21365
vt 0.28365 0.11284
vt 0.28365 0.23511
vt 0.16138 0.23511
vt 0.41389 0.45996
vt 0.29179 0.41508
vt 0.42733 0.02918
vt 0.28365 0.35738
vt 0.28365 0.47965
vt 0.16138 0.47965
vt 0.37316 0.37990
vt 0.19631 0.39597
vt 0.12601 0.03234
vt 0.92585 0.03651
vt 0.92585 0.20703
vt 0.75533 0.20703
vt 0.92800 0.03235
vt 0.92800 0.21365
vt 0.74671 0.21365
vt 0.28365 0.11284
vt 0.28365 0.23511
vt 0.16138 0.23511
vt 0.41389 0.45996
vt 0.29179 0.41508
vt 0.42733 0.02918
vt 0.28365 0.35738
vt 0.28365 0.47965
vt 0.16138 0.47965
vt 0.37316 0.37990
vt 0.19631 0.39597
vt 0.12601 0.03234
vt 0.92585 0.03651
vt 0.92585 0.20703
vt 0.75533 0.20703
vt 0.92800 0.03235
vt 0.92800 0.21365
vt 0.74671 0.21365
vn 1.00000 -0.00000 0.00000
vn 1.00000 -0.00000 0.00000
vn 1.00000 -0.00000 0.00000
vn 0.00000 -0.00000 -1.00000
vn 0.00000 -0.00000 -1.00000
vn 0.00000 -0.00000 -1.00000
vn -1.00000 -0.00000 -0.00000
vn -1.00000 -0.00000 -0.00000
vn -1.00000 -0.00000 -0.00000
vn 0.00000 -0.00000 1.00000
vn 0.00000 -0.00000 1.00000
vn 0.00000 -0.00000 1.00000
vn 0.00000 1.00000 -0.00000
vn 0.00000 1.00000 -0.00000
vn 0.00000 1.00000 -0.00000
vn 0.00000 -1.00000 0.00000
vn 0.00000 -1.00000 0.00000
vn 0.00000 -1.00000 0.00000
vn -1.00000 -0.00000 -0.00000
vn -1.00000 -0.00000 -0.00000
vn -1.00000 -0.00000 -0.00000
vn 0.00000 -0.00000 1.00000
vn 0.00000 -0.00000 1.00000
vn 0.00000 -0.00000 1.00000
vn 1.00000 -0.00000 0.00000
vn 1.00000 -0.00000 0.00000
vn 1.00000 -0.00000 0.00000
vn 0.00000 -0.00000 -1.00000
vn 0.00000 -0.00000 -1.00000
vn 0.00000 -0.00000 -1.00000
vn 0.00000 1.00000 -0.00000
vn 0.00000 1.00000 -0.00000
vn 0.00000 1.00000 -0.00000
vn 0.00000 -1.00000 0.00000
vn 0.00000 -1.00000 0.00000
vn 0.00000 -1.00000 0.00000
vn 0.00000 -0.00000 -1.00000
vn 0.00000 -0.00000 -1.00000
vn 0.00000 -0.00000 -1.00000
vn -1.00000 -0.00000 -0.00000
vn -1.00000 -0.00000 -0.00000
vn -1.00000 -0.00000 -0.00000
vn 0.00000 -0.00000 1.00000
vn 0.00000 -0.00000 1.00000
vn 0.00000 -0.00000 1.00000
vn 1.00000 -0.00000 0.00000
vn 1.00000 -0.00000 0.00000
vn 1.00000 -0.00000 0.00000
vn 0.00000 1.00000 -0.00000
vn 0.00000 1.00000 -0.00000
vn 0.00000 1.00000 -0.00000
vn 0.00000 -1.00000 0.00000
vn 0.00000 -1.00000 0.00000
vn 0.00000 -1.00000 0.00000
vn 1.00000 -0.00000 0.00000
vn 1.00000 -0.00000 0.00000
vn 1.00000 -0.00000 0.00000
vn 0.00000 -0.00000 -1.00000
vn 0.00000 -0.00000 -1.00000
vn 0.00000 -0.00000 -1.00000
vn -1.00000 -0.00000 -0.00000
vn -1.00000 -0.00000 -0.00000
vn -1.00000 -0.00000 -0.00000
vn 0.00000 -0.00000 1.00000
vn 0.00000 -0.00000 1.00000
vn 0.00000 -0.00000 1.00000
vn 0.00000 1.00000 -0.00000
vn 0.00000 1.00000 -0.00000
vn 0.00000 1.00000 -0.00000
vn 0.00000 -1.00000 0.00000
vn 0.00000 -1.00000 0.00000
vn 0.00000 -1.00000 0.00000
vn 1.00000 -0.00000 0.00000
vn 1.00000 -0.00000 0.00000
vn 1.00000 -0.00000 0.00000
vn 0.00000 -0.00000 -1.00000
vn 0.00000 -0.00000 -1.00000
vn 0.00000 -0.00000 -1.00000
vn -1.00000 -0.00000 -0.00000
vn -1.00000 -0.00000 -0.00000
vn -1.00000 -0.00000 -0.00000
vn 0.00000 -0.00000 1.00000
vn 0.00000 -0.00000 1.00000
vn 0.00000 -0.00000 1.00000
vn 0.00000 1.00000 -0.00000
vn 0.00000 1.00000 -0.00000
vn 0.00000 1.00000 -0.00000
vn 0.00000 -1.00000 0.00000
vn 0.00000 -1.00000 0.00000
vn 0.00000 -1.00000 0.00000
vn -1.00000 -0.00000 -0.00000
vn -1.00000 -0.00000 -0.00000
vn -1.00000 -0.00000 -0.00000
vn 0.00000 -0.00000 1.00000
vn 0.00000 -0.00000 1.00000
vn 0.00000 -0.00000 1.00000
vn 1.00000 -0.00000 0.00000
vn 1.00000 -0.00000 0.00000
vn 1.00000 -0.00000 0.00000
vn 0.00000 -0.00000 -1.00000
vn 0.00000 -0.00000 -1.00000
vn 0.00000 -0.00000 -1.00000
vn 0.00000 1.00000 -0.00000
vn 0.00000 1.00000 -0.00000
vn 0.00000 1.00000 -0.00000
vn 0.00000 -1.00000 0.00000
vn 0.00000 -1.00000 0.00000
vn 0.00000 -1.00000 0.00000
vn 0.00000 -0.00000 -1.00000
vn 0.00000 -0.00000 -1.00000
vn 0.00000 -0.00000 -1.00000
vn -1.00000 -0.00000 -0.00000
vn -1.00000 -0.00000 -0.00000
vn -1.00000 -0.00000 -0.00000
vn 0.00000 -0.00000 1.00000
vn 0.00000 -0.00000 1.00000
vn 0.00000 -0.00000 1.00000
vn 1.00000 -0.00000 0.00000
vn 1.00000 -0.00000 0.00000
vn 1.00000 -0.00000 0.00000
vn 0.00000 1.00000 -0.00000
vn 0.00000 1.00000 -0.00000
vn 0.00000 1.00000 -0.00000
vn 0.00000 -1.00000 0.00000
vn 0.00000 -1.00000 0.00000
vn 0.00000 -1.00000 0.00000
vn 1.00000 -0.00000 0.00000
vn 1.00000 -0.00000 0.00000
vn 1.00000 -0.00000 0.00000
vn 0.00000 -0.00000 -1.00000
vn 0.00000 -0.00000 -1.00000
vn 0.00000 -0.00000 -1.00000
vn -1.00000 -0.00000 -0.00000
vn -1.00000 -0.00000 -0.00000
vn -1.00000 -0.00000 -0.00000
vn 0.00000 -0.00000 1.00000
vn 0.00000 -0.00000 1.00000
vn 0.00000 -0.00000 1.00000
vn 0.00000 1.00000 -0.00000
vn 0.00000 1.00000 -0.00000
vn 0.00000 1.00000 -0.00000
vn 0.00000 -1.00000 0.00000
vn 0.00000 -1.00000 0.00000
vn 0.00000 -1.00000 0.00000
f 1/1/1 2/2/2 3/3/3
f 4/4/4 5/5/5 6/6/6
f 7/7/7 8/8/8 9/9/9
f 10/10/10 11/11/11 12/12/12
f 13/13/13 14/14/14 15/15/15
f 16/16/16 17/17/17 18/18/18
f 19/19/19 20/20/20 21/21/21
f 22/22/22 23/23/23 24/24/24
f 25/25/25 26/26/26 27/27/27
f 28/28/28 29/29/29 30/30/30
f 31/31/31 32/32/32 33/33/33
f 34/34/34 35/35/35 36/36/36
f 37/37/37 38/38/38 39/39/39
f 40/40/40 41/41/41 42/42/42
f 43/43/43 44/44/44 45/45/45
f 46/46/46 47/47/47 48/48/48
f 49/49/49 50/50/50 51/51/51
f 52/52/52 53/53/53 54/54/54
f 55/55/55 56/56/56 57/57/57
f 58/58/58 59/59/59 60/60/60
f 61/61/61 62/62/62 63/63/63
f 64/64/64 65/65/65 66/66/66
f 67/67/67 68/68/68 69/69/69
f 70/70/70 71/71/71 72/72/72
f 73/73/73 74/74/74 75/75/75
f 76/76/76 77/77/77 78/78/78
f 79/79/79 80/80/80 81/81/81
f 82/82/82 83/83/83 84/84/84
f 85/85/85 86/86/86 87/87/87
f 88/88/88 89/89/89 90/90/90
f 91/91/91 92/92/92 93/93/93
f 94/94/94 95/95/95 96/96/96
f 97/97/97 98/98/98 99/99/99
f 100/100/100 101/101/101 102/102/102
f 103/103/103 104/104/104 105/105/105
f 106/106/106 107/107/107 108/108/108
f 109/109/109 110/110/110 111/111/111
f 112/112/112 113/113/113 114/114/114
f 115/115/115 116/116/116 117/117/117
f 118/118/118 119/119/119 120/120/120
f 121/121/121 122/122/122 123/123/123
f 124/124/124 125/125/125 126/126/126
f 127/127/127 128/128/128 129/129/129
f 130/130/130 131/131/131 132/132/132
f 133/133/133 134/134/134 135/135/135
f 136/136/136 137/137/137 138/138/138
f 139/139/139 140/140/140 141/141/141
f 142/142/142 143/143/143 144/144/144
