# STALKER Armor converted geometry (MC model units, pivot-relative)
v 2.18188 -2.19877 -2.26030
v -2.10124 10.30000 -2.26030
v 2.18188 10.30000 -2.26030
v -2.10124 -2.19877 -2.26030
v -2.10124 10.30000 2.12292
v -2.10124 10.30000 -2.26030
v -2.10124 -2.19877 2.12292
v 2.18188 10.30000 2.12292
v -2.10124 10.30000 2.12292
v 2.18188 -2.19877 2.12292
v 2.18188 10.30000 -2.26030
v 2.18188 10.30000 2.12292
v -2.10124 10.30000 2.12292
v 2.18188 10.30000 -2.26030
v -2.10124 10.30000 -2.26030
v -2.10124 -2.19877 -2.26030
v 2.18188 -2.19877 2.12292
v -2.10124 -2.19877 2.12292
v -2.39877 -2.37345 -2.39144
v -2.39877 2.37163 2.60074
v -2.39877 2.37163 -2.39144
v -2.39877 -2.37345 2.60074
v 2.47941 2.37163 2.60074
v -2.39877 2.37163 2.60074
v 2.47941 -2.37345 2.60074
v 2.47941 2.37163 -2.39144
v 2.47941 2.37163 2.60074
v 2.47941 -2.37345 -2.39144
v -2.39877 2.37163 -2.39144
v 2.47941 2.37163 -2.39144
v 2.47941 2.37163 2.60074
v -2.39877 2.37163 -2.39144
v -2.39877 2.37163 2.60074
v -2.39877 -2.37345 2.60074
v 2.47941 -2.37345 -2.39144
v 2.47941 -2.37345 2.60074
v -2.54479 2.45829 -2.71441
v -2.54479 3.38726 -0.90451
v -2.54479 3.38726 -2.71441
v -2.54479 2.45829 -0.90451
v -0.77623 3.38726 -0.90451
v -2.54479 3.38726 -0.90451
v -0.77623 2.45829 -0.90451
v -0.77623 3.38726 -2.71441
v -0.77623 3.38726 -0.90451
v -0.77623 2.45829 -2.71441
v -2.54479 3.38726 -2.71441
v -0.77623 3.38726 -2.71441
v -0.77623 3.38726 -0.90451
v -2.54479 3.38726 -2.71441
v -2.54479 3.38726 -0.90451
v -2.54479 2.45829 -0.90451
v -0.77623 2.45829 -2.71441
v -0.77623 2.45829 -0.90451
v 2.52404 2.45829 -2.67467
v 0.75548 3.38726 -2.67467
v 2.52404 3.38726 -2.67467
v 0.75548 2.45829 -2.67467
v 0.75548 3.38726 -0.86477
v 0.75548 3.38726 -2.67467
v 0.75548 2.45829 -0.86477
v 2.52404 3.38726 -0.86477
v 0.75548 3.38726 -0.86477
v 2.52404 2.45829 -0.86477
v 2.52404 3.38726 -2.67467
v 2.52404 3.38726 -0.86477
v 0.75548 3.38726 -0.86477
v 2.52404 3.38726 -2.67467
v 0.75548 3.38726 -2.67467
v 0.75548 2.45829 -0.86477
v 2.52404 2.45829 -2.67467
v 2.52404 2.45829 -0.86477
v 2.52404 2.45829 2.58015
v 2.52404 3.38726 0.77025
v 2.52404 3.38726 2.58015
v 2.52404 2.45829 0.77025
v 0.75548 3.38726 0.77025
v 2.52404 3.38726 0.77025
v 0.75548 2.45829 0.77025
v 0.75548 3.38726 2.58015
v 0.75548 3.38726 0.77025
v 0.75548 2.45829 2.58015
v 2.52404 3.38726 2.58015
v 0.75548 3.38726 2.58015
v 0.75548 3.38726 0.77025
v 2.52404 3.38726 2.58015
v 2.52404 3.38726 0.77025
v 2.52404 2.45829 0.77025
v 0.75548 2.45829 2.58015
v 0.75548 2.45829 0.77025
v -2.56311 2.45829 2.58015
v -0.79455 3.38726 2.58015
v -2.56311 3.38726 2.58015
v -0.79455 2.45829 2.58015
v -0.79455 3.38726 0.77025
v -0.79455 3.38726 2.58015
v -0.79455 2.45829 0.77025
v -2.56311 3.38726 0.77025
v -0.79455 3.38726 0.77025
v -2.56311 2.45829 0.77025
v -2.56311 3.38726 2.58015
v -2.56311 3.38726 0.77025
v -0.79455 3.38726 0.77025
v -2.56311 3.38726 2.58015
v -0.79455 3.38726 2.58015
v -0.79455 2.45829 2.58015
v -2.56311 2.45829 0.77025
v -0.79455 2.45829 0.77025
v -2.54479 3.75157 -2.71441
v -2.54479 4.68053 -0.90451
v -2.54479 4.68053 -2.71441
v -2.54479 3.75157 -0.90451
v -0.77623 4.68053 -0.90451
v -2.54479 4.68053 -0.90451
v -0.77623 3.75157 -0.90451
v -0.77623 4.68053 -2.71441
v -0.77623 4.68053 -0.90451
v -0.77623 3.75157 -2.71441
v -2.54479 4.68053 -2.71441
v -0.77623 4.68053 -2.71441
v -0.77623 4.68053 -0.90451
v -2.54479 4.68053 -2.71441
v -2.54479 4.68053 -0.90451
v -2.54479 3.75157 -0.90451
v -0.77623 3.75157 -2.71441
v -0.77623 3.75157 -0.90451
v 2.52404 3.75157 -2.67467
v 0.75548 4.68053 -2.67467
v 2.52404 4.68053 -2.67467
v 0.75548 3.75157 -2.67467
v 0.75548 4.68053 -0.86477
v 0.75548 4.68053 -2.67467
v 0.75548 3.75157 -0.86477
v 2.52404 4.68053 -0.86477
v 0.75548 4.68053 -0.86477
v 2.52404 3.75157 -0.86477
v 2.52404 4.68053 -2.67467
v 2.52404 4.68053 -0.86477
v 0.75548 4.68053 -0.86477
v 2.52404 4.68053 -2.67467
v 0.75548 4.68053 -2.67467
v 0.75548 3.75157 -0.86477
v 2.52404 3.75157 -2.67467
v 2.52404 3.75157 -0.86477
v 2.52404 3.75157 2.58015
v 2.52404 4.68053 0.77025
v 2.52404 4.68053 2.58015
v 2.52404 3.75157 0.77025
v 0.75548 4.68053 0.77025
v 2.52404 4.68053 0.77025
v 0.75548 3.75157 0.77025
v 0.75548 4.68053 2.58015
v 0.75548 4.68053 0.77025
v 0.75548 3.75157 2.58015
v 2.52404 4.68053 2.58015
v 0.75548 4.68053 2.58015
v 0.75548 4.68053 0.77025
v 2.52404 4.68053 2.58015
v 2.52404 4.68053 0.77025
v 2.52404 3.75157 0.77025
v 0.75548 3.75157 2.58015
v 0.75548 3.75157 0.77025
v -2.56311 3.75157 2.58015
v -0.79455 4.68053 2.58015
v -2.56311 4.68053 2.58015
v -0.79455 3.75157 2.58015
v -0.79455 4.68053 0.77025
v -0.79455 4.68053 2.58015
v -0.79455 3.75157 0.77025
v -2.56311 4.68053 0.77025
v -0.79455 4.68053 0.77025
v -2.56311 3.75157 0.77025
v -2.56311 4.68053 2.58015
v -2.56311 4.68053 0.77025
v -0.79455 4.68053 0.77025
v -2.56311 4.68053 2.58015
v -0.79455 4.68053 2.58015
v -0.79455 3.75157 2.58015
v -2.56311 3.75157 0.77025
v -0.79455 3.75157 0.77025
v -2.30465 9.03550 -2.46218
v -2.30465 9.96447 -0.82409
v -2.30465 9.96447 -2.46218
v -2.30465 9.03550 -0.82409
v -0.70397 9.96447 -0.82409
v -2.30465 9.96447 -0.82409
v -0.70397 9.03550 -0.82409
v -0.70397 9.96447 -2.46218
v -0.70397 9.96447 -0.82409
v -0.70397 9.03550 -2.46218
v -2.30465 9.96447 -2.46218
v -0.70397 9.96447 -2.46218
v -0.70397 9.96447 -0.82409
v -2.30465 9.96447 -2.46218
v -2.30465 9.96447 -0.82409
v -2.30465 9.03550 -0.82409
v -0.70397 9.03550 -2.46218
v -0.70397 9.03550 -0.82409
v 2.28303 9.03550 -2.42621
v 0.68235 9.96447 -2.42621
v 2.28303 9.96447 -2.42621
v 0.68235 9.03550 -2.42621
v 0.68235 9.96447 -0.78811
v 0.68235 9.96447 -2.42621
v 0.68235 9.03550 -0.78811
v 2.28303 9.96447 -0.78811
v 0.68235 9.96447 -0.78811
v 2.28303 9.03550 -0.78811
v 2.28303 9.96447 -2.42621
v 2.28303 9.96447 -0.78811
v 0.68235 9.96447 -0.78811
v 2.28303 9.96447 -2.42621
v 0.68235 9.96447 -2.42621
v 0.68235 9.03550 -2.42621
v 2.28303 9.03550 -0.78811
v 0.68235 9.03550 -0.78811
v 2.28303 9.03550 2.32980
v 2.28303 9.96447 0.69171
v 2.28303 9.96447 2.32980
v 2.28303 9.03550 0.69171
v 0.68235 9.96447 0.69171
v 2.28303 9.96447 0.69171
v 0.68235 9.03550 0.69171
v 0.68235 9.96447 2.32980
v 0.68235 9.96447 0.69171
v 0.68235 9.03550 2.32980
v 2.28303 9.96447 2.32980
v 0.68235 9.96447 2.32980
v 0.68235 9.96447 0.69171
v 2.28303 9.96447 2.32980
v 2.28303 9.96447 0.69171
v 2.28303 9.03550 0.69171
v 0.68235 9.03550 2.32980
v 0.68235 9.03550 0.69171
v -2.32123 9.03550 2.32980
v -0.72055 9.96447 2.32980
v -2.32123 9.96447 2.32980
v -0.72055 9.03550 2.32980
v -0.72055 9.96447 0.69171
v -0.72055 9.96447 2.32980
v -0.72055 9.03550 0.69171
v -2.32123 9.96447 0.69171
v -0.72055 9.96447 0.69171
v -2.32123 9.03550 0.69171
v -2.32123 9.96447 2.32980
v -2.32123 9.96447 0.69171
v -0.72055 9.96447 2.32980
v -2.32123 9.96447 0.69171
v -2.32123 9.96447 2.32980
v -0.72055 9.03550 2.32980
v -2.32123 9.03550 0.69171
v -0.72055 9.03550 0.69171
v -2.98413 -4.52445 -1.17071
v -2.98413 -3.26334 0.35370
v -2.98413 -3.26334 -1.17071
v -2.47389 -2.63008 0.35370
v 0.96145 -2.65209 0.35370
v 0.96145 -2.61509 0.35370
v 0.96145 -2.65209 0.35370
v 0.96145 -2.61509 -1.17071
v 0.96145 -2.61509 0.35370
v -2.47389 -4.73542 -1.17071
v -2.98413 -3.26334 -1.17071
v -2.47389 -2.63492 -1.17071
v -2.47389 -2.63008 0.35370
v -2.23030 -2.27870 -1.17134
v -2.47389 -2.63492 -1.17071
v -2.98413 -4.52445 0.35370
v -2.47389 -4.73542 -1.17071
v -2.47389 -4.73542 0.35370
v -2.47389 -4.73542 0.35370
v 0.96145 -2.65209 -1.17071
v 0.96145 -2.65209 0.35370
v -2.98413 -3.26334 0.35370
v -2.47389 -2.63492 -1.17071
v -2.98413 -3.26334 -1.17071
v 0.96145 -2.65209 -1.17071
v -2.47389 -2.63492 -1.17071
v 0.96145 -2.61509 -1.17071
v -2.98413 -4.52445 0.35370
v -2.98413 -3.26334 0.75761
v -2.98413 -3.26334 0.35370
v -2.98413 -4.52445 0.75761
v -2.47389 -3.71252 0.75761
v -2.98413 -3.26334 0.75761
v -2.47389 -4.73542 0.75761
v 3.96885 -3.31826 3.74438
v 3.96885 -3.31826 4.14829
v -2.47389 -2.63008 0.35370
v -2.98413 -3.26334 0.75761
v -2.47389 -3.71252 0.75761
v -2.47389 -4.73542 0.35370
v -2.98413 -4.52445 0.75761
v -2.98413 -4.52445 0.35370
v 3.96885 -2.53829 3.74438
v 3.96885 -3.31826 4.14829
v 3.96885 -3.31826 3.74438
v -2.47389 -3.71252 0.75761
v 3.96885 -3.31826 4.14829
v 3.96885 -2.53829 4.14829
v -2.47389 -2.63008 0.35370
v 3.96885 -3.31826 3.74438
v -2.47389 -4.73542 0.35370
v -2.47389 -3.71252 0.75761
v 3.96885 -2.53829 3.74438
v -2.47389 -2.63008 0.35370
v -2.23030 -2.27387 0.35307
v 0.95954 -2.25887 -1.17134
v -2.23030 -2.27870 -1.17134
v 0.96145 -2.61509 -1.17071
v 0.95954 -2.25887 0.35307
v 0.96145 -2.61509 0.35370
v 0.96145 -2.61509 0.35370
v -2.23030 -2.27387 0.35307
v -2.47389 -2.63008 0.35370
v 0.96145 -2.61509 -1.17071
v -2.23030 -2.27870 -1.17134
v 0.95954 -2.25887 -1.17134
v -2.79091 -3.91523 0.18176
v -3.80783 -3.58777 0.03906
v -3.80783 -3.91523 0.18176
v -2.79091 -3.58777 0.03906
v -3.80783 -3.45213 -0.30545
v -3.80783 -3.58777 0.03906
v -2.79091 -3.45213 -0.30545
v -3.80783 -3.58777 -0.64996
v -3.80783 -3.45213 -0.30545
v -2.79091 -3.58777 -0.64996
v -3.80783 -3.91523 -0.79266
v -3.80783 -3.58777 -0.64996
v -2.79091 -3.91523 -0.79266
v -3.80783 -4.24268 -0.64996
v -3.80783 -3.91523 -0.79266
v -2.79091 -4.24268 -0.64996
v -3.80783 -4.37832 -0.30545
v -3.80783 -4.24268 -0.64996
v -2.79091 -3.58777 -0.64996
v -2.79091 -3.45213 -0.30545
v -2.79091 -4.37832 -0.30545
v -2.79091 -4.37832 -0.30545
v -3.80783 -4.24268 0.03906
v -3.80783 -4.37832 -0.30545
v -2.79091 -4.24268 0.03906
v -3.80783 -3.91523 0.18176
v -3.80783 -4.24268 0.03906
v -3.80783 -3.45213 -0.30545
v -4.35826 -3.12430 -0.64996
v -4.25966 -3.02839 -0.30545
v -4.59630 -3.35584 0.18176
v -4.96870 -0.63374 0.48779
v -4.83434 -3.58739 0.03906
v -3.80783 -4.24268 -0.64996
v -4.93294 -3.68330 -0.30545
v -4.83434 -3.58739 -0.64996
v -3.80783 -3.58777 -0.64996
v -4.59630 -3.35584 -0.79266
v -4.35826 -3.12430 -0.64996
v -3.80783 -4.24268 0.03906
v -4.93294 -3.68330 -0.30545
v -3.80783 -4.37832 -0.30545
v -3.80783 -3.45213 -0.30545
v -4.35826 -3.12430 0.03906
v -3.80783 -3.58777 0.03906
v -3.80783 -3.91523 -0.79266
v -4.83434 -3.58739 -0.64996
v -4.59630 -3.35584 -0.79266
v -3.80783 -3.91523 0.18176
v -4.83434 -3.58739 0.03906
v -3.80783 -4.24268 0.03906
v -3.80783 -3.58777 0.03906
v -4.59630 -3.35584 0.18176
v -3.80783 -3.91523 0.18176
v -4.96870 -0.63374 0.48779
v -3.56284 2.30262 0.04060
v -5.10814 -0.63374 0.14328
v -4.93294 -3.68330 -0.30545
v -4.96870 -0.63374 -0.20123
v -4.83434 -3.58739 -0.64996
v -4.35826 -3.12430 -0.64996
v -4.63206 -0.63374 -0.34393
v -4.29542 -0.63374 -0.20123
v -4.35826 -3.12430 0.03906
v -4.15598 -0.63374 0.14328
v -4.29542 -0.63374 0.48779
v -4.83434 -3.58739 0.03906
v -5.10814 -0.63374 0.14328
v -4.93294 -3.68330 -0.30545
v -4.59630 -3.35584 -0.79266
v -4.96870 -0.63374 -0.20123
v -4.63206 -0.63374 -0.34393
v -4.25966 -3.02839 -0.30545
v -4.29542 -0.63374 -0.20123
v -4.15598 -0.63374 0.14328
v -4.35826 -3.12430 0.03906
v -4.63206 -0.63374 0.63049
v -4.59630 -3.35584 0.18176
v -3.13136 2.10691 0.52780
v -2.64195 4.42086 0.24076
v -2.97731 4.39232 0.38346
v -4.63206 -0.63374 -0.34393
v -3.43646 2.24530 -0.30391
v -3.13136 2.10691 -0.44661
v -4.15598 -0.63374 0.14328
v -2.82627 1.96853 -0.30391
v -2.69989 1.91120 0.04060
v -4.29542 -0.63374 0.48779
v -3.13136 2.10691 0.52780
v -4.63206 -0.63374 0.63049
v -4.63206 -0.63374 0.63049
v -3.43646 2.24530 0.38511
v -4.96870 -0.63374 0.48779
v -4.96870 -0.63374 -0.20123
v -3.56284 2.30262 0.04060
v -3.43646 2.24530 -0.30391
v -4.29542 -0.63374 -0.20123
v -3.13136 2.10691 -0.44661
v -2.82627 1.96853 -0.30391
v -4.15598 -0.63374 0.14328
v -2.82627 1.96853 0.38511
v -4.29542 -0.63374 0.48779
v -3.45158 4.35196 -0.10374
v -3.32765 4.65832 0.21815
v -3.45868 4.61193 -0.12636
v -3.43646 2.24530 0.38511
v -2.97731 4.39232 0.38346
v -3.31267 4.36378 0.24076
v -3.43646 2.24530 -0.30391
v -3.45158 4.35196 -0.10374
v -3.31267 4.36378 -0.44825
v -3.13136 2.10691 -0.44661
v -2.64195 4.42086 -0.44825
v -2.82627 1.96853 -0.30391
v -2.69989 1.91120 0.04060
v -2.64195 4.42086 0.24076
v -2.82627 1.96853 0.38511
v -3.56284 2.30262 0.04060
v -3.31267 4.36378 0.24076
v -3.45158 4.35196 -0.10374
v -3.43646 2.24530 -0.30391
v -2.97731 4.39232 -0.59095
v -3.13136 2.10691 -0.44661
v -2.82627 1.96853 -0.30391
v -2.50304 4.43268 -0.10374
v -2.69989 1.91120 0.04060
v -2.69497 4.88232 0.21815
v -2.97916 5.91153 -0.06727
v -3.11807 5.92336 0.27724
v -2.97731 4.39232 -0.59095
v -3.32765 4.65832 -0.47087
v -3.01131 4.77032 -0.61357
v -2.64195 4.42086 -0.44825
v -2.56394 4.92871 -0.12636
v -2.50304 4.43268 -0.10374
v -2.64195 4.42086 0.24076
v -3.01131 4.77032 0.36085
v -2.97731 4.39232 0.38346
v -2.97731 4.39232 0.38346
v -3.32765 4.65832 0.21815
v -3.31267 4.36378 0.24076
v -3.31267 4.36378 -0.44825
v -3.45868 4.61193 -0.12636
v -3.32765 4.65832 -0.47087
v -2.64195 4.42086 -0.44825
v -3.01131 4.77032 -0.61357
v -2.69497 4.88232 -0.47087
v -2.50304 4.43268 -0.10374
v -2.69497 4.88232 0.21815
v -2.64195 4.42086 0.24076
v -3.78879 5.98044 0.27724
v -3.21106 8.64661 0.32752
v -3.54642 8.67515 0.18482
v -3.45868 4.61193 -0.12636
v -3.78879 5.98044 0.27724
v -3.92770 5.99226 -0.06727
v -3.32765 4.65832 -0.47087
v -3.45343 5.95190 -0.55447
v -3.01131 4.77032 -0.61357
v -2.69497 4.88232 -0.47087
v -2.97916 5.91153 -0.06727
v -2.56394 4.92871 -0.12636
v -3.01131 4.77032 0.36085
v -3.11807 5.92336 0.27724
v -3.45343 5.95190 0.41994
v -3.32765 4.65832 0.21815
v -3.45343 5.95190 0.41994
v -3.78879 5.98044 0.27724
v -3.45868 4.61193 -0.12636
v -3.78879 5.98044 -0.41177
v -3.32765 4.65832 -0.47087
v -3.01131 4.77032 -0.61357
v -3.11807 5.92336 -0.41177
v -2.69497 4.88232 -0.47087
v -2.73679 8.60625 -0.15969
v -1.95512 9.06338 -0.25950
v -1.93211 8.88410 0.06130
v -3.78879 5.98044 -0.41177
v -3.68533 8.68697 -0.15969
v -3.54642 8.67515 -0.50419
v -3.45343 5.95190 -0.55447
v -2.87570 8.61807 -0.50419
v -3.11807 5.92336 -0.41177
v -2.97916 5.91153 -0.06727
v -2.87570 8.61807 0.18482
v -3.11807 5.92336 0.27724
v -3.92770 5.99226 -0.06727
v -3.54642 8.67515 0.18482
v -3.68533 8.68697 -0.15969
v -3.45343 5.95190 -0.55447
v -3.54642 8.67515 -0.50419
v -3.21106 8.64661 -0.64689
v -3.11807 5.92336 -0.41177
v -2.73679 8.60625 -0.15969
v -2.97916 5.91153 -0.06727
v -3.11807 5.92336 0.27724
v -3.21106 8.64661 0.32752
v -3.45343 5.95190 0.41994
v -1.91050 9.71112 -0.16865
v -1.86901 9.80014 0.18979
v -1.84599 9.62085 0.51059
v -2.87570 8.61807 0.18482
v -1.85494 9.27828 0.60584
v -3.21106 8.64661 0.32752
v -3.21106 8.64661 0.32752
v -1.84599 9.62085 0.51059
v -3.54642 8.67515 0.18482
v -3.68533 8.68697 -0.15969
v -1.91050 9.71112 -0.16865
v -3.54642 8.67515 -0.50419
v -2.87570 8.61807 -0.50419
v -1.94617 9.40595 -0.35475
v -1.95512 9.06338 -0.25950
v -2.87570 8.61807 0.18482
v -1.93211 8.88410 0.06130
v -1.89061 8.97311 0.41974
v -3.54642 8.67515 0.18482
v -1.86901 9.80014 0.18979
v -3.68533 8.68697 -0.15969
v -3.21106 8.64661 -0.64689
v -1.91050 9.71112 -0.16865
v -1.94617 9.40595 -0.35475
v 2.18188 -2.19877 -2.26030
v -2.10124 -2.19877 -2.26030
v -2.10124 10.30000 -2.26030
v -2.10124 -2.19877 -2.26030
v -2.10124 -2.19877 2.12292
v -2.10124 10.30000 2.12292
v -2.10124 -2.19877 2.12292
v 2.18188 -2.19877 2.12292
v 2.18188 10.30000 2.12292
v 2.18188 -2.19877 2.12292
v 2.18188 -2.19877 -2.26030
v 2.18188 10.30000 -2.26030
v -2.10124 10.30000 2.12292
v 2.18188 10.30000 2.12292
v 2.18188 10.30000 -2.26030
v -2.10124 -2.19877 -2.26030
v 2.18188 -2.19877 -2.26030
v 2.18188 -2.19877 2.12292
v -2.39877 -2.37345 -2.39144
v -2.39877 -2.37345 2.60074
v -2.39877 2.37163 2.60074
v -2.39877 -2.37345 2.60074
v 2.47941 -2.37345 2.60074
v 2.47941 2.37163 2.60074
v 2.47941 -2.37345 2.60074
v 2.47941 -2.37345 -2.39144
v 2.47941 2.37163 -2.39144
v 2.47941 -2.37345 -2.39144
v -2.39877 -2.37345 -2.39144
v -2.39877 2.37163 -2.39144
v 2.47941 2.37163 2.60074
v 2.47941 2.37163 -2.39144
v -2.39877 2.37163 -2.39144
v -2.39877 -2.37345 2.60074
v -2.39877 -2.37345 -2.39144
v 2.47941 -2.37345 -2.39144
v -2.54479 2.45829 -2.71441
v -2.54479 2.45829 -0.90451
v -2.54479 3.38726 -0.90451
v -2.54479 2.45829 -0.90451
v -0.77623 2.45829 -0.90451
v -0.77623 3.38726 -0.90451
v -0.77623 2.45829 -0.90451
v -0.77623 2.45829 -2.71441
v -0.77623 3.38726 -2.71441
v -0.77623 2.45829 -2.71441
v -2.54479 2.45829 -2.71441
v -2.54479 3.38726 -2.71441
v -0.77623 3.38726 -0.90451
v -0.77623 3.38726 -2.71441
v -2.54479 3.38726 -2.71441
v -2.54479 2.45829 -0.90451
v -2.54479 2.45829 -2.71441
v -0.77623 2.45829 -2.71441
v 2.52404 2.45829 -2.67467
v 0.75548 2.45829 -2.67467
v 0.75548 3.38726 -2.67467
v 0.75548 2.45829 -2.67467
v 0.75548 2.45829 -0.86477
v 0.75548 3.38726 -0.86477
v 0.75548 2.45829 -0.86477
v 2.52404 2.45829 -0.86477
v 2.52404 3.38726 -0.86477
v 2.52404 2.45829 -0.86477
v 2.52404 2.45829 -2.67467
v 2.52404 3.38726 -2.67467
v 0.75548 3.38726 -0.86477
v 2.52404 3.38726 -0.86477
v 2.52404 3.38726 -2.67467
v 0.75548 2.45829 -0.86477
v 0.75548 2.45829 -2.67467
v 2.52404 2.45829 -2.67467
v 2.52404 2.45829 2.58015
v 2.52404 2.45829 0.77025
v 2.52404 3.38726 0.77025
v 2.52404 2.45829 0.77025
v 0.75548 2.45829 0.77025
v 0.75548 3.38726 0.77025
v 0.75548 2.45829 0.77025
v 0.75548 2.45829 2.58015
v 0.75548 3.38726 2.58015
v 0.75548 2.45829 2.58015
v 2.52404 2.45829 2.58015
v 2.52404 3.38726 2.58015
v 0.75548 3.38726 0.77025
v 0.75548 3.38726 2.58015
v 2.52404 3.38726 2.58015
v 2.52404 2.45829 0.77025
v 2.52404 2.45829 2.58015
v 0.75548 2.45829 2.58015
v -2.56311 2.45829 2.58015
v -0.79455 2.45829 2.58015
v -0.79455 3.38726 2.58015
v -0.79455 2.45829 2.58015
v -0.79455 2.45829 0.77025
v -0.79455 3.38726 0.77025
v -0.79455 2.45829 0.77025
v -2.56311 2.45829 0.77025
v -2.56311 3.38726 0.77025
v -2.56311 2.45829 0.77025
v -2.56311 2.45829 2.58015
v -2.56311 3.38726 2.58015
v -0.79455 3.38726 0.77025
v -2.56311 3.38726 0.77025
v -2.56311 3.38726 2.58015
v -0.79455 2.45829 2.58015
v -2.56311 2.45829 2.58015
v -2.56311 2.45829 0.77025
v -2.54479 3.75157 -2.71441
v -2.54479 3.75157 -0.90451
v -2.54479 4.68053 -0.90451
v -2.54479 3.75157 -0.90451
v -0.77623 3.75157 -0.90451
v -0.77623 4.68053 -0.90451
v -0.77623 3.75157 -0.90451
v -0.77623 3.75157 -2.71441
v -0.77623 4.68053 -2.71441
v -0.77623 3.75157 -2.71441
v -2.54479 3.75157 -2.71441
v -2.54479 4.68053 -2.71441
v -0.77623 4.68053 -0.90451
v -0.77623 4.68053 -2.71441
v -2.54479 4.68053 -2.71441
v -2.54479 3.75157 -0.90451
v -2.54479 3.75157 -2.71441
v -0.77623 3.75157 -2.71441
v 2.52404 3.75157 -2.67467
v 0.75548 3.75157 -2.67467
v 0.75548 4.68053 -2.67467
v 0.75548 3.75157 -2.67467
v 0.75548 3.75157 -0.86477
v 0.75548 4.68053 -0.86477
v 0.75548 3.75157 -0.86477
v 2.52404 3.75157 -0.86477
v 2.52404 4.68053 -0.86477
v 2.52404 3.75157 -0.86477
v 2.52404 3.75157 -2.67467
v 2.52404 4.68053 -2.67467
v 0.75548 4.68053 -0.86477
v 2.52404 4.68053 -0.86477
v 2.52404 4.68053 -2.67467
v 0.75548 3.75157 -0.86477
v 0.75548 3.75157 -2.67467
v 2.52404 3.75157 -2.67467
v 2.52404 3.75157 2.58015
v 2.52404 3.75157 0.77025
v 2.52404 4.68053 0.77025
v 2.52404 3.75157 0.77025
v 0.75548 3.75157 0.77025
v 0.75548 4.68053 0.77025
v 0.75548 3.75157 0.77025
v 0.75548 3.75157 2.58015
v 0.75548 4.68053 2.58015
v 0.75548 3.75157 2.58015
v 2.52404 3.75157 2.58015
v 2.52404 4.68053 2.58015
v 0.75548 4.68053 0.77025
v 0.75548 4.68053 2.58015
v 2.52404 4.68053 2.58015
v 2.52404 3.75157 0.77025
v 2.52404 3.75157 2.58015
v 0.75548 3.75157 2.58015
v -2.56311 3.75157 2.58015
v -0.79455 3.75157 2.58015
v -0.79455 4.68053 2.58015
v -0.79455 3.75157 2.58015
v -0.79455 3.75157 0.77025
v -0.79455 4.68053 0.77025
v -0.79455 3.75157 0.77025
v -2.56311 3.75157 0.77025
v -2.56311 4.68053 0.77025
v -2.56311 3.75157 0.77025
v -2.56311 3.75157 2.58015
v -2.56311 4.68053 2.58015
v -0.79455 4.68053 0.77025
v -2.56311 4.68053 0.77025
v -2.56311 4.68053 2.58015
v -0.79455 3.75157 2.58015
v -2.56311 3.75157 2.58015
v -2.56311 3.75157 0.77025
v -2.30465 9.03550 -2.46218
v -2.30465 9.03550 -0.82409
v -2.30465 9.96447 -0.82409
v -2.30465 9.03550 -0.82409
v -0.70397 9.03550 -0.82409
v -0.70397 9.96447 -0.82409
v -0.70397 9.03550 -0.82409
v -0.70397 9.03550 -2.46218
v -0.70397 9.96447 -2.46218
v -0.70397 9.03550 -2.46218
v -2.30465 9.03550 -2.46218
v -2.30465 9.96447 -2.46218
v -0.70397 9.96447 -0.82409
v -0.70397 9.96447 -2.46218
v -2.30465 9.96447 -2.46218
v -2.30465 9.03550 -0.82409
v -2.30465 9.03550 -2.46218
v -0.70397 9.03550 -2.46218
v 2.28303 9.03550 -2.42621
v 0.68235 9.03550 -2.42621
v 0.68235 9.96447 -2.42621
v 0.68235 9.03550 -2.42621
v 0.68235 9.03550 -0.78811
v 0.68235 9.96447 -0.78811
v 0.68235 9.03550 -0.78811
v 2.28303 9.03550 -0.78811
v 2.28303 9.96447 -0.78811
v 2.28303 9.03550 -0.78811
v 2.28303 9.03550 -2.42621
v 2.28303 9.96447 -2.42621
v 0.68235 9.96447 -0.78811
v 2.28303 9.96447 -0.78811
v 2.28303 9.96447 -2.42621
v 0.68235 9.03550 -2.42621
v 2.28303 9.03550 -2.42621
v 2.28303 9.03550 -0.78811
v 2.28303 9.03550 2.32980
v 2.28303 9.03550 0.69171
v 2.28303 9.96447 0.69171
v 2.28303 9.03550 0.69171
v 0.68235 9.03550 0.69171
v 0.68235 9.96447 0.69171
v 0.68235 9.03550 0.69171
v 0.68235 9.03550 2.32980
v 0.68235 9.96447 2.32980
v 0.68235 9.03550 2.32980
v 2.28303 9.03550 2.32980
v 2.28303 9.96447 2.32980
v 0.68235 9.96447 0.69171
v 0.68235 9.96447 2.32980
v 2.28303 9.96447 2.32980
v 2.28303 9.03550 0.69171
v 2.28303 9.03550 2.32980
v 0.68235 9.03550 2.32980
v -2.32123 9.03550 2.32980
v -0.72055 9.03550 2.32980
v -0.72055 9.96447 2.32980
v -0.72055 9.03550 2.32980
v -0.72055 9.03550 0.69171
v -0.72055 9.96447 0.69171
v -0.72055 9.03550 0.69171
v -2.32123 9.03550 0.69171
v -2.32123 9.96447 0.69171
v -2.32123 9.03550 0.69171
v -2.32123 9.03550 2.32980
v -2.32123 9.96447 2.32980
v -0.72055 9.96447 2.32980
v -0.72055 9.96447 0.69171
v -2.32123 9.96447 0.69171
v -0.72055 9.03550 2.32980
v -2.32123 9.03550 2.32980
v -2.32123 9.03550 0.69171
v -2.98413 -4.52445 -1.17071
v -2.98413 -4.52445 0.35370
v -2.98413 -3.26334 0.35370
v -2.47389 -2.63008 0.35370
v -2.47389 -4.73542 0.35370
v 0.96145 -2.65209 0.35370
v 0.96145 -2.65209 0.35370
v 0.96145 -2.65209 -1.17071
v 0.96145 -2.61509 -1.17071
v -2.47389 -4.73542 -1.17071
v -2.98413 -4.52445 -1.17071
v -2.98413 -3.26334 -1.17071
v -2.47389 -2.63008 0.35370
v -2.23030 -2.27387 0.35307
v -2.23030 -2.27870 -1.17134
v -2.98413 -4.52445 0.35370
v -2.98413 -4.52445 -1.17071
v -2.47389 -4.73542 -1.17071
v -2.47389 -4.73542 0.35370
v -2.47389 -4.73542 -1.17071
v 0.96145 -2.65209 -1.17071
v -2.98413 -3.26334 0.35370
v -2.47389 -2.63008 0.35370
v -2.47389 -2.63492 -1.17071
v 0.96145 -2.65209 -1.17071
v -2.47389 -4.73542 -1.17071
v -2.47389 -2.63492 -1.17071
v -2.98413 -4.52445 0.35370
v -2.98413 -4.52445 0.75761
v -2.98413 -3.26334 0.75761
v -2.98413 -4.52445 0.75761
v -2.47389 -4.73542 0.75761
v -2.47389 -3.71252 0.75761
v -2.47389 -4.73542 0.75761
v -2.47389 -4.73542 0.35370
v 3.96885 -3.31826 3.74438
v -2.47389 -2.63008 0.35370
v -2.98413 -3.26334 0.35370
v -2.98413 -3.26334 0.75761
v -2.47389 -4.73542 0.35370
v -2.47389 -4.73542 0.75761
v -2.98413 -4.52445 0.75761
v 3.96885 -2.53829 3.74438
v 3.96885 -2.53829 4.14829
v 3.96885 -3.31826 4.14829
v -2.47389 -3.71252 0.75761
v -2.47389 -4.73542 0.75761
v 3.96885 -3.31826 4.14829
v -2.47389 -2.63008 0.35370
v 3.96885 -2.53829 3.74438
v 3.96885 -3.31826 3.74438
v -2.47389 -3.71252 0.75761
v 3.96885 -2.53829 4.14829
v 3.96885 -2.53829 3.74438
v -2.23030 -2.27387 0.35307
v 0.95954 -2.25887 0.35307
v 0.95954 -2.25887 -1.17134
v 0.96145 -2.61509 -1.17071
v 0.95954 -2.25887 -1.17134
v 0.95954 -2.25887 0.35307
v 0.96145 -2.61509 0.35370
v 0.95954 -2.25887 0.35307
v -2.23030 -2.27387 0.35307
v 0.96145 -2.61509 -1.17071
v -2.47389 -2.63492 -1.17071
v -2.23030 -2.27870 -1.17134
v -2.79091 -3.91523 0.18176
v -2.79091 -3.58777 0.03906
v -3.80783 -3.58777 0.03906
v -2.79091 -3.58777 0.03906
v -2.79091 -3.45213 -0.30545
v -3.80783 -3.45213 -0.30545
v -2.79091 -3.45213 -0.30545
v -2.79091 -3.58777 -0.64996
v -3.80783 -3.58777 -0.64996
v -2.79091 -3.58777 -0.64996
v -2.79091 -3.91523 -0.79266
v -3.80783 -3.91523 -0.79266
v -2.79091 -3.91523 -0.79266
v -2.79091 -4.24268 -0.64996
v -3.80783 -4.24268 -0.64996
v -2.79091 -4.24268 -0.64996
v -2.79091 -4.37832 -0.30545
v -3.80783 -4.37832 -0.30545
v -2.79091 -3.45213 -0.30545
v -2.79091 -3.58777 0.03906
v -2.79091 -4.37832 -0.30545
v -2.79091 -3.58777 0.03906
v -2.79091 -3.91523 0.18176
v -2.79091 -4.37832 -0.30545
v -2.79091 -3.91523 0.18176
v -2.79091 -4.24268 0.03906
v -2.79091 -4.37832 -0.30545
v -2.79091 -4.37832 -0.30545
v -2.79091 -4.24268 -0.64996
v -2.79091 -3.91523 -0.79266
v -2.79091 -3.91523 -0.79266
v -2.79091 -3.58777 -0.64996
v -2.79091 -4.37832 -0.30545
v -2.79091 -4.37832 -0.30545
v -2.79091 -4.24268 0.03906
v -3.80783 -4.24268 0.03906
v -2.79091 -4.24268 0.03906
v -2.79091 -3.91523 0.18176
v -3.80783 -3.91523 0.18176
v -3.80783 -3.45213 -0.30545
v -3.80783 -3.58777 -0.64996
v -4.35826 -3.12430 -0.64996
v -4.59630 -3.35584 0.18176
v -4.63206 -0.63374 0.63049
v -4.96870 -0.63374 0.48779
v -3.80783 -4.24268 -0.64996
v -3.80783 -4.37832 -0.30545
v -4.93294 -3.68330 -0.30545
v -3.80783 -3.58777 -0.64996
v -3.80783 -3.91523 -0.79266
v -4.59630 -3.35584 -0.79266
v -3.80783 -4.24268 0.03906
v -4.83434 -3.58739 0.03906
v -4.93294 -3.68330 -0.30545
v -3.80783 -3.45213 -0.30545
v -4.25966 -3.02839 -0.30545
v -4.35826 -3.12430 0.03906
v -3.80783 -3.91523 -0.79266
v -3.80783 -4.24268 -0.64996
v -4.83434 -3.58739 -0.64996
v -3.80783 -3.91523 0.18176
v -4.59630 -3.35584 0.18176
v -4.83434 -3.58739 0.03906
v -3.80783 -3.58777 0.03906
v -4.35826 -3.12430 0.03906
v -4.59630 -3.35584 0.18176
v -4.96870 -0.63374 0.48779
v -3.43646 2.24530 0.38511
v -3.56284 2.30262 0.04060
v -4.93294 -3.68330 -0.30545
v -5.10814 -0.63374 0.14328
v -4.96870 -0.63374 -0.20123
v -4.35826 -3.12430 -0.64996
v -4.59630 -3.35584 -0.79266
v -4.63206 -0.63374 -0.34393
v -4.35826 -3.12430 0.03906
v -4.25966 -3.02839 -0.30545
v -4.15598 -0.63374 0.14328
v -4.83434 -3.58739 0.03906
v -4.96870 -0.63374 0.48779
v -5.10814 -0.63374 0.14328
v -4.59630 -3.35584 -0.79266
v -4.83434 -3.58739 -0.64996
v -4.96870 -0.63374 -0.20123
v -4.25966 -3.02839 -0.30545
v -4.35826 -3.12430 -0.64996
v -4.29542 -0.63374 -0.20123
v -4.35826 -3.12430 0.03906
v -4.29542 -0.63374 0.48779
v -4.63206 -0.63374 0.63049
v -3.13136 2.10691 0.52780
v -2.82627 1.96853 0.38511
v -2.64195 4.42086 0.24076
v -4.63206 -0.63374 -0.34393
v -4.96870 -0.63374 -0.20123
v -3.43646 2.24530 -0.30391
v -4.15598 -0.63374 0.14328
v -4.29542 -0.63374 -0.20123
v -2.82627 1.96853 -0.30391
v -4.29542 -0.63374 0.48779
v -2.82627 1.96853 0.38511
v -3.13136 2.10691 0.52780
v -4.63206 -0.63374 0.63049
v -3.13136 2.10691 0.52780
v -3.43646 2.24530 0.38511
v -4.96870 -0.63374 -0.20123
v -5.10814 -0.63374 0.14328
v -3.56284 2.30262 0.04060
v -4.29542 -0.63374 -0.20123
v -4.63206 -0.63374 -0.34393
v -3.13136 2.10691 -0.44661
v -4.15598 -0.63374 0.14328
v -2.69989 1.91120 0.04060
v -2.82627 1.96853 0.38511
v -3.45158 4.35196 -0.10374
v -3.31267 4.36378 0.24076
v -3.32765 4.65832 0.21815
v -3.43646 2.24530 0.38511
v -3.13136 2.10691 0.52780
v -2.97731 4.39232 0.38346
v -3.43646 2.24530 -0.30391
v -3.56284 2.30262 0.04060
v -3.45158 4.35196 -0.10374
v -3.13136 2.10691 -0.44661
v -2.97731 4.39232 -0.59095
v -2.64195 4.42086 -0.44825
v -2.69989 1.91120 0.04060
v -2.50304 4.43268 -0.10374
v -2.64195 4.42086 0.24076
v -3.56284 2.30262 0.04060
v -3.43646 2.24530 0.38511
v -3.31267 4.36378 0.24076
v -3.43646 2.24530 -0.30391
v -3.31267 4.36378 -0.44825
v -2.97731 4.39232 -0.59095
v -2.82627 1.96853 -0.30391
v -2.64195 4.42086 -0.44825
v -2.50304 4.43268 -0.10374
v -2.69497 4.88232 0.21815
v -2.56394 4.92871 -0.12636
v -2.97916 5.91153 -0.06727
v -2.97731 4.39232 -0.59095
v -3.31267 4.36378 -0.44825
v -3.32765 4.65832 -0.47087
v -2.64195 4.42086 -0.44825
v -2.69497 4.88232 -0.47087
v -2.56394 4.92871 -0.12636
v -2.64195 4.42086 0.24076
v -2.69497 4.88232 0.21815
v -3.01131 4.77032 0.36085
v -2.97731 4.39232 0.38346
v -3.01131 4.77032 0.36085
v -3.32765 4.65832 0.21815
v -3.31267 4.36378 -0.44825
v -3.45158 4.35196 -0.10374
v -3.45868 4.61193 -0.12636
v -2.64195 4.42086 -0.44825
v -2.97731 4.39232 -0.59095
v -3.01131 4.77032 -0.61357
v -2.50304 4.43268 -0.10374
v -2.56394 4.92871 -0.12636
v -2.69497 4.88232 0.21815
v -3.78879 5.98044 0.27724
v -3.45343 5.95190 0.41994
v -3.21106 8.64661 0.32752
v -3.45868 4.61193 -0.12636
v -3.32765 4.65832 0.21815
v -3.78879 5.98044 0.27724
v -3.32765 4.65832 -0.47087
v -3.78879 5.98044 -0.41177
v -3.45343 5.95190 -0.55447
v -2.69497 4.88232 -0.47087
v -3.11807 5.92336 -0.41177
v -2.97916 5.91153 -0.06727
v -3.01131 4.77032 0.36085
v -2.69497 4.88232 0.21815
v -3.11807 5.92336 0.27724
v -3.32765 4.65832 0.21815
v -3.01131 4.77032 0.36085
v -3.45343 5.95190 0.41994
v -3.45868 4.61193 -0.12636
v -3.92770 5.99226 -0.06727
v -3.78879 5.98044 -0.41177
v -3.01131 4.77032 -0.61357
v -3.45343 5.95190 -0.55447
v -3.11807 5.92336 -0.41177
v -2.73679 8.60625 -0.15969
v -2.87570 8.61807 -0.50419
v -1.95512 9.06338 -0.25950
v -3.78879 5.98044 -0.41177
v -3.92770 5.99226 -0.06727
v -3.68533 8.68697 -0.15969
v -3.45343 5.95190 -0.55447
v -3.21106 8.64661 -0.64689
v -2.87570 8.61807 -0.50419
v -2.97916 5.91153 -0.06727
v -2.73679 8.60625 -0.15969
v -2.87570 8.61807 0.18482
v -3.92770 5.99226 -0.06727
v -3.78879 5.98044 0.27724
v -3.54642 8.67515 0.18482
v -3.45343 5.95190 -0.55447
v -3.78879 5.98044 -0.41177
v -3.54642 8.67515 -0.50419
v -3.11807 5.92336 -0.41177
v -2.87570 8.61807 -0.50419
v -2.73679 8.60625 -0.15969
v -3.11807 5.92336 0.27724
v -2.87570 8.61807 0.18482
v -3.21106 8.64661 0.32752
v -1.84599 9.62085 0.51059
v -1.85494 9.27828 0.60584
v -1.89061 8.97311 0.41974
v -1.89061 8.97311 0.41974
v -1.93211 8.88410 0.06130
v -1.84599 9.62085 0.51059
v -1.93211 8.88410 0.06130
v -1.95512 9.06338 -0.25950
v -1.84599 9.62085 0.51059
v -1.95512 9.06338 -0.25950
v -1.94617 9.40595 -0.35475
v -1.84599 9.62085 0.51059
v -1.94617 9.40595 -0.35475
v -1.91050 9.71112 -0.16865
v -1.84599 9.62085 0.51059
v -2.87570 8.61807 0.18482
v -1.89061 8.97311 0.41974
v -1.85494 9.27828 0.60584
v -3.21106 8.64661 0.32752
v -1.85494 9.27828 0.60584
v -1.84599 9.62085 0.51059
v -3.68533 8.68697 -0.15969
v -1.86901 9.80014 0.18979
v -1.91050 9.71112 -0.16865
v -2.87570 8.61807 -0.50419
v -3.21106 8.64661 -0.64689
v -1.94617 9.40595 -0.35475
v -2.87570 8.61807 0.18482
v -2.73679 8.60625 -0.15969
v -1.93211 8.88410 0.06130
v -3.54642 8.67515 0.18482
v -1.84599 9.62085 0.51059
v -1.86901 9.80014 0.18979
v -3.21106 8.64661 -0.64689
v -3.54642 8.67515 -0.50419
v -1.91050 9.71112 -0.16865
vt 0.39611 0.98196
vt 0.74656 0.86515
vt 0.74656 0.98196
vt 0.39641 0.86539
vt 0.74577 0.74894
vt 0.74577 0.86539
vt 0.38318 0.99689
vt 0.73797 0.93312
vt 0.73797 0.99689
vt 0.38349 0.93290
vt 0.73828 0.86913
vt 0.73828 0.93290
vt 0.20069 0.97110
vt 0.38403 0.78775
vt 0.38403 0.97110
vt 0.18913 0.97110
vt 0.00578 0.78775
vt 0.18913 0.78775
vt 0.37065 0.84121
vt 0.50498 0.70688
vt 0.50498 0.84121
vt 0.36376 0.93648
vt 0.46839 0.83185
vt 0.46839 0.93648
vt 0.39120 0.82670
vt 0.49416 0.76801
vt 0.47203 0.84883
vt 0.36876 0.96127
vt 0.51249 0.81754
vt 0.51249 0.96127
vt 0.21460 0.56738
vt 0.00578 0.77620
vt 0.00578 0.56738
vt 0.48948 0.24676
vt 0.43337 0.30287
vt 0.43337 0.24676
vt 0.37028 0.59333
vt 0.42461 0.73844
vt 0.42461 0.59333
vt 0.37028 0.73844
vt 0.42461 0.59333
vt 0.42461 0.73844
vt 0.37028 0.73844
vt 0.42461 0.59333
vt 0.42461 0.73844
vt 0.37028 0.73844
vt 0.42461 0.59333
vt 0.42461 0.73844
vt 0.42361 0.68023
vt 0.37095 0.73288
vt 0.37095 0.68023
vt 0.42361 0.68023
vt 0.37095 0.73288
vt 0.37095 0.68023
vt 0.37028 0.59333
vt 0.42461 0.73844
vt 0.42461 0.59333
vt 0.37028 0.73844
vt 0.42461 0.59333
vt 0.42461 0.73844
vt 0.37028 0.73844
vt 0.42461 0.59333
vt 0.42461 0.73844
vt 0.37028 0.73844
vt 0.42461 0.59333
vt 0.42461 0.73844
vt 0.42361 0.68023
vt 0.37095 0.73288
vt 0.37095 0.68023
vt 0.37095 0.68023
vt 0.42361 0.73288
vt 0.37095 0.73288
vt 0.37028 0.59333
vt 0.42461 0.73844
vt 0.42461 0.59333
vt 0.37028 0.73844
vt 0.42461 0.59333
vt 0.42461 0.73844
vt 0.37028 0.73844
vt 0.42461 0.59333
vt 0.42461 0.73844
vt 0.37028 0.73844
vt 0.42461 0.59333
vt 0.42461 0.73844
vt 0.42361 0.68023
vt 0.37095 0.73288
vt 0.37095 0.68023
vt 0.42361 0.68023
vt 0.37095 0.73288
vt 0.37095 0.68023
vt 0.37028 0.59333
vt 0.42461 0.73844
vt 0.42461 0.59333
vt 0.37028 0.73844
vt 0.42461 0.59333
vt 0.42461 0.73844
vt 0.37028 0.73844
vt 0.42461 0.59333
vt 0.42461 0.73844
vt 0.37028 0.73844
vt 0.42461 0.59333
vt 0.42461 0.73844
vt 0.42361 0.68023
vt 0.37095 0.73288
vt 0.37095 0.68023
vt 0.42361 0.68023
vt 0.37095 0.73288
vt 0.37095 0.68023
vt 0.37028 0.59333
vt 0.42461 0.73844
vt 0.42461 0.59333
vt 0.37028 0.73844
vt 0.42461 0.59333
vt 0.42461 0.73844
vt 0.37028 0.73844
vt 0.42461 0.59333
vt 0.42461 0.73844
vt 0.37028 0.73844
vt 0.42461 0.59333
vt 0.42461 0.73844
vt 0.42361 0.68023
vt 0.37095 0.73288
vt 0.37095 0.68023
vt 0.42361 0.68023
vt 0.37095 0.73288
vt 0.37095 0.68023
vt 0.37028 0.59333
vt 0.42461 0.73844
vt 0.42461 0.59333
vt 0.37028 0.73844
vt 0.42461 0.59333
vt 0.42461 0.73844
vt 0.37028 0.73844
vt 0.42461 0.59333
vt 0.42461 0.73844
vt 0.37028 0.73844
vt 0.42461 0.59333
vt 0.42461 0.73844
vt 0.42361 0.68023
vt 0.37095 0.73288
vt 0.37095 0.68023
vt 0.37095 0.68023
vt 0.42361 0.73288
vt 0.37095 0.73288
vt 0.37028 0.59333
vt 0.42461 0.73844
vt 0.42461 0.59333
vt 0.37028 0.73844
vt 0.42461 0.59333
vt 0.42461 0.73844
vt 0.37028 0.73844
vt 0.42461 0.59333
vt 0.42461 0.73844
vt 0.37028 0.73844
vt 0.42461 0.59333
vt 0.42461 0.73844
vt 0.42361 0.68023
vt 0.37095 0.73288
vt 0.37095 0.68023
vt 0.42361 0.68023
vt 0.37095 0.73288
vt 0.37095 0.68023
vt 0.37028 0.59333
vt 0.42461 0.73844
vt 0.42461 0.59333
vt 0.37028 0.73844
vt 0.42461 0.59333
vt 0.42461 0.73844
vt 0.37028 0.73844
vt 0.42461 0.59333
vt 0.42461 0.73844
vt 0.37028 0.73844
vt 0.42461 0.59333
vt 0.42461 0.73844
vt 0.42361 0.68023
vt 0.37095 0.73288
vt 0.37095 0.68023
vt 0.42361 0.68023
vt 0.37095 0.73288
vt 0.37095 0.68023
vt 0.37028 0.59333
vt 0.42461 0.73844
vt 0.42461 0.59333
vt 0.37028 0.73844
vt 0.42461 0.59333
vt 0.42461 0.73844
vt 0.37028 0.73844
vt 0.42461 0.59333
vt 0.42461 0.73844
vt 0.37028 0.73844
vt 0.42461 0.59333
vt 0.42461 0.73844
vt 0.42361 0.68023
vt 0.37095 0.73288
vt 0.37095 0.68023
vt 0.42361 0.68023
vt 0.37095 0.73288
vt 0.37095 0.68023
vt 0.37028 0.59333
vt 0.42461 0.73844
vt 0.42461 0.59333
vt 0.37028 0.73844
vt 0.42461 0.59333
vt 0.42461 0.73844
vt 0.37028 0.73844
vt 0.42461 0.59333
vt 0.42461 0.73844
vt 0.37028 0.73844
vt 0.42461 0.59333
vt 0.42461 0.73844
vt 0.42361 0.68023
vt 0.37095 0.73288
vt 0.37095 0.68023
vt 0.42361 0.68023
vt 0.37095 0.73288
vt 0.37095 0.68023
vt 0.37028 0.59333
vt 0.42461 0.73844
vt 0.42461 0.59333
vt 0.37028 0.73844
vt 0.42461 0.59333
vt 0.42461 0.73844
vt 0.37028 0.73844
vt 0.42461 0.59333
vt 0.42461 0.73844
vt 0.37028 0.73844
vt 0.42461 0.59333
vt 0.42461 0.73844
vt 0.42361 0.68023
vt 0.37095 0.73288
vt 0.37095 0.68023
vt 0.42361 0.68023
vt 0.37095 0.73288
vt 0.37095 0.68023
vt 0.37028 0.59333
vt 0.42461 0.73844
vt 0.42461 0.59333
vt 0.37028 0.73844
vt 0.42461 0.59333
vt 0.42461 0.73844
vt 0.37028 0.73844
vt 0.42461 0.59333
vt 0.42461 0.73844
vt 0.37028 0.73844
vt 0.42461 0.59333
vt 0.42461 0.73844
vt 0.37095 0.68023
vt 0.42361 0.73288
vt 0.37095 0.73288
vt 0.42361 0.68023
vt 0.37095 0.73288
vt 0.37095 0.68023
vt 0.64809 0.65919
vt 0.55018 0.59583
vt 0.64809 0.59583
vt 0.80062 0.63797
vt 0.89241 0.63720
vt 0.89241 0.63797
vt 0.84220 0.14683
vt 0.84487 0.00634
vt 0.84487 0.14683
vt 0.79587 0.63799
vt 0.82948 0.60255
vt 0.84319 0.63858
vt 0.70492 0.59542
vt 0.49230 0.64771
vt 0.49222 0.59542
vt 0.62490 0.59120
vt 0.57441 0.65300
vt 0.57449 0.59113
vt 0.68093 0.59309
vt 0.53313 0.65475
vt 0.53321 0.59289
vt 0.55731 0.65672
vt 0.62590 0.59684
vt 0.62592 0.65672
vt 0.89483 0.63780
vt 0.80064 0.63858
vt 0.89484 0.63858
vt 0.54592 0.64640
vt 0.63684 0.60918
vt 0.63684 0.64640
vt 0.49849 0.61204
vt 0.52955 0.62433
vt 0.50073 0.63551
vt 0.48417 0.64194
vt 0.70296 0.62673
vt 0.70868 0.63743
vt 0.52997 0.64461
vt 0.50073 0.63551
vt 0.52955 0.62433
vt 0.54611 0.64269
vt 0.66079 0.60608
vt 0.66059 0.64331
vt 0.81358 0.61184
vt 0.83935 0.65077
vt 0.81358 0.65077
vt 0.52955 0.62433
vt 0.69780 0.61565
vt 0.69919 0.63017
vt 0.70508 0.64695
vt 0.48286 0.62616
vt 0.70597 0.59492
vt 0.52955 0.62433
vt 0.69768 0.63031
vt 0.52997 0.64461
vt 0.80491 0.28309
vt 0.84339 0.19589
vt 0.84338 0.28311
vt 0.70497 0.59542
vt 0.49236 0.64771
vt 0.49227 0.59542
vt 0.70315 0.59386
vt 0.49920 0.65246
vt 0.49922 0.59386
vt 0.49819 0.59191
vt 0.70211 0.65051
vt 0.49817 0.65051
vt 0.86674 0.11712
vt 0.99699 0.15236
vt 0.86674 0.15236
vt 0.86674 0.11712
vt 0.99699 0.15236
vt 0.86674 0.15236
vt 0.86674 0.11712
vt 0.99699 0.15236
vt 0.86674 0.15236
vt 0.86674 0.11712
vt 0.99699 0.15236
vt 0.86674 0.15236
vt 0.86674 0.11712
vt 0.99699 0.15236
vt 0.86674 0.15236
vt 0.86674 0.11712
vt 0.99699 0.15236
vt 0.86674 0.15236
vt 0.41971 0.08029
vt 0.49000 0.25000
vt 0.01000 0.25000
vt 0.86674 0.11712
vt 0.99699 0.15236
vt 0.86674 0.15236
vt 0.86674 0.11712
vt 0.99699 0.15236
vt 0.86674 0.15236
vt 0.86674 0.15236
vt 0.99699 0.11712
vt 0.99699 0.15236
vt 0.86674 0.11712
vt 0.99699 0.15236
vt 0.86674 0.15236
vt 0.86674 0.15236
vt 0.99699 0.11712
vt 0.99699 0.15236
vt 0.86674 0.15236
vt 0.99699 0.11712
vt 0.99699 0.15236
vt 0.86674 0.11712
vt 0.99699 0.15236
vt 0.86674 0.15236
vt 0.86674 0.11712
vt 0.99699 0.15236
vt 0.86674 0.15236
vt 0.86674 0.15236
vt 0.99699 0.11712
vt 0.99699 0.15236
vt 0.86674 0.11712
vt 0.99699 0.15236
vt 0.86674 0.15236
vt 0.86674 0.11712
vt 0.99699 0.15236
vt 0.86674 0.15236
vt 0.86674 0.11712
vt 0.99699 0.15236
vt 0.86674 0.15236
vt 0.86674 0.11712
vt 0.99699 0.15236
vt 0.86674 0.15236
vt 0.86674 0.15236
vt 0.99699 0.11712
vt 0.99699 0.15236
vt 0.86674 0.15236
vt 0.99699 0.11712
vt 0.99699 0.15236
vt 0.86674 0.11712
vt 0.99699 0.15236
vt 0.86674 0.15236
vt 0.86674 0.15236
vt 0.99699 0.11712
vt 0.99699 0.15236
vt 0.86674 0.15236
vt 0.99699 0.11712
vt 0.99699 0.15236
vt 0.86674 0.11712
vt 0.99699 0.15236
vt 0.86674 0.15236
vt 0.86674 0.15236
vt 0.99699 0.11712
vt 0.99699 0.15236
vt 0.86674 0.15236
vt 0.99699 0.11712
vt 0.99699 0.15236
vt 0.86674 0.15236
vt 0.99699 0.11712
vt 0.99699 0.15236
vt 0.86674 0.11712
vt 0.99699 0.15236
vt 0.86674 0.15236
vt 0.86674 0.11712
vt 0.99699 0.15236
vt 0.86674 0.15236
vt 0.86674 0.15236
vt 0.99699 0.11712
vt 0.99699 0.15236
vt 0.86674 0.15236
vt 0.99699 0.11712
vt 0.99699 0.15236
vt 0.86674 0.11712
vt 0.99699 0.15236
vt 0.86674 0.15236
vt 0.86674 0.15236
vt 0.99699 0.11712
vt 0.99699 0.15236
vt 0.86674 0.15236
vt 0.99699 0.11712
vt 0.99699 0.15236
vt 0.86674 0.15236
vt 0.99699 0.11712
vt 0.99699 0.15236
vt 0.86674 0.11712
vt 0.99699 0.15236
vt 0.86674 0.15236
vt 0.86674 0.11712
vt 0.99699 0.15236
vt 0.86674 0.15236
vt 0.86674 0.15236
vt 0.99699 0.11712
vt 0.99699 0.15236
vt 0.86674 0.11712
vt 0.99699 0.15236
vt 0.86674 0.15236
vt 0.86674 0.11712
vt 0.99699 0.15236
vt 0.86674 0.15236
vt 0.86674 0.15236
vt 0.99699 0.11712
vt 0.99699 0.15236
vt 0.86674 0.15236
vt 0.99699 0.11712
vt 0.99699 0.15236
vt 0.86674 0.11712
vt 0.99699 0.15236
vt 0.86674 0.15236
vt 0.86674 0.11712
vt 0.99699 0.15236
vt 0.86674 0.15236
vt 0.86674 0.11712
vt 0.99699 0.15236
vt 0.86674 0.15236
vt 0.86674 0.15236
vt 0.99699 0.11712
vt 0.99699 0.15236
vt 0.86674 0.15236
vt 0.99699 0.11712
vt 0.99699 0.15236
vt 0.86674 0.11712
vt 0.99699 0.15236
vt 0.86674 0.15236
vt 0.86674 0.15236
vt 0.99699 0.11712
vt 0.99699 0.15236
vt 0.86674 0.15236
vt 0.99699 0.11712
vt 0.99699 0.15236
vt 0.86674 0.11712
vt 0.99699 0.15236
vt 0.86674 0.15236
vt 0.86674 0.11712
vt 0.99699 0.15236
vt 0.86674 0.15236
vt 0.86674 0.15236
vt 0.99699 0.11712
vt 0.99699 0.15236
vt 0.86674 0.15236
vt 0.99699 0.11712
vt 0.99699 0.15236
vt 0.86674 0.11712
vt 0.99699 0.15236
vt 0.86674 0.15236
vt 0.86674 0.11712
vt 0.99699 0.15236
vt 0.86674 0.15236
vt 0.86674 0.15236
vt 0.99699 0.11712
vt 0.99699 0.15236
vt 0.86674 0.15236
vt 0.99699 0.11712
vt 0.99699 0.15236
vt 0.86674 0.11712
vt 0.99699 0.15236
vt 0.86674 0.15236
vt 0.86674 0.11712
vt 0.99699 0.15236
vt 0.86674 0.15236
vt 0.86674 0.15236
vt 0.99699 0.11712
vt 0.99699 0.15236
vt 0.86674 0.15236
vt 0.99699 0.11712
vt 0.99699 0.15236
vt 0.86674 0.11712
vt 0.99699 0.15236
vt 0.86674 0.15236
vt 0.86674 0.11712
vt 0.99699 0.15236
vt 0.86674 0.15236
vt 0.88581 0.14720
vt 0.93186 0.15236
vt 0.97791 0.14720
vt 0.86674 0.11712
vt 0.99699 0.15236
vt 0.86674 0.15236
vt 0.86674 0.11712
vt 0.99699 0.15236
vt 0.86674 0.15236
vt 0.86674 0.11712
vt 0.99699 0.15236
vt 0.86674 0.15236
vt 0.86674 0.15236
vt 0.99699 0.11712
vt 0.99699 0.15236
vt 0.86674 0.15236
vt 0.99699 0.11712
vt 0.99699 0.15236
vt 0.86674 0.11712
vt 0.99699 0.15236
vt 0.86674 0.15236
vt 0.86674 0.15236
vt 0.99699 0.11712
vt 0.99699 0.15236
vt 0.39611 0.98196
vt 0.39611 0.86515
vt 0.74656 0.86515
vt 0.39641 0.86539
vt 0.39641 0.74894
vt 0.74577 0.74894
vt 0.38318 0.99689
vt 0.38318 0.93312
vt 0.73797 0.93312
vt 0.38349 0.93290
vt 0.38349 0.86913
vt 0.73828 0.86913
vt 0.20069 0.97110
vt 0.20069 0.78775
vt 0.38403 0.78775
vt 0.18913 0.97110
vt 0.00578 0.97110
vt 0.00578 0.78775
vt 0.37065 0.84121
vt 0.37065 0.70688
vt 0.50498 0.70688
vt 0.36376 0.93648
vt 0.36376 0.83185
vt 0.46839 0.83185
vt 0.39120 0.82670
vt 0.41334 0.74587
vt 0.49416 0.76801
vt 0.36876 0.96127
vt 0.36876 0.81754
vt 0.51249 0.81754
vt 0.21460 0.56738
vt 0.21460 0.77620
vt 0.00578 0.77620
vt 0.48948 0.24676
vt 0.48948 0.30287
vt 0.43337 0.30287
vt 0.37028 0.59333
vt 0.37028 0.73844
vt 0.42461 0.73844
vt 0.37028 0.73844
vt 0.37028 0.59333
vt 0.42461 0.59333
vt 0.37028 0.73844
vt 0.37028 0.59333
vt 0.42461 0.59333
vt 0.37028 0.73844
vt 0.37028 0.59333
vt 0.42461 0.59333
vt 0.42361 0.68023
vt 0.42361 0.73288
vt 0.37095 0.73288
vt 0.42361 0.68023
vt 0.42361 0.73288
vt 0.37095 0.73288
vt 0.37028 0.59333
vt 0.37028 0.73844
vt 0.42461 0.73844
vt 0.37028 0.73844
vt 0.37028 0.59333
vt 0.42461 0.59333
vt 0.37028 0.73844
vt 0.37028 0.59333
vt 0.42461 0.59333
vt 0.37028 0.73844
vt 0.37028 0.59333
vt 0.42461 0.59333
vt 0.42361 0.68023
vt 0.42361 0.73288
vt 0.37095 0.73288
vt 0.37095 0.68023
vt 0.42361 0.68023
vt 0.42361 0.73288
vt 0.37028 0.59333
vt 0.37028 0.73844
vt 0.42461 0.73844
vt 0.37028 0.73844
vt 0.37028 0.59333
vt 0.42461 0.59333
vt 0.37028 0.73844
vt 0.37028 0.59333
vt 0.42461 0.59333
vt 0.37028 0.73844
vt 0.37028 0.59333
vt 0.42461 0.59333
vt 0.42361 0.68023
vt 0.42361 0.73288
vt 0.37095 0.73288
vt 0.42361 0.68023
vt 0.42361 0.73288
vt 0.37095 0.73288
vt 0.37028 0.59333
vt 0.37028 0.73844
vt 0.42461 0.73844
vt 0.37028 0.73844
vt 0.37028 0.59333
vt 0.42461 0.59333
vt 0.37028 0.73844
vt 0.37028 0.59333
vt 0.42461 0.59333
vt 0.37028 0.73844
vt 0.37028 0.59333
vt 0.42461 0.59333
vt 0.42361 0.68023
vt 0.42361 0.73288
vt 0.37095 0.73288
vt 0.42361 0.68023
vt 0.42361 0.73288
vt 0.37095 0.73288
vt 0.37028 0.59333
vt 0.37028 0.73844
vt 0.42461 0.73844
vt 0.37028 0.73844
vt 0.37028 0.59333
vt 0.42461 0.59333
vt 0.37028 0.73844
vt 0.37028 0.59333
vt 0.42461 0.59333
vt 0.37028 0.73844
vt 0.37028 0.59333
vt 0.42461 0.59333
vt 0.42361 0.68023
vt 0.42361 0.73288
vt 0.37095 0.73288
vt 0.42361 0.68023
vt 0.42361 0.73288
vt 0.37095 0.73288
vt 0.37028 0.59333
vt 0.37028 0.73844
vt 0.42461 0.73844
vt 0.37028 0.73844
vt 0.37028 0.59333
vt 0.42461 0.59333
vt 0.37028 0.73844
vt 0.37028 0.59333
vt 0.42461 0.59333
vt 0.37028 0.73844
vt 0.37028 0.59333
vt 0.42461 0.59333
vt 0.42361 0.68023
vt 0.42361 0.73288
vt 0.37095 0.73288
vt 0.37095 0.68023
vt 0.42361 0.68023
vt 0.42361 0.73288
vt 0.37028 0.59333
vt 0.37028 0.73844
vt 0.42461 0.73844
vt 0.37028 0.73844
vt 0.37028 0.59333
vt 0.42461 0.59333
vt 0.37028 0.73844
vt 0.37028 0.59333
vt 0.42461 0.59333
vt 0.37028 0.73844
vt 0.37028 0.59333
vt 0.42461 0.59333
vt 0.42361 0.68023
vt 0.42361 0.73288
vt 0.37095 0.73288
vt 0.42361 0.68023
vt 0.42361 0.73288
vt 0.37095 0.73288
vt 0.37028 0.59333
vt 0.37028 0.73844
vt 0.42461 0.73844
vt 0.37028 0.73844
vt 0.37028 0.59333
vt 0.42461 0.59333
vt 0.37028 0.73844
vt 0.37028 0.59333
vt 0.42461 0.59333
vt 0.37028 0.73844
vt 0.37028 0.59333
vt 0.42461 0.59333
vt 0.42361 0.68023
vt 0.42361 0.73288
vt 0.37095 0.73288
vt 0.42361 0.68023
vt 0.42361 0.73288
vt 0.37095 0.73288
vt 0.37028 0.59333
vt 0.37028 0.73844
vt 0.42461 0.73844
vt 0.37028 0.73844
vt 0.37028 0.59333
vt 0.42461 0.59333
vt 0.37028 0.73844
vt 0.37028 0.59333
vt 0.42461 0.59333
vt 0.37028 0.73844
vt 0.37028 0.59333
vt 0.42461 0.59333
vt 0.42361 0.68023
vt 0.42361 0.73288
vt 0.37095 0.73288
vt 0.42361 0.68023
vt 0.42361 0.73288
vt 0.37095 0.73288
vt 0.37028 0.59333
vt 0.37028 0.73844
vt 0.42461 0.73844
vt 0.37028 0.73844
vt 0.37028 0.59333
vt 0.42461 0.59333
vt 0.37028 0.73844
vt 0.37028 0.59333
vt 0.42461 0.59333
vt 0.37028 0.73844
vt 0.37028 0.59333
vt 0.42461 0.59333
vt 0.42361 0.68023
vt 0.42361 0.73288
vt 0.37095 0.73288
vt 0.42361 0.68023
vt 0.42361 0.73288
vt 0.37095 0.73288
vt 0.37028 0.59333
vt 0.37028 0.73844
vt 0.42461 0.73844
vt 0.37028 0.73844
vt 0.37028 0.59333
vt 0.42461 0.59333
vt 0.37028 0.73844
vt 0.37028 0.59333
vt 0.42461 0.59333
vt 0.37028 0.73844
vt 0.37028 0.59333
vt 0.42461 0.59333
vt 0.42361 0.68023
vt 0.42361 0.73288
vt 0.37095 0.73288
vt 0.42361 0.68023
vt 0.42361 0.73288
vt 0.37095 0.73288
vt 0.37028 0.59333
vt 0.37028 0.73844
vt 0.42461 0.73844
vt 0.37028 0.73844
vt 0.37028 0.59333
vt 0.42461 0.59333
vt 0.37028 0.73844
vt 0.37028 0.59333
vt 0.42461 0.59333
vt 0.37028 0.73844
vt 0.37028 0.59333
vt 0.42461 0.59333
vt 0.37095 0.68023
vt 0.42361 0.68023
vt 0.42361 0.73288
vt 0.42361 0.68023
vt 0.42361 0.73288
vt 0.37095 0.73288
vt 0.64809 0.65919
vt 0.55018 0.65919
vt 0.55018 0.59583
vt 0.80062 0.63797
vt 0.80047 0.59443
vt 0.89241 0.63720
vt 0.84220 0.14683
vt 0.84220 0.00634
vt 0.84487 0.00634
vt 0.79587 0.63799
vt 0.80107 0.60219
vt 0.82948 0.60255
vt 0.70492 0.59542
vt 0.70500 0.64771
vt 0.49230 0.64771
vt 0.62490 0.59120
vt 0.62482 0.65306
vt 0.57441 0.65300
vt 0.68093 0.59309
vt 0.68085 0.65495
vt 0.53313 0.65475
vt 0.55731 0.65672
vt 0.55729 0.59681
vt 0.62590 0.59684
vt 0.89483 0.63780
vt 0.80044 0.59400
vt 0.80064 0.63858
vt 0.54592 0.64640
vt 0.54592 0.60918
vt 0.63684 0.60918
vt 0.49849 0.61204
vt 0.52773 0.60529
vt 0.52955 0.62433
vt 0.48417 0.64194
vt 0.47845 0.63124
vt 0.70296 0.62673
vt 0.52997 0.64461
vt 0.49922 0.63566
vt 0.50073 0.63551
vt 0.54611 0.64269
vt 0.54631 0.60546
vt 0.66079 0.60608
vt 0.81358 0.61184
vt 0.83935 0.61184
vt 0.83935 0.65077
vt 0.52955 0.62433
vt 0.52773 0.60529
vt 0.69780 0.61565
vt 0.70508 0.64695
vt 0.48253 0.64544
vt 0.48286 0.62616
vt 0.52955 0.62433
vt 0.69919 0.63017
vt 0.69768 0.63031
vt 0.80491 0.28309
vt 0.80492 0.19589
vt 0.84339 0.19589
vt 0.70497 0.59542
vt 0.70506 0.64771
vt 0.49236 0.64771
vt 0.70315 0.59386
vt 0.70314 0.65246
vt 0.49920 0.65246
vt 0.49819 0.59191
vt 0.70212 0.59191
vt 0.70211 0.65051
vt 0.86674 0.11712
vt 0.99699 0.11712
vt 0.99699 0.15236
vt 0.86674 0.11712
vt 0.99699 0.11712
vt 0.99699 0.15236
vt 0.86674 0.11712
vt 0.99699 0.11712
vt 0.99699 0.15236
vt 0.86674 0.11712
vt 0.99699 0.11712
vt 0.99699 0.15236
vt 0.86674 0.11712
vt 0.99699 0.11712
vt 0.99699 0.15236
vt 0.86674 0.11712
vt 0.99699 0.11712
vt 0.99699 0.15236
vt 0.49000 0.25000
vt 0.41971 0.41971
vt 0.01000 0.25000
vt 0.41971 0.41971
vt 0.25000 0.49000
vt 0.01000 0.25000
vt 0.25000 0.49000
vt 0.08029 0.41971
vt 0.01000 0.25000
vt 0.01000 0.25000
vt 0.08029 0.08029
vt 0.25000 0.01000
vt 0.25000 0.01000
vt 0.41971 0.08029
vt 0.01000 0.25000
vt 0.86674 0.11712
vt 0.99699 0.11712
vt 0.99699 0.15236
vt 0.86674 0.11712
vt 0.99699 0.11712
vt 0.99699 0.15236
vt 0.86674 0.15236
vt 0.86674 0.11712
vt 0.99699 0.11712
vt 0.86674 0.11712
vt 0.99699 0.11712
vt 0.99699 0.15236
vt 0.86674 0.15236
vt 0.86674 0.11712
vt 0.99699 0.11712
vt 0.86674 0.15236
vt 0.86674 0.11712
vt 0.99699 0.11712
vt 0.86674 0.11712
vt 0.99699 0.11712
vt 0.99699 0.15236
vt 0.86674 0.11712
vt 0.99699 0.11712
vt 0.99699 0.15236
vt 0.86674 0.15236
vt 0.86674 0.11712
vt 0.99699 0.11712
vt 0.86674 0.11712
vt 0.99699 0.11712
vt 0.99699 0.15236
vt 0.86674 0.11712
vt 0.99699 0.11712
vt 0.99699 0.15236
vt 0.86674 0.11712
vt 0.99699 0.11712
vt 0.99699 0.15236
vt 0.86674 0.11712
vt 0.99699 0.11712
vt 0.99699 0.15236
vt 0.86674 0.15236
vt 0.86674 0.11712
vt 0.99699 0.11712
vt 0.86674 0.15236
vt 0.86674 0.11712
vt 0.99699 0.11712
vt 0.86674 0.11712
vt 0.99699 0.11712
vt 0.99699 0.15236
vt 0.86674 0.15236
vt 0.86674 0.11712
vt 0.99699 0.11712
vt 0.86674 0.15236
vt 0.86674 0.11712
vt 0.99699 0.11712
vt 0.86674 0.11712
vt 0.99699 0.11712
vt 0.99699 0.15236
vt 0.86674 0.15236
vt 0.86674 0.11712
vt 0.99699 0.11712
vt 0.86674 0.15236
vt 0.86674 0.11712
vt 0.99699 0.11712
vt 0.86674 0.15236
vt 0.86674 0.11712
vt 0.99699 0.11712
vt 0.86674 0.11712
vt 0.99699 0.11712
vt 0.99699 0.15236
vt 0.86674 0.11712
vt 0.99699 0.11712
vt 0.99699 0.15236
vt 0.86674 0.15236
vt 0.86674 0.11712
vt 0.99699 0.11712
vt 0.86674 0.15236
vt 0.86674 0.11712
vt 0.99699 0.11712
vt 0.86674 0.11712
vt 0.99699 0.11712
vt 0.99699 0.15236
vt 0.86674 0.15236
vt 0.86674 0.11712
vt 0.99699 0.11712
vt 0.86674 0.15236
vt 0.86674 0.11712
vt 0.99699 0.11712
vt 0.86674 0.15236
vt 0.86674 0.11712
vt 0.99699 0.11712
vt 0.86674 0.11712
vt 0.99699 0.11712
vt 0.99699 0.15236
vt 0.86674 0.11712
vt 0.99699 0.11712
vt 0.99699 0.15236
vt 0.86674 0.15236
vt 0.86674 0.11712
vt 0.99699 0.11712
vt 0.86674 0.11712
vt 0.99699 0.11712
vt 0.99699 0.15236
vt 0.86674 0.11712
vt 0.99699 0.11712
vt 0.99699 0.15236
vt 0.86674 0.15236
vt 0.86674 0.11712
vt 0.99699 0.11712
vt 0.86674 0.15236
vt 0.86674 0.11712
vt 0.99699 0.11712
vt 0.86674 0.11712
vt 0.99699 0.11712
vt 0.99699 0.15236
vt 0.86674 0.11712
vt 0.99699 0.11712
vt 0.99699 0.15236
vt 0.86674 0.11712
vt 0.99699 0.11712
vt 0.99699 0.15236
vt 0.86674 0.15236
vt 0.86674 0.11712
vt 0.99699 0.11712
vt 0.86674 0.15236
vt 0.86674 0.11712
vt 0.99699 0.11712
vt 0.86674 0.11712
vt 0.99699 0.11712
vt 0.99699 0.15236
vt 0.86674 0.15236
vt 0.86674 0.11712
vt 0.99699 0.11712
vt 0.86674 0.15236
vt 0.86674 0.11712
vt 0.99699 0.11712
vt 0.86674 0.11712
vt 0.99699 0.11712
vt 0.99699 0.15236
vt 0.86674 0.11712
vt 0.99699 0.11712
vt 0.99699 0.15236
vt 0.86674 0.15236
vt 0.86674 0.11712
vt 0.99699 0.11712
vt 0.86674 0.15236
vt 0.86674 0.11712
vt 0.99699 0.11712
vt 0.86674 0.11712
vt 0.99699 0.11712
vt 0.99699 0.15236
vt 0.86674 0.11712
vt 0.99699 0.11712
vt 0.99699 0.15236
vt 0.86674 0.15236
vt 0.86674 0.11712
vt 0.99699 0.11712
vt 0.86674 0.15236
vt 0.86674 0.11712
vt 0.99699 0.11712
vt 0.86674 0.11712
vt 0.99699 0.11712
vt 0.99699 0.15236
vt 0.86674 0.11712
vt 0.99699 0.11712
vt 0.99699 0.15236
vt 0.86674 0.15236
vt 0.86674 0.11712
vt 0.99699 0.11712
vt 0.86674 0.15236
vt 0.86674 0.11712
vt 0.99699 0.11712
vt 0.86674 0.11712
vt 0.99699 0.11712
vt 0.99699 0.15236
vt 0.86674 0.11712
vt 0.99699 0.11712
vt 0.99699 0.15236
vt 0.97791 0.14720
vt 0.99699 0.13474
vt 0.97791 0.12228
vt 0.97791 0.12228
vt 0.93186 0.11712
vt 0.97791 0.14720
vt 0.93186 0.11712
vt 0.88581 0.12228
vt 0.97791 0.14720
vt 0.88581 0.12228
vt 0.86674 0.13474
vt 0.97791 0.14720
vt 0.86674 0.13474
vt 0.88581 0.14720
vt 0.97791 0.14720
vt 0.86674 0.11712
vt 0.99699 0.11712
vt 0.99699 0.15236
vt 0.86674 0.11712
vt 0.99699 0.11712
vt 0.99699 0.15236
vt 0.86674 0.11712
vt 0.99699 0.11712
vt 0.99699 0.15236
vt 0.86674 0.15236
vt 0.86674 0.11712
vt 0.99699 0.11712
vt 0.86674 0.15236
vt 0.86674 0.11712
vt 0.99699 0.11712
vt 0.86674 0.11712
vt 0.99699 0.11712
vt 0.99699 0.15236
vt 0.86674 0.15236
vt 0.86674 0.11712
vt 0.99699 0.11712
vn 0.00000 -0.00000 -1.00000
vn 0.00000 -0.00000 -1.00000
vn 0.00000 -0.00000 -1.00000
vn -1.00000 -0.00000 -0.00000
vn -1.00000 -0.00000 -0.00000
vn -1.00000 -0.00000 -0.00000
vn -0.00000 -0.00000 1.00000
vn -0.00000 -0.00000 1.00000
vn -0.00000 -0.00000 1.00000
vn 1.00000 -0.00000 0.00000
vn 1.00000 -0.00000 0.00000
vn 1.00000 -0.00000 0.00000
vn 0.00000 1.00000 -0.00000
vn 0.00000 1.00000 -0.00000
vn 0.00000 1.00000 -0.00000
vn 0.00000 -1.00000 0.00000
vn 0.00000 -1.00000 0.00000
vn 0.00000 -1.00000 0.00000
vn -1.00000 -0.00000 -0.00000
vn -1.00000 -0.00000 -0.00000
vn -1.00000 -0.00000 -0.00000
vn -0.00000 -0.00000 1.00000
vn -0.00000 -0.00000 1.00000
vn -0.00000 -0.00000 1.00000
vn 1.00000 -0.00000 0.00000
vn 1.00000 -0.00000 0.00000
vn 1.00000 -0.00000 0.00000
vn 0.00000 -0.00000 -1.00000
vn 0.00000 -0.00000 -1.00000
vn 0.00000 -0.00000 -1.00000
vn 0.00000 1.00000 -0.00000
vn 0.00000 1.00000 -0.00000
vn 0.00000 1.00000 -0.00000
vn 0.00000 -1.00000 0.00000
vn 0.00000 -1.00000 0.00000
vn 0.00000 -1.00000 0.00000
vn -1.00000 -0.00000 -0.00000
vn -1.00000 -0.00000 -0.00000
vn -1.00000 -0.00000 -0.00000
vn -0.00000 -0.00000 1.00000
vn -0.00000 -0.00000 1.00000
vn -0.00000 -0.00000 1.00000
vn 1.00000 -0.00000 0.00000
vn 1.00000 -0.00000 0.00000
vn 1.00000 -0.00000 0.00000
vn 0.00000 -0.00000 -1.00000
vn 0.00000 -0.00000 -1.00000
vn 0.00000 -0.00000 -1.00000
vn 0.00000 1.00000 -0.00000
vn 0.00000 1.00000 -0.00000
vn 0.00000 1.00000 -0.00000
vn 0.00000 -1.00000 0.00000
vn 0.00000 -1.00000 0.00000
vn 0.00000 -1.00000 0.00000
vn 0.00000 -0.00000 -1.00000
vn 0.00000 -0.00000 -1.00000
vn 0.00000 -0.00000 -1.00000
vn -1.00000 -0.00000 -0.00000
vn -1.00000 -0.00000 -0.00000
vn -1.00000 -0.00000 -0.00000
vn -0.00000 -0.00000 1.00000
vn -0.00000 -0.00000 1.00000
vn -0.00000 -0.00000 1.00000
vn 1.00000 -0.00000 0.00000
vn 1.00000 -0.00000 0.00000
vn 1.00000 -0.00000 0.00000
vn 0.00000 1.00000 -0.00000
vn 0.00000 1.00000 -0.00000
vn 0.00000 1.00000 -0.00000
vn 0.00000 -1.00000 0.00000
vn 0.00000 -1.00000 0.00000
vn 0.00000 -1.00000 0.00000
vn 1.00000 -0.00000 0.00000
vn 1.00000 -0.00000 0.00000
vn 1.00000 -0.00000 0.00000
vn 0.00000 -0.00000 -1.00000
vn 0.00000 -0.00000 -1.00000
vn 0.00000 -0.00000 -1.00000
vn -1.00000 -0.00000 -0.00000
vn -1.00000 -0.00000 -0.00000
vn -1.00000 -0.00000 -0.00000
vn -0.00000 -0.00000 1.00000
vn -0.00000 -0.00000 1.00000
vn -0.00000 -0.00000 1.00000
vn 0.00000 1.00000 -0.00000
vn 0.00000 1.00000 -0.00000
vn 0.00000 1.00000 -0.00000
vn 0.00000 -1.00000 0.00000
vn 0.00000 -1.00000 0.00000
vn 0.00000 -1.00000 0.00000
vn -0.00000 -0.00000 1.00000
vn -0.00000 -0.00000 1.00000
vn -0.00000 -0.00000 1.00000
vn 1.00000 -0.00000 0.00000
vn 1.00000 -0.00000 0.00000
vn 1.00000 -0.00000 0.00000
vn 0.00000 -0.00000 -1.00000
vn 0.00000 -0.00000 -1.00000
vn 0.00000 -0.00000 -1.00000
vn -1.00000 -0.00000 -0.00000
vn -1.00000 -0.00000 -0.00000
vn -1.00000 -0.00000 -0.00000
vn 0.00000 1.00000 -0.00000
vn 0.00000 1.00000 -0.00000
vn 0.00000 1.00000 -0.00000
vn 0.00000 -1.00000 -0.00000
vn 0.00000 -1.00000 -0.00000
vn 0.00000 -1.00000 -0.00000
vn -1.00000 -0.00000 -0.00000
vn -1.00000 -0.00000 -0.00000
vn -1.00000 -0.00000 -0.00000
vn -0.00000 -0.00000 1.00000
vn -0.00000 -0.00000 1.00000
vn -0.00000 -0.00000 1.00000
vn 1.00000 -0.00000 0.00000
vn 1.00000 -0.00000 0.00000
vn 1.00000 -0.00000 0.00000
vn 0.00000 -0.00000 -1.00000
vn 0.00000 -0.00000 -1.00000
vn 0.00000 -0.00000 -1.00000
vn 0.00000 1.00000 -0.00000
vn 0.00000 1.00000 -0.00000
vn 0.00000 1.00000 -0.00000
vn 0.00000 -1.00000 0.00000
vn 0.00000 -1.00000 0.00000
vn 0.00000 -1.00000 0.00000
vn 0.00000 -0.00000 -1.00000
vn 0.00000 -0.00000 -1.00000
vn 0.00000 -0.00000 -1.00000
vn -1.00000 -0.00000 -0.00000
vn -1.00000 -0.00000 -0.00000
vn -1.00000 -0.00000 -0.00000
vn -0.00000 -0.00000 1.00000
vn -0.00000 -0.00000 1.00000
vn -0.00000 -0.00000 1.00000
vn 1.00000 -0.00000 0.00000
vn 1.00000 -0.00000 0.00000
vn 1.00000 -0.00000 0.00000
vn 0.00000 1.00000 -0.00000
vn 0.00000 1.00000 -0.00000
vn 0.00000 1.00000 -0.00000
vn 0.00000 -1.00000 0.00000
vn 0.00000 -1.00000 0.00000
vn 0.00000 -1.00000 0.00000
vn 1.00000 -0.00000 0.00000
vn 1.00000 -0.00000 0.00000
vn 1.00000 -0.00000 0.00000
vn 0.00000 -0.00000 -1.00000
vn 0.00000 -0.00000 -1.00000
vn 0.00000 -0.00000 -1.00000
vn -1.00000 -0.00000 -0.00000
vn -1.00000 -0.00000 -0.00000
vn -1.00000 -0.00000 -0.00000
vn -0.00000 -0.00000 1.00000
vn -0.00000 -0.00000 1.00000
vn -0.00000 -0.00000 1.00000
vn 0.00000 1.00000 -0.00000
vn 0.00000 1.00000 -0.00000
vn 0.00000 1.00000 -0.00000
vn 0.00000 -1.00000 0.00000
vn 0.00000 -1.00000 0.00000
vn 0.00000 -1.00000 0.00000
vn -0.00000 -0.00000 1.00000
vn -0.00000 -0.00000 1.00000
vn -0.00000 -0.00000 1.00000
vn 1.00000 -0.00000 0.00000
vn 1.00000 -0.00000 0.00000
vn 1.00000 -0.00000 0.00000
vn 0.00000 -0.00000 -1.00000
vn 0.00000 -0.00000 -1.00000
vn 0.00000 -0.00000 -1.00000
vn -1.00000 -0.00000 -0.00000
vn -1.00000 -0.00000 -0.00000
vn -1.00000 -0.00000 -0.00000
vn 0.00000 1.00000 -0.00000
vn 0.00000 1.00000 -0.00000
vn 0.00000 1.00000 -0.00000
vn 0.00000 -1.00000 -0.00000
vn 0.00000 -1.00000 -0.00000
vn 0.00000 -1.00000 -0.00000
vn -1.00000 -0.00000 -0.00000
vn -1.00000 -0.00000 -0.00000
vn -1.00000 -0.00000 -0.00000
vn -0.00000 -0.00000 1.00000
vn -0.00000 -0.00000 1.00000
vn -0.00000 -0.00000 1.00000
vn 1.00000 -0.00000 0.00000
vn 1.00000 -0.00000 0.00000
vn 1.00000 -0.00000 0.00000
vn 0.00000 -0.00000 -1.00000
vn 0.00000 -0.00000 -1.00000
vn 0.00000 -0.00000 -1.00000
vn 0.00000 1.00000 -0.00000
vn 0.00000 1.00000 -0.00000
vn 0.00000 1.00000 -0.00000
vn 0.00000 -1.00000 0.00000
vn 0.00000 -1.00000 0.00000
vn 0.00000 -1.00000 0.00000
vn 0.00000 -0.00000 -1.00000
vn 0.00000 -0.00000 -1.00000
vn 0.00000 -0.00000 -1.00000
vn -1.00000 -0.00000 -0.00000
vn -1.00000 -0.00000 -0.00000
vn -1.00000 -0.00000 -0.00000
vn -0.00000 -0.00000 1.00000
vn -0.00000 -0.00000 1.00000
vn -0.00000 -0.00000 1.00000
vn 1.00000 -0.00000 0.00000
vn 1.00000 -0.00000 0.00000
vn 1.00000 -0.00000 0.00000
vn 0.00000 1.00000 -0.00000
vn 0.00000 1.00000 -0.00000
vn 0.00000 1.00000 -0.00000
vn 0.00000 -1.00000 0.00000
vn 0.00000 -1.00000 0.00000
vn 0.00000 -1.00000 0.00000
vn 1.00000 -0.00000 0.00000
vn 1.00000 -0.00000 0.00000
vn 1.00000 -0.00000 0.00000
vn 0.00000 -0.00000 -1.00000
vn 0.00000 -0.00000 -1.00000
vn 0.00000 -0.00000 -1.00000
vn -1.00000 -0.00000 -0.00000
vn -1.00000 -0.00000 -0.00000
vn -1.00000 -0.00000 -0.00000
vn -0.00000 -0.00000 1.00000
vn -0.00000 -0.00000 1.00000
vn -0.00000 -0.00000 1.00000
vn 0.00000 1.00000 -0.00000
vn 0.00000 1.00000 -0.00000
vn 0.00000 1.00000 -0.00000
vn 0.00000 -1.00000 0.00000
vn 0.00000 -1.00000 0.00000
vn 0.00000 -1.00000 0.00000
vn -0.00000 -0.00000 1.00000
vn -0.00000 -0.00000 1.00000
vn -0.00000 -0.00000 1.00000
vn 1.00000 -0.00000 0.00000
vn 1.00000 -0.00000 0.00000
vn 1.00000 -0.00000 0.00000
vn 0.00000 -0.00000 -1.00000
vn 0.00000 -0.00000 -1.00000
vn 0.00000 -0.00000 -1.00000
vn -1.00000 -0.00000 -0.00000
vn -1.00000 -0.00000 -0.00000
vn -1.00000 -0.00000 -0.00000
vn 0.00000 1.00000 -0.00000
vn 0.00000 1.00000 -0.00000
vn 0.00000 1.00000 -0.00000
vn 0.00000 -1.00000 -0.00000
vn 0.00000 -1.00000 -0.00000
vn 0.00000 -1.00000 -0.00000
vn -1.00000 -0.00000 -0.00000
vn -1.00000 -0.00000 -0.00000
vn -1.00000 -0.00000 -0.00000
vn -0.00000 -0.00000 1.00000
vn -0.00000 -0.00000 1.00000
vn -0.00000 -0.00000 1.00000
vn 1.00000 -0.00000 0.00000
vn 1.00000 -0.00000 0.00000
vn 1.00000 -0.00000 0.00000
vn 0.00000 -0.00000 -1.00000
vn 0.00000 -0.00000 -1.00000
vn 0.00000 -0.00000 -1.00000
vn -0.83263 0.55382 -0.00180
vn -0.83263 0.55382 -0.00180
vn -0.83263 0.55382 -0.00180
vn -0.39120 -0.92030 -0.00000
vn -0.39120 -0.92030 -0.00000
vn -0.39120 -0.92030 -0.00000
vn 0.52908 -0.84857 -0.00000
vn 0.52908 -0.84857 -0.00000
vn 0.52908 -0.84857 -0.00000
vn -0.78478 0.61978 -0.00000
vn -0.78478 0.61978 -0.00000
vn -0.78478 0.61978 -0.00000
vn 0.00000 -0.00000 -1.00000
vn 0.00000 -0.00000 -1.00000
vn 0.00000 -0.00000 -1.00000
vn -1.00000 -0.00000 -0.00000
vn -1.00000 -0.00000 -0.00000
vn -1.00000 -0.00000 -0.00000
vn -0.00000 -0.00000 1.00000
vn -0.00000 -0.00000 1.00000
vn -0.00000 -0.00000 1.00000
vn 0.22059 -0.97537 -0.00000
vn 0.22059 -0.97537 -0.00000
vn 0.22059 -0.97537 -0.00000
vn 0.28959 0.31999 0.90208
vn 0.28959 0.31999 0.90208
vn 0.28959 0.31999 0.90208
vn -0.39120 -0.92030 -0.00000
vn -0.39120 -0.92030 -0.00000
vn -0.39120 -0.92030 -0.00000
vn 1.00000 -0.00000 0.00000
vn 1.00000 -0.00000 0.00000
vn 1.00000 -0.00000 0.00000
vn -0.45731 -0.00000 0.88931
vn -0.45731 -0.00000 0.88931
vn -0.45731 -0.00000 0.88931
vn 0.45731 -0.00000 -0.88931
vn 0.45731 -0.00000 -0.88931
vn 0.45731 -0.00000 -0.88931
vn -0.43970 0.30020 0.84649
vn -0.43970 0.30020 0.84649
vn -0.43970 0.30020 0.84649
vn -0.00640 0.99997 -0.00330
vn -0.00640 0.99997 -0.00330
vn -0.00640 0.99997 -0.00330
vn 0.99999 0.00520 -0.00000
vn 0.99999 0.00520 -0.00000
vn 0.99999 0.00520 -0.00000
vn -0.00000 0.00170 1.00000
vn -0.00000 0.00170 1.00000
vn -0.00000 0.00170 1.00000
vn 0.00000 -0.00170 -1.00000
vn 0.00000 -0.00170 -1.00000
vn 0.00000 -0.00170 -1.00000
vn 0.00000 0.38269 0.92388
vn 0.00000 0.38269 0.92388
vn 0.00000 0.38269 0.92388
vn 0.00000 0.92388 0.38269
vn 0.00000 0.92388 0.38269
vn 0.00000 0.92388 0.38269
vn -0.00000 0.92388 -0.38269
vn -0.00000 0.92388 -0.38269
vn -0.00000 0.92388 -0.38269
vn 0.00000 0.38269 -0.92388
vn 0.00000 0.38269 -0.92388
vn 0.00000 0.38269 -0.92388
vn 0.00000 -0.38269 -0.92388
vn 0.00000 -0.38269 -0.92388
vn 0.00000 -0.38269 -0.92388
vn 0.00000 -0.92388 -0.38269
vn 0.00000 -0.92388 -0.38269
vn 0.00000 -0.92388 -0.38269
vn 1.00000 -0.00000 0.00000
vn 1.00000 -0.00000 0.00000
vn 1.00000 -0.00000 0.00000
vn 0.00000 -0.92388 0.38269
vn 0.00000 -0.92388 0.38269
vn 0.00000 -0.92388 0.38269
vn 0.00000 -0.38269 0.92388
vn 0.00000 -0.38269 0.92388
vn 0.00000 -0.38269 0.92388
vn 0.64130 0.66510 -0.38260
vn 0.64130 0.66510 -0.38260
vn 0.64130 0.66510 -0.38260
vn -0.38499 -0.14860 0.91088
vn -0.38499 -0.14860 0.91088
vn -0.38499 -0.14860 0.91088
vn -0.50844 -0.77476 -0.37583
vn -0.50844 -0.77476 -0.37583
vn -0.50844 -0.77476 -0.37583
vn 0.25101 0.29001 -0.92352
vn 0.25101 0.29001 -0.92352
vn 0.25101 0.29001 -0.92352
vn -0.50606 -0.79684 0.33007
vn -0.50606 -0.79684 0.33007
vn -0.50606 -0.79684 0.33007
vn 0.62459 0.72149 0.29890
vn 0.62459 0.72149 0.29890
vn 0.62459 0.72149 0.29890
vn -0.22781 -0.31241 -0.92223
vn -0.22781 -0.31241 -0.92223
vn -0.22781 -0.31241 -0.92223
vn -0.24358 -0.37118 0.89604
vn -0.24358 -0.37118 0.89604
vn -0.24358 -0.37118 0.89604
vn 0.26879 0.36859 0.88988
vn 0.26879 0.36859 0.88988
vn 0.26879 0.36859 0.88988
vn -0.83107 0.43688 0.34419
vn -0.83107 0.43688 0.34419
vn -0.83107 0.43688 0.34419
vn -0.95953 -0.00180 -0.28161
vn -0.95953 -0.00180 -0.28161
vn -0.95953 -0.00180 -0.28161
vn 0.37851 0.14720 -0.91382
vn 0.37851 0.14720 -0.91382
vn 0.37851 0.14720 -0.91382
vn 0.92030 -0.08790 0.38120
vn 0.92030 -0.08790 0.38120
vn 0.92030 -0.08790 0.38120
vn -0.94737 -0.09570 0.30549
vn -0.94737 -0.09570 0.30549
vn -0.94737 -0.09570 0.30549
vn -0.37899 0.13850 -0.91498
vn -0.37899 0.13850 -0.91498
vn -0.37899 0.13850 -0.91498
vn 0.92349 0.02920 -0.38250
vn 0.92349 0.02920 -0.38250
vn 0.92349 0.02920 -0.38250
vn 0.58708 -0.11800 0.80088
vn 0.58708 -0.11800 0.80088
vn 0.58708 -0.11800 0.80088
vn 0.38149 0.03040 0.92387
vn 0.38149 0.03040 0.92387
vn 0.38149 0.03040 0.92387
vn -0.35052 0.15381 -0.92384
vn -0.35052 0.15381 -0.92384
vn -0.35052 0.15381 -0.92384
vn 0.80143 -0.46061 -0.38151
vn 0.80143 -0.46061 -0.38151
vn 0.80143 -0.46061 -0.38151
vn 0.37719 -0.16850 0.91068
vn 0.37719 -0.16850 0.91068
vn 0.37719 -0.16850 0.91068
vn -0.37300 0.22360 0.90049
vn -0.37300 0.22360 0.90049
vn -0.37300 0.22360 0.90049
vn -0.82574 0.41452 -0.38252
vn -0.82574 0.41452 -0.38252
vn -0.82574 0.41452 -0.38252
vn 0.32278 -0.21189 -0.92245
vn 0.32278 -0.21189 -0.92245
vn 0.32278 -0.21189 -0.92245
vn 0.82864 -0.44222 0.34322
vn 0.82864 -0.44222 0.34322
vn 0.82864 -0.44222 0.34322
vn -0.93212 0.00520 0.36211
vn -0.93212 0.00520 0.36211
vn -0.93212 0.00520 0.36211
vn -0.38872 0.08150 0.91774
vn -0.38872 0.08150 0.91774
vn -0.38872 0.08150 0.91774
vn -0.92440 0.02790 -0.38040
vn -0.92440 0.02790 -0.38040
vn -0.92440 0.02790 -0.38040
vn 0.38350 -0.07950 -0.92011
vn 0.38350 -0.07950 -0.92011
vn 0.38350 -0.07950 -0.92011
vn 0.93232 -0.04810 0.35841
vn 0.93232 -0.04810 0.35841
vn 0.93232 -0.04810 0.35841
vn -0.92280 0.07400 0.37810
vn -0.92280 0.07400 0.37810
vn -0.92280 0.07400 0.37810
vn -0.42569 -0.02640 -0.90448
vn -0.42569 -0.02640 -0.90448
vn -0.42569 -0.02640 -0.90448
vn 0.92710 -0.09020 -0.36380
vn 0.92710 -0.09020 -0.36380
vn 0.92710 -0.09020 -0.36380
vn 0.87738 0.32799 0.35019
vn 0.87738 0.32799 0.35019
vn 0.87738 0.32799 0.35019
vn -0.37570 -0.08540 -0.92280
vn -0.37570 -0.08540 -0.92280
vn -0.37570 -0.08540 -0.92280
vn 0.91917 0.09320 -0.38269
vn 0.91917 0.09320 -0.38269
vn 0.91917 0.09320 -0.38269
vn 0.37611 0.08540 0.92263
vn 0.37611 0.08540 0.92263
vn 0.37611 0.08540 0.92263
vn -0.38709 0.04810 0.92078
vn -0.38709 0.04810 0.92078
vn -0.38709 0.04810 0.92078
vn -0.92589 -0.07290 -0.37070
vn -0.92589 -0.07290 -0.37070
vn -0.92589 -0.07290 -0.37070
vn 0.40259 0.00240 -0.91538
vn 0.40259 0.00240 -0.91538
vn 0.40259 0.00240 -0.91538
vn 0.91615 0.12019 0.38238
vn 0.91615 0.12019 0.38238
vn 0.91615 0.12019 0.38238
vn -0.37839 0.06320 0.92348
vn -0.37839 0.06320 0.92348
vn -0.37839 0.06320 0.92348
vn -0.88377 -0.30649 0.35359
vn -0.88377 -0.30649 0.35359
vn -0.88377 -0.30649 0.35359
vn -0.37340 -0.09200 -0.92310
vn -0.37340 -0.09200 -0.92310
vn -0.37340 -0.09200 -0.92310
vn 0.84690 0.36990 -0.38200
vn 0.84690 0.36990 -0.38200
vn 0.84690 0.36990 -0.38200
vn 0.38941 0.09820 0.91582
vn 0.38941 0.09820 0.91582
vn 0.38941 0.09820 0.91582
vn -0.39098 -0.17109 0.90436
vn -0.39098 -0.17109 0.90436
vn -0.39098 -0.17109 0.90436
vn -0.87981 -0.28230 -0.38241
vn -0.87981 -0.28230 -0.38241
vn -0.87981 -0.28230 -0.38241
vn 0.33960 0.18400 -0.92240
vn 0.33960 0.18400 -0.92240
vn 0.33960 0.18400 -0.92240
vn 0.40528 -0.77476 -0.48528
vn 0.40528 -0.77476 -0.48528
vn 0.40528 -0.77476 -0.48528
vn -0.92137 0.06810 -0.38269
vn -0.92137 0.06810 -0.38269
vn -0.92137 0.06810 -0.38269
vn 0.37839 -0.06320 -0.92348
vn 0.37839 -0.06320 -0.92348
vn 0.37839 -0.06320 -0.92348
vn 0.92137 -0.06810 0.38269
vn 0.92137 -0.06810 0.38269
vn 0.92137 -0.06810 0.38269
vn -0.91919 0.09290 0.38270
vn -0.91919 0.09290 0.38270
vn -0.91919 0.09290 0.38270
vn -0.38368 0.00350 -0.92346
vn -0.38368 0.00350 -0.92346
vn -0.38368 0.00350 -0.92346
vn 0.91919 -0.09290 -0.38270
vn 0.91919 -0.09290 -0.38270
vn 0.91919 -0.09290 -0.38270
vn 0.38368 -0.00350 0.92346
vn 0.38368 -0.00350 0.92346
vn 0.38368 -0.00350 0.92346
vn 0.99319 -0.05270 -0.10390
vn 0.99319 -0.05270 -0.10390
vn 0.99319 -0.05270 -0.10390
vn 0.21200 -0.71962 0.66122
vn 0.21200 -0.71962 0.66122
vn 0.21200 -0.71962 0.66122
vn -0.34219 0.30780 0.88779
vn -0.34219 0.30780 0.88779
vn -0.34219 0.30780 0.88779
vn -0.49681 0.83541 -0.23510
vn -0.49681 0.83541 -0.23510
vn -0.49681 0.83541 -0.23510
vn 0.35688 -0.24719 -0.90085
vn 0.35688 -0.24719 -0.90085
vn 0.35688 -0.24719 -0.90085
vn 0.29681 -0.93194 0.20831
vn 0.29681 -0.93194 0.20831
vn 0.29681 -0.93194 0.20831
vn -0.54932 0.79562 0.25541
vn -0.54932 0.79562 0.25541
vn -0.54932 0.79562 0.25541
vn -0.12109 0.50807 -0.85276
vn -0.12109 0.50807 -0.85276
vn -0.12109 0.50807 -0.85276
vn 0.00000 -0.00000 -1.00000
vn 0.00000 -0.00000 -1.00000
vn 0.00000 -0.00000 -1.00000
vn -1.00000 -0.00000 -0.00000
vn -1.00000 -0.00000 -0.00000
vn -1.00000 -0.00000 -0.00000
vn -0.00000 -0.00000 1.00000
vn -0.00000 -0.00000 1.00000
vn -0.00000 -0.00000 1.00000
vn 1.00000 -0.00000 0.00000
vn 1.00000 -0.00000 0.00000
vn 1.00000 -0.00000 0.00000
vn 0.00000 1.00000 -0.00000
vn 0.00000 1.00000 -0.00000
vn 0.00000 1.00000 -0.00000
vn 0.00000 -1.00000 0.00000
vn 0.00000 -1.00000 0.00000
vn 0.00000 -1.00000 0.00000
vn -1.00000 -0.00000 -0.00000
vn -1.00000 -0.00000 -0.00000
vn -1.00000 -0.00000 -0.00000
vn -0.00000 -0.00000 1.00000
vn -0.00000 -0.00000 1.00000
vn -0.00000 -0.00000 1.00000
vn 1.00000 -0.00000 0.00000
vn 1.00000 -0.00000 0.00000
vn 1.00000 -0.00000 0.00000
vn 0.00000 -0.00000 -1.00000
vn 0.00000 -0.00000 -1.00000
vn 0.00000 -0.00000 -1.00000
vn 0.00000 1.00000 -0.00000
vn 0.00000 1.00000 -0.00000
vn 0.00000 1.00000 -0.00000
vn 0.00000 -1.00000 0.00000
vn 0.00000 -1.00000 0.00000
vn 0.00000 -1.00000 0.00000
vn -1.00000 -0.00000 -0.00000
vn -1.00000 -0.00000 -0.00000
vn -1.00000 -0.00000 -0.00000
vn -0.00000 -0.00000 1.00000
vn -0.00000 -0.00000 1.00000
vn -0.00000 -0.00000 1.00000
vn 1.00000 -0.00000 0.00000
vn 1.00000 -0.00000 0.00000
vn 1.00000 -0.00000 0.00000
vn 0.00000 -0.00000 -1.00000
vn 0.00000 -0.00000 -1.00000
vn 0.00000 -0.00000 -1.00000
vn 0.00000 1.00000 -0.00000
vn 0.00000 1.00000 -0.00000
vn 0.00000 1.00000 -0.00000
vn 0.00000 -1.00000 0.00000
vn 0.00000 -1.00000 0.00000
vn 0.00000 -1.00000 0.00000
vn 0.00000 -0.00000 -1.00000
vn 0.00000 -0.00000 -1.00000
vn 0.00000 -0.00000 -1.00000
vn -1.00000 -0.00000 -0.00000
vn -1.00000 -0.00000 -0.00000
vn -1.00000 -0.00000 -0.00000
vn -0.00000 -0.00000 1.00000
vn -0.00000 -0.00000 1.00000
vn -0.00000 -0.00000 1.00000
vn 1.00000 -0.00000 0.00000
vn 1.00000 -0.00000 0.00000
vn 1.00000 -0.00000 0.00000
vn 0.00000 1.00000 -0.00000
vn 0.00000 1.00000 -0.00000
vn 0.00000 1.00000 -0.00000
vn 0.00000 -1.00000 0.00000
vn 0.00000 -1.00000 0.00000
vn 0.00000 -1.00000 0.00000
vn 1.00000 -0.00000 0.00000
vn 1.00000 -0.00000 0.00000
vn 1.00000 -0.00000 0.00000
vn 0.00000 -0.00000 -1.00000
vn 0.00000 -0.00000 -1.00000
vn 0.00000 -0.00000 -1.00000
vn -1.00000 -0.00000 -0.00000
vn -1.00000 -0.00000 -0.00000
vn -1.00000 -0.00000 -0.00000
vn -0.00000 -0.00000 1.00000
vn -0.00000 -0.00000 1.00000
vn -0.00000 -0.00000 1.00000
vn 0.00000 1.00000 -0.00000
vn 0.00000 1.00000 -0.00000
vn 0.00000 1.00000 -0.00000
vn 0.00000 -1.00000 0.00000
vn 0.00000 -1.00000 0.00000
vn 0.00000 -1.00000 0.00000
vn -0.00000 -0.00000 1.00000
vn -0.00000 -0.00000 1.00000
vn -0.00000 -0.00000 1.00000
vn 1.00000 -0.00000 0.00000
vn 1.00000 -0.00000 0.00000
vn 1.00000 -0.00000 0.00000
vn 0.00000 -0.00000 -1.00000
vn 0.00000 -0.00000 -1.00000
vn 0.00000 -0.00000 -1.00000
vn -1.00000 -0.00000 -0.00000
vn -1.00000 -0.00000 -0.00000
vn -1.00000 -0.00000 -0.00000
vn 0.00000 1.00000 -0.00000
vn 0.00000 1.00000 -0.00000
vn 0.00000 1.00000 -0.00000
vn -0.00000 -1.00000 0.00000
vn -0.00000 -1.00000 0.00000
vn -0.00000 -1.00000 0.00000
vn -1.00000 -0.00000 -0.00000
vn -1.00000 -0.00000 -0.00000
vn -1.00000 -0.00000 -0.00000
vn -0.00000 -0.00000 1.00000
vn -0.00000 -0.00000 1.00000
vn -0.00000 -0.00000 1.00000
vn 1.00000 -0.00000 0.00000
vn 1.00000 -0.00000 0.00000
vn 1.00000 -0.00000 0.00000
vn 0.00000 -0.00000 -1.00000
vn 0.00000 -0.00000 -1.00000
vn 0.00000 -0.00000 -1.00000
vn 0.00000 1.00000 -0.00000
vn 0.00000 1.00000 -0.00000
vn 0.00000 1.00000 -0.00000
vn 0.00000 -1.00000 0.00000
vn 0.00000 -1.00000 0.00000
vn 0.00000 -1.00000 0.00000
vn 0.00000 -0.00000 -1.00000
vn 0.00000 -0.00000 -1.00000
vn 0.00000 -0.00000 -1.00000
vn -1.00000 -0.00000 -0.00000
vn -1.00000 -0.00000 -0.00000
vn -1.00000 -0.00000 -0.00000
vn -0.00000 -0.00000 1.00000
vn -0.00000 -0.00000 1.00000
vn -0.00000 -0.00000 1.00000
vn 1.00000 -0.00000 0.00000
vn 1.00000 -0.00000 0.00000
vn 1.00000 -0.00000 0.00000
vn 0.00000 1.00000 -0.00000
vn 0.00000 1.00000 -0.00000
vn 0.00000 1.00000 -0.00000
vn 0.00000 -1.00000 0.00000
vn 0.00000 -1.00000 0.00000
vn 0.00000 -1.00000 0.00000
vn 1.00000 -0.00000 0.00000
vn 1.00000 -0.00000 0.00000
vn 1.00000 -0.00000 0.00000
vn 0.00000 -0.00000 -1.00000
vn 0.00000 -0.00000 -1.00000
vn 0.00000 -0.00000 -1.00000
vn -1.00000 -0.00000 -0.00000
vn -1.00000 -0.00000 -0.00000
vn -1.00000 -0.00000 -0.00000
vn -0.00000 -0.00000 1.00000
vn -0.00000 -0.00000 1.00000
vn -0.00000 -0.00000 1.00000
vn 0.00000 1.00000 -0.00000
vn 0.00000 1.00000 -0.00000
vn 0.00000 1.00000 -0.00000
vn 0.00000 -1.00000 0.00000
vn 0.00000 -1.00000 0.00000
vn 0.00000 -1.00000 0.00000
vn -0.00000 -0.00000 1.00000
vn -0.00000 -0.00000 1.00000
vn -0.00000 -0.00000 1.00000
vn 1.00000 -0.00000 0.00000
vn 1.00000 -0.00000 0.00000
vn 1.00000 -0.00000 0.00000
vn 0.00000 -0.00000 -1.00000
vn 0.00000 -0.00000 -1.00000
vn 0.00000 -0.00000 -1.00000
vn -1.00000 -0.00000 -0.00000
vn -1.00000 -0.00000 -0.00000
vn -1.00000 -0.00000 -0.00000
vn 0.00000 1.00000 -0.00000
vn 0.00000 1.00000 -0.00000
vn 0.00000 1.00000 -0.00000
vn -0.00000 -1.00000 0.00000
vn -0.00000 -1.00000 0.00000
vn -0.00000 -1.00000 0.00000
vn -1.00000 -0.00000 -0.00000
vn -1.00000 -0.00000 -0.00000
vn -1.00000 -0.00000 -0.00000
vn -0.00000 -0.00000 1.00000
vn -0.00000 -0.00000 1.00000
vn -0.00000 -0.00000 1.00000
vn 1.00000 -0.00000 0.00000
vn 1.00000 -0.00000 0.00000
vn 1.00000 -0.00000 0.00000
vn 0.00000 -0.00000 -1.00000
vn 0.00000 -0.00000 -1.00000
vn 0.00000 -0.00000 -1.00000
vn 0.00000 1.00000 -0.00000
vn 0.00000 1.00000 -0.00000
vn 0.00000 1.00000 -0.00000
vn 0.00000 -1.00000 0.00000
vn 0.00000 -1.00000 0.00000
vn 0.00000 -1.00000 0.00000
vn 0.00000 -0.00000 -1.00000
vn 0.00000 -0.00000 -1.00000
vn 0.00000 -0.00000 -1.00000
vn -1.00000 -0.00000 -0.00000
vn -1.00000 -0.00000 -0.00000
vn -1.00000 -0.00000 -0.00000
vn -0.00000 -0.00000 1.00000
vn -0.00000 -0.00000 1.00000
vn -0.00000 -0.00000 1.00000
vn 1.00000 -0.00000 0.00000
vn 1.00000 -0.00000 0.00000
vn 1.00000 -0.00000 0.00000
vn 0.00000 1.00000 -0.00000
vn 0.00000 1.00000 -0.00000
vn 0.00000 1.00000 -0.00000
vn 0.00000 -1.00000 0.00000
vn 0.00000 -1.00000 0.00000
vn 0.00000 -1.00000 0.00000
vn 1.00000 -0.00000 0.00000
vn 1.00000 -0.00000 0.00000
vn 1.00000 -0.00000 0.00000
vn 0.00000 -0.00000 -1.00000
vn 0.00000 -0.00000 -1.00000
vn 0.00000 -0.00000 -1.00000
vn -1.00000 -0.00000 -0.00000
vn -1.00000 -0.00000 -0.00000
vn -1.00000 -0.00000 -0.00000
vn -0.00000 -0.00000 1.00000
vn -0.00000 -0.00000 1.00000
vn -0.00000 -0.00000 1.00000
vn 0.00000 1.00000 -0.00000
vn 0.00000 1.00000 -0.00000
vn 0.00000 1.00000 -0.00000
vn 0.00000 -1.00000 0.00000
vn 0.00000 -1.00000 0.00000
vn 0.00000 -1.00000 0.00000
vn -0.00000 -0.00000 1.00000
vn -0.00000 -0.00000 1.00000
vn -0.00000 -0.00000 1.00000
vn 1.00000 -0.00000 0.00000
vn 1.00000 -0.00000 0.00000
vn 1.00000 -0.00000 0.00000
vn 0.00000 -0.00000 -1.00000
vn 0.00000 -0.00000 -1.00000
vn 0.00000 -0.00000 -1.00000
vn -1.00000 -0.00000 -0.00000
vn -1.00000 -0.00000 -0.00000
vn -1.00000 -0.00000 -0.00000
vn 0.00000 1.00000 -0.00000
vn 0.00000 1.00000 -0.00000
vn 0.00000 1.00000 -0.00000
vn -0.00000 -1.00000 0.00000
vn -0.00000 -1.00000 0.00000
vn -0.00000 -1.00000 0.00000
vn -1.00000 -0.00000 -0.00000
vn -1.00000 -0.00000 -0.00000
vn -1.00000 -0.00000 -0.00000
vn -0.00000 -0.00000 1.00000
vn -0.00000 -0.00000 1.00000
vn -0.00000 -0.00000 1.00000
vn 1.00000 -0.00000 0.00000
vn 1.00000 -0.00000 0.00000
vn 1.00000 -0.00000 0.00000
vn 0.00000 -0.00000 -1.00000
vn 0.00000 -0.00000 -1.00000
vn 0.00000 -0.00000 -1.00000
vn -0.83263 0.55382 -0.00180
vn -0.83263 0.55382 -0.00180
vn -0.83263 0.55382 -0.00180
vn -0.39120 -0.92030 -0.00000
vn -0.39120 -0.92030 -0.00000
vn -0.39120 -0.92030 -0.00000
vn 0.52908 -0.84857 -0.00000
vn 0.52908 -0.84857 -0.00000
vn 0.52908 -0.84857 -0.00000
vn -0.78706 0.61687 -0.00210
vn -0.78706 0.61687 -0.00210
vn -0.78706 0.61687 -0.00210
vn 0.00000 -0.00000 -1.00000
vn 0.00000 -0.00000 -1.00000
vn 0.00000 -0.00000 -1.00000
vn -1.00000 -0.00000 -0.00000
vn -1.00000 -0.00000 -0.00000
vn -1.00000 -0.00000 -0.00000
vn -0.00000 -0.00000 1.00000
vn -0.00000 -0.00000 1.00000
vn -0.00000 -0.00000 1.00000
vn 0.22059 -0.97537 -0.00000
vn 0.22059 -0.97537 -0.00000
vn 0.22059 -0.97537 -0.00000
vn -0.78706 0.61687 -0.00000
vn -0.78706 0.61687 -0.00000
vn -0.78706 0.61687 -0.00000
vn -0.39120 -0.92030 -0.00000
vn -0.39120 -0.92030 -0.00000
vn -0.39120 -0.92030 -0.00000
vn 1.00000 -0.00000 0.00000
vn 1.00000 -0.00000 0.00000
vn 1.00000 -0.00000 0.00000
vn -0.45731 -0.00000 0.88931
vn -0.45731 -0.00000 0.88931
vn -0.45731 -0.00000 0.88931
vn 0.45731 -0.00000 -0.88931
vn 0.45731 -0.00000 -0.88931
vn 0.45731 -0.00000 -0.88931
vn -0.18420 0.98289 -0.00000
vn -0.18420 0.98289 -0.00000
vn -0.18420 0.98289 -0.00000
vn -0.00480 0.99999 -0.00000
vn -0.00480 0.99999 -0.00000
vn -0.00480 0.99999 -0.00000
vn 0.99999 0.00520 -0.00000
vn 0.99999 0.00520 -0.00000
vn 0.99999 0.00520 -0.00000
vn -0.00000 0.00170 1.00000
vn -0.00000 0.00170 1.00000
vn -0.00000 0.00170 1.00000
vn 0.00000 -0.00170 -1.00000
vn 0.00000 -0.00170 -1.00000
vn 0.00000 -0.00170 -1.00000
vn 0.00000 0.38269 0.92388
vn 0.00000 0.38269 0.92388
vn 0.00000 0.38269 0.92388
vn 0.00000 0.92388 0.38269
vn 0.00000 0.92388 0.38269
vn 0.00000 0.92388 0.38269
vn -0.00000 0.92388 -0.38269
vn -0.00000 0.92388 -0.38269
vn -0.00000 0.92388 -0.38269
vn 0.00000 0.38269 -0.92388
vn 0.00000 0.38269 -0.92388
vn 0.00000 0.38269 -0.92388
vn 0.00000 -0.38269 -0.92388
vn 0.00000 -0.38269 -0.92388
vn 0.00000 -0.38269 -0.92388
vn 0.00000 -0.92388 -0.38269
vn 0.00000 -0.92388 -0.38269
vn 0.00000 -0.92388 -0.38269
vn 1.00000 -0.00000 0.00000
vn 1.00000 -0.00000 0.00000
vn 1.00000 -0.00000 0.00000
vn 1.00000 -0.00000 0.00000
vn 1.00000 -0.00000 0.00000
vn 1.00000 -0.00000 0.00000
vn 1.00000 -0.00000 0.00000
vn 1.00000 -0.00000 0.00000
vn 1.00000 -0.00000 0.00000
vn 1.00000 -0.00000 0.00000
vn 1.00000 -0.00000 0.00000
vn 1.00000 -0.00000 0.00000
vn 1.00000 -0.00000 0.00000
vn 1.00000 -0.00000 0.00000
vn 1.00000 -0.00000 0.00000
vn 0.00000 -0.92388 0.38269
vn 0.00000 -0.92388 0.38269
vn 0.00000 -0.92388 0.38269
vn 0.00000 -0.38269 0.92388
vn 0.00000 -0.38269 0.92388
vn 0.00000 -0.38269 0.92388
vn 0.62459 0.72149 -0.29890
vn 0.62459 0.72149 -0.29890
vn 0.62459 0.72149 -0.29890
vn -0.37850 -0.14800 0.91369
vn -0.37850 -0.14800 0.91369
vn -0.37850 -0.14800 0.91369
vn -0.50606 -0.79684 -0.33007
vn -0.50606 -0.79684 -0.33007
vn -0.50606 -0.79684 -0.33007
vn 0.26879 0.36859 -0.88988
vn 0.26879 0.36859 -0.88988
vn 0.26879 0.36859 -0.88988
vn -0.50844 -0.77476 0.37583
vn -0.50844 -0.77476 0.37583
vn -0.50844 -0.77476 0.37583
vn 0.64130 0.66510 0.38260
vn 0.64130 0.66510 0.38260
vn 0.64130 0.66510 0.38260
vn -0.24358 -0.37118 -0.89604
vn -0.24358 -0.37118 -0.89604
vn -0.24358 -0.37118 -0.89604
vn -0.22781 -0.31241 0.92223
vn -0.22781 -0.31241 0.92223
vn -0.22781 -0.31241 0.92223
vn 0.25101 0.29001 0.92352
vn 0.25101 0.29001 0.92352
vn 0.25101 0.29001 0.92352
vn -0.81529 0.43500 0.38220
vn -0.81529 0.43500 0.38220
vn -0.81529 0.43500 0.38220
vn -0.92388 0.00190 -0.38269
vn -0.92388 0.00190 -0.38269
vn -0.92388 0.00190 -0.38269
vn 0.38580 0.14760 -0.91070
vn 0.38580 0.14760 -0.91070
vn 0.38580 0.14760 -0.91070
vn 0.96263 -0.08630 0.25671
vn 0.96263 -0.08630 0.25671
vn 0.96263 -0.08630 0.25671
vn -0.91964 -0.09570 0.38092
vn -0.91964 -0.09570 0.38092
vn -0.91964 -0.09570 0.38092
vn -0.57060 0.09260 -0.81599
vn -0.57060 0.09260 -0.81599
vn -0.57060 0.09260 -0.81599
vn 0.95731 0.02580 -0.28790
vn 0.95731 0.02580 -0.28790
vn 0.95731 0.02580 -0.28790
vn 0.37739 -0.16530 0.91118
vn 0.37739 -0.16530 0.91118
vn 0.37739 -0.16530 0.91118
vn 0.42321 0.01970 0.90582
vn 0.42321 0.01970 0.90582
vn 0.42321 0.01970 0.90582
vn -0.37749 0.16450 -0.91128
vn -0.37749 0.16450 -0.91128
vn -0.37749 0.16450 -0.91128
vn 0.81912 -0.46251 -0.33931
vn 0.81912 -0.46251 -0.33931
vn 0.81912 -0.46251 -0.33931
vn 0.34899 -0.15700 0.92388
vn 0.34899 -0.15700 0.92388
vn 0.34899 -0.15700 0.92388
vn -0.32558 0.20629 0.92274
vn -0.32558 0.20629 0.92274
vn -0.32558 0.20629 0.92274
vn -0.83928 0.41809 -0.34759
vn -0.83928 0.41809 -0.34759
vn -0.83928 0.41809 -0.34759
vn 0.37241 -0.23040 -0.89901
vn 0.37241 -0.23040 -0.89901
vn 0.37241 -0.23040 -0.89901
vn 0.81361 -0.43821 0.38211
vn 0.81361 -0.43821 0.38211
vn 0.81361 -0.43821 0.38211
vn -0.92403 -0.01780 0.38191
vn -0.92403 -0.01780 0.38191
vn -0.92403 -0.01780 0.38191
vn -0.38310 0.08040 0.92020
vn -0.38310 0.08040 0.92020
vn -0.38310 0.08040 0.92020
vn -0.93440 0.02560 -0.35530
vn -0.93440 0.02560 -0.35530
vn -0.93440 0.02560 -0.35530
vn 0.38871 -0.08060 -0.91783
vn 0.38871 -0.08060 -0.91783
vn 0.38871 -0.08060 -0.91783
vn 0.92391 -0.04950 0.37940
vn 0.92391 -0.04950 0.37940
vn 0.92391 -0.04950 0.37940
vn -0.92901 0.07630 0.36210
vn -0.92901 0.07630 0.36210
vn -0.92901 0.07630 0.36210
vn -0.38079 -0.03820 -0.92387
vn -0.38079 -0.03820 -0.92387
vn -0.38079 -0.03820 -0.92387
vn 0.92189 -0.08850 -0.37720
vn 0.92189 -0.08850 -0.37720
vn 0.92189 -0.08850 -0.37720
vn 0.86204 0.33241 0.38262
vn 0.86204 0.33241 0.38262
vn 0.86204 0.33241 0.38262
vn -0.37610 -0.08590 -0.92259
vn -0.37610 -0.08590 -0.92259
vn -0.37610 -0.08590 -0.92259
vn 0.92428 0.08600 -0.37189
vn 0.92428 0.08600 -0.37189
vn 0.92428 0.08600 -0.37189
vn 0.37580 0.08500 0.92280
vn 0.37580 0.08500 0.92280
vn 0.37580 0.08500 0.92280
vn -0.40822 0.01620 0.91274
vn -0.40822 0.01620 0.91274
vn -0.40822 0.01620 0.91274
vn -0.92221 -0.05610 -0.38260
vn -0.92221 -0.05610 -0.38260
vn -0.92221 -0.05610 -0.38260
vn 0.38530 -0.01880 -0.92260
vn 0.38530 -0.01880 -0.92260
vn 0.38530 -0.01880 -0.92260
vn 0.91831 0.12590 0.37530
vn 0.91831 0.12590 0.37530
vn 0.91831 0.12590 0.37530
vn -0.37839 0.06320 0.92348
vn -0.37839 0.06320 0.92348
vn -0.37839 0.06320 0.92348
vn -0.86981 -0.31140 0.38270
vn -0.86981 -0.31140 0.38270
vn -0.86981 -0.31140 0.38270
vn -0.38921 -0.09310 -0.91643
vn -0.38921 -0.09310 -0.91643
vn -0.38921 -0.09310 -0.91643
vn 0.86651 0.36121 -0.34451
vn 0.86651 0.36121 -0.34451
vn 0.86651 0.36121 -0.34451
vn 0.37160 0.09710 0.92330
vn 0.37160 0.09710 0.92330
vn 0.37160 0.09710 0.92330
vn -0.34520 -0.16950 0.92310
vn -0.34520 -0.16950 0.92310
vn -0.34520 -0.16950 0.92310
vn -0.89099 -0.27990 -0.35749
vn -0.89099 -0.27990 -0.35749
vn -0.89099 -0.27990 -0.35749
vn 0.39111 0.18520 -0.90152
vn 0.39111 0.18520 -0.90152
vn 0.39111 0.18520 -0.90152
vn 0.48051 -0.84662 -0.22880
vn 0.48051 -0.84662 -0.22880
vn 0.48051 -0.84662 -0.22880
vn -0.92137 0.06810 -0.38269
vn -0.92137 0.06810 -0.38269
vn -0.92137 0.06810 -0.38269
vn 0.37839 -0.06320 -0.92348
vn 0.37839 -0.06320 -0.92348
vn 0.37839 -0.06320 -0.92348
vn 0.92137 -0.06810 0.38269
vn 0.92137 -0.06810 0.38269
vn 0.92137 -0.06810 0.38269
vn -0.91919 0.09290 0.38270
vn -0.91919 0.09290 0.38270
vn -0.91919 0.09290 0.38270
vn -0.38368 0.00350 -0.92346
vn -0.38368 0.00350 -0.92346
vn -0.38368 0.00350 -0.92346
vn 0.91919 -0.09290 -0.38270
vn 0.91919 -0.09290 -0.38270
vn 0.91919 -0.09290 -0.38270
vn 0.38368 -0.00350 0.92346
vn 0.38368 -0.00350 0.92346
vn 0.38368 -0.00350 0.92346
vn 0.99319 -0.05270 -0.10390
vn 0.99319 -0.05270 -0.10390
vn 0.99319 -0.05270 -0.10390
vn 0.99319 -0.05270 -0.10390
vn 0.99319 -0.05270 -0.10390
vn 0.99319 -0.05270 -0.10390
vn 0.99319 -0.05270 -0.10390
vn 0.99319 -0.05270 -0.10390
vn 0.99319 -0.05270 -0.10390
vn 0.99319 -0.05270 -0.10390
vn 0.99319 -0.05270 -0.10390
vn 0.99319 -0.05270 -0.10390
vn 0.99319 -0.05270 -0.10390
vn 0.99319 -0.05270 -0.10390
vn 0.99319 -0.05270 -0.10390
vn -0.01650 -0.49999 0.86588
vn -0.01650 -0.49999 0.86588
vn -0.01650 -0.49999 0.86588
vn -0.30431 0.25061 0.91902
vn -0.30431 0.25061 0.91902
vn -0.30431 0.25061 0.91902
vn -0.50411 0.84832 -0.16190
vn -0.50411 0.84832 -0.16190
vn -0.50411 0.84832 -0.16190
vn 0.35411 -0.24361 -0.90292
vn 0.35411 -0.24361 -0.90292
vn 0.35411 -0.24361 -0.90292
vn 0.29329 -0.94336 0.15509
vn 0.29329 -0.94336 0.15509
vn 0.29329 -0.94336 0.15509
vn -0.50340 0.72820 0.46510
vn -0.50340 0.72820 0.46510
vn -0.50340 0.72820 0.46510
vn -0.25450 0.61961 -0.74251
vn -0.25450 0.61961 -0.74251
vn -0.25450 0.61961 -0.74251
f 1/1/1 2/2/2 3/3/3
f 4/4/4 5/5/5 6/6/6
f 7/7/7 8/8/8 9/9/9
f 10/10/10 11/11/11 12/12/12
f 13/13/13 14/14/14 15/15/15
f 16/16/16 17/17/17 18/18/18
f 19/19/19 20/20/20 21/21/21
f 22/22/22 23/23/23 24/24/24
f 25/25/25 26/26/26 27/27/27
f 28/28/28 29/29/29 30/30/30
f 31/31/31 32/32/32 33/33/33
f 34/34/34 35/35/35 36/36/36
f 37/37/37 38/38/38 39/39/39
f 40/40/40 41/41/41 42/42/42
f 43/43/43 44/44/44 45/45/45
f 46/46/46 47/47/47 48/48/48
f 49/49/49 50/50/50 51/51/51
f 52/52/52 53/53/53 54/54/54
f 55/55/55 56/56/56 57/57/57
f 58/58/58 59/59/59 60/60/60
f 61/61/61 62/62/62 63/63/63
f 64/64/64 65/65/65 66/66/66
f 67/67/67 68/68/68 69/69/69
f 70/70/70 71/71/71 72/72/72
f 73/73/73 74/74/74 75/75/75
f 76/76/76 77/77/77 78/78/78
f 79/79/79 80/80/80 81/81/81
f 82/82/82 83/83/83 84/84/84
f 85/85/85 86/86/86 87/87/87
f 88/88/88 89/89/89 90/90/90
f 91/91/91 92/92/92 93/93/93
f 94/94/94 95/95/95 96/96/96
f 97/97/97 98/98/98 99/99/99
f 100/100/100 101/101/101 102/102/102
f 103/103/103 104/104/104 105/105/105
f 106/106/106 107/107/107 108/108/108
f 109/109/109 110/110/110 111/111/111
f 112/112/112 113/113/113 114/114/114
f 115/115/115 116/116/116 117/117/117
f 118/118/118 119/119/119 120/120/120
f 121/121/121 122/122/122 123/123/123
f 124/124/124 125/125/125 126/126/126
f 127/127/127 128/128/128 129/129/129
f 130/130/130 131/131/131 132/132/132
f 133/133/133 134/134/134 135/135/135
f 136/136/136 137/137/137 138/138/138
f 139/139/139 140/140/140 141/141/141
f 142/142/142 143/143/143 144/144/144
f 145/145/145 146/146/146 147/147/147
f 148/148/148 149/149/149 150/150/150
f 151/151/151 152/152/152 153/153/153
f 154/154/154 155/155/155 156/156/156
f 157/157/157 158/158/158 159/159/159
f 160/160/160 161/161/161 162/162/162
f 163/163/163 164/164/164 165/165/165
f 166/166/166 167/167/167 168/168/168
f 169/169/169 170/170/170 171/171/171
f 172/172/172 173/173/173 174/174/174
f 175/175/175 176/176/176 177/177/177
f 178/178/178 179/179/179 180/180/180
f 181/181/181 182/182/182 183/183/183
f 184/184/184 185/185/185 186/186/186
f 187/187/187 188/188/188 189/189/189
f 190/190/190 191/191/191 192/192/192
f 193/193/193 194/194/194 195/195/195
f 196/196/196 197/197/197 198/198/198
f 199/199/199 200/200/200 201/201/201
f 202/202/202 203/203/203 204/204/204
f 205/205/205 206/206/206 207/207/207
f 208/208/208 209/209/209 210/210/210
f 211/211/211 212/212/212 213/213/213
f 214/214/214 215/215/215 216/216/216
f 217/217/217 218/218/218 219/219/219
f 220/220/220 221/221/221 222/222/222
f 223/223/223 224/224/224 225/225/225
f 226/226/226 227/227/227 228/228/228
f 229/229/229 230/230/230 231/231/231
f 232/232/232 233/233/233 234/234/234
f 235/235/235 236/236/236 237/237/237
f 238/238/238 239/239/239 240/240/240
f 241/241/241 242/242/242 243/243/243
f 244/244/244 245/245/245 246/246/246
f 247/247/247 248/248/248 249/249/249
f 250/250/250 251/251/251 252/252/252
f 253/253/253 254/254/254 255/255/255
f 256/256/256 257/257/257 258/258/258
f 259/259/259 260/260/260 261/261/261
f 262/262/262 263/263/263 264/264/264
f 265/265/265 266/266/266 267/267/267
f 268/268/268 269/269/269 270/270/270
f 271/271/271 272/272/272 273/273/273
f 274/274/274 275/275/275 276/276/276
f 277/277/277 278/278/278 279/279/279
f 280/280/280 281/281/281 282/282/282
f 283/283/283 284/284/284 285/285/285
f 286/286/286 287/287/287 288/288/288
f 289/289/289 290/290/290 291/291/291
f 292/292/292 293/293/293 294/294/294
f 295/295/295 296/296/296 297/297/297
f 298/298/298 299/299/299 300/300/300
f 301/301/301 302/302/302 303/303/303
f 304/304/304 305/305/305 306/306/306
f 307/307/307 308/308/308 309/309/309
f 310/310/310 311/311/311 312/312/312
f 313/313/313 314/314/314 315/315/315
f 316/316/316 317/317/317 318/318/318
f 319/319/319 320/320/320 321/321/321
f 322/322/322 323/323/323 324/324/324
f 325/325/325 326/326/326 327/327/327
f 328/328/328 329/329/329 330/330/330
f 331/331/331 332/332/332 333/333/333
f 334/334/334 335/335/335 336/336/336
f 337/337/337 338/338/338 339/339/339
f 340/340/340 341/341/341 342/342/342
f 343/343/343 344/344/344 345/345/345
f 346/346/346 347/347/347 348/348/348
f 349/349/349 350/350/350 351/351/351
f 352/352/352 353/353/353 354/354/354
f 355/355/355 356/356/356 357/357/357
f 358/358/358 359/359/359 360/360/360
f 361/361/361 362/362/362 363/363/363
f 364/364/364 365/365/365 366/366/366
f 367/367/367 368/368/368 369/369/369
f 370/370/370 371/371/371 372/372/372
f 373/373/373 374/374/374 375/375/375
f 376/376/376 377/377/377 378/378/378
f 379/379/379 380/380/380 381/381/381
f 382/382/382 383/383/383 384/384/384
f 385/385/385 386/386/386 387/387/387
f 388/388/388 389/389/389 390/390/390
f 391/391/391 392/392/392 393/393/393
f 394/394/394 395/395/395 396/396/396
f 397/397/397 398/398/398 399/399/399
f 400/400/400 401/401/401 402/402/402
f 403/403/403 404/404/404 405/405/405
f 406/406/406 407/407/407 408/408/408
f 409/409/409 410/410/410 411/411/411
f 412/412/412 413/413/413 414/414/414
f 415/415/415 416/416/416 417/417/417
f 418/418/418 419/419/419 420/420/420
f 421/421/421 422/422/422 423/423/423
f 424/424/424 425/425/425 426/426/426
f 427/427/427 428/428/428 429/429/429
f 430/430/430 431/431/431 432/432/432
f 433/433/433 434/434/434 435/435/435
f 436/436/436 437/437/437 438/438/438
f 439/439/439 440/440/440 441/441/441
f 442/442/442 443/443/443 444/444/444
f 445/445/445 446/446/446 447/447/447
f 448/448/448 449/449/449 450/450/450
f 451/451/451 452/452/452 453/453/453
f 454/454/454 455/455/455 456/456/456
f 457/457/457 458/458/458 459/459/459
f 460/460/460 461/461/461 462/462/462
f 463/463/463 464/464/464 465/465/465
f 466/466/466 467/467/467 468/468/468
f 469/469/469 470/470/470 471/471/471
f 472/472/472 473/473/473 474/474/474
f 475/475/475 476/476/476 477/477/477
f 478/478/478 479/479/479 480/480/480
f 481/481/481 482/482/482 483/483/483
f 484/484/484 485/485/485 486/486/486
f 487/487/487 488/488/488 489/489/489
f 490/490/490 491/491/491 492/492/492
f 493/493/493 494/494/494 495/495/495
f 496/496/496 497/497/497 498/498/498
f 499/499/499 500/500/500 501/501/501
f 502/502/502 503/503/503 504/504/504
f 505/505/505 506/506/506 507/507/507
f 508/508/508 509/509/509 510/510/510
f 511/511/511 512/512/512 513/513/513
f 514/514/514 515/515/515 516/516/516
f 517/517/517 518/518/518 519/519/519
f 520/520/520 521/521/521 522/522/522
f 523/523/523 524/524/524 525/525/525
f 526/526/526 527/527/527 528/528/528
f 529/529/529 530/530/530 531/531/531
f 532/532/532 533/533/533 534/534/534
f 535/535/535 536/536/536 537/537/537
f 538/538/538 539/539/539 540/540/540
f 541/541/541 542/542/542 543/543/543
f 544/544/544 545/545/545 546/546/546
f 547/547/547 548/548/548 549/549/549
f 550/550/550 551/551/551 552/552/552
f 553/553/553 554/554/554 555/555/555
f 556/556/556 557/557/557 558/558/558
f 559/559/559 560/560/560 561/561/561
f 562/562/562 563/563/563 564/564/564
f 565/565/565 566/566/566 567/567/567
f 568/568/568 569/569/569 570/570/570
f 571/571/571 572/572/572 573/573/573
f 574/574/574 575/575/575 576/576/576
f 577/577/577 578/578/578 579/579/579
f 580/580/580 581/581/581 582/582/582
f 583/583/583 584/584/584 585/585/585
f 586/586/586 587/587/587 588/588/588
f 589/589/589 590/590/590 591/591/591
f 592/592/592 593/593/593 594/594/594
f 595/595/595 596/596/596 597/597/597
f 598/598/598 599/599/599 600/600/600
f 601/601/601 602/602/602 603/603/603
f 604/604/604 605/605/605 606/606/606
f 607/607/607 608/608/608 609/609/609
f 610/610/610 611/611/611 612/612/612
f 613/613/613 614/614/614 615/615/615
f 616/616/616 617/617/617 618/618/618
f 619/619/619 620/620/620 621/621/621
f 622/622/622 623/623/623 624/624/624
f 625/625/625 626/626/626 627/627/627
f 628/628/628 629/629/629 630/630/630
f 631/631/631 632/632/632 633/633/633
f 634/634/634 635/635/635 636/636/636
f 637/637/637 638/638/638 639/639/639
f 640/640/640 641/641/641 642/642/642
f 643/643/643 644/644/644 645/645/645
f 646/646/646 647/647/647 648/648/648
f 649/649/649 650/650/650 651/651/651
f 652/652/652 653/653/653 654/654/654
f 655/655/655 656/656/656 657/657/657
f 658/658/658 659/659/659 660/660/660
f 661/661/661 662/662/662 663/663/663
f 664/664/664 665/665/665 666/666/666
f 667/667/667 668/668/668 669/669/669
f 670/670/670 671/671/671 672/672/672
f 673/673/673 674/674/674 675/675/675
f 676/676/676 677/677/677 678/678/678
f 679/679/679 680/680/680 681/681/681
f 682/682/682 683/683/683 684/684/684
f 685/685/685 686/686/686 687/687/687
f 688/688/688 689/689/689 690/690/690
f 691/691/691 692/692/692 693/693/693
f 694/694/694 695/695/695 696/696/696
f 697/697/697 698/698/698 699/699/699
f 700/700/700 701/701/701 702/702/702
f 703/703/703 704/704/704 705/705/705
f 706/706/706 707/707/707 708/708/708
f 709/709/709 710/710/710 711/711/711
f 712/712/712 713/713/713 714/714/714
f 715/715/715 716/716/716 717/717/717
f 718/718/718 719/719/719 720/720/720
f 721/721/721 722/722/722 723/723/723
f 724/724/724 725/725/725 726/726/726
f 727/727/727 728/728/728 729/729/729
f 730/730/730 731/731/731 732/732/732
f 733/733/733 734/734/734 735/735/735
f 736/736/736 737/737/737 738/738/738
f 739/739/739 740/740/740 741/741/741
f 742/742/742 743/743/743 744/744/744
f 745/745/745 746/746/746 747/747/747
f 748/748/748 749/749/749 750/750/750
f 751/751/751 752/752/752 753/753/753
f 754/754/754 755/755/755 756/756/756
f 757/757/757 758/758/758 759/759/759
f 760/760/760 761/761/761 762/762/762
f 763/763/763 764/764/764 765/765/765
f 766/766/766 767/767/767 768/768/768
f 769/769/769 770/770/770 771/771/771
f 772/772/772 773/773/773 774/774/774
f 775/775/775 776/776/776 777/777/777
f 778/778/778 779/779/779 780/780/780
f 781/781/781 782/782/782 783/783/783
f 784/784/784 785/785/785 786/786/786
f 787/787/787 788/788/788 789/789/789
f 790/790/790 791/791/791 792/792/792
f 793/793/793 794/794/794 795/795/795
f 796/796/796 797/797/797 798/798/798
f 799/799/799 800/800/800 801/801/801
f 802/802/802 803/803/803 804/804/804
f 805/805/805 806/806/806 807/807/807
f 808/808/808 809/809/809 810/810/810
f 811/811/811 812/812/812 813/813/813
f 814/814/814 815/815/815 816/816/816
f 817/817/817 818/818/818 819/819/819
f 820/820/820 821/821/821 822/822/822
f 823/823/823 824/824/824 825/825/825
f 826/826/826 827/827/827 828/828/828
f 829/829/829 830/830/830 831/831/831
f 832/832/832 833/833/833 834/834/834
f 835/835/835 836/836/836 837/837/837
f 838/838/838 839/839/839 840/840/840
f 841/841/841 842/842/842 843/843/843
f 844/844/844 845/845/845 846/846/846
f 847/847/847 848/848/848 849/849/849
f 850/850/850 851/851/851 852/852/852
f 853/853/853 854/854/854 855/855/855
f 856/856/856 857/857/857 858/858/858
f 859/859/859 860/860/860 861/861/861
f 862/862/862 863/863/863 864/864/864
f 865/865/865 866/866/866 867/867/867
f 868/868/868 869/869/869 870/870/870
f 871/871/871 872/872/872 873/873/873
f 874/874/874 875/875/875 876/876/876
f 877/877/877 878/878/878 879/879/879
f 880/880/880 881/881/881 882/882/882
f 883/883/883 884/884/884 885/885/885
f 886/886/886 887/887/887 888/888/888
f 889/889/889 890/890/890 891/891/891
f 892/892/892 893/893/893 894/894/894
f 895/895/895 896/896/896 897/897/897
f 898/898/898 899/899/899 900/900/900
f 901/901/901 902/902/902 903/903/903
f 904/904/904 905/905/905 906/906/906
f 907/907/907 908/908/908 909/909/909
f 910/910/910 911/911/911 912/912/912
f 913/913/913 914/914/914 915/915/915
f 916/916/916 917/917/917 918/918/918
f 919/919/919 920/920/920 921/921/921
f 922/922/922 923/923/923 924/924/924
f 925/925/925 926/926/926 927/927/927
f 928/928/928 929/929/929 930/930/930
f 931/931/931 932/932/932 933/933/933
f 934/934/934 935/935/935 936/936/936
f 937/937/937 938/938/938 939/939/939
f 940/940/940 941/941/941 942/942/942
f 943/943/943 944/944/944 945/945/945
f 946/946/946 947/947/947 948/948/948
f 949/949/949 950/950/950 951/951/951
f 952/952/952 953/953/953 954/954/954
f 955/955/955 956/956/956 957/957/957
f 958/958/958 959/959/959 960/960/960
f 961/961/961 962/962/962 963/963/963
f 964/964/964 965/965/965 966/966/966
f 967/967/967 968/968/968 969/969/969
f 970/970/970 971/971/971 972/972/972
f 973/973/973 974/974/974 975/975/975
f 976/976/976 977/977/977 978/978/978
f 979/979/979 980/980/980 981/981/981
f 982/982/982 983/983/983 984/984/984
f 985/985/985 986/986/986 987/987/987
f 988/988/988 989/989/989 990/990/990
f 991/991/991 992/992/992 993/993/993
f 994/994/994 995/995/995 996/996/996
f 997/997/997 998/998/998 999/999/999
f 1000/1000/1000 1001/1001/1001 1002/1002/1002
f 1003/1003/1003 1004/1004/1004 1005/1005/1005
f 1006/1006/1006 1007/1007/1007 1008/1008/1008
f 1009/1009/1009 1010/1010/1010 1011/1011/1011
f 1012/1012/1012 1013/1013/1013 1014/1014/1014
f 1015/1015/1015 1016/1016/1016 1017/1017/1017
f 1018/1018/1018 1019/1019/1019 1020/1020/1020
f 1021/1021/1021 1022/1022/1022 1023/1023/1023
f 1024/1024/1024 1025/1025/1025 1026/1026/1026
f 1027/1027/1027 1028/1028/1028 1029/1029/1029
f 1030/1030/1030 1031/1031/1031 1032/1032/1032
f 1033/1033/1033 1034/1034/1034 1035/1035/1035
f 1036/1036/1036 1037/1037/1037 1038/1038/1038
f 1039/1039/1039 1040/1040/1040 1041/1041/1041
f 1042/1042/1042 1043/1043/1043 1044/1044/1044
f 1045/1045/1045 1046/1046/1046 1047/1047/1047
f 1048/1048/1048 1049/1049/1049 1050/1050/1050
f 1051/1051/1051 1052/1052/1052 1053/1053/1053
f 1054/1054/1054 1055/1055/1055 1056/1056/1056
f 1057/1057/1057 1058/1058/1058 1059/1059/1059
f 1060/1060/1060 1061/1061/1061 1062/1062/1062
f 1063/1063/1063 1064/1064/1064 1065/1065/1065
f 1066/1066/1066 1067/1067/1067 1068/1068/1068
f 1069/1069/1069 1070/1070/1070 1071/1071/1071
f 1072/1072/1072 1073/1073/1073 1074/1074/1074
f 1075/1075/1075 1076/1076/1076 1077/1077/1077
f 1078/1078/1078 1079/1079/1079 1080/1080/1080
f 1081/1081/1081 1082/1082/1082 1083/1083/1083
f 1084/1084/1084 1085/1085/1085 1086/1086/1086
f 1087/1087/1087 1088/1088/1088 1089/1089/1089
f 1090/1090/1090 1091/1091/1091 1092/1092/1092
f 1093/1093/1093 1094/1094/1094 1095/1095/1095
f 1096/1096/1096 1097/1097/1097 1098/1098/1098
f 1099/1099/1099 1100/1100/1100 1101/1101/1101
f 1102/1102/1102 1103/1103/1103 1104/1104/1104
